<svg xmlns="http://www.w3.org/2000/svg" xmlns:xlink="http://www.w3.org/1999/xlink" contentStyleType="text/css" data-diagram-type="DESCRIPTION" height="4578.125px" preserveAspectRatio="none" style="width:4843px;height:4578px;background:#FFFFFF;" version="1.1" viewBox="0 0 4843 4578" width="4843.75px" zoomAndPan="magnify"><title>Complete Task Ownership Matrix - Ghostty &#215; tmux Integration</title><defs/><g><g class="title" data-source-line="4"><text fill="#000000" font-family="sans-serif" font-size="43.75" font-weight="bold" lengthAdjust="spacing" textLength="1427.4506" x="1686.2747" y="73.5474">Complete Task Ownership Matrix - Ghostty &#215; tmux Integration</text><text fill="#000000" font-family="sans-serif" font-size="37.5" font-weight="bold" lengthAdjust="spacing" textLength="708.2703" x="2045.8649" y="119.0308">All 5 weeks with clear accountability</text></g><!--cluster Week 1: UI Backend Foundation--><g class="cluster" data-entity="Week 1. UI Backend Foundation" data-source-line="6" data-uid="ent0002" id="cluster_Week 1. UI Backend Foundation"><path d="M514.0625,180.0659 L1221.225,180.0659 A11.7188,11.7188 0 0 1 1229.0375,187.8784 L1250.9125,250.3418 L2942.1875,250.3418 A7.8125,7.8125 0 0 1 2950,258.1543 L2950,953.2847 A7.8125,7.8125 0 0 1 2942.1875,961.0972 L514.0625,961.0972 A7.8125,7.8125 0 0 1 506.25,953.2847 L506.25,187.8784 A7.8125,7.8125 0 0 1 514.0625,180.0659" fill="#E8F5E9" style="stroke:#000000;stroke-width:4.6875;"/><line style="stroke:#000000;stroke-width:4.6875;" x1="506.25" x2="1250.9125" y1="250.3418" y2="250.3418"/><text fill="#000000" font-family="sans-serif" font-size="43.75" font-weight="bold" lengthAdjust="spacing" textLength="704.0375" x="518.75" y="228.6133">Week 1: UI Backend Foundation</text></g><!--cluster Week 2: Event Loop & Callbacks--><g class="cluster" data-entity="Week 2. Event Loop . Callbacks" data-source-line="13" data-uid="ent0007" id="cluster_Week 2. Event Loop . Callbacks"><path d="M26.5625,1036.0972 L742.9321,1036.0972 A11.7188,11.7188 0 0 1 750.7446,1043.9097 L772.6196,1106.373 L2939.0625,1106.373 A7.8125,7.8125 0 0 1 2946.875,1114.1855 L2946.875,1404.7534 A7.8125,7.8125 0 0 1 2939.0625,1412.5659 L26.5625,1412.5659 A7.8125,7.8125 0 0 1 18.75,1404.7534 L18.75,1043.9097 A7.8125,7.8125 0 0 1 26.5625,1036.0972" fill="#E3F2FD" style="stroke:#000000;stroke-width:4.6875;"/><line style="stroke:#000000;stroke-width:4.6875;" x1="18.75" x2="772.6196" y1="1106.373" y2="1106.373"/><text fill="#000000" font-family="sans-serif" font-size="43.75" font-weight="bold" lengthAdjust="spacing" textLength="713.2446" x="31.25" y="1084.6445">Week 2: Event Loop &amp; Callbacks</text></g><!--cluster Week 3: Zig FFI Bridge--><g class="cluster" data-entity="Week 3. Zig FFI Bridge" data-source-line="20" data-uid="ent0012" id="cluster_Week 3. Zig FFI Bridge"><path d="M1435.9375,1487.5659 L1936.0992,1487.5659 A11.7188,11.7188 0 0 1 1943.9117,1495.3784 L1965.7867,1557.8418 L3498.4375,1557.8418 A7.8125,7.8125 0 0 1 3506.25,1565.6543 L3506.25,2260.7847 A7.8125,7.8125 0 0 1 3498.4375,2268.5972 L1435.9375,2268.5972 A7.8125,7.8125 0 0 1 1428.125,2260.7847 L1428.125,1495.3784 A7.8125,7.8125 0 0 1 1435.9375,1487.5659" fill="#FFF8E1" style="stroke:#000000;stroke-width:4.6875;"/><line style="stroke:#000000;stroke-width:4.6875;" x1="1428.125" x2="1965.7867" y1="1557.8418" y2="1557.8418"/><text fill="#000000" font-family="sans-serif" font-size="43.75" font-weight="bold" lengthAdjust="spacing" textLength="497.0367" x="1440.625" y="1536.1133">Week 3: Zig FFI Bridge</text></g><!--cluster Week 4: Testing & Performance--><g class="cluster" data-entity="Week 4. Testing . Performance" data-source-line="27" data-uid="ent0017" id="cluster_Week 4. Testing . Performance"><path d="M1164.0625,2343.5972 L1869.8364,2343.5972 A11.7188,11.7188 0 0 1 1877.6489,2351.4097 L1899.5239,2413.873 L3392.1875,2413.873 A7.8125,7.8125 0 0 1 3400,2421.6855 L3400,3116.8159 A7.8125,7.8125 0 0 1 3392.1875,3124.6284 L1164.0625,3124.6284 A7.8125,7.8125 0 0 1 1156.25,3116.8159 L1156.25,2351.4097 A7.8125,7.8125 0 0 1 1164.0625,2343.5972" fill="#FFE0B2" style="stroke:#000000;stroke-width:4.6875;"/><line style="stroke:#000000;stroke-width:4.6875;" x1="1156.25" x2="1899.5239" y1="2413.873" y2="2413.873"/><text fill="#000000" font-family="sans-serif" font-size="43.75" font-weight="bold" lengthAdjust="spacing" textLength="702.6489" x="1168.75" y="2392.1445">Week 4: Testing &amp; Performance</text></g><!--cluster Week 5: Release Preparation--><g class="cluster" data-entity="Week 5. Release Preparation" data-source-line="34" data-uid="ent0022" id="cluster_Week 5. Release Preparation"><path d="M3482.8125,2343.5972 L4120.4407,2343.5972 A11.7188,11.7188 0 0 1 4128.2532,2351.4097 L4150.1282,2413.873 L4814.0625,2413.873 A7.8125,7.8125 0 0 1 4821.875,2421.6855 L4821.875,3521.3784 A7.8125,7.8125 0 0 1 4814.0625,3529.1909 L3482.8125,3529.1909 A7.8125,7.8125 0 0 1 3475,3521.3784 L3475,2351.4097 A7.8125,7.8125 0 0 1 3482.8125,2343.5972" fill="#F3E5F5" style="stroke:#000000;stroke-width:4.6875;"/><line style="stroke:#000000;stroke-width:4.6875;" x1="3475" x2="4150.1282" y1="2413.873" y2="2413.873"/><text fill="#000000" font-family="sans-serif" font-size="43.75" font-weight="bold" lengthAdjust="spacing" textLength="634.5032" x="3487.5" y="2392.1445">Week 5: Release Preparation</text></g><!--entity T101--><g class="entity" data-entity="T101" data-source-line="7" data-uid="ent0003" id="entity_T101"><rect fill="#FFF8E1" height="217.0776" rx="7.8125" ry="7.8125" style="stroke:#181818;stroke-width:1.5625;" width="752.8656" x="554.8125" y="289.4409"/><text fill="#000000" font-family="sans-serif" font-size="43.75" font-weight="bold" lengthAdjust="spacing" textLength="690.3656" x="586.0625" y="362.9883">T-101: Extract tty_write hooks</text><text fill="#000000" font-family="sans-serif" font-size="43.75" lengthAdjust="spacing" textLength="388.7512" x="586.0625" y="414.5142">Owner: CORE-001</text><text fill="#000000" font-family="sans-serif" font-size="43.75" lengthAdjust="spacing" textLength="448.9288" x="586.0625" y="466.04">2 days | Status: Todo</text></g><!--entity T102--><g class="entity" data-entity="T102" data-source-line="8" data-uid="ent0004" id="entity_T102"><rect fill="#FFF5F5" height="217.0776" rx="7.8125" ry="7.8125" style="stroke:#181818;stroke-width:1.5625;" width="648.2117" x="1416.5313" y="289.4409"/><text fill="#000000" font-family="sans-serif" font-size="43.75" font-weight="bold" lengthAdjust="spacing" textLength="585.7117" x="1447.7813" y="362.9883">T-102: UI backend design</text><text fill="#000000" font-family="sans-serif" font-size="43.75" lengthAdjust="spacing" textLength="393.3868" x="1447.7813" y="414.5142">Owner: ARCH-001</text><text fill="#000000" font-family="sans-serif" font-size="43.75" lengthAdjust="spacing" textLength="426.6266" x="1447.7813" y="466.04">1 day | Status: Todo</text></g><!--entity T103--><g class="entity" data-entity="T103" data-source-line="9" data-uid="ent0005" id="entity_T103"><rect fill="#FFF5F5" height="217.0776" rx="7.8125" ry="7.8125" style="stroke:#181818;stroke-width:1.5625;" width="574.2767" x="744.125" y="694.0347"/><text fill="#000000" font-family="sans-serif" font-size="43.75" font-weight="bold" lengthAdjust="spacing" textLength="511.7767" x="775.375" y="767.582">T-103: Backend router</text><text fill="#000000" font-family="sans-serif" font-size="43.75" lengthAdjust="spacing" textLength="388.7512" x="775.375" y="819.1079">Owner: CORE-002</text><text fill="#000000" font-family="sans-serif" font-size="43.75" lengthAdjust="spacing" textLength="448.9288" x="775.375" y="870.6338">3 days | Status: Todo</text></g><!--entity T104--><g class="entity" data-entity="T104" data-source-line="10" data-uid="ent0006" id="entity_T104"><rect fill="#FFF5F5" height="217.0776" rx="7.8125" ry="7.8125" style="stroke:#181818;stroke-width:1.5625;" width="725.5005" x="2174.75" y="289.4409"/><text fill="#000000" font-family="sans-serif" font-size="43.75" font-weight="bold" lengthAdjust="spacing" textLength="663.0005" x="2206" y="362.9883">T-104: Ghostty backend stub</text><text fill="#000000" font-family="sans-serif" font-size="43.75" lengthAdjust="spacing" textLength="377.3224" x="2206" y="414.5142">Owner: INTG-001</text><text fill="#000000" font-family="sans-serif" font-size="43.75" lengthAdjust="spacing" textLength="448.9288" x="2206" y="466.04">2 days | Status: Todo</text></g><!--entity T201--><g class="entity" data-entity="T201" data-source-line="14" data-uid="ent0008" id="entity_T201"><rect fill="#FFF5F5" height="217.0776" rx="7.8125" ry="7.8125" style="stroke:#181818;stroke-width:1.5625;" width="622.9614" x="1444.7813" y="1145.4722"/><text fill="#000000" font-family="sans-serif" font-size="43.75" font-weight="bold" lengthAdjust="spacing" textLength="560.4614" x="1476.0313" y="1219.0195">T-201: Event loop vtable</text><text fill="#000000" font-family="sans-serif" font-size="43.75" lengthAdjust="spacing" textLength="388.7512" x="1476.0313" y="1270.5454">Owner: CORE-001</text><text fill="#000000" font-family="sans-serif" font-size="43.75" lengthAdjust="spacing" textLength="448.9288" x="1476.0313" y="1322.0713">3 days | Status: Todo</text></g><!--entity T202--><g class="entity" data-entity="T202" data-source-line="15" data-uid="ent0009" id="entity_T202"><rect fill="#FFF5F5" height="217.0776" rx="7.8125" ry="7.8125" style="stroke:#181818;stroke-width:1.5625;" width="550.4578" x="68.5313" y="1145.4722"/><text fill="#000000" font-family="sans-serif" font-size="43.75" font-weight="bold" lengthAdjust="spacing" textLength="487.9578" x="99.7813" y="1219.0195">T-202: Grid callbacks</text><text fill="#000000" font-family="sans-serif" font-size="43.75" lengthAdjust="spacing" textLength="388.7512" x="99.7813" y="1270.5454">Owner: CORE-002</text><text fill="#000000" font-family="sans-serif" font-size="43.75" lengthAdjust="spacing" textLength="448.9288" x="99.7813" y="1322.0713">2 days | Status: Todo</text></g><!--entity T203--><g class="entity" data-entity="T203" data-source-line="16" data-uid="ent0010" id="entity_T203"><rect fill="#FFF5F5" height="217.0776" rx="7.8125" ry="7.8125" style="stroke:#181818;stroke-width:1.5625;" width="605.8075" x="728.3438" y="1145.4722"/><text fill="#000000" font-family="sans-serif" font-size="43.75" font-weight="bold" lengthAdjust="spacing" textLength="543.3075" x="759.5938" y="1219.0195">T-203: Layout callbacks</text><text fill="#000000" font-family="sans-serif" font-size="43.75" lengthAdjust="spacing" textLength="388.7512" x="759.5938" y="1270.5454">Owner: CORE-001</text><text fill="#000000" font-family="sans-serif" font-size="43.75" lengthAdjust="spacing" textLength="448.9288" x="759.5938" y="1322.0713">2 days | Status: Todo</text></g><!--entity T204--><g class="entity" data-entity="T204" data-source-line="17" data-uid="ent0011" id="entity_T204"><rect fill="#FFF5F5" height="217.0776" rx="7.8125" ry="7.8125" style="stroke:#181818;stroke-width:1.5625;" width="721.2708" x="2176.875" y="1145.4722"/><text fill="#000000" font-family="sans-serif" font-size="43.75" font-weight="bold" lengthAdjust="spacing" textLength="658.7708" x="2208.125" y="1219.0195">T-204: Copy-mode callbacks</text><text fill="#000000" font-family="sans-serif" font-size="43.75" lengthAdjust="spacing" textLength="377.3224" x="2208.125" y="1270.5454">Owner: INTG-002</text><text fill="#000000" font-family="sans-serif" font-size="43.75" lengthAdjust="spacing" textLength="448.9288" x="2208.125" y="1322.0713">2 days | Status: Todo</text></g><!--entity T301--><g class="entity" data-entity="T301" data-source-line="21" data-uid="ent0013" id="entity_T301"><rect fill="#FFF5F5" height="217.0776" rx="7.8125" ry="7.8125" style="stroke:#181818;stroke-width:1.5625;" width="511.4288" x="1478.6563" y="1596.9409"/><text fill="#000000" font-family="sans-serif" font-size="43.75" font-weight="bold" lengthAdjust="spacing" textLength="446.6003" x="1509.9063" y="1670.4883">T-301: FFI bindings</text><text fill="#000000" font-family="sans-serif" font-size="43.75" lengthAdjust="spacing" textLength="377.3224" x="1509.9063" y="1722.0142">Owner: INTG-001</text><text fill="#000000" font-family="sans-serif" font-size="43.75" lengthAdjust="spacing" textLength="448.9288" x="1509.9063" y="1773.54">3 days | Status: Todo</text></g><!--entity T302--><g class="entity" data-entity="T302" data-source-line="22" data-uid="ent0014" id="entity_T302"><rect fill="#FFF5F5" height="217.0776" rx="7.8125" ry="7.8125" style="stroke:#181818;stroke-width:1.5625;" width="671.283" x="1476.8438" y="2001.5034"/><text fill="#000000" font-family="sans-serif" font-size="43.75" font-weight="bold" lengthAdjust="spacing" textLength="608.783" x="1508.0938" y="2075.0508">T-302: Ghostty integration</text><text fill="#000000" font-family="sans-serif" font-size="43.75" lengthAdjust="spacing" textLength="377.3224" x="1508.0938" y="2126.5767">Owner: INTG-002</text><text fill="#000000" font-family="sans-serif" font-size="43.75" lengthAdjust="spacing" textLength="448.9288" x="1508.0938" y="2178.1025">3 days | Status: Todo</text></g><!--entity T303--><g class="entity" data-entity="T303" data-source-line="23" data-uid="ent0015" id="entity_T303"><rect fill="#FFF5F5" height="217.0776" rx="7.8125" ry="7.8125" style="stroke:#181818;stroke-width:1.5625;" width="690.8295" x="2098.3438" y="1596.9409"/><text fill="#000000" font-family="sans-serif" font-size="43.75" font-weight="bold" lengthAdjust="spacing" textLength="628.3295" x="2129.5938" y="1670.4883">T-303: Memory safety layer</text><text fill="#000000" font-family="sans-serif" font-size="43.75" lengthAdjust="spacing" textLength="377.3224" x="2129.5938" y="1722.0142">Owner: INTG-001</text><text fill="#000000" font-family="sans-serif" font-size="43.75" lengthAdjust="spacing" textLength="448.9288" x="2129.5938" y="1773.54">2 days | Status: Todo</text></g><!--entity T304--><g class="entity" data-entity="T304" data-source-line="24" data-uid="ent0016" id="entity_T304"><rect fill="#FFF5F5" height="217.0776" rx="7.8125" ry="7.8125" style="stroke:#181818;stroke-width:1.5625;" width="558.96" x="2898.6563" y="1596.9409"/><text fill="#000000" font-family="sans-serif" font-size="43.75" font-weight="bold" lengthAdjust="spacing" textLength="496.46" x="2929.9063" y="1670.4883">T-304: Error handling</text><text fill="#000000" font-family="sans-serif" font-size="43.75" lengthAdjust="spacing" textLength="377.3224" x="2929.9063" y="1722.0142">Owner: INTG-002</text><text fill="#000000" font-family="sans-serif" font-size="43.75" lengthAdjust="spacing" textLength="426.6266" x="2929.9063" y="1773.54">1 day | Status: Todo</text></g><!--entity T401--><g class="entity" data-entity="T401" data-source-line="28" data-uid="ent0018" id="entity_T401"><rect fill="#FFF5F5" height="217.0776" rx="7.8125" ry="7.8125" style="stroke:#181818;stroke-width:1.5625;" width="607.132" x="2121.4375" y="2452.9722"/><text fill="#000000" font-family="sans-serif" font-size="43.75" font-weight="bold" lengthAdjust="spacing" textLength="544.632" x="2152.6875" y="2526.5195">T-401: Integration tests</text><text fill="#000000" font-family="sans-serif" font-size="43.75" lengthAdjust="spacing" textLength="337.2894" x="2152.6875" y="2578.0454">Owner: QA-001</text><text fill="#000000" font-family="sans-serif" font-size="43.75" lengthAdjust="spacing" textLength="448.9288" x="2152.6875" y="2629.5713">3 days | Status: Todo</text></g><!--entity T402--><g class="entity" data-entity="T402" data-source-line="29" data-uid="ent0019" id="entity_T402"><rect fill="#FFF5F5" height="217.0776" rx="7.8125" ry="7.8125" style="stroke:#181818;stroke-width:1.5625;" width="806.8054" x="1205.9688" y="2452.9722"/><text fill="#000000" font-family="sans-serif" font-size="43.75" font-weight="bold" lengthAdjust="spacing" textLength="744.3054" x="1237.2188" y="2526.5195">T-402: Performance benchmarks</text><text fill="#000000" font-family="sans-serif" font-size="43.75" lengthAdjust="spacing" textLength="337.2894" x="1237.2188" y="2578.0454">Owner: QA-003</text><text fill="#000000" font-family="sans-serif" font-size="43.75" lengthAdjust="spacing" textLength="448.9288" x="1237.2188" y="2629.5713">2 days | Status: Todo</text></g><!--entity T403--><g class="entity" data-entity="T403" data-source-line="30" data-uid="ent0020" id="entity_T403"><rect fill="#FFF5F5" height="217.0776" rx="7.8125" ry="7.8125" style="stroke:#181818;stroke-width:1.5625;" width="526.2543" x="1540" y="2857.5347"/><text fill="#000000" font-family="sans-serif" font-size="43.75" font-weight="bold" lengthAdjust="spacing" textLength="463.7543" x="1571.25" y="2931.082">T-403: Optimization</text><text fill="#000000" font-family="sans-serif" font-size="43.75" lengthAdjust="spacing" textLength="377.3224" x="1571.25" y="2982.6079">Owner: INTG-003</text><text fill="#000000" font-family="sans-serif" font-size="43.75" lengthAdjust="spacing" textLength="448.9288" x="1571.25" y="3034.1338">3 days | Status: Todo</text></g><!--entity T404--><g class="entity" data-entity="T404" data-source-line="31" data-uid="ent0021" id="entity_T404"><rect fill="#FFF5F5" height="217.0776" rx="7.8125" ry="7.8125" style="stroke:#181818;stroke-width:1.5625;" width="511.4288" x="2838.0313" y="2452.9722"/><text fill="#000000" font-family="sans-serif" font-size="43.75" font-weight="bold" lengthAdjust="spacing" textLength="378.0914" x="2869.2813" y="2526.5195">T-404: Bug fixes</text><text fill="#000000" font-family="sans-serif" font-size="43.75" lengthAdjust="spacing" textLength="388.7512" x="2869.2813" y="2578.0454">Owner: CORE-002</text><text fill="#000000" font-family="sans-serif" font-size="43.75" lengthAdjust="spacing" textLength="448.9288" x="2869.2813" y="2629.5713">2 days | Status: Todo</text></g><!--entity T501--><g class="entity" data-entity="T501" data-source-line="35" data-uid="ent0023" id="entity_T501"><rect fill="#FFF5F5" height="217.0776" rx="7.8125" ry="7.8125" style="stroke:#181818;stroke-width:1.5625;" width="563.7878" x="3524.3438" y="2452.9722"/><text fill="#000000" font-family="sans-serif" font-size="43.75" font-weight="bold" lengthAdjust="spacing" textLength="501.2878" x="3555.5938" y="2526.5195">T-501: CI/CD pipeline</text><text fill="#000000" font-family="sans-serif" font-size="43.75" lengthAdjust="spacing" textLength="354.8492" x="3555.5938" y="2578.0454">Owner: OPS-001</text><text fill="#000000" font-family="sans-serif" font-size="43.75" lengthAdjust="spacing" textLength="448.9288" x="3555.5938" y="2629.5713">2 days | Status: Todo</text></g><!--entity T502--><g class="entity" data-entity="T502" data-source-line="36" data-uid="ent0024" id="entity_T502"><rect fill="#FFF5F5" height="217.0776" rx="7.8125" ry="7.8125" style="stroke:#181818;stroke-width:1.5625;" width="575.9644" x="4196.4063" y="2452.9722"/><text fill="#000000" font-family="sans-serif" font-size="43.75" font-weight="bold" lengthAdjust="spacing" textLength="513.4644" x="4227.6563" y="2526.5195">T-502: Documentation</text><text fill="#000000" font-family="sans-serif" font-size="43.75" lengthAdjust="spacing" textLength="393.3868" x="4227.6563" y="2578.0454">Owner: ARCH-001</text><text fill="#000000" font-family="sans-serif" font-size="43.75" lengthAdjust="spacing" textLength="448.9288" x="4227.6563" y="2629.5713">2 days | Status: Todo</text></g><!--entity T503--><g class="entity" data-entity="T503" data-source-line="37" data-uid="ent0025" id="entity_T503"><rect fill="#FFF5F5" height="217.0776" rx="7.8125" ry="7.8125" style="stroke:#181818;stroke-width:1.5625;" width="604.5258" x="3525.875" y="2857.5347"/><text fill="#000000" font-family="sans-serif" font-size="43.75" font-weight="bold" lengthAdjust="spacing" textLength="542.0258" x="3557.125" y="2931.082">T-503: Release package</text><text fill="#000000" font-family="sans-serif" font-size="43.75" lengthAdjust="spacing" textLength="354.8492" x="3557.125" y="2982.6079">Owner: OPS-002</text><text fill="#000000" font-family="sans-serif" font-size="43.75" lengthAdjust="spacing" textLength="426.6266" x="3557.125" y="3034.1338">1 day | Status: Todo</text></g><!--entity T504--><g class="entity" data-entity="T504" data-source-line="38" data-uid="ent0026" id="entity_T504"><rect fill="#FFF5F5" height="217.0776" rx="7.8125" ry="7.8125" style="stroke:#181818;stroke-width:1.5625;" width="578.3569" x="3526.4375" y="3262.1284"/><text fill="#000000" font-family="sans-serif" font-size="43.75" font-weight="bold" lengthAdjust="spacing" textLength="515.8569" x="3557.6875" y="3335.6758">T-504: Final validation</text><text fill="#000000" font-family="sans-serif" font-size="43.75" lengthAdjust="spacing" textLength="337.2894" x="3557.6875" y="3387.2017">Owner: QA-001</text><text fill="#000000" font-family="sans-serif" font-size="43.75" lengthAdjust="spacing" textLength="448.9288" x="3557.6875" y="3438.7275">2 days | Status: Todo</text></g><!--link T101 to T103--><g class="link" data-entity-1="T101" data-entity-2="T103" data-source-line="42" data-uid="lnk27" id="link_T101_T103"><path d="M958.0625,507.8472 C972.5,565.4722 985.751,618.1605 1000.1572,675.598" fill="none" id="T101-to-T103" style="stroke:#FF6B6B;stroke-width:6.25;"/><polygon fill="#FF6B6B" points="1004.7188,693.7847,1010.0009,663.4636,1000.9175,678.6291,985.752,669.5457,1004.7188,693.7847" style="stroke:#FF6B6B;stroke-width:6.25;"/></g><!--link T103 to T201--><g class="link" data-entity-1="T103" data-entity-2="T201" data-source-line="43" data-uid="lnk28" id="link_T103_T201"><path d="M1220.9375,912.5659 C1275.0938,943.7534 1333.9375,978.2847 1387.5,1011.0972 C1456.5313,1053.4097 1515.9124,1091.5057 1580.2249,1133.6619" fill="none" id="T103-to-T201" style="stroke:#FF6B6B;stroke-width:6.25;"/><polygon fill="#FF6B6B" points="1595.9063,1143.9409,1579.2369,1118.0682,1582.8385,1135.3751,1565.5316,1138.9767,1595.9063,1143.9409" style="stroke:#FF6B6B;stroke-width:6.25;"/></g><!--link T201 to T301--><g class="link" data-entity-1="T201" data-entity-2="T301" data-source-line="44" data-uid="lnk29" id="link_T201_T301"><path d="M1751,1363.7847 C1747.5625,1434.2534 1743.9551,1507.5262 1740.4864,1577.8387" fill="none" id="T201-to-T301" style="stroke:#FF6B6B;stroke-width:6.25;"/><polygon fill="#FF6B6B" points="1739.5625,1596.5659,1753.4331,1569.091,1740.3324,1580.9599,1728.4635,1567.8592,1739.5625,1596.5659" style="stroke:#FF6B6B;stroke-width:6.25;"/></g><!--link T301 to T401--><g class="link" data-entity-1="T301" data-entity-2="T401" data-source-line="45" data-uid="lnk30" id="link_T301_T401"><path d="M1967.4375,1815.4097 C2050.6563,1862.7847 2139.4688,1925.2534 2203.125,2001.5034 C2314.5313,2134.9097 2370.6667,2313.011 2399.2605,2433.386" fill="none" id="T301-to-T401" style="stroke:#FF6B6B;stroke-width:6.25;"/><polygon fill="#FF6B6B" points="2403.5938,2451.6284,2409.2554,2421.376,2399.9827,2436.4264,2384.9322,2427.1537,2403.5938,2451.6284" style="stroke:#FF6B6B;stroke-width:6.25;"/></g><!--link T401 to T504--><g class="link" data-entity-1="T401" data-entity-2="T504" data-source-line="46" data-uid="lnk31" id="link_T401_T504"><path d="M2548.5313,2671.3784 C2700.3438,2798.5034 2969.7188,3011.0034 3228.125,3149.6284 C3321.5938,3199.7534 3411.4353,3237.0118 3508.6853,3271.7305" fill="none" id="T401-to-T504" style="stroke:#FF6B6B;stroke-width:6.25;"/><polygon fill="#FF6B6B" points="3526.3438,3278.0347,3504.0589,3256.8062,3511.6284,3272.7812,3495.6533,3280.3507,3526.3438,3278.0347" style="stroke:#FF6B6B;stroke-width:6.25;"/></g><!--link T102 to T103--><g class="link" data-entity-1="T102" data-entity-2="T103" data-source-line="49" data-uid="lnk32" id="link_T102_T103"><path d="M1550.5313,507.8472 C1448.3438,565.2222 1339.0653,626.5691 1237.0028,683.9129" fill="none" id="T102-to-T103" style="stroke:#181818;stroke-width:3.125;"/><polygon fill="#181818" points="1220.6563,693.0972,1251.299,690.2184,1234.2784,685.4436,1239.0532,668.423,1220.6563,693.0972" style="stroke:#181818;stroke-width:3.125;"/></g><!--link T103 to T202--><g class="link" data-entity-1="T103" data-entity-2="T202" data-source-line="50" data-uid="lnk33" id="link_T103_T202"><path d="M837.6875,912.4409 C784.3125,943.1909 726.8438,977.5347 675,1011.0972 C610.9375,1052.5972 557.382,1090.4202 499.257,1133.2015" fill="none" id="T103-to-T202" style="stroke:#181818;stroke-width:3.125;"/><polygon fill="#181818" points="484.1563,1144.3159,514.217,1137.7114,496.7402,1135.0539,499.3977,1117.5771,484.1563,1144.3159" style="stroke:#181818;stroke-width:3.125;"/></g><!--link T103 to T203--><g class="link" data-entity-1="T103" data-entity-2="T203" data-source-line="51" data-uid="lnk34" id="link_T103_T203"><path d="M1031.25,912.3159 C1031.25,982.8159 1031.25,1056.0659 1031.25,1126.3784" fill="none" id="T103-to-T203" style="stroke:#181818;stroke-width:3.125;"/><polygon fill="#181818" points="1031.25,1145.1284,1043.75,1117.0034,1031.25,1129.5034,1018.75,1117.0034,1031.25,1145.1284" style="stroke:#181818;stroke-width:3.125;"/></g><!--link T104 to T204--><g class="link" data-entity-1="T104" data-entity-2="T204" data-source-line="52" data-uid="lnk35" id="link_T104_T204"><path d="M2537.5,507.8784 C2537.5,671.4722 2537.5,963.5347 2537.5,1126.4722" fill="none" id="T104-to-T204" style="stroke:#181818;stroke-width:3.125;"/><polygon fill="#181818" points="2537.5,1145.2222,2550,1117.0972,2537.5,1129.5972,2525,1117.0972,2537.5,1145.2222" style="stroke:#181818;stroke-width:3.125;"/></g><!--link T202 to T302--><g class="link" data-entity-1="T202" data-entity-2="T302" data-source-line="53" data-uid="lnk36" id="link_T202_T302"><path d="M465.1875,1363.0972 C607.6875,1483.6597 854.5938,1681.0347 1090.625,1814.0034 C1219.375,1886.5347 1352.1643,1943.8327 1482.1955,1993.3327" fill="none" id="T202-to-T302" style="stroke:#181818;stroke-width:3.125;"/><polygon fill="#181818" points="1499.7188,2000.0034,1477.881,1978.3152,1485.116,1994.4445,1468.9867,2001.6795,1499.7188,2000.0034" style="stroke:#181818;stroke-width:3.125;"/></g><!--link T203 to T302--><g class="link" data-entity-1="T203" data-entity-2="T302" data-source-line="54" data-uid="lnk37" id="link_T203_T302"><path d="M1069.0625,1364.0034 C1115.8125,1484.5347 1205.0313,1680.9722 1331.25,1814.0034 C1402.5938,1889.2222 1480.9899,1943.2631 1567.5524,1991.4193" fill="none" id="T203-to-T302" style="stroke:#181818;stroke-width:3.125;"/><polygon fill="#181818" points="1583.9375,2000.5347,1565.4367,1975.9382,1570.2832,1992.9385,1553.2829,1997.7851,1583.9375,2000.5347" style="stroke:#181818;stroke-width:3.125;"/></g><!--link T204 to T302--><g class="link" data-entity-1="T204" data-entity-2="T302" data-source-line="55" data-uid="lnk38" id="link_T204_T302"><path d="M2333.3438,1363.7847 C2267.5938,1393.1597 2193.2188,1421.4097 2121.875,1437.5659 C2084.0938,1446.0972 1451.9063,1434.6597 1425,1462.5659 C1316.5625,1574.9722 1355.4063,1674.1597 1425,1814.0034 C1463.3125,1891.0034 1517.0834,1942.6705 1586.5834,1989.5768" fill="none" id="T204-to-T302" style="stroke:#181818;stroke-width:3.125;"/><polygon fill="#181818" points="1602.125,2000.0659,1585.8054,1973.9711,1589.1737,1991.325,1571.8199,1994.6932,1602.125,2000.0659" style="stroke:#181818;stroke-width:3.125;"/></g><!--link T301 to T302--><g class="link" data-entity-1="T301" data-entity-2="T302" data-source-line="56" data-uid="lnk39" id="link_T301_T302"><path d="M1755.3125,1815.3472 C1766.625,1872.9409 1776.8864,1925.4174 1788.1676,1982.8549" fill="none" id="T301-to-T302" style="stroke:#181818;stroke-width:3.125;"/><polygon fill="#181818" points="1791.7813,2001.2534,1798.6265,1971.2466,1788.7699,1985.9213,1774.0951,1976.0648,1791.7813,2001.2534" style="stroke:#181818;stroke-width:3.125;"/></g><!--link T302 to T401--><g class="link" data-entity-1="T302" data-entity-2="T401" data-source-line="57" data-uid="lnk40" id="link_T302_T401"><path d="M1959.2188,2219.8159 C2055.8125,2290.0347 2166.6776,2370.6034 2263.2714,2440.8222" fill="none" id="T302-to-T401" style="stroke:#181818;stroke-width:3.125;"/><polygon fill="#181818" points="2278.4375,2451.8472,2263.0383,2425.1989,2265.7991,2442.6597,2248.3383,2445.4204,2278.4375,2451.8472" style="stroke:#181818;stroke-width:3.125;"/></g><!--link T303 to T401--><g class="link" data-entity-1="T303" data-entity-2="T401" data-source-line="58" data-uid="lnk41" id="link_T303_T401"><path d="M2441.4063,1815.3472 C2437.7813,1978.9409 2431.3509,2271.0392 2427.7572,2433.9767" fill="none" id="T303-to-T401" style="stroke:#181818;stroke-width:3.125;"/><polygon fill="#181818" points="2427.3438,2452.7222,2440.4609,2424.8796,2427.6883,2437.101,2415.467,2424.3284,2427.3438,2452.7222" style="stroke:#181818;stroke-width:3.125;"/></g><!--link T304 to T401--><g class="link" data-entity-1="T304" data-entity-2="T401" data-source-line="59" data-uid="lnk42" id="link_T304_T401"><path d="M3083.5,1815.3472 C2938.5,1978.9409 2675.466,2275.7512 2531.091,2438.6887" fill="none" id="T304-to-T401" style="stroke:#181818;stroke-width:3.125;"/><polygon fill="#181818" points="2518.6563,2452.7222,2546.6641,2439.9617,2529.0185,2441.0276,2527.9527,2423.3821,2518.6563,2452.7222" style="stroke:#181818;stroke-width:3.125;"/></g><!--link T402 to T403--><g class="link" data-entity-1="T402" data-entity-2="T403" data-source-line="60" data-uid="lnk43" id="link_T402_T403"><path d="M1661.2813,2671.3784 C1689.3125,2728.9722 1715.58,2782.9859 1743.5175,2840.4234" fill="none" id="T402-to-T403" style="stroke:#181818;stroke-width:3.125;"/><polygon fill="#181818" points="1751.7187,2857.2847,1750.6577,2826.5253,1744.8844,2843.2336,1728.176,2837.4603,1751.7187,2857.2847" style="stroke:#181818;stroke-width:3.125;"/></g><!--link T403 to T504--><g class="link" data-entity-1="T403" data-entity-2="T504" data-source-line="61" data-uid="lnk44" id="link_T403_T504"><path d="M2067.4688,3029.0972 C2229.8438,3065.2847 2442.2813,3111.6597 2631.25,3149.6284 C2935.6563,3210.7534 3266.9758,3271.0091 3507.0383,3313.6028" fill="none" id="T403-to-T504" style="stroke:#181818;stroke-width:3.125;"/><polygon fill="#181818" points="3525.5,3316.8784,3499.9913,3299.6572,3510.1153,3314.1487,3495.6238,3324.2728,3525.5,3316.8784" style="stroke:#181818;stroke-width:3.125;"/></g><!--link T404 to T504--><g class="link" data-entity-1="T404" data-entity-2="T504" data-source-line="62" data-uid="lnk45" id="link_T404_T504"><path d="M3144.7813,2671.5347 C3208.4375,2796.8784 3326.7188,3005.7534 3471.875,3149.6284 C3513.7813,3191.1597 3549.0998,3218.699 3599.0061,3250.5428" fill="none" id="T404-to-T504" style="stroke:#181818;stroke-width:3.125;"/><polygon fill="#181818" points="3614.8125,3260.6284,3597.8266,3234.9624,3601.6405,3252.2237,3584.3791,3256.0376,3614.8125,3260.6284" style="stroke:#181818;stroke-width:3.125;"/></g><!--link T501 to T503--><g class="link" data-entity-1="T501" data-entity-2="T503" data-source-line="63" data-uid="lnk46" id="link_T501_T503"><path d="M3812.125,2671.3784 C3815.2813,2728.9722 3818.1275,2781.1254 3821.2837,2838.5629" fill="none" id="T501-to-T503" style="stroke:#181818;stroke-width:3.125;"/><polygon fill="#181818" points="3822.3125,2857.2847,3833.2505,2828.5162,3821.4552,2841.6832,3808.2882,2829.8879,3822.3125,2857.2847" style="stroke:#181818;stroke-width:3.125;"/></g><!--link T502 to T503--><g class="link" data-entity-1="T502" data-entity-2="T503" data-source-line="64" data-uid="lnk47" id="link_T502_T503"><path d="M4308.5,2671.3784 C4213.9688,2728.7534 4113.8104,2789.5569 4019.3729,2846.8694" fill="none" id="T502-to-T503" style="stroke:#181818;stroke-width:3.125;"/><polygon fill="#181818" points="4003.3438,2856.5972,4033.8726,2852.6916,4016.7013,2848.4907,4020.9022,2831.3194,4003.3438,2856.5972" style="stroke:#181818;stroke-width:3.125;"/></g><!--link T503 to T504--><g class="link" data-entity-1="T503" data-entity-2="T504" data-source-line="65" data-uid="lnk48" id="link_T503_T504"><path d="M3824.7813,3075.9409 C3822.9687,3133.5659 3821.3411,3185.669 3819.5286,3243.1377" fill="none" id="T503-to-T504" style="stroke:#181818;stroke-width:3.125;"/><polygon fill="#181818" points="3818.9375,3261.8784,3832.3179,3234.1614,3819.4301,3246.2612,3807.3303,3233.3734,3818.9375,3261.8784" style="stroke:#181818;stroke-width:3.125;"/></g><g class="legend" data-source-line="67"><rect fill="#DDDDDD" height="932.1899" rx="23.4375" ry="23.4375" style="stroke:#000000;stroke-width:3.125;" width="678.0579" x="4084.4421" y="3585.4409"/><text fill="#000000" font-family="sans-serif" font-size="43.75" font-weight="bold" lengthAdjust="spacing" textLength="121.167" x="4114.4867" y="3649.6133">Color</text><text fill="#000000" font-family="sans-serif" font-size="43.75" font-weight="bold" lengthAdjust="spacing" textLength="191.6199" x="4264.4928" y="3649.6133">Meaning</text><rect fill="#FFF5F5" height="51.5259" style="stroke:none;stroke-width:3.125;" width="150.0061" x="4100.0671" y="3658.8418"/><text fill="#000000" font-family="sans-serif" font-size="43.75" lengthAdjust="spacing" textLength="13.8428" x="4100.0671" y="3701.1392">&#160;</text><text fill="#000000" font-family="sans-serif" font-size="43.75" lengthAdjust="spacing" textLength="108.9478" x="4263.916" y="3701.1392">Todo</text><rect fill="#FFF8E1" height="51.5259" style="stroke:none;stroke-width:3.125;" width="150.0061" x="4100.0671" y="3710.3677"/><text fill="#000000" font-family="sans-serif" font-size="43.75" lengthAdjust="spacing" textLength="13.8428" x="4100.0671" y="3752.665">&#160;</text><text fill="#000000" font-family="sans-serif" font-size="43.75" lengthAdjust="spacing" textLength="236.7157" x="4263.916" y="3752.665">In Progress</text><rect fill="#E8F5E9" height="51.5259" style="stroke:none;stroke-width:3.125;" width="150.0061" x="4100.0671" y="3761.8936"/><text fill="#000000" font-family="sans-serif" font-size="43.75" lengthAdjust="spacing" textLength="13.8428" x="4100.0671" y="3804.1909">&#160;</text><text fill="#000000" font-family="sans-serif" font-size="43.75" lengthAdjust="spacing" textLength="230.8197" x="4263.916" y="3804.1909">Completed</text><rect fill="#FF6B6B" height="51.5259" style="stroke:none;stroke-width:3.125;" width="150.0061" x="4100.0671" y="3813.4194"/><text fill="#000000" font-family="sans-serif" font-size="43.75" lengthAdjust="spacing" textLength="13.8428" x="4100.0671" y="3855.7168">&#160;</text><text fill="#000000" font-family="sans-serif" font-size="43.75" lengthAdjust="spacing" textLength="254.7455" x="4263.916" y="3855.7168">Critical Path</text><line style="stroke:#000000;stroke-width:3.125;" x1="4100.0671" x2="4532.5043" y1="3607.3159" y2="3607.3159"/><line style="stroke:#000000;stroke-width:3.125;" x1="4100.0671" x2="4532.5043" y1="3658.8418" y2="3658.8418"/><line style="stroke:#000000;stroke-width:3.125;" x1="4100.0671" x2="4532.5043" y1="3710.3677" y2="3710.3677"/><line style="stroke:#000000;stroke-width:3.125;" x1="4100.0671" x2="4532.5043" y1="3761.8936" y2="3761.8936"/><line style="stroke:#000000;stroke-width:3.125;" x1="4100.0671" x2="4532.5043" y1="3813.4194" y2="3813.4194"/><line style="stroke:#000000;stroke-width:3.125;" x1="4100.0671" x2="4532.5043" y1="3864.9453" y2="3864.9453"/><line style="stroke:#000000;stroke-width:3.125;" x1="4100.0671" x2="4100.0671" y1="3607.3159" y2="3864.9453"/><line style="stroke:#000000;stroke-width:3.125;" x1="4250.0732" x2="4250.0732" y1="3607.3159" y2="3864.9453"/><line style="stroke:#000000;stroke-width:3.125;" x1="4532.5043" x2="4532.5043" y1="3607.3159" y2="3864.9453"/><text fill="#000000" font-family="sans-serif" font-size="43.75" lengthAdjust="spacing" textLength="13.8428" x="4100.0671" y="3913.4927">&#160;</text><text fill="#000000" font-family="sans-serif" font-size="43.75" font-weight="bold" lengthAdjust="spacing" textLength="97.9889" x="4114.4867" y="3971.2686">Role</text><text fill="#000000" font-family="sans-serif" font-size="43.75" font-weight="bold" lengthAdjust="spacing" textLength="153.7659" x="4370.7489" y="3971.2686">Person</text><text fill="#000000" font-family="sans-serif" font-size="43.75" lengthAdjust="spacing" textLength="228.5767" x="4113.9099" y="4022.7944">ARCH-001</text><text fill="#000000" font-family="sans-serif" font-size="43.75" lengthAdjust="spacing" textLength="303.0457" x="4370.1721" y="4022.7944">Lead Architect</text><text fill="#000000" font-family="sans-serif" font-size="43.75" lengthAdjust="spacing" textLength="223.941" x="4113.9099" y="4074.3203">CORE-001</text><text fill="#000000" font-family="sans-serif" font-size="43.75" lengthAdjust="spacing" textLength="326.7578" x="4370.1721" y="4074.3203">Sr. C Developer</text><text fill="#000000" font-family="sans-serif" font-size="43.75" lengthAdjust="spacing" textLength="223.941" x="4113.9099" y="4125.8462">CORE-002</text><text fill="#000000" font-family="sans-serif" font-size="43.75" lengthAdjust="spacing" textLength="257.608" x="4370.1721" y="4125.8462">C Developer</text><text fill="#000000" font-family="sans-serif" font-size="43.75" lengthAdjust="spacing" textLength="212.5122" x="4113.9099" y="4177.3721">INTG-001</text><text fill="#000000" font-family="sans-serif" font-size="43.75" lengthAdjust="spacing" textLength="362.8601" x="4370.1721" y="4177.3721">Sr. Zig Developer</text><text fill="#000000" font-family="sans-serif" font-size="43.75" lengthAdjust="spacing" textLength="212.5122" x="4113.9099" y="4228.8979">INTG-002</text><text fill="#000000" font-family="sans-serif" font-size="43.75" lengthAdjust="spacing" textLength="293.7103" x="4370.1721" y="4228.8979">Zig Developer</text><text fill="#000000" font-family="sans-serif" font-size="43.75" lengthAdjust="spacing" textLength="212.5122" x="4113.9099" y="4280.4238">INTG-003</text><text fill="#000000" font-family="sans-serif" font-size="43.75" lengthAdjust="spacing" textLength="358.2458" x="4370.1721" y="4280.4238">Performance Eng</text><text fill="#000000" font-family="sans-serif" font-size="43.75" lengthAdjust="spacing" textLength="172.4792" x="4113.9099" y="4331.9497">QA-001</text><text fill="#000000" font-family="sans-serif" font-size="43.75" lengthAdjust="spacing" textLength="203.9459" x="4370.1721" y="4331.9497">Test Lead</text><text fill="#000000" font-family="sans-serif" font-size="43.75" lengthAdjust="spacing" textLength="172.4792" x="4113.9099" y="4383.4756">QA-003</text><text fill="#000000" font-family="sans-serif" font-size="43.75" lengthAdjust="spacing" textLength="279.0771" x="4370.1721" y="4383.4756">Perf Test Eng</text><text fill="#000000" font-family="sans-serif" font-size="43.75" lengthAdjust="spacing" textLength="190.0391" x="4113.9099" y="4435.0015">OPS-001</text><text fill="#000000" font-family="sans-serif" font-size="43.75" lengthAdjust="spacing" textLength="327.2919" x="4370.1721" y="4435.0015">CI/CD Engineer</text><text fill="#000000" font-family="sans-serif" font-size="43.75" lengthAdjust="spacing" textLength="190.0391" x="4113.9099" y="4486.5273">OPS-002</text><text fill="#000000" font-family="sans-serif" font-size="43.75" lengthAdjust="spacing" textLength="358.3313" x="4370.1721" y="4486.5273">Release Engineer</text><line style="stroke:#000000;stroke-width:3.125;" x1="4100.0671" x2="4746.875" y1="3928.9712" y2="3928.9712"/><line style="stroke:#000000;stroke-width:3.125;" x1="4100.0671" x2="4746.875" y1="3980.4971" y2="3980.4971"/><line style="stroke:#000000;stroke-width:3.125;" x1="4100.0671" x2="4746.875" y1="4032.0229" y2="4032.0229"/><line style="stroke:#000000;stroke-width:3.125;" x1="4100.0671" x2="4746.875" y1="4083.5488" y2="4083.5488"/><line style="stroke:#000000;stroke-width:3.125;" x1="4100.0671" x2="4746.875" y1="4135.0747" y2="4135.0747"/><line style="stroke:#000000;stroke-width:3.125;" x1="4100.0671" x2="4746.875" y1="4186.6006" y2="4186.6006"/><line style="stroke:#000000;stroke-width:3.125;" x1="4100.0671" x2="4746.875" y1="4238.1265" y2="4238.1265"/><line style="stroke:#000000;stroke-width:3.125;" x1="4100.0671" x2="4746.875" y1="4289.6523" y2="4289.6523"/><line style="stroke:#000000;stroke-width:3.125;" x1="4100.0671" x2="4746.875" y1="4341.1782" y2="4341.1782"/><line style="stroke:#000000;stroke-width:3.125;" x1="4100.0671" x2="4746.875" y1="4392.7041" y2="4392.7041"/><line style="stroke:#000000;stroke-width:3.125;" x1="4100.0671" x2="4746.875" y1="4444.23" y2="4444.23"/><line style="stroke:#000000;stroke-width:3.125;" x1="4100.0671" x2="4746.875" y1="4495.7559" y2="4495.7559"/><line style="stroke:#000000;stroke-width:3.125;" x1="4100.0671" x2="4100.0671" y1="3928.9712" y2="4495.7559"/><line style="stroke:#000000;stroke-width:3.125;" x1="4356.3293" x2="4356.3293" y1="3928.9712" y2="4495.7559"/><line style="stroke:#000000;stroke-width:3.125;" x1="4746.875" x2="4746.875" y1="3928.9712" y2="4495.7559"/></g><!--SRC=[bPRlRkCs3C2_-ocu7h01nR9BBBlhWgv0czgz0EcrQtCOSEjmK6pL4U98XgIqpQrxZZtGNcoK_oHEwwgtJvPCKIJreqXzbx8xBXXSJKu-JZzTJBvCnXVZwPURyUS8YF_pmQ6d5rmKLD4bf0K7qkzxdk4cPp2Ioo9dXi6KwWLSFWYcz9mNS46Due_GW_EvrCQiuTz_m2nNZp0MXcMA6Yx5hJZI_2iR3lpZapo741uOMsXuu6OEISwe0feaSYKCdV6Sc_NHUxlysFCAcYnenc3lTrI0mH0-ZU4K_p6HGemAQRdz7hoB3kCm-WN-yW0KImmL6Rgyjxy_xGtwg1Oz6aKJ0-ZVbmV5COgvb0kzltyhoaY6CBgyZdhz_k1M-93IjOOdk37KhFGGfZALUq0rJ74lU1V7yM4qw3Bab_xDQlzIfdacMYPEhaSVAXC3Q-8L2tvf8Op3BWjak0bVoPLXwcK4_gqWhWY8Q_zWkC7OXA7DQjQoCluuFV-6SmesLlv-JX5FARfdmi14oWA-Xn7DSsjCMumazkEpBen-YR7KowtUFUPApZe1EiBtQu2TuViMuBdYAIIDIvt7wxlszrtx8xu9NICubuN16nQ8om827CbYtLlAb7KQgVcz5OQ37mRncMSGntWLyR0ojjVSYIvkn7ApQsTSf5nakZEN7CY82nafaTKPoxS5fpDWfn7VPGH3lc1BgTQWwHr3KpbTxzozRxeLn8MEM7IHKbB1d8eqnwFg3EBrqa5Sq73pATC6TyKRTyNKdLHBAfAANTG_zRlO1PPTguo3mItQ07yxUHDVuC8NM7mjRs36H39VKhLuOOKuZpPmyGiilyl2y2N_-afsa3TY8AxTyMnFLndSyKVslmj6u88M3k6QONlKsB0LirsvxdOnYL2X2rbeaOt6xqTdKF22OHgrQ-JbrSsRMHgwW8KMs9bCLaiinC_FSjlVdDlxhkt9DkJwB5wuxxm4eGjLQ575ND0SxcdEq-S1DEdiT7-7rmymmjS4nqABxk9Z9cK5zanCOiwqLpuNUd_WyeFJWzCVPp9F_-mTbptOAnjnXmmRb5TsgGuPiJBIBGkiBEYMeS_MqqipP-g5XpxqTdsglF1tPgKiQ6Q1L_QvNkMJxvKzgJqBMhFItzQirWkgMCZEB6ZDWkrAufKtiDV4KbwQxIniB8HsPTZerREMdfUph7mvyMnkC3kUViLUcMF1nS45ey8MnoVx7uvgnCSujkpRlx7FsTzZWNTIPefflP5MZr0hRHxBQKlJGYbbJSPSsOonyigNQubvYb-iXnfhRQNOt2aSJXXDuKGbSto-ubEsaZTl1fkiwYSOmHcxPxaiaFJE0jyENmYRjbLhsxR-oXAhxn0J7BRhUBGvokfEsNF4tb75q18qUfLqgrKNAkjqMSjGWfLiOxKk13XgYaLh0IAkG7l_0G00]--></g></svg>