<svg xmlns="http://www.w3.org/2000/svg" xmlns:xlink="http://www.w3.org/1999/xlink" contentStyleType="text/css" data-diagram-type="DESCRIPTION" height="1516px" preserveAspectRatio="none" style="width:1371px;height:1516px;background:#FEFEFE;" version="1.1" viewBox="0 0 1371 1516" width="1371px" zoomAndPan="magnify"><title>Component Ownership and Responsibility Matrix</title><defs/><g><rect fill="#FEFEFE" height="1516" style="stroke:none;stroke-width:1;" width="1371" x="0" y="0"/><g class="title" data-source-line="2"><text fill="#000000" font-family="Verdana" font-size="22" font-weight="bold" lengthAdjust="spacing" textLength="602.3145" x="379.8428" y="37.1182">Component Ownership and Responsibility Matrix</text></g><!--cluster tmux Core Components--><g class="cluster" data-entity="tmux Core Components" data-source-line="5" data-uid="ent0002" id="cluster_tmux Core Components"><path d="M13.5,728.9573 L198.4824,728.9573 A3.75,3.75 0 0 1 200.9824,731.4573 L207.9824,751.972 L661.5,751.972 A2.5,2.5 0 0 1 664,754.472 L664,1305.6773 A2.5,2.5 0 0 1 661.5,1308.1773 L13.5,1308.1773 A2.5,2.5 0 0 1 11,1305.6773 L11,731.4573 A2.5,2.5 0 0 1 13.5,728.9573" fill="#FFFFFF" style="stroke:#000000;stroke-width:1;"/><line style="stroke:#000000;stroke-width:1;" x1="11" x2="207.9824" y1="751.972" y2="751.972"/><text fill="#000000" font-family="Verdana" font-size="14" font-weight="bold" lengthAdjust="spacing" textLength="183.9824" x="15" y="745.0325">tmux Core Components</text></g><!--cluster FFI Bridge Components--><g class="cluster" data-entity="FFI Bridge Components" data-source-line="19" data-uid="ent0009" id="cluster_FFI Bridge Components"><path d="M1126.5,504.8873 L1312.0908,504.8873 A3.75,3.75 0 0 1 1314.5908,507.3873 L1321.5908,527.902 L1361.5,527.902 A2.5,2.5 0 0 1 1364,530.402 L1364,1103.6073 A2.5,2.5 0 0 1 1361.5,1106.1073 L1126.5,1106.1073 A2.5,2.5 0 0 1 1124,1103.6073 L1124,507.3873 A2.5,2.5 0 0 1 1126.5,504.8873" fill="#FFFFFF" style="stroke:#000000;stroke-width:1;"/><line style="stroke:#000000;stroke-width:1;" x1="1124" x2="1321.5908" y1="527.902" y2="527.902"/><text fill="#000000" font-family="Verdana" font-size="14" font-weight="bold" lengthAdjust="spacing" textLength="184.5908" x="1128" y="520.9625">FFI Bridge Components</text></g><!--cluster Ghostty Integration Components--><g class="cluster" data-entity="Ghostty Integration Components" data-source-line="27" data-uid="ent0013" id="cluster_Ghostty Integration Components"><path d="M671.5,282.8073 L931.2061,282.8073 A3.75,3.75 0 0 1 933.7061,285.3073 L940.7061,305.822 L1087.5,305.822 A2.5,2.5 0 0 1 1090,308.322 L1090,677.4573 A2.5,2.5 0 0 1 1087.5,679.9573 L671.5,679.9573 A2.5,2.5 0 0 1 669,677.4573 L669,285.3073 A2.5,2.5 0 0 1 671.5,282.8073" fill="#FFFFFF" style="stroke:#000000;stroke-width:1;"/><line style="stroke:#000000;stroke-width:1;" x1="669" x2="940.7061" y1="305.822" y2="305.822"/><text fill="#000000" font-family="Verdana" font-size="14" font-weight="bold" lengthAdjust="spacing" textLength="258.7061" x="673" y="298.8825">Ghostty Integration Components</text></g><!--cluster Testing Components--><g class="cluster" data-entity="Testing Components" data-source-line="35" data-uid="ent0017" id="cluster_Testing Components"><path d="M267.5,58.7373 L429.2402,58.7373 A3.75,3.75 0 0 1 431.7402,61.2373 L438.7402,81.752 L944.5,81.752 A2.5,2.5 0 0 1 947,84.252 L947,231.3073 A2.5,2.5 0 0 1 944.5,233.8073 L267.5,233.8073 A2.5,2.5 0 0 1 265,231.3073 L265,61.2373 A2.5,2.5 0 0 1 267.5,58.7373" fill="#FFFFFF" style="stroke:#000000;stroke-width:1;"/><line style="stroke:#000000;stroke-width:1;" x1="265" x2="438.7402" y1="81.752" y2="81.752"/><text fill="#000000" font-family="Verdana" font-size="14" font-weight="bold" lengthAdjust="spacing" textLength="160.7402" x="269" y="74.8125">Testing Components</text></g><!--cluster Documentation--><g class="cluster" data-entity="Documentation" data-source-line="43" data-uid="ent0021" id="cluster_Documentation"><path d="M830.5,728.9573 L951.5049,728.9573 A3.75,3.75 0 0 1 954.0049,731.4573 L961.0049,751.972 L1037.5,751.972 A2.5,2.5 0 0 1 1040,754.472 L1040,901.5273 A2.5,2.5 0 0 1 1037.5,904.0273 L830.5,904.0273 A2.5,2.5 0 0 1 828,901.5273 L828,731.4573 A2.5,2.5 0 0 1 830.5,728.9573" fill="#FFFFFF" style="stroke:#000000;stroke-width:1;"/><line style="stroke:#000000;stroke-width:1;" x1="828" x2="961.0049" y1="751.972" y2="751.972"/><text fill="#000000" font-family="Verdana" font-size="14" font-weight="bold" lengthAdjust="spacing" textLength="120.0049" x="832" y="745.0325">Documentation</text></g><!--entity TTY_C--><g class="entity" data-entity="TTY_C" data-source-line="6" data-uid="ent0003" id="entity_TTY_C"><rect fill="#FFE5B4" height="123.0732" rx="2.5" ry="2.5" style="stroke:#000000;stroke-width:1;" width="186.2891" x="457.86" y="967.0273"/><rect fill="#FFE5B4" height="10" style="stroke:#000000;stroke-width:1;" width="15" x="624.1491" y="972.0273"/><rect fill="#FFE5B4" height="2" style="stroke:#000000;stroke-width:1;" width="4" x="622.1491" y="974.0273"/><rect fill="#FFE5B4" height="2" style="stroke:#000000;stroke-width:1;" width="4" x="622.1491" y="978.0273"/><text fill="#000000" font-family="Verdana" font-size="14" font-weight="bold" lengthAdjust="spacing" textLength="146.2891" x="472.86" y="1001.1025">tty.c modifications</text><text fill="#000000" font-family="Verdana" font-size="14" lengthAdjust="spacing" textLength="129.3701" x="472.86" y="1018.1171">Owner: CORE-001</text><line style="stroke:#000000;stroke-width:1;" x1="458.86" x2="643.1491" y1="1021.0566" y2="1021.0566"/><text fill="#000000" font-family="Verdana" font-size="14" lengthAdjust="spacing" textLength="133.6973" x="472.86" y="1039.1318">- tty_write() hooks</text><text fill="#000000" font-family="Verdana" font-size="14" lengthAdjust="spacing" textLength="125.9795" x="472.86" y="1056.1464">- Backend routing</text><text fill="#000000" font-family="Verdana" font-size="14" lengthAdjust="spacing" textLength="143.4795" x="472.86" y="1073.1611">- Compatibility layer</text></g><!--entity UI_H--><g class="entity" data-entity="UI_H" data-source-line="8" data-uid="ent0004" id="entity_UI_H"><rect fill="#E5B4FF" height="123.0732" rx="2.5" ry="2.5" style="stroke:#000000;stroke-width:1;" width="201.2666" x="446.37" y="1169.1073"/><rect fill="#E5B4FF" height="10" style="stroke:#000000;stroke-width:1;" width="15" x="627.6366" y="1174.1073"/><rect fill="#E5B4FF" height="2" style="stroke:#000000;stroke-width:1;" width="4" x="625.6366" y="1176.1073"/><rect fill="#E5B4FF" height="2" style="stroke:#000000;stroke-width:1;" width="4" x="625.6366" y="1180.1073"/><text fill="#000000" font-family="Verdana" font-size="14" font-weight="bold" lengthAdjust="spacing" textLength="105.5742" x="461.37" y="1203.1825">ui_backend.h</text><text fill="#000000" font-family="Verdana" font-size="14" lengthAdjust="spacing" textLength="129.5889" x="461.37" y="1220.1971">Owner: ARCH-001</text><line style="stroke:#000000;stroke-width:1;" x1="447.37" x2="646.6366" y1="1223.1366" y2="1223.1366"/><text fill="#000000" font-family="Verdana" font-size="14" lengthAdjust="spacing" textLength="125.5283" x="461.37" y="1241.2118">- Interface design</text><text fill="#000000" font-family="Verdana" font-size="14" lengthAdjust="spacing" textLength="105.916" x="461.37" y="1258.2264">- ABI contracts</text><text fill="#000000" font-family="Verdana" font-size="14" lengthAdjust="spacing" textLength="161.2666" x="461.37" y="1275.2411">- Version management</text></g><!--entity ROUTER--><g class="entity" data-entity="ROUTER" data-source-line="10" data-uid="ent0005" id="entity_ROUTER"><rect fill="#FFCB9A" height="123.0732" rx="2.5" ry="2.5" style="stroke:#000000;stroke-width:1;" width="231.3857" x="191.31" y="967.0273"/><rect fill="#FFCB9A" height="10" style="stroke:#000000;stroke-width:1;" width="15" x="402.6957" y="972.0273"/><rect fill="#FFCB9A" height="2" style="stroke:#000000;stroke-width:1;" width="4" x="400.6957" y="974.0273"/><rect fill="#FFCB9A" height="2" style="stroke:#000000;stroke-width:1;" width="4" x="400.6957" y="978.0273"/><text fill="#000000" font-family="Verdana" font-size="14" font-weight="bold" lengthAdjust="spacing" textLength="138.2568" x="206.31" y="1001.1025">backend_router.c</text><text fill="#000000" font-family="Verdana" font-size="14" lengthAdjust="spacing" textLength="129.3701" x="206.31" y="1018.1171">Owner: CORE-002</text><line style="stroke:#000000;stroke-width:1;" x1="192.31" x2="421.6957" y1="1021.0566" y2="1021.0566"/><text fill="#000000" font-family="Verdana" font-size="14" lengthAdjust="spacing" textLength="137.9697" x="206.31" y="1039.1318">- Command routing</text><text fill="#000000" font-family="Verdana" font-size="14" lengthAdjust="spacing" textLength="137.5322" x="206.31" y="1056.1464">- Backend selection</text><text fill="#000000" font-family="Verdana" font-size="14" lengthAdjust="spacing" textLength="191.3857" x="206.31" y="1073.1611">- Performance optimization</text></g><!--entity GHOSTTY_C--><g class="entity" data-entity="GHOSTTY_C" data-source-line="12" data-uid="ent0006" id="entity_GHOSTTY_C"><rect fill="#B4E5FF" height="123.0732" rx="2.5" ry="2.5" style="stroke:#000000;stroke-width:1;" width="188.627" x="26.69" y="764.9573"/><rect fill="#B4E5FF" height="10" style="stroke:#000000;stroke-width:1;" width="15" x="195.317" y="769.9573"/><rect fill="#B4E5FF" height="2" style="stroke:#000000;stroke-width:1;" width="4" x="193.317" y="771.9573"/><rect fill="#B4E5FF" height="2" style="stroke:#000000;stroke-width:1;" width="4" x="193.317" y="775.9573"/><text fill="#000000" font-family="Verdana" font-size="14" font-weight="bold" lengthAdjust="spacing" textLength="148.627" x="41.69" y="799.0325">backend_ghostty.c</text><text fill="#000000" font-family="Verdana" font-size="14" lengthAdjust="spacing" textLength="125.8359" x="41.69" y="816.0471">Owner: INTG-001</text><line style="stroke:#000000;stroke-width:1;" x1="27.69" x2="214.317" y1="818.9866" y2="818.9866"/><text fill="#000000" font-family="Verdana" font-size="14" lengthAdjust="spacing" textLength="127.5039" x="41.69" y="837.0618">- Span conversion</text><text fill="#000000" font-family="Verdana" font-size="14" lengthAdjust="spacing" textLength="144.6006" x="41.69" y="854.0764">- Frame aggregation</text><text fill="#000000" font-family="Verdana" font-size="14" lengthAdjust="spacing" textLength="107.5088" x="41.69" y="871.0911">- Dirty tracking</text></g><!--entity LOOP--><g class="entity" data-entity="LOOP" data-source-line="14" data-uid="ent0007" id="entity_LOOP"><rect fill="#FFE5B4" height="123.0732" rx="2.5" ry="2.5" style="stroke:#000000;stroke-width:1;" width="189.29" x="458.35" y="764.9573"/><rect fill="#FFE5B4" height="10" style="stroke:#000000;stroke-width:1;" width="15" x="627.64" y="769.9573"/><rect fill="#FFE5B4" height="2" style="stroke:#000000;stroke-width:1;" width="4" x="625.64" y="771.9573"/><rect fill="#FFE5B4" height="2" style="stroke:#000000;stroke-width:1;" width="4" x="625.64" y="775.9573"/><text fill="#000000" font-family="Verdana" font-size="14" font-weight="bold" lengthAdjust="spacing" textLength="105.7451" x="473.35" y="799.0325">loop_vtable.c</text><text fill="#000000" font-family="Verdana" font-size="14" lengthAdjust="spacing" textLength="129.3701" x="473.35" y="816.0471">Owner: CORE-001</text><line style="stroke:#000000;stroke-width:1;" x1="459.35" x2="646.64" y1="818.9866" y2="818.9866"/><text fill="#000000" font-family="Verdana" font-size="14" lengthAdjust="spacing" textLength="134.3877" x="473.35" y="837.0618">- Event abstraction</text><text fill="#000000" font-family="Verdana" font-size="14" lengthAdjust="spacing" textLength="149.29" x="473.35" y="854.0764">- Timer management</text><text fill="#000000" font-family="Verdana" font-size="14" lengthAdjust="spacing" textLength="107.8984" x="473.35" y="871.0911">- Thread safety</text></g><!--entity GRID_CB--><g class="entity" data-entity="GRID_CB" data-source-line="16" data-uid="ent0008" id="entity_GRID_CB"><rect fill="#FFCB9A" height="123.0732" rx="2.5" ry="2.5" style="stroke:#000000;stroke-width:1;" width="173.4375" x="250.28" y="764.9573"/><rect fill="#FFCB9A" height="10" style="stroke:#000000;stroke-width:1;" width="15" x="403.7175" y="769.9573"/><rect fill="#FFCB9A" height="2" style="stroke:#000000;stroke-width:1;" width="4" x="401.7175" y="771.9573"/><rect fill="#FFCB9A" height="2" style="stroke:#000000;stroke-width:1;" width="4" x="401.7175" y="775.9573"/><text fill="#000000" font-family="Verdana" font-size="14" font-weight="bold" lengthAdjust="spacing" textLength="126.8066" x="265.28" y="799.0325">grid_callbacks.c</text><text fill="#000000" font-family="Verdana" font-size="14" lengthAdjust="spacing" textLength="129.3701" x="265.28" y="816.0471">Owner: CORE-002</text><line style="stroke:#000000;stroke-width:1;" x1="251.28" x2="422.7175" y1="818.9866" y2="818.9866"/><text fill="#000000" font-family="Verdana" font-size="14" lengthAdjust="spacing" textLength="120.8115" x="265.28" y="837.0618">- Frame batching</text><text fill="#000000" font-family="Verdana" font-size="14" lengthAdjust="spacing" textLength="109.8398" x="265.28" y="854.0764">- Span merging</text><text fill="#000000" font-family="Verdana" font-size="14" lengthAdjust="spacing" textLength="133.4375" x="265.28" y="871.0911">- Callback dispatch</text></g><!--entity LIB_H--><g class="entity" data-entity="LIB_H" data-source-line="20" data-uid="ent0010" id="entity_LIB_H"><rect fill="#E5B4FF" height="123.0732" rx="2.5" ry="2.5" style="stroke:#000000;stroke-width:1;" width="169.5889" x="1143.21" y="967.0273"/><rect fill="#E5B4FF" height="10" style="stroke:#000000;stroke-width:1;" width="15" x="1292.7989" y="972.0273"/><rect fill="#E5B4FF" height="2" style="stroke:#000000;stroke-width:1;" width="4" x="1290.7989" y="974.0273"/><rect fill="#E5B4FF" height="2" style="stroke:#000000;stroke-width:1;" width="4" x="1290.7989" y="978.0273"/><text fill="#000000" font-family="Verdana" font-size="14" font-weight="bold" lengthAdjust="spacing" textLength="109.0264" x="1158.21" y="1001.1025">libtmuxcore.h</text><text fill="#000000" font-family="Verdana" font-size="14" lengthAdjust="spacing" textLength="129.5889" x="1158.21" y="1018.1171">Owner: ARCH-001</text><line style="stroke:#000000;stroke-width:1;" x1="1144.21" x2="1311.7989" y1="1021.0566" y2="1021.0566"/><text fill="#000000" font-family="Verdana" font-size="14" lengthAdjust="spacing" textLength="81.1084" x="1158.21" y="1039.1318">- Public API</text><text fill="#000000" font-family="Verdana" font-size="14" lengthAdjust="spacing" textLength="96.5303" x="1158.21" y="1056.1464">- ABI stability</text><text fill="#000000" font-family="Verdana" font-size="14" lengthAdjust="spacing" textLength="118.1729" x="1158.21" y="1073.1611">- Documentation</text></g><!--entity LIB_Z--><g class="entity" data-entity="LIB_Z" data-source-line="22" data-uid="ent0011" id="entity_LIB_Z"><rect fill="#B4E5FF" height="123.0732" rx="2.5" ry="2.5" style="stroke:#000000;stroke-width:1;" width="165.918" x="1145.04" y="764.9573"/><rect fill="#B4E5FF" height="10" style="stroke:#000000;stroke-width:1;" width="15" x="1290.958" y="769.9573"/><rect fill="#B4E5FF" height="2" style="stroke:#000000;stroke-width:1;" width="4" x="1288.958" y="771.9573"/><rect fill="#B4E5FF" height="2" style="stroke:#000000;stroke-width:1;" width="4" x="1288.958" y="775.9573"/><text fill="#000000" font-family="Verdana" font-size="14" font-weight="bold" lengthAdjust="spacing" textLength="121.9805" x="1160.04" y="799.0325">libtmuxcore.zig</text><text fill="#000000" font-family="Verdana" font-size="14" lengthAdjust="spacing" textLength="125.8359" x="1160.04" y="816.0471">Owner: INTG-001</text><line style="stroke:#000000;stroke-width:1;" x1="1146.04" x2="1309.958" y1="818.9866" y2="818.9866"/><text fill="#000000" font-family="Verdana" font-size="14" lengthAdjust="spacing" textLength="97.0498" x="1160.04" y="837.0618">- FFI bindings</text><text fill="#000000" font-family="Verdana" font-size="14" lengthAdjust="spacing" textLength="125.918" x="1160.04" y="854.0764">- Type conversion</text><text fill="#000000" font-family="Verdana" font-size="14" lengthAdjust="spacing" textLength="115.4795" x="1160.04" y="871.0911">- Memory safety</text></g><!--entity MEM_Z--><g class="entity" data-entity="MEM_Z" data-source-line="24" data-uid="ent0012" id="entity_MEM_Z"><rect fill="#B4E5FF" height="123.0732" rx="2.5" ry="2.5" style="stroke:#000000;stroke-width:1;" width="208.8408" x="1139.58" y="540.8873"/><rect fill="#B4E5FF" height="10" style="stroke:#000000;stroke-width:1;" width="15" x="1328.4208" y="545.8873"/><rect fill="#B4E5FF" height="2" style="stroke:#000000;stroke-width:1;" width="4" x="1326.4208" y="547.8873"/><rect fill="#B4E5FF" height="2" style="stroke:#000000;stroke-width:1;" width="4" x="1326.4208" y="551.8873"/><text fill="#000000" font-family="Verdana" font-size="14" font-weight="bold" lengthAdjust="spacing" textLength="150.9033" x="1154.58" y="574.9625">memory_safety.zig</text><text fill="#000000" font-family="Verdana" font-size="14" lengthAdjust="spacing" textLength="125.8359" x="1154.58" y="591.9771">Owner: INTG-001</text><line style="stroke:#000000;stroke-width:1;" x1="1140.58" x2="1347.4208" y1="594.9166" y2="594.9166"/><text fill="#000000" font-family="Verdana" font-size="14" lengthAdjust="spacing" textLength="130.7715" x="1154.58" y="612.9918">- Boundary checks</text><text fill="#000000" font-family="Verdana" font-size="14" lengthAdjust="spacing" textLength="168.8408" x="1154.58" y="630.0064">- Lifecycle management</text><text fill="#000000" font-family="Verdana" font-size="14" lengthAdjust="spacing" textLength="129.876" x="1154.58" y="647.0211">- Buffer protection</text></g><!--entity BRIDGE--><g class="entity" data-entity="BRIDGE" data-source-line="28" data-uid="ent0014" id="entity_BRIDGE"><rect fill="#9AD5FF" height="123.0732" rx="2.5" ry="2.5" style="stroke:#000000;stroke-width:1;" width="195.8389" x="760.08" y="540.8873"/><rect fill="#9AD5FF" height="10" style="stroke:#000000;stroke-width:1;" width="15" x="935.9189" y="545.8873"/><rect fill="#9AD5FF" height="2" style="stroke:#000000;stroke-width:1;" width="4" x="933.9189" y="547.8873"/><rect fill="#9AD5FF" height="2" style="stroke:#000000;stroke-width:1;" width="4" x="933.9189" y="551.8873"/><text fill="#000000" font-family="Verdana" font-size="14" font-weight="bold" lengthAdjust="spacing" textLength="128.8779" x="775.08" y="574.9625">tmux_bridge.zig</text><text fill="#000000" font-family="Verdana" font-size="14" lengthAdjust="spacing" textLength="125.8359" x="775.08" y="591.9771">Owner: INTG-002</text><line style="stroke:#000000;stroke-width:1;" x1="761.08" x2="954.9189" y1="594.9166" y2="594.9166"/><text fill="#000000" font-family="Verdana" font-size="14" lengthAdjust="spacing" textLength="153.5693" x="775.08" y="612.9918">- Terminal connection</text><text fill="#000000" font-family="Verdana" font-size="14" lengthAdjust="spacing" textLength="116.1699" x="775.08" y="630.0064">- Event handling</text><text fill="#000000" font-family="Verdana" font-size="14" lengthAdjust="spacing" textLength="155.8389" x="775.08" y="647.0211">- Grid synchronization</text></g><!--entity ERROR--><g class="entity" data-entity="ERROR" data-source-line="30" data-uid="ent0015" id="entity_ERROR"><rect fill="#9AD5FF" height="123.0732" rx="2.5" ry="2.5" style="stroke:#000000;stroke-width:1;" width="186.1455" x="684.93" y="318.8073"/><rect fill="#9AD5FF" height="10" style="stroke:#000000;stroke-width:1;" width="15" x="851.0755" y="323.8073"/><rect fill="#9AD5FF" height="2" style="stroke:#000000;stroke-width:1;" width="4" x="849.0755" y="325.8073"/><rect fill="#9AD5FF" height="2" style="stroke:#000000;stroke-width:1;" width="4" x="849.0755" y="329.8073"/><text fill="#000000" font-family="Verdana" font-size="14" font-weight="bold" lengthAdjust="spacing" textLength="146.1455" x="699.93" y="352.8825">error_handling.zig</text><text fill="#000000" font-family="Verdana" font-size="14" lengthAdjust="spacing" textLength="125.8359" x="699.93" y="369.8971">Owner: INTG-002</text><line style="stroke:#000000;stroke-width:1;" x1="685.93" x2="870.0755" y1="372.8366" y2="372.8366"/><text fill="#000000" font-family="Verdana" font-size="14" lengthAdjust="spacing" textLength="135.6455" x="699.93" y="390.9118">- Error propagation</text><text fill="#000000" font-family="Verdana" font-size="14" lengthAdjust="spacing" textLength="113.1484" x="699.93" y="407.9264">- Recovery logic</text><text fill="#000000" font-family="Verdana" font-size="14" lengthAdjust="spacing" textLength="66.4385" x="699.93" y="424.9411">- Logging</text></g><!--entity PERF--><g class="entity" data-entity="PERF" data-source-line="32" data-uid="ent0016" id="entity_PERF"><rect fill="#7AC5FF" height="123.0732" rx="2.5" ry="2.5" style="stroke:#000000;stroke-width:1;" width="168.1875" x="905.91" y="318.8073"/><rect fill="#7AC5FF" height="10" style="stroke:#000000;stroke-width:1;" width="15" x="1054.0975" y="323.8073"/><rect fill="#7AC5FF" height="2" style="stroke:#000000;stroke-width:1;" width="4" x="1052.0975" y="325.8073"/><rect fill="#7AC5FF" height="2" style="stroke:#000000;stroke-width:1;" width="4" x="1052.0975" y="329.8073"/><text fill="#000000" font-family="Verdana" font-size="14" font-weight="bold" lengthAdjust="spacing" textLength="128.1875" x="920.91" y="352.8825">performance.zig</text><text fill="#000000" font-family="Verdana" font-size="14" lengthAdjust="spacing" textLength="125.8359" x="920.91" y="369.8971">Owner: INTG-003</text><line style="stroke:#000000;stroke-width:1;" x1="906.91" x2="1073.0975" y1="372.8366" y2="372.8366"/><text fill="#000000" font-family="Verdana" font-size="14" lengthAdjust="spacing" textLength="68.2227" x="920.91" y="390.9118">- Profiling</text><text fill="#000000" font-family="Verdana" font-size="14" lengthAdjust="spacing" textLength="100.3174" x="920.91" y="407.9264">- Optimization</text><text fill="#000000" font-family="Verdana" font-size="14" lengthAdjust="spacing" textLength="111.9385" x="920.91" y="424.9411">- Benchmarking</text></g><!--entity TEST_GRID--><g class="entity" data-entity="TEST_GRID" data-source-line="36" data-uid="ent0018" id="entity_TEST_GRID"><rect fill="#9AFF9A" height="123.0732" rx="2.5" ry="2.5" style="stroke:#000000;stroke-width:1;" width="172.1182" x="280.94" y="94.7373"/><rect fill="#9AFF9A" height="10" style="stroke:#000000;stroke-width:1;" width="15" x="433.0582" y="99.7373"/><rect fill="#9AFF9A" height="2" style="stroke:#000000;stroke-width:1;" width="4" x="431.0582" y="101.7373"/><rect fill="#9AFF9A" height="2" style="stroke:#000000;stroke-width:1;" width="4" x="431.0582" y="105.7373"/><text fill="#000000" font-family="Verdana" font-size="14" font-weight="bold" lengthAdjust="spacing" textLength="122.5889" x="295.94" y="128.8125">test_grid_ops.c</text><text fill="#000000" font-family="Verdana" font-size="14" lengthAdjust="spacing" textLength="110.5781" x="295.94" y="145.8271">Owner: QA-002</text><line style="stroke:#000000;stroke-width:1;" x1="281.94" x2="452.0582" y1="148.7666" y2="148.7666"/><text fill="#000000" font-family="Verdana" font-size="14" lengthAdjust="spacing" textLength="119.5469" x="295.94" y="166.8418">- Grid operations</text><text fill="#000000" font-family="Verdana" font-size="14" lengthAdjust="spacing" textLength="132.1182" x="295.94" y="183.8564">- Unicode handling</text><text fill="#000000" font-family="Verdana" font-size="14" lengthAdjust="spacing" textLength="126.1504" x="295.94" y="200.8711">- Attribute testing</text></g><!--entity TEST_INT--><g class="entity" data-entity="TEST_INT" data-source-line="38" data-uid="ent0019" id="entity_TEST_INT"><rect fill="#B4FFB4" height="123.0732" rx="2.5" ry="2.5" style="stroke:#000000;stroke-width:1;" width="203.8848" x="488.06" y="94.7373"/><rect fill="#B4FFB4" height="10" style="stroke:#000000;stroke-width:1;" width="15" x="671.9448" y="99.7373"/><rect fill="#B4FFB4" height="2" style="stroke:#000000;stroke-width:1;" width="4" x="669.9448" y="101.7373"/><rect fill="#B4FFB4" height="2" style="stroke:#000000;stroke-width:1;" width="4" x="669.9448" y="105.7373"/><text fill="#000000" font-family="Verdana" font-size="14" font-weight="bold" lengthAdjust="spacing" textLength="163.8848" x="503.06" y="128.8125">integration_tests.zig</text><text fill="#000000" font-family="Verdana" font-size="14" lengthAdjust="spacing" textLength="110.5781" x="503.06" y="145.8271">Owner: QA-001</text><line style="stroke:#000000;stroke-width:1;" x1="489.06" x2="690.9448" y1="148.7666" y2="148.7666"/><text fill="#000000" font-family="Verdana" font-size="14" lengthAdjust="spacing" textLength="129.2471" x="503.06" y="166.8418">- End-to-end tests</text><text fill="#000000" font-family="Verdana" font-size="14" lengthAdjust="spacing" textLength="141.4082" x="503.06" y="183.8564">- Application testing</text><text fill="#000000" font-family="Verdana" font-size="14" lengthAdjust="spacing" textLength="126.9502" x="503.06" y="200.8711">- Regression suite</text></g><!--entity BENCH--><g class="entity" data-entity="BENCH" data-source-line="40" data-uid="ent0020" id="entity_BENCH"><rect fill="#7AFF7A" height="123.0732" rx="2.5" ry="2.5" style="stroke:#000000;stroke-width:1;" width="204.4658" x="726.77" y="94.7373"/><rect fill="#7AFF7A" height="10" style="stroke:#000000;stroke-width:1;" width="15" x="911.2358" y="99.7373"/><rect fill="#7AFF7A" height="2" style="stroke:#000000;stroke-width:1;" width="4" x="909.2358" y="101.7373"/><rect fill="#7AFF7A" height="2" style="stroke:#000000;stroke-width:1;" width="4" x="909.2358" y="105.7373"/><text fill="#000000" font-family="Verdana" font-size="14" font-weight="bold" lengthAdjust="spacing" textLength="164.4658" x="741.77" y="128.8125">benchmark_suite.zig</text><text fill="#000000" font-family="Verdana" font-size="14" lengthAdjust="spacing" textLength="110.5781" x="741.77" y="145.8271">Owner: QA-003</text><line style="stroke:#000000;stroke-width:1;" x1="727.77" x2="930.2358" y1="148.7666" y2="148.7666"/><text fill="#000000" font-family="Verdana" font-size="14" lengthAdjust="spacing" textLength="156.748" x="741.77" y="166.8418">- Performance metrics</text><text fill="#000000" font-family="Verdana" font-size="14" lengthAdjust="spacing" textLength="118.7881" x="741.77" y="183.8564">- Latency testing</text><text fill="#000000" font-family="Verdana" font-size="14" lengthAdjust="spacing" textLength="129.9375" x="741.77" y="200.8711">- Memory profiling</text></g><!--entity DOCS--><g class="entity" data-entity="DOCS" data-source-line="44" data-uid="ent0022" id="entity_DOCS"><rect fill="#E5B4FF" height="123.0732" rx="2.5" ry="2.5" style="stroke:#000000;stroke-width:1;" width="179.9043" x="844.05" y="764.9573"/><rect fill="#E5B4FF" height="10" style="stroke:#000000;stroke-width:1;" width="15" x="1003.9543" y="769.9573"/><rect fill="#E5B4FF" height="2" style="stroke:#000000;stroke-width:1;" width="4" x="1001.9543" y="771.9573"/><rect fill="#E5B4FF" height="2" style="stroke:#000000;stroke-width:1;" width="4" x="1001.9543" y="775.9573"/><text fill="#000000" font-family="Verdana" font-size="14" font-weight="bold" lengthAdjust="spacing" textLength="139.9043" x="859.05" y="799.0325">Architecture Docs</text><text fill="#000000" font-family="Verdana" font-size="14" lengthAdjust="spacing" textLength="129.5889" x="859.05" y="816.0471">Owner: ARCH-001</text><line style="stroke:#000000;stroke-width:1;" x1="845.05" x2="1022.9543" y1="818.9866" y2="818.9866"/><text fill="#000000" font-family="Verdana" font-size="14" lengthAdjust="spacing" textLength="128.0303" x="859.05" y="837.0618">- Design decisions</text><text fill="#000000" font-family="Verdana" font-size="14" lengthAdjust="spacing" textLength="133.1162" x="859.05" y="854.0764">- Integration guide</text><text fill="#000000" font-family="Verdana" font-size="14" lengthAdjust="spacing" textLength="106.4902" x="859.05" y="871.0911">- API reference</text></g><g class="entity" data-entity="GMN38" data-source-line="83" data-uid="ent0039" id="entity_GMN38"><path d="M679.63,984.0673 L679.63,1073.0639 A0,0 0 0 0 679.63,1073.0639 L1108.378,1073.0639 A0,0 0 0 0 1108.378,1073.0639 L1108.378,994.0673 L1098.378,984.0673 L906.74,984.0673 L921.84,888.3373 L898.74,984.0673 L679.63,984.0673 A0,0 0 0 0 679.63,984.0673" fill="#FFFFFF" style="stroke:#000000;stroke-width:1;"/><path d="M1098.378,984.0673 L1098.378,994.0673 L1108.378,994.0673 L1098.378,984.0673" fill="#FFFFFF" style="stroke:#000000;stroke-width:1;"/><text fill="#000000" font-family="Verdana" font-size="13" font-weight="bold" lengthAdjust="spacing" textLength="128.54" x="685.63" y="1002.1371">Ownership Rules:</text><text fill="#000000" font-family="Verdana" font-size="13" lengthAdjust="spacing" textLength="286" x="685.63" y="1017.9364">1. Each component has ONE primary owner</text><text fill="#000000" font-family="Verdana" font-size="13" lengthAdjust="spacing" textLength="399.7563" x="685.63" y="1033.7358">2. Owner is responsible for implementation and maintenance</text><text fill="#000000" font-family="Verdana" font-size="13" lengthAdjust="spacing" textLength="407.748" x="685.63" y="1049.5351">3. Changes require owner approval or escalation to ARCH-001</text><text fill="#000000" font-family="Verdana" font-size="13" lengthAdjust="spacing" textLength="369.6494" x="685.63" y="1065.3344">4. Cross-component changes need coordination meeting</text></g><!--link TTY_C to UI_H--><g class="link" data-entity-1="TTY_C" data-entity-2="UI_H" data-source-line="48" data-uid="lnk23" id="link_TTY_C_UI_H"><path d="M549.78,1090.4073 C549.29,1115.2473 548.8284,1137.9085 548.3384,1162.7385" fill="none" id="TTY_C-to-UI_H" style="stroke:#000000;stroke-width:1;"/><polygon fill="#000000" points="548.22,1168.7373,552.3968,1159.818,548.3187,1163.7383,544.3984,1159.6601,548.22,1168.7373" style="stroke:#000000;stroke-width:1;"/><text fill="#000000" font-family="Verdana" font-size="13" lengthAdjust="spacing" textLength="76.1338" x="550.12" y="1136.1771">implements</text></g><!--link ROUTER to UI_H--><g class="link" data-entity-1="ROUTER" data-entity-2="UI_H" data-source-line="49" data-uid="lnk24" id="link_ROUTER_UI_H"><path d="M379.99,1090.4073 C409.77,1115.2473 439.5404,1140.0665 469.3404,1164.8965" fill="none" id="ROUTER-to-UI_H" style="stroke:#000000;stroke-width:1;"/><polygon fill="#000000" points="473.95,1168.7373,469.5962,1159.903,470.1087,1165.5366,464.4751,1166.0492,473.95,1168.7373" style="stroke:#000000;stroke-width:1;"/><text fill="#000000" font-family="Verdana" font-size="13" lengthAdjust="spacing" textLength="29.5166" x="435.2" y="1136.1771">uses</text></g><!--link GHOSTTY_C to ROUTER--><g class="link" data-entity-1="GHOSTTY_C" data-entity-2="ROUTER" data-source-line="50" data-uid="lnk25" id="link_GHOSTTY_C_ROUTER"><path d="M177,888.4173 C191.62,904.2673 207.38,921.3173 222,937.0273 C230.96,946.6573 236.3664,952.4601 245.6664,962.3801" fill="none" id="GHOSTTY_C-to-ROUTER" style="stroke:#000000;stroke-width:1;"/><polygon fill="#000000" points="249.77,966.7573,246.5327,957.4557,246.3503,963.1096,240.6964,962.9272,249.77,966.7573" style="stroke:#000000;stroke-width:1;"/><text fill="#000000" font-family="Verdana" font-size="13" lengthAdjust="spacing" textLength="89.0449" x="223" y="934.0971">registers with</text></g><!--link LOOP to TTY_C--><g class="link" data-entity-1="LOOP" data-entity-2="TTY_C" data-source-line="51" data-uid="lnk26" id="link_LOOP_TTY_C"><path d="M552.39,888.3373 C552.14,913.1673 551.9204,935.8276 551.6704,960.6676" fill="none" id="LOOP-to-TTY_C" style="stroke:#000000;stroke-width:1;"/><polygon fill="#000000" points="551.61,966.6673,555.7004,957.708,551.6603,961.6676,547.7008,957.6275,551.61,966.6673" style="stroke:#000000;stroke-width:1;"/><text fill="#000000" font-family="Verdana" font-size="13" lengthAdjust="spacing" textLength="65.7554" x="553.06" y="934.0971">integrates</text></g><!--link GRID_CB to ROUTER--><g class="link" data-entity-1="GRID_CB" data-entity-2="ROUTER" data-source-line="52" data-uid="lnk27" id="link_GRID_CB_ROUTER"><path d="M327.88,888.3373 C324.15,913.1673 320.751,935.8938 317.021,960.7338" fill="none" id="GRID_CB-to-ROUTER" style="stroke:#000000;stroke-width:1;"/><polygon fill="#000000" points="316.13,966.6673,321.4221,958.3611,316.8725,961.7227,313.5108,957.1731,316.13,966.6673" style="stroke:#000000;stroke-width:1;"/><text fill="#000000" font-family="Verdana" font-size="13" lengthAdjust="spacing" textLength="57.5288" x="323.9" y="934.0971">connects</text></g><!--link LIB_H to UI_H--><g class="link" data-entity-1="LIB_H" data-entity-2="UI_H" data-source-line="54" data-uid="lnk28" id="link_LIB_H_UI_H"><path d="M1164.08,1090.4273 C1152.11,1099.4573 1139.19,1107.8273 1126,1114.1073 C969.6,1188.5973 773.3515,1214.6164 653.9515,1224.0164" fill="none" id="LIB_H-to-UI_H" style="stroke:#000000;stroke-width:1;"/><polygon fill="#000000" points="647.97,1224.4873,657.2562,1227.7686,652.9546,1224.0949,656.6283,1219.7933,647.97,1224.4873" style="stroke:#000000;stroke-width:1;"/><text fill="#000000" font-family="Verdana" font-size="13" lengthAdjust="spacing" textLength="38.8667" x="1098.09" y="1136.1771">wraps</text></g><!--link LIB_Z to LIB_H--><g class="link" data-entity-1="LIB_Z" data-entity-2="LIB_H" data-source-line="55" data-uid="lnk29" id="link_LIB_Z_LIB_H"><path d="M1228,888.3373 C1228,913.1673 1228,935.8273 1228,960.6673" fill="none" id="LIB_Z-to-LIB_H" style="stroke:#000000;stroke-width:1;"/><polygon fill="#000000" points="1228,966.6673,1232,957.6673,1228,961.6673,1224,957.6673,1228,966.6673" style="stroke:#000000;stroke-width:1;"/><text fill="#000000" font-family="Verdana" font-size="13" lengthAdjust="spacing" textLength="76.1338" x="1229" y="934.0971">implements</text></g><!--link MEM_Z to LIB_Z--><g class="link" data-entity-1="MEM_Z" data-entity-2="LIB_Z" data-source-line="56" data-uid="lnk30" id="link_MEM_Z_LIB_Z"><path d="M1239.61,664.3973 C1237.36,695.5973 1235.0617,727.4829 1232.8117,758.6729" fill="none" id="MEM_Z-to-LIB_Z" style="stroke:#000000;stroke-width:1;"/><polygon fill="#000000" points="1232.38,764.6573,1237.0172,755.9684,1232.7398,759.6703,1229.0379,755.3928,1232.38,764.6573" style="stroke:#000000;stroke-width:1;"/><text fill="#000000" font-family="Verdana" font-size="13" lengthAdjust="spacing" textLength="53.0728" x="1237.96" y="710.0271">protects</text></g><!--link BRIDGE to LIB_Z--><g class="link" data-entity-1="BRIDGE" data-entity-2="LIB_Z" data-source-line="58" data-uid="lnk31" id="link_BRIDGE_LIB_Z"><path d="M956.18,662.3473 C1014.95,697.6173 1083.6854,738.8797 1139.5854,772.4297" fill="none" id="BRIDGE-to-LIB_Z" style="stroke:#000000;stroke-width:1;"/><polygon fill="#000000" points="1144.73,775.5173,1139.0716,767.4561,1140.4429,772.9443,1134.9547,774.3155,1144.73,775.5173" style="stroke:#000000;stroke-width:1;"/><text fill="#000000" font-family="Verdana" font-size="13" lengthAdjust="spacing" textLength="29.5166" x="1032.91" y="710.0271">uses</text></g><!--link ERROR to BRIDGE--><g class="link" data-entity-1="ERROR" data-entity-2="BRIDGE" data-source-line="59" data-uid="lnk32" id="link_ERROR_BRIDGE"><path d="M800.18,442.3573 C811.32,473.0173 822.7403,504.4183 833.8703,535.0383" fill="none" id="ERROR-to-BRIDGE" style="stroke:#000000;stroke-width:1;"/><polygon fill="#000000" points="835.92,540.6773,836.6048,530.8523,834.2119,535.9781,829.0861,533.5852,835.92,540.6773" style="stroke:#000000;stroke-width:1;"/><text fill="#000000" font-family="Verdana" font-size="13" lengthAdjust="spacing" textLength="56.5322" x="816.6" y="485.9571">supports</text></g><!--link PERF to BRIDGE--><g class="link" data-entity-1="PERF" data-entity-2="BRIDGE" data-source-line="60" data-uid="lnk33" id="link_PERF_BRIDGE"><path d="M953.41,442.3573 C935.02,473.0173 915.8855,504.9115 897.5255,535.5315" fill="none" id="PERF-to-BRIDGE" style="stroke:#000000;stroke-width:1;"/><polygon fill="#000000" points="894.44,540.6773,902.4988,535.0155,897.0112,536.3891,895.6377,530.9015,894.44,540.6773" style="stroke:#000000;stroke-width:1;"/><text fill="#000000" font-family="Verdana" font-size="13" lengthAdjust="spacing" textLength="62.2388" x="932.9" y="485.9571">optimizes</text></g><!--link TEST_GRID to GRID_CB--><g class="link" data-entity-1="TEST_GRID" data-entity-2="GRID_CB" data-source-line="62" data-uid="lnk34" id="link_TEST_GRID_GRID_CB"><path d="M364.27,218.0473 C358.57,345.1273 345.6989,631.6833 339.9989,758.7433" fill="none" id="TEST_GRID-to-GRID_CB" style="stroke:#000000;stroke-width:1;"/><polygon fill="#000000" points="339.73,764.7373,344.1293,755.9256,339.9541,759.7423,336.1374,755.5671,339.73,764.7373" style="stroke:#000000;stroke-width:1;"/><text fill="#000000" font-family="Verdana" font-size="13" lengthAdjust="spacing" textLength="31.5352" x="353.69" y="485.9571">tests</text></g><!--link TEST_INT to BRIDGE--><g class="link" data-entity-1="TEST_INT" data-entity-2="BRIDGE" data-source-line="63" data-uid="lnk35" id="link_TEST_INT_BRIDGE"><path d="M578.46,218.2473 C570.23,279.2273 566.75,373.5273 607,441.8873 C640.99,499.6173 699.5627,537.2705 754.4327,562.8705" fill="none" id="TEST_INT-to-BRIDGE" style="stroke:#000000;stroke-width:1;"/><polygon fill="#000000" points="759.87,565.4073,753.4052,557.9772,755.3389,563.2933,750.0228,565.227,759.87,565.4073" style="stroke:#000000;stroke-width:1;"/><text fill="#000000" font-family="Verdana" font-size="13" lengthAdjust="spacing" textLength="58.1826" x="608" y="385.9171">validates</text></g><!--link BENCH to PERF--><g class="link" data-entity-1="BENCH" data-entity-2="PERF" data-source-line="64" data-uid="lnk36" id="link_BENCH_PERF"><path d="M873.21,218.2473 C895.83,249.4573 919.7577,282.47 942.3677,313.65" fill="none" id="BENCH-to-PERF" style="stroke:#000000;stroke-width:1;"/><polygon fill="#000000" points="945.89,318.5073,943.8448,308.8731,942.9548,314.4595,937.3684,313.5695,945.89,318.5073" style="stroke:#000000;stroke-width:1;"/><text fill="#000000" font-family="Verdana" font-size="13" lengthAdjust="spacing" textLength="63.2607" x="905.67" y="263.8771">measures</text></g><!--link DOCS to LIB_H--><g class="link" data-entity-1="DOCS" data-entity-2="LIB_H" data-source-line="66" data-uid="lnk37" id="link_DOCS_LIB_H"><path d="M1023.41,888.3373 C1061.42,914.2073 1100.5699,940.8513 1138.0799,966.3813" fill="none" id="DOCS-to-LIB_H" style="stroke:#000000;stroke-width:1;"/><polygon fill="#000000" points="1143.04,969.7573,1137.8504,961.3866,1138.9066,966.944,1133.3492,968.0001,1143.04,969.7573" style="stroke:#000000;stroke-width:1;"/><text fill="#000000" font-family="Verdana" font-size="13" lengthAdjust="spacing" textLength="71.5" x="1090.82" y="934.0971">documents</text></g><g class="legend" data-source-line="69"><rect fill="none" height="184.1465" rx="7.5" ry="7.5" style="stroke:#000000;stroke-width:1;" width="333.2783" x="1018.7217" y="1319.1773"/><text fill="#000000" font-family="Verdana" font-size="14" font-weight="bold" lengthAdjust="spacing" textLength="41.0977" x="1028.5068" y="1340.2525">Color</text><text fill="#000000" font-family="Verdana" font-size="14" font-weight="bold" lengthAdjust="spacing" textLength="51.8438" x="1104.0576" y="1340.2525">Owner</text><text fill="#000000" font-family="Verdana" font-size="14" font-weight="bold" lengthAdjust="spacing" textLength="34.6445" x="1186.5605" y="1340.2525">Role</text><text fill="#000000" font-family="Verdana" font-size="14" lengthAdjust="spacing" textLength="63.7998" x="1028.6436" y="1357.2671">#E5B4FF</text><text fill="#000000" font-family="Verdana" font-size="14" lengthAdjust="spacing" textLength="72.6592" x="1104.1943" y="1357.2671">ARCH-001</text><text fill="#000000" font-family="Verdana" font-size="14" lengthAdjust="spacing" textLength="100.3926" x="1186.6973" y="1357.2671">Lead Architect</text><text fill="#000000" font-family="Verdana" font-size="14" lengthAdjust="spacing" textLength="63.7998" x="1028.6436" y="1374.2818">#FFE5B4</text><text fill="#000000" font-family="Verdana" font-size="14" lengthAdjust="spacing" textLength="72.4404" x="1104.1943" y="1374.2818">CORE-001</text><text fill="#000000" font-family="Verdana" font-size="14" lengthAdjust="spacing" textLength="111.3848" x="1186.6973" y="1374.2818">Sr. C Developer</text><text fill="#000000" font-family="Verdana" font-size="14" lengthAdjust="spacing" textLength="65.3926" x="1028.6436" y="1391.2964">#FFCB9A</text><text fill="#000000" font-family="Verdana" font-size="14" lengthAdjust="spacing" textLength="72.4404" x="1104.1943" y="1391.2964">CORE-002</text><text fill="#000000" font-family="Verdana" font-size="14" lengthAdjust="spacing" textLength="85.8252" x="1186.6973" y="1391.2964">C Developer</text><text fill="#000000" font-family="Verdana" font-size="14" lengthAdjust="spacing" textLength="63.7998" x="1028.6436" y="1408.3111">#B4E5FF</text><text fill="#000000" font-family="Verdana" font-size="14" lengthAdjust="spacing" textLength="68.9063" x="1104.1943" y="1408.3111">INTG-001</text><text fill="#000000" font-family="Verdana" font-size="14" lengthAdjust="spacing" textLength="123.7646" x="1186.6973" y="1408.3111">Sr. Zig Developer</text><text fill="#000000" font-family="Verdana" font-size="14" lengthAdjust="spacing" textLength="65.707" x="1028.6436" y="1425.3257">#9AD5FF</text><text fill="#000000" font-family="Verdana" font-size="14" lengthAdjust="spacing" textLength="68.9063" x="1104.1943" y="1425.3257">INTG-002</text><text fill="#000000" font-family="Verdana" font-size="14" lengthAdjust="spacing" textLength="98.2051" x="1186.6973" y="1425.3257">Zig Developer</text><text fill="#000000" font-family="Verdana" font-size="14" lengthAdjust="spacing" textLength="64.6953" x="1028.6436" y="1442.3404">#7AC5FF</text><text fill="#000000" font-family="Verdana" font-size="14" lengthAdjust="spacing" textLength="68.9063" x="1104.1943" y="1442.3404">INTG-003</text><text fill="#000000" font-family="Verdana" font-size="14" lengthAdjust="spacing" textLength="155.3809" x="1186.6973" y="1442.3404">Performance Engineer</text><text fill="#000000" font-family="Verdana" font-size="14" lengthAdjust="spacing" textLength="64.5449" x="1028.6436" y="1459.355">#B4FFB4</text><text fill="#000000" font-family="Verdana" font-size="14" lengthAdjust="spacing" textLength="53.6484" x="1104.1943" y="1459.355">QA-001</text><text fill="#000000" font-family="Verdana" font-size="14" lengthAdjust="spacing" textLength="67.9629" x="1186.6973" y="1459.355">Test Lead</text><text fill="#000000" font-family="Verdana" font-size="14" lengthAdjust="spacing" textLength="64.4902" x="1028.6436" y="1476.3697">#9AFF9A</text><text fill="#000000" font-family="Verdana" font-size="14" lengthAdjust="spacing" textLength="53.6484" x="1104.1943" y="1476.3697">QA-002</text><text fill="#000000" font-family="Verdana" font-size="14" lengthAdjust="spacing" textLength="96.4893" x="1186.6973" y="1476.3697">Test Engineer</text><text fill="#000000" font-family="Verdana" font-size="14" lengthAdjust="spacing" textLength="64.4902" x="1028.6436" y="1493.3843">#7AFF7A</text><text fill="#000000" font-family="Verdana" font-size="14" lengthAdjust="spacing" textLength="53.6484" x="1104.1943" y="1493.3843">QA-003</text><text fill="#000000" font-family="Verdana" font-size="14" lengthAdjust="spacing" textLength="129.0898" x="1186.6973" y="1493.3843">Perf Test Engineer</text><line style="stroke:#000000;stroke-width:1;" x1="1023.7217" x2="1347" y1="1326.1773" y2="1326.1773"/><line style="stroke:#000000;stroke-width:1;" x1="1023.7217" x2="1347" y1="1343.192" y2="1343.192"/><line style="stroke:#000000;stroke-width:1;" x1="1023.7217" x2="1347" y1="1360.2066" y2="1360.2066"/><line style="stroke:#000000;stroke-width:1;" x1="1023.7217" x2="1347" y1="1377.2213" y2="1377.2213"/><line style="stroke:#000000;stroke-width:1;" x1="1023.7217" x2="1347" y1="1394.2359" y2="1394.2359"/><line style="stroke:#000000;stroke-width:1;" x1="1023.7217" x2="1347" y1="1411.2505" y2="1411.2505"/><line style="stroke:#000000;stroke-width:1;" x1="1023.7217" x2="1347" y1="1428.2652" y2="1428.2652"/><line style="stroke:#000000;stroke-width:1;" x1="1023.7217" x2="1347" y1="1445.2798" y2="1445.2798"/><line style="stroke:#000000;stroke-width:1;" x1="1023.7217" x2="1347" y1="1462.2945" y2="1462.2945"/><line style="stroke:#000000;stroke-width:1;" x1="1023.7217" x2="1347" y1="1479.3091" y2="1479.3091"/><line style="stroke:#000000;stroke-width:1;" x1="1023.7217" x2="1347" y1="1496.3238" y2="1496.3238"/><line style="stroke:#000000;stroke-width:1;" x1="1023.7217" x2="1023.7217" y1="1326.1773" y2="1496.3238"/><line style="stroke:#000000;stroke-width:1;" x1="1099.2725" x2="1099.2725" y1="1326.1773" y2="1496.3238"/><line style="stroke:#000000;stroke-width:1;" x1="1181.7754" x2="1181.7754" y1="1326.1773" y2="1496.3238"/><line style="stroke:#000000;stroke-width:1;" x1="1347" x2="1347" y1="1326.1773" y2="1496.3238"/></g><!--SRC=[XLTTRzis57tNh-2IXsq677HfYw86Di1sfCH0KcUEEs150O6MQ8ce96eadTHTzzztBYbPKZxg56W8wf8yFFVSSvcVR2vAmUg2oogmqXQ2pLLPgqfKbYqVAg5DBcl6gvIjXC6yaHjPIBjdDzng-JKmNsHLSyrBjk79bqohNPNELQ4qEur2-XS4DJxmJB0JM-w-OdlTEyESi7y3Xf_aSEh9Q6Jj_YnXfKhbLYRSIXmx6dsk79u9cozNuVZLgzy-LsFyu7-6-FX1Ioj- -PNbIdqnD3d3iGAu0SdAAgCfEXRRDJSe-5xe4yODMw__ZkS078LlPsySdAUOTZBU-1tFyXwOwMf-DGIpgApGMvu8bWeZiuhcfhC5TgkivebruFu2iRWMAta5QagSuO1yNCHNx9HGHD4BE1eGCLrBwBFaAJ7d7HPSkEH33bfQZ2X4GjJIv2qGAurGe5QrbQNyvcXte5RBZ-jmHVJCP- -dHs1bkJ8kVJrSYm_hoo57TpMlY91xJmDDHT2GO3pBjCXuY-j2QYIAQ8FCCeVcycfvr-HhzYPy-o9FXL9rV6_vfX3FaTG34zxJ4hunBZtDoMjP2jrBZvlBjU1WZc-5tJimrylbxH7TP5gcSSABWXWoH_BbITXmc-HDkXnJW9Ar4cvsOgaqDSLvKbQBYtW-E-JelrxLHT62pG0YErfsXTnGYIQeq2CQlzrj2fcmwUsYLRS1qwwiNDfKiYFIEWrTBsP7bTq__flCVYWWkjH6LYbOSVMqtjVYaQ1kHAdqVf0jWFXqH3QbMnNxLKTXpCZkE4v9Sf5usxcMMv7i4nZfK3optNOBHTLQMLzt3j9DUDE3r4_RfIyaPoUPTamUjKsm5szSgfz7tbFQMkXILhmWqghE27mjvF2CeX7S9VPZPbybkLPLtnPcqDnbo4xVJozUfbDehNJSxdSKLKZXn57DEnDOYKGXhp1ibSd4SQoohFM3SBLQhewWg3jxUnx2wvwqjThAzlBBdXUw90hmK79zSAFRS1MnqtVJ-UFqhOKXnpsQCeJ5pY9KFJI7FwT3QbmU56xY-o5DVQnaeb8nIDVKeYrlq1gOzGXyWmllrZ6P114LHI-wkEp45jDwyuWk1wfldLKwjcfC_SI5EmHrNJHTkyNWimXdDwxfcHrQTOSBEQ0AYA8NFNJJqXwxfS-1wcUmrynA0JeINvZSOfjz7rDZ4NMRSg_hyCFyYd8QHU-6Jlh8rfv9vrJ3kAc-TtZa8Dpyq4KltFi0puH4cZQd_NBFTZ8LZjBR1TC2ze4BUE8kblExWvq2uy_Wj_3Am7lDk0TRAcea1akaC85lcUFn7_wDCM6oh0jdJYPe6dpluyvWITTfwKiJD06GJ1eyFGnxa3OFN0ka01-AZPiRq0vDMngiRmp7185l2hrZ7pIlJU1jcgPzm02hDypsuoTyR1mL-pMErF_eBk8jWgQRY0aaMDTAOv4huC6dvls3TK5NDXJHtcRYjHuSn3jOViyBcRhRUo7HHtV816Ba1iB0nYvz_HkcZRGCfV9QP4XSKBXVJCiijqvgttzd_ccDWHCL3LOAhUQx_zug0gDMRHXUqwFbeCmkrZzRC6gVH1ZUwJCsXp3lHK5Uqm-cXqKNV4x3vm9zAyEexPRDhfzazbouz-qkdFPz8TIxR1Vw6iD-hOSLce8OOY5JmSZx5WPaovwG7W8on3Rel0rwkfjtX3QmFVr9D7BcCnS45PJ9DifQLRfDHgFkJwhLhX1cCXgv3x-TiP0dUSzCSXJvyaC8TSkI7XYA5hhOyxCc-TAW5fk_oQ01yD0LYZSGSe6IKq5Mn91R_Xe9HiF81At-PoTXL6vlncjK4jJBi8ymUB4s5guEMdBhts2zLiQCEwn9iny8I745fV4iyujB8SXhYHD6P0J_0m00]--></g></svg>