<svg xmlns="http://www.w3.org/2000/svg" xmlns:xlink="http://www.w3.org/1999/xlink" contentStyleType="text/css" data-diagram-type="GANTT" height="1134px" preserveAspectRatio="none" style="width:540px;height:1134px;background:#FEFEFE;" version="1.1" viewBox="0 0 540 1134" width="540px" zoomAndPan="magnify"><title>Construction Timeline with Critical Path</title><defs/><g><rect fill="#FEFEFE" height="1134" style="stroke:none;stroke-width:1;" width="540" x="0" y="0"/><g class="title" data-source-line="2"><text fill="#000000" font-family="Verdana" font-size="22" font-weight="bold" lengthAdjust="spacing" textLength="491.7988" x="15" y="37.1182">Construction Timeline with Critical Path</text></g><rect fill="#FFFFFF" height="39" style="stroke:none;stroke-width:1;" width="352" x="85.3994" y="52.7373"/><rect fill="#FFFFFF" height="40" style="stroke:none;stroke-width:1;" width="352" x="85.3994" y="1086.4834"/><text fill="#000000" font-family="Verdana" font-size="10" lengthAdjust="spacing" textLength="12.4902" x="87.1543" y="76.791">Tu</text><text fill="#000000" font-family="Verdana" font-size="10" lengthAdjust="spacing" textLength="15.8447" x="101.4771" y="76.791">We</text><text fill="#000000" font-family="Verdana" font-size="10" lengthAdjust="spacing" textLength="12.4902" x="119.1543" y="76.791">Th</text><text fill="#000000" font-family="Verdana" font-size="10" lengthAdjust="spacing" textLength="10.0146" x="136.3921" y="76.791">Fr</text><text fill="#000000" font-family="Verdana" font-size="10" lengthAdjust="spacing" textLength="12.8418" x="150.9785" y="76.791">Sa</text><text fill="#000000" font-family="Verdana" font-size="10" lengthAdjust="spacing" textLength="13.1641" x="166.8174" y="76.791">Su</text><text fill="#000000" font-family="Verdana" font-size="10" lengthAdjust="spacing" textLength="14.4971" x="182.1509" y="76.791">Mo</text><text fill="#000000" font-family="Verdana" font-size="10" lengthAdjust="spacing" textLength="12.4902" x="199.1543" y="76.791">Tu</text><text fill="#000000" font-family="Verdana" font-size="10" lengthAdjust="spacing" textLength="15.8447" x="213.4771" y="76.791">We</text><text fill="#000000" font-family="Verdana" font-size="10" lengthAdjust="spacing" textLength="12.4902" x="231.1543" y="76.791">Th</text><text fill="#000000" font-family="Verdana" font-size="10" lengthAdjust="spacing" textLength="10.0146" x="248.3921" y="76.791">Fr</text><text fill="#000000" font-family="Verdana" font-size="10" lengthAdjust="spacing" textLength="12.8418" x="262.9785" y="76.791">Sa</text><text fill="#000000" font-family="Verdana" font-size="10" lengthAdjust="spacing" textLength="13.1641" x="278.8174" y="76.791">Su</text><text fill="#000000" font-family="Verdana" font-size="10" lengthAdjust="spacing" textLength="14.4971" x="294.1509" y="76.791">Mo</text><text fill="#000000" font-family="Verdana" font-size="10" lengthAdjust="spacing" textLength="12.4902" x="311.1543" y="76.791">Tu</text><text fill="#000000" font-family="Verdana" font-size="10" lengthAdjust="spacing" textLength="15.8447" x="325.4771" y="76.791">We</text><text fill="#000000" font-family="Verdana" font-size="10" lengthAdjust="spacing" textLength="12.4902" x="343.1543" y="76.791">Th</text><text fill="#000000" font-family="Verdana" font-size="10" lengthAdjust="spacing" textLength="10.0146" x="360.3921" y="76.791">Fr</text><text fill="#000000" font-family="Verdana" font-size="10" lengthAdjust="spacing" textLength="12.8418" x="374.9785" y="76.791">Sa</text><text fill="#000000" font-family="Verdana" font-size="10" lengthAdjust="spacing" textLength="13.1641" x="390.8174" y="76.791">Su</text><text fill="#000000" font-family="Verdana" font-size="10" lengthAdjust="spacing" textLength="14.4971" x="406.1509" y="76.791">Mo</text><text fill="#000000" font-family="Verdana" font-size="10" lengthAdjust="spacing" textLength="12.4902" x="423.1543" y="76.791">Tu</text><text fill="#000000" font-family="Verdana" font-size="10" lengthAdjust="spacing" textLength="12.7148" x="87.042" y="88.791">26</text><text fill="#000000" font-family="Verdana" font-size="10" lengthAdjust="spacing" textLength="12.7148" x="103.042" y="88.791">27</text><text fill="#000000" font-family="Verdana" font-size="10" lengthAdjust="spacing" textLength="12.7148" x="119.042" y="88.791">28</text><text fill="#000000" font-family="Verdana" font-size="10" lengthAdjust="spacing" textLength="12.7148" x="135.042" y="88.791">29</text><text fill="#000000" font-family="Verdana" font-size="10" lengthAdjust="spacing" textLength="12.7148" x="151.042" y="88.791">30</text><text fill="#000000" font-family="Verdana" font-size="10" lengthAdjust="spacing" textLength="12.7148" x="167.042" y="88.791">31</text><text fill="#000000" font-family="Verdana" font-size="10" lengthAdjust="spacing" textLength="6.3574" x="186.2207" y="88.791">1</text><text fill="#000000" font-family="Verdana" font-size="10" lengthAdjust="spacing" textLength="6.3574" x="202.2207" y="88.791">2</text><text fill="#000000" font-family="Verdana" font-size="10" lengthAdjust="spacing" textLength="6.3574" x="218.2207" y="88.791">3</text><text fill="#000000" font-family="Verdana" font-size="10" lengthAdjust="spacing" textLength="6.3574" x="234.2207" y="88.791">4</text><text fill="#000000" font-family="Verdana" font-size="10" lengthAdjust="spacing" textLength="6.3574" x="250.2207" y="88.791">5</text><text fill="#000000" font-family="Verdana" font-size="10" lengthAdjust="spacing" textLength="6.3574" x="266.2207" y="88.791">6</text><text fill="#000000" font-family="Verdana" font-size="10" lengthAdjust="spacing" textLength="6.3574" x="282.2207" y="88.791">7</text><text fill="#000000" font-family="Verdana" font-size="10" lengthAdjust="spacing" textLength="6.3574" x="298.2207" y="88.791">8</text><text fill="#000000" font-family="Verdana" font-size="10" lengthAdjust="spacing" textLength="6.3574" x="314.2207" y="88.791">9</text><text fill="#000000" font-family="Verdana" font-size="10" lengthAdjust="spacing" textLength="12.7148" x="327.042" y="88.791">10</text><text fill="#000000" font-family="Verdana" font-size="10" lengthAdjust="spacing" textLength="12.7148" x="343.042" y="88.791">11</text><text fill="#000000" font-family="Verdana" font-size="10" lengthAdjust="spacing" textLength="12.7148" x="359.042" y="88.791">12</text><text fill="#000000" font-family="Verdana" font-size="10" lengthAdjust="spacing" textLength="12.7148" x="375.042" y="88.791">13</text><text fill="#000000" font-family="Verdana" font-size="10" lengthAdjust="spacing" textLength="12.7148" x="391.042" y="88.791">14</text><text fill="#000000" font-family="Verdana" font-size="10" lengthAdjust="spacing" textLength="12.7148" x="407.042" y="88.791">15</text><text fill="#000000" font-family="Verdana" font-size="10" lengthAdjust="spacing" textLength="12.7148" x="423.042" y="88.791">16</text><text fill="#000000" font-family="Verdana" font-size="12" font-weight="bold" lengthAdjust="spacing" textLength="85.6172" x="90.5908" y="64.8018">August 2025</text><text fill="#000000" font-family="Verdana" font-size="12" font-weight="bold" lengthAdjust="spacing" textLength="111.5684" x="253.6152" y="64.8018">September 2025</text><line style="stroke:#000000;stroke-width:1;" x1="85.3994" x2="85.3994" y1="91.7373" y2="1086.4834"/><line style="stroke:#000000;stroke-width:1;" x1="101.3994" x2="101.3994" y1="91.7373" y2="1086.4834"/><line style="stroke:#000000;stroke-width:1;" x1="117.3994" x2="117.3994" y1="91.7373" y2="1086.4834"/><line style="stroke:#000000;stroke-width:1;" x1="133.3994" x2="133.3994" y1="91.7373" y2="1086.4834"/><line style="stroke:#000000;stroke-width:1;" x1="149.3994" x2="149.3994" y1="91.7373" y2="1086.4834"/><line style="stroke:#000000;stroke-width:1;" x1="165.3994" x2="165.3994" y1="91.7373" y2="1086.4834"/><line style="stroke:#000000;stroke-width:1;" x1="181.3994" x2="181.3994" y1="91.7373" y2="1086.4834"/><line style="stroke:#000000;stroke-width:1;" x1="197.3994" x2="197.3994" y1="91.7373" y2="1086.4834"/><line style="stroke:#000000;stroke-width:1;" x1="213.3994" x2="213.3994" y1="91.7373" y2="1086.4834"/><line style="stroke:#000000;stroke-width:1;" x1="229.3994" x2="229.3994" y1="91.7373" y2="1086.4834"/><line style="stroke:#000000;stroke-width:1;" x1="245.3994" x2="245.3994" y1="91.7373" y2="1086.4834"/><line style="stroke:#000000;stroke-width:1;" x1="261.3994" x2="261.3994" y1="91.7373" y2="1086.4834"/><line style="stroke:#000000;stroke-width:1;" x1="277.3994" x2="277.3994" y1="91.7373" y2="1086.4834"/><line style="stroke:#000000;stroke-width:1;" x1="293.3994" x2="293.3994" y1="91.7373" y2="1086.4834"/><line style="stroke:#000000;stroke-width:1;" x1="309.3994" x2="309.3994" y1="91.7373" y2="1086.4834"/><line style="stroke:#000000;stroke-width:1;" x1="325.3994" x2="325.3994" y1="91.7373" y2="1086.4834"/><line style="stroke:#000000;stroke-width:1;" x1="341.3994" x2="341.3994" y1="91.7373" y2="1086.4834"/><line style="stroke:#000000;stroke-width:1;" x1="357.3994" x2="357.3994" y1="91.7373" y2="1086.4834"/><line style="stroke:#000000;stroke-width:1;" x1="373.3994" x2="373.3994" y1="91.7373" y2="1086.4834"/><line style="stroke:#000000;stroke-width:1;" x1="389.3994" x2="389.3994" y1="91.7373" y2="1086.4834"/><line style="stroke:#000000;stroke-width:1;" x1="405.3994" x2="405.3994" y1="91.7373" y2="1086.4834"/><line style="stroke:#000000;stroke-width:1;" x1="421.3994" x2="421.3994" y1="91.7373" y2="1086.4834"/><line style="stroke:#000000;stroke-width:1;" x1="437.3994" x2="437.3994" y1="91.7373" y2="1086.4834"/><line style="stroke:#000000;stroke-width:1;" x1="85.3994" x2="437.3994" y1="91.7373" y2="91.7373"/><line style="stroke:#000000;stroke-width:1;" x1="85.3994" x2="437.3994" y1="1086.4834" y2="1086.4834"/><path d="M109.3994,143.4746 L109.3994,160.1589 L114.3994,160.1589" fill="none" style="stroke:#000000;stroke-width:1;"/><polygon fill="#000000" points="113.3994,156.1589,117.3994,160.1589,113.3994,164.1589,113.3994,156.1589" style="stroke:#000000;stroke-width:1;"/><path d="M157.3994,166.8433 L157.3994,183.5276 L162.3994,183.5276" fill="none" style="stroke:#000000;stroke-width:1;"/><polygon fill="#000000" points="161.3994,179.5276,165.3994,183.5276,161.3994,187.5276,161.3994,179.5276" style="stroke:#000000;stroke-width:1;"/><path d="M157.3994,166.8433 L157.3994,206.8962 L162.3994,206.8962" fill="none" style="stroke:#000000;stroke-width:1;"/><polygon fill="#000000" points="161.3994,202.8962,165.3994,206.8962,161.3994,210.8962,161.3994,202.8962" style="stroke:#000000;stroke-width:1;"/><path d="M157.3994,166.8433 L157.3994,230.2649 L162.3994,230.2649" fill="none" style="stroke:#000000;stroke-width:1;"/><polygon fill="#000000" points="161.3994,226.2649,165.3994,230.2649,161.3994,234.2649,161.3994,226.2649" style="stroke:#000000;stroke-width:1;"/><path d="M93.3994,293.6865 L93.3994,367.1082 L98.3994,367.1082" fill="none" style="stroke:#000000;stroke-width:1;"/><polygon fill="#000000" points="97.3994,363.1082,101.3994,367.1082,97.3994,371.1082,97.3994,363.1082" style="stroke:#000000;stroke-width:1;"/><path d="M170.3994,206.8962 L157.3994,206.8962 L157.3994,390.4768 L162.3994,390.4768" fill="none" style="stroke:#000000;stroke-width:1;"/><polygon fill="#000000" points="161.3994,386.4768,165.3994,390.4768,161.3994,394.4768,161.3994,386.4768" style="stroke:#000000;stroke-width:1;"/><path d="M205.3994,190.2119 L205.3994,413.8455 L210.3994,413.8455" fill="none" style="stroke:#000000;stroke-width:1;"/><polygon fill="#000000" points="209.3994,409.8455,213.3994,413.8455,209.3994,417.8455,209.3994,409.8455" style="stroke:#000000;stroke-width:1;"/><path d="M218.3994,413.8455 L210.3994,413.8455 L210.3994,437.2141 L226.3994,437.2141" fill="none" style="stroke:#000000;stroke-width:1;"/><polygon fill="#000000" points="225.3994,433.2141,229.3994,437.2141,225.3994,441.2141,225.3994,433.2141" style="stroke:#000000;stroke-width:1;"/><path d="M253.3994,420.5298 L253.3994,460.5828 L258.3994,460.5828" fill="none" style="stroke:#000000;stroke-width:1;"/><polygon fill="#000000" points="257.3994,456.5828,261.3994,460.5828,257.3994,464.5828,257.3994,456.5828" style="stroke:#000000;stroke-width:1;"/><path d="M269.3994,443.8984 L269.3994,483.9514 L274.3994,483.9514" fill="none" style="stroke:#000000;stroke-width:1;"/><polygon fill="#000000" points="273.3994,479.9514,277.3994,483.9514,273.3994,487.9514,273.3994,479.9514" style="stroke:#000000;stroke-width:1;"/><path d="M218.3994,413.8455 L205.3994,413.8455 L205.3994,507.3201 L210.3994,507.3201" fill="none" style="stroke:#000000;stroke-width:1;"/><polygon fill="#000000" points="209.3994,503.3201,213.3994,507.3201,209.3994,511.3201,209.3994,503.3201" style="stroke:#000000;stroke-width:1;"/><path d="M122.3994,160.1589 L114.3994,160.1589 L114.3994,587.426 L130.3994,587.426" fill="none" style="stroke:#000000;stroke-width:1;"/><polygon fill="#000000" points="129.3994,583.426,133.3994,587.426,129.3994,591.426,129.3994,583.426" style="stroke:#000000;stroke-width:1;"/><path d="M157.3994,594.1104 L157.3994,610.7947 L162.3994,610.7947" fill="none" style="stroke:#000000;stroke-width:1;"/><polygon fill="#000000" points="161.3994,606.7947,165.3994,610.7947,161.3994,614.7947,161.3994,606.7947" style="stroke:#000000;stroke-width:1;"/><path d="M173.3994,617.479 L173.3994,634.1633 L178.3994,634.1633" fill="none" style="stroke:#000000;stroke-width:1;"/><polygon fill="#000000" points="177.3994,630.1633,181.3994,634.1633,177.3994,638.1633,177.3994,630.1633" style="stroke:#000000;stroke-width:1;"/><path d="M269.3994,443.8984 L269.3994,657.532 L274.3994,657.532" fill="none" style="stroke:#000000;stroke-width:1;"/><polygon fill="#000000" points="273.3994,653.532,277.3994,657.532,273.3994,661.532,273.3994,653.532" style="stroke:#000000;stroke-width:1;"/><path d="M282.3994,657.532 L274.3994,657.532 L274.3994,680.9006 L290.3994,680.9006" fill="none" style="stroke:#000000;stroke-width:1;"/><polygon fill="#000000" points="289.3994,676.9006,293.3994,680.9006,289.3994,684.9006,289.3994,676.9006" style="stroke:#000000;stroke-width:1;"/><path d="M317.3994,687.585 L317.3994,704.2693 L322.3994,704.2693" fill="none" style="stroke:#000000;stroke-width:1;"/><polygon fill="#000000" points="321.3994,700.2693,325.3994,704.2693,321.3994,708.2693,321.3994,700.2693" style="stroke:#000000;stroke-width:1;"/><path d="M365.3994,710.9536 L365.3994,727.6379 L370.3994,727.6379" fill="none" style="stroke:#000000;stroke-width:1;"/><polygon fill="#000000" points="369.3994,723.6379,373.3994,727.6379,369.3994,731.6379,369.3994,723.6379" style="stroke:#000000;stroke-width:1;"/><path d="M317.3994,664.2163 L317.3994,751.0066 L322.3994,751.0066" fill="none" style="stroke:#000000;stroke-width:1;"/><polygon fill="#000000" points="321.3994,747.0066,325.3994,751.0066,321.3994,755.0066,321.3994,747.0066" style="stroke:#000000;stroke-width:1;"/><path d="M378.3994,727.6379 L365.3994,727.6379 L365.3994,774.3752 L370.3994,774.3752" fill="none" style="stroke:#000000;stroke-width:1;"/><polygon fill="#000000" points="369.3994,770.3752,373.3994,774.3752,369.3994,778.3752,369.3994,770.3752" style="stroke:#000000;stroke-width:1;"/><path d="M109.3994,143.4746 L109.3994,160.1589 L114.3994,160.1589" fill="none" style="stroke:#000000;stroke-width:1;"/><polygon fill="#000000" points="113.3994,156.1589,117.3994,160.1589,113.3994,164.1589,113.3994,156.1589" style="stroke:#000000;stroke-width:1;"/><path d="M157.3994,166.8433 L157.3994,183.5276 L162.3994,183.5276" fill="none" style="stroke:#000000;stroke-width:1;"/><polygon fill="#000000" points="161.3994,179.5276,165.3994,183.5276,161.3994,187.5276,161.3994,179.5276" style="stroke:#000000;stroke-width:1;"/><path d="M205.3994,190.2119 L205.3994,413.8455 L210.3994,413.8455" fill="none" style="stroke:#000000;stroke-width:1;"/><polygon fill="#000000" points="209.3994,409.8455,213.3994,413.8455,209.3994,417.8455,209.3994,409.8455" style="stroke:#000000;stroke-width:1;"/><path d="M253.3994,420.5298 L253.3994,657.532 L274.3994,657.532" fill="none" style="stroke:#000000;stroke-width:1;"/><polygon fill="#000000" points="273.3994,653.532,277.3994,657.532,273.3994,661.532,273.3994,653.532" style="stroke:#000000;stroke-width:1;"/><path d="M317.3994,664.2163 L317.3994,727.6379 L370.3994,727.6379" fill="none" style="stroke:#000000;stroke-width:1;"/><polygon fill="#000000" points="369.3994,723.6379,373.3994,727.6379,369.3994,731.6379,369.3994,723.6379" style="stroke:#000000;stroke-width:1;"/><rect fill="#FFFFFF" height="23.3687" style="stroke:none;stroke-width:1;" width="352" x="85.3994" y="96.7373"/><line style="stroke:#000000;stroke-width:1;" x1="85.3994" x2="90.3994" y1="108.4216" y2="108.4216"/><line style="stroke:#000000;stroke-width:1;" x1="257.2568" x2="436.3994" y1="108.4216" y2="108.4216"/><rect fill="#FFE5B4" height="13.3687" style="stroke:none;stroke-width:1;" width="22" x="90.3994" y="130.106"/><rect fill="none" height="13.3687" style="stroke:#FFE5B4;stroke-width:1;" width="22" x="90.3994" y="130.106"/><rect fill="#FFCB9A" height="13.3687" style="stroke:none;stroke-width:1;" width="38" x="122.3994" y="153.4746"/><rect fill="none" height="13.3687" style="stroke:#FFCB9A;stroke-width:1;" width="38" x="122.3994" y="153.4746"/><rect fill="#FFE5B4" height="13.3687" style="stroke:none;stroke-width:1;" width="38" x="170.3994" y="176.8433"/><rect fill="none" height="13.3687" style="stroke:#FFE5B4;stroke-width:1;" width="38" x="170.3994" y="176.8433"/><rect fill="#FFCB9A" height="13.3687" style="stroke:none;stroke-width:1;" width="22" x="170.3994" y="200.2119"/><rect fill="none" height="13.3687" style="stroke:#FFCB9A;stroke-width:1;" width="22" x="170.3994" y="200.2119"/><rect fill="#FFE5B4" height="13.3687" style="stroke:none;stroke-width:1;" width="22" x="170.3994" y="223.5806"/><rect fill="none" height="13.3687" style="stroke:#FFE5B4;stroke-width:1;" width="22" x="170.3994" y="223.5806"/><rect fill="#FFFFFF" height="23.3687" style="stroke:none;stroke-width:1;" width="352" x="85.3994" y="246.9492"/><line style="stroke:#000000;stroke-width:1;" x1="85.3994" x2="90.3994" y1="258.6335" y2="258.6335"/><line style="stroke:#000000;stroke-width:1;" x1="272.9351" x2="436.3994" y1="258.6335" y2="258.6335"/><rect fill="#E5B4FF" height="13.3687" style="stroke:none;stroke-width:1;" width="6" x="90.3994" y="280.3179"/><rect fill="none" height="13.3687" style="stroke:#E5B4FF;stroke-width:1;" width="6" x="90.3994" y="280.3179"/><rect fill="#E5B4FF" height="13.3687" style="stroke:none;stroke-width:1;" width="246" x="90.3994" y="303.6865"/><rect fill="none" height="13.3687" style="stroke:#E5B4FF;stroke-width:1;" width="246" x="90.3994" y="303.6865"/><rect fill="#FFFFFF" height="23.3687" style="stroke:none;stroke-width:1;" width="352" x="85.3994" y="327.0552"/><line style="stroke:#000000;stroke-width:1;" x1="85.3994" x2="90.3994" y1="338.7395" y2="338.7395"/><line style="stroke:#000000;stroke-width:1;" x1="316.4731" x2="436.3994" y1="338.7395" y2="338.7395"/><rect fill="#B4E5FF" height="13.3687" style="stroke:none;stroke-width:1;" width="22" x="106.3994" y="360.4238"/><rect fill="none" height="13.3687" style="stroke:#B4E5FF;stroke-width:1;" width="22" x="106.3994" y="360.4238"/><rect fill="#9AD5FF" height="13.3687" style="stroke:none;stroke-width:1;" width="22" x="170.3994" y="383.7925"/><rect fill="none" height="13.3687" style="stroke:#9AD5FF;stroke-width:1;" width="22" x="170.3994" y="383.7925"/><rect fill="#B4E5FF" height="13.3687" style="stroke:none;stroke-width:1;" width="38" x="218.3994" y="407.1611"/><rect fill="none" height="13.3687" style="stroke:#B4E5FF;stroke-width:1;" width="38" x="218.3994" y="407.1611"/><rect fill="#9AD5FF" height="13.3687" style="stroke:none;stroke-width:1;" width="38" x="234.3994" y="430.5298"/><rect fill="none" height="13.3687" style="stroke:#9AD5FF;stroke-width:1;" width="38" x="234.3994" y="430.5298"/><rect fill="#B4E5FF" height="13.3687" style="stroke:none;stroke-width:1;" width="22" x="266.3994" y="453.8984"/><rect fill="none" height="13.3687" style="stroke:#B4E5FF;stroke-width:1;" width="22" x="266.3994" y="453.8984"/><rect fill="#9AD5FF" height="13.3687" style="stroke:none;stroke-width:1;" width="6" x="282.3994" y="477.2671"/><rect fill="none" height="13.3687" style="stroke:#9AD5FF;stroke-width:1;" width="6" x="282.3994" y="477.2671"/><rect fill="#7AC5FF" height="13.3687" style="stroke:none;stroke-width:1;" width="70" x="218.3994" y="500.6357"/><rect fill="none" height="13.3687" style="stroke:#7AC5FF;stroke-width:1;" width="70" x="218.3994" y="500.6357"/><rect fill="#FFFFFF" height="23.3687" style="stroke:none;stroke-width:1;" width="352" x="85.3994" y="524.0044"/><line style="stroke:#000000;stroke-width:1;" x1="85.3994" x2="90.3994" y1="535.6887" y2="535.6887"/><line style="stroke:#000000;stroke-width:1;" x1="281.9692" x2="436.3994" y1="535.6887" y2="535.6887"/><rect fill="#B4FFB4" height="13.3687" style="stroke:none;stroke-width:1;" width="22" x="90.3994" y="557.373"/><rect fill="none" height="13.3687" style="stroke:#B4FFB4;stroke-width:1;" width="22" x="90.3994" y="557.373"/><rect fill="#9AFF9A" height="13.3687" style="stroke:none;stroke-width:1;" width="22" x="138.3994" y="580.7417"/><rect fill="none" height="13.3687" style="stroke:#9AFF9A;stroke-width:1;" width="22" x="138.3994" y="580.7417"/><rect fill="#B4FFB4" height="13.3687" style="stroke:none;stroke-width:1;" width="6" x="170.3994" y="604.1104"/><rect fill="none" height="13.3687" style="stroke:#B4FFB4;stroke-width:1;" width="6" x="170.3994" y="604.1104"/><rect fill="#9AFF9A" height="13.3687" style="stroke:none;stroke-width:1;" width="150" x="186.3994" y="627.479"/><rect fill="none" height="13.3687" style="stroke:#9AFF9A;stroke-width:1;" width="150" x="186.3994" y="627.479"/><rect fill="#B4FFB4" height="13.3687" style="stroke:none;stroke-width:1;" width="38" x="282.3994" y="650.8477"/><rect fill="none" height="13.3687" style="stroke:#B4FFB4;stroke-width:1;" width="38" x="282.3994" y="650.8477"/><rect fill="#7AFF7A" height="13.3687" style="stroke:none;stroke-width:1;" width="22" x="298.3994" y="674.2163"/><rect fill="none" height="13.3687" style="stroke:#7AFF7A;stroke-width:1;" width="22" x="298.3994" y="674.2163"/><rect fill="#7AC5FF" height="13.3687" style="stroke:none;stroke-width:1;" width="38" x="330.3994" y="697.585"/><rect fill="none" height="13.3687" style="stroke:#7AC5FF;stroke-width:1;" width="38" x="330.3994" y="697.585"/><rect fill="#B4FFB4" height="13.3687" style="stroke:none;stroke-width:1;" width="22" x="378.3994" y="720.9536"/><rect fill="none" height="13.3687" style="stroke:#B4FFB4;stroke-width:1;" width="22" x="378.3994" y="720.9536"/><rect fill="#FFCB9A" height="13.3687" style="stroke:none;stroke-width:1;" width="22" x="330.3994" y="744.3223"/><rect fill="none" height="13.3687" style="stroke:#FFCB9A;stroke-width:1;" width="22" x="330.3994" y="744.3223"/><rect fill="#E5B4FF" height="13.3687" style="stroke:none;stroke-width:1;" width="22" x="378.3994" y="767.6909"/><rect fill="none" height="13.3687" style="stroke:#E5B4FF;stroke-width:1;" width="22" x="378.3994" y="767.6909"/><rect fill="#FFFFFF" height="23.3687" style="stroke:none;stroke-width:1;" width="352" x="85.3994" y="791.0596"/><line style="stroke:#000000;stroke-width:1;" x1="85.3994" x2="90.3994" y1="802.7439" y2="802.7439"/><line style="stroke:#000000;stroke-width:1;" x1="158.2461" x2="436.3994" y1="802.7439" y2="802.7439"/><polygon fill="#FF0000" points="157.3994,824.4282,162.3994,829.4282,157.3994,834.4282,152.3994,829.4282" style="stroke:#FF0000;stroke-width:1;"/><polygon fill="#FF0000" points="205.3994,847.7969,210.3994,852.7969,205.3994,857.7969,200.3994,852.7969" style="stroke:#FF0000;stroke-width:1;"/><polygon fill="#FF0000" points="253.3994,871.1655,258.3994,876.1655,253.3994,881.1655,248.3994,876.1655" style="stroke:#FF0000;stroke-width:1;"/><polygon fill="#FF0000" points="317.3994,894.5342,322.3994,899.5342,317.3994,904.5342,312.3994,899.5342" style="stroke:#FF0000;stroke-width:1;"/><polygon fill="#FF0000" points="397.3994,917.9028,402.3994,922.9028,397.3994,927.9028,392.3994,922.9028" style="stroke:#FF0000;stroke-width:1;"/><rect fill="#FFFFFF" height="23.3687" style="stroke:none;stroke-width:1;" width="352" x="85.3994" y="941.2715"/><line style="stroke:#000000;stroke-width:1;" x1="85.3994" x2="90.3994" y1="952.9558" y2="952.9558"/><line style="stroke:#000000;stroke-width:1;" x1="236.8896" x2="436.3994" y1="952.9558" y2="952.9558"/><polygon fill="#FFFFFF" points="93.3994,974.6401,98.3994,979.6401,93.3994,984.6401,88.3994,979.6401" style="stroke:#000000;stroke-width:1;"/><polygon fill="#FFFFFF" points="205.3994,998.0088,210.3994,1003.0088,205.3994,1008.0088,200.3994,1003.0088" style="stroke:#000000;stroke-width:1;"/><polygon fill="#FFFFFF" points="317.3994,1021.3774,322.3994,1026.3774,317.3994,1031.3774,312.3994,1026.3774" style="stroke:#000000;stroke-width:1;"/><polygon fill="#FFFFFF" points="429.3994,1044.7461,434.3994,1049.7461,429.3994,1054.7461,424.3994,1049.7461" style="stroke:#000000;stroke-width:1;"/><polygon fill="#FFFF00" points="93.3994,1068.1147,98.3994,1073.1147,93.3994,1078.1147,88.3994,1073.1147" style="stroke:#FFFF00;stroke-width:1;"/><text fill="#000000" font-family="Verdana" font-size="11" lengthAdjust="spacing" textLength="156.8574" x="95.3994" y="112.7964">Core Team (CORE-001/002)</text><text fill="#000000" font-family="Verdana" font-size="11" lengthAdjust="spacing" textLength="127.8105" x="119.3994" y="141.165">T-101: tty_write hooks</text><text fill="#000000" font-family="Verdana" font-size="11" lengthAdjust="spacing" textLength="126.1509" x="167.3994" y="164.5337">T-103: Backend router</text><text fill="#000000" font-family="Verdana" font-size="11" lengthAdjust="spacing" textLength="137.7632" x="215.3994" y="187.9023">T-201: Event loop vtable</text><text fill="#000000" font-family="Verdana" font-size="11" lengthAdjust="spacing" textLength="118.3843" x="199.3994" y="211.271">T-202: Grid callbacks</text><text fill="#000000" font-family="Verdana" font-size="11" lengthAdjust="spacing" textLength="132.4995" x="199.3994" y="234.6396">T-203: Layout callbacks</text><text fill="#000000" font-family="Verdana" font-size="11" lengthAdjust="spacing" textLength="172.5356" x="95.3994" y="263.0083">Architecture Team (ARCH-001)</text><text fill="#000000" font-family="Verdana" font-size="11" lengthAdjust="spacing" textLength="144.7563" x="103.3994" y="291.377">T-102: UI Backend design</text><text fill="#000000" font-family="Verdana" font-size="11" lengthAdjust="spacing" textLength="113.0132" x="91.3994" y="314.7456">Architecture reviews</text><text fill="#000000" font-family="Verdana" font-size="11" lengthAdjust="spacing" textLength="216.0737" x="95.3994" y="343.1143">Integration Team (INTG-001/002/003)</text><text fill="#000000" font-family="Verdana" font-size="11" lengthAdjust="spacing" textLength="162.3735" x="135.3994" y="371.4829">T-104: Ghostty backend stub</text><text fill="#000000" font-family="Verdana" font-size="11" lengthAdjust="spacing" textLength="158.7856" x="199.3994" y="394.8516">T-204: Copy-mode callbacks</text><text fill="#000000" font-family="Verdana" font-size="11" lengthAdjust="spacing" textLength="109.0063" x="263.3994" y="418.2202">T-301: FFI bindings</text><text fill="#000000" font-family="Verdana" font-size="11" lengthAdjust="spacing" textLength="148.5698" x="279.3994" y="441.5889">T-302: Ghostty integration</text><text fill="#000000" font-family="Verdana" font-size="11" lengthAdjust="spacing" textLength="123.4868" x="295.3994" y="464.9575">T-303: Memory safety</text><text fill="#000000" font-family="Verdana" font-size="11" lengthAdjust="spacing" textLength="120.4307" x="295.3994" y="488.3262">T-304: Error handling</text><text fill="#000000" font-family="Verdana" font-size="11" lengthAdjust="spacing" textLength="118.4971" x="295.3994" y="511.6948">Performance profiling</text><text fill="#000000" font-family="Verdana" font-size="11" lengthAdjust="spacing" textLength="181.5698" x="95.3994" y="540.0635">Quality Team (QA-001/002/003)</text><text fill="#000000" font-family="Verdana" font-size="11" lengthAdjust="spacing" textLength="99.145" x="119.3994" y="568.4321">Test plan creation</text><text fill="#000000" font-family="Verdana" font-size="11" lengthAdjust="spacing" textLength="151.5024" x="167.3994" y="591.8008">T-105: Grid operation tests</text><text fill="#000000" font-family="Verdana" font-size="11" lengthAdjust="spacing" textLength="146.8457" x="183.3994" y="615.1694">T-106: Week 1 integration</text><text fill="#000000" font-family="Verdana" font-size="11" lengthAdjust="spacing" textLength="103.6138" x="187.3994" y="638.5381">Continuous testing</text><text fill="#000000" font-family="Verdana" font-size="11" lengthAdjust="spacing" textLength="133.7886" x="327.3994" y="661.9067">T-401: Integration tests</text><text fill="#000000" font-family="Verdana" font-size="11" lengthAdjust="spacing" textLength="109.6025" x="327.3994" y="685.2754">T-402: Benchmarks</text><text fill="#000000" font-family="Verdana" font-size="11" lengthAdjust="spacing" textLength="111.5737" x="375.3994" y="708.644">T-403: Optimization</text><text fill="#000000" font-family="Verdana" font-size="11" lengthAdjust="spacing" textLength="125.0122" x="407.3994" y="732.0127">T-504: Final validation</text><text fill="#000000" font-family="Verdana" font-size="11" lengthAdjust="spacing" textLength="92.5171" x="359.3994" y="755.3813">T-404: Bug fixes</text><text fill="#000000" font-family="Verdana" font-size="11" lengthAdjust="spacing" textLength="125.603" x="407.3994" y="778.75">T-502: Documentation</text><text fill="#000000" font-family="Verdana" font-size="11" lengthAdjust="spacing" textLength="57.8467" x="95.3994" y="807.1187">Milestones</text><text fill="#000000" font-family="Verdana" font-size="11" lengthAdjust="spacing" textLength="115.2476" x="165.3994" y="835.4873">M1: Backend routing</text><text fill="#000000" font-family="Verdana" font-size="11" lengthAdjust="spacing" textLength="83.5313" x="213.3994" y="858.856">M2: Event loop</text><text fill="#000000" font-family="Verdana" font-size="11" lengthAdjust="spacing" textLength="81.0928" x="261.3994" y="882.2246">M3: FFI bridge</text><text fill="#000000" font-family="Verdana" font-size="11" lengthAdjust="spacing" textLength="71.7095" x="325.3994" y="905.5933">M4: First run</text><text fill="#000000" font-family="Verdana" font-size="11" lengthAdjust="spacing" textLength="118.7495" x="405.3994" y="928.9619">M5: Production ready</text><text fill="#000000" font-family="Verdana" font-size="11" lengthAdjust="spacing" textLength="136.4902" x="95.3994" y="957.3306">Critical Path Highlighting</text><text fill="#000000" font-family="Verdana" font-size="11" lengthAdjust="spacing" textLength="41.3521" x="101.3994" y="985.6992">Week 1</text><text fill="#000000" font-family="Verdana" font-size="11" lengthAdjust="spacing" textLength="41.3521" x="213.3994" y="1009.0679">Week 2</text><text fill="#000000" font-family="Verdana" font-size="11" lengthAdjust="spacing" textLength="41.3521" x="325.3994" y="1032.4365">Week 3</text><text fill="#000000" font-family="Verdana" font-size="11" lengthAdjust="spacing" textLength="41.3521" x="437.3994" y="1055.8052">Week 4</text><text fill="#000000" font-family="Verdana" font-size="11" lengthAdjust="spacing" textLength="33.4243" x="101.3994" y="1079.1738">Today</text><text fill="#000000" font-family="Verdana" font-size="10" lengthAdjust="spacing" textLength="12.4902" x="87.1543" y="1096.5371">Tu</text><text fill="#000000" font-family="Verdana" font-size="10" lengthAdjust="spacing" textLength="15.8447" x="101.4771" y="1096.5371">We</text><text fill="#000000" font-family="Verdana" font-size="10" lengthAdjust="spacing" textLength="12.4902" x="119.1543" y="1096.5371">Th</text><text fill="#000000" font-family="Verdana" font-size="10" lengthAdjust="spacing" textLength="10.0146" x="136.3921" y="1096.5371">Fr</text><text fill="#000000" font-family="Verdana" font-size="10" lengthAdjust="spacing" textLength="12.8418" x="150.9785" y="1096.5371">Sa</text><text fill="#000000" font-family="Verdana" font-size="10" lengthAdjust="spacing" textLength="13.1641" x="166.8174" y="1096.5371">Su</text><text fill="#000000" font-family="Verdana" font-size="10" lengthAdjust="spacing" textLength="14.4971" x="182.1509" y="1096.5371">Mo</text><text fill="#000000" font-family="Verdana" font-size="10" lengthAdjust="spacing" textLength="12.4902" x="199.1543" y="1096.5371">Tu</text><text fill="#000000" font-family="Verdana" font-size="10" lengthAdjust="spacing" textLength="15.8447" x="213.4771" y="1096.5371">We</text><text fill="#000000" font-family="Verdana" font-size="10" lengthAdjust="spacing" textLength="12.4902" x="231.1543" y="1096.5371">Th</text><text fill="#000000" font-family="Verdana" font-size="10" lengthAdjust="spacing" textLength="10.0146" x="248.3921" y="1096.5371">Fr</text><text fill="#000000" font-family="Verdana" font-size="10" lengthAdjust="spacing" textLength="12.8418" x="262.9785" y="1096.5371">Sa</text><text fill="#000000" font-family="Verdana" font-size="10" lengthAdjust="spacing" textLength="13.1641" x="278.8174" y="1096.5371">Su</text><text fill="#000000" font-family="Verdana" font-size="10" lengthAdjust="spacing" textLength="14.4971" x="294.1509" y="1096.5371">Mo</text><text fill="#000000" font-family="Verdana" font-size="10" lengthAdjust="spacing" textLength="12.4902" x="311.1543" y="1096.5371">Tu</text><text fill="#000000" font-family="Verdana" font-size="10" lengthAdjust="spacing" textLength="15.8447" x="325.4771" y="1096.5371">We</text><text fill="#000000" font-family="Verdana" font-size="10" lengthAdjust="spacing" textLength="12.4902" x="343.1543" y="1096.5371">Th</text><text fill="#000000" font-family="Verdana" font-size="10" lengthAdjust="spacing" textLength="10.0146" x="360.3921" y="1096.5371">Fr</text><text fill="#000000" font-family="Verdana" font-size="10" lengthAdjust="spacing" textLength="12.8418" x="374.9785" y="1096.5371">Sa</text><text fill="#000000" font-family="Verdana" font-size="10" lengthAdjust="spacing" textLength="13.1641" x="390.8174" y="1096.5371">Su</text><text fill="#000000" font-family="Verdana" font-size="10" lengthAdjust="spacing" textLength="14.4971" x="406.1509" y="1096.5371">Mo</text><text fill="#000000" font-family="Verdana" font-size="10" lengthAdjust="spacing" textLength="12.4902" x="423.1543" y="1096.5371">Tu</text><text fill="#000000" font-family="Verdana" font-size="10" lengthAdjust="spacing" textLength="12.7148" x="87.042" y="1110.5371">26</text><text fill="#000000" font-family="Verdana" font-size="10" lengthAdjust="spacing" textLength="12.7148" x="103.042" y="1110.5371">27</text><text fill="#000000" font-family="Verdana" font-size="10" lengthAdjust="spacing" textLength="12.7148" x="119.042" y="1110.5371">28</text><text fill="#000000" font-family="Verdana" font-size="10" lengthAdjust="spacing" textLength="12.7148" x="135.042" y="1110.5371">29</text><text fill="#000000" font-family="Verdana" font-size="10" lengthAdjust="spacing" textLength="12.7148" x="151.042" y="1110.5371">30</text><text fill="#000000" font-family="Verdana" font-size="10" lengthAdjust="spacing" textLength="12.7148" x="167.042" y="1110.5371">31</text><text fill="#000000" font-family="Verdana" font-size="10" lengthAdjust="spacing" textLength="6.3574" x="186.2207" y="1110.5371">1</text><text fill="#000000" font-family="Verdana" font-size="10" lengthAdjust="spacing" textLength="6.3574" x="202.2207" y="1110.5371">2</text><text fill="#000000" font-family="Verdana" font-size="10" lengthAdjust="spacing" textLength="6.3574" x="218.2207" y="1110.5371">3</text><text fill="#000000" font-family="Verdana" font-size="10" lengthAdjust="spacing" textLength="6.3574" x="234.2207" y="1110.5371">4</text><text fill="#000000" font-family="Verdana" font-size="10" lengthAdjust="spacing" textLength="6.3574" x="250.2207" y="1110.5371">5</text><text fill="#000000" font-family="Verdana" font-size="10" lengthAdjust="spacing" textLength="6.3574" x="266.2207" y="1110.5371">6</text><text fill="#000000" font-family="Verdana" font-size="10" lengthAdjust="spacing" textLength="6.3574" x="282.2207" y="1110.5371">7</text><text fill="#000000" font-family="Verdana" font-size="10" lengthAdjust="spacing" textLength="6.3574" x="298.2207" y="1110.5371">8</text><text fill="#000000" font-family="Verdana" font-size="10" lengthAdjust="spacing" textLength="6.3574" x="314.2207" y="1110.5371">9</text><text fill="#000000" font-family="Verdana" font-size="10" lengthAdjust="spacing" textLength="12.7148" x="327.042" y="1110.5371">10</text><text fill="#000000" font-family="Verdana" font-size="10" lengthAdjust="spacing" textLength="12.7148" x="343.042" y="1110.5371">11</text><text fill="#000000" font-family="Verdana" font-size="10" lengthAdjust="spacing" textLength="12.7148" x="359.042" y="1110.5371">12</text><text fill="#000000" font-family="Verdana" font-size="10" lengthAdjust="spacing" textLength="12.7148" x="375.042" y="1110.5371">13</text><text fill="#000000" font-family="Verdana" font-size="10" lengthAdjust="spacing" textLength="12.7148" x="391.042" y="1110.5371">14</text><text fill="#000000" font-family="Verdana" font-size="10" lengthAdjust="spacing" textLength="12.7148" x="407.042" y="1110.5371">15</text><text fill="#000000" font-family="Verdana" font-size="10" lengthAdjust="spacing" textLength="12.7148" x="423.042" y="1110.5371">16</text><text fill="#000000" font-family="Verdana" font-size="12" font-weight="bold" lengthAdjust="spacing" textLength="85.6172" x="90.5908" y="1125.5479">August 2025</text><text fill="#000000" font-family="Verdana" font-size="12" font-weight="bold" lengthAdjust="spacing" textLength="111.5684" x="253.6152" y="1125.5479">September 2025</text><!--SRC=[xLXRRnev57wVN-7LFhHze8Mvq2QggWA19jcGq41JhQfLvCmOy6OOinuFAQtot_VOS_CCXhHff7rO4X45-_Xy_ixLzljOO2vcE182-IoA1KzyGLdK47H1GXeHwpSn9mk2bY6caIMe20dgQO9eaWcYEohcgCUfe3uEqGYBkHNVqcY9ELwW6-pVpZXBeg37GiRHxuE-_BMi9MT_4ryWjOyOsKtRQpJVDEosPJKQWCG9cX1GyBntSTblD9kjLysc_G8r6jQNIQFLR1qY8TRNTm1Bq9ons_WlX6FqPG9JVw4Gnr8d2l0wjh8n6WDHs08948rW7uE-rtMjL9jpYBgmKH852FOg22-KERaofrG6OzckiSWGdyK85kUp6r2zxa57GTbou_qLYGGA6LkYbS0t8SdGx7Bh1PeQgw8v9PgzcnWOzH1zu3H0u9bGkY8keEmDAwcn7L3sRc9WmpEy1kiPm1m3cBCJpDdA2wAZm_qv-DqNIH4bdSlUiOoICaA0-gUJmgq1YUaiAjnQi6_93LdPK0rHuWq6GA-2nycAahkCcuIzlknV5UhQ6S5oOejIe74I2JBZECqcnUBaVF8XZtNuE2KR5nmvPp74l4efIIaMoKr1o3K4lLktiAt7gRknjQxRznHVwKu0xB7bkh5W0J5ur3Luj8PdftXgA9-l8HvqZd94HsR6O722RcWKq6YMGpc6f73gIM7hAUWOaaAZvgYao6n9InSKUBO1hymC5J00EuKgaMrF8-aOmgX24h9aI1QChr6CfqIi2zJD577gAU9KMJgxMO83-vn3oPtZA812FIkWt7hmEtNNENgeEBiSDo9yolW2Hpwq2iwcj4GQzIy7rwFBYq4EvsNCj0a3lSoKcb0D-tMdvsKPz3718GKtfjdpiMF87H8BsSCYv7EY-xa_dboFpZhd6sOl9pQiEnWK7SFB2YjRaYo31I2LJSWpvAEtBOYosfS7aPBSCFXWa9NQLhDzY3uJSWjgDkCNPZThMxjU2Joz4hItKuMEBsYKi2HM_0hVzYxE9zVIL0LMC-EfpLGXsmMa9hATfIlhWLuXTVkwXgBWrej29OXTOr4e7EhAej0baJzVO7vRmcnsINTxBN2hjS0rr8BNGF1rJX1gmSKIpblqc-v0rt3cSEkbmAroSxOc2G1viXGCQ0I7inMaIw23UOP2xjMhWQktPi_OE3H30bWtcQ4f_KfAExe6EswWj7HAxgxJXYVTTSJyP04dgIeVsy2dTgwH53G_UJjQFzIO8GqXybX4ObLGXgtgML6bn1mlboGod6ICqbMiIn80fw6jdmjh6lNsLXSqAdEoLWeLQaPgolGkKXSqAbFHmw6CyYIgwT9zLfCpgeAgEU8io6uGK923TKrZvfjKer7Se5XU6FJx1pgcita87sdlj0seAq3ZNUQU_A2k1gHryxEq6d3I0QSOSDC1jnYGkxIiPwWJm36Co9kEW4OhRqCnWdQ8xg0wG-YbHRfa22IqUquwRHkc3nfDEvjspDC7sRHhd6wryyq91ac0P4qZ71Z8R-RjUCLirRv_aZ1aTvRr7ZoYRelmxuDNn-pdRIpM8Nbd8GXz9j1t-0UfRD0lX7VoPArc1j1hqh6R48IAiNCCrz0hmWCSOJLul8QcUqQZsrmwIHN04Aaha6EJEVLlmJLGiDNO4FCPKFFWopryWgoEP1lqyLA5M_gjhg6fHk_LtocmWiB_iE0S8lU71DDhTYudoO_fDu9i-u6LyXF9W_htZE1NkaWMdsa0kU0qcqhYxQlC7Thjl0C7nBip5ePqoPQwwKeHix_A-IConKaeDXor8J5a4OkNs2T18TjZ2QSGcANi6Psg41eBI2aoMmEhc47FqaH647pKfqk8ln4Ev5K13X_Q_9Zyaq0Z9rALj5UNSJ2-cTnuZWDs9rLCSHZhj3x5f4i47akJ8OXmKZ4RnFjAdZkbkRS5T1VpQZ1kRiGKynk6lDUT8M4mJu7hQwk2NvLCRY6lCjkZt0z9q9l3DpyFuHrRoVs4q2KEA9m53whgeE76kstnwzGLI4S8JcyIGHxQyLODOw1Bc80AyXWLWpBZVtBbSLa2VdQbh7QG4xTgiLRoTA4JACGZK8Pdf2AMHPxHBHlhELrXyIlhcNmZWRxnQ0t9JKZzHoq_PuyBYeiRzGhvtHYazvMoKrht2S9vB79J_tZELDVdSTnv4Ysz9z7IVn8j9q-YvVmNj43rx-6OfCecFrKizY_b-vVo_Klv_gLy_rA-VodVlvJlNyhtB-Nxb_BzI_d-fVn__LB-dxw4Fz6pzmXQe_WqF4ChmcDfvTPBgUQb-tmC_ZXDGEiRr3euR1uSsXxgZISAvONr_CFe3CKiuT3t0ngd3rYm_eLrYbSONIQHV3UN1Ov4fqT_v0Ee7wqePv7CM-lqQbWAjDr6bmeq9XnsWgw6LlR02Yjy9W-4S9oV31flh3CSpH8y0ztVvbOFRfQ2h-6iUlul]--></g></svg>