<svg xmlns="http://www.w3.org/2000/svg" xmlns:xlink="http://www.w3.org/1999/xlink" contentStyleType="text/css" data-diagram-type="SEQUENCE" height="1661px" preserveAspectRatio="none" style="width:1461px;height:1661px;background:#FEFEFE;" version="1.1" viewBox="0 0 1461 1661" width="1461px" zoomAndPan="magnify"><title>Implementation Flow with Task Ownership</title><defs/><g><rect fill="#FEFEFE" height="1661" style="stroke:none;stroke-width:1;" width="1461" x="0" y="0"/><text fill="#000000" font-family="Verdana" font-size="22" font-weight="bold" lengthAdjust="spacing" textLength="533.3174" x="462.7957" y="37.1182">Implementation Flow with Task Ownership</text><rect fill="#FFFFFF" height="107.1973" style="stroke:#000000;stroke-width:1;" width="1171.5869" x="15" y="1484.7358"/><g><title>ARCH-001</title><rect fill="#000000" fill-opacity="0.00000" height="1507.1665" width="8" x="88.1963" y="101.7666"/><line style="stroke:#000000;stroke-width:1;" x1="92" x2="92" y1="101.7666" y2="1608.9331"/></g><g><title>CORE-001</title><rect fill="#000000" fill-opacity="0.00000" height="1507.1665" width="8" x="275.189" y="101.7666"/><line style="stroke:#000000;stroke-width:1;" x1="278.4966" x2="278.4966" y1="101.7666" y2="1608.9331"/></g><g><title>CORE-002</title><rect fill="#000000" fill-opacity="0.00000" height="1507.1665" width="8" x="491.0952" y="101.7666"/><line style="stroke:#000000;stroke-width:1;" x1="494.1826" x2="494.1826" y1="101.7666" y2="1608.9331"/></g><g><title>INTG-001</title><rect fill="#000000" fill-opacity="0.00000" height="1507.1665" width="8" x="733.5093" y="101.7666"/><line style="stroke:#000000;stroke-width:1;" x1="736.627" x2="736.627" y1="101.7666" y2="1608.9331"/></g><g><title>INTG-002</title><rect fill="#000000" fill-opacity="0.00000" height="1507.1665" width="8" x="930.1187" y="101.7666"/><line style="stroke:#000000;stroke-width:1;" x1="934.0161" x2="934.0161" y1="101.7666" y2="1608.9331"/></g><g><title>QA-001</title><rect fill="#000000" fill-opacity="0.00000" height="1507.1665" width="8" x="1121.6055" y="101.7666"/><line style="stroke:#000000;stroke-width:1;" x1="1124.624" x2="1124.624" y1="101.7666" y2="1608.9331"/></g><g class="participant participant-head" data-participant="ARCH"><rect fill="#E5B4FF" height="48.0293" rx="2.5" ry="2.5" style="stroke:#000000;stroke-width:1;" width="114.3926" x="35" y="52.7373"/><text fill="#000000" font-family="Verdana" font-size="14" lengthAdjust="spacing" textLength="72.6592" x="55.8667" y="73.8125">ARCH-001</text><text fill="#000000" font-family="Verdana" font-size="14" lengthAdjust="spacing" textLength="100.3926" x="42" y="90.8271">Lead Architect</text></g><g class="participant participant-tail" data-participant="ARCH"><rect fill="#E5B4FF" height="48.0293" rx="2.5" ry="2.5" style="stroke:#000000;stroke-width:1;" width="114.3926" x="35" y="1607.9331"/><text fill="#000000" font-family="Verdana" font-size="14" lengthAdjust="spacing" textLength="72.6592" x="55.8667" y="1629.0083">ARCH-001</text><text fill="#000000" font-family="Verdana" font-size="14" lengthAdjust="spacing" textLength="100.3926" x="42" y="1646.0229">Lead Architect</text></g><g class="participant participant-head" data-participant="CORE1"><rect fill="#FFE5B4" height="48.0293" rx="2.5" ry="2.5" style="stroke:#000000;stroke-width:1;" width="125.3848" x="216.4966" y="52.7373"/><text fill="#000000" font-family="Verdana" font-size="14" lengthAdjust="spacing" textLength="72.4404" x="242.9688" y="73.8125">CORE-001</text><text fill="#000000" font-family="Verdana" font-size="14" lengthAdjust="spacing" textLength="111.3848" x="223.4966" y="90.8271">Sr. C Developer</text></g><g class="participant participant-tail" data-participant="CORE1"><rect fill="#FFE5B4" height="48.0293" rx="2.5" ry="2.5" style="stroke:#000000;stroke-width:1;" width="125.3848" x="216.4966" y="1607.9331"/><text fill="#000000" font-family="Verdana" font-size="14" lengthAdjust="spacing" textLength="72.4404" x="242.9688" y="1629.0083">CORE-001</text><text fill="#000000" font-family="Verdana" font-size="14" lengthAdjust="spacing" textLength="111.3848" x="223.4966" y="1646.0229">Sr. C Developer</text></g><g class="participant participant-head" data-participant="CORE2"><rect fill="#FFE5B4" height="48.0293" rx="2.5" ry="2.5" style="stroke:#000000;stroke-width:1;" width="99.8252" x="445.1826" y="52.7373"/><text fill="#000000" font-family="Verdana" font-size="14" lengthAdjust="spacing" textLength="72.4404" x="458.875" y="73.8125">CORE-002</text><text fill="#000000" font-family="Verdana" font-size="14" lengthAdjust="spacing" textLength="85.8252" x="452.1826" y="90.8271">C Developer</text></g><g class="participant participant-tail" data-participant="CORE2"><rect fill="#FFE5B4" height="48.0293" rx="2.5" ry="2.5" style="stroke:#000000;stroke-width:1;" width="99.8252" x="445.1826" y="1607.9331"/><text fill="#000000" font-family="Verdana" font-size="14" lengthAdjust="spacing" textLength="72.4404" x="458.875" y="1629.0083">CORE-002</text><text fill="#000000" font-family="Verdana" font-size="14" lengthAdjust="spacing" textLength="85.8252" x="452.1826" y="1646.0229">C Developer</text></g><g class="participant participant-head" data-participant="INTG1"><rect fill="#B4E5FF" height="48.0293" rx="2.5" ry="2.5" style="stroke:#000000;stroke-width:1;" width="137.7646" x="668.627" y="52.7373"/><text fill="#000000" font-family="Verdana" font-size="14" lengthAdjust="spacing" textLength="68.9063" x="703.0562" y="73.8125">INTG-001</text><text fill="#000000" font-family="Verdana" font-size="14" lengthAdjust="spacing" textLength="123.7646" x="675.627" y="90.8271">Sr. Zig Developer</text></g><g class="participant participant-tail" data-participant="INTG1"><rect fill="#B4E5FF" height="48.0293" rx="2.5" ry="2.5" style="stroke:#000000;stroke-width:1;" width="137.7646" x="668.627" y="1607.9331"/><text fill="#000000" font-family="Verdana" font-size="14" lengthAdjust="spacing" textLength="68.9063" x="703.0562" y="1629.0083">INTG-001</text><text fill="#000000" font-family="Verdana" font-size="14" lengthAdjust="spacing" textLength="123.7646" x="675.627" y="1646.0229">Sr. Zig Developer</text></g><g class="participant participant-head" data-participant="INTG2"><rect fill="#B4E5FF" height="48.0293" rx="2.5" ry="2.5" style="stroke:#000000;stroke-width:1;" width="112.2051" x="878.0161" y="52.7373"/><text fill="#000000" font-family="Verdana" font-size="14" lengthAdjust="spacing" textLength="68.9063" x="899.6655" y="73.8125">INTG-002</text><text fill="#000000" font-family="Verdana" font-size="14" lengthAdjust="spacing" textLength="98.2051" x="885.0161" y="90.8271">Zig Developer</text></g><g class="participant participant-tail" data-participant="INTG2"><rect fill="#B4E5FF" height="48.0293" rx="2.5" ry="2.5" style="stroke:#000000;stroke-width:1;" width="112.2051" x="878.0161" y="1607.9331"/><text fill="#000000" font-family="Verdana" font-size="14" lengthAdjust="spacing" textLength="68.9063" x="899.6655" y="1629.0083">INTG-002</text><text fill="#000000" font-family="Verdana" font-size="14" lengthAdjust="spacing" textLength="98.2051" x="885.0161" y="1646.0229">Zig Developer</text></g><g class="participant participant-head" data-participant="QA1"><rect fill="#B4FFB4" height="48.0293" rx="2.5" ry="2.5" style="stroke:#000000;stroke-width:1;" width="81.9629" x="1084.624" y="52.7373"/><text fill="#000000" font-family="Verdana" font-size="14" lengthAdjust="spacing" textLength="53.6484" x="1098.7813" y="73.8125">QA-001</text><text fill="#000000" font-family="Verdana" font-size="14" lengthAdjust="spacing" textLength="67.9629" x="1091.624" y="90.8271">Test Lead</text></g><g class="participant participant-tail" data-participant="QA1"><rect fill="#B4FFB4" height="48.0293" rx="2.5" ry="2.5" style="stroke:#000000;stroke-width:1;" width="81.9629" x="1084.624" y="1607.9331"/><text fill="#000000" font-family="Verdana" font-size="14" lengthAdjust="spacing" textLength="53.6484" x="1098.7813" y="1629.0083">QA-001</text><text fill="#000000" font-family="Verdana" font-size="14" lengthAdjust="spacing" textLength="67.9629" x="1091.624" y="1646.0229">Test Lead</text></g><rect fill="#FFFFFF" height="3" style="stroke:#FFFFFF;stroke-width:1;" width="1449.9087" x="5" y="132.6663"/><line style="stroke:#000000;stroke-width:0.5;" x1="5" x2="1454.9087" y1="132.6663" y2="132.6663"/><line style="stroke:#000000;stroke-width:0.5;" x1="5" x2="1454.9087" y1="135.6663" y2="135.6663"/><rect fill="#FFFFFF" height="23.7993" style="stroke:#000000;stroke-width:1;" width="164.687" x="647.6108" y="121.7666"/><text fill="#000000" font-family="Verdana" font-size="13" font-weight="bold" lengthAdjust="spacing" textLength="146.2437" x="653.6108" y="138.8364">Week 1: Foundation</text><g class="message" data-participant-1="ARCH" data-participant-2="ARCH"><line style="stroke:#000000;stroke-width:1;" x1="92.1963" x2="134.1963" y1="197.5642" y2="197.5642"/><line style="stroke:#000000;stroke-width:1;" x1="134.1963" x2="134.1963" y1="197.5642" y2="210.5642"/><line style="stroke:#000000;stroke-width:1;" x1="93.1963" x2="134.1963" y1="210.5642" y2="210.5642"/><polygon fill="#000000" points="103.1963,206.5642,93.1963,210.5642,103.1963,214.5642,99.1963,210.5642" style="stroke:#000000;stroke-width:1;"/><text fill="#000000" font-family="Verdana" font-size="13" lengthAdjust="spacing" textLength="172.9927" x="99.1963" y="177.0354">T-102: Design UI Backend</text><text fill="#000000" font-family="Verdana" font-size="13" lengthAdjust="spacing" textLength="48.2422" x="99.1963" y="192.8347">(1 day)</text></g><path d="M283.9927,160.5659 L283.9927,217.5659 L419.9927,217.5659 L419.9927,170.5659 L409.9927,160.5659 L283.9927,160.5659" fill="#FFFFFF" style="stroke:#000000;stroke-width:1;"/><path d="M409.9927,160.5659 L409.9927,170.5659 L419.9927,170.5659 L409.9927,160.5659" fill="#FFFFFF" style="stroke:#000000;stroke-width:1;"/><text fill="#000000" font-family="Verdana" font-size="13" lengthAdjust="spacing" textLength="115.0449" x="289.9927" y="178.6357">Define interfaces,</text><text fill="#000000" font-family="Verdana" font-size="13" lengthAdjust="spacing" textLength="83.8906" x="289.9927" y="194.4351">ABI stability,</text><text fill="#000000" font-family="Verdana" font-size="13" lengthAdjust="spacing" textLength="98.8076" x="289.9927" y="210.2344">frame batching</text><g class="message" data-participant-1="CORE1" data-participant-2="CORE1"><line style="stroke:#000000;stroke-width:1;" x1="279.189" x2="321.189" y1="260.5625" y2="260.5625"/><line style="stroke:#000000;stroke-width:1;" x1="321.189" x2="321.189" y1="260.5625" y2="273.5625"/><line style="stroke:#000000;stroke-width:1;" x1="280.189" x2="321.189" y1="273.5625" y2="273.5625"/><polygon fill="#000000" points="290.189,269.5625,280.189,273.5625,290.189,277.5625,286.189,273.5625" style="stroke:#000000;stroke-width:1;"/><text fill="#000000" font-family="Verdana" font-size="13" lengthAdjust="spacing" textLength="201.9063" x="286.189" y="240.0337">T-101: Extract tty_write hooks</text><text fill="#000000" font-family="Verdana" font-size="13" lengthAdjust="spacing" textLength="55.0151" x="286.189" y="255.833">(2 days)</text></g><path d="M106,231.4639 L106,272.4639 L273,272.4639 L273,241.4639 L263,231.4639 L106,231.4639" fill="#FFFFFF" style="stroke:#000000;stroke-width:1;"/><path d="M263,231.4639 L263,241.4639 L273,241.4639 L263,231.4639" fill="#FFFFFF" style="stroke:#000000;stroke-width:1;"/><text fill="#000000" font-family="Verdana" font-size="13" lengthAdjust="spacing" textLength="146.6753" x="112" y="249.5337">Analyze 22 tty_cmd_*</text><text fill="#000000" font-family="Verdana" font-size="13" lengthAdjust="spacing" textLength="135.0718" x="112" y="265.333">Create ui_backend.h</text><g class="message" data-participant-1="ARCH" data-participant-2="CORE1"><polygon fill="#000000" points="267.189,299.3618,277.189,303.3618,267.189,307.3618,271.189,303.3618" style="stroke:#000000;stroke-width:1;"/><line style="stroke:#000000;stroke-width:1;stroke-dasharray:2,2;" x1="92.1963" x2="273.189" y1="303.3618" y2="303.3618"/><text fill="#000000" font-family="Verdana" font-size="13" lengthAdjust="spacing" textLength="101.042" x="99.1963" y="298.6323">Approve design</text></g><g class="message" data-participant-1="ARCH" data-participant-2="CORE2"><polygon fill="#000000" points="483.0952,329.1611,493.0952,333.1611,483.0952,337.1611,487.0952,333.1611" style="stroke:#000000;stroke-width:1;"/><line style="stroke:#000000;stroke-width:1;stroke-dasharray:2,2;" x1="92.1963" x2="489.0952" y1="333.1611" y2="333.1611"/><text fill="#000000" font-family="Verdana" font-size="13" lengthAdjust="spacing" textLength="101.042" x="99.1963" y="328.4316">Approve design</text></g><g class="message" data-participant-1="CORE2" data-participant-2="CORE2"><line style="stroke:#000000;stroke-width:1;" x1="495.0952" x2="537.0952" y1="378.7598" y2="378.7598"/><line style="stroke:#000000;stroke-width:1;" x1="537.0952" x2="537.0952" y1="378.7598" y2="391.7598"/><line style="stroke:#000000;stroke-width:1;" x1="496.0952" x2="537.0952" y1="391.7598" y2="391.7598"/><polygon fill="#000000" points="506.0952,387.7598,496.0952,391.7598,506.0952,395.7598,502.0952,391.7598" style="stroke:#000000;stroke-width:1;"/><text fill="#000000" font-family="Verdana" font-size="13" lengthAdjust="spacing" textLength="228.4141" x="502.0952" y="358.231">T-103: Implement Backend Router</text><text fill="#000000" font-family="Verdana" font-size="13" lengthAdjust="spacing" textLength="55.0151" x="502.0952" y="374.0303">(3 days)</text></g><path d="M742.4141,349.6611 L742.4141,390.6611 L876.4141,390.6611 L876.4141,359.6611 L866.4141,349.6611 L742.4141,349.6611" fill="#FFFFFF" style="stroke:#000000;stroke-width:1;"/><path d="M866.4141,349.6611 L866.4141,359.6611 L876.4141,359.6611 L866.4141,349.6611" fill="#FFFFFF" style="stroke:#000000;stroke-width:1;"/><text fill="#000000" font-family="Verdana" font-size="13" lengthAdjust="spacing" textLength="113.4517" x="748.4141" y="367.731">Route commands</text><text fill="#000000" font-family="Verdana" font-size="13" lengthAdjust="spacing" textLength="79.168" x="748.4141" y="383.5303">to UI or TTY</text><g class="message" data-participant-1="INTG1" data-participant-2="INTG1"><line style="stroke:#000000;stroke-width:1;" x1="737.5093" x2="779.5093" y1="437.3584" y2="437.3584"/><line style="stroke:#000000;stroke-width:1;" x1="779.5093" x2="779.5093" y1="437.3584" y2="450.3584"/><line style="stroke:#000000;stroke-width:1;" x1="738.5093" x2="779.5093" y1="450.3584" y2="450.3584"/><polygon fill="#000000" points="748.5093,446.3584,738.5093,450.3584,748.5093,454.3584,744.5093,450.3584" style="stroke:#000000;stroke-width:1;"/><text fill="#000000" font-family="Verdana" font-size="13" lengthAdjust="spacing" textLength="182.6094" x="744.5093" y="416.8296">T-104: Create Ghostty Stub</text><text fill="#000000" font-family="Verdana" font-size="13" lengthAdjust="spacing" textLength="55.0151" x="744.5093" y="432.6289">(2 days)</text></g><path d="M587,408.2598 L587,449.2598 L731,449.2598 L731,418.2598 L721,408.2598 L587,408.2598" fill="#FFFFFF" style="stroke:#000000;stroke-width:1;"/><path d="M721,408.2598 L721,418.2598 L731,418.2598 L721,408.2598" fill="#FFFFFF" style="stroke:#000000;stroke-width:1;"/><text fill="#000000" font-family="Verdana" font-size="13" lengthAdjust="spacing" textLength="111.1348" x="593" y="426.3296">Convert to spans</text><text fill="#000000" font-family="Verdana" font-size="13" lengthAdjust="spacing" textLength="123.7983" x="593" y="442.1289">Frame aggregation</text><g class="message" data-participant-1="QA1" data-participant-2="QA1"><line style="stroke:#000000;stroke-width:1;" x1="1125.6055" x2="1167.6055" y1="495.957" y2="495.957"/><line style="stroke:#000000;stroke-width:1;" x1="1167.6055" x2="1167.6055" y1="495.957" y2="508.957"/><line style="stroke:#000000;stroke-width:1;" x1="1126.6055" x2="1167.6055" y1="508.957" y2="508.957"/><polygon fill="#000000" points="1136.6055,504.957,1126.6055,508.957,1136.6055,512.957,1132.6055,508.957" style="stroke:#000000;stroke-width:1;"/><text fill="#000000" font-family="Verdana" font-size="13" lengthAdjust="spacing" textLength="175.4492" x="1132.6055" y="475.4282">T-106: Week 1 Integration</text><text fill="#000000" font-family="Verdana" font-size="13" lengthAdjust="spacing" textLength="48.2422" x="1132.6055" y="491.2275">(1 day)</text></g><path d="M1319.4492,466.8584 L1319.4492,507.8584 L1443.4492,507.8584 L1443.4492,476.8584 L1433.4492,466.8584 L1319.4492,466.8584" fill="#FFFFFF" style="stroke:#000000;stroke-width:1;"/><path d="M1433.4492,466.8584 L1433.4492,476.8584 L1443.4492,476.8584 L1433.4492,466.8584" fill="#FFFFFF" style="stroke:#000000;stroke-width:1;"/><text fill="#000000" font-family="Verdana" font-size="13" lengthAdjust="spacing" textLength="103.854" x="1325.4492" y="484.9282">Validate routing</text><text fill="#000000" font-family="Verdana" font-size="13" lengthAdjust="spacing" textLength="101.0293" x="1325.4492" y="500.7275">Memory checks</text><rect fill="#FFFFFF" height="3" style="stroke:#FFFFFF;stroke-width:1;" width="1449.9087" x="5" y="537.8567"/><line style="stroke:#000000;stroke-width:0.5;" x1="5" x2="1454.9087" y1="537.8567" y2="537.8567"/><line style="stroke:#000000;stroke-width:0.5;" x1="5" x2="1454.9087" y1="540.8567" y2="540.8567"/><rect fill="#FFFFFF" height="23.7993" style="stroke:#000000;stroke-width:1;" width="181.7686" x="639.0701" y="526.957"/><text fill="#000000" font-family="Verdana" font-size="13" font-weight="bold" lengthAdjust="spacing" textLength="163.3252" x="645.0701" y="544.0269">Week 2: Event System</text><g class="message" data-participant-1="CORE1" data-participant-2="CORE1"><line style="stroke:#000000;stroke-width:1;" x1="279.189" x2="321.189" y1="598.355" y2="598.355"/><line style="stroke:#000000;stroke-width:1;" x1="321.189" x2="321.189" y1="598.355" y2="611.355"/><line style="stroke:#000000;stroke-width:1;" x1="280.189" x2="321.189" y1="611.355" y2="611.355"/><polygon fill="#000000" points="290.189,607.355,280.189,611.355,290.189,615.355,286.189,611.355" style="stroke:#000000;stroke-width:1;"/><text fill="#000000" font-family="Verdana" font-size="13" lengthAdjust="spacing" textLength="166.48" x="286.189" y="577.8262">T-201: Event Loop vtable</text><text fill="#000000" font-family="Verdana" font-size="13" lengthAdjust="spacing" textLength="55.0151" x="286.189" y="593.6255">(3 days)</text></g><path d="M142,569.2563 L142,610.2563 L273,610.2563 L273,579.2563 L263,569.2563 L142,569.2563" fill="#FFFFFF" style="stroke:#000000;stroke-width:1;"/><path d="M263,569.2563 L263,579.2563 L273,579.2563 L263,569.2563" fill="#FFFFFF" style="stroke:#000000;stroke-width:1;"/><text fill="#000000" font-family="Verdana" font-size="13" lengthAdjust="spacing" textLength="110.4683" x="148" y="587.3262">Abstract libevent</text><text fill="#000000" font-family="Verdana" font-size="13" lengthAdjust="spacing" textLength="89.7178" x="148" y="603.1255">Thread safety</text><g class="message" data-participant-1="CORE1" data-participant-2="CORE2"><polygon fill="#000000" points="483.0952,637.1543,493.0952,641.1543,483.0952,645.1543,487.0952,641.1543" style="stroke:#000000;stroke-width:1;"/><line style="stroke:#000000;stroke-width:1;" x1="279.189" x2="489.0952" y1="641.1543" y2="641.1543"/><text fill="#000000" font-family="Verdana" font-size="13" lengthAdjust="spacing" textLength="147.9258" x="286.189" y="636.4248">Hand off event system</text></g><g class="message" data-participant-1="CORE2" data-participant-2="CORE2"><line style="stroke:#000000;stroke-width:1;" x1="495.0952" x2="537.0952" y1="686.7529" y2="686.7529"/><line style="stroke:#000000;stroke-width:1;" x1="537.0952" x2="537.0952" y1="686.7529" y2="699.7529"/><line style="stroke:#000000;stroke-width:1;" x1="496.0952" x2="537.0952" y1="699.7529" y2="699.7529"/><polygon fill="#000000" points="506.0952,695.7529,496.0952,699.7529,506.0952,703.7529,502.0952,699.7529" style="stroke:#000000;stroke-width:1;"/><text fill="#000000" font-family="Verdana" font-size="13" lengthAdjust="spacing" textLength="142.2129" x="502.0952" y="666.2241">T-202: Grid Callbacks</text><text fill="#000000" font-family="Verdana" font-size="13" lengthAdjust="spacing" textLength="55.0151" x="502.0952" y="682.0234">(2 days)</text></g><path d="M656.2129,657.6543 L656.2129,698.6543 L787.2129,698.6543 L787.2129,667.6543 L777.2129,657.6543 L656.2129,657.6543" fill="#FFFFFF" style="stroke:#000000;stroke-width:1;"/><path d="M777.2129,657.6543 L777.2129,667.6543 L787.2129,667.6543 L777.2129,657.6543" fill="#FFFFFF" style="stroke:#000000;stroke-width:1;"/><text fill="#000000" font-family="Verdana" font-size="13" lengthAdjust="spacing" textLength="101.7085" x="662.2129" y="675.7241">Frame batching</text><text fill="#000000" font-family="Verdana" font-size="13" lengthAdjust="spacing" textLength="110.8364" x="662.2129" y="691.5234">16.67ms window</text><g class="message" data-participant-1="CORE1" data-participant-2="CORE1"><line style="stroke:#000000;stroke-width:1;" x1="279.189" x2="321.189" y1="745.3516" y2="745.3516"/><line style="stroke:#000000;stroke-width:1;" x1="321.189" x2="321.189" y1="745.3516" y2="758.3516"/><line style="stroke:#000000;stroke-width:1;" x1="280.189" x2="321.189" y1="758.3516" y2="758.3516"/><polygon fill="#000000" points="290.189,754.3516,280.189,758.3516,290.189,762.3516,286.189,758.3516" style="stroke:#000000;stroke-width:1;"/><text fill="#000000" font-family="Verdana" font-size="13" lengthAdjust="spacing" textLength="158.8945" x="286.189" y="724.8228">T-203: Layout Callbacks</text><text fill="#000000" font-family="Verdana" font-size="13" lengthAdjust="spacing" textLength="55.0151" x="286.189" y="740.6221">(2 days)</text></g><path d="M151,716.2529 L151,757.2529 L274,757.2529 L274,726.2529 L264,716.2529 L151,716.2529" fill="#FFFFFF" style="stroke:#000000;stroke-width:1;"/><path d="M264,716.2529 L264,726.2529 L274,726.2529 L264,716.2529" fill="#FFFFFF" style="stroke:#000000;stroke-width:1;"/><text fill="#000000" font-family="Verdana" font-size="13" lengthAdjust="spacing" textLength="95.272" x="157" y="734.3228">Pane structure</text><text fill="#000000" font-family="Verdana" font-size="13" lengthAdjust="spacing" textLength="102.0894" x="157" y="750.1221">Resize handling</text><g class="message" data-participant-1="INTG2" data-participant-2="INTG2"><line style="stroke:#000000;stroke-width:1;" x1="934.1187" x2="976.1187" y1="803.9502" y2="803.9502"/><line style="stroke:#000000;stroke-width:1;" x1="976.1187" x2="976.1187" y1="803.9502" y2="816.9502"/><line style="stroke:#000000;stroke-width:1;" x1="935.1187" x2="976.1187" y1="816.9502" y2="816.9502"/><polygon fill="#000000" points="945.1187,812.9502,935.1187,816.9502,945.1187,820.9502,941.1187,816.9502" style="stroke:#000000;stroke-width:1;"/><text fill="#000000" font-family="Verdana" font-size="13" lengthAdjust="spacing" textLength="121.2021" x="941.1187" y="783.4214">T-204: Copy Mode</text><text fill="#000000" font-family="Verdana" font-size="13" lengthAdjust="spacing" textLength="55.0151" x="941.1187" y="799.2207">(2 days)</text></g><path d="M1074.2021,774.8516 L1074.2021,815.8516 L1232.2021,815.8516 L1232.2021,784.8516 L1222.2021,774.8516 L1074.2021,774.8516" fill="#FFFFFF" style="stroke:#000000;stroke-width:1;"/><path d="M1222.2021,774.8516 L1222.2021,784.8516 L1232.2021,784.8516 L1222.2021,774.8516" fill="#FFFFFF" style="stroke:#000000;stroke-width:1;"/><text fill="#000000" font-family="Verdana" font-size="13" lengthAdjust="spacing" textLength="116.9302" x="1080.2021" y="792.9214">Selection tracking</text><text fill="#000000" font-family="Verdana" font-size="13" lengthAdjust="spacing" textLength="137.249" x="1080.2021" y="808.7207">Clipboard integration</text><rect fill="#FFFFFF" height="3" style="stroke:#FFFFFF;stroke-width:1;" width="1449.9087" x="5" y="845.8499"/><line style="stroke:#000000;stroke-width:0.5;" x1="5" x2="1454.9087" y1="845.8499" y2="845.8499"/><line style="stroke:#000000;stroke-width:0.5;" x1="5" x2="1454.9087" y1="848.8499" y2="848.8499"/><rect fill="#FFFFFF" height="23.7993" style="stroke:#000000;stroke-width:1;" width="166.1597" x="646.8745" y="834.9502"/><text fill="#000000" font-family="Verdana" font-size="13" font-weight="bold" lengthAdjust="spacing" textLength="147.7163" x="652.8745" y="852.02">Week 3: Integration</text><g class="message" data-participant-1="INTG1" data-participant-2="INTG1"><line style="stroke:#000000;stroke-width:1;" x1="737.5093" x2="779.5093" y1="906.3481" y2="906.3481"/><line style="stroke:#000000;stroke-width:1;" x1="779.5093" x2="779.5093" y1="906.3481" y2="919.3481"/><line style="stroke:#000000;stroke-width:1;" x1="738.5093" x2="779.5093" y1="919.3481" y2="919.3481"/><polygon fill="#000000" points="748.5093,915.3481,738.5093,919.3481,748.5093,923.3481,744.5093,919.3481" style="stroke:#000000;stroke-width:1;"/><text fill="#000000" font-family="Verdana" font-size="13" lengthAdjust="spacing" textLength="129.6382" x="744.5093" y="885.8193">T-301: FFI Bindings</text><text fill="#000000" font-family="Verdana" font-size="13" lengthAdjust="spacing" textLength="55.0151" x="744.5093" y="901.6187">(3 days)</text></g><path d="M605,877.2495 L605,918.2495 L732,918.2495 L732,887.2495 L722,877.2495 L605,877.2495" fill="#FFFFFF" style="stroke:#000000;stroke-width:1;"/><path d="M722,877.2495 L722,887.2495 L732,887.2495 L722,877.2495" fill="#FFFFFF" style="stroke:#000000;stroke-width:1;"/><text fill="#000000" font-family="Verdana" font-size="13" lengthAdjust="spacing" textLength="97.5317" x="611" y="895.3193">C to Zig bridge</text><text fill="#000000" font-family="Verdana" font-size="13" lengthAdjust="spacing" textLength="106.4502" x="611" y="911.1187">Type conversion</text><g class="message" data-participant-1="INTG1" data-participant-2="INTG2"><polygon fill="#000000" points="922.1187,945.1475,932.1187,949.1475,922.1187,953.1475,926.1187,949.1475" style="stroke:#000000;stroke-width:1;"/><line style="stroke:#000000;stroke-width:1;" x1="737.5093" x2="928.1187" y1="949.1475" y2="949.1475"/><text fill="#000000" font-family="Verdana" font-size="13" lengthAdjust="spacing" textLength="123.5508" x="744.5093" y="944.418">FFI interface ready</text></g><g class="message" data-participant-1="INTG2" data-participant-2="INTG2"><line style="stroke:#000000;stroke-width:1;" x1="934.1187" x2="976.1187" y1="994.7461" y2="994.7461"/><line style="stroke:#000000;stroke-width:1;" x1="976.1187" x2="976.1187" y1="994.7461" y2="1007.7461"/><line style="stroke:#000000;stroke-width:1;" x1="935.1187" x2="976.1187" y1="1007.7461" y2="1007.7461"/><polygon fill="#000000" points="945.1187,1003.7461,935.1187,1007.7461,945.1187,1011.7461,941.1187,1007.7461" style="stroke:#000000;stroke-width:1;"/><text fill="#000000" font-family="Verdana" font-size="13" lengthAdjust="spacing" textLength="177.4868" x="941.1187" y="974.2173">T-302: Ghostty Integration</text><text fill="#000000" font-family="Verdana" font-size="13" lengthAdjust="spacing" textLength="55.0151" x="941.1187" y="990.0166">(3 days)</text></g><path d="M1130.4868,965.6475 L1130.4868,1006.6475 L1285.4868,1006.6475 L1285.4868,975.6475 L1275.4868,965.6475 L1130.4868,965.6475" fill="#FFFFFF" style="stroke:#000000;stroke-width:1;"/><path d="M1275.4868,965.6475 L1275.4868,975.6475 L1285.4868,975.6475 L1275.4868,965.6475" fill="#FFFFFF" style="stroke:#000000;stroke-width:1;"/><text fill="#000000" font-family="Verdana" font-size="13" lengthAdjust="spacing" textLength="129.4414" x="1136.4868" y="983.7173">Connect to terminal</text><text fill="#000000" font-family="Verdana" font-size="13" lengthAdjust="spacing" textLength="134.2339" x="1136.4868" y="999.5166">Grid synchronization</text><g class="message" data-participant-1="INTG1" data-participant-2="INTG1"><line style="stroke:#000000;stroke-width:1;" x1="737.5093" x2="779.5093" y1="1053.3447" y2="1053.3447"/><line style="stroke:#000000;stroke-width:1;" x1="779.5093" x2="779.5093" y1="1053.3447" y2="1066.3447"/><line style="stroke:#000000;stroke-width:1;" x1="738.5093" x2="779.5093" y1="1066.3447" y2="1066.3447"/><polygon fill="#000000" points="748.5093,1062.3447,738.5093,1066.3447,748.5093,1070.3447,744.5093,1066.3447" style="stroke:#000000;stroke-width:1;"/><text fill="#000000" font-family="Verdana" font-size="13" lengthAdjust="spacing" textLength="148.0527" x="744.5093" y="1032.8159">T-303: Memory Safety</text><text fill="#000000" font-family="Verdana" font-size="13" lengthAdjust="spacing" textLength="55.0151" x="744.5093" y="1048.6152">(2 days)</text></g><path d="M565,1024.2461 L565,1065.2461 L732,1065.2461 L732,1034.2461 L722,1024.2461 L565,1024.2461" fill="#FFFFFF" style="stroke:#000000;stroke-width:1;"/><path d="M722,1024.2461 L722,1034.2461 L732,1034.2461 L722,1024.2461" fill="#FFFFFF" style="stroke:#000000;stroke-width:1;"/><text fill="#000000" font-family="Verdana" font-size="13" lengthAdjust="spacing" textLength="110.957" x="571" y="1042.3159">Boundary checks</text><text fill="#000000" font-family="Verdana" font-size="13" lengthAdjust="spacing" textLength="146.3071" x="571" y="1058.1152">Lifecycle management</text><g class="message" data-participant-1="INTG2" data-participant-2="INTG2"><line style="stroke:#000000;stroke-width:1;" x1="934.1187" x2="976.1187" y1="1111.9434" y2="1111.9434"/><line style="stroke:#000000;stroke-width:1;" x1="976.1187" x2="976.1187" y1="1111.9434" y2="1124.9434"/><line style="stroke:#000000;stroke-width:1;" x1="935.1187" x2="976.1187" y1="1124.9434" y2="1124.9434"/><polygon fill="#000000" points="945.1187,1120.9434,935.1187,1124.9434,945.1187,1128.9434,941.1187,1124.9434" style="stroke:#000000;stroke-width:1;"/><text fill="#000000" font-family="Verdana" font-size="13" lengthAdjust="spacing" textLength="143.8696" x="941.1187" y="1091.4146">T-304: Error Handling</text><text fill="#000000" font-family="Verdana" font-size="13" lengthAdjust="spacing" textLength="48.2422" x="941.1187" y="1107.2139">(1 day)</text></g><path d="M1096.8696,1082.8447 L1096.8696,1123.8447 L1232.8696,1123.8447 L1232.8696,1092.8447 L1222.8696,1082.8447 L1096.8696,1082.8447" fill="#FFFFFF" style="stroke:#000000;stroke-width:1;"/><path d="M1222.8696,1082.8447 L1222.8696,1092.8447 L1232.8696,1092.8447 L1222.8696,1082.8447" fill="#FFFFFF" style="stroke:#000000;stroke-width:1;"/><text fill="#000000" font-family="Verdana" font-size="13" lengthAdjust="spacing" textLength="115.4829" x="1102.8696" y="1100.9146">Error propagation</text><text fill="#000000" font-family="Verdana" font-size="13" lengthAdjust="spacing" textLength="94.5928" x="1102.8696" y="1116.7139">Recovery logic</text><rect fill="#FFFFFF" height="3" style="stroke:#FFFFFF;stroke-width:1;" width="1449.9087" x="5" y="1153.843"/><line style="stroke:#000000;stroke-width:0.5;" x1="5" x2="1454.9087" y1="1153.843" y2="1153.843"/><line style="stroke:#000000;stroke-width:0.5;" x1="5" x2="1454.9087" y1="1156.843" y2="1156.843"/><rect fill="#FFFFFF" height="23.7993" style="stroke:#000000;stroke-width:1;" width="156.2827" x="651.813" y="1142.9434"/><text fill="#000000" font-family="Verdana" font-size="13" font-weight="bold" lengthAdjust="spacing" textLength="137.8394" x="657.813" y="1160.0132">Week 4: Validation</text><g class="message" data-participant-1="QA1" data-participant-2="QA1"><line style="stroke:#000000;stroke-width:1;" x1="1125.6055" x2="1167.6055" y1="1214.3413" y2="1214.3413"/><line style="stroke:#000000;stroke-width:1;" x1="1167.6055" x2="1167.6055" y1="1214.3413" y2="1227.3413"/><line style="stroke:#000000;stroke-width:1;" x1="1126.6055" x2="1167.6055" y1="1227.3413" y2="1227.3413"/><polygon fill="#000000" points="1136.6055,1223.3413,1126.6055,1227.3413,1136.6055,1231.3413,1132.6055,1227.3413" style="stroke:#000000;stroke-width:1;"/><text fill="#000000" font-family="Verdana" font-size="13" lengthAdjust="spacing" textLength="161.002" x="1132.6055" y="1193.8125">T-401: Integration Tests</text><text fill="#000000" font-family="Verdana" font-size="13" lengthAdjust="spacing" textLength="55.0151" x="1132.6055" y="1209.6118">(3 days)</text></g><path d="M1009,1185.2427 L1009,1226.2427 L1120,1226.2427 L1120,1195.2427 L1110,1185.2427 L1009,1185.2427" fill="#FFFFFF" style="stroke:#000000;stroke-width:1;"/><path d="M1110,1185.2427 L1110,1195.2427 L1120,1195.2427 L1110,1185.2427" fill="#FFFFFF" style="stroke:#000000;stroke-width:1;"/><text fill="#000000" font-family="Verdana" font-size="13" lengthAdjust="spacing" textLength="88.6323" x="1015" y="1203.3125">vim, htop, git</text><text fill="#000000" font-family="Verdana" font-size="13" lengthAdjust="spacing" textLength="90.0732" x="1015" y="1219.1118">Stress testing</text><g class="message" data-participant-1="QA1" data-participant-2="CORE2"><polygon fill="#000000" points="506.0952,1253.1406,496.0952,1257.1406,506.0952,1261.1406,502.0952,1257.1406" style="stroke:#000000;stroke-width:1;"/><line style="stroke:#000000;stroke-width:1;" x1="500.0952" x2="1124.6055" y1="1257.1406" y2="1257.1406"/><text fill="#000000" font-family="Verdana" font-size="13" lengthAdjust="spacing" textLength="79.2124" x="512.0952" y="1252.4111">Report bugs</text></g><g class="message" data-participant-1="CORE2" data-participant-2="CORE2"><line style="stroke:#000000;stroke-width:1;" x1="495.0952" x2="537.0952" y1="1302.7393" y2="1302.7393"/><line style="stroke:#000000;stroke-width:1;" x1="537.0952" x2="537.0952" y1="1302.7393" y2="1315.7393"/><line style="stroke:#000000;stroke-width:1;" x1="496.0952" x2="537.0952" y1="1315.7393" y2="1315.7393"/><polygon fill="#000000" points="506.0952,1311.7393,496.0952,1315.7393,506.0952,1319.7393,502.0952,1315.7393" style="stroke:#000000;stroke-width:1;"/><text fill="#000000" font-family="Verdana" font-size="13" lengthAdjust="spacing" textLength="112.2393" x="502.0952" y="1282.2104">T-404: Bug Fixes</text><text fill="#000000" font-family="Verdana" font-size="13" lengthAdjust="spacing" textLength="55.0151" x="502.0952" y="1298.0098">(2 days)</text></g><path d="M626.2393,1273.6406 L626.2393,1314.6406 L758.2393,1314.6406 L758.2393,1283.6406 L748.2393,1273.6406 L626.2393,1273.6406" fill="#FFFFFF" style="stroke:#000000;stroke-width:1;"/><path d="M748.2393,1273.6406 L748.2393,1283.6406 L758.2393,1283.6406 L748.2393,1273.6406" fill="#FFFFFF" style="stroke:#000000;stroke-width:1;"/><text fill="#000000" font-family="Verdana" font-size="13" lengthAdjust="spacing" textLength="110.4556" x="632.2393" y="1291.7104">Fix critical issues</text><text fill="#000000" font-family="Verdana" font-size="13" lengthAdjust="spacing" textLength="111.2617" x="632.2393" y="1307.5098">Patch integration</text><g class="message" data-participant-1="QA1" data-participant-2="QA1"><line style="stroke:#000000;stroke-width:1;" x1="1125.6055" x2="1167.6055" y1="1361.3379" y2="1361.3379"/><line style="stroke:#000000;stroke-width:1;" x1="1167.6055" x2="1167.6055" y1="1361.3379" y2="1374.3379"/><line style="stroke:#000000;stroke-width:1;" x1="1126.6055" x2="1167.6055" y1="1374.3379" y2="1374.3379"/><polygon fill="#000000" points="1136.6055,1370.3379,1126.6055,1374.3379,1136.6055,1378.3379,1132.6055,1374.3379" style="stroke:#000000;stroke-width:1;"/><text fill="#000000" font-family="Verdana" font-size="13" lengthAdjust="spacing" textLength="148.9351" x="1132.6055" y="1340.8091">T-504: Final Validation</text><text fill="#000000" font-family="Verdana" font-size="13" lengthAdjust="spacing" textLength="55.0151" x="1132.6055" y="1356.6084">(2 days)</text></g><path d="M998,1332.2393 L998,1373.2393 L1119,1373.2393 L1119,1342.2393 L1109,1332.2393 L998,1332.2393" fill="#FFFFFF" style="stroke:#000000;stroke-width:1;"/><path d="M1109,1332.2393 L1109,1342.2393 L1119,1342.2393 L1109,1332.2393" fill="#FFFFFF" style="stroke:#000000;stroke-width:1;"/><text fill="#000000" font-family="Verdana" font-size="13" lengthAdjust="spacing" textLength="100.6675" x="1004" y="1350.3091">Release criteria</text><text fill="#000000" font-family="Verdana" font-size="13" lengthAdjust="spacing" textLength="51.7144" x="1004" y="1366.1084">Sign-off</text><g class="message" data-participant-1="ARCH" data-participant-2="ARCH"><line style="stroke:#000000;stroke-width:1;" x1="92.1963" x2="134.1963" y1="1408.5369" y2="1408.5369"/><line style="stroke:#000000;stroke-width:1;" x1="134.1963" x2="134.1963" y1="1408.5369" y2="1421.5369"/><line style="stroke:#000000;stroke-width:1;" x1="93.1963" x2="134.1963" y1="1421.5369" y2="1421.5369"/><polygon fill="#000000" points="103.1963,1417.5369,93.1963,1421.5369,103.1963,1425.5369,99.1963,1421.5369" style="stroke:#000000;stroke-width:1;"/><text fill="#000000" font-family="Verdana" font-size="13" lengthAdjust="spacing" textLength="92.8027" x="99.1963" y="1403.8074">Final Approval</text></g><path d="M203.8027,1387.3379 L203.8027,1428.3379 L350.8027,1428.3379 L350.8027,1397.3379 L340.8027,1387.3379 L203.8027,1387.3379" fill="#FFFFFF" style="stroke:#000000;stroke-width:1;"/><path d="M340.8027,1387.3379 L340.8027,1397.3379 L350.8027,1397.3379 L340.8027,1387.3379" fill="#FFFFFF" style="stroke:#000000;stroke-width:1;"/><text fill="#000000" font-family="Verdana" font-size="13" lengthAdjust="spacing" textLength="126.7881" x="209.8027" y="1405.4077">Architecture review</text><text fill="#000000" font-family="Verdana" font-size="13" lengthAdjust="spacing" textLength="107.6309" x="209.8027" y="1421.207">Release decision</text><rect fill="#FFFFFF" height="3" style="stroke:#FFFFFF;stroke-width:1;" width="1449.9087" x="5" y="1454.8362"/><line style="stroke:#000000;stroke-width:0.5;" x1="5" x2="1454.9087" y1="1454.8362" y2="1454.8362"/><line style="stroke:#000000;stroke-width:0.5;" x1="5" x2="1454.9087" y1="1457.8362" y2="1457.8362"/><rect fill="#FFFFFF" height="23.7993" style="stroke:#000000;stroke-width:1;" width="172.9771" x="643.4658" y="1443.9365"/><text fill="#000000" font-family="Verdana" font-size="13" font-weight="bold" lengthAdjust="spacing" textLength="154.5337" x="649.4658" y="1461.0063">Continuous Activities</text><path d="M15,1484.7358 L91.3828,1484.7358 L91.3828,1492.5352 L81.3828,1502.5352 L15,1502.5352 L15,1484.7358" fill="#FFFFFF" style="stroke:#000000;stroke-width:1;"/><rect fill="none" height="107.1973" style="stroke:#000000;stroke-width:1;" width="1171.5869" x="15" y="1484.7358"/><text fill="#000000" font-family="Verdana" font-size="13" font-weight="bold" lengthAdjust="spacing" textLength="31.3828" x="30" y="1498.8057">loop</text><text fill="#000000" font-family="Verdana" font-size="11" font-weight="bold" lengthAdjust="spacing" textLength="73.9492" x="106.3828" y="1497.7949">[Every Day]</text><g class="message" data-participant-1="CORE1" data-participant-2="QA1"><polygon fill="#000000" points="1113.6055,1520.3345,1123.6055,1524.3345,1113.6055,1528.3345,1117.6055,1524.3345" style="stroke:#000000;stroke-width:1;"/><line style="stroke:#000000;stroke-width:1;stroke-dasharray:2,2;" x1="279.189" x2="1119.6055" y1="1524.3345" y2="1524.3345"/><text fill="#000000" font-family="Verdana" font-size="13" lengthAdjust="spacing" textLength="83.8081" x="286.189" y="1519.605">Code Review</text></g><g class="message" data-participant-1="INTG1" data-participant-2="QA1"><polygon fill="#000000" points="1113.6055,1550.1338,1123.6055,1554.1338,1113.6055,1558.1338,1117.6055,1554.1338" style="stroke:#000000;stroke-width:1;"/><line style="stroke:#000000;stroke-width:1;stroke-dasharray:2,2;" x1="737.5093" x2="1119.6055" y1="1554.1338" y2="1554.1338"/><text fill="#000000" font-family="Verdana" font-size="13" lengthAdjust="spacing" textLength="129.27" x="744.5093" y="1549.4043">Integration Support</text></g><g class="message" data-participant-1="QA1" data-participant-2="ARCH"><polygon fill="#000000" points="103.1963,1579.9331,93.1963,1583.9331,103.1963,1587.9331,99.1963,1583.9331" style="stroke:#000000;stroke-width:1;"/><line style="stroke:#000000;stroke-width:1;stroke-dasharray:2,2;" x1="97.1963" x2="1124.6055" y1="1583.9331" y2="1583.9331"/><text fill="#000000" font-family="Verdana" font-size="13" lengthAdjust="spacing" textLength="89.9526" x="109.1963" y="1579.2036">Status Report</text></g><!--SRC=[TLPRR-8u57xFhpWxyxAxQgkIqgw4r9M08PrAdHkmkzeLKcKIarWuTcGxqColtyzEAALDsmSkzhbzbnD-SGKlELMI2HKvuIId-xAI-4uvveHMb4Yzfxrm1IsPtTAtlUB65gAAx5QeYXbMqfgbszpeMcLJBRMXZydC_qSHZfr8HSMKem_Z-VJp-UNbOAKUECjeRD92E9ww3yGi-KFwEBkU39FaD6pwRJvhmnRcWgRqYU-ur1Kt8SwV3b0myQ6zWV5AzGN5_K7tNvTtnsh_YVnLg3z7lSbmTlswqIuKzVh3ulwm7-Estf9RHnwP4F1Z7Aea2HgCRc_f7ywtD1XHub5kYRczZQ80s_cV0RuHBSy7b_48fQt85VrrJnCGmrMsKhyEA6FDRv7IZfCHUU7yjOrGd8Hot6nOoktPIeqdzsGTMmifN8FF6z3BmQy3LogFeXPk50nlsefucJqvmr97pZMFUmDMgT1wQr4tzdLjLrZo3UgE5PFDJqvn7EwdPVRuEpWodE5ABHxNRTCNnM6yOxbnLHczuvI52K-FupV7KSlpyTntUpKw2lo03yrr3H3GxjNBTZkSmY6bkYoPoZ2JqnvQo7ov_3UAMa6WHdZJrXYEg1ldhj0MGzB2rUj-DAPQxRW1T9ei187yIS2SvRdXUM0wYhmQK08lRO6RKIS8kWTxkGdN-bd-cqcH-LRWJmSEL-eBBxLfA2rukhL7SG6VsSw3icYiusMGrrkwuq1tkFUWTKKxY4NoryXrHAzjAmifrjo7GEI5yTwtRCDTyoe_6lWCX4blDXIkamsTzF4OUvtV6P7Hb4df5VD6RDtyoOc2LsfmSt7pHscnqLIcz_qZGYCFh05UxsTl9_pEO20CMQUkDa1X3k51sGN6aC4lhUyxTNITUtNegg4lEkFlDBtW4elHczm3k0sDJwMerfgPB3Ysu_n8dzVryVl0tbjfNddsaWIB0TCZg-qdRkhLw9VO6WZdQ7BPLDu1NgasL3r97RSvdnS9UOwRlk6l0csT9qwbs-SyU4FnD7W3gKk1nR5IWNNRgBGmMecV7GnzimAIJkkBeBT-3YTXepuR0aydiU5fa-992CEpF6oA_c70vCmOR8BF7U7z5cplO3LLBE_6dVCKYmf5fSv5UcHn-6pO0ucdrXzw0b_ox9yQxx2u4-KP5KvNPvGBU6_X3BSMI5eNjDbbxZmrvvN66bhNkUqptD0FEwbpIiGJVzThuebIh7-HCad2sjhV_EwjTwhPqvckVUh4a_jYzdwkvl05ipmKuKOm38L5VuwDyVfHsEPh7mXCddJv_CC3beLKTuBlFI5jveodmXwC1Vq1gbhN-7q2E-um6RU15Ubttomm-8ar4U6lMoI7kQPmD_hrsSDn9z33yKiE5tNbiG_N0ZJFKopm6mp5MsuYFAcY_m40]--></g></svg>