<svg contentStyleType="text/css" height="3666" preserveAspectRatio="none" viewBox="0 0 2691 3666" width="2691" xmlns="http://www.w3.org/2000/svg" zoomAndPan="magnify"><text font-family="sans-serif" font-size="14" font-weight="bold" lengthAdjust="spacing" textLength="310.085" x="1189.2573" y="33.5352">Task Distribution by Role - Swimlane View</text><text font-family="sans-serif" font-size="12" font-weight="bold" lengthAdjust="spacing" textLength="210.4453" x="1239.0771" y="48.0898">Each engineer's complete task list</text><path d="m15 63.918h2658.5996v42.3984h-2658.5996z" fill="none"/><path d="m15 63.918h258.1406v3590.1719h-258.1406z" fill="#e3f2fd" stroke="#e3f2fd"/><ellipse cx="145.0703" cy="121.3164" fill="#222" rx="10" ry="10" stroke="#222"/><rect fill="#fff8e1" height="34.1328" rx="12.5" stroke="#fbc02d" stroke-width=".5" width="224.2227" x="32.959" y="151.3164"/><text font-family="sans-serif" font-size="12" lengthAdjust="spacing" textLength="204.2227" x="42.959" y="172.918">T-102: UI backend design (W1, 1d)</text><rect fill="#fff8e1" height="34.1328" rx="12.5" stroke="#fbc02d" stroke-width=".5" width="248.1406" x="21" y="205.4492"/><text font-family="sans-serif" font-size="12" lengthAdjust="spacing" textLength="228.1406" x="31" y="227.0508">Architecture reviews (W1-W5, ongoing)</text><rect fill="#fff8e1" height="34.1328" rx="12.5" stroke="#fbc02d" stroke-width=".5" width="206.2578" x="41.9414" y="259.582"/><text font-family="sans-serif" font-size="12" lengthAdjust="spacing" textLength="186.2578" x="51.9414" y="281.1836">T-502: Documentation (W5, 2d)</text><rect fill="#fff8e1" height="34.1328" rx="12.5" stroke="#fbc02d" stroke-width=".5" width="173.5684" x="58.2861" y="313.7148"/><text font-family="sans-serif" font-size="12" lengthAdjust="spacing" textLength="153.5684" x="68.2861" y="335.3164">Final design approval (W5)</text><ellipse cx="145.0703" cy="378.8477" fill="none" rx="11" ry="11" stroke="#222"/><ellipse cx="145.0703" cy="378.8477" fill="#222" rx="6" ry="6" stroke="#222"/><path d="m15 63.918v3590.1718" stroke="#000" stroke-width="1.5"/><path d="m273.1406 63.918h260.5605v3590.1719h-260.5605z" fill="#e8f5e9" stroke="#e8f5e9"/><ellipse cx="404.4209" cy="409.8477" fill="#222" rx="10" ry="10" stroke="#222"/><rect fill="#fff8e1" height="34.1328" rx="12.5" stroke="#fbc02d" stroke-width=".5" width="250.5605" x="279.1406" y="439.8477"/><text font-family="sans-serif" font-size="12" lengthAdjust="spacing" textLength="230.5605" x="289.1406" y="461.4492">T-101: Extract tty_write hooks (W1, 2d)</text><rect fill="#fff8e1" height="34.1328" rx="12.5" stroke="#fbc02d" stroke-width=".5" width="216.8047" x="296.0186" y="493.9805"/><text font-family="sans-serif" font-size="12" lengthAdjust="spacing" textLength="196.8047" x="306.0186" y="515.582">T-201: Event loop vtable (W2, 3d)</text><rect fill="#fff8e1" height="34.1328" rx="12.5" stroke="#fbc02d" stroke-width=".5" width="212.6445" x="298.0986" y="548.1133"/><text font-family="sans-serif" font-size="12" lengthAdjust="spacing" textLength="192.6445" x="308.0986" y="569.7148">T-203: Layout callbacks (W2, 2d)</text><rect fill="#fff8e1" height="34.1328" rx="12.5" stroke="#fbc02d" stroke-width=".5" width="225.4941" x="291.6738" y="602.2461"/><text font-family="sans-serif" font-size="12" lengthAdjust="spacing" textLength="205.4941" x="301.6738" y="623.8477">Support INTG-001 with C side (W3)</text><rect fill="#fff8e1" height="34.1328" rx="12.5" stroke="#fbc02d" stroke-width=".5" width="156.7051" x="326.0684" y="656.3789"/><text font-family="sans-serif" font-size="12" lengthAdjust="spacing" textLength="136.7051" x="336.0684" y="677.9805">Code reviews (ongoing)</text><ellipse cx="404.4209" cy="721.5117" fill="none" rx="11" ry="11" stroke="#222"/><ellipse cx="404.4209" cy="721.5117" fill="#222" rx="6" ry="6" stroke="#222"/><path d="m273.1406 63.918v3590.1718" stroke="#000" stroke-width="1.5"/><path d="m533.7012 63.918h215.0625v3590.1719h-215.0625z" fill="#fff8e1" stroke="#fff8e1"/><ellipse cx="642.2324" cy="752.5117" fill="#222" rx="10" ry="10" stroke="#222"/><rect fill="#fff8e1" height="34.1328" rx="12.5" stroke="#fbc02d" stroke-width=".5" width="205.0625" x="539.7012" y="782.5117"/><text font-family="sans-serif" font-size="12" lengthAdjust="spacing" textLength="185.0625" x="549.7012" y="804.1133">T-103: Backend router (W1, 3d)</text><rect fill="#fff8e1" height="34.1328" rx="12.5" stroke="#fbc02d" stroke-width=".5" width="198.6465" x="542.9092" y="836.6445"/><text font-family="sans-serif" font-size="12" lengthAdjust="spacing" textLength="178.6465" x="552.9092" y="858.2461">T-202: Grid callbacks (W2, 2d)</text><rect fill="#fff8e1" height="34.1328" rx="12.5" stroke="#fbc02d" stroke-width=".5" width="162.9219" x="560.7715" y="890.7773"/><text font-family="sans-serif" font-size="12" lengthAdjust="spacing" textLength="142.9219" x="570.7715" y="912.3789">Support integration (W3)</text><rect fill="#fff8e1" height="34.1328" rx="12.5" stroke="#fbc02d" stroke-width=".5" width="170.75" x="556.8574" y="944.9102"/><text font-family="sans-serif" font-size="12" lengthAdjust="spacing" textLength="150.75" x="566.8574" y="966.5117">T-404: Bug fixes (W4, 2d)</text><rect fill="#fff8e1" height="34.1328" rx="12.5" stroke="#fbc02d" stroke-width=".5" width="122.8613" x="580.8018" y="999.043"/><text font-family="sans-serif" font-size="12" lengthAdjust="spacing" textLength="102.8613" x="590.8018" y="1020.6445">Maintenance (W5)</text><ellipse cx="642.2324" cy="1064.1758" fill="none" rx="11" ry="11" stroke="#222"/><ellipse cx="642.2324" cy="1064.1758" fill="#222" rx="6" ry="6" stroke="#222"/><path d="m533.7012 63.918v3590.1718" stroke="#000" stroke-width="1.5"/><path d="m748.7637 63.918h254.1563v3590.1719h-254.1563z" fill="#ffe0b2" stroke="#ffe0b2"/><ellipse cx="876.8418" cy="1095.1758" fill="#222" rx="10" ry="10" stroke="#222"/><rect fill="#fff8e1" height="34.1328" rx="12.5" stroke="#fbc02d" stroke-width=".5" width="244.1563" x="754.7637" y="1125.1758"/><text font-family="sans-serif" font-size="12" lengthAdjust="spacing" textLength="224.1563" x="764.7637" y="1146.7773">T-104: Ghostty backend stub (W1, 2d)</text><rect fill="#fff8e1" height="34.1328" rx="12.5" stroke="#fbc02d" stroke-width=".5" width="184.0156" x="784.834" y="1179.3086"/><text font-family="sans-serif" font-size="12" lengthAdjust="spacing" textLength="164.0156" x="794.834" y="1200.9102">FFI design consultation (W2)</text><rect fill="#fff8e1" height="34.1328" rx="12.5" stroke="#fbc02d" stroke-width=".5" width="187.7363" x="782.9736" y="1233.4414"/><text font-family="sans-serif" font-size="12" lengthAdjust="spacing" textLength="167.7363" x="792.9736" y="1255.043">T-301: FFI bindings (W3, 3d)</text><rect fill="#fff8e1" height="34.1328" rx="12.5" stroke="#fbc02d" stroke-width=".5" width="234.0078" x="759.8379" y="1287.5742"/><text font-family="sans-serif" font-size="12" lengthAdjust="spacing" textLength="214.0078" x="769.8379" y="1309.1758">T-303: Memory safety layer (W3, 2d)</text><rect fill="#fff8e1" height="34.1328" rx="12.5" stroke="#fbc02d" stroke-width=".5" width="162.5645" x="795.5596" y="1341.707"/><text font-family="sans-serif" font-size="12" lengthAdjust="spacing" textLength="142.5645" x="805.5596" y="1363.3086">Integration support (W4)</text><ellipse cx="876.8418" cy="1406.8398" fill="none" rx="11" ry="11" stroke="#222"/><ellipse cx="876.8418" cy="1406.8398" fill="#222" rx="6" ry="6" stroke="#222"/><path d="m748.7637 63.918v3590.1718" stroke="#000" stroke-width="1.5"/><path d="m1002.9199 63.918h253.2949v3590.1719h-253.2949z" fill="#ffe0b2" stroke="#ffe0b2"/><ellipse cx="1130.5674" cy="1437.8398" fill="#222" rx="10" ry="10" stroke="#222"/><rect fill="#fff8e1" height="34.1328" rx="12.5" stroke="#fbc02d" stroke-width=".5" width="243.2949" x="1008.9199" y="1467.8398"/><text font-family="sans-serif" font-size="12" lengthAdjust="spacing" textLength="223.2949" x="1018.9199" y="1489.4414">T-204: Copy-mode callbacks (W2, 2d)</text><rect fill="#fff8e1" height="34.1328" rx="12.5" stroke="#fbc02d" stroke-width=".5" width="229.6133" x="1015.7607" y="1521.9727"/><text font-family="sans-serif" font-size="12" lengthAdjust="spacing" textLength="209.6133" x="1025.7607" y="1543.5742">T-302: Ghostty integration (W3, 3d)</text><rect fill="#fff8e1" height="34.1328" rx="12.5" stroke="#fbc02d" stroke-width=".5" width="200.4219" x="1030.3564" y="1576.1055"/><text font-family="sans-serif" font-size="12" lengthAdjust="spacing" textLength="180.4219" x="1040.3564" y="1597.707">T-304: Error handling (W3, 1d)</text><rect fill="#fff8e1" height="34.1328" rx="12.5" stroke="#fbc02d" stroke-width=".5" width="179.7266" x="1040.7041" y="1630.2383"/><text font-family="sans-serif" font-size="12" lengthAdjust="spacing" textLength="159.7266" x="1050.7041" y="1651.8398">Integration debugging (W4)</text><rect fill="#fff8e1" height="34.1328" rx="12.5" stroke="#fbc02d" stroke-width=".5" width="140.2168" x="1060.459" y="1684.3711"/><text font-family="sans-serif" font-size="12" lengthAdjust="spacing" textLength="120.2168" x="1070.459" y="1705.9727">Support release (W5)</text><ellipse cx="1130.5674" cy="1749.5039" fill="none" rx="11" ry="11" stroke="#222"/><ellipse cx="1130.5674" cy="1749.5039" fill="#222" rx="6" ry="6" stroke="#222"/><path d="m1002.9199 63.918v3590.1718" stroke="#000" stroke-width="1.5"/><path d="m1256.2148 63.918h225.1758v3590.1719h-225.1758z" fill="#ffebee" stroke="#ffebee"/><ellipse cx="1369.8027" cy="1780.5039" fill="#222" rx="10" ry="10" stroke="#222"/><rect fill="#fff8e1" height="34.1328" rx="12.5" stroke="#fbc02d" stroke-width=".5" width="199.1328" x="1270.2363" y="1810.5039"/><text font-family="sans-serif" font-size="12" lengthAdjust="spacing" textLength="179.1328" x="1280.2363" y="1832.1055">Performance baseline (W1-W2)</text><rect fill="#fff8e1" height="34.1328" rx="12.5" stroke="#fbc02d" stroke-width=".5" width="143.3691" x="1298.1182" y="1864.6367"/><text font-family="sans-serif" font-size="12" lengthAdjust="spacing" textLength="123.3691" x="1308.1182" y="1886.2383">Profile callbacks (W3)</text><rect fill="#fff8e1" height="34.1328" rx="12.5" stroke="#fbc02d" stroke-width=".5" width="192.8633" x="1273.3711" y="1918.7695"/><text font-family="sans-serif" font-size="12" lengthAdjust="spacing" textLength="172.8633" x="1283.3711" y="1940.3711">T-403: Optimization (W4, 3d)</text><rect fill="#fff8e1" height="34.1328" rx="12.5" stroke="#fbc02d" stroke-width=".5" width="215.1758" x="1262.2148" y="1972.9023"/><text font-family="sans-serif" font-size="12" lengthAdjust="spacing" textLength="195.1758" x="1272.2148" y="1994.5039">Final performance validation (W5)</text><ellipse cx="1369.8027" cy="2038.0352" fill="none" rx="11" ry="11" stroke="#222"/><ellipse cx="1369.8027" cy="2038.0352" fill="#222" rx="6" ry="6" stroke="#222"/><path d="m1256.2148 63.918v3590.1718" stroke="#000" stroke-width="1.5"/><path d="m1481.3906 63.918h236.7949v3590.1719h-236.7949z" fill="#f3e5f5" stroke="#f3e5f5"/><ellipse cx="1600.7881" cy="2069.0352" fill="#222" rx="10" ry="10" stroke="#222"/><rect fill="#fff8e1" height="34.1328" rx="12.5" stroke="#fbc02d" stroke-width=".5" width="154.168" x="1523.7041" y="2099.0352"/><text font-family="sans-serif" font-size="12" lengthAdjust="spacing" textLength="134.168" x="1533.7041" y="2120.6367">Test plan creation (W1)</text><rect fill="#fff8e1" height="34.1328" rx="12.5" stroke="#fbc02d" stroke-width=".5" width="226.7949" x="1487.3906" y="2153.168"/><text font-family="sans-serif" font-size="12" lengthAdjust="spacing" textLength="206.7949" x="1497.3906" y="2174.7695">T-106: Week 1 integration (W1, 1d)</text><rect fill="#fff8e1" height="34.1328" rx="12.5" stroke="#fbc02d" stroke-width=".5" width="176.5977" x="1512.4893" y="2207.3008"/><text font-family="sans-serif" font-size="12" lengthAdjust="spacing" textLength="156.5977" x="1522.4893" y="2228.9023">Test framework setup (W2)</text><rect fill="#fff8e1" height="34.1328" rx="12.5" stroke="#fbc02d" stroke-width=".5" width="212.6445" x="1494.4658" y="2261.4336"/><text font-family="sans-serif" font-size="12" lengthAdjust="spacing" textLength="192.6445" x="1504.4658" y="2283.0352">T-401: Integration tests (W4, 3d)</text><rect fill="#fff8e1" height="34.1328" rx="12.5" stroke="#fbc02d" stroke-width=".5" width="205.0508" x="1498.2627" y="2315.5664"/><text font-family="sans-serif" font-size="12" lengthAdjust="spacing" textLength="185.0508" x="1508.2627" y="2337.168">T-504: Final validation (W5, 2d)</text><ellipse cx="1600.7881" cy="2380.6992" fill="none" rx="11" ry="11" stroke="#222"/><ellipse cx="1600.7881" cy="2380.6992" fill="#222" rx="6" ry="6" stroke="#222"/><path d="m1481.3906 63.918v3590.1718" stroke="#000" stroke-width="1.5"/><path d="m1718.1855 63.918h243.0938v3590.1719h-243.0938z" fill="#f3e5f5" stroke="#f3e5f5"/><ellipse cx="1840.7324" cy="2411.6992" fill="#222" rx="10" ry="10" stroke="#222"/><rect fill="#fff8e1" height="34.1328" rx="12.5" stroke="#fbc02d" stroke-width=".5" width="233.0938" x="1724.1855" y="2441.6992"/><text font-family="sans-serif" font-size="12" lengthAdjust="spacing" textLength="213.0938" x="1734.1855" y="2463.3008">T-105: Grid operation tests (W1, 2d)</text><rect fill="#fff8e1" height="34.1328" rx="12.5" stroke="#fbc02d" stroke-width=".5" width="142.6367" x="1769.4141" y="2495.832"/><text font-family="sans-serif" font-size="12" lengthAdjust="spacing" textLength="122.6367" x="1779.4141" y="2517.4336">Callback testing (W2)</text><rect fill="#fff8e1" height="34.1328" rx="12.5" stroke="#fbc02d" stroke-width=".5" width="109.7539" x="1785.8555" y="2549.9648"/><text font-family="sans-serif" font-size="12" lengthAdjust="spacing" textLength="89.7539" x="1795.8555" y="2571.5664">FFI testing (W3)</text><rect fill="#fff8e1" height="34.1328" rx="12.5" stroke="#fbc02d" stroke-width=".5" width="157.3027" x="1762.0811" y="2604.0977"/><text font-family="sans-serif" font-size="12" lengthAdjust="spacing" textLength="137.3027" x="1772.0811" y="2625.6992">Regression testing (W4)</text><rect fill="#fff8e1" height="34.1328" rx="12.5" stroke="#fbc02d" stroke-width=".5" width="137.2871" x="1772.0889" y="2658.2305"/><text font-family="sans-serif" font-size="12" lengthAdjust="spacing" textLength="117.2871" x="1782.0889" y="2679.832">Release testing (W5)</text><ellipse cx="1840.7324" cy="2723.3633" fill="none" rx="11" ry="11" stroke="#222"/><ellipse cx="1840.7324" cy="2723.3633" fill="#222" rx="6" ry="6" stroke="#222"/><path d="m1718.1855 63.918v3590.1718" stroke="#000" stroke-width="1.5"/><path d="m1961.2793 63.918h275.0566v3590.1719h-275.0566z" fill="#f3e5f5" stroke="#f3e5f5"/><ellipse cx="2099.8076" cy="2754.3633" fill="#222" rx="10" ry="10" stroke="#222"/><rect fill="#fff8e1" height="34.1328" rx="12.5" stroke="#fbc02d" stroke-width=".5" width="174.3359" x="2012.6396" y="2784.3633"/><text font-family="sans-serif" font-size="12" lengthAdjust="spacing" textLength="154.3359" x="2022.6396" y="2805.9648">Performance baseline (W1)</text><rect fill="#fff8e1" height="34.1328" rx="12.5" stroke="#fbc02d" stroke-width=".5" width="149.9258" x="2024.8447" y="2838.4961"/><text font-family="sans-serif" font-size="12" lengthAdjust="spacing" textLength="129.9258" x="2034.8447" y="2860.0977">Benchmark setup (W2)</text><rect fill="#fff8e1" height="34.1328" rx="12.5" stroke="#fbc02d" stroke-width=".5" width="98.1172" x="2050.749" y="2892.6289"/><text font-family="sans-serif" font-size="12" lengthAdjust="spacing" textLength="78.1172" x="2060.749" y="2914.2305">Profiling (W3)</text><rect fill="#fff8e1" height="34.1328" rx="12.5" stroke="#fbc02d" stroke-width=".5" width="265.0566" x="1967.2793" y="2946.7617"/><text font-family="sans-serif" font-size="12" lengthAdjust="spacing" textLength="245.0566" x="1977.2793" y="2968.3633">T-402: Performance benchmarks (W4, 2d)</text><rect fill="#fff8e1" height="34.1328" rx="12.5" stroke="#fbc02d" stroke-width=".5" width="164.7852" x="2017.415" y="3000.8945"/><text font-family="sans-serif" font-size="12" lengthAdjust="spacing" textLength="144.7852" x="2027.415" y="3022.4961">Final perf validation (W5)</text><ellipse cx="2099.8076" cy="3066.0273" fill="none" rx="11" ry="11" stroke="#222"/><ellipse cx="2099.8076" cy="3066.0273" fill="#222" rx="6" ry="6" stroke="#222"/><path d="m1961.2793 63.918v3590.1718" stroke="#000" stroke-width="1.5"/><path d="m2236.3359 63.918h212.5488v3590.1719h-212.5488z" fill="#e1f5fe" stroke="#e1f5fe"/><ellipse cx="2343.6104" cy="3097.0273" fill="#222" rx="10" ry="10" stroke="#222"/><rect fill="#fff8e1" height="34.1328" rx="12.5" stroke="#fbc02d" stroke-width=".5" width="159.0605" x="2264.0801" y="3127.0273"/><text font-family="sans-serif" font-size="12" lengthAdjust="spacing" textLength="139.0605" x="2274.0801" y="3148.6289">Build system setup (W1)</text><rect fill="#fff8e1" height="34.1328" rx="12.5" stroke="#fbc02d" stroke-width=".5" width="136.1387" x="2275.541" y="3181.1602"/><text font-family="sans-serif" font-size="12" lengthAdjust="spacing" textLength="116.1387" x="2285.541" y="3202.7617">CI pipeline (W2-W3)</text><rect fill="#fff8e1" height="34.1328" rx="12.5" stroke="#fbc02d" stroke-width=".5" width="202.5488" x="2242.3359" y="3235.293"/><text font-family="sans-serif" font-size="12" lengthAdjust="spacing" textLength="182.5488" x="2252.3359" y="3256.8945">T-501: CI/CD pipeline (W5, 2d)</text><rect fill="#fff8e1" height="34.1328" rx="12.5" stroke="#fbc02d" stroke-width=".5" width="189.9512" x="2248.6348" y="3289.4258"/><text font-family="sans-serif" font-size="12" lengthAdjust="spacing" textLength="169.9512" x="2258.6348" y="3311.0273">Deployment automation (W5)</text><ellipse cx="2343.6104" cy="3354.5586" fill="none" rx="11" ry="11" stroke="#222"/><ellipse cx="2343.6104" cy="3354.5586" fill="#222" rx="6" ry="6" stroke="#222"/><path d="m2236.3359 63.918v3590.1718" stroke="#000" stroke-width="1.5"/><path d="m2448.8848 63.918h222.8672v3590.1719h-222.8672z" fill="#e1f5fe" stroke="#e1f5fe"/><ellipse cx="2561.3184" cy="3385.5586" fill="#222" rx="10" ry="10" stroke="#222"/><rect fill="#fff8e1" height="34.1328" rx="12.5" stroke="#fbc02d" stroke-width=".5" width="174.3887" x="2474.124" y="3415.5586"/><text font-family="sans-serif" font-size="12" lengthAdjust="spacing" textLength="154.3887" x="2484.124" y="3437.1602">Version control setup (W1)</text><rect fill="#fff8e1" height="34.1328" rx="12.5" stroke="#fbc02d" stroke-width=".5" width="154.1738" x="2484.2314" y="3469.6914"/><text font-family="sans-serif" font-size="12" lengthAdjust="spacing" textLength="134.1738" x="2494.2314" y="3491.293">Build artifacts (W2-W4)</text><rect fill="#fff8e1" height="34.1328" rx="12.5" stroke="#fbc02d" stroke-width=".5" width="212.8672" x="2454.8848" y="3523.8242"/><text font-family="sans-serif" font-size="12" lengthAdjust="spacing" textLength="192.8672" x="2464.8848" y="3545.4258">T-503: Release package (W5, 1d)</text><rect fill="#fff8e1" height="34.1328" rx="12.5" stroke="#fbc02d" stroke-width=".5" width="118.6719" x="2501.9824" y="3577.957"/><text font-family="sans-serif" font-size="12" lengthAdjust="spacing" textLength="98.6719" x="2511.9824" y="3599.5586">Distribution (W5)</text><ellipse cx="2561.3184" cy="3643.0898" fill="none" rx="11" ry="11" stroke="#222"/><ellipse cx="2561.3184" cy="3643.0898" fill="#222" rx="6" ry="6" stroke="#222"/><path d="m2448.8848 63.918v3590.1718" stroke="#000" stroke-width="1.5"/><path d="m2671.752 63.918v3590.1718" stroke="#000" stroke-width="1.5"/><g stroke="#181818"><path d="m145.0703 131.3164v20"/><path d="m141.0703 141.3164 4 10 4-10-4 4z" fill="#181818"/><path d="m145.0703 185.4492v20"/><path d="m141.0703 195.4492 4 10 4-10-4 4z" fill="#181818"/><path d="m145.0703 239.582v20"/><path d="m141.0703 249.582 4 10 4-10-4 4z" fill="#181818"/><path d="m145.0703 293.7148v20"/><path d="m141.0703 303.7148 4 10 4-10-4 4z" fill="#181818"/><path d="m145.0703 347.8477v20"/><path d="m141.0703 357.8477 4 10 4-10-4 4z" fill="#181818"/><path d="m404.4209 419.8477v20"/><path d="m400.4209 429.8477 4 10 4-10-4 4z" fill="#181818"/><path d="m404.4209 473.9805v20"/><path d="m400.4209 483.9805 4 10 4-10-4 4z" fill="#181818"/><path d="m404.4209 528.1133v20"/><path d="m400.4209 538.1133 4 10 4-10-4 4z" fill="#181818"/><path d="m404.4209 582.2461v20"/><path d="m400.4209 592.2461 4 10 4-10-4 4z" fill="#181818"/><path d="m404.4209 636.3789v20"/><path d="m400.4209 646.3789 4 10 4-10-4 4z" fill="#181818"/><path d="m404.4209 690.5117v20"/><path d="m400.4209 700.5117 4 10 4-10-4 4z" fill="#181818"/><path d="m642.2324 762.5117v20"/><path d="m638.2324 772.5117 4 10 4-10-4 4z" fill="#181818"/><path d="m642.2324 816.6445v20"/><path d="m638.2324 826.6445 4 10 4-10-4 4z" fill="#181818"/><path d="m642.2324 870.7773v20"/><path d="m638.2324 880.7773 4 10 4-10-4 4z" fill="#181818"/><path d="m642.2324 924.9102v20"/><path d="m638.2324 934.9102 4 10 4-10-4 4z" fill="#181818"/><path d="m642.2324 979.043v20"/><path d="m638.2324 989.043 4 10 4-10-4 4z" fill="#181818"/><path d="m642.2324 1033.1758v20"/><path d="m638.2324 1043.1758 4 10 4-10-4 4z" fill="#181818"/><path d="m876.8418 1105.1758v20"/><path d="m872.8418 1115.1758 4 10 4-10-4 4z" fill="#181818"/><path d="m876.8418 1159.3086v20"/><path d="m872.8418 1169.3086 4 10 4-10-4 4z" fill="#181818"/><path d="m876.8418 1213.4414v20"/><path d="m872.8418 1223.4414 4 10 4-10-4 4z" fill="#181818"/><path d="m876.8418 1267.5742v20"/><path d="m872.8418 1277.5742 4 10 4-10-4 4z" fill="#181818"/><path d="m876.8418 1321.707v20"/><path d="m872.8418 1331.707 4 10 4-10-4 4z" fill="#181818"/><path d="m876.8418 1375.8398v20"/><path d="m872.8418 1385.8398 4 10 4-10-4 4z" fill="#181818"/><path d="m1130.5674 1447.8398v20"/><path d="m1126.5674 1457.8398 4 10 4-10-4 4z" fill="#181818"/><path d="m1130.5674 1501.9727v20"/><path d="m1126.5674 1511.9727 4 10 4-10-4 4z" fill="#181818"/><path d="m1130.5674 1556.1055v20"/><path d="m1126.5674 1566.1055 4 10 4-10-4 4z" fill="#181818"/><path d="m1130.5674 1610.2383v20"/><path d="m1126.5674 1620.2383 4 10 4-10-4 4z" fill="#181818"/><path d="m1130.5674 1664.3711v20"/><path d="m1126.5674 1674.3711 4 10 4-10-4 4z" fill="#181818"/><path d="m1130.5674 1718.5039v20"/><path d="m1126.5674 1728.5039 4 10 4-10-4 4z" fill="#181818"/><path d="m1369.8027 1790.5039v20"/><path d="m1365.8027 1800.5039 4 10 4-10-4 4z" fill="#181818"/><path d="m1369.8027 1844.6367v20"/><path d="m1365.8027 1854.6367 4 10 4-10-4 4z" fill="#181818"/><path d="m1369.8027 1898.7695v20"/><path d="m1365.8027 1908.7695 4 10 4-10-4 4z" fill="#181818"/><path d="m1369.8027 1952.9023v20"/><path d="m1365.8027 1962.9023 4 10 4-10-4 4z" fill="#181818"/><path d="m1369.8027 2007.0352v20"/><path d="m1365.8027 2017.0352 4 10 4-10-4 4z" fill="#181818"/><path d="m1600.7881 2079.0352v20"/><path d="m1596.7881 2089.0352 4 10 4-10-4 4z" fill="#181818"/><path d="m1600.7881 2133.168v20"/><path d="m1596.7881 2143.168 4 10 4-10-4 4z" fill="#181818"/><path d="m1600.7881 2187.3008v20"/><path d="m1596.7881 2197.3008 4 10 4-10-4 4z" fill="#181818"/><path d="m1600.7881 2241.4336v20"/><path d="m1596.7881 2251.4336 4 10 4-10-4 4z" fill="#181818"/><path d="m1600.7881 2295.5664v20"/><path d="m1596.7881 2305.5664 4 10 4-10-4 4z" fill="#181818"/><path d="m1600.7881 2349.6992v20"/><path d="m1596.7881 2359.6992 4 10 4-10-4 4z" fill="#181818"/><path d="m1840.7324 2421.6992v20"/><path d="m1836.7324 2431.6992 4 10 4-10-4 4z" fill="#181818"/><path d="m1840.7324 2475.832v20"/><path d="m1836.7324 2485.832 4 10 4-10-4 4z" fill="#181818"/><path d="m1840.7324 2529.9648v20"/><path d="m1836.7324 2539.9648 4 10 4-10-4 4z" fill="#181818"/><path d="m1840.7324 2584.0977v20"/><path d="m1836.7324 2594.0977 4 10 4-10-4 4z" fill="#181818"/><path d="m1840.7324 2638.2305v20"/><path d="m1836.7324 2648.2305 4 10 4-10-4 4z" fill="#181818"/><path d="m1840.7324 2692.3633v20"/><path d="m1836.7324 2702.3633 4 10 4-10-4 4z" fill="#181818"/><path d="m2099.8076 2764.3633v20"/><path d="m2095.8076 2774.3633 4 10 4-10-4 4z" fill="#181818"/><path d="m2099.8076 2818.4961v20"/><path d="m2095.8076 2828.4961 4 10 4-10-4 4z" fill="#181818"/><path d="m2099.8076 2872.6289v20"/><path d="m2095.8076 2882.6289 4 10 4-10-4 4z" fill="#181818"/><path d="m2099.8076 2926.7617v20"/><path d="m2095.8076 2936.7617 4 10 4-10-4 4z" fill="#181818"/><path d="m2099.8076 2980.8945v20"/><path d="m2095.8076 2990.8945 4 10 4-10-4 4z" fill="#181818"/><path d="m2099.8076 3035.0273v20"/><path d="m2095.8076 3045.0273 4 10 4-10-4 4z" fill="#181818"/><path d="m2343.6104 3107.0273v20"/><path d="m2339.6104 3117.0273 4 10 4-10-4 4z" fill="#181818"/><path d="m2343.6104 3161.1602v20"/><path d="m2339.6104 3171.1602 4 10 4-10-4 4z" fill="#181818"/><path d="m2343.6104 3215.293v20"/><path d="m2339.6104 3225.293 4 10 4-10-4 4z" fill="#181818"/><path d="m2343.6104 3269.4258v20"/><path d="m2339.6104 3279.4258 4 10 4-10-4 4z" fill="#181818"/><path d="m2343.6104 3323.5586v20"/><path d="m2339.6104 3333.5586 4 10 4-10-4 4z" fill="#181818"/><path d="m2561.3184 3395.5586v20"/><path d="m2557.3184 3405.5586 4 10 4-10-4 4z" fill="#181818"/><path d="m2561.3184 3449.6914v20"/><path d="m2557.3184 3459.6914 4 10 4-10-4 4z" fill="#181818"/><path d="m2561.3184 3503.8242v20"/><path d="m2557.3184 3513.8242 4 10 4-10-4 4z" fill="#181818"/><path d="m2561.3184 3557.957v20"/><path d="m2557.3184 3567.957 4 10 4-10-4 4z" fill="#181818"/><path d="m2561.3184 3612.0898v20"/><path d="m2557.3184 3622.0898 4 10 4-10-4 4z" fill="#181818"/></g><text font-family="sans-serif" font-size="18" lengthAdjust="spacing" textLength="5.6953" x="74.7905" y="81.3203"></text><text font-family="sans-serif" font-size="18" font-weight="bold" lengthAdjust="spacing" textLength="99.6592" x="80.4858" y="81.3203">ARCH-001</text><text font-family="sans-serif" font-size="18" font-weight="bold" lengthAdjust="spacing" textLength="132.8643" x="74.7905" y="102.5195">Lead Architect</text><text font-family="sans-serif" font-size="18" lengthAdjust="spacing" textLength="5.6953" x="207.6548" y="102.5195"></text><text font-family="sans-serif" font-size="18" lengthAdjust="spacing" textLength="5.6953" x="329.7466" y="81.3203"></text><text font-family="sans-serif" font-size="18" font-weight="bold" lengthAdjust="spacing" textLength="97.9893" x="335.4419" y="81.3203">CORE-001</text><text font-family="sans-serif" font-size="18" font-weight="bold" lengthAdjust="spacing" textLength="141.6533" x="329.7466" y="102.5195">Sr. C Developer</text><text font-family="sans-serif" font-size="18" lengthAdjust="spacing" textLength="5.6953" x="471.3999" y="102.5195"></text><text font-family="sans-serif" font-size="18" lengthAdjust="spacing" textLength="5.6953" x="581.981" y="81.3203"></text><text font-family="sans-serif" font-size="18" font-weight="bold" lengthAdjust="spacing" textLength="97.9893" x="587.6763" y="81.3203">CORE-002</text><text font-family="sans-serif" font-size="18" font-weight="bold" lengthAdjust="spacing" textLength="112.8076" x="581.981" y="102.5195">C Developer</text><text font-family="sans-serif" font-size="18" lengthAdjust="spacing" textLength="5.6953" x="694.7886" y="102.5195"></text><text font-family="sans-serif" font-size="18" lengthAdjust="spacing" textLength="5.6953" x="793.9146" y="81.3203"></text><text font-family="sans-serif" font-size="18" font-weight="bold" lengthAdjust="spacing" textLength="92.7598" x="799.6099" y="81.3203">INTG-001</text><text font-family="sans-serif" font-size="18" font-weight="bold" lengthAdjust="spacing" textLength="158.1592" x="793.9146" y="102.5195">Sr. Zig Developer</text><text font-family="sans-serif" font-size="18" lengthAdjust="spacing" textLength="5.6953" x="952.0737" y="102.5195"></text><text font-family="sans-serif" font-size="18" lengthAdjust="spacing" textLength="5.6953" x="1062.063" y="81.3203"></text><text font-family="sans-serif" font-size="18" font-weight="bold" lengthAdjust="spacing" textLength="92.7598" x="1067.7583" y="81.3203">INTG-002</text><text font-family="sans-serif" font-size="18" font-weight="bold" lengthAdjust="spacing" textLength="129.3135" x="1062.063" y="102.5195">Zig Developer</text><text font-family="sans-serif" font-size="18" lengthAdjust="spacing" textLength="5.6953" x="1191.3765" y="102.5195"></text><text font-family="sans-serif" font-size="18" lengthAdjust="spacing" textLength="5.6953" x="1263.813" y="81.3203"></text><text font-family="sans-serif" font-size="18" font-weight="bold" lengthAdjust="spacing" textLength="92.7598" x="1269.5083" y="81.3203">INTG-003</text><text font-family="sans-serif" font-size="18" font-weight="bold" lengthAdjust="spacing" textLength="204.2842" x="1263.813" y="102.5195">Performance Engineer</text><text font-family="sans-serif" font-size="18" lengthAdjust="spacing" textLength="5.6953" x="1468.0972" y="102.5195"></text><text font-family="sans-serif" font-size="18" lengthAdjust="spacing" textLength="5.6953" x="1551.9932" y="81.3203"></text><text font-family="sans-serif" font-size="18" font-weight="bold" lengthAdjust="spacing" textLength="75.1992" x="1557.6885" y="81.3203">QA-001</text><text font-family="sans-serif" font-size="18" font-weight="bold" lengthAdjust="spacing" textLength="89.8945" x="1551.9932" y="102.5195">Test Lead</text><text font-family="sans-serif" font-size="18" lengthAdjust="spacing" textLength="5.6953" x="1641.8877" y="102.5195"></text><text font-family="sans-serif" font-size="18" lengthAdjust="spacing" textLength="5.6953" x="1772.9707" y="81.3203"></text><text font-family="sans-serif" font-size="18" font-weight="bold" lengthAdjust="spacing" textLength="75.1992" x="1778.666" y="81.3203">QA-002</text><text font-family="sans-serif" font-size="18" font-weight="bold" lengthAdjust="spacing" textLength="127.8281" x="1772.9707" y="102.5195">Test Engineer</text><text font-family="sans-serif" font-size="18" lengthAdjust="spacing" textLength="5.6953" x="1900.7988" y="102.5195"></text><text font-family="sans-serif" font-size="18" lengthAdjust="spacing" textLength="5.6953" x="2010.4644" y="81.3203"></text><text font-family="sans-serif" font-size="18" font-weight="bold" lengthAdjust="spacing" textLength="75.1992" x="2016.1597" y="81.3203">QA-003</text><text font-family="sans-serif" font-size="18" font-weight="bold" lengthAdjust="spacing" textLength="170.9912" x="2010.4644" y="102.5195">Perf Test Engineer</text><text font-family="sans-serif" font-size="18" lengthAdjust="spacing" textLength="5.6953" x="2181.4556" y="102.5195"></text><text font-family="sans-serif" font-size="18" lengthAdjust="spacing" textLength="5.6953" x="2268.0352" y="81.3203"></text><text font-family="sans-serif" font-size="18" font-weight="bold" lengthAdjust="spacing" textLength="83.2588" x="2273.7305" y="81.3203">OPS-001</text><text font-family="sans-serif" font-size="18" font-weight="bold" lengthAdjust="spacing" textLength="143.4551" x="2268.0352" y="102.5195">CI/CD Engineer</text><text font-family="sans-serif" font-size="18" lengthAdjust="spacing" textLength="5.6953" x="2411.4902" y="102.5195"></text><text font-family="sans-serif" font-size="18" lengthAdjust="spacing" textLength="5.6953" x="2478.4395" y="81.3203"></text><text font-family="sans-serif" font-size="18" font-weight="bold" lengthAdjust="spacing" textLength="83.2588" x="2484.1348" y="81.3203">OPS-002</text><text font-family="sans-serif" font-size="18" font-weight="bold" lengthAdjust="spacing" textLength="158.0625" x="2478.4395" y="102.5195">Release Engineer</text><text font-family="sans-serif" font-size="18" lengthAdjust="spacing" textLength="5.6953" x="2636.502" y="102.5195"></text></svg>