<svg xmlns="http://www.w3.org/2000/svg" xmlns:xlink="http://www.w3.org/1999/xlink" contentStyleType="text/css" data-diagram-type="CLASS" height="1568.75px" preserveAspectRatio="none" style="width:829px;height:1568px;" version="1.1" viewBox="0 0 829 1568" width="829.1667px" zoomAndPan="magnify"><title>Week 1: UI Backend Foundation - Task Ownership</title><defs><linearGradient id="gy1mgiqa5mcib0" x1="50%" x2="50%" y1="0%" y2="100%"><stop offset="0%" stop-color="#FFFFFF"/><stop offset="100%" stop-color="#EEEEEE"/></linearGradient></defs><g><g class="title" data-source-line="30"><rect fill="url(#gy1mgiqa5mcib0)" height="63.8763" rx="4.1667" ry="4.1667" style="stroke:#EEEEEE;stroke-width:1.0417;" width="608.846" x="100.2547" y="5.2083"/><text fill="#EC7211" font-family="Verdana" font-size="20.8333" font-weight="bold" lengthAdjust="spacing" textLength="588.0127" x="110.6714" y="36.5702">Week 1: UI Backend Foundation - Task Ownership</text><text fill="#2E86AB" font-family="Verdana" font-size="14.5833" font-weight="bold" lengthAdjust="spacing" textLength="400.2869" x="204.5343" y="55.6061">Clear ownership and accountability for each task</text></g><!--class T101--><g class="entity" data-entity="T101" data-source-line="33" data-uid="ent0002" id="entity_T101"><rect fill="#FFF5F5" height="280.1061" rx="4.1667" ry="4.1667" style="stroke:#FF6B6B;stroke-width:1.0417;" width="214.4257" x="62.7927" y="87.8347"/><ellipse cx="77.376" cy="118.0183" fill="#FFFFFF" rx="10.4167" ry="10.4167" style="stroke:#BEBEBE;stroke-width:1.0417;"/><path d="M79.2864,122.4434 Q78.8592,122.6631 78.3892,122.773 Q77.9193,122.8828 77.4005,122.8828 Q75.5572,122.8828 74.5867,121.6682 Q73.6163,120.4536 73.6163,118.1587 Q73.6163,115.8577 74.5867,114.6431 Q75.5572,113.4285 77.4005,113.4285 Q77.9193,113.4285 78.3953,113.5384 Q78.8714,113.6482 79.2864,113.868 L79.2864,115.8699 Q78.8226,115.4427 78.3862,115.2443 Q77.9498,115.0459 77.4859,115.0459 Q76.4971,115.0459 75.9936,115.8302 Q75.4901,116.6145 75.4901,118.1587 Q75.4901,119.6968 75.9936,120.4811 Q76.4971,121.2654 77.4859,121.2654 Q77.9498,121.2654 78.3862,121.067 Q78.8226,120.8687 79.2864,120.4414 Z " fill="#000000"/><text fill="#4E5D6C" font-family="Verdana" font-size="12.5" font-style="italic" lengthAdjust="spacing" textLength="46.7773" x="159.1169" y="110.8185">&#171;Todo&#187;</text><text fill="#000000" font-family="Verdana" font-size="11.4583" lengthAdjust="spacing" textLength="172.759" x="96.126" y="135.3795">T101: Extract tty_write hooks</text><line style="stroke:#FF6B6B;stroke-width:1.0417;" x1="63.8344" x2="276.1767" y1="148.202" y2="148.202"/><text fill="#000000" font-family="Verdana" font-size="11.4583" font-weight="bold" lengthAdjust="spacing" textLength="47.0418" x="74.251" y="169.0969">Owner:</text><text fill="#000000" font-family="Verdana" font-size="11.4583" lengthAdjust="spacing" textLength="129.1077" x="125.3212" y="169.0969">CORE-001 (Sr. C Dev)</text><text fill="#000000" font-family="Verdana" font-size="11.4583" font-weight="bold" lengthAdjust="spacing" textLength="24.4553" x="74.251" y="193.4392">Est:</text><text fill="#000000" font-family="Verdana" font-size="11.4583" lengthAdjust="spacing" textLength="38.0844" x="102.7346" y="193.4392">2 days</text><text fill="#000000" font-family="Verdana" font-size="11.4583" font-weight="bold" lengthAdjust="spacing" textLength="38.9852" x="74.251" y="217.7816">Skills:</text><text fill="#000000" font-family="Verdana" font-size="11.4583" lengthAdjust="spacing" textLength="133.4381" x="117.2646" y="217.7816">Deep tmux internals, C</text><line style="stroke:#FF6B6B;stroke-width:1.0417;" x1="63.8344" x2="276.1767" y1="229.5624" y2="229.5624"/><text fill="#000000" font-family="Verdana" font-size="11.4583" font-weight="bold" lengthAdjust="spacing" textLength="47.2209" x="74.251" y="250.4573">Inputs:</text><text fill="#000000" font-family="Verdana" font-size="11.4583" lengthAdjust="spacing" textLength="92.6737" x="125.5002" y="250.4573">tty.c, tty-term.c</text><text fill="#000000" font-family="Verdana" font-size="11.4583" font-weight="bold" lengthAdjust="spacing" textLength="55.9265" x="74.251" y="274.7996">Outputs:</text><text fill="#000000" font-family="Verdana" font-size="11.4583" lengthAdjust="spacing" textLength="77.0864" x="134.2059" y="274.7996">ui_backend.h</text><line style="stroke:#FF6B6B;stroke-width:1.0417;" x1="63.8344" x2="276.1767" y1="286.5804" y2="286.5804"/><text fill="#000000" font-family="Verdana" font-size="11.4583" lengthAdjust="spacing" textLength="150.0381" x="74.251" y="307.4753">&#10003; All tty_cmd_* identified</text><text fill="#000000" font-family="Verdana" font-size="11.4583" lengthAdjust="spacing" textLength="163.0071" x="74.251" y="331.8176">&#10003; Vtable covers 100% cmds</text><text fill="#000000" font-family="Verdana" font-size="11.4583" lengthAdjust="spacing" textLength="174.3423" x="74.251" y="356.16">&#10003; Compiles with stub backend</text></g><!--class T102--><g class="entity" data-entity="T102" data-source-line="45" data-uid="ent0003" id="entity_T102"><rect fill="#FFF5F5" height="280.1061" rx="4.1667" ry="4.1667" style="stroke:#FF6B6B;stroke-width:1.0417;" width="256.3649" x="524.8226" y="87.8347"/><ellipse cx="539.4059" cy="118.0183" fill="#FFFFFF" rx="10.4167" ry="10.4167" style="stroke:#BEBEBE;stroke-width:1.0417;"/><path d="M541.3163,122.4434 Q540.8891,122.6631 540.4191,122.773 Q539.9491,122.8828 539.4303,122.8828 Q537.5871,122.8828 536.6166,121.6682 Q535.6461,120.4536 535.6461,118.1587 Q535.6461,115.8577 536.6166,114.6431 Q537.5871,113.4285 539.4303,113.4285 Q539.9491,113.4285 540.4252,113.5384 Q540.9013,113.6482 541.3163,113.868 L541.3163,115.8699 Q540.8524,115.4427 540.416,115.2443 Q539.9796,115.0459 539.5158,115.0459 Q538.527,115.0459 538.0235,115.8302 Q537.5199,116.6145 537.5199,118.1587 Q537.5199,119.6968 538.0235,120.4811 Q538.527,121.2654 539.5158,121.2654 Q539.9796,121.2654 540.416,121.067 Q540.8524,120.8687 541.3163,120.4414 Z " fill="#000000"/><text fill="#4E5D6C" font-family="Verdana" font-size="12.5" font-style="italic" lengthAdjust="spacing" textLength="46.7773" x="642.1164" y="110.8185">&#171;Todo&#187;</text><text fill="#000000" font-family="Verdana" font-size="11.4583" lengthAdjust="spacing" textLength="214.6983" x="558.1559" y="135.3795">T102: Design UI backend abstraction</text><line style="stroke:#FF6B6B;stroke-width:1.0417;" x1="525.8642" x2="780.1459" y1="148.202" y2="148.202"/><text fill="#000000" font-family="Verdana" font-size="11.4583" font-weight="bold" lengthAdjust="spacing" textLength="47.0418" x="536.2809" y="169.0969">Owner:</text><text fill="#000000" font-family="Verdana" font-size="11.4583" lengthAdjust="spacing" textLength="156.0694" x="587.3511" y="169.0969">ARCH-001 (Lead Architect)</text><text fill="#000000" font-family="Verdana" font-size="11.4583" font-weight="bold" lengthAdjust="spacing" textLength="24.4553" x="536.2809" y="193.4392">Est:</text><text fill="#000000" font-family="Verdana" font-size="11.4583" lengthAdjust="spacing" textLength="32.1147" x="564.7645" y="193.4392">1 day</text><text fill="#000000" font-family="Verdana" font-size="11.4583" font-weight="bold" lengthAdjust="spacing" textLength="38.9852" x="536.2809" y="217.7816">Skills:</text><text fill="#000000" font-family="Verdana" font-size="11.4583" lengthAdjust="spacing" textLength="125.3031" x="579.2944" y="217.7816">System design, C ABI</text><line style="stroke:#FF6B6B;stroke-width:1.0417;" x1="525.8642" x2="780.1459" y1="229.5624" y2="229.5624"/><text fill="#000000" font-family="Verdana" font-size="11.4583" font-weight="bold" lengthAdjust="spacing" textLength="47.2209" x="536.2809" y="250.4573">Inputs:</text><text fill="#000000" font-family="Verdana" font-size="11.4583" lengthAdjust="spacing" textLength="111.232" x="587.5301" y="250.4573">ui_backend.h, tty.c</text><text fill="#000000" font-family="Verdana" font-size="11.4583" font-weight="bold" lengthAdjust="spacing" textLength="55.9265" x="536.2809" y="274.7996">Outputs:</text><text fill="#000000" font-family="Verdana" font-size="11.4583" lengthAdjust="spacing" textLength="121.3084" x="596.2357" y="274.7996">ui_backend_spec.md</text><line style="stroke:#FF6B6B;stroke-width:1.0417;" x1="525.8642" x2="780.1459" y1="286.5804" y2="286.5804"/><text fill="#000000" font-family="Verdana" font-size="11.4583" lengthAdjust="spacing" textLength="109.3689" x="536.2809" y="307.4753">&#10003; Clean separation</text><text fill="#000000" font-family="Verdana" font-size="11.4583" lengthAdjust="spacing" textLength="115.5904" x="536.2809" y="331.8176">&#10003; Multiple backends</text><text fill="#000000" font-family="Verdana" font-size="11.4583" lengthAdjust="spacing" textLength="112.8489" x="536.2809" y="356.16">&#10003; Zero-copy design</text></g><!--class T103--><g class="entity" data-entity="T103" data-source-line="57" data-uid="ent0004" id="entity_T103"><rect fill="#FFF5F5" height="280.1061" rx="4.1667" ry="4.1667" style="stroke:#FF6B6B;stroke-width:1.0417;" width="233.9966" x="270.3931" y="449.7991"/><ellipse cx="284.9765" cy="479.9828" fill="#FFFFFF" rx="10.4167" ry="10.4167" style="stroke:#BEBEBE;stroke-width:1.0417;"/><path d="M286.8869,484.4078 Q286.4596,484.6275 285.9896,484.7374 Q285.5197,484.8473 285.0009,484.8473 Q283.1576,484.8473 282.1871,483.6327 Q281.2167,482.4181 281.2167,480.1231 Q281.2167,477.8221 282.1871,476.6075 Q283.1576,475.3929 285.0009,475.3929 Q285.5197,475.3929 285.9957,475.5028 Q286.4718,475.6126 286.8869,475.8324 L286.8869,477.8343 Q286.423,477.4071 285.9866,477.2087 Q285.5502,477.0103 285.0863,477.0103 Q284.0975,477.0103 283.594,477.7946 Q283.0905,478.5789 283.0905,480.1231 Q283.0905,481.6612 283.594,482.4455 Q284.0975,483.2298 285.0863,483.2298 Q285.5502,483.2298 285.9866,483.0315 Q286.423,482.8331 286.8869,482.4059 Z " fill="#000000"/><text fill="#4E5D6C" font-family="Verdana" font-size="12.5" font-style="italic" lengthAdjust="spacing" textLength="46.7773" x="376.5027" y="472.7829">&#171;Todo&#187;</text><text fill="#000000" font-family="Verdana" font-size="11.4583" lengthAdjust="spacing" textLength="192.3299" x="303.7265" y="497.344">T103: Implement backend router</text><line style="stroke:#FF6B6B;stroke-width:1.0417;" x1="271.4348" x2="503.348" y1="510.1664" y2="510.1664"/><text fill="#000000" font-family="Verdana" font-size="11.4583" font-weight="bold" lengthAdjust="spacing" textLength="47.0418" x="281.8515" y="531.0613">Owner:</text><text fill="#000000" font-family="Verdana" font-size="11.4583" lengthAdjust="spacing" textLength="143.9677" x="332.9216" y="531.0613">CORE-002 (C Developer)</text><text fill="#000000" font-family="Verdana" font-size="11.4583" font-weight="bold" lengthAdjust="spacing" textLength="24.4553" x="281.8515" y="555.4036">Est:</text><text fill="#000000" font-family="Verdana" font-size="11.4583" lengthAdjust="spacing" textLength="38.0844" x="310.335" y="555.4036">3 days</text><text fill="#000000" font-family="Verdana" font-size="11.4583" font-weight="bold" lengthAdjust="spacing" textLength="38.9852" x="281.8515" y="579.746">Skills:</text><text fill="#000000" font-family="Verdana" font-size="11.4583" lengthAdjust="spacing" textLength="103.6229" x="324.865" y="579.746">C, tmux codebase</text><line style="stroke:#FF6B6B;stroke-width:1.0417;" x1="271.4348" x2="503.348" y1="591.5268" y2="591.5268"/><text fill="#000000" font-family="Verdana" font-size="11.4583" font-weight="bold" lengthAdjust="spacing" textLength="47.2209" x="281.8515" y="612.4217">Inputs:</text><text fill="#000000" font-family="Verdana" font-size="11.4583" lengthAdjust="spacing" textLength="111.232" x="333.1006" y="612.4217">ui_backend.h, tty.c</text><text fill="#000000" font-family="Verdana" font-size="11.4583" font-weight="bold" lengthAdjust="spacing" textLength="55.9265" x="281.8515" y="636.764">Outputs:</text><text fill="#000000" font-family="Verdana" font-size="11.4583" lengthAdjust="spacing" textLength="100.736" x="341.8063" y="636.764">backend_router.c</text><line style="stroke:#FF6B6B;stroke-width:1.0417;" x1="271.4348" x2="503.348" y1="648.5448" y2="648.5448"/><text fill="#000000" font-family="Verdana" font-size="11.4583" lengthAdjust="spacing" textLength="147.2855" x="281.8515" y="669.4397">&#10003; TTY backend preserved</text><text fill="#000000" font-family="Verdana" font-size="11.4583" lengthAdjust="spacing" textLength="139.654" x="281.8515" y="693.782">&#10003; Runtime config switch</text><text fill="#000000" font-family="Verdana" font-size="11.4583" lengthAdjust="spacing" textLength="119.1096" x="281.8515" y="718.1244">&#10003; No perf regression</text></g><!--class T104--><g class="entity" data-entity="T104" data-source-line="69" data-uid="ent0005" id="entity_T104"><rect fill="#FFF5F5" height="280.1061" rx="4.1667" ry="4.1667" style="stroke:#FF6B6B;stroke-width:1.0417;" width="247.5698" x="571.9476" y="449.7991"/><ellipse cx="586.531" cy="479.9828" fill="#FFFFFF" rx="10.4167" ry="10.4167" style="stroke:#BEBEBE;stroke-width:1.0417;"/><path d="M588.4414,484.4078 Q588.0141,484.6275 587.5442,484.7374 Q587.0742,484.8473 586.5554,484.8473 Q584.7121,484.8473 583.7417,483.6327 Q582.7712,482.4181 582.7712,480.1231 Q582.7712,477.8221 583.7417,476.6075 Q584.7121,475.3929 586.5554,475.3929 Q587.0742,475.3929 587.5503,475.5028 Q588.0263,475.6126 588.4414,475.8324 L588.4414,477.8343 Q587.9775,477.4071 587.5411,477.2087 Q587.1047,477.0103 586.6408,477.0103 Q585.6521,477.0103 585.1485,477.7946 Q584.645,478.5789 584.645,480.1231 Q584.645,481.6612 585.1485,482.4455 Q585.6521,483.2298 586.6408,483.2298 Q587.1047,483.2298 587.5411,483.0315 Q587.9775,482.8331 588.4414,482.4059 Z " fill="#000000"/><text fill="#4E5D6C" font-family="Verdana" font-size="12.5" font-style="italic" lengthAdjust="spacing" textLength="46.7773" x="684.8439" y="472.7829">&#171;Todo&#187;</text><text fill="#000000" font-family="Verdana" font-size="11.4583" lengthAdjust="spacing" textLength="205.9031" x="605.281" y="497.344">T104: Create Ghostty backend stub</text><line style="stroke:#FF6B6B;stroke-width:1.0417;" x1="572.9893" x2="818.4758" y1="510.1664" y2="510.1664"/><text fill="#000000" font-family="Verdana" font-size="11.4583" font-weight="bold" lengthAdjust="spacing" textLength="47.0418" x="583.406" y="531.0613">Owner:</text><text fill="#000000" font-family="Verdana" font-size="11.4583" lengthAdjust="spacing" textLength="136.3475" x="634.4761" y="531.0613">INTG-001 (Sr. Zig Dev)</text><text fill="#000000" font-family="Verdana" font-size="11.4583" font-weight="bold" lengthAdjust="spacing" textLength="24.4553" x="583.406" y="555.4036">Est:</text><text fill="#000000" font-family="Verdana" font-size="11.4583" lengthAdjust="spacing" textLength="38.0844" x="611.8896" y="555.4036">2 days</text><text fill="#000000" font-family="Verdana" font-size="11.4583" font-weight="bold" lengthAdjust="spacing" textLength="38.9852" x="583.406" y="579.746">Skills:</text><text fill="#000000" font-family="Verdana" font-size="11.4583" lengthAdjust="spacing" textLength="142.9159" x="626.4195" y="579.746">C callbacks, optimization</text><line style="stroke:#FF6B6B;stroke-width:1.0417;" x1="572.9893" x2="818.4758" y1="591.5268" y2="591.5268"/><text fill="#000000" font-family="Verdana" font-size="11.4583" font-weight="bold" lengthAdjust="spacing" textLength="47.2209" x="583.406" y="612.4217">Inputs:</text><text fill="#000000" font-family="Verdana" font-size="11.4583" lengthAdjust="spacing" textLength="117.7333" x="634.6552" y="612.4217">ui_backend.h, grid.c</text><text fill="#000000" font-family="Verdana" font-size="11.4583" font-weight="bold" lengthAdjust="spacing" textLength="55.9265" x="583.406" y="636.764">Outputs:</text><text fill="#000000" font-family="Verdana" font-size="11.4583" lengthAdjust="spacing" textLength="108.5353" x="643.3608" y="636.764">backend_ghostty.c</text><line style="stroke:#FF6B6B;stroke-width:1.0417;" x1="572.9893" x2="818.4758" y1="648.5448" y2="648.5448"/><text fill="#000000" font-family="Verdana" font-size="11.4583" lengthAdjust="spacing" textLength="143.9845" x="583.406" y="669.4397">&#10003; Spans merged per row</text><text fill="#000000" font-family="Verdana" font-size="11.4583" lengthAdjust="spacing" textLength="134.1766" x="583.406" y="693.782">&#10003; Dirty regions tracked</text><text fill="#000000" font-family="Verdana" font-size="11.4583" lengthAdjust="spacing" textLength="146.1273" x="583.406" y="718.1244">&#10003; Callback &#8804; 1 per frame</text></g><!--class T105--><g class="entity" data-entity="T105" data-source-line="81" data-uid="ent0006" id="entity_T105"><rect fill="#FFF5F5" height="280.1061" rx="4.1667" ry="4.1667" style="stroke:#FF6B6B;stroke-width:1.0417;" width="222.0332" x="494.1277" y="801.3468"/><ellipse cx="509.6066" cy="831.5305" fill="#FFFFFF" rx="10.4167" ry="10.4167" style="stroke:#BEBEBE;stroke-width:1.0417;"/><path d="M511.517,835.9556 Q511.0898,836.1753 510.6198,836.2851 Q510.1498,836.395 509.631,836.395 Q507.7878,836.395 506.8173,835.1804 Q505.8468,833.9658 505.8468,831.6709 Q505.8468,829.3699 506.8173,828.1553 Q507.7878,826.9407 509.631,826.9407 Q510.1498,826.9407 510.6259,827.0505 Q511.102,827.1604 511.517,827.3801 L511.517,829.3821 Q511.0531,828.9548 510.6167,828.7565 Q510.1803,828.5581 509.7165,828.5581 Q508.7277,828.5581 508.2242,829.3424 Q507.7206,830.1267 507.7206,831.6709 Q507.7206,833.209 508.2242,833.9933 Q508.7277,834.7776 509.7165,834.7776 Q510.1803,834.7776 510.6167,834.5792 Q511.0531,834.3808 511.517,833.9536 Z " fill="#000000"/><text fill="#4E5D6C" font-family="Verdana" font-size="12.5" font-style="italic" lengthAdjust="spacing" textLength="46.7773" x="594.3551" y="824.3306">&#171;Todo&#187;</text><text fill="#000000" font-family="Verdana" font-size="11.4583" lengthAdjust="spacing" textLength="178.3763" x="528.5556" y="848.8917">T105: Grid operation test suite</text><line style="stroke:#FF6B6B;stroke-width:1.0417;" x1="495.1693" x2="715.1192" y1="861.7142" y2="861.7142"/><text fill="#000000" font-family="Verdana" font-size="11.4583" font-weight="bold" lengthAdjust="spacing" textLength="47.0418" x="505.586" y="882.609">Owner:</text><text fill="#000000" font-family="Verdana" font-size="11.4583" lengthAdjust="spacing" textLength="137.3154" x="556.6561" y="882.609">QA-002 (Test Engineer)</text><text fill="#000000" font-family="Verdana" font-size="11.4583" font-weight="bold" lengthAdjust="spacing" textLength="24.4553" x="505.586" y="906.9514">Est:</text><text fill="#000000" font-family="Verdana" font-size="11.4583" lengthAdjust="spacing" textLength="38.0844" x="534.0696" y="906.9514">2 days</text><text fill="#000000" font-family="Verdana" font-size="11.4583" font-weight="bold" lengthAdjust="spacing" textLength="38.9852" x="505.586" y="931.2937">Skills:</text><text fill="#000000" font-family="Verdana" font-size="11.4583" lengthAdjust="spacing" textLength="154.4189" x="548.5995" y="931.2937">Terminal protocols, testing</text><line style="stroke:#FF6B6B;stroke-width:1.0417;" x1="495.1693" x2="715.1192" y1="943.0745" y2="943.0745"/><text fill="#000000" font-family="Verdana" font-size="11.4583" font-weight="bold" lengthAdjust="spacing" textLength="47.2209" x="505.586" y="963.9694">Inputs:</text><text fill="#000000" font-family="Verdana" font-size="11.4583" lengthAdjust="spacing" textLength="147.8673" x="556.8352" y="963.9694">backend implementations</text><text fill="#000000" font-family="Verdana" font-size="11.4583" font-weight="bold" lengthAdjust="spacing" textLength="55.9265" x="505.586" y="988.3118">Outputs:</text><text fill="#000000" font-family="Verdana" font-size="11.4583" lengthAdjust="spacing" textLength="88.9084" x="565.5408" y="988.3118">test_grid_ops.c</text><line style="stroke:#FF6B6B;stroke-width:1.0417;" x1="495.1693" x2="715.1192" y1="1000.0926" y2="1000.0926"/><text fill="#000000" font-family="Verdana" font-size="11.4583" lengthAdjust="spacing" textLength="139.7156" x="505.586" y="1020.9874">&#10003; Unicode/emoji correct</text><text fill="#000000" font-family="Verdana" font-size="11.4583" lengthAdjust="spacing" textLength="125.8738" x="505.586" y="1045.3298">&#10003; Wide chars handled</text><text fill="#000000" font-family="Verdana" font-size="11.4583" lengthAdjust="spacing" textLength="126.8977" x="505.586" y="1069.6721">&#10003; 95% code coverage</text></g><!--class T106--><g class="entity" data-entity="T106" data-source-line="93" data-uid="ent0007" id="entity_T106"><rect fill="#FFF5F5" height="280.1061" rx="4.1667" ry="4.1667" style="stroke:#FF6B6B;stroke-width:1.0417;" width="215.2817" x="564.7688" y="1173.7279"/><ellipse cx="579.3522" cy="1203.9116" fill="#FFFFFF" rx="10.4167" ry="10.4167" style="stroke:#BEBEBE;stroke-width:1.0417;"/><path d="M581.2626,1208.3366 Q580.8353,1208.5564 580.3653,1208.6662 Q579.8954,1208.7761 579.3766,1208.7761 Q577.5333,1208.7761 576.5629,1207.5615 Q575.5924,1206.3469 575.5924,1204.052 Q575.5924,1201.7509 576.5629,1200.5363 Q577.5333,1199.3217 579.3766,1199.3217 Q579.8954,1199.3217 580.3714,1199.4316 Q580.8475,1199.5415 581.2626,1199.7612 L581.2626,1201.7632 Q580.7987,1201.3359 580.3623,1201.1375 Q579.9259,1200.9392 579.462,1200.9392 Q578.4733,1200.9392 577.9697,1201.7235 Q577.4662,1202.5078 577.4662,1204.052 Q577.4662,1205.5901 577.9697,1206.3744 Q578.4733,1207.1587 579.462,1207.1587 Q579.9259,1207.1587 580.3623,1206.9603 Q580.7987,1206.7619 581.2626,1206.3347 Z " fill="#000000"/><text fill="#4E5D6C" font-family="Verdana" font-size="12.5" font-style="italic" lengthAdjust="spacing" textLength="46.7773" x="661.521" y="1196.7117">&#171;Todo&#187;</text><text fill="#000000" font-family="Verdana" font-size="11.4583" lengthAdjust="spacing" textLength="173.615" x="598.1022" y="1221.2728">T106: Week 1 integration test</text><line style="stroke:#FF6B6B;stroke-width:1.0417;" x1="565.8105" x2="779.0088" y1="1234.0953" y2="1234.0953"/><text fill="#000000" font-family="Verdana" font-size="11.4583" font-weight="bold" lengthAdjust="spacing" textLength="47.0418" x="576.2272" y="1254.9901">Owner:</text><text fill="#000000" font-family="Verdana" font-size="11.4583" lengthAdjust="spacing" textLength="113.9679" x="627.2973" y="1254.9901">QA-001 (Test Lead)</text><text fill="#000000" font-family="Verdana" font-size="11.4583" font-weight="bold" lengthAdjust="spacing" textLength="24.4553" x="576.2272" y="1279.3325">Est:</text><text fill="#000000" font-family="Verdana" font-size="11.4583" lengthAdjust="spacing" textLength="32.1147" x="604.7107" y="1279.3325">1 day</text><text fill="#000000" font-family="Verdana" font-size="11.4583" font-weight="bold" lengthAdjust="spacing" textLength="38.9852" x="576.2272" y="1303.6748">Skills:</text><text fill="#000000" font-family="Verdana" font-size="11.4583" lengthAdjust="spacing" textLength="107.5785" x="619.2407" y="1303.6748">Integration testing</text><line style="stroke:#FF6B6B;stroke-width:1.0417;" x1="565.8105" x2="779.0088" y1="1315.4556" y2="1315.4556"/><text fill="#000000" font-family="Verdana" font-size="11.4583" font-weight="bold" lengthAdjust="spacing" textLength="47.2209" x="576.2272" y="1336.3505">Inputs:</text><text fill="#000000" font-family="Verdana" font-size="11.4583" lengthAdjust="spacing" textLength="115.8142" x="627.4763" y="1336.3505">Week 1 deliverables</text><text fill="#000000" font-family="Verdana" font-size="11.4583" font-weight="bold" lengthAdjust="spacing" textLength="55.9265" x="576.2272" y="1360.6929">Outputs:</text><text fill="#000000" font-family="Verdana" font-size="11.4583" lengthAdjust="spacing" textLength="127.4628" x="636.182" y="1360.6929">integration_report.md</text><line style="stroke:#FF6B6B;stroke-width:1.0417;" x1="565.8105" x2="779.0088" y1="1372.4737" y2="1372.4737"/><text fill="#000000" font-family="Verdana" font-size="11.4583" lengthAdjust="spacing" textLength="156.9255" x="576.2272" y="1393.3685">&#10003; All components integrate</text><text fill="#000000" font-family="Verdana" font-size="11.4583" lengthAdjust="spacing" textLength="113.7105" x="576.2272" y="1417.7109">&#10003; No memory leaks</text><text fill="#000000" font-family="Verdana" font-size="11.4583" lengthAdjust="spacing" textLength="123.4177" x="576.2272" y="1442.0532">&#10003; Sign-off for week 2</text></g><g class="entity" data-entity="GMN18" data-source-line="120" data-uid="ent0019" id="entity_GMN18"><path d="M12.5,453.9658 L12.5,512.0407 A4.1667,4.1667 0 0 0 16.6667,516.2074 L216.1316,516.2074 A4.1667,4.1667 0 0 0 220.2983,512.0407 L220.2983,460.2158 L209.8816,449.7991 L16.6667,449.7991 A4.1667,4.1667 0 0 0 12.5,453.9658" fill="#0073BB" style="stroke:#005C96;stroke-width:1.0417;"/><path d="M209.8816,449.7991 L209.8816,458.1324 A2.0833,2.0833 0 0 0 211.9649,460.2158 L220.2983,460.2158 L209.8816,449.7991" fill="#0073BB" style="stroke:#005C96;stroke-width:1.0417;"/><text fill="#FFFFFF" font-family="Verdana" font-size="12.5" font-weight="bold" lengthAdjust="spacing" textLength="122.8027" x="23.9583" y="472.7829">Critical Path Task</text><text fill="#FFFFFF" font-family="Verdana" font-size="12.5" lengthAdjust="spacing" textLength="175.5066" x="23.9583" y="487.9745">Blocks all downstream work</text><text fill="#FFFFFF" font-family="Verdana" font-size="12.5" lengthAdjust="spacing" textLength="130.957" x="23.9583" y="503.1662">Daily status required</text></g><g class="entity" data-entity="GMN21" data-source-line="126" data-uid="ent0022" id="entity_GMN21"><path d="M557.0207,1499.6674 L557.0207,1557.7423 A4.1667,4.1667 0 0 0 561.1873,1561.909 L783.632,1561.909 A4.1667,4.1667 0 0 0 787.7987,1557.7423 L787.7987,1505.9174 L777.382,1495.5007 L561.1873,1495.5007 A4.1667,4.1667 0 0 0 557.0207,1499.6674" fill="#0073BB" style="stroke:#005C96;stroke-width:1.0417;"/><path d="M777.382,1495.5007 L777.382,1503.834 A2.0833,2.0833 0 0 0 779.4653,1505.9174 L787.7987,1505.9174 L777.382,1495.5007" fill="#0073BB" style="stroke:#005C96;stroke-width:1.0417;"/><text fill="#FFFFFF" font-family="Verdana" font-size="12.5" font-weight="bold" lengthAdjust="spacing" textLength="89.0076" x="568.479" y="1518.4845">Week 1 Gate</text><text fill="#FFFFFF" font-family="Verdana" font-size="12.5" lengthAdjust="spacing" textLength="198.4863" x="568.479" y="1533.6761">Must pass before Week 2 starts</text><text fill="#FFFFFF" font-family="Verdana" font-size="12.5" lengthAdjust="spacing" textLength="182.5623" x="568.479" y="1548.8678">Requires ARCH-001 approval</text></g><line style="stroke:#EC7211;stroke-width:3.125;" x1="223.612" x2="223.612" y1="367.9408" y2="378.3574"/><line style="stroke:#EC7211;stroke-width:3.125;" x1="223.612" x2="181.4639" y1="378.3574" y2="378.3574"/><line style="stroke:#EC7211;stroke-width:3.125;" x1="181.4639" x2="181.4639" y1="378.3574" y2="428.9658"/><line style="stroke:#EC7211;stroke-width:3.125;" x1="181.4639" x2="387.3914" y1="428.9658" y2="428.9658"/><line style="stroke:#EC7211;stroke-width:3.125;" x1="387.3914" x2="387.3914" y1="428.9658" y2="449.7991"/><polygon fill="#EC7211" points="387.3914,449.7991,391.5581,440.4241,387.3914,444.5908,383.2247,440.4241,387.3914,449.7991" style="stroke:#EC7211;stroke-width:3.125;"/><text fill="#4E5D6C" font-family="Verdana" font-size="12.5" lengthAdjust="spacing" textLength="53.2837" x="191.8805" y="408.6329">provides</text><text fill="#4E5D6C" font-family="Verdana" font-size="12.5" lengthAdjust="spacing" textLength="4.3945" x="245.1642" y="408.6329">&#160;</text><text fill="#4E5D6C" font-family="Verdana" font-size="12.5" lengthAdjust="spacing" textLength="54.9072" x="249.5588" y="408.6329">interface</text><line style="stroke:#EC7211;stroke-width:3.125;" x1="610.2776" x2="610.2776" y1="367.9408" y2="378.3574"/><line style="stroke:#EC7211;stroke-width:3.125;" x1="610.2776" x2="445.8906" y1="378.3574" y2="378.3574"/><line style="stroke:#EC7211;stroke-width:3.125;" x1="445.8906" x2="445.8906" y1="378.3574" y2="449.7991"/><polygon fill="#EC7211" points="445.8906,449.7991,450.0572,440.4241,445.8906,444.5908,441.7239,440.4241,445.8906,449.7991" style="stroke:#EC7211;stroke-width:3.125;"/><text fill="#4E5D6C" font-family="Verdana" font-size="12.5" lengthAdjust="spacing" textLength="44.928" x="329.466" y="408.6329">defines</text><text fill="#4E5D6C" font-family="Verdana" font-size="12.5" lengthAdjust="spacing" textLength="4.3945" x="374.394" y="408.6329">&#160;</text><text fill="#4E5D6C" font-family="Verdana" font-size="12.5" lengthAdjust="spacing" textLength="57.7271" x="378.7885" y="408.6329">contracts</text><line style="stroke:#EC7211;stroke-width:3.125;" x1="695.7325" x2="695.7325" y1="367.9408" y2="449.7991"/><polygon fill="#EC7211" points="695.7325,449.7991,699.8992,440.4241,695.7325,444.5908,691.5659,440.4241,695.7325,449.7991" style="stroke:#EC7211;stroke-width:3.125;"/><text fill="#4E5D6C" font-family="Verdana" font-size="12.5" lengthAdjust="spacing" textLength="52.3499" x="601.3539" y="408.6329">backend</text><text fill="#4E5D6C" font-family="Verdana" font-size="12.5" lengthAdjust="spacing" textLength="4.3945" x="653.7037" y="408.6329">&#160;</text><text fill="#4E5D6C" font-family="Verdana" font-size="12.5" lengthAdjust="spacing" textLength="28.2593" x="658.0983" y="408.6329">spec</text><line style="stroke:#EC7211;stroke-width:3.125;" x1="445.8906" x2="445.8906" y1="729.9052" y2="740.3219"/><line style="stroke:#EC7211;stroke-width:3.125;" x1="445.8906" x2="547.8932" y1="740.3219" y2="740.3219"/><line style="stroke:#EC7211;stroke-width:3.125;" x1="547.8932" x2="547.8932" y1="740.3219" y2="790.9302"/><line style="stroke:#EC7211;stroke-width:3.125;" x1="547.8932" x2="568.1387" y1="790.9302" y2="790.9302"/><line style="stroke:#EC7211;stroke-width:3.125;" x1="568.1387" x2="568.1387" y1="790.9302" y2="801.3468"/><polygon fill="#EC7211" points="568.1387,801.3468,572.3054,791.9718,568.1387,796.1385,563.972,791.9718,568.1387,801.3468" style="stroke:#EC7211;stroke-width:3.125;"/><text fill="#4E5D6C" font-family="Verdana" font-size="12.5" lengthAdjust="spacing" textLength="23.8098" x="472.3866" y="770.5973">test</text><text fill="#4E5D6C" font-family="Verdana" font-size="12.5" lengthAdjust="spacing" textLength="4.3945" x="496.1964" y="770.5973">&#160;</text><text fill="#4E5D6C" font-family="Verdana" font-size="12.5" lengthAdjust="spacing" textLength="37.9272" x="500.5909" y="770.5973">target</text><line style="stroke:#EC7211;stroke-width:3.125;" x1="654.4709" x2="654.4709" y1="729.9052" y2="740.3219"/><line style="stroke:#EC7211;stroke-width:3.125;" x1="654.4709" x2="642.1498" y1="740.3219" y2="740.3219"/><line style="stroke:#EC7211;stroke-width:3.125;" x1="642.1498" x2="642.1498" y1="740.3219" y2="801.3468"/><polygon fill="#EC7211" points="642.1498,801.3468,646.3164,791.9718,642.1498,796.1385,637.9831,791.9718,642.1498,801.3468" style="stroke:#EC7211;stroke-width:3.125;"/><text fill="#4E5D6C" font-family="Verdana" font-size="12.5" lengthAdjust="spacing" textLength="23.8098" x="566.6432" y="770.5973">test</text><text fill="#4E5D6C" font-family="Verdana" font-size="12.5" lengthAdjust="spacing" textLength="4.3945" x="590.453" y="770.5973">&#160;</text><text fill="#4E5D6C" font-family="Verdana" font-size="12.5" lengthAdjust="spacing" textLength="37.9272" x="594.8475" y="770.5973">target</text><line style="stroke:#EC7211;stroke-width:3.125;" x1="387.3914" x2="387.3914" y1="729.9052" y2="1152.8946"/><line style="stroke:#EC7211;stroke-width:3.125;" x1="387.3914" x2="650.8815" y1="1152.8946" y2="1152.8946"/><line style="stroke:#EC7211;stroke-width:3.125;" x1="650.8815" x2="650.8815" y1="1152.8946" y2="1173.7279"/><polygon fill="#EC7211" points="650.8815,1173.7279,655.0482,1164.3529,650.8815,1168.5196,646.7148,1164.3529,650.8815,1173.7279" style="stroke:#EC7211;stroke-width:3.125;"/><text fill="#4E5D6C" font-family="Verdana" font-size="12.5" lengthAdjust="spacing" textLength="68.1946" x="397.8081" y="946.3712">integration</text><line style="stroke:#EC7211;stroke-width:3.125;" x1="736.9942" x2="736.9942" y1="729.9052" y2="1173.7279"/><polygon fill="#EC7211" points="736.9942,1173.7279,741.1608,1164.3529,736.9942,1168.5196,732.8275,1164.3529,736.9942,1173.7279" style="stroke:#EC7211;stroke-width:3.125;"/><text fill="#4E5D6C" font-family="Verdana" font-size="12.5" lengthAdjust="spacing" textLength="68.1946" x="747.4108" y="946.3712">integration</text><line style="stroke:#EC7211;stroke-width:3.125;" x1="605.1442" x2="605.1442" y1="1081.4529" y2="1142.4779"/><line style="stroke:#EC7211;stroke-width:3.125;" x1="605.1442" x2="693.9378" y1="1142.4779" y2="1142.4779"/><line style="stroke:#EC7211;stroke-width:3.125;" x1="693.9378" x2="693.9378" y1="1142.4779" y2="1173.7279"/><polygon fill="#EC7211" points="693.9378,1173.7279,698.1045,1164.3529,693.9378,1168.5196,689.7712,1164.3529,693.9378,1173.7279" style="stroke:#EC7211;stroke-width:3.125;"/><text fill="#4E5D6C" font-family="Verdana" font-size="12.5" lengthAdjust="spacing" textLength="23.8098" x="525.4934" y="1122.1451">test</text><text fill="#4E5D6C" font-family="Verdana" font-size="12.5" lengthAdjust="spacing" textLength="4.3945" x="549.3032" y="1122.1451">&#160;</text><text fill="#4E5D6C" font-family="Verdana" font-size="12.5" lengthAdjust="spacing" textLength="42.0715" x="553.6977" y="1122.1451">results</text><line style="stroke:#FF6B6B;stroke-width:2.0833;" x1="170.0055" x2="170.0055" y1="367.9408" y2="439.3824"/><line style="stroke:#FF6B6B;stroke-width:2.0833;" x1="170.0055" x2="328.8923" y1="439.3824" y2="439.3824"/><line style="stroke:#FF6B6B;stroke-width:2.0833;" x1="328.8923" x2="328.8923" y1="439.3824" y2="449.7991"/><polygon fill="#FF6B6B" points="328.8923,449.7991,333.0589,440.4241,328.8923,444.5908,324.7256,440.4241,328.8923,449.7991" style="stroke:#FF6B6B;stroke-width:2.0833;"/><line style="stroke:#FF6B6B;stroke-width:2.0833;" x1="328.8923" x2="328.8923" y1="729.9052" y2="740.3219"/><line style="stroke:#FF6B6B;stroke-width:2.0833;" x1="328.8923" x2="375.9331" y1="740.3219" y2="740.3219"/><line style="stroke:#FF6B6B;stroke-width:2.0833;" x1="375.9331" x2="375.9331" y1="740.3219" y2="1163.3113"/><line style="stroke:#FF6B6B;stroke-width:2.0833;" x1="375.9331" x2="607.8252" y1="1163.3113" y2="1163.3113"/><line style="stroke:#FF6B6B;stroke-width:2.0833;" x1="607.8252" x2="607.8252" y1="1163.3113" y2="1173.7279"/><polygon fill="#FF6B6B" points="607.8252,1173.7279,611.9918,1164.3529,607.8252,1168.5196,603.6585,1164.3529,607.8252,1173.7279" style="stroke:#FF6B6B;stroke-width:2.0833;"/><line style="stroke:#EC7211;stroke-width:3.125;stroke-dasharray:7.2917,7.2917;" x1="116.3991" x2="116.3991" y1="367.9408" y2="449.7991"/><line style="stroke:#EC7211;stroke-width:3.125;stroke-dasharray:7.2917,7.2917;" x1="672.4097" x2="672.4097" y1="1453.834" y2="1495.5007"/><!--SRC=[ZLTRRnf757xdLnmxhkfKuC1oyKK82NDnaUmaDQHHqrPes1rWokxETcOm8LL_G9_xsiV-iloIdhEpkmo6j7smC9pRdEyxbvcJWCz5pE7jVVVrvDt3_VH-z32QJCUZ3mEeUvUjgv9UYJXXYaKG90BgrQhpIyG-Fd2jsOAFnIUU2aidYMABY478jd9jW8UhqebPyeW3s-YAL2nUSCT5YD7DDk4WbLbAHv0mVqMEpJRaeBXlq31qBNqP9JBciR4gwoZqN6d8j1xAsFHaA1NCGdJtNDmrHedPsl3dUgMlOMoOMMiCGhzgdn9uRWw_bG1kKN-Xv3eEKWVjzaG6ijE15yFXi3biaePK0LS7qjPjw_QOVL-AU94vk1hKdZlOYMzxLQz_pCDjAFqL3wpIu7fm-To7ep1eDRgrw-FdY7cgSJLi3guFZs6bZNgtshWyPl_8dmJVf1xgGs_OV-vX9wzTNxRwNkbtWdqGBrdiym0cJA_0Poh08lELX8qmIv2Rc2i8k64YrAMJh7P9zVnC1EKp8qp8osUfMlRnAEaNdR9PFkFQlCp8EqMB6x0cfy0qu7TejpFLJgTKIaNmdlCLr6xWtIZDaSS132bDPeICeM8F-eP2wQL8VehR6blXfjRejDFQkNdX3QvQtTjEB-HCsGn84HWwOhwFhWoRYL2OBSonr3Zpbs3GP_jLQjzfloA77GB77YMDg2qWEk6-c0i_yrjAePZKghKod0u-6iLy0yPifnib38Ubb2jzYgBUcyT1fLgjqVzZTG4zwFCd-aBbIP_UwSiIkO4RQCywQNOtxLUp3kIMS5xOkPe3RQoU1m7RQaSoNeamr5ROvpm14wq_WeWDLp4BTHbwkNAbufYDucHjCZDCvC8lqqS5hQ8BtptYskmKrs8wirHTB0-zVlxhJ-Y6OOgB7mNJRq04E4KGHXwuEjyZByY_BvyGMQXLgry1gcjNfOSZI8Gy9yEiPv05BXLKU0XddsknYAc4CZ6mcKxPmHeYlBkFlMzpGkuv2w2h_2LIvXkNbPfbnJjW9JU7ytrZLxsWfaRKE0ANcV5M6uwJFZqlSWBTsr6kQX7q3dbnuIvRbjnZ7cTcIgLx4GM7tbDWiLbYq9ocBM7aoXxMeH49CfDvqgxm0rUouijac-Mmuw6E08uYj8kGx887d5XOIqvFUEd_LDSyb8aLvVZNBVxrBtM51-UEfQjRW5yl-g9-Y7wlRBl2bm6VCSrpDOjD_NyZNp-2V0wxJNYdj_DDy4qcFnJG98fhhfviK-GAZpYkH4HT4S_50ZGMlhzq5LvBmDpdkB4NQA-9kuA21a6hECDHTBUK6izR1AFU8OX7hoTtxcJwW46EpwR60GkvhPrDcQMhUsGwDOwmW6id3EbWE9LaWkcAJqKHDWh86lz5nqA9mEBS-1S-5XQ8dUBEEy4vJbYi8U9gWJiHWSM2tRZolb288eADvzD08sLb2SiLUbakyFcFlx7roSKSRp1ynqeJCRt3im8LhTrg1lSaw3NE40ByksxU5nFwVH0lSElkTqR6IVE04siBvtkMhkuHJfg7d4nmtWlS4rYKqaXSZ4WD7HBlGhc5nQrvo4fUOY9l_ZH7Dz8UCUHsIjnDPQ8jBVlk2TLtiQ0cVSKZ-Ol0Pb1qGNKLtkDE0N_9S7FWXIO8BIcvzBhvLThaThdWBNV7HWlHpFOyBSU5mqZ1HQtWWiRzaGtHEiv3BUE1h5ozmzNGEgHWzEmq6VIj0flM8VHP8W4F1UM9wrIxntDXTvATAfxWQo1R3li1ykLTNFvrOSbT7Hn34PAZje2RPALTqHZNGaNEv-brQqCdzEXorUS9LWcFVP7lyv3DU9Zj-qe5Yz1EEIp19sJN1bPpvdExW1mLUp6brqESRdczfq6jMSmzt89sV6P2Af6q_Gp3dZUsbRyiA-meEmV3FRiZigOhIttYjCR5gWcA7juMXK_TnX26fLWiG_pB6KSmVipUB-MP38EVixopunoJjKgbMEBKL-G6v9n-evSD5a4Hwot5cgGNtrc77WlqID60umi2lDtYTOdZmsiZrGg5VNm0RC5UrV7alww5mWuZG2bE5cqcZP5H5gvbmsKLUOVbaiLvM6Fo2Rq8PXmh8hlmU-HS8Hm0ZzQztjsoM48rmC9Tm7y0]--></g></svg>