<svg xmlns="http://www.w3.org/2000/svg" xmlns:xlink="http://www.w3.org/1999/xlink" contentStyleType="text/css" data-diagram-type="DESCRIPTION" height="1173px" preserveAspectRatio="none" style="width:1642px;height:1173px;background:#FFFFFF;" version="1.1" viewBox="0 0 1642 1173" width="1642px" zoomAndPan="magnify"><title>Runtime Deployment Architecture</title><defs/><g><g class="title" data-source-line="2"><text fill="#000000" font-family="Verdana" font-size="22" font-weight="bold" lengthAdjust="spacing" textLength="420.7715" x="606.2093" y="37.1182">Runtime Deployment Architecture</text></g><!--cluster Ghostty Process--><g class="cluster" data-entity="Ghostty Process" data-source-line="7" data-uid="ent0002" id="cluster_Ghostty Process"><polygon fill="#FFFFFF" points="21,68.7373,31,58.7373,564,58.7373,564,869.8073,554,879.8073,21,879.8073,21,68.7373" style="stroke:#000000;stroke-width:1;"/><line style="stroke:#000000;stroke-width:1;" x1="554" x2="564" y1="68.7373" y2="58.7373"/><line style="stroke:#000000;stroke-width:1;" x1="21" x2="554" y1="68.7373" y2="68.7373"/><line style="stroke:#000000;stroke-width:1;" x1="554" x2="554" y1="68.7373" y2="879.8073"/><text fill="#000000" font-family="Verdana" font-size="14" font-weight="bold" lengthAdjust="spacing" textLength="126.875" x="225.0625" y="85.8125">Ghostty Process</text></g><!--cluster libtmuxcore.so--><g class="cluster" data-entity="libtmuxcore.so" data-source-line="12" data-uid="ent0006" id="cluster_libtmuxcore.so"><path d="M47.5,107.7373 L165.4697,107.7373 A3.75,3.75 0 0 1 167.9697,110.2373 L174.9697,130.752 L234.5,130.752 A2.5,2.5 0 0 1 237,133.252 L237,566.2773 A2.5,2.5 0 0 1 234.5,568.7773 L47.5,568.7773 A2.5,2.5 0 0 1 45,566.2773 L45,110.2373 A2.5,2.5 0 0 1 47.5,107.7373" fill="#FFFFFF" style="stroke:#000000;stroke-width:1;"/><line style="stroke:#000000;stroke-width:1;" x1="45" x2="174.9697" y1="130.752" y2="130.752"/><text fill="#000000" font-family="Verdana" font-size="14" font-weight="bold" lengthAdjust="spacing" textLength="116.9697" x="49" y="123.8125">libtmuxcore.so</text></g><!--cluster SHM--><g class="cluster" data-entity="SHM" data-source-line="21" data-uid="ent0012" id="cluster_SHM"><path d="M125,635.7773 C125,625.7773 270.5,625.7773 270.5,625.7773 C270.5,625.7773 416,625.7773 416,635.7773 L416,735.7973 C416,745.7973 270.5,745.7973 270.5,745.7973 C270.5,745.7973 125,745.7973 125,735.7973 L125,635.7773" fill="#FFFFFF" style="stroke:#000000;stroke-width:1;"/><path d="M125,635.7773 C125,645.7773 270.5,645.7773 270.5,645.7773 C270.5,645.7773 416,645.7773 416,635.7773" fill="none" style="stroke:#000000;stroke-width:1;"/><text fill="#000000" font-family="Verdana" font-size="14" font-weight="bold" lengthAdjust="spacing" textLength="123.1631" x="208.9185" y="661.8525">Shared Memory</text></g><!--cluster Child Processes--><g class="cluster" data-entity="Child Processes" data-source-line="27" data-uid="ent0015" id="cluster_Child Processes"><polygon fill="#FFFFFF" points="1179,474.7673,1189,464.7673,1523,464.7673,1523,558.7773,1513,568.7773,1179,568.7773,1179,474.7673" style="stroke:#000000;stroke-width:1;"/><line style="stroke:#000000;stroke-width:1;" x1="1513" x2="1523" y1="474.7673" y2="464.7673"/><line style="stroke:#000000;stroke-width:1;" x1="1179" x2="1513" y1="474.7673" y2="474.7673"/><line style="stroke:#000000;stroke-width:1;" x1="1513" x2="1513" y1="474.7673" y2="568.7773"/><text fill="#000000" font-family="Verdana" font-size="14" font-weight="bold" lengthAdjust="spacing" textLength="122.8281" x="1285.5859" y="491.8425">Child Processes</text></g><!--cluster GPU--><g class="cluster" data-entity="GPU" data-source-line="33" data-uid="ent0019" id="cluster_GPU"><polygon fill="#FFFFFF" points="383,938.8073,393,928.8073,555,928.8073,555,1146.8373,545,1156.8373,383,1156.8373,383,938.8073" style="stroke:#000000;stroke-width:1;"/><line style="stroke:#000000;stroke-width:1;" x1="545" x2="555" y1="938.8073" y2="928.8073"/><line style="stroke:#000000;stroke-width:1;" x1="383" x2="545" y1="938.8073" y2="938.8073"/><line style="stroke:#000000;stroke-width:1;" x1="545" x2="545" y1="938.8073" y2="1156.8373"/><text fill="#000000" font-family="Verdana" font-size="14" font-weight="bold" lengthAdjust="spacing" textLength="32.9834" x="448.5083" y="955.8825">GPU</text></g><!--cluster File System--><g class="cluster" data-entity="File System" data-source-line="38" data-uid="ent0022" id="cluster_File System"><polygon fill="#FFFFFF" points="588,263.7473,598,253.7473,1188,253.7473,1188,405.7673,1178,415.7673,588,415.7673,588,263.7473" style="stroke:#000000;stroke-width:1;"/><line style="stroke:#000000;stroke-width:1;" x1="1178" x2="1188" y1="263.7473" y2="253.7473"/><line style="stroke:#000000;stroke-width:1;" x1="588" x2="1178" y1="263.7473" y2="263.7473"/><line style="stroke:#000000;stroke-width:1;" x1="1178" x2="1178" y1="263.7473" y2="415.7673"/><text fill="#000000" font-family="Verdana" font-size="14" font-weight="bold" lengthAdjust="spacing" textLength="90.6104" x="838.6948" y="280.8225">File System</text></g><!--cluster Config--><g class="cluster" data-entity="Config" data-source-line="39" data-uid="ent0023" id="cluster_Config"><path d="M614.5,302.7473 L665.7031,302.7473 A3.75,3.75 0 0 1 668.2031,305.2473 L675.2031,325.762 L880.5,325.762 A2.5,2.5 0 0 1 883,328.262 L883,389.2673 A2.5,2.5 0 0 1 880.5,391.7673 L614.5,391.7673 A2.5,2.5 0 0 1 612,389.2673 L612,305.2473 A2.5,2.5 0 0 1 614.5,302.7473" fill="#FFFFFF" style="stroke:#000000;stroke-width:1;"/><line style="stroke:#000000;stroke-width:1;" x1="612" x2="675.2031" y1="325.762" y2="325.762"/><text fill="#000000" font-family="Verdana" font-size="14" font-weight="bold" lengthAdjust="spacing" textLength="50.2031" x="616" y="318.8225">Config</text></g><!--cluster Runtime--><g class="cluster" data-entity="Runtime" data-source-line="44" data-uid="ent0026" id="cluster_Runtime"><path d="M909.5,302.7473 L976.6719,302.7473 A3.75,3.75 0 0 1 979.1719,305.2473 L986.1719,325.762 L1161.5,325.762 A2.5,2.5 0 0 1 1164,328.262 L1164,389.2673 A2.5,2.5 0 0 1 1161.5,391.7673 L909.5,391.7673 A2.5,2.5 0 0 1 907,389.2673 L907,305.2473 A2.5,2.5 0 0 1 909.5,302.7473" fill="#FFFFFF" style="stroke:#000000;stroke-width:1;"/><line style="stroke:#000000;stroke-width:1;" x1="907" x2="986.1719" y1="325.762" y2="325.762"/><text fill="#000000" font-family="Verdana" font-size="14" font-weight="bold" lengthAdjust="spacing" textLength="66.1719" x="911" y="318.8225">Runtime</text></g><!--cluster External Connections--><g class="cluster" data-entity="External Connections" data-source-line="87" data-uid="ent0055" id="cluster_External Connections"><path d="M853.075,479.9196 C859.4267,467.2745 866.3744,466.9338 875.3882,477.3431 C880.8966,469.0461 891.4061,468.9812 896.3997,477.9688 C901.6353,468.9751 908.8545,466.3467 916.409,475.3973 C923.5148,464.4832 931.0295,462.9775 939.5979,473.8399 C945.1316,464.2676 955.3509,465.9607 960.2313,474.5808 C965.9101,464.4358 974.4911,465.7174 980.7122,473.9773 C985.7366,462.6591 993.6538,463.3589 1000.638,472.0231 C1008.4941,463.8461 1015.7756,465.4478 1021.1121,474.9424 C1027.2325,463.0956 1034.9794,462.2663 1042.6632,473.4814 C1050.9205,463.8521 1061.194,466.4118 1066.2925,477.1466 C1071.7259,466.6859 1080.9537,464.7387 1087.7444,475.7932 C1094.093,468.7797 1100.6977,470.0046 1105.1822,477.9641 C1112.1882,467.6753 1122.0304,466.318 1127.8745,479.1066 C1134.4915,469.202 1142.457,470.238 1147.5071,480.6228 C1158.093,485.2181 1159.3924,491.375 1152.502,500.387 C1165.5319,502.0824 1169.8136,511.8817 1160.4804,521.879 C1168.3987,530.3374 1163.5462,538.9288 1153.8089,541.3324 C1161.8731,550.7257 1161.8816,559.1899 1148.6831,563.7135 C1142.4816,574.3841 1133.3271,574.6337 1126.9054,563.938 C1121.6558,575.0438 1112.2962,576.5703 1105.1002,565.8858 C1099.5083,574.163 1093.0626,572.9787 1087.6879,565.6436 C1081.2853,576.8392 1070.9623,576.6233 1064.7216,565.4772 C1060.9496,576.8953 1051.0463,578.106 1044.653,567.9112 C1038.2726,577.9244 1031.5886,579.1309 1023.2447,570.1208 C1017.7324,579.1603 1007.585,579.5418 1001.9525,570.2606 C996.471,578.6738 986.9088,580.6498 981.1902,570.5261 C972.2014,580.6596 965.8274,578.3218 959.9216,567.4104 C955.2029,575.9979 946.0744,578.8382 940.1644,568.665 C932.2903,579.0997 924.0487,579.7362 917.229,567.5938 C910.7121,576.0489 902.9845,574.7124 897.6236,566.2539 C889.75,576.9017 883.0497,576.1119 876.2035,565.2316 C868.2852,575.4341 861.2959,574.9848 855.1697,563.4941 C846.1379,558.9132 844.9879,549.5209 852.6268,542.8833 C840.4895,537.2501 840.6658,528.8308 848.6966,519.7684 C839.3243,513.7191 841.191,504.9451 850.8936,501.1461 C842.3664,493.7898 843.5159,485.4172 853.075,479.9196" fill="#FFFFFF" style="stroke:#000000;stroke-width:1;"/><text fill="#000000" font-family="Verdana" font-size="14" font-weight="bold" lengthAdjust="spacing" textLength="166.7354" x="916.6323" y="496.8425">External Connections</text></g><!--entity App--><g class="entity" data-entity="App" data-source-line="8" data-uid="ent0003" id="entity_App"><rect fill="#ADD8E6" height="47.0146" rx="2.5" ry="2.5" style="stroke:#000000;stroke-width:1;" width="126.7617" x="421.62" y="143.7373"/><rect fill="#ADD8E6" height="10" style="stroke:#000000;stroke-width:1;" width="15" x="528.3817" y="148.7373"/><rect fill="#ADD8E6" height="2" style="stroke:#000000;stroke-width:1;" width="4" x="526.3817" y="150.7373"/><rect fill="#ADD8E6" height="2" style="stroke:#000000;stroke-width:1;" width="4" x="526.3817" y="154.7373"/><text fill="#000000" font-family="Verdana" font-size="14" lengthAdjust="spacing" textLength="86.7617" x="436.62" y="177.8125">Ghostty App</text></g><!--entity UIThread--><g class="entity" data-entity="UIThread" data-source-line="9" data-uid="ent0004" id="entity_UIThread"><rect fill="#ADD8E6" height="47.0146" rx="2.5" ry="2.5" style="stroke:#000000;stroke-width:1;" width="109.9932" x="399" y="333.7473"/><rect fill="#ADD8E6" height="10" style="stroke:#000000;stroke-width:1;" width="15" x="488.9932" y="338.7473"/><rect fill="#ADD8E6" height="2" style="stroke:#000000;stroke-width:1;" width="4" x="486.9932" y="340.7473"/><rect fill="#ADD8E6" height="2" style="stroke:#000000;stroke-width:1;" width="4" x="486.9932" y="344.7473"/><text fill="#000000" font-family="Verdana" font-size="14" lengthAdjust="spacing" textLength="69.9932" x="414" y="367.8225">UI Thread</text></g><!--entity RenderThread--><g class="entity" data-entity="RenderThread" data-source-line="10" data-uid="ent0005" id="entity_RenderThread"><rect fill="#ADD8E6" height="47.0146" rx="2.5" ry="2.5" style="stroke:#000000;stroke-width:1;" width="143.8242" x="397.09" y="816.7973"/><rect fill="#ADD8E6" height="10" style="stroke:#000000;stroke-width:1;" width="15" x="520.9142" y="821.7973"/><rect fill="#ADD8E6" height="2" style="stroke:#000000;stroke-width:1;" width="4" x="518.9142" y="823.7973"/><rect fill="#ADD8E6" height="2" style="stroke:#000000;stroke-width:1;" width="4" x="518.9142" y="827.7973"/><text fill="#000000" font-family="Verdana" font-size="14" lengthAdjust="spacing" textLength="103.8242" x="412.09" y="850.8725">Render Thread</text></g><!--entity Bridge--><g class="entity" data-entity="Bridge" data-source-line="18" data-uid="ent0010" id="entity_Bridge"><rect fill="#90EE90" height="47.0146" rx="2.5" ry="2.5" style="stroke:#000000;stroke-width:1;" width="112.1055" x="320.95" y="505.7673"/><rect fill="#90EE90" height="10" style="stroke:#000000;stroke-width:1;" width="15" x="413.0555" y="510.7673"/><rect fill="#90EE90" height="2" style="stroke:#000000;stroke-width:1;" width="4" x="411.0555" y="512.7673"/><rect fill="#90EE90" height="2" style="stroke:#000000;stroke-width:1;" width="4" x="411.0555" y="516.7673"/><text fill="#000000" font-family="Verdana" font-size="14" lengthAdjust="spacing" textLength="72.1055" x="335.95" y="539.8425">FFI Bridge</text></g><!--entity Loop--><g class="entity" data-entity="Loop" data-source-line="19" data-uid="ent0011" id="entity_Loop"><rect fill="#90EE90" height="47.0146" rx="2.5" ry="2.5" style="stroke:#000000;stroke-width:1;" width="118.2852" x="267.86" y="143.7373"/><rect fill="#90EE90" height="10" style="stroke:#000000;stroke-width:1;" width="15" x="366.1452" y="148.7373"/><rect fill="#90EE90" height="2" style="stroke:#000000;stroke-width:1;" width="4" x="364.1452" y="150.7373"/><rect fill="#90EE90" height="2" style="stroke:#000000;stroke-width:1;" width="4" x="364.1452" y="154.7373"/><text fill="#000000" font-family="Verdana" font-size="14" lengthAdjust="spacing" textLength="78.2852" x="282.86" y="177.8125">Event Loop</text></g><!--entity Server--><g class="entity" data-entity="Server" data-source-line="13" data-uid="ent0007" id="entity_Server"><rect fill="#FFFFE0" height="47.0146" rx="2.5" ry="2.5" style="stroke:#000000;stroke-width:1;" width="127.6846" x="61.16" y="143.7373"/><rect fill="#FFFFE0" height="10" style="stroke:#000000;stroke-width:1;" width="15" x="168.8446" y="148.7373"/><rect fill="#FFFFE0" height="2" style="stroke:#000000;stroke-width:1;" width="4" x="166.8446" y="150.7373"/><rect fill="#FFFFE0" height="2" style="stroke:#000000;stroke-width:1;" width="4" x="166.8446" y="154.7373"/><text fill="#000000" font-family="Verdana" font-size="14" lengthAdjust="spacing" textLength="87.6846" x="76.16" y="177.8125">tmux Server</text></g><!--entity SessionMgr--><g class="entity" data-entity="SessionMgr" data-source-line="14" data-uid="ent0008" id="entity_SessionMgr"><rect fill="#FFFFE0" height="47.0146" rx="2.5" ry="2.5" style="stroke:#000000;stroke-width:1;" width="159.1299" x="61.44" y="333.7473"/><rect fill="#FFFFE0" height="10" style="stroke:#000000;stroke-width:1;" width="15" x="200.5699" y="338.7473"/><rect fill="#FFFFE0" height="2" style="stroke:#000000;stroke-width:1;" width="4" x="198.5699" y="340.7473"/><rect fill="#FFFFE0" height="2" style="stroke:#000000;stroke-width:1;" width="4" x="198.5699" y="344.7473"/><text fill="#000000" font-family="Verdana" font-size="14" lengthAdjust="spacing" textLength="119.1299" x="76.44" y="367.8225">Session Manager</text></g><!--entity Grids--><g class="entity" data-entity="Grids" data-source-line="15" data-uid="ent0009" id="entity_Grids"><rect fill="#FFFFE0" height="47.0146" rx="2.5" ry="2.5" style="stroke:#000000;stroke-width:1;" width="124.2256" x="91.89" y="505.7673"/><rect fill="#FFFFE0" height="10" style="stroke:#000000;stroke-width:1;" width="15" x="196.1156" y="510.7673"/><rect fill="#FFFFE0" height="2" style="stroke:#000000;stroke-width:1;" width="4" x="194.1156" y="512.7673"/><rect fill="#FFFFE0" height="2" style="stroke:#000000;stroke-width:1;" width="4" x="194.1156" y="516.7673"/><text fill="#000000" font-family="Verdana" font-size="14" lengthAdjust="spacing" textLength="84.2256" x="106.89" y="539.8425">Grid Buffers</text></g><!--entity GridData--><g class="entity" data-entity="GridData" data-source-line="22" data-uid="ent0013" id="entity_GridData"><rect fill="#FFFFFF" height="37.0146" rx="35" ry="35" style="stroke:#000000;stroke-width:1;" width="87.4365" x="149.28" y="684.7773"/><text fill="#000000" font-family="Verdana" font-size="14" lengthAdjust="spacing" textLength="67.4365" x="159.28" y="708.8525">Grid Data</text></g><!--entity LayoutInfo--><g class="entity" data-entity="LayoutInfo" data-source-line="23" data-uid="ent0014" id="entity_LayoutInfo"><rect fill="#FFFFFF" height="37.0146" rx="35" ry="35" style="stroke:#000000;stroke-width:1;" width="100.4521" x="271.77" y="684.7773"/><text fill="#000000" font-family="Verdana" font-size="14" lengthAdjust="spacing" textLength="80.4521" x="281.77" y="708.8525">Layout Info</text></g><!--entity Shell1--><g class="entity" data-entity="Shell1" data-source-line="28" data-uid="ent0016" id="entity_Shell1"><rect fill="#FFC0CB" height="47.0146" rx="2.5" ry="2.5" style="stroke:#000000;stroke-width:1;" width="88.2754" x="1194.86" y="505.7673"/><rect fill="#FFC0CB" height="10" style="stroke:#000000;stroke-width:1;" width="15" x="1263.1354" y="510.7673"/><rect fill="#FFC0CB" height="2" style="stroke:#000000;stroke-width:1;" width="4" x="1261.1354" y="512.7673"/><rect fill="#FFC0CB" height="2" style="stroke:#000000;stroke-width:1;" width="4" x="1261.1354" y="516.7673"/><text fill="#000000" font-family="Verdana" font-size="14" lengthAdjust="spacing" textLength="48.2754" x="1209.86" y="539.8425">Shell 1</text></g><!--entity Shell2--><g class="entity" data-entity="Shell2" data-source-line="29" data-uid="ent0017" id="entity_Shell2"><rect fill="#FFC0CB" height="47.0146" rx="2.5" ry="2.5" style="stroke:#000000;stroke-width:1;" width="88.2754" x="1317.86" y="505.7673"/><rect fill="#FFC0CB" height="10" style="stroke:#000000;stroke-width:1;" width="15" x="1386.1354" y="510.7673"/><rect fill="#FFC0CB" height="2" style="stroke:#000000;stroke-width:1;" width="4" x="1384.1354" y="512.7673"/><rect fill="#FFC0CB" height="2" style="stroke:#000000;stroke-width:1;" width="4" x="1384.1354" y="516.7673"/><text fill="#000000" font-family="Verdana" font-size="14" lengthAdjust="spacing" textLength="48.2754" x="1332.86" y="539.8425">Shell 2</text></g><!--entity Vim--><g class="entity" data-entity="Vim" data-source-line="30" data-uid="ent0018" id="entity_Vim"><rect fill="#FFC0CB" height="47.0146" rx="2.5" ry="2.5" style="stroke:#000000;stroke-width:1;" width="65.7441" x="1441.13" y="505.7673"/><rect fill="#FFC0CB" height="10" style="stroke:#000000;stroke-width:1;" width="15" x="1486.8741" y="510.7673"/><rect fill="#FFC0CB" height="2" style="stroke:#000000;stroke-width:1;" width="4" x="1484.8741" y="512.7673"/><rect fill="#FFC0CB" height="2" style="stroke:#000000;stroke-width:1;" width="4" x="1484.8741" y="516.7673"/><text fill="#000000" font-family="Verdana" font-size="14" lengthAdjust="spacing" textLength="25.7441" x="1456.13" y="539.8425">vim</text></g><!--entity GPULib--><g class="entity" data-entity="GPULib" data-source-line="34" data-uid="ent0020" id="entity_GPULib"><rect fill="#00FFFF" height="47.0146" rx="2.5" ry="2.5" style="stroke:#000000;stroke-width:1;" width="139.8525" x="399.07" y="969.8073"/><rect fill="#00FFFF" height="10" style="stroke:#000000;stroke-width:1;" width="15" x="518.9225" y="974.8073"/><rect fill="#00FFFF" height="2" style="stroke:#000000;stroke-width:1;" width="4" x="516.9225" y="976.8073"/><rect fill="#00FFFF" height="2" style="stroke:#000000;stroke-width:1;" width="4" x="516.9225" y="980.8073"/><text fill="#000000" font-family="Verdana" font-size="14" lengthAdjust="spacing" textLength="99.8525" x="414.07" y="1003.8825">Metal/OpenGL</text></g><!--entity FB--><g class="entity" data-entity="FB" data-source-line="35" data-uid="ent0021" id="entity_FB"><rect fill="#00FFFF" height="47.0146" rx="2.5" ry="2.5" style="stroke:#000000;stroke-width:1;" width="131.9229" x="403.04" y="1093.8273"/><rect fill="#00FFFF" height="10" style="stroke:#000000;stroke-width:1;" width="15" x="514.9629" y="1098.8273"/><rect fill="#00FFFF" height="2" style="stroke:#000000;stroke-width:1;" width="4" x="512.9629" y="1100.8273"/><rect fill="#00FFFF" height="2" style="stroke:#000000;stroke-width:1;" width="4" x="512.9629" y="1104.8273"/><text fill="#000000" font-family="Verdana" font-size="14" lengthAdjust="spacing" textLength="91.9229" x="418.04" y="1127.9025">Frame Buffer</text></g><!--entity TmuxConf--><g class="entity" data-entity="TmuxConf" data-source-line="40" data-uid="ent0024" id="entity_TmuxConf"><path d="M627.98,341.2473 L627.98,373.262 A2.5,2.5 0 0 0 630.48,375.762 L721.5161,375.762 A2.5,2.5 0 0 0 724.0161,373.262 L724.0161,348.7473 L714.0161,338.7473 L630.48,338.7473 A2.5,2.5 0 0 0 627.98,341.2473" fill="#FFFFFF" style="stroke:#000000;stroke-width:1;"/><path d="M714.0161,338.7473 L714.0161,346.2473 A2.5,2.5 0 0 0 716.5161,348.7473 L724.0161,348.7473" fill="#FFFFFF" style="stroke:#000000;stroke-width:1;"/><text fill="#000000" font-family="Verdana" font-size="14" lengthAdjust="spacing" textLength="76.0361" x="637.98" y="362.8225">.tmux.conf</text></g><!--entity GhosttyConf--><g class="entity" data-entity="GhosttyConf" data-source-line="41" data-uid="ent0025" id="entity_GhosttyConf"><path d="M759.32,341.2473 L759.32,373.262 A2.5,2.5 0 0 0 761.82,375.762 L864.1764,375.762 A2.5,2.5 0 0 0 866.6764,373.262 L866.6764,348.7473 L856.6764,338.7473 L761.82,338.7473 A2.5,2.5 0 0 0 759.32,341.2473" fill="#FFFFFF" style="stroke:#000000;stroke-width:1;"/><path d="M856.6764,338.7473 L856.6764,346.2473 A2.5,2.5 0 0 0 859.1764,348.7473 L866.6764,348.7473" fill="#FFFFFF" style="stroke:#000000;stroke-width:1;"/><text fill="#000000" font-family="Verdana" font-size="14" lengthAdjust="spacing" textLength="87.3564" x="769.32" y="362.8225">ghostty.conf</text></g><!--entity Socket--><g class="entity" data-entity="Socket" data-source-line="45" data-uid="ent0027" id="entity_Socket"><path d="M1041.7,341.2473 L1041.7,373.262 A2.5,2.5 0 0 0 1044.2,375.762 L1145.7977,375.762 A2.5,2.5 0 0 0 1148.2977,373.262 L1148.2977,348.7473 L1138.2977,338.7473 L1044.2,338.7473 A2.5,2.5 0 0 0 1041.7,341.2473" fill="#FFFFFF" style="stroke:#000000;stroke-width:1;"/><path d="M1138.2977,338.7473 L1138.2977,346.2473 A2.5,2.5 0 0 0 1140.7977,348.7473 L1148.2977,348.7473" fill="#FFFFFF" style="stroke:#000000;stroke-width:1;"/><text fill="#000000" font-family="Verdana" font-size="14" lengthAdjust="spacing" textLength="86.5977" x="1051.7" y="362.8225">tmux.socket</text></g><!--entity Log--><g class="entity" data-entity="Log" data-source-line="46" data-uid="ent0028" id="entity_Log"><path d="M923.01,341.2473 L923.01,373.262 A2.5,2.5 0 0 0 925.51,375.762 L1004.4944,375.762 A2.5,2.5 0 0 0 1006.9944,373.262 L1006.9944,348.7473 L996.9944,338.7473 L925.51,338.7473 A2.5,2.5 0 0 0 923.01,341.2473" fill="#FFFFFF" style="stroke:#000000;stroke-width:1;"/><path d="M996.9944,338.7473 L996.9944,346.2473 A2.5,2.5 0 0 0 999.4944,348.7473 L1006.9944,348.7473" fill="#FFFFFF" style="stroke:#000000;stroke-width:1;"/><text fill="#000000" font-family="Verdana" font-size="14" lengthAdjust="spacing" textLength="63.9844" x="933.01" y="362.8225">crash.log</text></g><!--entity SSH--><g class="entity" data-entity="SSH" data-source-line="88" data-uid="ent0056" id="entity_SSH"><rect fill="#FFFFFF" height="47.0146" rx="2.5" ry="2.5" style="stroke:#000000;stroke-width:1;" width="121.0674" x="1017.47" y="505.7673"/><rect fill="#FFFFFF" height="10" style="stroke:#000000;stroke-width:1;" width="15" x="1118.5374" y="510.7673"/><rect fill="#FFFFFF" height="2" style="stroke:#000000;stroke-width:1;" width="4" x="1116.5374" y="512.7673"/><rect fill="#FFFFFF" height="2" style="stroke:#000000;stroke-width:1;" width="4" x="1116.5374" y="516.7673"/><text fill="#000000" font-family="Verdana" font-size="14" lengthAdjust="spacing" textLength="81.0674" x="1032.47" y="539.8425">SSH Server</text></g><!--entity TClient--><g class="entity" data-entity="TClient" data-source-line="89" data-uid="ent0057" id="entity_TClient"><rect fill="#FFFFFF" height="47.0146" rx="2.5" ry="2.5" style="stroke:#000000;stroke-width:1;" width="121.375" x="861.31" y="505.7673"/><rect fill="#FFFFFF" height="10" style="stroke:#000000;stroke-width:1;" width="15" x="962.685" y="510.7673"/><rect fill="#FFFFFF" height="2" style="stroke:#000000;stroke-width:1;" width="4" x="960.685" y="512.7673"/><rect fill="#FFFFFF" height="2" style="stroke:#000000;stroke-width:1;" width="4" x="960.685" y="516.7673"/><text fill="#000000" font-family="Verdana" font-size="14" lengthAdjust="spacing" textLength="81.375" x="876.31" y="539.8425">tmux Client</text></g><g class="entity" data-entity="GMN49" data-source-line="78" data-uid="ent0050" id="entity_GMN49"><path d="M580.11,682.4873 L580.11,724.0859 L753.8854,724.0859 L753.8854,692.4873 L743.8854,682.4873 L580.11,682.4873" fill="#FFFFFF" style="stroke:#000000;stroke-width:1;"/><path d="M743.8854,682.4873 L743.8854,692.4873 L753.8854,692.4873 L743.8854,682.4873" fill="#FFFFFF" style="stroke:#000000;stroke-width:1;"/><text fill="#000000" font-family="Verdana" font-size="13" lengthAdjust="spacing" textLength="152.7754" x="586.11" y="700.5571">Zero-copy grid updates</text><text fill="#000000" font-family="Verdana" font-size="13" lengthAdjust="spacing" textLength="126.5723" x="599.2116" y="716.3564">via shared memory</text></g><g class="entity" data-entity="GMN52" data-source-line="83" data-uid="ent0053" id="entity_GMN52"><path d="M788.43,682.4873 L788.43,724.0859 L949.5799,724.0859 L949.5799,692.4873 L939.5799,682.4873 L788.43,682.4873" fill="#FFFFFF" style="stroke:#000000;stroke-width:1;"/><path d="M939.5799,682.4873 L939.5799,692.4873 L949.5799,692.4873 L939.5799,682.4873" fill="#FFFFFF" style="stroke:#000000;stroke-width:1;"/><text fill="#000000" font-family="Verdana" font-size="13" lengthAdjust="spacing" textLength="140.1499" x="794.43" y="700.5571">Thread-safe FFI layer</text><text fill="#000000" font-family="Verdana" font-size="13" lengthAdjust="spacing" textLength="135.7002" x="796.6549" y="716.3564">marshaling callbacks</text></g><!--link App to UIThread--><g class="link" data-entity-1="App" data-entity-2="UIThread" data-source-line="51" data-uid="lnk29" id="link_App_UIThread"><path d="M467.93,191.0773 C462.34,199.8773 456.85,210.3373 454,220.7473 C443.46,259.3273 446.1546,300.4763 449.6646,327.7663" fill="none" id="App-to-UIThread" style="stroke:#000000;stroke-width:1;"/><polygon fill="#000000" points="450.43,333.7173,453.2492,324.2806,449.7922,328.7582,445.3146,325.3011,450.43,333.7173" style="stroke:#000000;stroke-width:1;"/><text fill="#000000" font-family="Verdana" font-size="13" lengthAdjust="spacing" textLength="80.5645" x="455" y="234.8171">Main Thread</text></g><!--link App to RenderThread--><g class="link" data-entity-1="App" data-entity-2="RenderThread" data-source-line="52" data-uid="lnk30" id="link_App_RenderThread"><path d="M517.34,191.0073 C526.41,199.2273 535.12,209.3373 540,220.7473 C542.97,227.6973 540.28,230.1973 540,237.7473 C531.47,464.7373 487.813,731.0252 474.053,810.5452" fill="none" id="App-to-RenderThread" style="stroke:#000000;stroke-width:1;"/><polygon fill="#000000" points="473.03,816.4573,478.506,808.2711,473.8825,811.5305,470.6231,806.9071,473.03,816.4573" style="stroke:#000000;stroke-width:1;"/><text fill="#000000" font-family="Verdana" font-size="13" lengthAdjust="spacing" textLength="43.6592" x="524.37" y="534.8371">Spawn</text></g><!--link UIThread to Bridge--><g class="link" data-entity-1="UIThread" data-entity-2="Bridge" data-source-line="53" data-uid="lnk31" id="link_UIThread_Bridge"><path d="M443.62,381.1873 C428.88,413.7273 404.5361,467.4821 389.8161,499.9721" fill="none" id="UIThread-to-Bridge" style="stroke:#000000;stroke-width:1;"/><polygon fill="#000000" points="387.34,505.4373,394.6976,498.8902,389.4034,500.8829,387.4106,495.5887,387.34,505.4373" style="stroke:#000000;stroke-width:1;"/><text fill="#000000" font-family="Verdana" font-size="13" lengthAdjust="spacing" textLength="73.1631" x="421.11" y="445.8371">Commands</text></g><!--link Bridge to Server--><g class="link" data-entity-1="Bridge" data-entity-2="Server" data-source-line="54" data-uid="lnk32" id="link_Bridge_Server"><path d="M360.24,505.4073 C345.55,484.7573 324.24,453.1673 309,423.7673 C269.8,348.1373 291.2,312.2773 238,245.7473 C219.87,223.0873 198.5391,207.4466 175.7491,194.1166" fill="none" id="Bridge-to-Server" style="stroke:#000000;stroke-width:1;"/><polygon fill="#000000" points="170.57,191.0873,176.3192,199.084,174.8859,193.6117,180.3582,192.1785,170.57,191.0873" style="stroke:#000000;stroke-width:1;"/><text fill="#000000" font-family="Verdana" font-size="13" lengthAdjust="spacing" textLength="71.208" x="310" y="362.8271">C API Calls</text></g><!--link Server to SessionMgr--><g class="link" data-entity-1="Server" data-entity-2="SessionMgr" data-source-line="55" data-uid="lnk33" id="link_Server_SessionMgr"><path d="M106.12,191.1073 C100.06,199.8373 94.11,210.2273 91,220.7473 C88.86,227.9973 89.5,230.3473 91,237.7473 C98.09,272.7673 113.0388,305.0066 125.3588,328.2366" fill="none" id="Server-to-SessionMgr" style="stroke:#000000;stroke-width:1;"/><polygon fill="#000000" points="128.17,333.5373,127.487,323.7122,125.8273,329.1201,120.4194,327.4604,128.17,333.5373" style="stroke:#000000;stroke-width:1;"/><text fill="#000000" font-family="Verdana" font-size="13" lengthAdjust="spacing" textLength="50.6416" x="92" y="234.8171">Manage</text></g><!--link SessionMgr to Grids--><g class="link" data-entity-1="SessionMgr" data-entity-2="Grids" data-source-line="56" data-uid="lnk34" id="link_SessionMgr_Grids"><path d="M123.98,380.9373 C112.5,399.0073 100.54,425.1273 107,448.7673 C112.67,469.4873 121.8091,485.4031 132.5391,500.5331" fill="none" id="SessionMgr-to-Grids" style="stroke:#000000;stroke-width:1;"/><polygon fill="#000000" points="136.01,505.4273,134.0665,495.7721,133.1176,501.3488,127.5409,500.4,136.01,505.4273" style="stroke:#000000;stroke-width:1;"/><text fill="#000000" font-family="Verdana" font-size="13" lengthAdjust="spacing" textLength="46.3887" x="108" y="445.8371">Update</text></g><!--link Server to Loop--><g class="link" data-entity-1="Server" data-entity-2="Loop" data-source-line="58" data-uid="lnk35" id="link_Server_Loop"><path d="M189.19,167.2373 C214.26,167.2373 236.83,167.2373 261.44,167.2373" fill="none" id="Server-to-Loop" style="stroke:#000000;stroke-width:1;"/><polygon fill="#000000" points="267.44,167.2373,258.44,163.2373,262.44,167.2373,258.44,171.2373,267.44,167.2373" style="stroke:#000000;stroke-width:1;"/><text fill="#000000" font-family="Verdana" font-size="13" lengthAdjust="spacing" textLength="43.7798" x="206.85" y="161.3071">Events</text></g><!--link Loop to UIThread--><g class="link" data-entity-1="Loop" data-entity-2="UIThread" data-source-line="59" data-uid="lnk36" id="link_Loop_UIThread"><path d="M342.32,190.9173 C366.73,227.0573 410.8211,292.3356 435.2711,328.5256" fill="none" id="Loop-to-UIThread" style="stroke:#000000;stroke-width:1;"/><polygon fill="#000000" points="438.63,333.4973,436.9061,323.8005,435.8309,329.3542,430.2772,328.279,438.63,333.4973" style="stroke:#000000;stroke-width:1;"/><text fill="#000000" font-family="Verdana" font-size="13" lengthAdjust="spacing" textLength="61.166" x="372.7" y="234.8171">Callbacks</text></g><!--link Grids to SHM--><g class="link" data-entity-1="Grids" data-entity-2="SHM" data-source-line="61" data-uid="lnk37" id="link_Grids_SHM"><path d="M162.89,552.9673 C170.73,569.6573 183.92,591.1873 203,601.7773 C220.99,611.7673 372.27,596.5173 388,609.7773 C391.9575,613.1136 395.2439,617.0293 397.9645,621.3315 C398.6446,622.4071 399.2894,623.5068 399.9004,624.6276 C400.0532,624.9078 397.4133,619.8777 397.5619,620.1605" fill="none" id="Grids-to-SHM" style="stroke:#000000;stroke-width:1;"/><polygon fill="#000000" points="400.3524,625.4721,399.7077,615.6444,398.027,621.0458,392.6256,619.3651,400.3524,625.4721" style="stroke:#000000;stroke-width:1;"/><text fill="#000000" font-family="Verdana" font-size="13" lengthAdjust="spacing" textLength="34.8359" x="204" y="598.8471">Write</text></g><!--link Bridge to SHM--><g class="link" data-entity-1="Bridge" data-entity-2="SHM" data-source-line="62" data-uid="lnk38" id="link_Bridge_SHM"><path d="M381.12,553.1173 C383.195,564.6323 385.8769,579.5136 388.7413,595.4068 C390.1734,603.3535 391.6513,611.5531 393.1216,619.7115 C393.3054,620.7313 393.4891,621.7505 393.6726,622.7684 C393.7643,623.2774 393.856,623.786 393.9476,624.2943 C393.9934,624.5484 392.975,618.8976 393.0207,619.1516" fill="none" id="Bridge-to-SHM" style="stroke:#000000;stroke-width:1;"/><polygon fill="#000000" points="394.085,625.0564,396.4252,615.4896,393.1981,620.1357,388.552,616.9086,394.085,625.0564" style="stroke:#000000;stroke-width:1;"/><text fill="#000000" font-family="Verdana" font-size="13" lengthAdjust="spacing" textLength="32.6904" x="390.72" y="598.8471">Read</text></g><!--link SHM to RenderThread--><g class="link" data-entity-1="SHM" data-entity-2="RenderThread" data-source-line="63" data-uid="lnk39" id="link_SHM_RenderThread"><path d="M408.0966,745.9436 C408.1115,746.0424 408.1266,746.1412 408.1418,746.24 C408.1722,746.4375 408.2032,746.6351 408.2347,746.8326 C408.2978,747.2276 408.3632,747.6223 408.431,748.0167 C408.702,749.5943 409.0108,751.1659 409.3614,752.722 C410.0627,755.8343 410.9313,758.8848 412,761.7973 C419.54,782.3373 430.3467,797.6251 442.9467,812.0751" fill="none" id="SHM-to-RenderThread" style="stroke:#000000;stroke-width:1;"/><polygon fill="#000000" points="446.89,816.5973,443.9899,807.1851,443.6039,812.8288,437.9603,812.4428,446.89,816.5973" style="stroke:#000000;stroke-width:1;"/><text fill="#000000" font-family="Verdana" font-size="13" lengthAdjust="spacing" textLength="32.6904" x="424.59" y="783.8671">Read</text></g><!--link RenderThread to GPULib--><g class="link" data-entity-1="RenderThread" data-entity-2="GPULib" data-source-line="65" data-uid="lnk40" id="link_RenderThread_GPULib"><path d="M469,864.2373 C469,892.7873 469,935.2373 469,963.6573" fill="none" id="RenderThread-to-GPULib" style="stroke:#000000;stroke-width:1;"/><polygon fill="#000000" points="469,969.6573,473,960.6573,469,964.6573,465,960.6573,469,969.6573" style="stroke:#000000;stroke-width:1;"/><text fill="#000000" font-family="Verdana" font-size="13" lengthAdjust="spacing" textLength="69.3735" x="470" y="909.8771">Draw Calls</text></g><!--link GPULib to FB--><g class="link" data-entity-1="GPULib" data-entity-2="FB" data-source-line="66" data-uid="lnk41" id="link_GPULib_FB"><path d="M469,1017.2673 C469,1039.0773 469,1065.7073 469,1087.4873" fill="none" id="GPULib-to-FB" style="stroke:#000000;stroke-width:1;"/><polygon fill="#000000" points="469,1093.4873,473,1084.4873,469,1088.4873,465,1084.4873,469,1093.4873" style="stroke:#000000;stroke-width:1;"/><text fill="#000000" font-family="Verdana" font-size="13" lengthAdjust="spacing" textLength="46.4014" x="470" y="1060.8971">Render</text></g><!--link Server to Shell1--><g class="link" data-entity-1="Server" data-entity-2="Shell1" data-source-line="68" data-uid="lnk42" id="link_Server_Shell1"><path d="M189.31,190.0173 C190.55,190.2773 191.78,190.5273 193,190.7473 C299.25,210.4373 1080.9,176.6773 1164,245.7473 C1243.22,311.5973 1244.298,444.6768 1241.208,499.4368" fill="none" id="Server-to-Shell1" style="stroke:#000000;stroke-width:1;stroke-dasharray:7,7;"/><polygon fill="#000000" points="1240.87,505.4273,1245.3707,496.667,1241.1517,500.4352,1237.3834,496.2162,1240.87,505.4273" style="stroke:#000000;stroke-width:1;"/><text fill="#000000" font-family="Verdana" font-size="13" lengthAdjust="spacing" textLength="23.8481" x="1240.36" y="362.8271">PTY</text></g><!--link Server to Shell2--><g class="link" data-entity-1="Server" data-entity-2="Shell2" data-source-line="69" data-uid="lnk43" id="link_Server_Shell2"><path d="M189.3,190.0473 C190.54,190.2973 191.78,190.5373 193,190.7473 C401.41,227.7173 934.69,196.8973 1145,220.7473 C1202.16,227.2373 1229.07,207.4573 1272,245.7473 C1349.79,315.1373 1360.6955,445.5288 1361.9055,499.5088" fill="none" id="Server-to-Shell2" style="stroke:#000000;stroke-width:1;stroke-dasharray:7,7;"/><polygon fill="#000000" points="1362.04,505.5073,1365.8373,496.4199,1361.9279,500.5086,1357.8393,496.5992,1362.04,505.5073" style="stroke:#000000;stroke-width:1;"/><text fill="#000000" font-family="Verdana" font-size="13" lengthAdjust="spacing" textLength="23.8481" x="1354.88" y="362.8271">PTY</text></g><!--link Server to Vim--><g class="link" data-entity-1="Server" data-entity-2="Vim" data-source-line="70" data-uid="lnk44" id="link_Server_Vim"><path d="M189.3,190.0473 C190.54,190.2973 191.78,190.5373 193,190.7473 C419.83,230.6873 999.68,199.3773 1229,220.7473 C1299.79,227.3473 1334.88,197.3873 1387,245.7473 C1446.59,301.0373 1403.49,346.5773 1429,423.7673 C1438.54,452.6473 1450.3152,479.1778 1460.2352,500.0578" fill="none" id="Server-to-Vim" style="stroke:#000000;stroke-width:1;stroke-dasharray:7,7;"/><polygon fill="#000000" points="1462.81,505.4773,1462.5608,495.6316,1460.6644,500.9611,1455.3349,499.0646,1462.81,505.4773" style="stroke:#000000;stroke-width:1;"/><text fill="#000000" font-family="Verdana" font-size="13" lengthAdjust="spacing" textLength="23.8481" x="1430" y="362.8271">PTY</text></g><!--link App to TmuxConf--><g class="link" data-entity-1="App" data-entity-2="TmuxConf" data-source-line="72" data-uid="lnk45" id="link_App_TmuxConf"><path d="M513.33,191.1473 C524.1,200.1273 536.33,210.6873 547,220.7473 C589.76,261.0973 632.5314,307.6628 656.2714,334.1028" fill="none" id="App-to-TmuxConf" style="stroke:#000000;stroke-width:1;"/><polygon fill="#000000" points="660.28,338.5673,657.2435,329.1982,656.9395,334.8469,651.2908,334.543,660.28,338.5673" style="stroke:#000000;stroke-width:1;"/><text fill="#000000" font-family="Verdana" font-size="13" lengthAdjust="spacing" textLength="31.0337" x="562.63" y="234.8171">Load</text></g><!--link App to GhosttyConf--><g class="link" data-entity-1="App" data-entity-2="GhosttyConf" data-source-line="73" data-uid="lnk46" id="link_App_GhosttyConf"><path d="M548.82,171.5073 C625.62,176.7773 748.33,189.8773 781,220.7473 C813.68,251.6373 816.0273,303.1833 814.7273,332.3333" fill="none" id="App-to-GhosttyConf" style="stroke:#000000;stroke-width:1;"/><polygon fill="#000000" points="814.46,338.3273,818.857,329.5145,814.6828,333.3323,810.8649,329.158,814.46,338.3273" style="stroke:#000000;stroke-width:1;"/><text fill="#000000" font-family="Verdana" font-size="13" lengthAdjust="spacing" textLength="31.0337" x="793.82" y="234.8171">Load</text></g><!--link Server to Socket--><g class="link" data-entity-1="Server" data-entity-2="Socket" data-source-line="74" data-uid="lnk47" id="link_Server_Socket"><path d="M189.31,189.9973 C190.55,190.2673 191.78,190.5173 193,190.7473 C415.13,233.3073 483.25,159.6273 701,220.7473 C716.51,225.0973 717.43,233.6373 733,237.7473 C764.28,245.9973 995.83,229.8573 1024,245.7473 C1059.95,266.0273 1078.5789,307.2138 1087.5689,332.9138" fill="none" id="Server-to-Socket" style="stroke:#000000;stroke-width:1;"/><polygon fill="#000000" points="1089.55,338.5773,1090.354,328.7613,1087.8991,333.8577,1082.8027,331.4028,1089.55,338.5773" style="stroke:#000000;stroke-width:1;"/><text fill="#000000" font-family="Verdana" font-size="13" lengthAdjust="spacing" textLength="38.6699" x="734" y="234.8171">Listen</text></g><!--link Server to Log--><g class="link" data-entity-1="Server" data-entity-2="Log" data-source-line="75" data-uid="lnk48" id="link_Server_Log"><path d="M189.32,189.9773 C190.55,190.2473 191.78,190.5073 193,190.7473 C372.2,226.3973 423.64,185.9373 603,220.7473 C627.28,225.4673 631.63,233.4973 656,237.7473 C680.86,242.0873 860.66,234.0073 883,245.7473 C921.28,265.8673 943.983,307.2945 955.433,333.0545" fill="none" id="Server-to-Log" style="stroke:#000000;stroke-width:1;"/><polygon fill="#000000" points="957.87,338.5373,957.8696,328.6884,955.8391,333.9683,950.5593,331.9378,957.87,338.5373" style="stroke:#000000;stroke-width:1;"/><text fill="#000000" font-family="Verdana" font-size="13" lengthAdjust="spacing" textLength="39.5269" x="657" y="234.8171">Errors</text></g><!--link SHM to GMN49--><g class="link" data-entity-1="SHM" data-entity-2="GMN49" data-source-line="78" data-uid="lnk51" id="link_SHM_GMN49"><path d="M416.1064,703.2873 C416.329,703.2873 416.5517,703.2873 416.7743,703.2873 C417.6648,703.2873 418.5553,703.2873 419.4457,703.2873 C423.0077,703.2873 426.5697,703.2873 430.1317,703.2873 C437.2557,703.2873 444.3798,703.2873 451.5041,703.2873 C465.7525,703.2873 480.0013,703.2873 494.25,703.2873 C522.7475,703.2873 551.245,703.2873 579.74,703.2873" fill="none" id="SHM-GMN49" style="stroke:#000000;stroke-width:1;stroke-dasharray:7,7;"/></g><!--link Bridge to GMN52--><g class="link" data-entity-1="Bridge" data-entity-2="GMN52" data-source-line="83" data-uid="lnk54" id="link_Bridge_GMN52"><path d="M410.7,553.2573 C425.25,562.0773 442.84,571.3173 460,576.7773 C592.45,618.9473 644.72,551.6873 771,609.7773 C806.28,626.0073 837.02,660.0873 854.26,682.0473" fill="none" id="Bridge-GMN52" style="stroke:#000000;stroke-width:1;stroke-dasharray:7,7;"/></g><!--link Socket to TClient--><g class="link" data-entity-1="Socket" data-entity-2="TClient" data-source-line="92" data-uid="lnk58" id="link_Socket_TClient"><path d="M1076.81,376.1273 C1045.15,407.2473 984.2287,467.1111 949.4087,501.3411" fill="none" id="Socket-to-TClient" style="stroke:#000000;stroke-width:1;stroke-dasharray:7,7;"/><polygon fill="#000000" points="945.13,505.5473,954.3523,502.0904,948.6956,502.0421,948.7439,496.3855,945.13,505.5473" style="stroke:#000000;stroke-width:1;"/><text fill="#000000" font-family="Verdana" font-size="13" lengthAdjust="spacing" textLength="53.0601" x="1019.86" y="445.8371">Connect</text></g><!--link App to SSH--><g class="link" data-entity-1="App" data-entity-2="SSH" data-source-line="93" data-uid="lnk59" id="link_App_SSH"><path d="M548.58,169.6573 C758.73,174.6073 1419.62,192.3773 1455,220.7473 C1510.92,265.5973 1635.19,229.2073 1462,423.7673 C1419.9,471.0573 1238.12,434.0973 1179,456.7673 C1150.11,467.8373 1126.332,485.1802 1107.052,501.6502" fill="none" id="App-to-SSH" style="stroke:#000000;stroke-width:1;stroke-dasharray:7,7;"/><polygon fill="#000000" points="1102.49,505.5473,1111.9312,502.743,1106.2917,502.2997,1106.735,496.6602,1102.49,505.5473" style="stroke:#000000;stroke-width:1;"/><text fill="#000000" font-family="Verdana" font-size="13" lengthAdjust="spacing" textLength="50.1846" x="1551.65" y="362.8271">Remote</text></g><!--SRC=[XLL1R-is3BxxLt3fOQTcU3twy80sVKa395XG9tju6tPGRDaMAak69BSrXlVVHqfouYJ6beCZaHz9aU97_U9gtd1e9HCgSS993g-TSW9bpxoLkc-uSl1eybeudhlEy2InRqArpB062bwoJhez_tIFKbJAWtFyS3D2ALtmpFNesg0BfYg9JaW8irMjhNCzx8pEkRKp-2S1_EMwQRKYPtyDYCUs_HkOfN-usuYgTa-ouzVemnhsjU6iyDZ3Ecp-m-2LguARiL6GJ1lwJyloDrRXuQKukgRxpBNXSwk7iry580HatBnpuzs7PNJyWqkfFwRCCgo6q0gsJ66imTJBjjN_cw-CAE2fAqjkhBSbWRqr-tbEQsIzNAxX2Gqgxct3CXgl3EVgsk3RE_rjj0vtH8iRkFyKpB4ZirYyh6Q65x3bZJRzpAVtiXsLq3fjV9LzAizeDnloeCqjRiDwtJbOgr9xPDZJDcRwSsYwHIraCRGSdsgwhCOImPTGTLf_WRkTK6_Jk8Spxc4QzouQZ_b3D15mEingTvWum9Ox9d_xlULgjGdtjpjin17k5ZsxgVuIISRZRNlmyYa2Jr6M0jcNzTRnPeXMQacTFrjeLOfgtBqbWMTpwjnvZbfVpZtk27g5gW8zpxZ8rnDqr653n3XWRaFwY5RdRzo5Zl3BAr1kcAtdKbVXbdLrljvV0SCgd3784flGfBY__tgU0YcoIQZ8zPFwWkyfP2txKCd9XX2n_rFqtZHC5JQ94b96FgCI7dThM30fRHA5GNyYRHhPd8na10dSJE7G8ZrmD8wiFPDIyFooYTzTfKG1ZpYHR984FpueKYc5xmPdziLPlVYLigVbHFPUbrm8_Gb3zwNmRDX7p37AI8tzbaPFvzFFAM3WJWgx_OzRnSE4WXWIfASB6ZeFvHizkhXHfmsgSTrzxv12ODUhow9ML5DZjB5448SF4yqgq2ML2FlfJsxqVQxR7YgQFfs_68kATy70XidL-CcLODP0BgAZetPED-Gfr1rjGXtlBIivq6ILhCSw0JJCe2ifL0NvwHBFxdAfkm9ctpxnCLLCZbjxQc9bBnUlJFQIJ3r42obmuo7xi2RUn5hDvry7gMzs7y-NcpGKWMwveTFz2m00]--></g></svg>