<svg xmlns="http://www.w3.org/2000/svg" xmlns:xlink="http://www.w3.org/1999/xlink" contentStyleType="text/css" data-diagram-type="STATE" height="1044px" preserveAspectRatio="none" style="width:1785px;height:1044px;background:#FFFFFF;" version="1.1" viewBox="0 0 1785 1044" width="1785px" zoomAndPan="magnify"><title>Session Lifecycle State Diagram</title><defs/><g><g class="title" data-source-line="2"><text fill="#000000" font-family="Verdana" font-size="22" font-weight="bold" lengthAdjust="spacing" textLength="394.7217" x="690.8992" y="37.1182">Session Lifecycle State Diagram</text></g><!--cluster ProcessStates--><g class="cluster" data-entity="ProcessStates" data-source-line="61" data-uid="ent0002" id="cluster_ProcessStates"><path d="M963.71,320.6273 L1131.71,320.6273 A12.5,12.5 0 0 1 1144.21,333.1273 L1144.21,342.642 L951.21,342.642 L951.21,333.1273 A12.5,12.5 0 0 1 963.71,320.6273" fill="#FFFFFF"/><path d="M951.21,342.642 L1144.21,342.642 L1144.21,1018.1273 A12.5,12.5 0 0 1 1131.71,1030.6273 L963.71,1030.6273 A12.5,12.5 0 0 1 951.21,1018.1273 L951.21,342.642" fill="#FFFFFF"/><rect fill="none" height="710" rx="12.5" ry="12.5" style="stroke:#000000;stroke-width:1;" width="193" x="951.21" y="320.6273"/><line style="stroke:#000000;stroke-width:1;" x1="951.21" x2="1144.21" y1="342.642" y2="342.642"/><text fill="#000000" font-family="Verdana" font-size="14" lengthAdjust="spacing" textLength="97.7813" x="998.8194" y="338.7025">ProcessStates</text></g><ellipse cx="1043.21" cy="374.6273" fill="#FFFFFF" rx="10" ry="10" style="stroke:#000000;stroke-width:1;"/><g id="ProcessStates.Starting"><rect fill="#FFFFFF" height="50" rx="12.5" ry="12.5" style="stroke:#000000;stroke-width:1;" width="76.4102" x="1005" y="476.6273"/><line style="stroke:#000000;stroke-width:1;" x1="1005" x2="1081.4102" y1="503.642" y2="503.642"/><text fill="#000000" font-family="Verdana" font-size="14" lengthAdjust="spacing" textLength="56.4102" x="1015" y="495.7025">Starting</text></g><g id="ProcessStates.Running"><rect fill="#FFFFFF" height="50" rx="12.5" ry="12.5" style="stroke:#000000;stroke-width:1;" width="77.7363" x="975.34" y="603.6273"/><line style="stroke:#000000;stroke-width:1;" x1="975.34" x2="1053.0763" y1="630.642" y2="630.642"/><text fill="#000000" font-family="Verdana" font-size="14" lengthAdjust="spacing" textLength="57.7363" x="985.34" y="622.7025">Running</text></g><g id="ProcessStates.Exiting"><rect fill="#FFFFFF" height="50" rx="12.5" ry="12.5" style="stroke:#000000;stroke-width:1;" width="67.9199" x="980.25" y="730.6273"/><line style="stroke:#000000;stroke-width:1;" x1="980.25" x2="1048.1699" y1="757.642" y2="757.642"/><text fill="#000000" font-family="Verdana" font-size="14" lengthAdjust="spacing" textLength="47.9199" x="990.25" y="749.7025">Exiting</text></g><g id="ProcessStates.Zombie"><rect fill="#FFFFFF" height="50" rx="12.5" ry="12.5" style="stroke:#000000;stroke-width:1;" width="72.6094" x="977.9" y="857.6273"/><line style="stroke:#000000;stroke-width:1;" x1="977.9" x2="1050.5094" y1="884.642" y2="884.642"/><text fill="#000000" font-family="Verdana" font-size="14" lengthAdjust="spacing" textLength="52.6094" x="987.9" y="876.7025">Zombie</text></g><ellipse cx="1014.21" cy="995.6273" fill="none" rx="11" ry="11" style="stroke:#000000;stroke-width:1;"/><ellipse cx="1014.21" cy="995.6273" fill="#FFFFFF" rx="6" ry="6" style="stroke:#000000;stroke-width:1;"/><ellipse cx="1389.21" cy="224.6273" fill="#FFFFFF" rx="10" ry="10" style="stroke:#000000;stroke-width:1;"/><g id="Uninitialized"><rect fill="#FFFFFF" height="50" rx="12.5" ry="12.5" style="stroke:#000000;stroke-width:1;" width="105.5176" x="1336.45" y="349.6273"/><line style="stroke:#000000;stroke-width:1;" x1="1336.45" x2="1441.9676" y1="376.642" y2="376.642"/><text fill="#000000" font-family="Verdana" font-size="14" lengthAdjust="spacing" textLength="85.5176" x="1346.45" y="368.7025">Uninitialized</text></g><g id="Initializing"><rect fill="#FFFFFF" height="50" rx="12.5" ry="12.5" style="stroke:#000000;stroke-width:1;" width="92.8232" x="1335.79" y="476.6273"/><line style="stroke:#000000;stroke-width:1;" x1="1335.79" x2="1428.6132" y1="503.642" y2="503.642"/><text fill="#000000" font-family="Verdana" font-size="14" lengthAdjust="spacing" textLength="72.8232" x="1345.79" y="495.7025">Initializing</text></g><g id="Ready"><rect fill="#FFFFFF" height="50" rx="12.5" ry="12.5" style="stroke:#000000;stroke-width:1;" width="63.4902" x="1408.46" y="603.6273"/><line style="stroke:#000000;stroke-width:1;" x1="1408.46" x2="1471.9502" y1="630.642" y2="630.642"/><text fill="#000000" font-family="Verdana" font-size="14" lengthAdjust="spacing" textLength="43.4902" x="1418.46" y="622.7025">Ready</text></g><g id="Failed"><rect fill="#FFFFFF" height="50" rx="12.5" ry="12.5" style="stroke:#000000;stroke-width:1;" width="61.2002" x="1168.6" y="603.6273"/><line style="stroke:#000000;stroke-width:1;" x1="1168.6" x2="1229.8002" y1="630.642" y2="630.642"/><text fill="#000000" font-family="Verdana" font-size="14" lengthAdjust="spacing" textLength="41.2002" x="1178.6" y="622.7025">Failed</text></g><g id="CreatingSession"><rect fill="#FFFFFF" height="50" rx="12.5" ry="12.5" style="stroke:#000000;stroke-width:1;" width="133.1348" x="1274.64" y="730.6273"/><line style="stroke:#000000;stroke-width:1;" x1="1274.64" x2="1407.7748" y1="757.642" y2="757.642"/><text fill="#000000" font-family="Verdana" font-size="14" lengthAdjust="spacing" textLength="113.1348" x="1284.64" y="749.7025">CreatingSession</text></g><g id="SessionActive"><rect fill="#FFFFFF" height="50" rx="12.5" ry="12.5" style="stroke:#000000;stroke-width:1;" width="116.5439" x="792.93" y="72.6273"/><line style="stroke:#000000;stroke-width:1;" x1="792.93" x2="909.4739" y1="99.642" y2="99.642"/><text fill="#000000" font-family="Verdana" font-size="14" lengthAdjust="spacing" textLength="96.5439" x="802.93" y="91.7025">SessionActive</text></g><g id="ProcessingInput"><rect fill="#FFFFFF" height="50" rx="12.5" ry="12.5" style="stroke:#000000;stroke-width:1;" width="132.4102" x="12" y="199.6273"/><line style="stroke:#000000;stroke-width:1;" x1="12" x2="144.4102" y1="226.642" y2="226.642"/><text fill="#000000" font-family="Verdana" font-size="14" lengthAdjust="spacing" textLength="112.4102" x="22" y="218.7025">ProcessingInput</text></g><g id="UpdatingGrid"><rect fill="#FFFFFF" height="50" rx="12.5" ry="12.5" style="stroke:#000000;stroke-width:1;" width="112.4355" x="208.99" y="199.6273"/><line style="stroke:#000000;stroke-width:1;" x1="208.99" x2="321.4255" y1="226.642" y2="226.642"/><text fill="#000000" font-family="Verdana" font-size="14" lengthAdjust="spacing" textLength="92.4355" x="218.99" y="218.7025">UpdatingGrid</text></g><g id="ResizingWindow"><rect fill="#FFFFFF" height="50" rx="12.5" ry="12.5" style="stroke:#000000;stroke-width:1;" width="133.21" x="413.6" y="199.6273"/><line style="stroke:#000000;stroke-width:1;" x1="413.6" x2="546.81" y1="226.642" y2="226.642"/><text fill="#000000" font-family="Verdana" font-size="14" lengthAdjust="spacing" textLength="113.21" x="423.6" y="218.7025">ResizingWindow</text></g><g id="EnteringCopyMode"><rect fill="#FFFFFF" height="50" rx="12.5" ry="12.5" style="stroke:#000000;stroke-width:1;" width="151.6055" x="618.4" y="199.6273"/><line style="stroke:#000000;stroke-width:1;" x1="618.4" x2="770.0055" y1="226.642" y2="226.642"/><text fill="#000000" font-family="Verdana" font-size="14" lengthAdjust="spacing" textLength="131.6055" x="628.4" y="218.7025">EnteringCopyMode</text></g><g id="CopyModeActive"><rect fill="#FFFFFF" height="50" rx="12.5" ry="12.5" style="stroke:#000000;stroke-width:1;" width="135.4863" x="684.46" y="349.6273"/><line style="stroke:#000000;stroke-width:1;" x1="684.46" x2="819.9463" y1="376.642" y2="376.642"/><text fill="#000000" font-family="Verdana" font-size="14" lengthAdjust="spacing" textLength="115.4863" x="694.46" y="368.7025">CopyModeActive</text></g><g id="SelectingText"><rect fill="#FFFFFF" height="50" rx="12.5" ry="12.5" style="stroke:#000000;stroke-width:1;" width="115.0947" x="689.66" y="476.6273"/><line style="stroke:#000000;stroke-width:1;" x1="689.66" x2="804.7547" y1="503.642" y2="503.642"/><text fill="#000000" font-family="Verdana" font-size="14" lengthAdjust="spacing" textLength="95.0947" x="699.66" y="495.7025">SelectingText</text></g><g id="SplittingPane"><rect fill="#FFFFFF" height="50" rx="12.5" ry="12.5" style="stroke:#000000;stroke-width:1;" width="112.4834" x="988.96" y="199.6273"/><line style="stroke:#000000;stroke-width:1;" x1="988.96" x2="1101.4434" y1="226.642" y2="226.642"/><text fill="#000000" font-family="Verdana" font-size="14" lengthAdjust="spacing" textLength="92.4834" x="998.96" y="218.7025">SplittingPane</text></g><g id="ClosingPane"><rect fill="#FFFFFF" height="50" rx="12.5" ry="12.5" style="stroke:#000000;stroke-width:1;" width="104.8818" x="1582.76" y="199.6273"/><line style="stroke:#000000;stroke-width:1;" x1="1582.76" x2="1687.6418" y1="226.642" y2="226.642"/><text fill="#000000" font-family="Verdana" font-size="14" lengthAdjust="spacing" textLength="84.8818" x="1592.76" y="218.7025">ClosingPane</text></g><g id="SessionEnding"><rect fill="#FFFFFF" height="50" rx="12.5" ry="12.5" style="stroke:#000000;stroke-width:1;" width="121.5547" x="1591.43" y="349.6273"/><line style="stroke:#000000;stroke-width:1;" x1="1591.43" x2="1712.9847" y1="376.642" y2="376.642"/><text fill="#000000" font-family="Verdana" font-size="14" lengthAdjust="spacing" textLength="101.5547" x="1601.43" y="368.7025">SessionEnding</text></g><g id="Detaching"><rect fill="#FFFFFF" height="50" rx="12.5" ry="12.5" style="stroke:#000000;stroke-width:1;" width="90.6289" x="1445.89" y="199.6273"/><line style="stroke:#000000;stroke-width:1;" x1="1445.89" x2="1536.5189" y1="226.642" y2="226.642"/><text fill="#000000" font-family="Verdana" font-size="14" lengthAdjust="spacing" textLength="70.6289" x="1455.89" y="218.7025">Detaching</text></g><g id="Cleanup"><rect fill="#FFFFFF" height="50" rx="12.5" ry="12.5" style="stroke:#000000;stroke-width:1;" width="76.8066" x="1601.8" y="476.6273"/><line style="stroke:#000000;stroke-width:1;" x1="1601.8" x2="1678.6066" y1="503.642" y2="503.642"/><text fill="#000000" font-family="Verdana" font-size="14" lengthAdjust="spacing" textLength="56.8066" x="1611.8" y="495.7025">Cleanup</text></g><g id="Shutdown"><rect fill="#FFFFFF" height="50" rx="12.5" ry="12.5" style="stroke:#000000;stroke-width:1;" width="90.3418" x="1494.03" y="730.6273"/><line style="stroke:#000000;stroke-width:1;" x1="1494.03" x2="1584.3718" y1="757.642" y2="757.642"/><text fill="#000000" font-family="Verdana" font-size="14" lengthAdjust="spacing" textLength="70.3418" x="1504.03" y="749.7025">Shutdown</text></g><ellipse cx="1305.21" cy="882.6273" fill="none" rx="11" ry="11" style="stroke:#000000;stroke-width:1;"/><ellipse cx="1305.21" cy="882.6273" fill="#FFFFFF" rx="6" ry="6" style="stroke:#000000;stroke-width:1;"/><g class="entity" data-entity="GMN2" data-source-line="52" data-uid="ent0003" id="entity_GMN2"><path d="M944.14,76.8273 L944.14,93.6273 L909.6,97.6273 L944.14,101.6273 L944.14,118.4259 A0,0 0 0 0 944.14,118.4259 L1154.2748,118.4259 A0,0 0 0 0 1154.2748,118.4259 L1154.2748,86.8273 L1144.2748,76.8273 L944.14,76.8273 A0,0 0 0 0 944.14,76.8273" fill="#FFFFFF" style="stroke:#000000;stroke-width:1;"/><path d="M1144.2748,76.8273 L1144.2748,86.8273 L1154.2748,86.8273 L1144.2748,76.8273" fill="#FFFFFF" style="stroke:#000000;stroke-width:1;"/><text fill="#000000" font-family="Verdana" font-size="13" lengthAdjust="spacing" textLength="145.5391" x="971.9379" y="94.8971">Main operational state</text><text fill="#000000" font-family="Verdana" font-size="13" lengthAdjust="spacing" textLength="189.1348" x="950.14" y="110.6964">handling all user interactions</text></g><g class="entity" data-entity="GMN5" data-source-line="57" data-uid="ent0006" id="entity_GMN5"><path d="M522.62,353.8273 L522.62,395.4259 A0,0 0 0 0 522.62,395.4259 L649.7846,395.4259 A0,0 0 0 0 649.7846,395.4259 L649.7846,378.6273 L683.99,374.6273 L649.7846,370.6273 L649.7846,363.8273 L639.7846,353.8273 L522.62,353.8273 A0,0 0 0 0 522.62,353.8273" fill="#FFFFFF" style="stroke:#000000;stroke-width:1;"/><path d="M639.7846,353.8273 L639.7846,363.8273 L649.7846,363.8273 L639.7846,353.8273" fill="#FFFFFF" style="stroke:#000000;stroke-width:1;"/><text fill="#000000" font-family="Verdana" font-size="13" lengthAdjust="spacing" textLength="106.1646" x="528.62" y="371.8971">Special state for</text><text fill="#000000" font-family="Verdana" font-size="13" lengthAdjust="spacing" textLength="87.6611" x="537.8717" y="387.6964">text selection</text></g><!--link *start* to Uninitialized--><g class="link" data-entity-1=".start." data-entity-2="Uninitialized" data-source-line="6" data-uid="lnk4" id="link_.start._Uninitialized"><path d="M1389.21,234.8873 C1389.21,257.4773 1389.21,310.0173 1389.21,343.3873" fill="none" id="*start*-to-Uninitialized" style="stroke:#000000;stroke-width:1;"/><polygon fill="#000000" points="1389.21,349.3873,1393.21,340.3873,1389.21,344.3873,1385.21,340.3873,1389.21,349.3873" style="stroke:#000000;stroke-width:1;"/></g><!--link Uninitialized to Initializing--><g class="link" data-entity-1="Uninitialized" data-entity-2="Initializing" data-source-line="8" data-uid="lnk6" id="link_Uninitialized_Initializing"><path d="M1380.36,400.0273 C1377.47,409.1773 1374.64,419.7573 1373.21,429.6273 C1370.96,445.1173 1371.9159,456.6853 1374.6759,470.3953" fill="none" id="Uninitialized-to-Initializing" style="stroke:#000000;stroke-width:1;"/><polygon fill="#000000" points="1375.86,476.2773,1378.0051,466.6649,1374.8732,471.3756,1370.1625,468.2437,1375.86,476.2773" style="stroke:#000000;stroke-width:1;"/><text fill="#000000" font-family="Verdana" font-size="13" lengthAdjust="spacing" textLength="120.5356" x="1374.21" y="443.6971">tmc_server_new()</text></g><!--link Initializing to Ready--><g class="link" data-entity-1="Initializing" data-entity-2="Ready" data-source-line="9" data-uid="lnk8" id="link_Initializing_Ready"><path d="M1393.53,527.0273 C1403.75,549.0473 1416.1742,575.8448 1426.3842,597.8448" fill="none" id="Initializing-to-Ready" style="stroke:#000000;stroke-width:1;"/><polygon fill="#000000" points="1428.91,603.2873,1428.7496,593.4398,1426.8052,598.7519,1421.493,596.8075,1428.91,603.2873" style="stroke:#000000;stroke-width:1;"/><text fill="#000000" font-family="Verdana" font-size="13" lengthAdjust="spacing" textLength="51.9492" x="1415.68" y="570.6971">Success</text></g><!--link Initializing to Failed--><g class="link" data-entity-1="Initializing" data-entity-2="Failed" data-source-line="10" data-uid="lnk10" id="link_Initializing_Failed"><path d="M1346.49,527.0273 C1312.68,550.1173 1267.4046,581.0432 1235.2246,603.0232" fill="none" id="Initializing-to-Failed" style="stroke:#000000;stroke-width:1;"/><polygon fill="#000000" points="1230.27,606.4073,1239.9579,604.6342,1234.3988,603.5872,1235.4458,598.0281,1230.27,606.4073" style="stroke:#000000;stroke-width:1;"/><text fill="#000000" font-family="Verdana" font-size="13" lengthAdjust="spacing" textLength="32.7539" x="1302.66" y="570.6971">Error</text></g><!--link Ready to CreatingSession--><g class="link" data-entity-1="Ready" data-entity-2="CreatingSession" data-source-line="12" data-uid="lnk12" id="link_Ready_CreatingSession"><path d="M1420.88,654.0273 C1403.44,676.0473 1381.636,703.5844 1364.206,725.5844" fill="none" id="Ready-to-CreatingSession" style="stroke:#000000;stroke-width:1;"/><polygon fill="#000000" points="1360.48,730.2873,1369.2042,725.717,1363.585,726.3682,1362.9337,720.749,1360.48,730.2873" style="stroke:#000000;stroke-width:1;"/><text fill="#000000" font-family="Verdana" font-size="13" lengthAdjust="spacing" textLength="128.7368" x="1397.63" y="697.6971">tmc_client_attach()</text></g><!--link CreatingSession to Ready--><g class="link" data-entity-1="CreatingSession" data-entity-2="Ready" data-source-line="14" data-uid="lnk15" id="link_CreatingSession_Ready"><path d="M1333.29,730.2773 C1330.08,715.7373 1328.84,697.4673 1337.21,683.6273 C1352.57,658.2273 1378.5092,645.9416 1402.6992,638.5916" fill="none" id="CreatingSession-to-Ready" style="stroke:#000000;stroke-width:1;"/><polygon fill="#000000" points="1408.44,636.8473,1398.6658,635.6366,1403.656,638.3009,1400.9916,643.291,1408.44,636.8473" style="stroke:#000000;stroke-width:1;"/><text fill="#000000" font-family="Verdana" font-size="13" lengthAdjust="spacing" textLength="38.2573" x="1338.21" y="697.6971">Failed</text></g><!--link CreatingSession to SessionActive--><g class="link" data-entity-1="CreatingSession" data-entity-2="SessionActive" data-source-line="13" data-uid="lnk14" id="link_CreatingSession_SessionActive"><path d="M1322.21,730.3173 C1305.3,706.1873 1283.21,667.4273 1283.21,629.6273 C1283.21,223.6273 1283.21,223.6273 1283.21,223.6273 C1283.21,58.7373 1087.2,158.2573 926.21,122.6273 C920.87,121.4473 921.1417,121.651 915.6617,120.131" fill="none" id="CreatingSession-to-SessionActive" style="stroke:#000000;stroke-width:1;"/><polygon fill="#000000" points="909.88,118.5273,917.4834,124.7873,914.6981,119.8637,919.6217,117.0784,909.88,118.5273" style="stroke:#000000;stroke-width:1;"/><text fill="#000000" font-family="Verdana" font-size="13" lengthAdjust="spacing" textLength="51.9492" x="1284.21" y="443.6971">Success</text></g><!--link SessionActive to ProcessingInput--><g class="link" data-entity-1="SessionActive" data-entity-2="ProcessingInput" data-source-line="16" data-uid="lnk17" id="link_SessionActive_ProcessingInput"><path d="M792.61,99.7873 C652.26,103.1573 300.25,115.1873 189.21,152.6273 C158.86,162.8573 133.2765,179.493 111.9965,195.763" fill="none" id="SessionActive-to-ProcessingInput" style="stroke:#000000;stroke-width:1;"/><polygon fill="#000000" points="107.23,199.4073,116.8092,197.1185,111.2021,196.3704,111.9502,190.7632,107.23,199.4073" style="stroke:#000000;stroke-width:1;"/><text fill="#000000" font-family="Verdana" font-size="13" lengthAdjust="spacing" textLength="69.2974" x="190.21" y="166.6971">User Input</text></g><!--link ProcessingInput to SessionActive--><g class="link" data-entity-1="ProcessingInput" data-entity-2="SessionActive" data-source-line="17" data-uid="lnk18" id="link_ProcessingInput_SessionActive"><path d="M70.6,199.1973 C67.48,183.8773 66.86,164.7973 78.21,152.6273 C126.6,100.7273 614.35,97.6785 786.43,98.2185" fill="none" id="ProcessingInput-to-SessionActive" style="stroke:#000000;stroke-width:1;"/><polygon fill="#000000" points="792.43,98.2373,783.4426,94.2091,787.43,98.2216,783.4175,102.209,792.43,98.2373" style="stroke:#000000;stroke-width:1;"/><text fill="#000000" font-family="Verdana" font-size="13" lengthAdjust="spacing" textLength="65.1841" x="79.21" y="166.6971">Processed</text></g><!--link SessionActive to UpdatingGrid--><g class="link" data-entity-1="SessionActive" data-entity-2="UpdatingGrid" data-source-line="19" data-uid="lnk20" id="link_SessionActive_UpdatingGrid"><path d="M792.63,98.1973 C703.67,99.1473 530.16,107.3473 391.21,152.6273 C358.14,163.3973 328.9875,180.0072 304.5875,196.0072" fill="none" id="SessionActive-to-UpdatingGrid" style="stroke:#000000;stroke-width:1;"/><polygon fill="#000000" points="299.57,199.2973,309.2896,197.7071,303.7512,196.5555,304.9028,191.0171,299.57,199.2973" style="stroke:#000000;stroke-width:1;"/><text fill="#000000" font-family="Verdana" font-size="13" lengthAdjust="spacing" textLength="73.4487" x="392.21" y="166.6971">PTY Output</text></g><!--link UpdatingGrid to SessionActive--><g class="link" data-entity-1="UpdatingGrid" data-entity-2="SessionActive" data-source-line="20" data-uid="lnk21" id="link_UpdatingGrid_SessionActive"><path d="M263.19,199.3473 C263.33,183.6973 266.44,164.1673 279.21,152.6273 C316.75,118.6773 648.433,104.8069 786.633,100.4369" fill="none" id="UpdatingGrid-to-SessionActive" style="stroke:#000000;stroke-width:1;"/><polygon fill="#000000" points="792.63,100.2473,783.5081,96.5337,787.6325,100.4053,783.7609,104.5298,792.63,100.2473" style="stroke:#000000;stroke-width:1;"/><text fill="#000000" font-family="Verdana" font-size="13" lengthAdjust="spacing" textLength="62.2451" x="280.21" y="166.6971">Rendered</text></g><!--link SessionActive to ResizingWindow--><g class="link" data-entity-1="SessionActive" data-entity-2="ResizingWindow" data-source-line="22" data-uid="lnk23" id="link_SessionActive_ResizingWindow"><path d="M792.58,101.5073 C733.51,106.2673 640.94,118.9473 568.21,152.6273 C543.8,163.9273 524.6616,179.3365 508.1016,195.0565" fill="none" id="SessionActive-to-ResizingWindow" style="stroke:#000000;stroke-width:1;"/><polygon fill="#000000" points="503.75,199.1873,513.0312,195.8921,507.3763,195.7449,507.5235,190.09,503.75,199.1873" style="stroke:#000000;stroke-width:1;"/><text fill="#000000" font-family="Verdana" font-size="13" lengthAdjust="spacing" textLength="97.5444" x="569.21" y="166.6971">Window Resize</text></g><!--link ResizingWindow to SessionActive--><g class="link" data-entity-1="ResizingWindow" data-entity-2="SessionActive" data-source-line="23" data-uid="lnk24" id="link_ResizingWindow_SessionActive"><path d="M473.71,199.3773 C471.19,184.1273 471.14,165.0673 482.21,152.6273 C522.22,107.6273 692.8804,99.5865 786.5004,98.5065" fill="none" id="ResizingWindow-to-SessionActive" style="stroke:#000000;stroke-width:1;"/><polygon fill="#000000" points="792.5,98.4373,783.4545,94.5414,787.5003,98.495,783.5467,102.5409,792.5,98.4373" style="stroke:#000000;stroke-width:1;"/><text fill="#000000" font-family="Verdana" font-size="13" lengthAdjust="spacing" textLength="49.7974" x="483.21" y="166.6971">Resized</text></g><!--link SessionActive to EnteringCopyMode--><g class="link" data-entity-1="SessionActive" data-entity-2="EnteringCopyMode" data-source-line="25" data-uid="lnk26" id="link_SessionActive_EnteringCopyMode"><path d="M792.65,100.4373 C754.21,105.0473 706.53,118.0173 681.21,152.6273 C671.44,165.9773 672.9587,178.8717 678.8987,193.6217" fill="none" id="SessionActive-to-EnteringCopyMode" style="stroke:#000000;stroke-width:1;"/><polygon fill="#000000" points="681.14,199.1873,681.4884,189.3446,679.2722,194.5493,674.0675,192.3331,681.14,199.1873" style="stroke:#000000;stroke-width:1;"/><text fill="#000000" font-family="Verdana" font-size="13" lengthAdjust="spacing" textLength="142.981" x="682.21" y="166.6971">Copy Mode Command</text></g><!--link EnteringCopyMode to CopyModeActive--><g class="link" data-entity-1="EnteringCopyMode" data-entity-2="CopyModeActive" data-source-line="26" data-uid="lnk28" id="link_EnteringCopyMode_CopyModeActive"><path d="M703.78,250.0673 C714.53,277.4873 729.6707,316.131 740.4207,343.561" fill="none" id="EnteringCopyMode-to-CopyModeActive" style="stroke:#000000;stroke-width:1;"/><polygon fill="#000000" points="742.61,349.1473,743.0502,339.3083,740.7856,344.492,735.6018,342.2274,742.61,349.1473" style="stroke:#000000;stroke-width:1;"/><text fill="#000000" font-family="Verdana" font-size="13" lengthAdjust="spacing" textLength="50.7051" x="722.47" y="293.6971">Entered</text></g><!--link CopyModeActive to SelectingText--><g class="link" data-entity-1="CopyModeActive" data-entity-2="SelectingText" data-source-line="28" data-uid="lnk30" id="link_CopyModeActive_SelectingText"><path d="M755.24,399.9673 C756.54,413.6873 757.49,431.1273 756.21,446.6273 C755.4,456.3873 754.8285,461.1196 753.1885,470.3596" fill="none" id="CopyModeActive-to-SelectingText" style="stroke:#000000;stroke-width:1;"/><polygon fill="#000000" points="752.14,476.2673,757.6513,468.1048,753.0138,471.3442,749.7744,466.7068,752.14,476.2673" style="stroke:#000000;stroke-width:1;"/><text fill="#000000" font-family="Verdana" font-size="13" lengthAdjust="spacing" textLength="109.3828" x="757.81" y="443.6971">Mouse/Keyboard</text></g><!--link SelectingText to CopyModeActive--><g class="link" data-entity-1="SelectingText" data-entity-2="CopyModeActive" data-source-line="29" data-uid="lnk31" id="link_SelectingText_CopyModeActive"><path d="M710.69,476.2773 C696.2,463.3873 684.59,446.7173 692.21,429.6273 C697.28,418.2373 701.5753,412.2006 710.8953,404.0006" fill="none" id="SelectingText-to-CopyModeActive" style="stroke:#000000;stroke-width:1;"/><polygon fill="#000000" points="715.4,400.0373,706.0008,402.9792,711.6461,403.3401,711.2852,408.9854,715.4,400.0373" style="stroke:#000000;stroke-width:1;"/><text fill="#000000" font-family="Verdana" font-size="13" lengthAdjust="spacing" textLength="54.4883" x="693.21" y="443.6971">Updated</text></g><!--link CopyModeActive to SessionActive--><g class="link" data-entity-1="CopyModeActive" data-entity-2="SessionActive" data-source-line="31" data-uid="lnk32" id="link_CopyModeActive_SessionActive"><path d="M761.93,349.3073 C777.03,311.2373 806.71,235.1473 829.21,169.6273 C834.48,154.2473 838.174,142.5537 842.304,128.8037" fill="none" id="CopyModeActive-to-SessionActive" style="stroke:#000000;stroke-width:1;"/><polygon fill="#000000" points="844.03,123.0573,837.6101,130.5262,842.5917,127.846,845.2719,132.8275,844.03,123.0573" style="stroke:#000000;stroke-width:1;"/><text fill="#000000" font-family="Verdana" font-size="13" lengthAdjust="spacing" textLength="101.1943" x="819.28" y="230.1971">Exit Copy Mode</text></g><!--link SessionActive to SplittingPane--><g class="link" data-entity-1="SessionActive" data-entity-2="SplittingPane" data-source-line="33" data-uid="lnk34" id="link_SessionActive_SplittingPane"><path d="M909.79,117.7973 C952.36,131.9073 1003.2,149.2073 1007.21,152.6273 C1021.56,164.8773 1029.1468,178.3664 1035.1868,193.6664" fill="none" id="SessionActive-to-SplittingPane" style="stroke:#000000;stroke-width:1;"/><polygon fill="#000000" points="1037.39,199.2473,1037.8058,189.4072,1035.554,194.5966,1030.3647,192.3448,1037.39,199.2473" style="stroke:#000000;stroke-width:1;"/><text fill="#000000" font-family="Verdana" font-size="13" lengthAdjust="spacing" textLength="100.2041" x="1022.61" y="166.6971">Split Command</text></g><!--link SplittingPane to SessionActive--><g class="link" data-entity-1="SplittingPane" data-entity-2="SessionActive" data-source-line="34" data-uid="lnk35" id="link_SplittingPane_SessionActive"><path d="M988.71,206.0273 C955.12,194.8473 916.36,180.4873 902.21,169.6273 C885.95,157.1573 875.6959,143.2726 866.7559,128.0326" fill="none" id="SplittingPane-to-SessionActive" style="stroke:#000000;stroke-width:1;"/><polygon fill="#000000" points="863.72,122.8573,864.8236,132.6441,866.2499,127.17,871.724,128.5963,863.72,122.8573" style="stroke:#000000;stroke-width:1;"/><text fill="#000000" font-family="Verdana" font-size="13" lengthAdjust="spacing" textLength="95.7036" x="903.21" y="166.6971">Split Complete</text></g><!--link SessionActive to ClosingPane--><g class="link" data-entity-1="SessionActive" data-entity-2="ClosingPane" data-source-line="36" data-uid="lnk37" id="link_SessionActive_ClosingPane"><path d="M909.79,118.9973 C915.29,120.4173 920.82,121.6673 926.21,122.6273 C999.56,135.7673 1532.94,113.2573 1596.21,152.6273 C1612.8,162.9573 1620.8628,177.343 1626.6028,193.513" fill="none" id="SessionActive-to-ClosingPane" style="stroke:#000000;stroke-width:1;"/><polygon fill="#000000" points="1628.61,199.1673,1629.3688,189.3477,1626.9374,194.4554,1621.8297,192.0239,1628.61,199.1673" style="stroke:#000000;stroke-width:1;"/><text fill="#000000" font-family="Verdana" font-size="13" lengthAdjust="spacing" textLength="71.2397" x="1614.31" y="166.6971">Close Pane</text></g><!--link ClosingPane to SessionActive--><g class="link" data-entity-1="ClosingPane" data-entity-2="SessionActive" data-source-line="37" data-uid="lnk38" id="link_ClosingPane_SessionActive"><path d="M1582.43,202.5973 C1559.15,193.0073 1531.6,181.2273 1507.21,169.6273 C1492.66,162.7173 1490.72,156.9473 1475.21,152.6273 C1239.79,87.1073 1166.53,166.8873 926.21,122.6273 C920.83,121.6373 921.1069,121.8771 915.6069,120.4471" fill="none" id="ClosingPane-to-SessionActive" style="stroke:#000000;stroke-width:1;"/><polygon fill="#000000" points="909.8,118.9373,917.5039,125.0733,914.6391,120.1955,919.5169,117.3307,909.8,118.9373" style="stroke:#000000;stroke-width:1;"/><text fill="#000000" font-family="Verdana" font-size="13" lengthAdjust="spacing" textLength="79.3394" x="1508.21" y="166.6971">Pane Closed</text></g><!--link ClosingPane to SessionEnding--><g class="link" data-entity-1="ClosingPane" data-entity-2="SessionEnding" data-source-line="38" data-uid="lnk40" id="link_ClosingPane_SessionEnding"><path d="M1638.01,250.0673 C1641.16,277.4873 1645.5555,315.7565 1648.7055,343.1865" fill="none" id="ClosingPane-to-SessionEnding" style="stroke:#000000;stroke-width:1;"/><polygon fill="#000000" points="1649.39,349.1473,1652.3371,339.7497,1648.8196,344.18,1644.3893,340.6624,1649.39,349.1473" style="stroke:#000000;stroke-width:1;"/><text fill="#000000" font-family="Verdana" font-size="13" lengthAdjust="spacing" textLength="63.1274" x="1644.2" y="293.6971">Last Pane</text></g><!--link SessionActive to Detaching--><g class="link" data-entity-1="SessionActive" data-entity-2="Detaching" data-source-line="40" data-uid="lnk42" id="link_SessionActive_Detaching"><path d="M909.83,118.7973 C915.32,120.2573 920.84,121.5673 926.21,122.6273 C1090.68,155.0573 1140.21,109.4673 1302.21,152.6273 C1319.3,157.1873 1321.84,162.8973 1338.21,169.6273 C1373.76,184.2573 1409.209,196.7366 1439.869,206.9766" fill="none" id="SessionActive-to-Detaching" style="stroke:#000000;stroke-width:1;"/><polygon fill="#000000" points="1445.56,208.8773,1438.2907,202.2323,1440.8175,207.2934,1435.7564,209.8202,1445.56,208.8773" style="stroke:#000000;stroke-width:1;"/><text fill="#000000" font-family="Verdana" font-size="13" lengthAdjust="spacing" textLength="131.6504" x="1339.21" y="166.6971">tmc_client_detach()</text></g><!--link Detaching to Ready--><g class="link" data-entity-1="Detaching" data-entity-2="Ready" data-source-line="41" data-uid="lnk43" id="link_Detaching_Ready"><path d="M1495.37,249.9773 C1504.25,308.3573 1520.74,459.9373 1475.21,573.6273 C1471.09,583.8973 1468.2916,589.3275 1462.2716,598.2275" fill="none" id="Detaching-to-Ready" style="stroke:#000000;stroke-width:1;"/><polygon fill="#000000" points="1458.91,603.1973,1467.2657,597.9836,1461.7114,599.0558,1460.6392,593.5014,1458.91,603.1973" style="stroke:#000000;stroke-width:1;"/><text fill="#000000" font-family="Verdana" font-size="13" lengthAdjust="spacing" textLength="61.5342" x="1505.28" y="443.6971">Detached</text></g><!--link SessionEnding to Cleanup--><g class="link" data-entity-1="SessionEnding" data-entity-2="Cleanup" data-source-line="43" data-uid="lnk45" id="link_SessionEnding_Cleanup"><path d="M1649.86,400.0273 C1647.75,422.0473 1645.2228,448.3147 1643.1128,470.3147" fill="none" id="SessionEnding-to-Cleanup" style="stroke:#000000;stroke-width:1;"/><polygon fill="#000000" points="1642.54,476.2873,1647.381,467.7103,1643.0174,471.3101,1639.4175,466.9465,1642.54,476.2873" style="stroke:#000000;stroke-width:1;"/><text fill="#000000" font-family="Verdana" font-size="13" lengthAdjust="spacing" textLength="129.6001" x="1647.92" y="443.6971">Resources Released</text></g><!--link Cleanup to Ready--><g class="link" data-entity-1="Cleanup" data-entity-2="Ready" data-source-line="44" data-uid="lnk46" id="link_Cleanup_Ready"><path d="M1618.33,526.9173 C1604.01,541.7973 1584.28,560.4473 1564.21,573.6273 C1535.16,592.7073 1503.8973,605.7406 1477.9273,615.0606" fill="none" id="Cleanup-to-Ready" style="stroke:#000000;stroke-width:1;"/><polygon fill="#000000" points="1472.28,617.0873,1482.1021,617.8122,1476.9861,615.3984,1479.3999,610.2824,1472.28,617.0873" style="stroke:#000000;stroke-width:1;"/><text fill="#000000" font-family="Verdana" font-size="13" lengthAdjust="spacing" textLength="115.2861" x="1585.74" y="570.6971">Session Removed</text></g><!--link Ready to Shutdown--><g class="link" data-entity-1="Ready" data-entity-2="Shutdown" data-source-line="46" data-uid="lnk48" id="link_Ready_Shutdown"><path d="M1472,639.0873 C1493.41,647.2473 1520.21,661.2973 1534.21,683.6273 C1542.8,697.3473 1544.3086,709.6306 1543.3386,724.2006" fill="none" id="Ready-to-Shutdown" style="stroke:#000000;stroke-width:1;"/><polygon fill="#000000" points="1542.94,730.1873,1547.529,721.4729,1543.2721,725.1983,1539.5467,720.9415,1542.94,730.1873" style="stroke:#000000;stroke-width:1;"/><text fill="#000000" font-family="Verdana" font-size="13" lengthAdjust="spacing" textLength="119.5327" x="1541.73" y="697.6971">tmc_server_free()</text></g><!--link Shutdown to *end*--><g class="link" data-entity-1="Shutdown" data-entity-2=".end." data-source-line="47" data-uid="lnk50" id="link_Shutdown_.end."><path d="M1493.81,780.8773 C1437.19,811.1173 1349.5121,857.96 1319.8821,873.79" fill="none" id="Shutdown-to-*end*" style="stroke:#000000;stroke-width:1;"/><polygon fill="#000000" points="1314.59,876.6173,1324.413,875.9044,1319.0001,874.2612,1320.6432,868.8483,1314.59,876.6173" style="stroke:#000000;stroke-width:1;"/></g><!--link Failed to *end*--><g class="link" data-entity-1="Failed" data-entity-2=".end." data-source-line="49" data-uid="lnk51" id="link_Failed_.end."><path d="M1207.88,653.9173 C1218.76,683.9473 1238.28,736.4973 1257.21,780.6273 C1271.9,814.8873 1288.8522,849.208 1297.7622,866.908" fill="none" id="Failed-to-*end*" style="stroke:#000000;stroke-width:1;"/><polygon fill="#000000" points="1300.46,872.2673,1299.9861,862.4299,1298.2118,867.8012,1292.8404,866.0269,1300.46,872.2673" style="stroke:#000000;stroke-width:1;"/></g><!--link *start*ProcessStates to Starting--><g class="link" data-entity-1=".start.ProcessStates" data-entity-2="Starting" data-source-line="62" data-uid="lnk54" id="link_.start.ProcessStates_Starting"><path d="M1043.21,385.0273 C1043.21,404.2173 1043.21,442.4473 1043.21,470.2973" fill="none" id="*start*ProcessStates-to-Starting" style="stroke:#000000;stroke-width:1;"/><polygon fill="#000000" points="1043.21,476.2973,1047.21,467.2973,1043.21,471.2973,1039.21,467.2973,1043.21,476.2973" style="stroke:#000000;stroke-width:1;"/></g><!--link Starting to Running--><g class="link" data-entity-1="Starting" data-entity-2="Running" data-source-line="63" data-uid="lnk56" id="link_Starting_Running"><path d="M1028.82,527.0973 C1024.25,536.0873 1019.73,546.5373 1017.21,556.6273 C1013.4,571.8273 1012.5478,583.4179 1012.7378,597.2879" fill="none" id="Starting-to-Running" style="stroke:#000000;stroke-width:1;"/><polygon fill="#000000" points="1012.82,603.2873,1016.6963,594.2334,1012.7515,598.2878,1008.6971,594.3429,1012.82,603.2873" style="stroke:#000000;stroke-width:1;"/><text fill="#000000" font-family="Verdana" font-size="13" lengthAdjust="spacing" textLength="100.1787" x="1018.21" y="570.6971">Spawn Success</text></g><!--link Starting to Failed--><g class="link" data-entity-1="Starting" data-entity-2="Failed" data-source-line="64" data-uid="lnk57" id="link_Starting_Failed"><path d="M1081.52,526.7173 C1095.02,535.6673 1110.1,546.1873 1123.21,556.6273 C1141.43,571.1373 1156.2904,584.8622 1170.8104,599.0622" fill="none" id="Starting-to-Failed" style="stroke:#000000;stroke-width:1;"/><polygon fill="#000000" points="1175.1,603.2573,1171.4623,594.1049,1171.5253,599.7614,1165.8688,599.8244,1175.1,603.2573" style="stroke:#000000;stroke-width:1;"/><text fill="#000000" font-family="Verdana" font-size="13" lengthAdjust="spacing" textLength="86.4868" x="1143.83" y="570.6971">Spawn Failed</text></g><!--link Running to Exiting--><g class="link" data-entity-1="Running" data-entity-2="Exiting" data-source-line="65" data-uid="lnk59" id="link_Running_Exiting"><path d="M1014.21,654.0273 C1014.21,676.0473 1014.21,702.2873 1014.21,724.2873" fill="none" id="Running-to-Exiting" style="stroke:#000000;stroke-width:1;"/><polygon fill="#000000" points="1014.21,730.2873,1018.21,721.2873,1014.21,725.2873,1010.21,721.2873,1014.21,730.2873" style="stroke:#000000;stroke-width:1;"/><text fill="#000000" font-family="Verdana" font-size="13" lengthAdjust="spacing" textLength="78.5142" x="1015.21" y="697.6971">Process Exit</text></g><!--link Exiting to Zombie--><g class="link" data-entity-1="Exiting" data-entity-2="Zombie" data-source-line="66" data-uid="lnk61" id="link_Exiting_Zombie"><path d="M1014.21,781.0273 C1014.21,803.0473 1014.21,829.2873 1014.21,851.2873" fill="none" id="Exiting-to-Zombie" style="stroke:#000000;stroke-width:1;"/><polygon fill="#000000" points="1014.21,857.2873,1018.21,848.2873,1014.21,852.2873,1010.21,848.2873,1014.21,857.2873" style="stroke:#000000;stroke-width:1;"/><text fill="#000000" font-family="Verdana" font-size="13" lengthAdjust="spacing" textLength="89.1909" x="1015.21" y="824.6971">Wait for Reap</text></g><!--link Zombie to *end*ProcessStates--><g class="link" data-entity-1="Zombie" data-entity-2=".end.ProcessStates" data-source-line="67" data-uid="lnk63" id="link_Zombie_.end.ProcessStates"><path d="M1014.21,907.9873 C1014.21,931.8573 1014.21,961.0873 1014.21,978.3373" fill="none" id="Zombie-to-*end*ProcessStates" style="stroke:#000000;stroke-width:1;"/><polygon fill="#000000" points="1014.21,984.3373,1018.21,975.3373,1014.21,979.3373,1010.21,975.3373,1014.21,984.3373" style="stroke:#000000;stroke-width:1;"/><text fill="#000000" font-family="Verdana" font-size="13" lengthAdjust="spacing" textLength="48.5342" x="1015.21" y="951.6971">Reaped</text></g><!--link SessionActive to ProcessStates--><g class="link" data-entity-1="SessionActive" data-entity-2="ProcessStates" data-source-line="70" data-uid="lnk64" id="link_SessionActive_ProcessStates"><path d="M909.91,118.4173 C915.38,119.9573 920.88,121.3973 926.21,122.6273 C971.06,133.0073 1100.71,118.1373 1131.21,152.6273 C1163.24,188.8523 1164.95,242.9548 1158.4275,288.5611 C1155.1662,311.3642 1149.8469,332.0432 1145.2303,347.3015 C1144.9418,348.2552 1146.4333,343.4569 1146.1509,344.3674" fill="none" id="SessionActive-to-ProcessStates" style="stroke:#000000;stroke-width:1;"/><polygon fill="#000000" points="1144.3736,350.0981,1150.86,342.6869,1145.8547,345.3225,1143.219,340.3172,1144.3736,350.0981" style="stroke:#000000;stroke-width:1;"/><text fill="#000000" font-family="Verdana" font-size="13" lengthAdjust="spacing" textLength="57.3193" x="1162.48" y="230.1971">Per Pane</text></g><!--SRC=[VLHDRnCn4BtxLmmtGAguzu1KfG5LD29A6bM0KEJkpYOMNjkolMa3uhypOtkJRBBbil9udjzyx9jv4xVO8ZWjbH5HHOsmn12KDN2l6gps5Tz46H5kbTnusGeHVYdZ91sXnaPsEZxWIxpHQcDQD14g-g0NuiVxdt1rzH5MHXaLbTJgDzP23Cm4kEjjPJPm3R6jrW7z3ltQuFFRTsBWvmSBbFMUaCkkgYZPIy0dgJIHNyFKUqkfv0VicNYKaM1zaJbSfHKblPOnocfB4SzH_BASRwgeTdWIV0pR9vZp46BubX5pR_arlRiphek4NL7Da0nnxXmBNp3Zx2jNfvm-UyLTc3zyWwzTPEg1PuntWQP6Fqwxm91w_AXCRPy9N0xf7iMPUvmzP1LSaazPDVHwOjr-Pcj6yn7IUMBRLffQN83IFot68Kf2SPGpJyv8OyKTOD4ITcQxW1- -uFx9Ib-BeNkKFRNmLVPXlTCN5OzbZ9MzT5f53ZYN9icAxKEzG- -e37kyqnX78qoq3KT-jX3O4AUEKOcn8-7hrx1JK-UXlPSXPjQH36wHv-eutMNSQYpZTlIV3a- -FH5B2PPhGcawbnLbEq-ZG2UwpBbcvs1LbEbSO6jtp7bS2Sjj5qclPhXw6ez8gHsSZAID9aJPBGVRMDgDNcss4MmpxA40cD5U1UlGqzHP8pK4tgNasDBlrLoEr1ewddt5gfKLuuAWAGHcBlmQcqG_b1pHB1rMggU5XfOTG6JfXYnaQqweCgXiZhJK0_oX1m3zhgPBpt9BbxsH6zaPa__WqadgHx_-Be27tPjnPGKohAT8qqw3aUbAEkacmNeNmxxRzacn5XybgPpAun_g4gouodz8If2E8ltzpxejDLDGwdTIwpy0]--></g></svg>