<svg xmlns="http://www.w3.org/2000/svg" xmlns:xlink="http://www.w3.org/1999/xlink" contentStyleType="text/css" data-diagram-type="CLASS" height="745.8333px" preserveAspectRatio="none" style="width:834px;height:745px;" version="1.1" viewBox="0 0 834 745" width="834.375px" zoomAndPan="magnify"><title>&#20851;&#38190;&#31867;&#20851;&#31995;&#30340;&#21464;&#21270;</title><defs><linearGradient id="gqxkqqyqqpmvu0" x1="50%" x2="50%" y1="0%" y2="100%"><stop offset="0%" stop-color="#EDF0F2"/><stop offset="100%" stop-color="#E9ECEF"/></linearGradient><linearGradient id="gqxkqqyqqpmvu1" x1="50%" x2="50%" y1="0%" y2="100%"><stop offset="0%" stop-color="#59B6EC"/><stop offset="100%" stop-color="#2FA4E7"/></linearGradient><linearGradient id="gqxkqqyqqpmvu2" x1="50%" x2="50%" y1="0%" y2="100%"><stop offset="0%" stop-color="#2FA4E7"/><stop offset="100%" stop-color="#2683B9"/></linearGradient><linearGradient id="gqxkqqyqqpmvu3" x1="50%" x2="50%" y1="0%" y2="100%"><stop offset="0%" stop-color="#35638F"/><stop offset="100%" stop-color="#033C73"/></linearGradient></defs><g><g class="title" data-source-line="2"><rect fill="url(#gqxkqqyqqpmvu0)" height="48.2361" rx="4.1667" ry="4.1667" style="stroke:#BABDBF;stroke-width:1.0417;" width="189.5833" x="317.7083" y="20.8333"/><text fill="#2FA4E7" font-family="Verdana" font-size="20.8333" font-weight="bold" lengthAdjust="spacing" textLength="166.6667" x="329.1667" y="53.2369">&#20851;&#38190;&#31867;&#20851;&#31995;&#30340;&#21464;&#21270;</text></g><!--cluster ???--><g class="cluster" data-entity="..." data-source-line="4" data-uid="ent0002" id="cluster_..."><path d="M569.7917,86.7778 L615.625,86.7778 A6.25,6.25 0 0 1 619.7917,90.9444 L627.0833,118.6361 L817.7083,118.6361 A4.1667,4.1667 0 0 1 821.875,122.8027 L821.875,599.2257 A4.1667,4.1667 0 0 1 817.7083,603.3923 L569.7917,603.3923 A4.1667,4.1667 0 0 1 565.625,599.2257 L565.625,90.9444 A4.1667,4.1667 0 0 1 569.7917,86.7778" fill="none" style="stroke:#59B6EC;stroke-width:2.0833;"/><line style="stroke:#59B6EC;stroke-width:2.0833;" x1="565.625" x2="627.0833" y1="118.6361" y2="118.6361"/><text fill="#2FA4E7" font-family="Verdana" font-size="12.5" font-weight="bold" lengthAdjust="spacing" textLength="37.5" x="575" y="106.6366">&#21464;&#21270;&#21069;</text></g><!--cluster ???--><g class="cluster" data-entity="..." data-source-line="22" data-uid="ent0008" id="cluster_..."><path d="M20.8333,86.7778 L66.6667,86.7778 A6.25,6.25 0 0 1 70.8333,90.9444 L78.125,118.6361 L536.4583,118.6361 A4.1667,4.1667 0 0 1 540.625,122.8027 L540.625,599.2257 A4.1667,4.1667 0 0 1 536.4583,603.3923 L20.8333,603.3923 A4.1667,4.1667 0 0 1 16.6667,599.2257 L16.6667,90.9444 A4.1667,4.1667 0 0 1 20.8333,86.7778" fill="none" style="stroke:#59B6EC;stroke-width:2.0833;"/><line style="stroke:#59B6EC;stroke-width:2.0833;" x1="16.6667" x2="78.125" y1="118.6361" y2="118.6361"/><text fill="#2FA4E7" font-family="Verdana" font-size="12.5" font-weight="bold" lengthAdjust="spacing" textLength="37.5" x="26.0417" y="106.6366">&#21464;&#21270;&#21518;</text></g><!--class SB--><g class="entity" data-entity="SB" data-source-line="5" data-uid="ent0003" id="entity_SB"><rect fill="url(#gqxkqqyqqpmvu1)" height="100.1104" rx="4.1667" ry="4.1667" style="stroke:#2FA4E7;stroke-width:1.0417;" width="222.7793" x="582.3646" y="131.5694"/><rect fill="url(#gqxkqqyqqpmvu2)" height="34.759" rx="4.1667" ry="4.1667" style="stroke:url(#gqxkqqyqqpmvu2);stroke-width:1.0417;" width="222.7793" x="582.3646" y="131.5694"/><rect fill="url(#gqxkqqyqqpmvu2)" height="4.1667" style="stroke:url(#gqxkqqyqqpmvu2);stroke-width:1.0417;" width="222.7793" x="582.3646" y="162.1618"/><rect fill="none" height="100.1104" rx="4.1667" ry="4.1667" style="stroke:#2FA4E7;stroke-width:1.0417;" width="222.7793" x="582.3646" y="131.5694"/><ellipse cx="640.2076" cy="148.9489" fill="#EDF0F2" rx="10.4167" ry="10.4167" style="stroke:#BABDBF;stroke-width:1.0417;"/><path d="M642.118,153.374 Q641.6908,153.5937 641.2208,153.7036 Q640.7508,153.8134 640.232,153.8134 Q638.3888,153.8134 637.4183,152.5988 Q636.4478,151.3842 636.4478,149.0893 Q636.4478,146.7883 637.4183,145.5737 Q638.3888,144.3591 640.232,144.3591 Q640.7508,144.3591 641.2269,144.4689 Q641.703,144.5788 642.118,144.7985 L642.118,146.8005 Q641.6541,146.3732 641.2177,146.1749 Q640.7813,145.9765 640.3175,145.9765 Q639.3287,145.9765 638.8252,146.7608 Q638.3216,147.5451 638.3216,149.0893 Q638.3216,150.6274 638.8252,151.4117 Q639.3287,152.196 640.3175,152.196 Q640.7813,152.196 641.2177,151.9976 Q641.6541,151.7993 642.118,151.372 Z " fill="#FFFFFF"/><text fill="#F8F9FA" font-family="Verdana" font-size="11.4583" lengthAdjust="spacing" textLength="88.3433" x="665.2076" y="153.506">Surface_Before</text><line style="stroke:#2FA4E7;stroke-width:1.0417;" x1="583.4063" x2="804.1023" y1="166.3284" y2="166.3284"/><rect fill="none" height="6.25" style="stroke:#2683B9;stroke-width:1.0417;" width="6.25" x="590.6979" y="181.1038"/><text fill="#F8F9FA" font-family="Verdana" font-size="11.4583" lengthAdjust="spacing" textLength="103.3376" x="607.3646" y="187.2233">io: Termio [owns]</text><rect fill="none" height="6.25" style="stroke:#2683B9;stroke-width:1.0417;" width="6.25" x="590.6979" y="205.4461"/><text fill="#F8F9FA" font-family="Verdana" font-size="11.4583" lengthAdjust="spacing" textLength="186.321" x="607.3646" y="211.5657">terminal: Terminal [owns via io]</text><line style="stroke:#2FA4E7;stroke-width:1.0417;" x1="583.4063" x2="804.1023" y1="223.3465" y2="223.3465"/></g><!--class TB--><g class="entity" data-entity="TB" data-source-line="10" data-uid="ent0004" id="entity_TB"><rect fill="url(#gqxkqqyqqpmvu1)" height="75.768" rx="4.1667" ry="4.1667" style="stroke:#2FA4E7;stroke-width:1.0417;" width="187.8169" x="599.8438" y="333.4444"/><rect fill="url(#gqxkqqyqqpmvu2)" height="34.759" rx="4.1667" ry="4.1667" style="stroke:url(#gqxkqqyqqpmvu2);stroke-width:1.0417;" width="187.8169" x="599.8438" y="333.4444"/><rect fill="url(#gqxkqqyqqpmvu2)" height="4.1667" style="stroke:url(#gqxkqqyqqpmvu2);stroke-width:1.0417;" width="187.8169" x="599.8438" y="364.0368"/><rect fill="none" height="75.768" rx="4.1667" ry="4.1667" style="stroke:#2FA4E7;stroke-width:1.0417;" width="187.8169" x="599.8438" y="333.4444"/><ellipse cx="642.0868" cy="350.8239" fill="#EDF0F2" rx="10.4167" ry="10.4167" style="stroke:#BABDBF;stroke-width:1.0417;"/><path d="M643.9972,355.249 Q643.5699,355.4687 643.1,355.5786 Q642.63,355.6884 642.1112,355.6884 Q640.2679,355.6884 639.2975,354.4738 Q638.327,353.2592 638.327,350.9643 Q638.327,348.6633 639.2975,347.4487 Q640.2679,346.2341 642.1112,346.2341 Q642.63,346.2341 643.1061,346.3439 Q643.5821,346.4538 643.9972,346.6735 L643.9972,348.6755 Q643.5333,348.2482 643.0969,348.0499 Q642.6605,347.8515 642.1966,347.8515 Q641.2079,347.8515 640.7043,348.6358 Q640.2008,349.4201 640.2008,350.9643 Q640.2008,352.5024 640.7043,353.2867 Q641.2079,354.071 642.1966,354.071 Q642.6605,354.071 643.0969,353.8726 Q643.5333,353.6743 643.9972,353.247 Z " fill="#FFFFFF"/><text fill="#F8F9FA" font-family="Verdana" font-size="11.4583" lengthAdjust="spacing" textLength="84.6842" x="666.9834" y="355.381">Termio_Before</text><line style="stroke:#2FA4E7;stroke-width:1.0417;" x1="600.8854" x2="786.619" y1="368.2034" y2="368.2034"/><rect fill="none" height="6.25" style="stroke:#2683B9;stroke-width:1.0417;" width="6.25" x="608.1771" y="382.9788"/><text fill="#F8F9FA" font-family="Verdana" font-size="11.4583" lengthAdjust="spacing" textLength="151.3585" x="624.8438" y="389.0983">terminal: Terminal [owns]</text><line style="stroke:#2FA4E7;stroke-width:1.0417;" x1="600.8854" x2="786.619" y1="400.8791" y2="400.8791"/></g><!--class TermB--><g class="entity" data-entity="TermB" data-source-line="14" data-uid="ent0005" id="entity_TermB"><rect fill="url(#gqxkqqyqqpmvu1)" height="75.768" rx="4.1667" ry="4.1667" style="stroke:#2FA4E7;stroke-width:1.0417;" width="136.6735" x="625.4167" y="510.9653"/><rect fill="url(#gqxkqqyqqpmvu2)" height="34.759" rx="4.1667" ry="4.1667" style="stroke:url(#gqxkqqyqqpmvu2);stroke-width:1.0417;" width="136.6735" x="625.4167" y="510.9653"/><rect fill="url(#gqxkqqyqqpmvu2)" height="4.1667" style="stroke:url(#gqxkqqyqqpmvu2);stroke-width:1.0417;" width="136.6735" x="625.4167" y="541.5576"/><rect fill="none" height="75.768" rx="4.1667" ry="4.1667" style="stroke:#2FA4E7;stroke-width:1.0417;" width="136.6735" x="625.4167" y="510.9653"/><ellipse cx="640" cy="528.3448" fill="#EDF0F2" rx="10.4167" ry="10.4167" style="stroke:#BABDBF;stroke-width:1.0417;"/><path d="M641.9104,532.7698 Q641.4832,532.9895 641.0132,533.0994 Q640.5432,533.2093 640.0244,533.2093 Q638.1812,533.2093 637.2107,531.9947 Q636.2402,530.7801 636.2402,528.4851 Q636.2402,526.1841 637.2107,524.9695 Q638.1812,523.7549 640.0244,523.7549 Q640.5432,523.7549 641.0193,523.8648 Q641.4954,523.9746 641.9104,524.1944 L641.9104,526.1963 Q641.4465,525.7691 641.0101,525.5707 Q640.5737,525.3723 640.1099,525.3723 Q639.1211,525.3723 638.6176,526.1566 Q638.114,526.9409 638.114,528.4851 Q638.114,530.0232 638.6176,530.8075 Q639.1211,531.5918 640.1099,531.5918 Q640.5737,531.5918 641.0101,531.3935 Q641.4465,531.1951 641.9104,530.7679 Z " fill="#FFFFFF"/><text fill="#F8F9FA" font-family="Verdana" font-size="11.4583" lengthAdjust="spacing" textLength="95.0068" x="658.75" y="532.9018">Terminal_Before</text><line style="stroke:#2FA4E7;stroke-width:1.0417;" x1="626.4583" x2="761.0485" y1="545.7243" y2="545.7243"/><text fill="#F8F9FA" font-family="Verdana" font-size="11.4583" lengthAdjust="spacing" textLength="45.8333" x="636.875" y="566.6191">&#29420;&#31435;&#23384;&#22312;</text><line style="stroke:#2FA4E7;stroke-width:1.0417;" x1="626.4583" x2="761.0485" y1="578.3999" y2="578.3999"/></g><!--class SA--><g class="entity" data-entity="SA" data-source-line="23" data-uid="ent0009" id="entity_SA"><rect fill="url(#gqxkqqyqqpmvu1)" height="100.1104" rx="4.1667" ry="4.1667" style="stroke:#2FA4E7;stroke-width:1.0417;" width="227.7812" x="135.0729" y="131.5694"/><rect fill="url(#gqxkqqyqqpmvu2)" height="34.759" rx="4.1667" ry="4.1667" style="stroke:url(#gqxkqqyqqpmvu2);stroke-width:1.0417;" width="227.7812" x="135.0729" y="131.5694"/><rect fill="url(#gqxkqqyqqpmvu2)" height="4.1667" style="stroke:url(#gqxkqqyqqpmvu2);stroke-width:1.0417;" width="227.7812" x="135.0729" y="162.1618"/><rect fill="none" height="100.1104" rx="4.1667" ry="4.1667" style="stroke:#2FA4E7;stroke-width:1.0417;" width="227.7812" x="135.0729" y="131.5694"/><ellipse cx="200.0606" cy="148.9489" fill="#EDF0F2" rx="10.4167" ry="10.4167" style="stroke:#BABDBF;stroke-width:1.0417;"/><path d="M201.971,153.374 Q201.5438,153.5937 201.0738,153.7036 Q200.6038,153.8134 200.085,153.8134 Q198.2418,153.8134 197.2713,152.5988 Q196.3008,151.3842 196.3008,149.0893 Q196.3008,146.7883 197.2713,145.5737 Q198.2418,144.3591 200.085,144.3591 Q200.6038,144.3591 201.0799,144.4689 Q201.556,144.5788 201.971,144.7985 L201.971,146.8005 Q201.5071,146.3732 201.0707,146.1749 Q200.6343,145.9765 200.1705,145.9765 Q199.1817,145.9765 198.6782,146.7608 Q198.1746,147.5451 198.1746,149.0893 Q198.1746,150.6274 198.6782,151.4117 Q199.1817,152.196 200.1705,152.196 Q200.6343,152.196 201.0707,151.9976 Q201.5071,151.7993 201.971,151.372 Z " fill="#FFFFFF"/><text fill="#F8F9FA" font-family="Verdana" font-size="11.4583" lengthAdjust="spacing" textLength="79.0558" x="225.0606" y="153.506">Surface_After</text><line style="stroke:#2FA4E7;stroke-width:1.0417;" x1="136.1146" x2="361.8124" y1="166.3284" y2="166.3284"/><rect fill="none" height="6.25" style="stroke:#2683B9;stroke-width:1.0417;" width="6.25" x="143.4063" y="181.1038"/><text fill="#F8F9FA" font-family="Verdana" font-size="11.4583" lengthAdjust="spacing" textLength="103.3376" x="160.0729" y="187.2233">io: Termio [owns]</text><rect fill="none" height="6.25" style="stroke:#2683B9;stroke-width:1.0417;" width="6.25" x="143.4063" y="205.4461"/><text fill="#F8F9FA" font-family="Verdana" font-size="11.4583" lengthAdjust="spacing" textLength="191.3228" x="160.0729" y="211.5657">session_core: *SessionCore [ref]</text><line style="stroke:#2FA4E7;stroke-width:1.0417;" x1="136.1146" x2="361.8124" y1="223.3465" y2="223.3465"/></g><!--class TA--><g class="entity" data-entity="TA" data-source-line="28" data-uid="ent0010" id="entity_TA"><rect fill="url(#gqxkqqyqqpmvu1)" height="75.768" rx="4.1667" ry="4.1667" style="stroke:#2FA4E7;stroke-width:1.0417;" width="235.7707" x="33.1563" y="333.4444"/><rect fill="url(#gqxkqqyqqpmvu2)" height="34.759" rx="4.1667" ry="4.1667" style="stroke:url(#gqxkqqyqqpmvu2);stroke-width:1.0417;" width="235.7707" x="33.1563" y="333.4444"/><rect fill="url(#gqxkqqyqqpmvu2)" height="4.1667" style="stroke:url(#gqxkqqyqqpmvu2);stroke-width:1.0417;" width="235.7707" x="33.1563" y="364.0368"/><rect fill="none" height="75.768" rx="4.1667" ry="4.1667" style="stroke:#2FA4E7;stroke-width:1.0417;" width="235.7707" x="33.1563" y="333.4444"/><ellipse cx="103.9682" cy="350.8239" fill="#EDF0F2" rx="10.4167" ry="10.4167" style="stroke:#BABDBF;stroke-width:1.0417;"/><path d="M105.8786,355.249 Q105.4514,355.4687 104.9814,355.5786 Q104.5114,355.6884 103.9926,355.6884 Q102.1494,355.6884 101.1789,354.4738 Q100.2085,353.2592 100.2085,350.9643 Q100.2085,348.6633 101.1789,347.4487 Q102.1494,346.2341 103.9926,346.2341 Q104.5114,346.2341 104.9875,346.3439 Q105.4636,346.4538 105.8786,346.6735 L105.8786,348.6755 Q105.4148,348.2482 104.9784,348.0499 Q104.542,347.8515 104.0781,347.8515 Q103.0893,347.8515 102.5858,348.6358 Q102.0822,349.4201 102.0822,350.9643 Q102.0822,352.5024 102.5858,353.2867 Q103.0893,354.071 104.0781,354.071 Q104.542,354.071 104.9784,353.8726 Q105.4148,353.6743 105.8786,353.247 Z " fill="#FFFFFF"/><text fill="#F8F9FA" font-family="Verdana" font-size="11.4583" lengthAdjust="spacing" textLength="75.3967" x="128.9682" y="355.381">Termio_After</text><line style="stroke:#2FA4E7;stroke-width:1.0417;" x1="34.1979" x2="267.8853" y1="368.2034" y2="368.2034"/><rect fill="none" height="6.25" style="stroke:#2683B9;stroke-width:1.0417;" width="6.25" x="41.4896" y="382.9788"/><text fill="#F8F9FA" font-family="Verdana" font-size="11.4583" lengthAdjust="spacing" textLength="199.3123" x="58.1563" y="389.0983">terminal: union{owned,borrowed}</text><line style="stroke:#2FA4E7;stroke-width:1.0417;" x1="34.1979" x2="267.8853" y1="400.8791" y2="400.8791"/></g><!--class SC--><g class="entity" data-entity="SC" data-source-line="32" data-uid="ent0011" id="entity_SC"><rect fill="url(#gqxkqqyqqpmvu1)" height="100.1104" rx="4.1667" ry="4.1667" style="stroke:#2FA4E7;stroke-width:1.0417;" width="218.9189" x="305.125" y="321.2673"/><rect fill="url(#gqxkqqyqqpmvu2)" height="34.759" rx="4.1667" ry="4.1667" style="stroke:url(#gqxkqqyqqpmvu2);stroke-width:1.0417;" width="218.9189" x="305.125" y="321.2673"/><rect fill="url(#gqxkqqyqqpmvu2)" height="4.1667" style="stroke:url(#gqxkqqyqqpmvu2);stroke-width:1.0417;" width="218.9189" x="305.125" y="351.8597"/><rect fill="none" height="100.1104" rx="4.1667" ry="4.1667" style="stroke:#2FA4E7;stroke-width:1.0417;" width="218.9189" x="305.125" y="321.2673"/><ellipse cx="352.2118" cy="338.6468" fill="#EDF0F2" rx="10.4167" ry="10.4167" style="stroke:#BABDBF;stroke-width:1.0417;"/><path d="M354.1222,343.0719 Q353.695,343.2916 353.225,343.4015 Q352.7551,343.5113 352.2363,343.5113 Q350.393,343.5113 349.4225,342.2967 Q348.4521,341.0821 348.4521,338.7872 Q348.4521,336.4862 349.4225,335.2716 Q350.393,334.057 352.2363,334.057 Q352.7551,334.057 353.2311,334.1669 Q353.7072,334.2767 354.1222,334.4964 L354.1222,336.4984 Q353.6584,336.0712 353.222,335.8728 Q352.7856,335.6744 352.3217,335.6744 Q351.3329,335.6744 350.8294,336.4587 Q350.3259,337.243 350.3259,338.7872 Q350.3259,340.3253 350.8294,341.1096 Q351.3329,341.8939 352.3217,341.8939 Q352.7856,341.8939 353.222,341.6955 Q353.6584,341.4972 354.1222,341.0699 Z " fill="#FFFFFF"/><text fill="#F8F9FA" font-family="Verdana" font-size="11.4583" lengthAdjust="spacing" textLength="105.9952" x="377.2118" y="343.2039">SessionCore_After</text><line style="stroke:#2FA4E7;stroke-width:1.0417;" x1="306.1667" x2="523.0022" y1="356.0263" y2="356.0263"/><rect fill="none" height="6.25" style="stroke:#2683B9;stroke-width:1.0417;" width="6.25" x="313.4583" y="370.8017"/><text fill="#F8F9FA" font-family="Verdana" font-size="11.4583" lengthAdjust="spacing" textLength="151.3585" x="330.125" y="376.9212">terminal: Terminal [owns]</text><rect fill="none" height="6.25" style="stroke:#2683B9;stroke-width:1.0417;" width="6.25" x="313.4583" y="395.144"/><text fill="#F8F9FA" font-family="Verdana" font-size="11.4583" lengthAdjust="spacing" textLength="182.4605" x="330.125" y="401.2636">surfaces: []*Surface [weak ref]</text><line style="stroke:#2FA4E7;stroke-width:1.0417;" x1="306.1667" x2="523.0022" y1="413.0444" y2="413.0444"/></g><!--class TermA--><g class="entity" data-entity="TermA" data-source-line="37" data-uid="ent0012" id="entity_TermA"><rect fill="url(#gqxkqqyqqpmvu1)" height="75.768" rx="4.1667" ry="4.1667" style="stroke:#2FA4E7;stroke-width:1.0417;" width="127.9104" x="178.75" y="510.9653"/><rect fill="url(#gqxkqqyqqpmvu2)" height="34.759" rx="4.1667" ry="4.1667" style="stroke:url(#gqxkqqyqqpmvu2);stroke-width:1.0417;" width="127.9104" x="178.75" y="510.9653"/><rect fill="url(#gqxkqqyqqpmvu2)" height="4.1667" style="stroke:url(#gqxkqqyqqpmvu2);stroke-width:1.0417;" width="127.9104" x="178.75" y="541.5576"/><rect fill="none" height="75.768" rx="4.1667" ry="4.1667" style="stroke:#2FA4E7;stroke-width:1.0417;" width="127.9104" x="178.75" y="510.9653"/><ellipse cx="193.5693" cy="528.3448" fill="#EDF0F2" rx="10.4167" ry="10.4167" style="stroke:#BABDBF;stroke-width:1.0417;"/><path d="M195.4797,532.7698 Q195.0525,532.9895 194.5825,533.0994 Q194.1125,533.2093 193.5937,533.2093 Q191.7505,533.2093 190.78,531.9947 Q189.8095,530.7801 189.8095,528.4851 Q189.8095,526.1841 190.78,524.9695 Q191.7505,523.7549 193.5937,523.7549 Q194.1125,523.7549 194.5886,523.8648 Q195.0647,523.9746 195.4797,524.1944 L195.4797,526.1963 Q195.0158,525.7691 194.5794,525.5707 Q194.143,525.3723 193.6792,525.3723 Q192.6904,525.3723 192.1869,526.1566 Q191.6833,526.9409 191.6833,528.4851 Q191.6833,530.0232 192.1869,530.8075 Q192.6904,531.5918 193.6792,531.5918 Q194.143,531.5918 194.5794,531.3935 Q195.0158,531.1951 195.4797,530.7679 Z " fill="#FFFFFF"/><text fill="#F8F9FA" font-family="Verdana" font-size="11.4583" lengthAdjust="spacing" textLength="85.7193" x="212.3717" y="532.9018">Terminal_After</text><line style="stroke:#2FA4E7;stroke-width:1.0417;" x1="179.7917" x2="305.6187" y1="545.7243" y2="545.7243"/><text fill="#F8F9FA" font-family="Verdana" font-size="11.4583" lengthAdjust="spacing" textLength="104.9937" x="190.2083" y="566.6191">&#34987;SessionCore&#25317;&#26377;</text><line style="stroke:#2FA4E7;stroke-width:1.0417;" x1="179.7917" x2="305.6187" y1="578.3999" y2="578.3999"/></g><g class="entity" data-entity="GMN17" data-source-line="48" data-uid="ent0018" id="entity_GMN17"><path d="M69.2292,656.5173 L69.2292,729.7839 A4.1667,4.1667 0 0 0 73.3958,733.9506 L412.027,733.9506 A4.1667,4.1667 0 0 0 416.1937,729.7839 L416.1937,662.7673 L405.777,652.3507 L246.875,652.3507 L242.7083,586.8819 L238.5417,652.3507 L73.3958,652.3507 A4.1667,4.1667 0 0 0 69.2292,656.5173" fill="url(#gqxkqqyqqpmvu3)" style="stroke:#033C73;stroke-width:1.0417;"/><path d="M405.777,652.3507 L405.777,660.684 A2.0833,2.0833 0 0 0 407.8604,662.7673 L416.1937,662.7673 L405.777,652.3507" fill="url(#gqxkqqyqqpmvu3)" style="stroke:#033C73;stroke-width:1.0417;"/><text fill="#FFFFFF" font-family="Verdana" font-size="12.5" lengthAdjust="spacing" textLength="62.5" x="80.6875" y="675.3345">&#26680;&#24515;&#21464;&#21270;&#65306;</text><text fill="#FFFFFF" font-family="Verdana" font-size="12.5" lengthAdjust="spacing" textLength="292.5049" x="80.6875" y="690.5261">1. Terminal&#30340;&#25152;&#26377;&#26435;&#20174;Termio&#36716;&#31227;&#21040;SessionCore</text><text fill="#FFFFFF" font-family="Verdana" font-size="12.5" lengthAdjust="spacing" textLength="271.4966" x="80.6875" y="705.7178">2. Surface&#36890;&#36807;SessionCore&#38388;&#25509;&#35775;&#38382;Terminal</text><text fill="#FFFFFF" font-family="Verdana" font-size="12.5" lengthAdjust="spacing" textLength="314.6729" x="80.6875" y="720.9094">3. &#22810;&#20010;Surface&#21487;&#20197;&#20849;&#20139;&#21516;&#19968;&#20010;SessionCore/Terminal</text></g><!--reverse link SB to TB--><g class="link" data-entity-1="SB" data-entity-2="TB" data-source-line="18" data-uid="lnk6" id="link_SB_TB"><path codeLine="18" d="M693.75,244.4653 C693.75,276.1632 693.75,304.1944 693.75,333.1736" fill="none" id="SB-backto-TB" style="stroke:#2FA4E7;stroke-width:3.125;"/><polygon fill="#2FA4E7" points="693.75,231.9653,689.5833,238.2153,693.75,244.4653,697.9167,238.2153,693.75,231.9653" style="stroke:#2FA4E7;stroke-width:3.125;"/><text fill="#343A40" font-family="Verdana" font-size="12.5" lengthAdjust="spacing" textLength="75.4272" x="700" y="281.7511">composition</text></g><!--reverse link TB to TermB--><g class="link" data-entity-1="TB" data-entity-2="TermB" data-source-line="19" data-uid="lnk7" id="link_TB_TermB"><path codeLine="19" d="M693.75,422.0694 C693.75,451.8403 693.75,480.8923 693.75,510.6528" fill="none" id="TB-backto-TermB" style="stroke:#2FA4E7;stroke-width:3.125;"/><polygon fill="#2FA4E7" points="693.75,409.5694,689.5833,415.8194,693.75,422.0694,697.9167,415.8194,693.75,409.5694" style="stroke:#2FA4E7;stroke-width:3.125;"/><text fill="#343A40" font-family="Verdana" font-size="12.5" lengthAdjust="spacing" textLength="75.4272" x="700" y="471.4491">composition</text></g><!--reverse link SA to SC--><g class="link" data-entity-1="SA" data-entity-2="SC" data-source-line="41" data-uid="lnk13" id="link_SA_SC"><path codeLine="41" d="M300.7499,241.3378 C324.9895,268.8066 346.8229,293.5278 371.0729,320.9965" fill="none" id="SA-backto-SC" style="stroke:#2FA4E7;stroke-width:3.125;"/><polygon fill="none" points="292.4792,231.9653,293.4904,239.4084,300.7499,241.3378,299.7387,233.8946,292.4792,231.9653" style="stroke:#2FA4E7;stroke-width:3.125;"/><text fill="#343A40" font-family="Verdana" font-size="12.5" lengthAdjust="spacing" textLength="69.4214" x="347.9375" y="281.7511">association</text></g><!--reverse link SA to TA--><g class="link" data-entity-1="SA" data-entity-2="TA" data-source-line="42" data-uid="lnk14" id="link_SA_TA"><path codeLine="42" d="M217.4461,243.047 C200.9044,274.745 185.5313,304.1944 170.4063,333.1736" fill="none" id="SA-backto-TA" style="stroke:#2FA4E7;stroke-width:3.125;"/><polygon fill="#2FA4E7" points="223.2292,231.9653,216.6437,235.5785,217.4461,243.047,224.0316,239.4338,223.2292,231.9653" style="stroke:#2FA4E7;stroke-width:3.125;"/><text fill="#343A40" font-family="Verdana" font-size="12.5" lengthAdjust="spacing" textLength="75.4272" x="212.1146" y="281.7511">composition</text></g><!--reverse link SC to TermA--><g class="link" data-entity-1="SC" data-entity-2="TermA" data-source-line="43" data-uid="lnk15" id="link_SC_TermA"><path codeLine="43" d="M357.5008,430.6324 C329.8966,458.799 304.5938,484.6319 279.2396,510.5173" fill="none" id="SC-backto-TermA" style="stroke:#2FA4E7;stroke-width:3.125;"/><polygon fill="#2FA4E7" points="366.25,421.7048,358.8995,423.2522,357.5008,430.6324,364.8512,429.085,366.25,421.7048" style="stroke:#2FA4E7;stroke-width:3.125;"/><text fill="#343A40" font-family="Verdana" font-size="12.5" lengthAdjust="spacing" textLength="75.4272" x="340.0521" y="471.4491">composition</text></g><!--link TA to TermA--><g class="link" data-entity-1="TA" data-entity-2="TermA" data-source-line="44" data-uid="lnk16" id="link_TA_TermA"><path codeLine="44" d="M170.4792,409.5694 C186.0417,439.3403 204.8568,475.3523 220.3985,505.1127" fill="none" id="TA-to-TermA" style="stroke:#2FA4E7;stroke-width:3.125;stroke-dasharray:7.2917,7.2917;"/><polygon fill="#2FA4E7" points="223.2917,510.6528,222.6453,500.4139,220.8807,506.036,215.2586,504.2714,223.2917,510.6528" style="stroke:#2FA4E7;stroke-width:3.125;"/><text fill="#343A40" font-family="Verdana" font-size="12.5" lengthAdjust="spacing" textLength="50.3723" x="211.3333" y="471.4491">borrows</text></g><!--SRC=[bLF1Rjf04BtxAwOSKN7LvkP39OTFW1kAeerPMYlWZRmc728af2Hg4Id9eMeYb4fL5DIgfBHHUa1n8dx6QyEflz0nQyWIGjBkmTgTD_DctvlrC-yjhL2mg5ijK-9edksLAOZzg_77VdJfuoQwygFEdZWy4GUVD6sBM9la3OMK38ZcXnJiQ83BAXFE8PMhkYLYqVLLMc8kJG7Xa5jDKkAL0PiPaATknMPGO3M7hocO5ySTKauoS2TpODicM2XJwvElsbJIgJtpypsNyJvAY5bpb1XJMQFMHTHhYHydulJRVHgKdCvay1O6MAoonRZjsSoPGFa4YjdcqVgYlKVj9VQQ9PGatJN_sLrEEST6wnPACY2TaySidg3Wqj8Jxjwrp9jBpAqwoBU3RMdn-GPpNLQZnVeILgMxgYRx7tDBL4bBk065jNJY3nHgb6p2KwBY2IkoCAGg6vtrb4k6hMvusbmOj0aCfvdB6iZ0cMMJsQ0HcWpQN7m3g7Bw1Xv0qLvTVpr5fOyyVXqEyoYUFOzLC37yCX33NVbG_jnqCF9Idzc4lspORE25my-xWT-M8npTNaHVVV7-bo8BorxfaDWsRdH6mtSAEZx-7RQxe_vmVDoVKcF5YWxYl1CClYTrul1du7V5_cLmtHD71y6W4MDtD2zcjTGfGYn3-mi0]--></g></svg>