<svg xmlns="http://www.w3.org/2000/svg" xmlns:xlink="http://www.w3.org/1999/xlink" contentStyleType="text/css" data-diagram-type="SEQUENCE" height="1183.3333px" preserveAspectRatio="none" style="width:1863px;height:1183px;" version="1.1" viewBox="0 0 1863 1183" width="1863.5417px" zoomAndPan="magnify"><title>&#24403;&#21069;&#26550;&#26500; - &#25968;&#25454;&#27969;</title><defs><linearGradient id="gz8cvk4s33emu0" x1="50%" x2="50%" y1="0%" y2="100%"><stop offset="0%" stop-color="#EDF0F2"/><stop offset="100%" stop-color="#E9ECEF"/></linearGradient><linearGradient id="gz8cvk4s33emu1" x1="50%" x2="50%" y1="0%" y2="100%"><stop offset="0%" stop-color="#59B6EC"/><stop offset="100%" stop-color="#2FA4E7"/></linearGradient><linearGradient id="gz8cvk4s33emu2" x1="50%" x2="50%" y1="0%" y2="100%"><stop offset="0%" stop-color="#FFFFFF"/><stop offset="100%" stop-color="#F8F9FA"/></linearGradient><linearGradient id="gz8cvk4s33emu3" x1="50%" x2="50%" y1="0%" y2="100%"><stop offset="0%" stop-color="#35638F"/><stop offset="100%" stop-color="#033C73"/></linearGradient></defs><g><rect fill="url(#gz8cvk4s33emu0)" height="48.2361" rx="4.1667" ry="4.1667" style="stroke:#BABDBF;stroke-width:1.0417;" width="192.9911" x="833.8369" y="20.8333"/><text fill="#2FA4E7" font-family="Verdana" font-size="20.8333" font-weight="bold" lengthAdjust="spacing" textLength="170.0745" x="845.2952" y="53.2369">&#24403;&#21069;&#26550;&#26500; - &#25968;&#25454;&#27969;</text><g><title>User</title><rect fill="#000000" fill-opacity="0.00000" height="915.4663" width="8.3333" x="34.0129" y="169.6777"/><line style="stroke:#BABDBF;stroke-width:1.0417;stroke-dasharray:5.2083,5.2083;" x1="37.5" x2="37.5" y1="169.6777" y2="1085.144"/></g><g><title>Surface A</title><rect fill="#000000" fill-opacity="0.00000" height="915.4663" width="8.3333" x="151.4455" y="169.6777"/><line style="stroke:#BABDBF;stroke-width:1.0417;stroke-dasharray:5.2083,5.2083;" x1="155.5257" x2="155.5257" y1="169.6777" y2="1085.144"/></g><g><title>Termio A</title><rect fill="#000000" fill-opacity="0.00000" height="915.4663" width="8.3333" x="328.7893" y="169.6777"/><line style="stroke:#BABDBF;stroke-width:1.0417;stroke-dasharray:5.2083,5.2083;" x1="332.782" x2="332.782" y1="169.6777" y2="1085.144"/></g><g><title>Terminal A</title><rect fill="#000000" fill-opacity="0.00000" height="915.4663" width="8.3333" x="509.7677" y="169.6777"/><line style="stroke:#BABDBF;stroke-width:1.0417;stroke-dasharray:5.2083,5.2083;" x1="513.3382" x2="513.3382" y1="169.6777" y2="1085.144"/></g><g><title>PTY A</title><rect fill="#000000" fill-opacity="0.00000" height="915.4663" width="8.3333" x="680.3823" y="169.6777"/><line style="stroke:#BABDBF;stroke-width:1.0417;stroke-dasharray:5.2083,5.2083;" x1="684.3221" x2="684.3221" y1="169.6777" y2="1085.144"/></g><g><title>Shell A</title><rect fill="#000000" fill-opacity="0.00000" height="915.4663" width="8.3333" x="838.9181" y="169.6777"/><line style="stroke:#BABDBF;stroke-width:1.0417;stroke-dasharray:5.2083,5.2083;" x1="842.0675" x2="842.0675" y1="169.6777" y2="1085.144"/></g><g><title>User B</title><rect fill="#000000" fill-opacity="0.00000" height="915.4663" width="8.3333" x="954.3884" y="169.6777"/><line style="stroke:#BABDBF;stroke-width:1.0417;stroke-dasharray:5.2083,5.2083;" x1="957.6436" x2="957.6436" y1="169.6777" y2="1085.144"/></g><g><title>Surface B</title><rect fill="#000000" fill-opacity="0.00000" height="915.4663" width="8.3333" x="1078.3152" y="169.6777"/><line style="stroke:#BABDBF;stroke-width:1.0417;stroke-dasharray:5.2083,5.2083;" x1="1082.3832" x2="1082.3832" y1="169.6777" y2="1085.144"/></g><g><title>Termio B</title><rect fill="#000000" fill-opacity="0.00000" height="915.4663" width="8.3333" x="1255.6834" y="169.6777"/><line style="stroke:#BABDBF;stroke-width:1.0417;stroke-dasharray:5.2083,5.2083;" x1="1259.6639" x2="1259.6639" y1="169.6777" y2="1085.144"/></g><g><title>Terminal B</title><rect fill="#000000" fill-opacity="0.00000" height="915.4663" width="8.3333" x="1436.6862" y="169.6777"/><line style="stroke:#BABDBF;stroke-width:1.0417;stroke-dasharray:5.2083,5.2083;" x1="1440.2445" x2="1440.2445" y1="169.6777" y2="1085.144"/></g><g><title>PTY B</title><rect fill="#000000" fill-opacity="0.00000" height="915.4663" width="8.3333" x="1607.3252" y="169.6777"/><line style="stroke:#BABDBF;stroke-width:1.0417;stroke-dasharray:5.2083,5.2083;" x1="1611.2528" x2="1611.2528" y1="169.6777" y2="1085.144"/></g><g><title>Shell B</title><rect fill="#000000" fill-opacity="0.00000" height="915.4663" width="8.3333" x="1765.8854" y="169.6777"/><line style="stroke:#BABDBF;stroke-width:1.0417;stroke-dasharray:5.2083,5.2083;" x1="1769.0226" x2="1769.0226" y1="169.6777" y2="1085.144"/></g><g class="participant participant-head" data-participant="User"><text fill="#343A40" font-family="Verdana" font-size="12.5" lengthAdjust="spacing" textLength="28.4424" x="20.8333" y="161.8449">User</text><ellipse cx="38.1795" cy="89.9028" fill="url(#gz8cvk4s33emu1)" rx="8.3333" ry="8.3333" style="stroke:#2FA4E7;stroke-width:1.0417;"/><path d="M38.1795,98.2361 L38.1795,126.3611 M24.6379,106.5694 L51.7212,106.5694 M38.1795,126.3611 L24.6379,141.9861 M38.1795,126.3611 L51.7212,141.9861" fill="none" style="stroke:#2FA4E7;stroke-width:1.0417;"/></g><g class="participant participant-tail" data-participant="User"><text fill="#343A40" font-family="Verdana" font-size="12.5" lengthAdjust="spacing" textLength="28.4424" x="20.8333" y="1101.8778">User</text><ellipse cx="38.1795" cy="1119.0857" fill="url(#gz8cvk4s33emu1)" rx="8.3333" ry="8.3333" style="stroke:#2FA4E7;stroke-width:1.0417;"/><path d="M38.1795,1127.419 L38.1795,1155.544 M24.6379,1135.7524 L51.7212,1135.7524 M38.1795,1155.544 L24.6379,1171.169 M38.1795,1155.544 L51.7212,1171.169" fill="none" style="stroke:#2FA4E7;stroke-width:1.0417;"/></g><g class="participant participant-head" data-participant="SA"><rect fill="url(#gz8cvk4s33emu1)" height="40.1917" rx="4.1667" ry="4.1667" style="stroke:#2FA4E7;stroke-width:1.0417;" width="85.5896" x="112.8174" y="128.4444"/><text fill="#FFFFFF" font-family="Verdana" font-size="12.5" lengthAdjust="spacing" textLength="60.5896" x="125.3174" y="153.5116">Surface A</text></g><g class="participant participant-tail" data-participant="SA"><rect fill="url(#gz8cvk4s33emu1)" height="40.1917" rx="4.1667" ry="4.1667" style="stroke:#2FA4E7;stroke-width:1.0417;" width="85.5896" x="112.8174" y="1084.1024"/><text fill="#FFFFFF" font-family="Verdana" font-size="12.5" lengthAdjust="spacing" textLength="60.5896" x="125.3174" y="1109.1695">Surface A</text></g><g class="participant participant-head" data-participant="TA"><rect fill="url(#gz8cvk4s33emu1)" height="40.1917" rx="4.1667" ry="4.1667" style="stroke:#2FA4E7;stroke-width:1.0417;" width="81.5979" x="292.157" y="128.4444"/><text fill="#FFFFFF" font-family="Verdana" font-size="12.5" lengthAdjust="spacing" textLength="56.5979" x="304.657" y="153.5116">Termio A</text></g><g class="participant participant-tail" data-participant="TA"><rect fill="url(#gz8cvk4s33emu1)" height="40.1917" rx="4.1667" ry="4.1667" style="stroke:#2FA4E7;stroke-width:1.0417;" width="81.5979" x="292.157" y="1084.1024"/><text fill="#FFFFFF" font-family="Verdana" font-size="12.5" lengthAdjust="spacing" textLength="56.5979" x="304.657" y="1109.1695">Termio A</text></g><g class="participant participant-head" data-participant="TermA"><rect fill="url(#gz8cvk4s33emu1)" height="40.1917" rx="4.1667" ry="4.1667" style="stroke:#2FA4E7;stroke-width:1.0417;" width="92.8589" x="467.5049" y="128.4444"/><text fill="#FFFFFF" font-family="Verdana" font-size="12.5" lengthAdjust="spacing" textLength="67.8589" x="480.0049" y="153.5116">Terminal A</text></g><g class="participant participant-tail" data-participant="TermA"><rect fill="url(#gz8cvk4s33emu1)" height="40.1917" rx="4.1667" ry="4.1667" style="stroke:#2FA4E7;stroke-width:1.0417;" width="92.8589" x="467.5049" y="1084.1024"/><text fill="#FFFFFF" font-family="Verdana" font-size="12.5" lengthAdjust="spacing" textLength="67.8589" x="480.0049" y="1109.1695">Terminal A</text></g><g class="participant participant-head" data-participant="PA"><rect fill="url(#gz8cvk4s33emu1)" height="40.1917" rx="4.1667" ry="4.1667" style="stroke:#2FA4E7;stroke-width:1.0417;" width="60.8704" x="654.1138" y="128.4444"/><text fill="#FFFFFF" font-family="Verdana" font-size="12.5" lengthAdjust="spacing" textLength="35.8704" x="666.6138" y="153.5116">PTY A</text></g><g class="participant participant-tail" data-participant="PA"><rect fill="url(#gz8cvk4s33emu1)" height="40.1917" rx="4.1667" ry="4.1667" style="stroke:#2FA4E7;stroke-width:1.0417;" width="60.8704" x="654.1138" y="1084.1024"/><text fill="#FFFFFF" font-family="Verdana" font-size="12.5" lengthAdjust="spacing" textLength="35.8704" x="666.6138" y="1109.1695">PTY A</text></g><g class="participant participant-head" data-participant="ShA"><rect fill="url(#gz8cvk4s33emu1)" height="40.1917" rx="4.1667" ry="4.1667" style="stroke:#2FA4E7;stroke-width:1.0417;" width="68.7012" x="808.7341" y="128.4444"/><text fill="#FFFFFF" font-family="Verdana" font-size="12.5" lengthAdjust="spacing" textLength="43.7012" x="821.2341" y="153.5116">Shell A</text></g><g class="participant participant-tail" data-participant="ShA"><rect fill="url(#gz8cvk4s33emu1)" height="40.1917" rx="4.1667" ry="4.1667" style="stroke:#2FA4E7;stroke-width:1.0417;" width="68.7012" x="808.7341" y="1084.1024"/><text fill="#FFFFFF" font-family="Verdana" font-size="12.5" lengthAdjust="spacing" textLength="43.7012" x="821.2341" y="1109.1695">Shell A</text></g><g class="participant participant-head" data-participant="User2"><text fill="#343A40" font-family="Verdana" font-size="12.5" lengthAdjust="spacing" textLength="41.4063" x="934.727" y="161.8449">User B</text><ellipse cx="958.5551" cy="89.9028" fill="url(#gz8cvk4s33emu1)" rx="8.3333" ry="8.3333" style="stroke:#2FA4E7;stroke-width:1.0417;"/><path d="M958.5551,98.2361 L958.5551,126.3611 M945.0134,106.5694 L972.0968,106.5694 M958.5551,126.3611 L945.0134,141.9861 M958.5551,126.3611 L972.0968,141.9861" fill="none" style="stroke:#2FA4E7;stroke-width:1.0417;"/></g><g class="participant participant-tail" data-participant="User2"><text fill="#343A40" font-family="Verdana" font-size="12.5" lengthAdjust="spacing" textLength="41.4063" x="934.727" y="1101.8778">User B</text><ellipse cx="958.5551" cy="1119.0857" fill="url(#gz8cvk4s33emu1)" rx="8.3333" ry="8.3333" style="stroke:#2FA4E7;stroke-width:1.0417;"/><path d="M958.5551,1127.419 L958.5551,1155.544 M945.0134,1135.7524 L972.0968,1135.7524 M958.5551,1155.544 L945.0134,1171.169 M958.5551,1155.544 L972.0968,1171.169" fill="none" style="stroke:#2FA4E7;stroke-width:1.0417;"/></g><g class="participant participant-head" data-participant="SB"><rect fill="url(#gz8cvk4s33emu1)" height="40.1917" rx="4.1667" ry="4.1667" style="stroke:#2FA4E7;stroke-width:1.0417;" width="85.614" x="1039.6749" y="128.4444"/><text fill="#FFFFFF" font-family="Verdana" font-size="12.5" lengthAdjust="spacing" textLength="60.614" x="1052.1749" y="153.5116">Surface B</text></g><g class="participant participant-tail" data-participant="SB"><rect fill="url(#gz8cvk4s33emu1)" height="40.1917" rx="4.1667" ry="4.1667" style="stroke:#2FA4E7;stroke-width:1.0417;" width="85.614" x="1039.6749" y="1084.1024"/><text fill="#FFFFFF" font-family="Verdana" font-size="12.5" lengthAdjust="spacing" textLength="60.614" x="1052.1749" y="1109.1695">Surface B</text></g><g class="participant participant-head" data-participant="TB"><rect fill="url(#gz8cvk4s33emu1)" height="40.1917" rx="4.1667" ry="4.1667" style="stroke:#2FA4E7;stroke-width:1.0417;" width="81.6223" x="1219.0389" y="128.4444"/><text fill="#FFFFFF" font-family="Verdana" font-size="12.5" lengthAdjust="spacing" textLength="56.6223" x="1231.5389" y="153.5116">Termio B</text></g><g class="participant participant-tail" data-participant="TB"><rect fill="url(#gz8cvk4s33emu1)" height="40.1917" rx="4.1667" ry="4.1667" style="stroke:#2FA4E7;stroke-width:1.0417;" width="81.6223" x="1219.0389" y="1084.1024"/><text fill="#FFFFFF" font-family="Verdana" font-size="12.5" lengthAdjust="spacing" textLength="56.6223" x="1231.5389" y="1109.1695">Termio B</text></g><g class="participant participant-head" data-participant="TermB"><rect fill="url(#gz8cvk4s33emu1)" height="40.1917" rx="4.1667" ry="4.1667" style="stroke:#2FA4E7;stroke-width:1.0417;" width="92.8833" x="1394.4112" y="128.4444"/><text fill="#FFFFFF" font-family="Verdana" font-size="12.5" lengthAdjust="spacing" textLength="67.8833" x="1406.9112" y="153.5116">Terminal B</text></g><g class="participant participant-tail" data-participant="TermB"><rect fill="url(#gz8cvk4s33emu1)" height="40.1917" rx="4.1667" ry="4.1667" style="stroke:#2FA4E7;stroke-width:1.0417;" width="92.8833" x="1394.4112" y="1084.1024"/><text fill="#FFFFFF" font-family="Verdana" font-size="12.5" lengthAdjust="spacing" textLength="67.8833" x="1406.9112" y="1109.1695">Terminal B</text></g><g class="participant participant-head" data-participant="PB"><rect fill="url(#gz8cvk4s33emu1)" height="40.1917" rx="4.1667" ry="4.1667" style="stroke:#2FA4E7;stroke-width:1.0417;" width="60.8948" x="1581.0445" y="128.4444"/><text fill="#FFFFFF" font-family="Verdana" font-size="12.5" lengthAdjust="spacing" textLength="35.8948" x="1593.5445" y="153.5116">PTY B</text></g><g class="participant participant-tail" data-participant="PB"><rect fill="url(#gz8cvk4s33emu1)" height="40.1917" rx="4.1667" ry="4.1667" style="stroke:#2FA4E7;stroke-width:1.0417;" width="60.8948" x="1581.0445" y="1084.1024"/><text fill="#FFFFFF" font-family="Verdana" font-size="12.5" lengthAdjust="spacing" textLength="35.8948" x="1593.5445" y="1109.1695">PTY B</text></g><g class="participant participant-head" data-participant="ShB"><rect fill="url(#gz8cvk4s33emu1)" height="40.1917" rx="4.1667" ry="4.1667" style="stroke:#2FA4E7;stroke-width:1.0417;" width="68.7256" x="1735.6893" y="128.4444"/><text fill="#FFFFFF" font-family="Verdana" font-size="12.5" lengthAdjust="spacing" textLength="43.7256" x="1748.1893" y="153.5116">Shell B</text></g><g class="participant participant-tail" data-participant="ShB"><rect fill="url(#gz8cvk4s33emu1)" height="40.1917" rx="4.1667" ry="4.1667" style="stroke:#2FA4E7;stroke-width:1.0417;" width="68.7256" x="1735.6893" y="1084.1024"/><text fill="#FFFFFF" font-family="Verdana" font-size="12.5" lengthAdjust="spacing" textLength="43.7256" x="1748.1893" y="1109.1695">Shell B</text></g><rect fill="url(#gz8cvk4s33emu2)" height="3.125" rx="4.1667" ry="4.1667" style="stroke:url(#gz8cvk4s33emu2);stroke-width:1.0417;" width="1840.8732" x="10.4167" y="206.4402"/><line style="stroke:#868E96;stroke-width:1.0417;" x1="10.4167" x2="1851.2899" y1="206.4402" y2="206.4402"/><line style="stroke:#868E96;stroke-width:1.0417;" x1="10.4167" x2="1851.2899" y1="209.5652" y2="209.5652"/><rect fill="url(#gz8cvk4s33emu2)" height="33.9417" rx="4.1667" ry="4.1667" style="stroke:#868E96;stroke-width:2.0833;" width="159.5825" x="851.062" y="190.5111"/><text fill="#343A40" font-family="Verdana" font-size="12.5" font-weight="bold" lengthAdjust="spacing" textLength="130.3101" x="862.5203" y="212.4532">Terminal A &#36755;&#20837;&#36755;&#20986;</text><g class="message" data-participant-1="User" data-participant-2="SA"><polygon fill="#2FA4E7" points="143.1122,262.561,153.5288,266.7277,143.1122,270.8944,147.2788,266.7277" style="stroke:#2FA4E7;stroke-width:1.0417;"/><line style="stroke:#2FA4E7;stroke-width:3.125;" x1="38.1795" x2="149.3622" y1="266.7277" y2="266.7277"/><text fill="#343A40" font-family="Verdana" font-size="12.5" lengthAdjust="spacing" textLength="50" x="50.6795" y="256.8115">&#38190;&#30424;&#36755;&#20837;</text></g><g class="message" data-participant-1="SA" data-participant-2="TA"><polygon fill="#2FA4E7" points="320.4559,302.7527,330.8726,306.9194,320.4559,311.086,324.6226,306.9194" style="stroke:#2FA4E7;stroke-width:1.0417;"/><line style="stroke:#2FA4E7;stroke-width:3.125;" x1="155.6122" x2="326.7059" y1="306.9194" y2="306.9194"/><text fill="#343A40" font-family="Verdana" font-size="12.5" lengthAdjust="spacing" textLength="74.6826" x="168.1122" y="297.0032">write(input)</text></g><g class="message" data-participant-1="TA" data-participant-2="PA"><polygon fill="#2FA4E7" points="672.049,342.9443,682.4656,347.111,672.049,351.2777,676.2156,347.111" style="stroke:#2FA4E7;stroke-width:1.0417;"/><line style="stroke:#2FA4E7;stroke-width:3.125;" x1="332.9559" x2="678.299" y1="347.111" y2="347.111"/><text fill="#343A40" font-family="Verdana" font-size="12.5" lengthAdjust="spacing" textLength="76.7883" x="345.4559" y="337.1948">write(bytes)</text></g><g class="message" data-participant-1="PA" data-participant-2="ShA"><polygon fill="#2FA4E7" points="830.5847,383.136,841.0014,387.3027,830.5847,391.4693,834.7514,387.3027" style="stroke:#2FA4E7;stroke-width:1.0417;"/><line style="stroke:#2FA4E7;stroke-width:3.125;" x1="684.549" x2="836.8347" y1="387.3027" y2="387.3027"/><text fill="#343A40" font-family="Verdana" font-size="12.5" lengthAdjust="spacing" textLength="30.5664" x="697.049" y="377.3865">stdin</text></g><g class="message" data-participant-1="ShA" data-participant-2="PA"><polygon fill="#2FA4E7" points="696.0073,423.3276,685.5906,427.4943,696.0073,431.661,691.8406,427.4943" style="stroke:#2FA4E7;stroke-width:1.0417;"/><line style="stroke:#2FA4E7;stroke-width:3.125;" x1="689.7573" x2="842.0431" y1="427.4943" y2="427.4943"/><text fill="#343A40" font-family="Verdana" font-size="12.5" lengthAdjust="spacing" textLength="39.6484" x="707.4656" y="417.5781">stdout</text></g><g class="message" data-participant-1="PA" data-participant-2="TA"><polygon fill="#2FA4E7" points="344.4143,463.5193,333.9976,467.686,344.4143,471.8526,340.2476,467.686" style="stroke:#2FA4E7;stroke-width:1.0417;"/><line style="stroke:#2FA4E7;stroke-width:3.125;" x1="338.1643" x2="683.5073" y1="467.686" y2="467.686"/><text fill="#343A40" font-family="Verdana" font-size="12.5" lengthAdjust="spacing" textLength="39.4287" x="355.8726" y="457.7698">read()</text></g><g class="message" data-participant-1="TA" data-participant-2="TermA"><polygon fill="#2FA4E7" points="501.4343,503.7109,511.851,507.8776,501.4343,512.0443,505.601,507.8776" style="stroke:#2FA4E7;stroke-width:1.0417;"/><line style="stroke:#2FA4E7;stroke-width:3.125;" x1="332.9559" x2="507.6843" y1="507.8776" y2="507.8776"/><text fill="#343A40" font-family="Verdana" font-size="12.5" lengthAdjust="spacing" textLength="83.7646" x="345.4559" y="497.9614">write(output)</text></g><g class="message" data-participant-1="TermA" data-participant-2="SA"><polygon fill="#2FA4E7" points="167.0705,543.9026,156.6538,548.0693,167.0705,552.2359,162.9038,548.0693" style="stroke:#2FA4E7;stroke-width:1.0417;"/><line style="stroke:#2FA4E7;stroke-width:3.125;" x1="160.8205" x2="512.8927" y1="548.0693" y2="548.0693"/><text fill="#343A40" font-family="Verdana" font-size="12.5" lengthAdjust="spacing" textLength="102.8198" x="178.5288" y="538.1531">dirty notification</text></g><g class="message" data-participant-1="SA" data-participant-2="User"><polygon fill="#2FA4E7" points="49.6379,584.0942,39.2212,588.2609,49.6379,592.4276,45.4712,588.2609" style="stroke:#2FA4E7;stroke-width:1.0417;"/><line style="stroke:#2FA4E7;stroke-width:3.125;" x1="43.3879" x2="154.5705" y1="588.2609" y2="588.2609"/><text fill="#343A40" font-family="Verdana" font-size="12.5" lengthAdjust="spacing" textLength="50" x="61.0962" y="578.3447">&#28210;&#26579;&#26174;&#31034;</text></g><rect fill="url(#gz8cvk4s33emu2)" height="3.125" rx="4.1667" ry="4.1667" style="stroke:url(#gz8cvk4s33emu2);stroke-width:1.0417;" width="1840.8732" x="10.4167" y="622.9401"/><line style="stroke:#868E96;stroke-width:1.0417;" x1="10.4167" x2="1851.2899" y1="622.9401" y2="622.9401"/><line style="stroke:#868E96;stroke-width:1.0417;" x1="10.4167" x2="1851.2899" y1="626.0651" y2="626.0651"/><rect fill="url(#gz8cvk4s33emu2)" height="33.9417" rx="4.1667" ry="4.1667" style="stroke:#868E96;stroke-width:2.0833;" width="159.3994" x="851.1536" y="607.0109"/><text fill="#343A40" font-family="Verdana" font-size="12.5" font-weight="bold" lengthAdjust="spacing" textLength="130.127" x="862.6119" y="628.953">Terminal B &#29420;&#31435;&#36816;&#34892;</text><g class="message" data-participant-1="User2" data-participant-2="SB"><polygon fill="#2FA4E7" points="1069.9819,679.0609,1080.3986,683.2275,1069.9819,687.3942,1074.1486,683.2275" style="stroke:#2FA4E7;stroke-width:1.0417;"/><line style="stroke:#2FA4E7;stroke-width:3.125;" x1="958.5551" x2="1076.2319" y1="683.2275" y2="683.2275"/><text fill="#343A40" font-family="Verdana" font-size="12.5" lengthAdjust="spacing" textLength="50" x="971.0551" y="673.3114">&#38190;&#30424;&#36755;&#20837;</text></g><g class="message" data-participant-1="SB" data-participant-2="TB"><polygon fill="#2FA4E7" points="1247.3501,719.2525,1257.7667,723.4192,1247.3501,727.5859,1251.5167,723.4192" style="stroke:#2FA4E7;stroke-width:1.0417;"/><line style="stroke:#2FA4E7;stroke-width:3.125;" x1="1082.4819" x2="1253.6001" y1="723.4192" y2="723.4192"/><text fill="#343A40" font-family="Verdana" font-size="12.5" lengthAdjust="spacing" textLength="74.6826" x="1094.9819" y="713.503">write(input)</text></g><g class="message" data-participant-1="TB" data-participant-2="PB"><polygon fill="#2FA4E7" points="1598.9919,759.4442,1609.4086,763.6108,1598.9919,767.7775,1603.1586,763.6108" style="stroke:#2FA4E7;stroke-width:1.0417;"/><line style="stroke:#2FA4E7;stroke-width:3.125;" x1="1259.8501" x2="1605.2419" y1="763.6108" y2="763.6108"/><text fill="#343A40" font-family="Verdana" font-size="12.5" lengthAdjust="spacing" textLength="76.7883" x="1272.3501" y="753.6947">write(bytes)</text></g><g class="message" data-participant-1="PB" data-participant-2="ShB"><polygon fill="#2FA4E7" points="1757.5521,799.6358,1767.9688,803.8025,1757.5521,807.9692,1761.7188,803.8025" style="stroke:#2FA4E7;stroke-width:1.0417;"/><line style="stroke:#2FA4E7;stroke-width:3.125;" x1="1611.4919" x2="1763.8021" y1="803.8025" y2="803.8025"/><text fill="#343A40" font-family="Verdana" font-size="12.5" lengthAdjust="spacing" textLength="30.5664" x="1623.9919" y="793.8863">stdin</text></g><g class="message" data-participant-1="ShB" data-participant-2="PB"><polygon fill="#2FA4E7" points="1622.9502,839.8275,1612.5336,843.9941,1622.9502,848.1608,1618.7836,843.9941" style="stroke:#2FA4E7;stroke-width:1.0417;"/><line style="stroke:#2FA4E7;stroke-width:3.125;" x1="1616.7002" x2="1769.0104" y1="843.9941" y2="843.9941"/><text fill="#343A40" font-family="Verdana" font-size="12.5" lengthAdjust="spacing" textLength="39.6484" x="1634.4086" y="834.078">stdout</text></g><g class="message" data-participant-1="PB" data-participant-2="TB"><polygon fill="#2FA4E7" points="1271.3084,880.0191,1260.8917,884.1858,1271.3084,888.3525,1267.1417,884.1858" style="stroke:#2FA4E7;stroke-width:1.0417;"/><line style="stroke:#2FA4E7;stroke-width:3.125;" x1="1265.0584" x2="1610.4502" y1="884.1858" y2="884.1858"/><text fill="#343A40" font-family="Verdana" font-size="12.5" lengthAdjust="spacing" textLength="39.4287" x="1282.7667" y="874.2696">read()</text></g><g class="message" data-participant-1="TB" data-participant-2="TermB"><polygon fill="#2FA4E7" points="1428.3529,920.2108,1438.7695,924.3774,1428.3529,928.5441,1432.5195,924.3774" style="stroke:#2FA4E7;stroke-width:1.0417;"/><line style="stroke:#2FA4E7;stroke-width:3.125;" x1="1259.8501" x2="1434.6029" y1="924.3774" y2="924.3774"/><text fill="#343A40" font-family="Verdana" font-size="12.5" lengthAdjust="spacing" textLength="83.7646" x="1272.3501" y="914.4613">write(output)</text></g><g class="message" data-participant-1="TermB" data-participant-2="SB"><polygon fill="#2FA4E7" points="1093.9402,960.4024,1083.5236,964.5691,1093.9402,968.7358,1089.7736,964.5691" style="stroke:#2FA4E7;stroke-width:1.0417;"/><line style="stroke:#2FA4E7;stroke-width:3.125;" x1="1087.6902" x2="1439.8112" y1="964.5691" y2="964.5691"/><text fill="#343A40" font-family="Verdana" font-size="12.5" lengthAdjust="spacing" textLength="102.8198" x="1105.3986" y="954.6529">dirty notification</text></g><g class="message" data-participant-1="SB" data-participant-2="User2"><polygon fill="#2FA4E7" points="970.0134,1000.5941,959.5968,1004.7607,970.0134,1008.9274,965.8468,1004.7607" style="stroke:#2FA4E7;stroke-width:1.0417;"/><line style="stroke:#2FA4E7;stroke-width:3.125;" x1="963.7634" x2="1081.4402" y1="1004.7607" y2="1004.7607"/><text fill="#343A40" font-family="Verdana" font-size="12.5" lengthAdjust="spacing" textLength="50" x="981.4718" y="994.8446">&#28210;&#26579;&#26174;&#31034;</text></g><path d="M428.125,1022.4691 L428.125,1065.1774 A4.1667,4.1667 0 0 0 432.2917,1069.3441 L1520.8333,1069.3441 A4.1667,4.1667 0 0 0 1525,1065.1774 L1525,1028.7191 L1514.5833,1018.3024 L432.2917,1018.3024 A4.1667,4.1667 0 0 0 428.125,1022.4691" fill="url(#gz8cvk4s33emu3)" style="stroke:#033C73;stroke-width:1.0417;"/><path d="M1514.5833,1018.3024 L1514.5833,1026.6357 A2.0833,2.0833 0 0 0 1516.6667,1028.7191 L1525,1028.7191 L1514.5833,1018.3024" fill="url(#gz8cvk4s33emu3)" style="stroke:#033C73;stroke-width:1.0417;"/><text fill="#FFFFFF" font-family="Verdana" font-size="12.5" lengthAdjust="spacing" textLength="129.9194" x="907.4351" y="1041.2862">&#20004;&#20010;Terminal&#23436;&#20840;&#29420;&#31435;</text><text fill="#FFFFFF" font-family="Verdana" font-size="12.5" lengthAdjust="spacing" textLength="75" x="907.4351" y="1056.4779">&#26080;&#27861;&#20849;&#20139;&#20869;&#23481;</text><!--SRC=[TPBDIiD058NtynJNhYhefij2XTud22GkN8xfI0TgKgPJnQLW5Qc2K4L1y0SKHANuWr8Bwiiqq_eMJYQPYZ5kGdBEoPtptMH6rjag0v-9TeFHW4Wk6moYzrwqkw_ENjNP5io3EdfG-ttriaa8zMKeOB7516bI8RdFcpIGK73ROeNw3Ae5e2rmgxzTZubL7gQcbsS6j65j_PX9EDvIQZePnwspXdtHhLTjlq9S4D38yMqflsmIS36tR69w-4zPd9R5lsKJqy6yikcXTIIaKe4VU9XyzABETNpT6KAbGWp3_89UPXc-3llZqvCaGTngB7jQNXTSiY8FccqvIpmZErDvUKEorYnnZAoNKuQMhF60w5iRr4BObcaa7YWOhHNjAFCbx3ITIqw9HLkhneNSW22KV8NxLF8mICl5tSkW1a_glATEFiPNmz-q2EFk_VYkE_ayc5pkMTgIcOjPN3HbC8jhP0Upk9ZWuW_kD6XnfmCjBbfSpCD5MoiF5orkASkhSmp2DVqHpSxcqfy5O3Iu6WrkxIwY_bxKkKdMeKrrVA6UZwBEusXu5srteluROK4jFfIHRm00]--></g></svg>