<svg xmlns="http://www.w3.org/2000/svg" xmlns:xlink="http://www.w3.org/1999/xlink" contentStyleType="text/css" data-diagram-type="CLASS" height="1775px" preserveAspectRatio="none" style="width:1059px;height:1775px;" version="1.1" viewBox="0 0 1059 1775" width="1059.375px" zoomAndPan="magnify"><title>Ghostty&#24403;&#21069;&#26550;&#26500; - Surface&#25317;&#26377;&#19968;&#20999; (&#10060; &#38169;&#35823;&#27169;&#24335;)</title><defs><linearGradient id="gnq788hibnxkm0" x1="50%" x2="50%" y1="0%" y2="100%"><stop offset="0%" stop-color="#EDF0F2"/><stop offset="100%" stop-color="#E9ECEF"/></linearGradient><linearGradient id="gnq788hibnxkm1" x1="50%" x2="50%" y1="0%" y2="100%"><stop offset="0%" stop-color="#59B6EC"/><stop offset="100%" stop-color="#2FA4E7"/></linearGradient><linearGradient id="gnq788hibnxkm2" x1="50%" x2="50%" y1="0%" y2="100%"><stop offset="0%" stop-color="#2FA4E7"/><stop offset="100%" stop-color="#2683B9"/></linearGradient><linearGradient id="gnq788hibnxkm3" x1="50%" x2="50%" y1="0%" y2="100%"><stop offset="0%" stop-color="#35638F"/><stop offset="100%" stop-color="#033C73"/></linearGradient></defs><g><g class="title" data-source-line="2"><rect fill="url(#gnq788hibnxkm0)" height="48.2361" rx="4.1667" ry="4.1667" style="stroke:#BABDBF;stroke-width:1.0417;" width="537.7502" x="256.3083" y="20.8333"/><text fill="#2FA4E7" font-family="Verdana" font-size="20.8333" font-weight="bold" lengthAdjust="spacing" textLength="514.8336" x="267.7666" y="53.2369">Ghostty&#24403;&#21069;&#26550;&#26500; - Surface&#25317;&#26377;&#19968;&#20999; (&#10060; &#38169;&#35823;&#27169;&#24335;)</text></g><!--cluster App Layer--><g class="cluster" data-entity="App Layer" data-source-line="4" data-uid="ent0002" id="cluster_App Layer"><path d="M56.1354,86.7778 L134.8911,86.7778 A6.25,6.25 0 0 1 139.0578,90.9444 L146.3494,118.6361 L335.3021,118.6361 A4.1667,4.1667 0 0 1 339.4688,122.8027 L339.4688,531.2465 A4.1667,4.1667 0 0 1 335.3021,535.4132 L56.1354,535.4132 A4.1667,4.1667 0 0 1 51.9688,531.2465 L51.9688,90.9444 A4.1667,4.1667 0 0 1 56.1354,86.7778" fill="none" style="stroke:#59B6EC;stroke-width:2.0833;"/><line style="stroke:#59B6EC;stroke-width:2.0833;" x1="51.9688" x2="146.3494" y1="118.6361" y2="118.6361"/><text fill="#2FA4E7" font-family="Verdana" font-size="12.5" font-weight="bold" lengthAdjust="spacing" textLength="70.4224" x="61.3438" y="106.6366">App Layer</text></g><!--cluster Surface Layer (????/??)--><g class="cluster" data-entity="Surface Layer ........." data-source-line="20" data-uid="ent0005" id="cluster_Surface Layer ........."><path d="M275.9271,611.4548 L482.2585,611.4548 A6.25,6.25 0 0 1 486.4251,615.6215 L493.7168,643.3132 L515.5104,643.3132 A4.1667,4.1667 0 0 1 519.6771,647.4798 L519.6771,1256.5173 A4.1667,4.1667 0 0 1 515.5104,1260.684 L275.9271,1260.684 A4.1667,4.1667 0 0 1 271.7604,1256.5173 L271.7604,615.6215 A4.1667,4.1667 0 0 1 275.9271,611.4548" fill="none" style="stroke:#59B6EC;stroke-width:2.0833;"/><line style="stroke:#59B6EC;stroke-width:2.0833;" x1="271.7604" x2="493.7168" y1="643.3132" y2="643.3132"/><text fill="#2FA4E7" font-family="Verdana" font-size="12.5" font-weight="bold" lengthAdjust="spacing" textLength="197.998" x="281.1354" y="631.3136">Surface Layer (&#27599;&#20010;&#31383;&#21475;/&#26631;&#31614;)</text></g><!--cluster I/O Layer--><g class="cluster" data-entity="I.O Layer" data-source-line="41" data-uid="ent0008" id="cluster_I.O Layer"><path d="M548.8438,1001.7465 L626.4825,1001.7465 A6.25,6.25 0 0 1 630.6492,1005.9132 L637.9408,1033.6048 L945.7188,1033.6048 A4.1667,4.1667 0 0 1 949.8854,1037.7715 L949.8854,1632.2361 A4.1667,4.1667 0 0 1 945.7188,1636.4028 L548.8438,1636.4028 A4.1667,4.1667 0 0 1 544.6771,1632.2361 L544.6771,1005.9132 A4.1667,4.1667 0 0 1 548.8438,1001.7465" fill="none" style="stroke:#59B6EC;stroke-width:2.0833;"/><line style="stroke:#59B6EC;stroke-width:2.0833;" x1="544.6771" x2="637.9408" y1="1033.6048" y2="1033.6048"/><text fill="#2FA4E7" font-family="Verdana" font-size="12.5" font-weight="bold" lengthAdjust="spacing" textLength="69.3054" x="554.0521" y="1021.6053">I/O Layer</text></g><!--class App--><g class="entity" data-entity="App" data-source-line="5" data-uid="ent0003" id="entity_App"><rect fill="url(#gnq788hibnxkm1)" height="148.7951" rx="4.1667" ry="4.1667" style="stroke:#2FA4E7;stroke-width:1.0417;" width="239.5472" x="80.1146" y="131.5694"/><rect fill="url(#gnq788hibnxkm2)" height="34.759" rx="4.1667" ry="4.1667" style="stroke:url(#gnq788hibnxkm2);stroke-width:1.0417;" width="239.5472" x="80.1146" y="131.5694"/><rect fill="url(#gnq788hibnxkm2)" height="4.1667" style="stroke:url(#gnq788hibnxkm2);stroke-width:1.0417;" width="239.5472" x="80.1146" y="162.1618"/><rect fill="none" height="148.7951" rx="4.1667" ry="4.1667" style="stroke:#2FA4E7;stroke-width:1.0417;" width="239.5472" x="80.1146" y="131.5694"/><ellipse cx="179.4577" cy="148.9489" fill="#EDF0F2" rx="10.4167" ry="10.4167" style="stroke:#BABDBF;stroke-width:1.0417;"/><path d="M181.3681,153.374 Q180.9408,153.5937 180.4709,153.7036 Q180.0009,153.8134 179.4821,153.8134 Q177.6388,153.8134 176.6684,152.5988 Q175.6979,151.3842 175.6979,149.0893 Q175.6979,146.7883 176.6684,145.5737 Q177.6388,144.3591 179.4821,144.3591 Q180.0009,144.3591 180.477,144.4689 Q180.9531,144.5788 181.3681,144.7985 L181.3681,146.8005 Q180.9042,146.3732 180.4678,146.1749 Q180.0314,145.9765 179.5676,145.9765 Q178.5788,145.9765 178.0752,146.7608 Q177.5717,147.5451 177.5717,149.0893 Q177.5717,150.6274 178.0752,151.4117 Q178.5788,152.196 179.5676,152.196 Q180.0314,152.196 180.4678,151.9976 Q180.9042,151.7993 181.3681,151.372 Z " fill="#FFFFFF"/><text fill="#F8F9FA" font-family="Verdana" font-size="11.4583" lengthAdjust="spacing" textLength="22.111" x="204.4577" y="153.506">App</text><line style="stroke:#2FA4E7;stroke-width:1.0417;" x1="81.1563" x2="318.6201" y1="166.3284" y2="166.3284"/><rect fill="none" height="6.25" style="stroke:#2683B9;stroke-width:1.0417;" width="6.25" x="88.4479" y="181.1038"/><text fill="#F8F9FA" font-family="Verdana" font-size="11.4583" lengthAdjust="spacing" textLength="203.0889" x="105.1146" y="187.2233">session_manager: SessionManager</text><ellipse cx="91.5729" cy="208.5711" fill="none" rx="3.125" ry="3.125" style="stroke:#2683B9;stroke-width:1.0417;"/><text fill="#F8F9FA" font-family="Verdana" font-size="11.4583" lengthAdjust="spacing" textLength="98.1232" x="105.1146" y="211.5657">mailbox: Mailbox</text><line style="stroke:#2FA4E7;stroke-width:1.0417;" x1="81.1563" x2="318.6201" y1="223.3465" y2="223.3465"/><rect fill="none" height="6.25" style="stroke:#2683B9;stroke-width:1.0417;" width="6.25" x="88.4479" y="238.1218"/><text fill="#F8F9FA" font-family="Verdana" font-size="11.4583" lengthAdjust="spacing" textLength="162.3861" x="105.1146" y="244.2413">surfaces: ArrayList(Surface)</text><ellipse cx="91.5729" cy="265.5891" fill="none" rx="3.125" ry="3.125" style="stroke:#2683B9;stroke-width:1.0417;"/><text fill="#F8F9FA" font-family="Verdana" font-size="11.4583" lengthAdjust="spacing" textLength="89.9938" x="105.1146" y="268.5837">createSurface()</text></g><!--class SessionManager--><g class="entity" data-entity="SessionManager" data-source-line="12" data-uid="ent0004" id="entity_SessionManager"><rect fill="url(#gnq788hibnxkm1)" height="148.7951" rx="4.1667" ry="4.1667" style="stroke:#2FA4E7;stroke-width:1.0417;" width="254.189" x="68.625" y="369.9444"/><rect fill="url(#gnq788hibnxkm2)" height="34.759" rx="4.1667" ry="4.1667" style="stroke:url(#gnq788hibnxkm2);stroke-width:1.0417;" width="254.189" x="68.625" y="369.9444"/><rect fill="url(#gnq788hibnxkm2)" height="4.1667" style="stroke:url(#gnq788hibnxkm2);stroke-width:1.0417;" width="254.189" x="68.625" y="400.5368"/><rect fill="none" height="148.7951" rx="4.1667" ry="4.1667" style="stroke:#2FA4E7;stroke-width:1.0417;" width="254.189" x="68.625" y="369.9444"/><ellipse cx="139.6076" cy="387.3239" fill="#EDF0F2" rx="10.4167" ry="10.4167" style="stroke:#BABDBF;stroke-width:1.0417;"/><path d="M141.518,391.749 Q141.0908,391.9687 140.6208,392.0786 Q140.1508,392.1884 139.632,392.1884 Q137.7888,392.1884 136.8183,390.9738 Q135.8478,389.7592 135.8478,387.4643 Q135.8478,385.1633 136.8183,383.9487 Q137.7888,382.7341 139.632,382.7341 Q140.1508,382.7341 140.6269,382.8439 Q141.103,382.9538 141.518,383.1735 L141.518,385.1755 Q141.0541,384.7482 140.6177,384.5499 Q140.1813,384.3515 139.7175,384.3515 Q138.7287,384.3515 138.2252,385.1358 Q137.7216,385.9201 137.7216,387.4643 Q137.7216,389.0024 138.2252,389.7867 Q138.7287,390.571 139.7175,390.571 Q140.1813,390.571 140.6177,390.3726 Q141.0541,390.1743 141.518,389.747 Z " fill="#FFFFFF"/><text fill="#F8F9FA" font-family="Verdana" font-size="11.4583" lengthAdjust="spacing" textLength="93.4738" x="164.6076" y="391.881">SessionManager</text><line style="stroke:#2FA4E7;stroke-width:1.0417;" x1="69.6667" x2="321.7724" y1="404.7034" y2="404.7034"/><line style="stroke:#2FA4E7;stroke-width:1.0417;" x1="69.6667" x2="321.7724" y1="413.0368" y2="413.0368"/><rect fill="none" height="6.25" style="stroke:#2683B9;stroke-width:1.0417;" width="6.25" x="76.9583" y="427.8121"/><text fill="#F8F9FA" font-family="Verdana" font-size="11.4583" lengthAdjust="spacing" textLength="217.7307" x="93.625" y="433.9316">sessions: HashMap(name-&gt;Surface*)</text><ellipse cx="80.0833" cy="455.2794" fill="none" rx="3.125" ry="3.125" style="stroke:#2683B9;stroke-width:1.0417;"/><text fill="#F8F9FA" font-family="Verdana" font-size="11.4583" lengthAdjust="spacing" textLength="204.4988" x="93.625" y="458.274">registerSession(name, surface_ptr)</text><ellipse cx="80.0833" cy="479.6218" fill="none" rx="3.125" ry="3.125" style="stroke:#2683B9;stroke-width:1.0417;"/><text fill="#F8F9FA" font-family="Verdana" font-size="11.4583" lengthAdjust="spacing" textLength="165.1332" x="93.625" y="482.6163">getSession(name): Surface*</text><ellipse cx="80.0833" cy="503.9641" fill="none" rx="3.125" ry="3.125" style="stroke:#2683B9;stroke-width:1.0417;"/><text fill="#F8F9FA" font-family="Verdana" font-size="11.4583" lengthAdjust="spacing" textLength="167.1585" x="93.625" y="506.9587">sendMessage(from, to, data)</text></g><!--class Surface--><g class="entity" data-entity="Surface" data-source-line="21" data-uid="ent0006" id="entity_Surface"><rect fill="url(#gnq788hibnxkm1)" height="270.5068" rx="4.1667" ry="4.1667" style="stroke:#2FA4E7;stroke-width:1.0417;" width="215.5843" x="287.9271" y="656.2465"/><rect fill="url(#gnq788hibnxkm2)" height="34.759" rx="4.1667" ry="4.1667" style="stroke:url(#gnq788hibnxkm2);stroke-width:1.0417;" width="215.5843" x="287.9271" y="656.2465"/><rect fill="url(#gnq788hibnxkm2)" height="4.1667" style="stroke:url(#gnq788hibnxkm2);stroke-width:1.0417;" width="215.5843" x="287.9271" y="686.8388"/><rect fill="none" height="270.5068" rx="4.1667" ry="4.1667" style="stroke:#2FA4E7;stroke-width:1.0417;" width="215.5843" x="287.9271" y="656.2465"/><ellipse cx="364.5046" cy="673.626" fill="#EDF0F2" rx="10.4167" ry="10.4167" style="stroke:#BABDBF;stroke-width:1.0417;"/><path d="M366.415,678.0511 Q365.9877,678.2708 365.5178,678.3806 Q365.0478,678.4905 364.529,678.4905 Q362.6857,678.4905 361.7153,677.2759 Q360.7448,676.0613 360.7448,673.7664 Q360.7448,671.4654 361.7153,670.2508 Q362.6857,669.0362 364.529,669.0362 Q365.0478,669.0362 365.5239,669.146 Q365.9999,669.2559 366.415,669.4756 L366.415,671.4776 Q365.9511,671.0503 365.5147,670.852 Q365.0783,670.6536 364.6145,670.6536 Q363.6257,670.6536 363.1221,671.4379 Q362.6186,672.2222 362.6186,673.7664 Q362.6186,675.3045 363.1221,676.0888 Q363.6257,676.8731 364.6145,676.8731 Q365.0783,676.8731 365.5147,676.6747 Q365.9511,676.4763 366.415,676.0491 Z " fill="#FFFFFF"/><text fill="#F8F9FA" font-family="Verdana" font-size="11.4583" lengthAdjust="spacing" textLength="43.6793" x="389.5046" y="678.183">Surface</text><line style="stroke:#2FA4E7;stroke-width:1.0417;" x1="288.9688" x2="502.4697" y1="691.0055" y2="691.0055"/><rect fill="none" height="6.25" style="stroke:#2683B9;stroke-width:1.0417;" width="6.25" x="296.2604" y="705.7809"/><text fill="#F8F9FA" font-family="Verdana" font-size="11.4583" lengthAdjust="spacing" textLength="59.3506" x="312.9271" y="711.9004">io: Termio</text><rect fill="none" height="6.25" style="stroke:#2683B9;stroke-width:1.0417;" width="6.25" x="296.2604" y="730.1232"/><text fill="#F8F9FA" font-family="Verdana" font-size="11.4583" lengthAdjust="spacing" textLength="177.9455" x="312.9271" y="736.2427">renderer_state: RendererState</text><rect fill="none" height="6.25" style="stroke:#2683B9;stroke-width:1.0417;" width="6.25" x="296.2604" y="754.4655"/><text fill="#F8F9FA" font-family="Verdana" font-size="11.4583" lengthAdjust="spacing" textLength="80.2363" x="312.9271" y="760.5851">config: Config</text><rect fill="none" height="6.25" style="stroke:#2683B9;stroke-width:1.0417;" width="6.25" x="296.2604" y="778.8079"/><text fill="#F8F9FA" font-family="Verdana" font-size="11.4583" lengthAdjust="spacing" textLength="57.2861" x="312.9271" y="784.9274">font: Font</text><rect fill="none" height="6.25" style="stroke:#2683B9;stroke-width:1.0417;" width="6.25" x="296.2604" y="803.1502"/><text fill="#F8F9FA" font-family="Verdana" font-size="11.4583" lengthAdjust="spacing" textLength="103.6565" x="312.9271" y="809.2698">session_id: String</text><line style="stroke:#2FA4E7;stroke-width:1.0417;" x1="288.9688" x2="502.4697" y1="821.0506" y2="821.0506"/><ellipse cx="299.3854" cy="838.9509" fill="none" rx="3.125" ry="3.125" style="stroke:#2683B9;stroke-width:1.0417;"/><text fill="#F8F9FA" font-family="Verdana" font-size="11.4583" lengthAdjust="spacing" textLength="62.9481" x="312.9271" y="841.9455">init(config)</text><ellipse cx="299.3854" cy="863.2933" fill="none" rx="3.125" ry="3.125" style="stroke:#2683B9;stroke-width:1.0417;"/><text fill="#F8F9FA" font-family="Verdana" font-size="11.4583" lengthAdjust="spacing" textLength="99.1247" x="312.9271" y="866.2878">keyCallback(key)</text><ellipse cx="299.3854" cy="887.6356" fill="none" rx="3.125" ry="3.125" style="stroke:#2683B9;stroke-width:1.0417;"/><text fill="#F8F9FA" font-family="Verdana" font-size="11.4583" lengthAdjust="spacing" textLength="48.2279" x="312.9271" y="890.6301">render()</text><ellipse cx="299.3854" cy="911.978" fill="none" rx="3.125" ry="3.125" style="stroke:#2683B9;stroke-width:1.0417;"/><text fill="#F8F9FA" font-family="Verdana" font-size="11.4583" lengthAdjust="spacing" textLength="179.126" x="312.9271" y="914.9725">processReceivedMessage(msg)</text></g><!--class RendererState--><g class="entity" data-entity="RendererState" data-source-line="33" data-uid="ent0007" id="entity_RendererState"><rect fill="url(#gnq788hibnxkm1)" height="148.7951" rx="4.1667" ry="4.1667" style="stroke:#2FA4E7;stroke-width:1.0417;" width="151.1144" x="343.0833" y="1095.2257"/><rect fill="url(#gnq788hibnxkm2)" height="34.759" rx="4.1667" ry="4.1667" style="stroke:url(#gnq788hibnxkm2);stroke-width:1.0417;" width="151.1144" x="343.0833" y="1095.2257"/><rect fill="url(#gnq788hibnxkm2)" height="4.1667" style="stroke:url(#gnq788hibnxkm2);stroke-width:1.0417;" width="151.1144" x="343.0833" y="1125.818"/><rect fill="none" height="148.7951" rx="4.1667" ry="4.1667" style="stroke:#2FA4E7;stroke-width:1.0417;" width="151.1144" x="343.0833" y="1095.2257"/><ellipse cx="369.485" cy="1112.6052" fill="#EDF0F2" rx="10.4167" ry="10.4167" style="stroke:#BABDBF;stroke-width:1.0417;"/><path d="M371.3954,1117.0302 Q370.9681,1117.2499 370.4982,1117.3598 Q370.0282,1117.4697 369.5094,1117.4697 Q367.6661,1117.4697 366.6957,1116.2551 Q365.7252,1115.0405 365.7252,1112.7456 Q365.7252,1110.4445 366.6957,1109.2299 Q367.6661,1108.0153 369.5094,1108.0153 Q370.0282,1108.0153 370.5043,1108.1252 Q370.9803,1108.2351 371.3954,1108.4548 L371.3954,1110.4567 Q370.9315,1110.0295 370.4951,1109.8311 Q370.0587,1109.6328 369.5948,1109.6328 Q368.6061,1109.6328 368.1025,1110.4171 Q367.599,1111.2014 367.599,1112.7456 Q367.599,1114.2836 368.1025,1115.0679 Q368.6061,1115.8522 369.5948,1115.8522 Q370.0587,1115.8522 370.4951,1115.6539 Q370.9315,1115.4555 371.3954,1115.0283 Z " fill="#FFFFFF"/><text fill="#F8F9FA" font-family="Verdana" font-size="11.4583" lengthAdjust="spacing" textLength="83.1848" x="390.8613" y="1117.1622">RendererState</text><line style="stroke:#2FA4E7;stroke-width:1.0417;" x1="344.125" x2="493.1561" y1="1129.9847" y2="1129.9847"/><rect fill="none" height="6.25" style="stroke:#2683B9;stroke-width:1.0417;" width="6.25" x="351.4167" y="1144.76"/><text fill="#F8F9FA" font-family="Verdana" font-size="11.4583" lengthAdjust="spacing" textLength="114.6561" x="368.0833" y="1150.8796">terminal: *Terminal</text><rect fill="none" height="6.25" style="stroke:#2683B9;stroke-width:1.0417;" width="6.25" x="351.4167" y="1169.1024"/><text fill="#F8F9FA" font-family="Verdana" font-size="11.4583" lengthAdjust="spacing" textLength="80.779" x="368.0833" y="1175.2219">mutex: Mutex</text><line style="stroke:#2FA4E7;stroke-width:1.0417;" x1="344.125" x2="493.1561" y1="1187.0027" y2="1187.0027"/><ellipse cx="354.5417" cy="1204.903" fill="none" rx="3.125" ry="3.125" style="stroke:#2683B9;stroke-width:1.0417;"/><text fill="#F8F9FA" font-family="Verdana" font-size="11.4583" lengthAdjust="spacing" textLength="33.256" x="368.0833" y="1207.8976">lock()</text><ellipse cx="354.5417" cy="1229.2454" fill="none" rx="3.125" ry="3.125" style="stroke:#2683B9;stroke-width:1.0417;"/><text fill="#F8F9FA" font-family="Verdana" font-size="11.4583" lengthAdjust="spacing" textLength="47.758" x="368.0833" y="1232.2399">unlock()</text></g><!--class Termio--><g class="entity" data-entity="Termio" data-source-line="42" data-uid="ent0009" id="entity_Termio"><rect fill="url(#gnq788hibnxkm1)" height="246.1644" rx="4.1667" ry="4.1667" style="stroke:#2FA4E7;stroke-width:1.0417;" width="178.6804" x="685.5521" y="1046.5382"/><rect fill="url(#gnq788hibnxkm2)" height="34.759" rx="4.1667" ry="4.1667" style="stroke:url(#gnq788hibnxkm2);stroke-width:1.0417;" width="178.6804" x="685.5521" y="1046.5382"/><rect fill="url(#gnq788hibnxkm2)" height="4.1667" style="stroke:url(#gnq788hibnxkm2);stroke-width:1.0417;" width="178.6804" x="685.5521" y="1077.1305"/><rect fill="none" height="246.1644" rx="4.1667" ry="4.1667" style="stroke:#2FA4E7;stroke-width:1.0417;" width="178.6804" x="685.5521" y="1046.5382"/><ellipse cx="745.5072" cy="1063.9177" fill="#EDF0F2" rx="10.4167" ry="10.4167" style="stroke:#BABDBF;stroke-width:1.0417;"/><path d="M747.4176,1068.3427 Q746.9903,1068.5624 746.5204,1068.6723 Q746.0504,1068.7822 745.5316,1068.7822 Q743.6883,1068.7822 742.7179,1067.5676 Q741.7474,1066.353 741.7474,1064.0581 Q741.7474,1061.757 742.7179,1060.5424 Q743.6883,1059.3278 745.5316,1059.3278 Q746.0504,1059.3278 746.5265,1059.4377 Q747.0025,1059.5476 747.4176,1059.7673 L747.4176,1061.7692 Q746.9537,1061.342 746.5173,1061.1436 Q746.0809,1060.9453 745.617,1060.9453 Q744.6283,1060.9453 744.1247,1061.7296 Q743.6212,1062.5139 743.6212,1064.0581 Q743.6212,1065.5961 744.1247,1066.3804 Q744.6283,1067.1647 745.617,1067.1647 Q746.0809,1067.1647 746.5173,1066.9664 Q746.9537,1066.768 747.4176,1066.3408 Z " fill="#FFFFFF"/><text fill="#F8F9FA" font-family="Verdana" font-size="11.4583" lengthAdjust="spacing" textLength="40.0202" x="770.5072" y="1068.4747">Termio</text><line style="stroke:#2FA4E7;stroke-width:1.0417;" x1="686.5938" x2="863.1908" y1="1081.2972" y2="1081.2972"/><rect fill="none" height="6.25" style="stroke:#2683B9;stroke-width:1.0417;" width="6.25" x="693.8854" y="1096.0725"/><text fill="#F8F9FA" font-family="Verdana" font-size="11.4583" lengthAdjust="spacing" textLength="107.3715" x="710.5521" y="1102.1921">terminal: Terminal</text><rect fill="none" height="6.25" style="stroke:#2683B9;stroke-width:1.0417;" width="6.25" x="693.8854" y="1120.4149"/><text fill="#F8F9FA" font-family="Verdana" font-size="11.4583" lengthAdjust="spacing" textLength="48.6867" x="710.5521" y="1126.5344">pty: PTY</text><rect fill="none" height="6.25" style="stroke:#2683B9;stroke-width:1.0417;" width="6.25" x="693.8854" y="1144.7572"/><text fill="#F8F9FA" font-family="Verdana" font-size="11.4583" lengthAdjust="spacing" textLength="82.1945" x="710.5521" y="1150.8767">parser: Parser</text><rect fill="none" height="6.25" style="stroke:#2683B9;stroke-width:1.0417;" width="6.25" x="693.8854" y="1169.0996"/><text fill="#F8F9FA" font-family="Verdana" font-size="11.4583" lengthAdjust="spacing" textLength="142.2221" x="710.5521" y="1175.2191">thread_pool: ThreadPool</text><rect fill="none" height="6.25" style="stroke:#2683B9;stroke-width:1.0417;" width="6.25" x="693.8854" y="1193.4419"/><text fill="#F8F9FA" font-family="Verdana" font-size="11.4583" lengthAdjust="spacing" textLength="104.1656" x="710.5521" y="1199.5614">io_thread: Thread</text><line style="stroke:#2FA4E7;stroke-width:1.0417;" x1="686.5938" x2="863.1908" y1="1211.3422" y2="1211.3422"/><ellipse cx="697.0104" cy="1229.2426" fill="none" rx="3.125" ry="3.125" style="stroke:#2683B9;stroke-width:1.0417;"/><text fill="#F8F9FA" font-family="Verdana" font-size="11.4583" lengthAdjust="spacing" textLength="62.9481" x="710.5521" y="1232.2371">init(config)</text><ellipse cx="697.0104" cy="1253.5849" fill="none" rx="3.125" ry="3.125" style="stroke:#2683B9;stroke-width:1.0417;"/><text fill="#F8F9FA" font-family="Verdana" font-size="11.4583" lengthAdjust="spacing" textLength="64.5762" x="710.5521" y="1256.5795">write(data)</text><rect fill="none" height="6.25" style="stroke:#2683B9;stroke-width:1.0417;" width="6.25" x="693.8854" y="1274.8023"/><text fill="#F8F9FA" font-family="Verdana" font-size="11.4583" lengthAdjust="spacing" textLength="74.3896" x="710.5521" y="1280.9218">ioThreadFn()</text></g><!--class Terminal--><g class="entity" data-entity="Terminal" data-source-line="53" data-uid="ent0010" id="entity_Terminal"><rect fill="url(#gnq788hibnxkm1)" height="221.8221" rx="4.1667" ry="4.1667" style="stroke:#2FA4E7;stroke-width:1.0417;" width="182.166" x="560.8854" y="1397.9132"/><rect fill="url(#gnq788hibnxkm2)" height="34.759" rx="4.1667" ry="4.1667" style="stroke:url(#gnq788hibnxkm2);stroke-width:1.0417;" width="182.166" x="560.8854" y="1397.9132"/><rect fill="url(#gnq788hibnxkm2)" height="4.1667" style="stroke:url(#gnq788hibnxkm2);stroke-width:1.0417;" width="182.166" x="560.8854" y="1428.5055"/><rect fill="none" height="221.8221" rx="4.1667" ry="4.1667" style="stroke:#2FA4E7;stroke-width:1.0417;" width="182.166" x="560.8854" y="1397.9132"/><ellipse cx="617.422" cy="1415.2927" fill="#EDF0F2" rx="10.4167" ry="10.4167" style="stroke:#BABDBF;stroke-width:1.0417;"/><path d="M619.3324,1419.7177 Q618.9052,1419.9374 618.4352,1420.0473 Q617.9652,1420.1572 617.4464,1420.1572 Q615.6032,1420.1572 614.6327,1418.9426 Q613.6623,1417.728 613.6623,1415.4331 Q613.6623,1413.132 614.6327,1411.9174 Q615.6032,1410.7028 617.4464,1410.7028 Q617.9652,1410.7028 618.4413,1410.8127 Q618.9174,1410.9226 619.3324,1411.1423 L619.3324,1413.1442 Q618.8686,1412.717 618.4322,1412.5186 Q617.9958,1412.3203 617.5319,1412.3203 Q616.5431,1412.3203 616.0396,1413.1046 Q615.536,1413.8889 615.536,1415.4331 Q615.536,1416.9711 616.0396,1417.7554 Q616.5431,1418.5397 617.5319,1418.5397 Q617.9958,1418.5397 618.4322,1418.3414 Q618.8686,1418.143 619.3324,1417.7158 Z " fill="#FFFFFF"/><text fill="#F8F9FA" font-family="Verdana" font-size="11.4583" lengthAdjust="spacing" textLength="50.3428" x="642.422" y="1419.8497">Terminal</text><line style="stroke:#2FA4E7;stroke-width:1.0417;" x1="561.9271" x2="742.0098" y1="1432.6722" y2="1432.6722"/><rect fill="none" height="6.25" style="stroke:#2683B9;stroke-width:1.0417;" width="6.25" x="569.2188" y="1447.4475"/><text fill="#F8F9FA" font-family="Verdana" font-size="11.4583" lengthAdjust="spacing" textLength="86.5585" x="585.8854" y="1453.5671">screen: Screen</text><rect fill="none" height="6.25" style="stroke:#2683B9;stroke-width:1.0417;" width="6.25" x="569.2188" y="1471.7899"/><text fill="#F8F9FA" font-family="Verdana" font-size="11.4583" lengthAdjust="spacing" textLength="124.7828" x="585.8854" y="1477.9094">scrollback: Scrollback</text><rect fill="none" height="6.25" style="stroke:#2683B9;stroke-width:1.0417;" width="6.25" x="569.2188" y="1496.1322"/><text fill="#F8F9FA" font-family="Verdana" font-size="11.4583" lengthAdjust="spacing" textLength="83.1121" x="585.8854" y="1502.2517">cursor: Cursor</text><rect fill="none" height="6.25" style="stroke:#2683B9;stroke-width:1.0417;" width="6.25" x="569.2188" y="1520.4746"/><text fill="#F8F9FA" font-family="Verdana" font-size="11.4583" lengthAdjust="spacing" textLength="145.5734" x="585.8854" y="1526.5941">alternate_screen: Screen</text><line style="stroke:#2FA4E7;stroke-width:1.0417;" x1="561.9271" x2="742.0098" y1="1538.3749" y2="1538.3749"/><ellipse cx="572.3438" cy="1556.2752" fill="none" rx="3.125" ry="3.125" style="stroke:#2683B9;stroke-width:1.0417;"/><text fill="#F8F9FA" font-family="Verdana" font-size="11.4583" lengthAdjust="spacing" textLength="64.5762" x="585.8854" y="1559.2698">write(data)</text><ellipse cx="572.3438" cy="1580.6176" fill="none" rx="3.125" ry="3.125" style="stroke:#2683B9;stroke-width:1.0417;"/><text fill="#F8F9FA" font-family="Verdana" font-size="11.4583" lengthAdjust="spacing" textLength="80.1468" x="585.8854" y="1583.6121">read(): String</text><ellipse cx="572.3438" cy="1604.9599" fill="none" rx="3.125" ry="3.125" style="stroke:#2683B9;stroke-width:1.0417;"/><text fill="#F8F9FA" font-family="Verdana" font-size="11.4583" lengthAdjust="spacing" textLength="145.7077" x="585.8854" y="1607.9545">getSnapshot(): Snapshot</text></g><!--class PTY--><g class="entity" data-entity="PTY" data-source-line="63" data-uid="ent0011" id="entity_PTY"><rect fill="url(#gnq788hibnxkm1)" height="173.1374" rx="4.1667" ry="4.1667" style="stroke:#2FA4E7;stroke-width:1.0417;" width="154.186" x="779.0521" y="1422.2569"/><rect fill="url(#gnq788hibnxkm2)" height="34.759" rx="4.1667" ry="4.1667" style="stroke:url(#gnq788hibnxkm2);stroke-width:1.0417;" width="154.186" x="779.0521" y="1422.2569"/><rect fill="url(#gnq788hibnxkm2)" height="4.1667" style="stroke:url(#gnq788hibnxkm2);stroke-width:1.0417;" width="154.186" x="779.0521" y="1452.8493"/><rect fill="none" height="173.1374" rx="4.1667" ry="4.1667" style="stroke:#2FA4E7;stroke-width:1.0417;" width="154.186" x="779.0521" y="1422.2569"/><ellipse cx="836.2601" cy="1439.6364" fill="#EDF0F2" rx="10.4167" ry="10.4167" style="stroke:#BABDBF;stroke-width:1.0417;"/><path d="M838.1705,1444.0615 Q837.7432,1444.2812 837.2733,1444.3911 Q836.8033,1444.5009 836.2845,1444.5009 Q834.4412,1444.5009 833.4708,1443.2863 Q832.5003,1442.0717 832.5003,1439.7768 Q832.5003,1437.4758 833.4708,1436.2612 Q834.4412,1435.0466 836.2845,1435.0466 Q836.8033,1435.0466 837.2794,1435.1564 Q837.7554,1435.2663 838.1705,1435.486 L838.1705,1437.488 Q837.7066,1437.0607 837.2702,1436.8624 Q836.8338,1436.664 836.3699,1436.664 Q835.3812,1436.664 834.8776,1437.4483 Q834.3741,1438.2326 834.3741,1439.7768 Q834.3741,1441.3149 834.8776,1442.0992 Q835.3812,1442.8835 836.3699,1442.8835 Q836.8338,1442.8835 837.2702,1442.6851 Q837.7066,1442.4868 838.1705,1442.0595 Z " fill="#FFFFFF"/><text fill="#F8F9FA" font-family="Verdana" font-size="11.4583" lengthAdjust="spacing" textLength="21.02" x="861.2601" y="1444.1935">PTY</text><line style="stroke:#2FA4E7;stroke-width:1.0417;" x1="780.0938" x2="932.1964" y1="1457.0159" y2="1457.0159"/><rect fill="none" height="6.25" style="stroke:#2683B9;stroke-width:1.0417;" width="6.25" x="787.3854" y="1471.7913"/><text fill="#F8F9FA" font-family="Verdana" font-size="11.4583" lengthAdjust="spacing" textLength="99.2254" x="804.0521" y="1477.9108">fd: FileDescriptor</text><rect fill="none" height="6.25" style="stroke:#2683B9;stroke-width:1.0417;" width="6.25" x="787.3854" y="1496.1336"/><text fill="#F8F9FA" font-family="Verdana" font-size="11.4583" lengthAdjust="spacing" textLength="117.7277" x="804.0521" y="1502.2532">child_pid: ProcessID</text><line style="stroke:#2FA4E7;stroke-width:1.0417;" x1="780.0938" x2="932.1964" y1="1514.034" y2="1514.034"/><ellipse cx="790.5104" cy="1531.9343" fill="none" rx="3.125" ry="3.125" style="stroke:#2683B9;stroke-width:1.0417;"/><text fill="#F8F9FA" font-family="Verdana" font-size="11.4583" lengthAdjust="spacing" textLength="73.3602" x="804.0521" y="1534.9288">spawn(shell)</text><ellipse cx="790.5104" cy="1556.2766" fill="none" rx="3.125" ry="3.125" style="stroke:#2683B9;stroke-width:1.0417;"/><text fill="#F8F9FA" font-family="Verdana" font-size="11.4583" lengthAdjust="spacing" textLength="76.6052" x="804.0521" y="1559.2712">read(): bytes</text><ellipse cx="790.5104" cy="1580.619" fill="none" rx="3.125" ry="3.125" style="stroke:#2683B9;stroke-width:1.0417;"/><text fill="#F8F9FA" font-family="Verdana" font-size="11.4583" lengthAdjust="spacing" textLength="70.3893" x="804.0521" y="1583.6135">write(bytes)</text></g><!--class Parser--><g class="entity" data-entity="Parser" data-source-line="83" data-uid="ent0020" id="entity_Parser"><rect fill="url(#gnq788hibnxkm1)" height="51.4257" rx="4.1667" ry="4.1667" style="stroke:#2FA4E7;stroke-width:1.0417;" width="78.0334" x="969.2083" y="1483.1111"/><rect fill="url(#gnq788hibnxkm2)" height="34.759" rx="4.1667" ry="4.1667" style="stroke:url(#gnq788hibnxkm2);stroke-width:1.0417;" width="78.0334" x="969.2083" y="1483.1111"/><rect fill="url(#gnq788hibnxkm2)" height="4.1667" style="stroke:url(#gnq788hibnxkm2);stroke-width:1.0417;" width="78.0334" x="969.2083" y="1513.7034"/><rect fill="none" height="51.4257" rx="4.1667" ry="4.1667" style="stroke:#2FA4E7;stroke-width:1.0417;" width="78.0334" x="969.2083" y="1483.1111"/><ellipse cx="983.7917" cy="1500.4906" fill="#EDF0F2" rx="10.4167" ry="10.4167" style="stroke:#BABDBF;stroke-width:1.0417;"/><path d="M985.7021,1504.9156 Q985.2748,1505.1354 984.8049,1505.2452 Q984.3349,1505.3551 983.8161,1505.3551 Q981.9728,1505.3551 981.0024,1504.1405 Q980.0319,1502.9259 980.0319,1500.631 Q980.0319,1498.3299 981.0024,1497.1153 Q981.9728,1495.9007 983.8161,1495.9007 Q984.3349,1495.9007 984.811,1496.0106 Q985.287,1496.1205 985.7021,1496.3402 L985.7021,1498.3422 Q985.2382,1497.9149 984.8018,1497.7165 Q984.3654,1497.5182 983.9015,1497.5182 Q982.9128,1497.5182 982.4092,1498.3025 Q981.9057,1499.0868 981.9057,1500.631 Q981.9057,1502.1691 982.4092,1502.9534 Q982.9128,1503.7377 983.9015,1503.7377 Q984.3654,1503.7377 984.8018,1503.5393 Q985.2382,1503.3409 985.7021,1502.9137 Z " fill="#FFFFFF"/><text fill="#F8F9FA" font-family="Verdana" font-size="11.4583" lengthAdjust="spacing" textLength="36.3668" x="1002.5417" y="1505.0476">Parser</text><line style="stroke:#2FA4E7;stroke-width:1.0417;" x1="970.25" x2="1046.2001" y1="1517.8701" y2="1517.8701"/><line style="stroke:#2FA4E7;stroke-width:1.0417;" x1="970.25" x2="1046.2001" y1="1526.2034" y2="1526.2034"/></g><!--class Shell Process--><g class="entity" data-entity="Shell Process" data-source-line="85" data-uid="ent0022" id="entity_Shell Process"><rect fill="url(#gnq788hibnxkm1)" height="51.4257" rx="4.1667" ry="4.1667" style="stroke:#2FA4E7;stroke-width:1.0417;" width="117.3823" x="797.4479" y="1711.4028"/><rect fill="url(#gnq788hibnxkm2)" height="34.759" rx="4.1667" ry="4.1667" style="stroke:url(#gnq788hibnxkm2);stroke-width:1.0417;" width="117.3823" x="797.4479" y="1711.4028"/><rect fill="url(#gnq788hibnxkm2)" height="4.1667" style="stroke:url(#gnq788hibnxkm2);stroke-width:1.0417;" width="117.3823" x="797.4479" y="1741.9951"/><rect fill="none" height="51.4257" rx="4.1667" ry="4.1667" style="stroke:#2FA4E7;stroke-width:1.0417;" width="117.3823" x="797.4479" y="1711.4028"/><ellipse cx="812.0313" cy="1728.7823" fill="#EDF0F2" rx="10.4167" ry="10.4167" style="stroke:#BABDBF;stroke-width:1.0417;"/><path d="M813.9417,1733.2073 Q813.5144,1733.427 813.0444,1733.5369 Q812.5745,1733.6468 812.0557,1733.6468 Q810.2124,1733.6468 809.2419,1732.4322 Q808.2715,1731.2176 808.2715,1728.9226 Q808.2715,1726.6216 809.2419,1725.407 Q810.2124,1724.1924 812.0557,1724.1924 Q812.5745,1724.1924 813.0505,1724.3023 Q813.5266,1724.4121 813.9417,1724.6319 L813.9417,1726.6338 Q813.4778,1726.2066 813.0414,1726.0082 Q812.605,1725.8098 812.1411,1725.8098 Q811.1523,1725.8098 810.6488,1726.5941 Q810.1453,1727.3784 810.1453,1728.9226 Q810.1453,1730.4607 810.6488,1731.245 Q811.1523,1732.0293 812.1411,1732.0293 Q812.605,1732.0293 813.0414,1731.831 Q813.4778,1731.6326 813.9417,1731.2054 Z " fill="#FFFFFF"/><text fill="#F8F9FA" font-family="Verdana" font-size="11.4583" lengthAdjust="spacing" textLength="75.7156" x="830.7813" y="1733.3393">Shell Process</text><line style="stroke:#2FA4E7;stroke-width:1.0417;" x1="798.4896" x2="913.7886" y1="1746.1618" y2="1746.1618"/><line style="stroke:#2FA4E7;stroke-width:1.0417;" x1="798.4896" x2="913.7886" y1="1754.4951" y2="1754.4951"/></g><g class="entity" data-entity="GMN24" data-source-line="88" data-uid="ent0025" id="entity_GMN24"><path d="M539.8125,701.6944 L539.8125,787.3298 L503.9375,791.4965 L539.8125,795.6632 L539.8125,881.3026 A4.1667,4.1667 0 0 0 543.9792,885.4692 L809.9602,885.4692 A4.1667,4.1667 0 0 0 814.1269,881.3026 L814.1269,707.9444 L803.7102,697.5278 L543.9792,697.5278 A4.1667,4.1667 0 0 0 539.8125,701.6944" fill="url(#gnq788hibnxkm3)" style="stroke:#033C73;stroke-width:1.0417;"/><path d="M803.7102,697.5278 L803.7102,705.8611 A2.0833,2.0833 0 0 0 805.7935,707.9444 L814.1269,707.9444 L803.7102,697.5278" fill="url(#gnq788hibnxkm3)" style="stroke:#033C73;stroke-width:1.0417;"/><text fill="#FFFFFF" font-family="Verdana" font-size="12.5" font-weight="bold" lengthAdjust="spacing" textLength="120.9391" x="551.2708" y="720.5116">&#10060; &#38169;&#35823;&#30340;&#26550;&#26500;&#27169;&#24335;&#65306;</text><text fill="#FFFFFF" font-family="Verdana" font-size="12.5" lengthAdjust="spacing" textLength="132.7209" x="551.2708" y="735.7032">- &#27599;&#20010;Surface&#23436;&#20840;&#29420;&#31435;</text><text fill="#FFFFFF" font-family="Verdana" font-size="12.5" lengthAdjust="spacing" textLength="241.1804" x="551.2708" y="750.8949">- &#25317;&#26377;&#33258;&#24049;&#30340;Terminal (&#24212;&#35813;&#23646;&#20110;Session)</text><text fill="#FFFFFF" font-family="Verdana" font-size="12.5" lengthAdjust="spacing" textLength="209.1919" x="551.2708" y="766.0865">- &#25317;&#26377;&#33258;&#24049;&#30340;PTY (&#24212;&#35813;&#23646;&#20110;Session)</text><text fill="#FFFFFF" font-family="Verdana" font-size="12.5" lengthAdjust="spacing" textLength="242.0227" x="551.2708" y="781.2782">- &#25317;&#26377;&#33258;&#24049;&#30340;Shell&#36827;&#31243; (&#24212;&#35813;&#23646;&#20110;Session)</text><text fill="#FFFFFF" font-family="Verdana" font-size="12.5" lengthAdjust="spacing" textLength="4.3945" x="551.2708" y="796.4698">&#160;</text><text fill="#FFFFFF" font-family="Verdana" font-size="12.5" font-weight="bold" lengthAdjust="spacing" textLength="75" x="551.2708" y="811.6615">&#23548;&#33268;&#30340;&#38382;&#39064;&#65306;</text><text fill="#FFFFFF" font-family="Verdana" font-size="12.5" lengthAdjust="spacing" textLength="164.9902" x="551.2708" y="826.8531">- &#26080;&#27861;&#30495;&#27491;&#20849;&#20139;Terminal&#29366;&#24577;</text><text fill="#FFFFFF" font-family="Verdana" font-size="12.5" lengthAdjust="spacing" textLength="136.8591" x="551.2708" y="842.0448">- attach&#21482;&#33021;&#30475;&#21040;&#26032;&#36755;&#20986;</text><text fill="#FFFFFF" font-family="Verdana" font-size="12.5" lengthAdjust="spacing" textLength="157.7209" x="551.2708" y="857.2364">- Surface&#20851;&#38381;&#65292;&#19968;&#20999;&#37117;&#38144;&#27585;</text><text fill="#FFFFFF" font-family="Verdana" font-size="12.5" lengthAdjust="spacing" textLength="154.9622" x="551.2708" y="872.4281">- &#36829;&#32972;&#20102;tmux&#30340;&#25345;&#20037;&#21270;&#21407;&#21017;</text></g><g class="entity" data-entity="GMN27" data-source-line="102" data-uid="ent0028" id="entity_GMN27"><path d="M16.6667,747.2673 L16.6667,835.7256 A4.1667,4.1667 0 0 0 20.8333,839.8923 L247.6969,839.8923 A4.1667,4.1667 0 0 0 251.8636,835.7256 L251.8636,753.5173 L241.4469,743.1007 L146.8958,743.1007 L182.6146,518.9861 L138.5625,743.1007 L20.8333,743.1007 A4.1667,4.1667 0 0 0 16.6667,747.2673" fill="url(#gnq788hibnxkm3)" style="stroke:#033C73;stroke-width:1.0417;"/><path d="M241.4469,743.1007 L241.4469,751.434 A2.0833,2.0833 0 0 0 243.5303,753.5173 L251.8636,753.5173 L241.4469,743.1007" fill="url(#gnq788hibnxkm3)" style="stroke:#033C73;stroke-width:1.0417;"/><text fill="#FFFFFF" font-family="Verdana" font-size="12.5" font-weight="bold" lengthAdjust="spacing" textLength="189.4775" x="28.125" y="766.0845">&#24403;&#21069;SessionManager&#30340;&#23616;&#38480;&#65306;</text><text fill="#FFFFFF" font-family="Verdana" font-size="12.5" lengthAdjust="spacing" textLength="97.5708" x="28.125" y="781.2761">- &#21482;&#31649;&#29702;&#21517;&#31216;&#26144;&#23556;</text><text fill="#FFFFFF" font-family="Verdana" font-size="12.5" lengthAdjust="spacing" textLength="164.9902" x="28.125" y="796.4678">- &#19981;&#31649;&#29702;&#23454;&#38469;&#30340;Terminal&#29366;&#24577;</text><text fill="#FFFFFF" font-family="Verdana" font-size="12.5" lengthAdjust="spacing" textLength="202.9053" x="28.125" y="811.6594">- &#19981;&#20687;tmux&#30340;Session&#37027;&#26679;&#25317;&#26377;&#20869;&#23481;</text><text fill="#FFFFFF" font-family="Verdana" font-size="12.5" lengthAdjust="spacing" textLength="195.5139" x="28.125" y="826.8511">- &#38656;&#35201;&#37325;&#26500;&#20026;&#30495;&#27491;&#30340;Session&#31649;&#29702;&#22120;</text></g><!--reverse link App to Surface--><g class="link" data-entity-1="App" data-entity-2="Surface" data-source-line="73" data-uid="lnk12" id="link_App_Surface"><path codeLine="73" d="M287.4236,289.9583 C310.9965,315.9791 326.2188,337.6007 341.5521,369.9444 C383.8958,459.2361 396.7292,570.5173 399.3542,656.1736" fill="none" id="App-backto-Surface" style="stroke:#2FA4E7;stroke-width:3.125;"/><polygon fill="#2FA4E7" points="279.0313,280.6944,280.1395,288.1238,287.4236,289.9583,286.3154,282.5289,279.0313,280.6944" style="stroke:#2FA4E7;stroke-width:3.125;"/><text fill="#343A40" font-family="Verdana" font-size="12.5" lengthAdjust="spacing" textLength="32.2388" x="396.0313" y="449.6261">owns</text><text fill="#343A40" font-family="Verdana" font-size="12.5" lengthAdjust="spacing" textLength="7.9102" x="386.555" y="639.9594">n</text></g><!--reverse link App to SessionManager--><g class="link" data-entity-1="App" data-entity-2="SessionManager" data-source-line="74" data-uid="lnk13" id="link_App_SessionManager"><path codeLine="74" d="M198.373,293.2966 C197.873,321.5987 197.5208,341.3819 197.0208,369.6632" fill="none" id="App-backto-SessionManager" style="stroke:#2FA4E7;stroke-width:3.125;"/><polygon fill="#2FA4E7" points="198.5938,280.7986,194.3173,286.974,198.373,293.2966,202.6494,287.1212,198.5938,280.7986" style="stroke:#2FA4E7;stroke-width:3.125;"/><text fill="#343A40" font-family="Verdana" font-size="12.5" lengthAdjust="spacing" textLength="32.2388" x="204.1771" y="330.4282">owns</text></g><!--reverse link SessionManager to Surface--><g class="link" data-entity-1="SessionManager" data-entity-2="Surface" data-source-line="75" data-uid="lnk14" id="link_SessionManager_Surface"><path codeLine="75" d="M243.919,530.0379 C257.7002,554.1629 266.9271,570.2153 281.1354,594.7882 C292.5729,614.5486 304.7083,635.4028 316.6458,655.8298" fill="none" id="SessionManager-backto-Surface" style="stroke:#2FA4E7;stroke-width:3.125;"/><polygon fill="none" points="237.7188,519.184,237.2009,526.6777,243.919,530.0379,244.4368,522.5442,237.7188,519.184" style="stroke:#2FA4E7;stroke-width:3.125;"/><text fill="#343A40" font-family="Verdana" font-size="12.5" lengthAdjust="spacing" textLength="65.7837" x="292.1706" y="570.897">references</text><text fill="#343A40" font-family="Verdana" font-size="12.5" lengthAdjust="spacing" textLength="75.354" x="287.3854" y="586.0886">(by pointer)</text></g><!--reverse link Surface to Termio--><g class="link" data-entity-1="Surface" data-entity-2="Termio" data-source-line="77" data-uid="lnk15" id="link_Surface_Termio"><path codeLine="77" d="M512.6675,917.5569 C518.6571,923.7236 515.9167,920.8507 521.7604,926.7465 C575.0417,980.4861 636.3646,1039.1528 685.3125,1085.2465" fill="none" id="Surface-backto-Termio" style="stroke:#2FA4E7;stroke-width:3.125;"/><polygon fill="#2FA4E7" points="503.9583,908.5903,505.324,915.9766,512.6675,917.5569,511.3018,910.1705,503.9583,908.5903" style="stroke:#2FA4E7;stroke-width:3.125;"/><text fill="#343A40" font-family="Verdana" font-size="12.5" lengthAdjust="spacing" textLength="32.2388" x="582.4792" y="976.8136">owns</text></g><!--reverse link Surface to RendererState--><g class="link" data-entity-1="Surface" data-entity-2="RendererState" data-source-line="78" data-uid="lnk16" id="link_Surface_RendererState"><path codeLine="78" d="M404.6888,939.7129 C408.1367,996.192 411.2396,1047.1944 414.1458,1094.8715" fill="none" id="Surface-backto-RendererState" style="stroke:#2FA4E7;stroke-width:3.125;"/><polygon fill="#2FA4E7" points="403.9271,927.2361,400.149,933.7284,404.6888,939.7129,408.4668,933.2206,403.9271,927.2361" style="stroke:#2FA4E7;stroke-width:3.125;"/><text fill="#343A40" font-family="Verdana" font-size="12.5" lengthAdjust="spacing" textLength="32.2388" x="413.4271" y="976.8136">owns</text></g><!--link RendererState to Terminal--><g class="link" data-entity-1="RendererState" data-entity-2="Terminal" data-source-line="79" data-uid="lnk17" id="link_RendererState_Terminal"><path codeLine="79" d="M469.5625,1244.2361 C500.6042,1289.0798 537.3076,1342.1178 572.1097,1392.3991" fill="none" id="RendererState-to-Terminal" style="stroke:#2FA4E7;stroke-width:3.125;"/><polygon fill="#2FA4E7" points="575.6667,1397.5382,573.7572,1387.4582,572.7025,1393.2556,566.9051,1392.2009,575.6667,1397.5382" style="stroke:#2FA4E7;stroke-width:3.125;"/><text fill="#343A40" font-family="Verdana" font-size="12.5" lengthAdjust="spacing" textLength="55.0598" x="561.8545" y="1342.772">points to</text><text fill="#343A40" font-family="Verdana" font-size="12.5" lengthAdjust="spacing" textLength="67.7063" x="555.5313" y="1357.9636">io.terminal</text></g><!--reverse link Termio to Terminal--><g class="link" data-entity-1="Termio" data-entity-2="Terminal" data-source-line="81" data-uid="lnk18" id="link_Termio_Terminal"><path codeLine="81" d="M726.0619,1304.5944 C713.5932,1338.7923 704.3958,1364.0173 692.1875,1397.4861" fill="none" id="Termio-backto-Terminal" style="stroke:#2FA4E7;stroke-width:3.125;"/><polygon fill="#2FA4E7" points="730.3438,1292.8507,724.2882,1297.2953,726.0619,1304.5944,732.1174,1300.1498,730.3438,1292.8507" style="stroke:#2FA4E7;stroke-width:3.125;"/><text fill="#343A40" font-family="Verdana" font-size="12.5" lengthAdjust="spacing" textLength="32.2388" x="723.3646" y="1350.5845">owns</text></g><!--reverse link Termio to PTY--><g class="link" data-entity-1="Termio" data-entity-2="PTY" data-source-line="82" data-uid="lnk19" id="link_Termio_PTY"><path codeLine="82" d="M807.2633,1305.0024 C817.5758,1347.7733 826,1382.7153 835.4375,1421.8923" fill="none" id="Termio-backto-PTY" style="stroke:#2FA4E7;stroke-width:3.125;"/><polygon fill="#2FA4E7" points="804.3333,1292.8507,801.7477,1299.9032,807.2633,1305.0024,809.8489,1297.9499,804.3333,1292.8507" style="stroke:#2FA4E7;stroke-width:3.125;"/><text fill="#343A40" font-family="Verdana" font-size="12.5" lengthAdjust="spacing" textLength="32.2388" x="826.625" y="1350.5845">owns</text></g><!--reverse link Termio to Parser--><g class="link" data-entity-1="Termio" data-entity-2="Parser" data-source-line="83" data-uid="lnk21" id="link_Termio_Parser"><path codeLine="83" d="M872.3244,1289.3415 C900.939,1326.0186 924.1458,1357.934 949.8854,1397.9132 C967.8958,1425.8819 985.3542,1459.9548 996.3958,1482.6736" fill="none" id="Termio-backto-Parser" style="stroke:#2FA4E7;stroke-width:3.125;"/><polygon fill="#2FA4E7" points="864.6354,1279.4861,865.1948,1286.9768,872.3244,1289.3415,871.7651,1281.8508,864.6354,1279.4861" style="stroke:#2FA4E7;stroke-width:3.125;"/><text fill="#343A40" font-family="Verdana" font-size="12.5" lengthAdjust="spacing" textLength="32.2388" x="934.4688" y="1350.5845">owns</text></g><!--link PTY to Shell Process--><g class="link" data-entity-1="PTY" data-entity-2="Shell Process" data-source-line="85" data-uid="lnk23" id="link_PTY_Shell Process"><path codeLine="85" d="M856.1354,1595.7048 C856.1354,1636.9548 856.1354,1677.0903 856.1354,1704.8611" fill="none" id="PTY-to-Shell Process" style="stroke:#2FA4E7;stroke-width:3.125;"/><polygon fill="#2FA4E7" points="856.1354,1711.1111,860.3021,1701.7361,856.1354,1705.9028,851.9688,1701.7361,856.1354,1711.1111" style="stroke:#2FA4E7;stroke-width:3.125;"/><text fill="#343A40" font-family="Verdana" font-size="12.5" lengthAdjust="spacing" textLength="46.46" x="862.3854" y="1671.8866">spawns</text></g><!--SRC=[ZLPVJnj747_tfzZwfMSND-_t42aYeeqKL1HugHJ9MkorVSfvztItBh6gI50m9iK4fD0GKa98KLf42WPH9SI5vBjKtZlxAL-XSxjtzbvYrDx3xP-PdPdV_6RsxWjU8LM22iIjsGJJ5BUuJT0t5UPnNXUNZyN3DN_tZR-xX79ekkQMS87ugw_ydOVTytcnqaJ6FyzRgB-vtMkt_OENuc8zaqevk70FbmbAtt0ST1lNYPj6FwOGF0KRUnuAjzKwV7B8KtOz4zrmNLo_RNdSY7nbT3NYUHQZ-IgcODqrqRJQc5JhWUPNgE0Ip4bamiXeaYgsx5bstqIJQY953-HR2p1fE1ch4a6itsAlCeaTW-8goLsFd6LrPouf0nJYHkQavbYCDkzmLrSk4wxhPSmutLbDoIEqE0bQ49PHSbbr374sXegOuqo4v86M_iY0eW0PVdkzUtuO76w9zVrh_bupE7gVIH8J7z01Myn4CyIjMapRT24EuX8txt58j8dkHElfSAdf5HWjMMKJZSjH4vGOvIQQWFS8WgqYWEUkHSiQT8jQt53szBJT8_LnRDkpWDc0UJBzOL09-XsNGPrvTqY1M3-GGIghNZapkX8Im19vuM5EABPDb9s9ffgqMkCahB9mqFpR3CBK0wfHRIl9tgrhturg7iN55Q6CYCJXTHDDpNolRs7N2_jdIewweGeqJZ7lC1RQaeifc2Ug8Q-KOlb_CpJdMfmOmngD3Qdp4zIu8lKnbcJxGMiJ2kKXnwI0gJAGmcYkbsBDzHY07fUZ9i0sv8y2lVahZ8-64DONBXgP4QKQjZB5ZbTXNCgZ-MYOG4q2OGbIEs7Pv2Q1S2o79s8jL2mR-0aRP4gLygsR-lNWu3bgU1LYswC2dQrpudq6I-vg1VWb4espuEplL7XDPtCvbARf-6Om4PkZta2Il2SZuIUN9ylbXgVJBYb1Er68_2u5pyXX5eNqPzAfL7pvX8PLaSS6DK6Y7oDviaTpkUk3qW67qe47r-HTQh6luqu1Tr4V3Rn9TMbFam0v8pQZzf7xgP2_q6TwEanxJ4lQL6I00cKGbMkLAnonKfmAI7SsE_nq1i-Mr5TMVKC_NZpBXjT-3gaxEpeaZbkYSH2i_XcyNbLI-INkDG_5srCmCUWOGtGsU-rNudItstaKyP4PTI8C_dyhIu2z3xy61wjN7fAuHFkYr_mBJlItZlk_FTNGREtvPxy4Eo_yettHEErsNiSX1p-_yUSNf1Bc71SgOlsmjtWPxAoAbHF_oKdl_MFHx4Xvd8p6MN_hwED5I_s8z1Sl-vlpVblPw7rutbjiTJlBl5gx7oQtjT1zrn2j9-BH2x6odOAAGI4l4JkpZ7DMbVHy-ai1QEHFK5809iNfV7zxOuWD0WwENmORos9ZBVZZn7-w9qwMfAHxlXP9ZdVxsmsDA0qrA8d5zIZSo5d_ftr_xwrYGImtnF4xgThVcU_zlj1lme_PKlUyez8vF1NvsZuOelmN]--></g></svg>