<svg xmlns="http://www.w3.org/2000/svg" xmlns:xlink="http://www.w3.org/1999/xlink" contentStyleType="text/css" data-diagram-type="STATE" height="3011.4583px" preserveAspectRatio="none" style="width:714px;height:3011px;" version="1.1" viewBox="0 0 714 3011" width="714.5833px" zoomAndPan="magnify"><title>SessionCore&#26550;&#26500;&#36801;&#31227;&#36335;&#24452; - Phase 1-3&#24050;&#23454;&#29616;&#65292;Phase 4&#24453;&#24320;&#21457;</title><defs><linearGradient id="ghw8t8q2hx25q0" x1="50%" x2="50%" y1="0%" y2="100%"><stop offset="0%" stop-color="#EDF0F2"/><stop offset="100%" stop-color="#E9ECEF"/></linearGradient><linearGradient id="ghw8t8q2hx25q1" x1="50%" x2="50%" y1="0%" y2="100%"><stop offset="0%" stop-color="#59B6EC"/><stop offset="100%" stop-color="#2FA4E7"/></linearGradient><linearGradient id="ghw8t8q2hx25q2" x1="50%" x2="50%" y1="0%" y2="100%"><stop offset="0%" stop-color="#35638F"/><stop offset="100%" stop-color="#033C73"/></linearGradient></defs><g><g class="title" data-source-line="2"><rect fill="url(#ghw8t8q2hx25q0)" height="48.2361" rx="4.1667" ry="4.1667" style="stroke:#BABDBF;stroke-width:1.0417;" width="670.2962" x="20.8333" y="20.8333"/><text fill="#2FA4E7" font-family="Verdana" font-size="20.8333" font-weight="bold" lengthAdjust="spacing" textLength="647.3796" x="32.2917" y="53.2369">SessionCore&#26550;&#26500;&#36801;&#31227;&#36335;&#24452; - Phase 1-3&#24050;&#23454;&#29616;&#65292;Phase 4&#24453;&#24320;&#21457;</text></g><path d="M240.4599,87.8194 L366.5453,87.8194 A4.1667,4.1667 0 0 1 370.712,91.9861 L370.712,122.5784 L236.2933,122.5784 L236.2933,91.9861 A4.1667,4.1667 0 0 1 240.4599,87.8194" fill="#FFC0CB"/><rect fill="none" height="392.5389" rx="4.1667" ry="4.1667" style="stroke:#2683B9;stroke-width:1.0417;" width="134.4187" x="236.2933" y="87.8194"/><line style="stroke:#2683B9;stroke-width:1.0417;" x1="236.2933" x2="370.712" y1="122.5784" y2="122.5784"/><text fill="#343A40" font-family="Verdana" font-size="11.4583" lengthAdjust="spacing" textLength="53.1179" x="276.9437" y="109.756">&#31532;3&#27425;&#22833;&#36133;</text><g id="Failed.F1"><rect fill="url(#ghw8t8q2hx25q1)" height="55.5923" rx="4.1667" ry="4.1667" style="stroke:#2683B9;stroke-width:1.0417;" width="100" x="255.0641" y="135.0784"/><line style="stroke:#2683B9;stroke-width:1.0417;" x1="255.0641" x2="355.0641" y1="169.8374" y2="169.8374"/><text fill="#343A40" font-family="Verdana" font-size="11.4583" lengthAdjust="spacing" textLength="68.75" x="270.6891" y="157.015">&#28608;&#36827;&#26550;&#26500;&#25913;&#38761;</text></g><g id="Failed.F2"><rect fill="url(#ghw8t8q2hx25q1)" height="55.5923" rx="4.1667" ry="4.1667" style="stroke:#2683B9;stroke-width:1.0417;" width="100" x="255.0641" y="228.1618"/><line style="stroke:#2683B9;stroke-width:1.0417;" x1="255.0641" x2="355.0641" y1="262.9208" y2="262.9208"/><text fill="#343A40" font-family="Verdana" font-size="11.4583" lengthAdjust="spacing" textLength="68.75" x="270.6891" y="250.0983">&#30772;&#22351;&#29616;&#26377;&#21151;&#33021;</text></g><g id="Failed.F3"><rect fill="url(#ghw8t8q2hx25q1)" height="55.5923" rx="4.1667" ry="4.1667" style="stroke:#2683B9;stroke-width:1.0417;" width="77.0833" x="266.5224" y="321.2555"/><line style="stroke:#2683B9;stroke-width:1.0417;" x1="266.5224" x2="343.6058" y1="356.0145" y2="356.0145"/><text fill="#343A40" font-family="Verdana" font-size="11.4583" lengthAdjust="spacing" textLength="45.8333" x="282.1474" y="343.1921">&#26080;&#27861;&#20462;&#22797;</text></g><g id="Failed.F4"><rect fill="url(#ghw8t8q2hx25q1)" height="55.5923" rx="4.1667" ry="4.1667" style="stroke:#2683B9;stroke-width:1.0417;" width="112.5437" x="248.7933" y="414.3493"/><line style="stroke:#2683B9;stroke-width:1.0417;" x1="248.7933" x2="361.337" y1="449.1083" y2="449.1083"/><text fill="#343A40" font-family="Verdana" font-size="11.4583" lengthAdjust="spacing" textLength="81.2937" x="264.4183" y="436.2858">Git Revert&#22238;&#36864;</text></g><!--link F1 to F2--><g class="link" data-entity-1="F1" data-entity-2="F2" data-source-line="9" data-uid="lnk2" id="link_F1_F2"><path d="M305.0641,190.7243 C305.0641,202.3701 305.0641,209.7347 305.0641,221.4222" fill="none" id="F1-to-F2" style="stroke:#2FA4E7;stroke-width:3.125;"/><polygon fill="#2FA4E7" points="305.0641,227.6722,309.2308,218.2972,305.0641,222.4638,300.8974,218.2972,305.0641,227.6722" style="stroke:#2FA4E7;stroke-width:3.125;"/></g><!--link F2 to F3--><g class="link" data-entity-1="F2" data-entity-2="F3" data-source-line="10" data-uid="lnk3" id="link_F2_F3"><path d="M305.0641,283.818 C305.0641,295.4534 305.0641,302.818 305.0641,314.5159" fill="none" id="F2-to-F3" style="stroke:#2FA4E7;stroke-width:3.125;"/><polygon fill="#2FA4E7" points="305.0641,320.7659,309.2308,311.3909,305.0641,315.5576,300.8974,311.3909,305.0641,320.7659" style="stroke:#2FA4E7;stroke-width:3.125;"/></g><!--link F3 to F4--><g class="link" data-entity-1="F3" data-entity-2="F4" data-source-line="11" data-uid="lnk4" id="link_F3_F4"><path d="M305.0641,376.9118 C305.0641,388.5472 305.0641,395.9118 305.0641,407.5993" fill="none" id="F3-to-F4" style="stroke:#2FA4E7;stroke-width:3.125;"/><polygon fill="#2FA4E7" points="305.0641,413.8493,309.2308,404.4743,305.0641,408.6409,300.8974,404.4743,305.0641,413.8493" style="stroke:#2FA4E7;stroke-width:3.125;"/></g><path d="M47.6787,569.9444 L559.3259,569.9444 A4.1667,4.1667 0 0 1 563.4926,574.1111 L563.4926,604.7034 L43.512,604.7034 L43.512,574.1111 A4.1667,4.1667 0 0 1 47.6787,569.9444" fill="#59B6EC"/><rect fill="none" height="113.268" rx="4.1667" ry="4.1667" style="stroke:#2683B9;stroke-width:1.0417;" width="519.9806" x="43.512" y="569.9444"/><line style="stroke:#2683B9;stroke-width:1.0417;" x1="43.512" x2="563.4926" y1="604.7034" y2="604.7034"/><text fill="#343A40" font-family="Verdana" font-size="11.4583" lengthAdjust="spacing" textLength="45.8333" x="280.5856" y="591.881">&#24403;&#21069;&#29366;&#24577;</text><g id="Current.S1"><rect fill="url(#ghw8t8q2hx25q1)" height="55.5923" rx="4.1667" ry="4.1667" style="stroke:#2683B9;stroke-width:1.0417;" width="148.1888" x="56.012" y="617.2034"/><line style="stroke:#2683B9;stroke-width:1.0417;" x1="56.012" x2="204.2008" y1="651.9624" y2="651.9624"/><text fill="#343A40" font-family="Verdana" font-size="11.4583" lengthAdjust="spacing" textLength="116.9388" x="71.637" y="639.14">Surface&#25317;&#26377;Terminal</text></g><g id="Current.S2"><rect fill="url(#ghw8t8q2hx25q1)" height="55.5923" rx="4.1667" ry="4.1667" style="stroke:#2683B9;stroke-width:1.0417;" width="170.5571" x="222.9495" y="617.2034"/><line style="stroke:#2683B9;stroke-width:1.0417;" x1="222.9495" x2="393.5067" y1="651.9624" y2="651.9624"/><text fill="#343A40" font-family="Verdana" font-size="11.4583" lengthAdjust="spacing" textLength="139.3071" x="238.5745" y="639.14">SessionManager&#31649;&#29702;&#25351;&#38024;</text></g><g id="Current.S3"><rect fill="url(#ghw8t8q2hx25q1)" height="55.5923" rx="4.1667" ry="4.1667" style="stroke:#2683B9;stroke-width:1.0417;" width="141.7826" x="412.3349" y="617.2034"/><line style="stroke:#2683B9;stroke-width:1.0417;" x1="412.3349" x2="554.1176" y1="651.9624" y2="651.9624"/><text fill="#343A40" font-family="Verdana" font-size="11.4583" lengthAdjust="spacing" textLength="110.5326" x="427.9599" y="639.14">&#27599;&#20010;Surface&#29420;&#31435;PTY</text></g><path d="M187.8766,772.7882 L419.1164,772.7882 A4.1667,4.1667 0 0 1 423.2831,776.9548 L423.2831,807.5472 L183.7099,807.5472 L183.7099,776.9548 A4.1667,4.1667 0 0 1 187.8766,772.7882" fill="#90EE90"/><rect fill="none" height="485.6326" rx="4.1667" ry="4.1667" style="stroke:#2683B9;stroke-width:1.0417;" width="239.5732" x="183.7099" y="772.7882"/><line style="stroke:#2683B9;stroke-width:1.0417;" x1="183.7099" x2="423.2831" y1="807.5472" y2="807.5472"/><text fill="#343A40" font-family="Verdana" font-size="11.4583" lengthAdjust="spacing" textLength="180.6183" x="213.1874" y="794.7247">Phase 1: &#20849;&#20139;Terminal (&#9989;&#23436;&#25104;)</text><g id="Phase1.P1_1"><rect fill="url(#ghw8t8q2hx25q1)" height="55.5923" rx="4.1667" ry="4.1667" style="stroke:#2683B9;stroke-width:1.0417;" width="167.3553" x="221.3766" y="820.0472"/><line style="stroke:#2683B9;stroke-width:1.0417;" x1="221.3766" x2="388.7319" y1="854.8062" y2="854.8062"/><text fill="#343A40" font-family="Verdana" font-size="11.4583" lengthAdjust="spacing" textLength="136.1053" x="237.0016" y="841.9837">&#21019;&#24314;SessionCore&#32467;&#26500; &#9989;</text></g><g id="Phase1.P1_2"><rect fill="url(#ghw8t8q2hx25q1)" height="55.5923" rx="4.1667" ry="4.1667" style="stroke:#2683B9;stroke-width:1.0417;" width="190.7588" x="209.6787" y="913.1409"/><line style="stroke:#2683B9;stroke-width:1.0417;" x1="209.6787" x2="400.4374" y1="947.8999" y2="947.8999"/><text fill="#343A40" font-family="Verdana" font-size="11.4583" lengthAdjust="spacing" textLength="159.5088" x="225.3037" y="935.0775">Terminal&#20173;&#30001;Surface&#21019;&#24314; &#9989;</text></g><g id="Phase1.P1_3"><rect fill="url(#ghw8t8q2hx25q1)" height="55.5923" rx="4.1667" ry="4.1667" style="stroke:#2683B9;stroke-width:1.0417;" width="217.6982" x="196.2099" y="1006.2243"/><line style="stroke:#2683B9;stroke-width:1.0417;" x1="196.2099" x2="413.9081" y1="1040.9833" y2="1040.9833"/><text fill="#343A40" font-family="Verdana" font-size="11.4583" lengthAdjust="spacing" textLength="186.4482" x="211.8349" y="1028.1608">SessionCore&#25345;&#26377;Terminal&#24341;&#29992; &#9989;</text></g><g id="Phase1.P1_4"><rect fill="url(#ghw8t8q2hx25q1)" height="55.5923" rx="4.1667" ry="4.1667" style="stroke:#2683B9;stroke-width:1.0417;" width="202.2171" x="203.9495" y="1099.318"/><line style="stroke:#2683B9;stroke-width:1.0417;" x1="203.9495" x2="406.1666" y1="1134.077" y2="1134.077"/><text fill="#343A40" font-family="Verdana" font-size="11.4583" lengthAdjust="spacing" textLength="170.9671" x="219.5745" y="1121.2546">&#22810;Surface&#20849;&#20139;Terminal&#25351;&#38024; &#9989;</text></g><g id="Phase1.P1_5"><rect fill="url(#ghw8t8q2hx25q1)" height="55.5923" rx="4.1667" ry="4.1667" style="stroke:#2683B9;stroke-width:1.0417;" width="145.6807" x="232.2203" y="1192.4118"/><line style="stroke:#2683B9;stroke-width:1.0417;" x1="232.2203" x2="377.9011" y1="1227.1708" y2="1227.1708"/><text fill="#343A40" font-family="Verdana" font-size="11.4583" lengthAdjust="spacing" textLength="114.4307" x="247.8453" y="1214.3483">12&#20010;&#27979;&#35797;&#20840;&#37096;&#36890;&#36807; &#9989;</text></g><!--link P1_1 to P1_2--><g class="link" data-entity-1="P1_1" data-entity-2="P1_2" data-source-line="26" data-uid="lnk5" id="link_P1_1_P1_2"><path d="M305.0641,875.693 C305.0641,887.3388 305.0641,894.7034 305.0641,906.3909" fill="none" id="P1_1-to-P1_2" style="stroke:#2FA4E7;stroke-width:3.125;"/><polygon fill="#2FA4E7" points="305.0641,912.6409,309.2308,903.2659,305.0641,907.4326,300.8974,903.2659,305.0641,912.6409" style="stroke:#2FA4E7;stroke-width:3.125;"/></g><!--link P1_2 to P1_3--><g class="link" data-entity-1="P1_2" data-entity-2="P1_3" data-source-line="27" data-uid="lnk6" id="link_P1_2_P1_3"><path d="M305.0641,968.7868 C305.0641,980.4326 305.0641,987.7972 305.0641,999.4847" fill="none" id="P1_2-to-P1_3" style="stroke:#2FA4E7;stroke-width:3.125;"/><polygon fill="#2FA4E7" points="305.0641,1005.7347,309.2308,996.3597,305.0641,1000.5263,300.8974,996.3597,305.0641,1005.7347" style="stroke:#2FA4E7;stroke-width:3.125;"/></g><!--link P1_3 to P1_4--><g class="link" data-entity-1="P1_3" data-entity-2="P1_4" data-source-line="28" data-uid="lnk7" id="link_P1_3_P1_4"><path d="M305.0641,1061.8805 C305.0641,1073.5159 305.0641,1080.8805 305.0641,1092.5784" fill="none" id="P1_3-to-P1_4" style="stroke:#2FA4E7;stroke-width:3.125;"/><polygon fill="#2FA4E7" points="305.0641,1098.8284,309.2308,1089.4534,305.0641,1093.6201,300.8974,1089.4534,305.0641,1098.8284" style="stroke:#2FA4E7;stroke-width:3.125;"/></g><!--link P1_4 to P1_5--><g class="link" data-entity-1="P1_4" data-entity-2="P1_5" data-source-line="29" data-uid="lnk8" id="link_P1_4_P1_5"><path d="M305.0641,1154.9743 C305.0641,1166.6097 305.0641,1173.9743 305.0641,1185.6618" fill="none" id="P1_4-to-P1_5" style="stroke:#2FA4E7;stroke-width:3.125;"/><polygon fill="#2FA4E7" points="305.0641,1191.9118,309.2308,1182.5368,305.0641,1186.7034,300.8974,1182.5368,305.0641,1191.9118" style="stroke:#2FA4E7;stroke-width:3.125;"/></g><path d="M194.6058,1348.0069 L412.3812,1348.0069 A4.1667,4.1667 0 0 1 416.5479,1352.1736 L416.5479,1382.7659 L190.4391,1382.7659 L190.4391,1352.1736 A4.1667,4.1667 0 0 1 194.6058,1348.0069" fill="#FFFF00"/><rect fill="none" height="392.5389" rx="4.1667" ry="4.1667" style="stroke:#2683B9;stroke-width:1.0417;" width="226.1088" x="190.4391" y="1348.0069"/><line style="stroke:#2683B9;stroke-width:1.0417;" x1="190.4391" x2="416.5479" y1="1382.7659" y2="1382.7659"/><text fill="#343A40" font-family="Verdana" font-size="11.4583" lengthAdjust="spacing" textLength="194.8588" x="206.0641" y="1369.9435">Phase 2: &#21452;&#27169;&#24335;&#25903;&#25345; (&#9888;&#65039;&#37096;&#20998;&#23436;&#25104;)</text><g id="Phase2.P2_1"><rect fill="url(#ghw8t8q2hx25q1)" height="55.5923" rx="4.1667" ry="4.1667" style="stroke:#2683B9;stroke-width:1.0417;" width="190.9266" x="202.9391" y="1395.2659"/><line style="stroke:#2683B9;stroke-width:1.0417;" x1="202.9391" x2="393.8657" y1="1430.0249" y2="1430.0249"/><text fill="#343A40" font-family="Verdana" font-size="11.4583" lengthAdjust="spacing" textLength="159.6766" x="218.5641" y="1417.2025">Termio&#25903;&#25345;borrowed&#27169;&#24335; &#9989;</text></g><g id="Phase2.P2_2"><rect fill="url(#ghw8t8q2hx25q1)" height="55.5923" rx="4.1667" ry="4.1667" style="stroke:#2683B9;stroke-width:1.0417;" width="169.9961" x="213.4078" y="1488.3493"/><line style="stroke:#2683B9;stroke-width:1.0417;" x1="213.4078" x2="383.404" y1="1523.1083" y2="1523.1083"/><text fill="#343A40" font-family="Verdana" font-size="11.4583" lengthAdjust="spacing" textLength="138.7461" x="229.0328" y="1510.2858">&#21487;&#21021;&#22987;&#21270;&#20511;&#29992;Terminal &#9989;</text></g><g id="Phase2.P2_3"><rect fill="url(#ghw8t8q2hx25q1)" height="55.5923" rx="4.1667" ry="4.1667" style="stroke:#2683B9;stroke-width:1.0417;" width="190.7588" x="203.0224" y="1581.443"/><line style="stroke:#2683B9;stroke-width:1.0417;" x1="203.0224" x2="393.7812" y1="1616.202" y2="1616.202"/><text fill="#343A40" font-family="Verdana" font-size="11.4583" lengthAdjust="spacing" textLength="159.5088" x="218.6474" y="1603.3796">&#10060; Surface&#26080;&#27861;&#20999;&#25442;Terminal</text></g><g id="Phase2.P2_4"><rect fill="url(#ghw8t8q2hx25q1)" height="55.5923" rx="4.1667" ry="4.1667" style="stroke:#2683B9;stroke-width:1.0417;" width="131.1117" x="232.8453" y="1674.5368"/><line style="stroke:#2683B9;stroke-width:1.0417;" x1="232.8453" x2="363.957" y1="1709.2958" y2="1709.2958"/><text fill="#343A40" font-family="Verdana" font-size="11.4583" lengthAdjust="spacing" textLength="99.8617" x="248.4703" y="1696.4733">&#10060; &#23454;&#38469;&#20869;&#23481;&#19981;&#20999;&#25442;</text></g><!--link P2_1 to P2_2--><g class="link" data-entity-1="P2_1" data-entity-2="P2_2" data-source-line="37" data-uid="lnk9" id="link_P2_1_P2_2"><path d="M298.3974,1450.9118 C298.3974,1462.5576 298.3974,1469.9222 298.3974,1481.6097" fill="none" id="P2_1-to-P2_2" style="stroke:#2FA4E7;stroke-width:3.125;"/><polygon fill="#2FA4E7" points="298.3974,1487.8597,302.5641,1478.4847,298.3974,1482.6513,294.2308,1478.4847,298.3974,1487.8597" style="stroke:#2FA4E7;stroke-width:3.125;"/></g><!--link P2_2 to P2_3--><g class="link" data-entity-1="P2_2" data-entity-2="P2_3" data-source-line="38" data-uid="lnk10" id="link_P2_2_P2_3"><path d="M298.3974,1544.0055 C298.3974,1555.6409 298.3974,1563.0055 298.3974,1574.7034" fill="none" id="P2_2-to-P2_3" style="stroke:#2FA4E7;stroke-width:3.125;"/><polygon fill="#2FA4E7" points="298.3974,1580.9534,302.5641,1571.5784,298.3974,1575.7451,294.2308,1571.5784,298.3974,1580.9534" style="stroke:#2FA4E7;stroke-width:3.125;"/></g><!--link P2_3 to P2_4--><g class="link" data-entity-1="P2_3" data-entity-2="P2_4" data-source-line="39" data-uid="lnk11" id="link_P2_3_P2_4"><path d="M298.3974,1637.0993 C298.3974,1648.7347 298.3974,1656.0993 298.3974,1667.7868" fill="none" id="P2_3-to-P2_4" style="stroke:#2FA4E7;stroke-width:3.125;"/><polygon fill="#2FA4E7" points="298.3974,1674.0368,302.5641,1664.6618,298.3974,1668.8284,294.2308,1664.6618,298.3974,1674.0368" style="stroke:#2FA4E7;stroke-width:3.125;"/></g><path d="M188.8766,1830.1319 L418.1104,1830.1319 A4.1667,4.1667 0 0 1 422.2771,1834.2986 L422.2771,1864.8909 L184.7099,1864.8909 L184.7099,1834.2986 A4.1667,4.1667 0 0 1 188.8766,1830.1319" fill="#FFA500"/><rect fill="none" height="392.5389" rx="4.1667" ry="4.1667" style="stroke:#2683B9;stroke-width:1.0417;" width="237.5671" x="184.7099" y="1830.1319"/><line style="stroke:#2683B9;stroke-width:1.0417;" x1="184.7099" x2="422.2771" y1="1864.8909" y2="1864.8909"/><text fill="#343A40" font-family="Verdana" font-size="11.4583" lengthAdjust="spacing" textLength="206.3171" x="200.3349" y="1852.0685">Phase 3: &#23436;&#20840;&#36801;&#31227; (&#9888;&#65039;&#23450;&#20041;&#20294;&#26410;&#23454;&#29616;)</text><g id="Phase3.P3_1"><rect fill="url(#ghw8t8q2hx25q1)" height="55.5923" rx="4.1667" ry="4.1667" style="stroke:#2683B9;stroke-width:1.0417;" width="203.241" x="197.2099" y="1877.3909"/><line style="stroke:#2683B9;stroke-width:1.0417;" x1="197.2099" x2="400.4509" y1="1912.1499" y2="1912.1499"/><text fill="#343A40" font-family="Verdana" font-size="11.4583" lengthAdjust="spacing" textLength="171.991" x="212.8349" y="1899.3275">SessionCore&#23450;&#20041;ownership &#9989;</text></g><g id="Phase3.P3_2"><rect fill="url(#ghw8t8q2hx25q1)" height="55.5923" rx="4.1667" ry="4.1667" style="stroke:#2683B9;stroke-width:1.0417;" width="153.6199" x="222.0224" y="1970.4743"/><line style="stroke:#2683B9;stroke-width:1.0417;" x1="222.0224" x2="375.6423" y1="2005.2333" y2="2005.2333"/><text fill="#343A40" font-family="Verdana" font-size="11.4583" lengthAdjust="spacing" textLength="122.3699" x="237.6474" y="1992.4108">attach/detach&#21629;&#20196; &#9989;</text></g><g id="Phase3.P3_3"><rect fill="url(#ghw8t8q2hx25q1)" height="55.5923" rx="4.1667" ry="4.1667" style="stroke:#2683B9;stroke-width:1.0417;" width="135.6211" x="231.0224" y="2063.568"/><line style="stroke:#2683B9;stroke-width:1.0417;" x1="231.0224" x2="366.6436" y1="2098.327" y2="2098.327"/><text fill="#343A40" font-family="Verdana" font-size="11.4583" lengthAdjust="spacing" textLength="104.3711" x="246.6474" y="2085.5046">&#10060; &#26080;Terminal&#20999;&#25442;</text></g><g id="Phase3.P3_4"><rect fill="url(#ghw8t8q2hx25q1)" height="55.5923" rx="4.1667" ry="4.1667" style="stroke:#2683B9;stroke-width:1.0417;" width="138.8214" x="229.4183" y="2156.6618"/><line style="stroke:#2683B9;stroke-width:1.0417;" x1="229.4183" x2="368.2397" y1="2191.4208" y2="2191.4208"/><text fill="#343A40" font-family="Verdana" font-size="11.4583" lengthAdjust="spacing" textLength="107.5714" x="245.0433" y="2178.5983">&#10060; &#26080;session&#25345;&#20037;&#21270;</text></g><!--link P3_1 to P3_2--><g class="link" data-entity-1="P3_1" data-entity-2="P3_2" data-source-line="47" data-uid="lnk12" id="link_P3_1_P3_2"><path d="M298.8349,1933.0368 C298.8349,1944.6826 298.8349,1952.0472 298.8349,1963.7347" fill="none" id="P3_1-to-P3_2" style="stroke:#2FA4E7;stroke-width:3.125;"/><polygon fill="#2FA4E7" points="298.8349,1969.9847,303.0016,1960.6097,298.8349,1964.7763,294.6683,1960.6097,298.8349,1969.9847" style="stroke:#2FA4E7;stroke-width:3.125;"/></g><!--link P3_2 to P3_3--><g class="link" data-entity-1="P3_2" data-entity-2="P3_3" data-source-line="48" data-uid="lnk13" id="link_P3_2_P3_3"><path d="M298.8349,2026.1305 C298.8349,2037.7659 298.8349,2045.1305 298.8349,2056.8284" fill="none" id="P3_2-to-P3_3" style="stroke:#2FA4E7;stroke-width:3.125;"/><polygon fill="#2FA4E7" points="298.8349,2063.0784,303.0016,2053.7034,298.8349,2057.8701,294.6683,2053.7034,298.8349,2063.0784" style="stroke:#2FA4E7;stroke-width:3.125;"/></g><!--link P3_3 to P3_4--><g class="link" data-entity-1="P3_3" data-entity-2="P3_4" data-source-line="49" data-uid="lnk14" id="link_P3_3_P3_4"><path d="M298.8349,2119.2243 C298.8349,2130.8597 298.8349,2138.2243 298.8349,2149.9118" fill="none" id="P3_3-to-P3_4" style="stroke:#2FA4E7;stroke-width:3.125;"/><polygon fill="#2FA4E7" points="298.8349,2156.1618,303.0016,2146.7868,298.8349,2150.9534,294.6683,2146.7868,298.8349,2156.1618" style="stroke:#2FA4E7;stroke-width:3.125;"/></g><path d="M192.9183,2312.2569 L414.0664,2312.2569 A4.1667,4.1667 0 0 1 418.2331,2316.4236 L418.2331,2347.0159 L188.7516,2347.0159 L188.7516,2316.4236 A4.1667,4.1667 0 0 1 192.9183,2312.2569" fill="#F08080"/><rect fill="none" height="485.6326" rx="4.1667" ry="4.1667" style="stroke:#2683B9;stroke-width:1.0417;" width="229.4815" x="188.7516" y="2312.2569"/><line style="stroke:#2683B9;stroke-width:1.0417;" x1="188.7516" x2="418.2331" y1="2347.0159" y2="2347.0159"/><text fill="#343A40" font-family="Verdana" font-size="11.4583" lengthAdjust="spacing" textLength="167.2592" x="219.8627" y="2334.1935">Phase 4: &#26550;&#26500;&#37325;&#26500; (&#23398;&#20064;tmux)</text><g id="Phase4.P4_1"><rect fill="url(#ghw8t8q2hx25q1)" height="55.5923" rx="4.1667" ry="4.1667" style="stroke:#2683B9;stroke-width:1.0417;" width="207.6065" x="201.2516" y="2359.5159"/><line style="stroke:#2683B9;stroke-width:1.0417;" x1="201.2516" x2="408.8581" y1="2394.2749" y2="2394.2749"/><text fill="#343A40" font-family="Verdana" font-size="11.4583" lengthAdjust="spacing" textLength="176.3565" x="216.8766" y="2381.4525">SessionCore&#25317;&#26377;Terminal&#21644;PTY</text></g><g id="Phase4.P4_2"><rect fill="url(#ghw8t8q2hx25q1)" height="55.5923" rx="4.1667" ry="4.1667" style="stroke:#2683B9;stroke-width:1.0417;" width="143.6793" x="233.2203" y="2452.6097"/><line style="stroke:#2683B9;stroke-width:1.0417;" x1="233.2203" x2="376.8996" y1="2487.3687" y2="2487.3687"/><text fill="#343A40" font-family="Verdana" font-size="11.4583" lengthAdjust="spacing" textLength="112.4293" x="248.8453" y="2474.5462">Surface&#21464;&#25104;&#32431;&#26597;&#30475;&#22120;</text></g><g id="Phase4.P4_3"><rect fill="url(#ghw8t8q2hx25q1)" height="55.5923" rx="4.1667" ry="4.1667" style="stroke:#2683B9;stroke-width:1.0417;" width="147.4726" x="231.3141" y="2545.693"/><line style="stroke:#2683B9;stroke-width:1.0417;" x1="231.3141" x2="378.7867" y1="2580.452" y2="2580.452"/><text fill="#343A40" font-family="Verdana" font-size="11.4583" lengthAdjust="spacing" textLength="116.2226" x="246.9391" y="2567.6296">&#31616;&#21270;attach&#20026;&#25351;&#38024;&#20999;&#25442;</text></g><g id="Phase4.P4_4"><rect fill="url(#ghw8t8q2hx25q1)" height="55.5923" rx="4.1667" ry="4.1667" style="stroke:#2683B9;stroke-width:1.0417;" width="111.4583" x="249.3245" y="2638.7868"/><line style="stroke:#2683B9;stroke-width:1.0417;" x1="249.3245" x2="360.7828" y1="2673.5458" y2="2673.5458"/><text fill="#343A40" font-family="Verdana" font-size="11.4583" lengthAdjust="spacing" textLength="80.2083" x="264.9495" y="2660.7233">&#28210;&#26579;&#22120;&#37325;&#32472;&#26426;&#21046;</text></g><g id="Phase4.P4_5"><rect fill="url(#ghw8t8q2hx25q1)" height="55.5923" rx="4.1667" ry="4.1667" style="stroke:#2683B9;stroke-width:1.0417;" width="122.9167" x="243.5953" y="2731.8805"/><line style="stroke:#2683B9;stroke-width:1.0417;" x1="243.5953" x2="366.512" y1="2766.6395" y2="2766.6395"/><text fill="#343A40" font-family="Verdana" font-size="11.4583" lengthAdjust="spacing" textLength="91.6667" x="259.2203" y="2753.8171">&#30495;&#27491;&#30340;&#20250;&#35805;&#25345;&#20037;&#21270;</text></g><!--link P4_1 to P4_2--><g class="link" data-entity-1="P4_1" data-entity-2="P4_2" data-source-line="58" data-uid="lnk15" id="link_P4_1_P4_2"><path d="M305.0537,2415.1618 C305.0537,2426.8076 305.0537,2434.1722 305.0537,2445.8597" fill="none" id="P4_1-to-P4_2" style="stroke:#2FA4E7;stroke-width:3.125;"/><polygon fill="#2FA4E7" points="305.0537,2452.1097,309.2203,2442.7347,305.0537,2446.9013,300.887,2442.7347,305.0537,2452.1097" style="stroke:#2FA4E7;stroke-width:3.125;"/></g><!--link P4_2 to P4_3--><g class="link" data-entity-1="P4_2" data-entity-2="P4_3" data-source-line="59" data-uid="lnk16" id="link_P4_2_P4_3"><path d="M305.0537,2508.2555 C305.0537,2519.9013 305.0537,2527.2659 305.0537,2538.9534" fill="none" id="P4_2-to-P4_3" style="stroke:#2FA4E7;stroke-width:3.125;"/><polygon fill="#2FA4E7" points="305.0537,2545.2034,309.2203,2535.8284,305.0537,2539.9951,300.887,2535.8284,305.0537,2545.2034" style="stroke:#2FA4E7;stroke-width:3.125;"/></g><!--link P4_3 to P4_4--><g class="link" data-entity-1="P4_3" data-entity-2="P4_4" data-source-line="60" data-uid="lnk17" id="link_P4_3_P4_4"><path d="M305.0537,2601.3493 C305.0537,2612.9847 305.0537,2620.3493 305.0537,2632.0472" fill="none" id="P4_3-to-P4_4" style="stroke:#2FA4E7;stroke-width:3.125;"/><polygon fill="#2FA4E7" points="305.0537,2638.2972,309.2203,2628.9222,305.0537,2633.0888,300.887,2628.9222,305.0537,2638.2972" style="stroke:#2FA4E7;stroke-width:3.125;"/></g><!--link P4_4 to P4_5--><g class="link" data-entity-1="P4_4" data-entity-2="P4_5" data-source-line="61" data-uid="lnk18" id="link_P4_4_P4_5"><path d="M305.0537,2694.443 C305.0537,2706.0784 305.0537,2713.443 305.0537,2725.1305" fill="none" id="P4_4-to-P4_5" style="stroke:#2FA4E7;stroke-width:3.125;"/><polygon fill="#2FA4E7" points="305.0537,2731.3805,309.2203,2722.0055,305.0537,2726.1722,300.887,2722.0055,305.0537,2731.3805" style="stroke:#2FA4E7;stroke-width:3.125;"/></g><path d="M83.887,2887.4653 L523.0999,2887.4653 A4.1667,4.1667 0 0 1 527.2666,2891.6319 L527.2666,2922.2243 L79.7203,2922.2243 L79.7203,2891.6319 A4.1667,4.1667 0 0 1 83.887,2887.4653" fill="#90EE90"/><rect fill="none" height="113.268" rx="4.1667" ry="4.1667" style="stroke:#2683B9;stroke-width:1.0417;" width="447.5462" x="79.7203" y="2887.4653"/><line style="stroke:#2683B9;stroke-width:1.0417;" x1="79.7203" x2="527.2666" y1="2922.2243" y2="2922.2243"/><text fill="#343A40" font-family="Verdana" font-size="11.4583" lengthAdjust="spacing" textLength="45.8333" x="280.5768" y="2909.4018">&#30446;&#26631;&#29366;&#24577;</text><g id="Target.T1"><rect fill="url(#ghw8t8q2hx25q1)" height="55.5923" rx="4.1667" ry="4.1667" style="stroke:#2683B9;stroke-width:1.0417;" width="159.1604" x="92.2203" y="2934.7243"/><line style="stroke:#2683B9;stroke-width:1.0417;" x1="92.2203" x2="251.3807" y1="2969.4833" y2="2969.4833"/><text fill="#343A40" font-family="Verdana" font-size="11.4583" lengthAdjust="spacing" textLength="127.9104" x="107.8453" y="2956.6608">&#23436;&#25972;&#30340;SessionCore&#26550;&#26500;</text></g><g id="Target.T2"><rect fill="url(#ghw8t8q2hx25q1)" height="55.5923" rx="4.1667" ry="4.1667" style="stroke:#2683B9;stroke-width:1.0417;" width="145.4249" x="269.9183" y="2934.7243"/><line style="stroke:#2683B9;stroke-width:1.0417;" x1="269.9183" x2="415.3432" y1="2969.4833" y2="2969.4833"/><text fill="#343A40" font-family="Verdana" font-size="11.4583" lengthAdjust="spacing" textLength="114.1749" x="285.5433" y="2956.6608">&#30495;&#27491;&#30340;attach/detach</text></g><g id="Target.T3"><rect fill="url(#ghw8t8q2hx25q1)" height="55.5923" rx="4.1667" ry="4.1667" style="stroke:#2683B9;stroke-width:1.0417;" width="83.8587" x="434.0328" y="2934.7243"/><line style="stroke:#2683B9;stroke-width:1.0417;" x1="434.0328" x2="517.8916" y1="2969.4833" y2="2969.4833"/><text fill="#343A40" font-family="Verdana" font-size="11.4583" lengthAdjust="spacing" textLength="52.6087" x="449.6578" y="2956.6608">tmux&#20307;&#39564;</text></g><g class="entity" data-entity="GMN2" data-source-line="78" data-uid="ent0003" id="entity_GMN2"><path d="M35.8766,239.8611 L35.8766,328.3193 A4.1667,4.1667 0 0 0 40.0433,332.486 L196.1183,332.486 A4.1667,4.1667 0 0 0 200.285,328.3193 L200.285,288.2569 L236.0016,284.0903 L200.285,279.9236 L200.285,246.1111 L189.8683,235.6944 L40.0433,235.6944 A4.1667,4.1667 0 0 0 35.8766,239.8611" fill="url(#ghw8t8q2hx25q2)" style="stroke:#033C73;stroke-width:1.0417;"/><path d="M189.8683,235.6944 L189.8683,244.0278 A2.0833,2.0833 0 0 0 191.9516,246.1111 L200.285,246.1111 L189.8683,235.6944" fill="url(#ghw8t8q2hx25q2)" style="stroke:#033C73;stroke-width:1.0417;"/><text fill="#FFFFFF" font-family="Verdana" font-size="12.5" lengthAdjust="spacing" textLength="113.623" x="47.3349" y="258.6782">&#31532;3&#27425;&#23581;&#35797;&#22833;&#36133;&#25945;&#35757;:</text><text fill="#FFFFFF" font-family="Verdana" font-size="12.5" lengthAdjust="spacing" textLength="110.0708" x="47.3349" y="273.8699">- &#35797;&#22270;&#19968;&#27425;&#25913;&#21464;&#22826;&#22810;</text><text fill="#FFFFFF" font-family="Verdana" font-size="12.5" lengthAdjust="spacing" textLength="132.1167" x="47.3349" y="289.0615">- &#30772;&#22351;&#20102;@ghostty&#21629;&#20196;</text><text fill="#FFFFFF" font-family="Verdana" font-size="12.5" lengthAdjust="spacing" textLength="95.6726" x="47.3349" y="304.2532">- &#30772;&#22351;&#20102;PTY I/O</text><text fill="#FFFFFF" font-family="Verdana" font-size="12.5" lengthAdjust="spacing" textLength="110.0708" x="47.3349" y="319.4448">- &#36830;&#38145;&#25925;&#38556;&#26080;&#27861;&#24674;&#22797;</text></g><g class="entity" data-entity="GMN5" data-source-line="86" data-uid="ent0006" id="entity_GMN5"><path d="M460.1891,978.9757 L460.1891,1011.4444 L423.3558,1015.6111 L460.1891,1019.7778 L460.1891,1052.2423 A4.1667,4.1667 0 0 0 464.3558,1056.4089 L609.302,1056.4089 A4.1667,4.1667 0 0 0 613.4687,1052.2423 L613.4687,985.2257 L603.052,974.809 L464.3558,974.809 A4.1667,4.1667 0 0 0 460.1891,978.9757" fill="url(#ghw8t8q2hx25q2)" style="stroke:#033C73;stroke-width:1.0417;"/><path d="M603.052,974.809 L603.052,983.1423 A2.0833,2.0833 0 0 0 605.1354,985.2257 L613.4687,985.2257 L603.052,974.809" fill="url(#ghw8t8q2hx25q2)" style="stroke:#033C73;stroke-width:1.0417;"/><text fill="#FFFFFF" font-family="Verdana" font-size="12.5" lengthAdjust="spacing" textLength="120.988" x="471.6474" y="997.7928">&#9989; 2024-12-29&#23436;&#25104;</text><text fill="#FFFFFF" font-family="Verdana" font-size="12.5" lengthAdjust="spacing" textLength="85.0708" x="471.6474" y="1012.9845">- &#22522;&#30784;&#32467;&#26500;&#24314;&#31435;</text><text fill="#FFFFFF" font-family="Verdana" font-size="12.5" lengthAdjust="spacing" textLength="85.0708" x="471.6474" y="1028.1761">- &#24341;&#29992;&#35745;&#25968;&#24037;&#20316;</text><text fill="#FFFFFF" font-family="Verdana" font-size="12.5" lengthAdjust="spacing" textLength="60.0708" x="471.6474" y="1043.3678">- &#27979;&#35797;&#36890;&#36807;</text></g><g class="entity" data-entity="GMN8" data-source-line="93" data-uid="ent0009" id="entity_GMN8"><path d="M453.1474,1507.6423 L453.1474,1540.1111 L416.9287,1544.2778 L453.1474,1548.4444 L453.1474,1580.9089 A4.1667,4.1667 0 0 0 457.3141,1585.0756 L570.5099,1585.0756 A4.1667,4.1667 0 0 0 574.6766,1580.9089 L574.6766,1513.8923 L564.2599,1503.4757 L457.3141,1503.4757 A4.1667,4.1667 0 0 0 453.1474,1507.6423" fill="url(#ghw8t8q2hx25q2)" style="stroke:#033C73;stroke-width:1.0417;"/><path d="M564.2599,1503.4757 L564.2599,1511.809 A2.0833,2.0833 0 0 0 566.3432,1513.8923 L574.6766,1513.8923 L564.2599,1503.4757" fill="url(#ghw8t8q2hx25q2)" style="stroke:#033C73;stroke-width:1.0417;"/><text fill="#FFFFFF" font-family="Verdana" font-size="12.5" lengthAdjust="spacing" textLength="79.3945" x="464.6058" y="1526.4595">&#9888;&#65039; &#37096;&#20998;&#23436;&#25104;</text><text fill="#FFFFFF" font-family="Verdana" font-size="12.5" lengthAdjust="spacing" textLength="76.7375" x="464.6058" y="1541.6511">- &#25968;&#25454;&#32467;&#26500;&#9989;</text><text fill="#FFFFFF" font-family="Verdana" font-size="12.5" lengthAdjust="spacing" textLength="89.2375" x="464.6058" y="1556.8428">- &#21021;&#22987;&#21270;&#25903;&#25345;&#9989;</text><text fill="#FFFFFF" font-family="Verdana" font-size="12.5" lengthAdjust="spacing" textLength="89.2375" x="464.6058" y="1572.0344">- &#36816;&#34892;&#26102;&#20999;&#25442;&#10060;</text></g><g class="entity" data-entity="GMN11" data-source-line="100" data-uid="ent0012" id="entity_GMN11"><path d="M459.1162,1997.3611 L459.1162,2022.2361 L422.4703,2026.4028 L459.1162,2030.5694 L459.1162,2055.436 A4.1667,4.1667 0 0 0 463.2828,2059.6027 L591.6357,2059.6027 A4.1667,4.1667 0 0 0 595.8024,2055.436 L595.8024,2003.6111 L585.3857,1993.1944 L463.2828,1993.1944 A4.1667,4.1667 0 0 0 459.1162,1997.3611" fill="url(#ghw8t8q2hx25q2)" style="stroke:#033C73;stroke-width:1.0417;"/><path d="M585.3857,1993.1944 L585.3857,2001.5278 A2.0833,2.0833 0 0 0 587.469,2003.6111 L595.8024,2003.6111 L585.3857,1993.1944" fill="url(#ghw8t8q2hx25q2)" style="stroke:#033C73;stroke-width:1.0417;"/><text fill="#FFFFFF" font-family="Verdana" font-size="12.5" lengthAdjust="spacing" textLength="104.3945" x="470.5745" y="2016.1782">&#9888;&#65039; &#20165;&#23450;&#20041;&#26410;&#23454;&#29616;</text><text fill="#FFFFFF" font-family="Verdana" font-size="12.5" lengthAdjust="spacing" textLength="76.7375" x="470.5745" y="2031.3699">- &#21629;&#20196;&#23384;&#22312;&#9989;</text><text fill="#FFFFFF" font-family="Verdana" font-size="12.5" lengthAdjust="spacing" textLength="76.7375" x="470.5745" y="2046.5615">- &#21151;&#33021;&#32570;&#22833;&#10060;</text></g><g class="entity" data-entity="GMN14" data-source-line="106" data-uid="ent0015" id="entity_GMN14"><path d="M454.8766,2510.8403 L454.8766,2550.9028 L418.7099,2555.0694 L454.8766,2559.2361 L454.8766,2599.2985 A4.1667,4.1667 0 0 0 459.0433,2603.4652 L685.4613,2603.4652 A4.1667,4.1667 0 0 0 689.628,2599.2985 L689.628,2517.0903 L679.2113,2506.6736 L459.0433,2506.6736 A4.1667,4.1667 0 0 0 454.8766,2510.8403" fill="url(#ghw8t8q2hx25q2)" style="stroke:#033C73;stroke-width:1.0417;"/><path d="M679.2113,2506.6736 L679.2113,2515.0069 A2.0833,2.0833 0 0 0 681.2946,2517.0903 L689.628,2517.0903 L679.2113,2506.6736" fill="url(#ghw8t8q2hx25q2)" style="stroke:#033C73;stroke-width:1.0417;"/><text fill="#FFFFFF" font-family="Verdana" font-size="12.5" lengthAdjust="spacing" textLength="144.1996" x="466.3349" y="2529.6574">&#127919; &#26550;&#26500;&#37325;&#26500; (&#23398;&#20064;tmux)</text><text fill="#FFFFFF" font-family="Verdana" font-size="12.5" lengthAdjust="spacing" textLength="202.4597" x="466.3349" y="2544.849">- SessionCore&#25317;&#26377;Terminal&#21644;PTY</text><text fill="#FFFFFF" font-family="Verdana" font-size="12.5" lengthAdjust="spacing" textLength="120.2209" x="466.3349" y="2560.0407">- Surface&#21464;&#25104;&#26597;&#30475;&#22120;</text><text fill="#FFFFFF" font-family="Verdana" font-size="12.5" lengthAdjust="spacing" textLength="136.8591" x="466.3349" y="2575.2323">- attach&#31616;&#21270;&#20026;&#25351;&#38024;&#20999;&#25442;</text><text fill="#FFFFFF" font-family="Verdana" font-size="12.5" lengthAdjust="spacing" textLength="110.0708" x="466.3349" y="2590.424">- &#30495;&#27491;&#30340;&#20250;&#35805;&#25345;&#20037;&#21270;</text></g><!--link Failed to Current--><g class="link" data-entity-1="Failed" data-entity-2="Current" data-source-line="70" data-uid="lnk19" id="link_Failed_Current"><path d="M303.5016,480.6736 C303.5016,513.2778 303.5016,538.3507 303.5016,563.4861" fill="none" id="Failed-to-Current" style="stroke:#2FA4E7;stroke-width:3.125;"/><polygon fill="#2FA4E7" points="303.5016,569.7361,307.6683,560.3611,303.5016,564.5278,299.3349,560.3611,303.5016,569.7361" style="stroke:#2FA4E7;stroke-width:3.125;"/><text fill="#343A40" font-family="Verdana" font-size="12.5" lengthAdjust="spacing" textLength="63.6841" x="309.7516" y="530.4282">Git Revert</text></g><!--link Current to Phase1--><g class="link" data-entity-1="Current" data-entity-2="Phase1" data-source-line="71" data-uid="lnk20" id="link_Current_Phase1"><path d="M303.5016,683.4653 C303.5016,708.2673 303.5016,733.0798 303.5016,766.1632" fill="none" id="Current-to-Phase1" style="stroke:#2FA4E7;stroke-width:3.125;"/><polygon fill="#2FA4E7" points="303.5016,772.4132,307.6683,763.0382,303.5016,767.2048,299.3349,763.0382,303.5016,772.4132" style="stroke:#2FA4E7;stroke-width:3.125;"/><text fill="#343A40" font-family="Verdana" font-size="12.5" lengthAdjust="spacing" textLength="75" x="309.7516" y="733.272">&#26368;&#23567;&#25913;&#21160;&#21407;&#21017;</text></g><!--link Phase1 to Phase2--><g class="link" data-entity-1="Phase1" data-entity-2="Phase2" data-source-line="72" data-uid="lnk21" id="link_Phase1_Phase2"><path d="M303.5016,1258.7465 C303.5016,1288.6007 303.5016,1312.5694 303.5016,1341.6007" fill="none" id="Phase1-to-Phase2" style="stroke:#2FA4E7;stroke-width:3.125;"/><polygon fill="#2FA4E7" points="303.5016,1347.8507,307.6683,1338.4757,303.5016,1342.6423,299.3349,1338.4757,303.5016,1347.8507" style="stroke:#2FA4E7;stroke-width:3.125;"/><text fill="#343A40" font-family="Verdana" font-size="12.5" lengthAdjust="spacing" textLength="62.5" x="309.7516" y="1308.4907">&#39564;&#35777;&#21487;&#34892;&#21518;</text></g><!--link Phase2 to Phase3--><g class="link" data-entity-1="Phase2" data-entity-2="Phase3" data-source-line="73" data-uid="lnk22" id="link_Phase2_Phase3"><path d="M303.5016,1740.9132 C303.5016,1770.2257 303.5016,1794.2048 303.5016,1823.5173" fill="none" id="Phase2-to-Phase3" style="stroke:#2FA4E7;stroke-width:3.125;"/><polygon fill="#2FA4E7" points="303.5016,1829.7673,307.6683,1820.3923,303.5016,1824.559,299.3349,1820.3923,303.5016,1829.7673" style="stroke:#2FA4E7;stroke-width:3.125;"/><text fill="#343A40" font-family="Verdana" font-size="12.5" lengthAdjust="spacing" textLength="37.5" x="309.7516" y="1790.6157">&#31283;&#23450;&#21518;</text></g><!--link Phase3 to Phase4--><g class="link" data-entity-1="Phase3" data-entity-2="Phase4" data-source-line="74" data-uid="lnk23" id="link_Phase3_Phase4"><path d="M303.5016,2223.1528 C303.5016,2252.1111 303.5016,2275.9965 303.5016,2305.7673" fill="none" id="Phase3-to-Phase4" style="stroke:#2FA4E7;stroke-width:3.125;"/><polygon fill="#2FA4E7" points="303.5016,2312.0173,307.6683,2302.6423,303.5016,2306.809,299.3349,2302.6423,303.5016,2312.0173" style="stroke:#2FA4E7;stroke-width:3.125;"/><text fill="#343A40" font-family="Verdana" font-size="12.5" lengthAdjust="spacing" textLength="50" x="309.7516" y="2272.7407">&#38656;&#35201;&#23454;&#29616;</text></g><!--link Phase4 to Target--><g class="link" data-entity-1="Phase4" data-entity-2="Target" data-source-line="75" data-uid="lnk24" id="link_Phase4_Target"><path d="M303.5016,2798.1528 C303.5016,2831.2465 303.5016,2856.0694 303.5016,2880.8923" fill="none" id="Phase4-to-Target" style="stroke:#2FA4E7;stroke-width:3.125;"/><polygon fill="#2FA4E7" points="303.5016,2887.1423,307.6683,2877.7673,303.5016,2881.934,299.3349,2877.7673,303.5016,2887.1423" style="stroke:#2FA4E7;stroke-width:3.125;"/><text fill="#343A40" font-family="Verdana" font-size="12.5" lengthAdjust="spacing" textLength="25" x="309.7516" y="2847.9491">&#23436;&#25104;</text></g><!--SRC=[XLPFJnjN4B_xKxo6ItgmKkzk3kLGLOf4LAbLKE6IKxM51rWrThLUIgkgagt4OB2DIS0D68CXXSGbO4D2mN_nTudslLsVae_GsPrzzYu4meNrlFdpvZSpltbVw3Dqbf89gir5g1eDw64zGiaOZSV3iUY3c4RvpZdVUMfra-RhbdLHOvTFIP2CpgXnIa91cLsyPTKTS-NaGpkBGeLTfbWxmVBF0e6uhkgKt36FZcH-jCVsJwspWpj4ZPCHDHoXasHeD1pzXVmP8F3dwl9kmkfkOL2-tkXj_ui68Q-IkNl6jlCGbPUMs7BPUj919SddwSKkVrSmkbMsdyDZsNlyCAoJ7-blLDFPraulaK0LnL4P2P5Wy1lXRqJ2NsW-8kCl9V1NFq7MMMDBENFvd2UIZfy7Svf6exe_jR4vRKgTe3np0DSUfzfiEAf67FKnNtOk-3-eKNMQQcPrprnTuDd5tlCqAlkphEMD-g7hsimScMyoe-EFKL7sND6js31XgLEZ-KQ49tVVbrAickNfrIyT8qSlH8Q-3q_Fw0yrIgF-95XwYxMQdlumMsjGAW9kq3xqaoyP4SXevSprK_UUwCHh8tq20AVxiaaFMAnTCDShNZjVITb-KGJm9OdWUSqKhrb80WJvVnchLc2fIkz9fPSeMjr5h_vzHz_EpIb-_yBsXv38GY8BYI8aYf3SlrOH2IgIp_BA7cld-NeDyeMI57S_rFDm4PPUk5ORYGmzff58RDvV5oVN67huEQPfiNawYLu7UKZ-qh1yZQMtsUiCo_xD4cL0jjyL7XE94A_H- -qi4Oti31XBB_BSIryxWvLyrGPOehUPOWlGR0sZdaCheUq29Gbu9G6l9E0L7kqF8L6kWIa3cDKi517fIY39gaMZiMHq5dZf4DdAWwTCXXvfQdIQNXdMGG-YUMm-IhNuJFZN0JYo7qzLrzM9cNkJrFx7ddMCrhvNLxeA2U3NRsmF7F9ry40pZlU1wXgD51HCwBhGoG8w4SV-419PI6GXkGwTCaoGT7kBENkUxxBZLqPZLv-T-zq3bk8I0y02NN8JO7w6Oy-pWf565JzYObhp6z3ZPhF6omTcASCsAqBRXvbPJK3YYB9HR-9KUv5J_CZn-bjUNWDla9BPsk2b9akV2qqV0vYbCZ_-nom-DTf5gxPz1MH5ZByYG1ONip-4H1OIMKWK8L64n3l-vbQLxovwTiQugarJ_HRc1IOedC4bhordD0zzCYDVKwAY3rIxm4PdhNUOnKDdPxZhsRwrkyc6oM1V1iHsSx9ozWKqJod1Je316covmbRABBqPS5T9Nmke3i9OjIGGZxMNPQih0PVH-Yemm6Rb7GnS_r0U74ABzae9wrKIPpZWTgHzZjWvqm-T50X4Ov1RX4xf93RbFZOWQV4EETcsgTvvZV32fbKz7eR38B65MvT6FG4wTYBv3RP_23l5ESGdXz5S-7Pw9XRNzJzmmFrdqEVaktkFq5jtfxUUv8LKhrX2fkJ9b_0K2T3e9B7lvzvIiyjjNnFX0blW329z9Id1a1IKldPJibsoSjFSI-32XVq9gnx5pbQqgdkySC8k3enEoH7ZHiDTTdjGf7ZaIk9TE-YdSC9pLOmALyEGOc_WmX5YgxiAXUKlpd4gWRfk3omFmXgj5F9idwCna8CoEzvWfKe_kFFYCzjDAE5dGzX3-B6yKhkPtHoVds4lrF6oLP-gd2ESCYIeAzI47N83mGpk_Zy0]--></g></svg>