<svg xmlns="http://www.w3.org/2000/svg" xmlns:xlink="http://www.w3.org/1999/xlink" contentStyleType="text/css" data-diagram-type="SEQUENCE" height="1980.2083px" preserveAspectRatio="none" style="width:2112px;height:1980px;" version="1.1" viewBox="0 0 2112 1980" width="2112.5px" zoomAndPan="magnify"><title>&#26032;&#26550;&#26500;&#30340;attach&#25968;&#25454;&#27969; - &#23398;&#20064;tmux&#30340;&#31616;&#27905;&#24615;</title><defs><linearGradient id="g3dkyda5k02p90" x1="50%" x2="50%" y1="0%" y2="100%"><stop offset="0%" stop-color="#EDF0F2"/><stop offset="100%" stop-color="#E9ECEF"/></linearGradient><linearGradient id="g3dkyda5k02p91" x1="50%" x2="50%" y1="0%" y2="100%"><stop offset="0%" stop-color="#59B6EC"/><stop offset="100%" stop-color="#2FA4E7"/></linearGradient><linearGradient id="g3dkyda5k02p92" x1="50%" x2="50%" y1="0%" y2="100%"><stop offset="0%" stop-color="#FFFFFF"/><stop offset="100%" stop-color="#F8F9FA"/></linearGradient><linearGradient id="g3dkyda5k02p93" x1="50%" x2="50%" y1="0%" y2="100%"><stop offset="0%" stop-color="#35638F"/><stop offset="100%" stop-color="#033C73"/></linearGradient></defs><g><rect fill="url(#g3dkyda5k02p90)" height="48.2361" rx="4.1667" ry="4.1667" style="stroke:#BABDBF;stroke-width:1.0417;" width="452.2176" x="828.7684" y="20.8333"/><text fill="#2FA4E7" font-family="Verdana" font-size="20.8333" font-weight="bold" lengthAdjust="spacing" textLength="429.3009" x="840.2267" y="53.2369">&#26032;&#26550;&#26500;&#30340;attach&#25968;&#25454;&#27969; - &#23398;&#20064;tmux&#30340;&#31616;&#27905;&#24615;</text><rect fill="none" height="214.4999" rx="4.1667" ry="4.1667" style="stroke:#59B6EC;stroke-width:1.0417;" width="1776.8188" x="145.7163" y="781.3192"/><g><title>User</title><rect fill="#000000" fill-opacity="0.00000" height="1712.7075" width="8.3333" x="34.0129" y="169.6777"/><line style="stroke:#BABDBF;stroke-width:1.0417;stroke-dasharray:5.2083,5.2083;" x1="37.5" x2="37.5" y1="169.6777" y2="1882.3853"/></g><g><title>Surface A</title><rect fill="#000000" fill-opacity="0.00000" height="1712.7075" width="8.3333" x="236.4278" y="169.6777"/><line style="stroke:#BABDBF;stroke-width:1.0417;stroke-dasharray:5.2083,5.2083;" x1="240.508" x2="240.508" y1="169.6777" y2="1882.3853"/></g><g><title>App</title><rect fill="#000000" fill-opacity="0.00000" height="1712.7075" width="8.3333" x="539.443" y="169.6777"/><line style="stroke:#BABDBF;stroke-width:1.0417;stroke-dasharray:5.2083,5.2083;" x1="543.0074" x2="543.0074" y1="169.6777" y2="1882.3853"/></g><g><title>SessionManager</title><rect fill="#000000" fill-opacity="0.00000" height="1712.7075" width="8.3333" x="833.2642" y="169.6777"/><line style="stroke:#BABDBF;stroke-width:1.0417;stroke-dasharray:5.2083,5.2083;" x1="836.4451" x2="836.4451" y1="169.6777" y2="1882.3853"/></g><g><title>SessionCore A</title><rect fill="#000000" fill-opacity="0.00000" height="1712.7075" width="8.3333" x="1047.9889" y="169.6777"/><line style="stroke:#BABDBF;stroke-width:1.0417;stroke-dasharray:5.2083,5.2083;" x1="1051.9582" x2="1051.9582" y1="169.6777" y2="1882.3853"/></g><g><title>SessionCore B</title><rect fill="#000000" fill-opacity="0.00000" height="1712.7075" width="8.3333" x="1256.7291" y="169.6777"/><line style="stroke:#BABDBF;stroke-width:1.0417;stroke-dasharray:5.2083,5.2083;" x1="1260.6862" x2="1260.6862" y1="169.6777" y2="1882.3853"/></g><g><title>Terminal A</title><rect fill="#000000" fill-opacity="0.00000" height="1712.7075" width="8.3333" x="1454.4098" y="169.6777"/><line style="stroke:#BABDBF;stroke-width:1.0417;stroke-dasharray:5.2083,5.2083;" x1="1457.9803" x2="1457.9803" y1="169.6777" y2="1882.3853"/></g><g><title>Terminal B</title><rect fill="#000000" fill-opacity="0.00000" height="1712.7075" width="8.3333" x="1641.0309" y="169.6777"/><line style="stroke:#BABDBF;stroke-width:1.0417;stroke-dasharray:5.2083,5.2083;" x1="1644.5892" x2="1644.5892" y1="169.6777" y2="1882.3853"/></g><g><title>PTY A</title><rect fill="#000000" fill-opacity="0.00000" height="1712.7075" width="8.3333" x="1824.8077" y="169.6777"/><line style="stroke:#BABDBF;stroke-width:1.0417;stroke-dasharray:5.2083,5.2083;" x1="1828.0975" x2="1828.0975" y1="169.6777" y2="1882.3853"/></g><g><title>PTY B</title><rect fill="#000000" fill-opacity="0.00000" height="1712.7075" width="8.3333" x="2005.7404" y="169.6777"/><line style="stroke:#BABDBF;stroke-width:1.0417;stroke-dasharray:5.2083,5.2083;" x1="2009.0179" x2="2009.0179" y1="169.6777" y2="1882.3853"/></g><g class="participant participant-head" data-participant="User"><text fill="#343A40" font-family="Verdana" font-size="12.5" lengthAdjust="spacing" textLength="28.4424" x="20.8333" y="161.8449">User</text><ellipse cx="38.1795" cy="89.9028" fill="url(#g3dkyda5k02p91)" rx="8.3333" ry="8.3333" style="stroke:#2FA4E7;stroke-width:1.0417;"/><path d="M38.1795,98.2361 L38.1795,126.3611 M24.6379,106.5694 L51.7212,106.5694 M38.1795,126.3611 L24.6379,141.9861 M38.1795,126.3611 L51.7212,141.9861" fill="none" style="stroke:#2FA4E7;stroke-width:1.0417;"/></g><g class="participant participant-tail" data-participant="User"><text fill="#343A40" font-family="Verdana" font-size="12.5" lengthAdjust="spacing" textLength="28.4424" x="20.8333" y="1899.1191">User</text><ellipse cx="38.1795" cy="1916.3269" fill="url(#g3dkyda5k02p91)" rx="8.3333" ry="8.3333" style="stroke:#2FA4E7;stroke-width:1.0417;"/><path d="M38.1795,1924.6602 L38.1795,1952.7852 M24.6379,1932.9936 L51.7212,1932.9936 M38.1795,1952.7852 L24.6379,1968.4102 M38.1795,1952.7852 L51.7212,1968.4102" fill="none" style="stroke:#2FA4E7;stroke-width:1.0417;"/></g><g class="participant participant-head" data-participant="SA"><rect fill="url(#g3dkyda5k02p91)" height="55.3833" rx="4.1667" ry="4.1667" style="stroke:#2FA4E7;stroke-width:1.0417;" width="85.5896" x="197.7997" y="113.2528"/><text fill="#FFFFFF" font-family="Verdana" font-size="12.5" lengthAdjust="spacing" textLength="60.5896" x="210.2997" y="138.3199">Surface A</text><text fill="#FFFFFF" font-family="Verdana" font-size="12.5" lengthAdjust="spacing" textLength="48.8525" x="216.1682" y="153.5116">(&#26597;&#30475;&#22120;)</text></g><g class="participant participant-tail" data-participant="SA"><rect fill="url(#g3dkyda5k02p91)" height="55.3833" rx="4.1667" ry="4.1667" style="stroke:#2FA4E7;stroke-width:1.0417;" width="85.5896" x="197.7997" y="1881.3436"/><text fill="#FFFFFF" font-family="Verdana" font-size="12.5" lengthAdjust="spacing" textLength="60.5896" x="210.2997" y="1906.4107">Surface A</text><text fill="#FFFFFF" font-family="Verdana" font-size="12.5" lengthAdjust="spacing" textLength="48.8525" x="216.1682" y="1921.6024">(&#26597;&#30475;&#22120;)</text></g><g class="participant participant-head" data-participant="App"><rect fill="url(#g3dkyda5k02p91)" height="40.1917" rx="4.1667" ry="4.1667" style="stroke:#2FA4E7;stroke-width:1.0417;" width="49.1211" x="519.0491" y="128.4444"/><text fill="#FFFFFF" font-family="Verdana" font-size="12.5" lengthAdjust="spacing" textLength="24.1211" x="531.5491" y="153.5116">App</text></g><g class="participant participant-tail" data-participant="App"><rect fill="url(#g3dkyda5k02p91)" height="40.1917" rx="4.1667" ry="4.1667" style="stroke:#2FA4E7;stroke-width:1.0417;" width="49.1211" x="519.0491" y="1881.3436"/><text fill="#FFFFFF" font-family="Verdana" font-size="12.5" lengthAdjust="spacing" textLength="24.1211" x="531.5491" y="1906.4107">App</text></g><g class="participant participant-head" data-participant="SM"><rect fill="url(#g3dkyda5k02p91)" height="40.1917" rx="4.1667" ry="4.1667" style="stroke:#2FA4E7;stroke-width:1.0417;" width="126.9714" x="773.9451" y="128.4444"/><text fill="#FFFFFF" font-family="Verdana" font-size="12.5" lengthAdjust="spacing" textLength="101.9714" x="786.4451" y="153.5116">SessionManager</text></g><g class="participant participant-tail" data-participant="SM"><rect fill="url(#g3dkyda5k02p91)" height="40.1917" rx="4.1667" ry="4.1667" style="stroke:#2FA4E7;stroke-width:1.0417;" width="126.9714" x="773.9451" y="1881.3436"/><text fill="#FFFFFF" font-family="Verdana" font-size="12.5" lengthAdjust="spacing" textLength="101.9714" x="786.4451" y="1906.4107">SessionManager</text></g><g class="participant participant-head" data-participant="SCA"><rect fill="url(#g3dkyda5k02p91)" height="55.3833" rx="4.1667" ry="4.1667" style="stroke:#2FA4E7;stroke-width:1.0417;" width="114.978" x="994.6665" y="113.2528"/><text fill="#FFFFFF" font-family="Verdana" font-size="12.5" lengthAdjust="spacing" textLength="89.978" x="1007.1665" y="138.3199">SessionCore A</text><text fill="#FFFFFF" font-family="Verdana" font-size="12.5" lengthAdjust="spacing" textLength="61.3525" x="1021.4793" y="153.5116">(&#25345;&#20037;&#20250;&#35805;)</text></g><g class="participant participant-tail" data-participant="SCA"><rect fill="url(#g3dkyda5k02p91)" height="55.3833" rx="4.1667" ry="4.1667" style="stroke:#2FA4E7;stroke-width:1.0417;" width="114.978" x="994.6665" y="1881.3436"/><text fill="#FFFFFF" font-family="Verdana" font-size="12.5" lengthAdjust="spacing" textLength="89.978" x="1007.1665" y="1906.4107">SessionCore A</text><text fill="#FFFFFF" font-family="Verdana" font-size="12.5" lengthAdjust="spacing" textLength="61.3525" x="1021.4793" y="1921.6024">(&#25345;&#20037;&#20250;&#35805;)</text></g><g class="participant participant-head" data-participant="SCB"><rect fill="url(#g3dkyda5k02p91)" height="55.3833" rx="4.1667" ry="4.1667" style="stroke:#2FA4E7;stroke-width:1.0417;" width="115.0024" x="1203.3946" y="113.2528"/><text fill="#FFFFFF" font-family="Verdana" font-size="12.5" lengthAdjust="spacing" textLength="90.0024" x="1215.8946" y="138.3199">SessionCore B</text><text fill="#FFFFFF" font-family="Verdana" font-size="12.5" lengthAdjust="spacing" textLength="61.3525" x="1230.2195" y="153.5116">(&#25345;&#20037;&#20250;&#35805;)</text></g><g class="participant participant-tail" data-participant="SCB"><rect fill="url(#g3dkyda5k02p91)" height="55.3833" rx="4.1667" ry="4.1667" style="stroke:#2FA4E7;stroke-width:1.0417;" width="115.0024" x="1203.3946" y="1881.3436"/><text fill="#FFFFFF" font-family="Verdana" font-size="12.5" lengthAdjust="spacing" textLength="90.0024" x="1215.8946" y="1906.4107">SessionCore B</text><text fill="#FFFFFF" font-family="Verdana" font-size="12.5" lengthAdjust="spacing" textLength="61.3525" x="1230.2195" y="1921.6024">(&#25345;&#20037;&#20250;&#35805;)</text></g><g class="participant participant-head" data-participant="TA"><rect fill="url(#g3dkyda5k02p91)" height="55.3833" rx="4.1667" ry="4.1667" style="stroke:#2FA4E7;stroke-width:1.0417;" width="92.8589" x="1412.147" y="113.2528"/><text fill="#FFFFFF" font-family="Verdana" font-size="12.5" lengthAdjust="spacing" textLength="67.8589" x="1424.647" y="138.3199">Terminal A</text><text fill="#FFFFFF" font-family="Verdana" font-size="12.5" lengthAdjust="spacing" textLength="62.1704" x="1427.4913" y="153.5116">(SCA&#25317;&#26377;)</text></g><g class="participant participant-tail" data-participant="TA"><rect fill="url(#g3dkyda5k02p91)" height="55.3833" rx="4.1667" ry="4.1667" style="stroke:#2FA4E7;stroke-width:1.0417;" width="92.8589" x="1412.147" y="1881.3436"/><text fill="#FFFFFF" font-family="Verdana" font-size="12.5" lengthAdjust="spacing" textLength="67.8589" x="1424.647" y="1906.4107">Terminal A</text><text fill="#FFFFFF" font-family="Verdana" font-size="12.5" lengthAdjust="spacing" textLength="62.1704" x="1427.4913" y="1921.6024">(SCA&#25317;&#26377;)</text></g><g class="participant participant-head" data-participant="TB"><rect fill="url(#g3dkyda5k02p91)" height="55.3833" rx="4.1667" ry="4.1667" style="stroke:#2FA4E7;stroke-width:1.0417;" width="92.8833" x="1598.7559" y="113.2528"/><text fill="#FFFFFF" font-family="Verdana" font-size="12.5" lengthAdjust="spacing" textLength="67.8833" x="1611.2559" y="138.3199">Terminal B</text><text fill="#FFFFFF" font-family="Verdana" font-size="12.5" lengthAdjust="spacing" textLength="62.1948" x="1614.1001" y="153.5116">(SCB&#25317;&#26377;)</text></g><g class="participant participant-tail" data-participant="TB"><rect fill="url(#g3dkyda5k02p91)" height="55.3833" rx="4.1667" ry="4.1667" style="stroke:#2FA4E7;stroke-width:1.0417;" width="92.8833" x="1598.7559" y="1881.3436"/><text fill="#FFFFFF" font-family="Verdana" font-size="12.5" lengthAdjust="spacing" textLength="67.8833" x="1611.2559" y="1906.4107">Terminal B</text><text fill="#FFFFFF" font-family="Verdana" font-size="12.5" lengthAdjust="spacing" textLength="62.1948" x="1614.1001" y="1921.6024">(SCB&#25317;&#26377;)</text></g><g class="participant participant-head" data-participant="PA"><rect fill="url(#g3dkyda5k02p91)" height="55.3833" rx="4.1667" ry="4.1667" style="stroke:#2FA4E7;stroke-width:1.0417;" width="87.1704" x="1785.3892" y="113.2528"/><text fill="#FFFFFF" font-family="Verdana" font-size="12.5" lengthAdjust="spacing" textLength="35.8704" x="1811.0392" y="138.3199">PTY A</text><text fill="#FFFFFF" font-family="Verdana" font-size="12.5" lengthAdjust="spacing" textLength="62.1704" x="1797.8892" y="153.5116">(SCA&#25317;&#26377;)</text></g><g class="participant participant-tail" data-participant="PA"><rect fill="url(#g3dkyda5k02p91)" height="55.3833" rx="4.1667" ry="4.1667" style="stroke:#2FA4E7;stroke-width:1.0417;" width="87.1704" x="1785.3892" y="1881.3436"/><text fill="#FFFFFF" font-family="Verdana" font-size="12.5" lengthAdjust="spacing" textLength="35.8704" x="1811.0392" y="1906.4107">PTY A</text><text fill="#FFFFFF" font-family="Verdana" font-size="12.5" lengthAdjust="spacing" textLength="62.1704" x="1797.8892" y="1921.6024">(SCA&#25317;&#26377;)</text></g><g class="participant participant-head" data-participant="PB"><rect fill="url(#g3dkyda5k02p91)" height="55.3833" rx="4.1667" ry="4.1667" style="stroke:#2FA4E7;stroke-width:1.0417;" width="87.1948" x="1966.3096" y="113.2528"/><text fill="#FFFFFF" font-family="Verdana" font-size="12.5" lengthAdjust="spacing" textLength="35.8948" x="1991.9596" y="138.3199">PTY B</text><text fill="#FFFFFF" font-family="Verdana" font-size="12.5" lengthAdjust="spacing" textLength="62.1948" x="1978.8096" y="153.5116">(SCB&#25317;&#26377;)</text></g><g class="participant participant-tail" data-participant="PB"><rect fill="url(#g3dkyda5k02p91)" height="55.3833" rx="4.1667" ry="4.1667" style="stroke:#2FA4E7;stroke-width:1.0417;" width="87.1948" x="1966.3096" y="1881.3436"/><text fill="#FFFFFF" font-family="Verdana" font-size="12.5" lengthAdjust="spacing" textLength="35.8948" x="1991.9596" y="1906.4107">PTY B</text><text fill="#FFFFFF" font-family="Verdana" font-size="12.5" lengthAdjust="spacing" textLength="62.1948" x="1978.8096" y="1921.6024">(SCB&#25317;&#26377;)</text></g><rect fill="url(#g3dkyda5k02p92)" height="3.125" rx="4.1667" ry="4.1667" style="stroke:url(#g3dkyda5k02p92);stroke-width:1.0417;" width="2089.9628" x="10.4167" y="206.4402"/><line style="stroke:#868E96;stroke-width:1.0417;" x1="10.4167" x2="2100.3794" y1="206.4402" y2="206.4402"/><line style="stroke:#868E96;stroke-width:1.0417;" x1="10.4167" x2="2100.3794" y1="209.5652" y2="209.5652"/><rect fill="url(#g3dkyda5k02p92)" height="33.9417" rx="4.1667" ry="4.1667" style="stroke:#868E96;stroke-width:2.0833;" width="289.27" x="910.763" y="190.5111"/><text fill="#343A40" font-family="Verdana" font-size="12.5" font-weight="bold" lengthAdjust="spacing" textLength="259.9976" x="922.2214" y="212.4532">&#21021;&#22987;&#29366;&#24577;: Surface A &#26597;&#30475; SessionCore A</text><g class="message" data-participant-1="SA" data-participant-2="SCA"><polygon fill="#2FA4E7" points="1039.6556,262.561,1050.0722,266.7277,1039.6556,270.8944,1043.8222,266.7277" style="stroke:#2FA4E7;stroke-width:1.0417;"/><line style="stroke:#2FA4E7;stroke-width:3.125;" x1="240.5945" x2="1045.9056" y1="266.7277" y2="266.7277"/><text fill="#343A40" font-family="Verdana" font-size="12.5" lengthAdjust="spacing" textLength="175.7385" x="253.0945" y="256.8115">surface.session_core = SCA</text></g><g class="message" data-participant-1="SA" data-participant-2="TA"><polygon fill="#2FA4E7" points="1446.0765,302.7527,1456.4931,306.9194,1446.0765,311.086,1450.2431,306.9194" style="stroke:#2FA4E7;stroke-width:1.0417;"/><line style="stroke:#2FA4E7;stroke-width:3.125;" x1="240.5945" x2="1452.3265" y1="306.9194" y2="306.9194"/><text fill="#343A40" font-family="Verdana" font-size="12.5" lengthAdjust="spacing" textLength="171.8994" x="253.0945" y="297.0032">renderer&#26174;&#31034;Terminal A&#20869;&#23481;</text></g><g class="message" data-participant-1="TA" data-participant-2="PA"><polygon fill="#2FA4E7" points="1816.4744,342.9443,1826.8911,347.111,1816.4744,351.2777,1820.6411,347.111" style="stroke:#2FA4E7;stroke-width:1.0417;"/><line style="stroke:#2FA4E7;stroke-width:3.125;" x1="1458.5765" x2="1822.7244" y1="347.111" y2="347.111"/><text fill="#343A40" font-family="Verdana" font-size="12.5" lengthAdjust="spacing" textLength="128.7292" x="1471.0765" y="337.1948">Terminal A&#36830;&#25509;PTY A</text></g><path d="M1753.125,364.8193 L1753.125,391.9027 A4.1667,4.1667 0 0 0 1757.2917,396.0693 L1898.9583,396.0693 A4.1667,4.1667 0 0 0 1903.125,391.9027 L1903.125,371.0693 L1892.7083,360.6527 L1757.2917,360.6527 A4.1667,4.1667 0 0 0 1753.125,364.8193" fill="url(#g3dkyda5k02p93)" style="stroke:#033C73;stroke-width:1.0417;"/><path d="M1892.7083,360.6527 L1892.7083,368.986 A2.0833,2.0833 0 0 0 1894.7917,371.0693 L1903.125,371.0693 L1892.7083,360.6527" fill="url(#g3dkyda5k02p93)" style="stroke:#033C73;stroke-width:1.0417;"/><text fill="#FFFFFF" font-family="Verdana" font-size="12.5" lengthAdjust="spacing" textLength="118.7012" x="1764.5833" y="383.6365">Shell A&#36827;&#31243;&#25345;&#32493;&#36816;&#34892;</text><rect fill="url(#g3dkyda5k02p92)" height="3.125" rx="4.1667" ry="4.1667" style="stroke:url(#g3dkyda5k02p92);stroke-width:1.0417;" width="2089.9628" x="10.4167" y="428.2318"/><line style="stroke:#868E96;stroke-width:1.0417;" x1="10.4167" x2="2100.3794" y1="428.2318" y2="428.2318"/><line style="stroke:#868E96;stroke-width:1.0417;" x1="10.4167" x2="2100.3794" y1="431.3568" y2="431.3568"/><rect fill="url(#g3dkyda5k02p92)" height="33.9417" rx="4.1667" ry="4.1667" style="stroke:#868E96;stroke-width:2.0833;" width="220.752" x="945.0221" y="412.3027"/><text fill="#343A40" font-family="Verdana" font-size="12.5" font-weight="bold" lengthAdjust="spacing" textLength="191.4795" x="956.4804" y="434.2448">SessionCore B &#22312;&#21518;&#21488;&#25345;&#32493;&#36816;&#34892;</text><g class="message" data-participant-1="SCB" data-participant-2="TB"><polygon fill="#2FA4E7" points="1632.6976,484.3526,1643.1142,488.5193,1632.6976,492.686,1636.8642,488.5193" style="stroke:#2FA4E7;stroke-width:1.0417;"/><line style="stroke:#2FA4E7;stroke-width:3.125;" x1="1260.8958" x2="1638.9476" y1="488.5193" y2="488.5193"/><text fill="#343A40" font-family="Verdana" font-size="12.5" lengthAdjust="spacing" textLength="182.8857" x="1273.3958" y="478.6031">SessionCore B&#25317;&#26377;Terminal B</text></g><g class="message" data-participant-1="TB" data-participant-2="PB"><polygon fill="#2FA4E7" points="1997.407,524.5443,2007.8237,528.7109,1997.407,532.8776,2001.5737,528.7109" style="stroke:#2FA4E7;stroke-width:1.0417;"/><line style="stroke:#2FA4E7;stroke-width:3.125;" x1="1645.1976" x2="2003.657" y1="528.7109" y2="528.7109"/><text fill="#343A40" font-family="Verdana" font-size="12.5" lengthAdjust="spacing" textLength="128.7781" x="1657.6976" y="518.7948">Terminal B&#36830;&#25509;PTY B</text></g><path d="M1932.2917,546.4193 L1932.2917,589.1276 A4.1667,4.1667 0 0 0 1936.4583,593.2943 L2082.2917,593.2943 A4.1667,4.1667 0 0 0 2086.4583,589.1276 L2086.4583,552.6693 L2076.0417,542.2526 L1936.4583,542.2526 A4.1667,4.1667 0 0 0 1932.2917,546.4193" fill="url(#g3dkyda5k02p93)" style="stroke:#033C73;stroke-width:1.0417;"/><path d="M2076.0417,542.2526 L2076.0417,550.5859 A2.0833,2.0833 0 0 0 2078.125,552.6693 L2086.4583,552.6693 L2076.0417,542.2526" fill="url(#g3dkyda5k02p93)" style="stroke:#033C73;stroke-width:1.0417;"/><text fill="#FFFFFF" font-family="Verdana" font-size="12.5" lengthAdjust="spacing" textLength="118.7256" x="1943.75" y="565.2364">Shell B&#36827;&#31243;&#25345;&#32493;&#36816;&#34892;</text><text fill="#FFFFFF" font-family="Verdana" font-size="12.5" lengthAdjust="spacing" textLength="122.6501" x="1943.75" y="580.4281">&#21363;&#20351;&#27809;&#26377;Surface&#26597;&#30475;</text><rect fill="url(#g3dkyda5k02p92)" height="3.125" rx="4.1667" ry="4.1667" style="stroke:url(#g3dkyda5k02p92);stroke-width:1.0417;" width="2089.9628" x="10.4167" y="625.0234"/><line style="stroke:#868E96;stroke-width:1.0417;" x1="10.4167" x2="2100.3794" y1="625.0234" y2="625.0234"/><line style="stroke:#868E96;stroke-width:1.0417;" x1="10.4167" x2="2100.3794" y1="628.1484" y2="628.1484"/><rect fill="url(#g3dkyda5k02p92)" height="33.9417" rx="4.1667" ry="4.1667" style="stroke:#868E96;stroke-width:2.0833;" width="285.083" x="912.8565" y="609.0942"/><text fill="#343A40" font-family="Verdana" font-size="12.5" font-weight="bold" lengthAdjust="spacing" textLength="255.8105" x="924.3149" y="631.0364">User &#25191;&#34892;: @ghostty attach session-b</text><g class="message" data-participant-1="User" data-participant-2="SA"><polygon fill="#2FA4E7" points="228.0945,681.1442,238.5111,685.3109,228.0945,689.4775,232.2611,685.3109" style="stroke:#2FA4E7;stroke-width:1.0417;"/><line style="stroke:#2FA4E7;stroke-width:3.125;" x1="38.1795" x2="234.3445" y1="685.3109" y2="685.3109"/><text fill="#343A40" font-family="Verdana" font-size="12.5" lengthAdjust="spacing" textLength="166.9983" x="50.6795" y="675.3947">@ghostty attach session-b</text></g><g class="message" data-participant-1="SA" data-participant-2="App"><polygon fill="#2FA4E7" points="531.1096,721.3359,541.5263,725.5025,531.1096,729.6692,535.2763,725.5025" style="stroke:#2FA4E7;stroke-width:1.0417;"/><line style="stroke:#2FA4E7;stroke-width:3.125;" x1="240.5945" x2="537.3596" y1="725.5025" y2="725.5025"/><text fill="#343A40" font-family="Verdana" font-size="12.5" lengthAdjust="spacing" textLength="188.4644" x="253.0945" y="715.5863">mailbox.push(attach_session)</text></g><g class="message" data-participant-1="App" data-participant-2="SM"><polygon fill="#2FA4E7" points="824.9308,761.5275,835.3475,765.6942,824.9308,769.8608,829.0975,765.6942" style="stroke:#2FA4E7;stroke-width:1.0417;"/><line style="stroke:#2FA4E7;stroke-width:3.125;" x1="543.6096" x2="831.1808" y1="765.6942" y2="765.6942"/><text fill="#343A40" font-family="Verdana" font-size="12.5" lengthAdjust="spacing" textLength="258.4045" x="556.1096" y="755.778">attachSurfaceToSession(SA, "session-b")</text></g><path d="M149.883,781.3192 L326.6958,781.3192 L326.6958,798.5942 L316.2791,809.0108 L145.7163,809.0108 L145.7163,785.4858 A4.1667,4.1667 0 0 1 149.883,781.3192" fill="#E9ECEF" style="stroke:#868E96;stroke-width:1.0417;"/><rect fill="none" height="214.4999" rx="4.1667" ry="4.1667" style="stroke:#59B6EC;stroke-width:1.0417;" width="1776.8188" x="145.7163" y="781.3192"/><text fill="#033C73" font-family="Verdana" font-size="12.5" font-weight="bold" lengthAdjust="spacing" textLength="123.6877" x="166.5497" y="800.1363">tmux&#39118;&#26684;&#30340;&#31616;&#21333;&#20999;&#25442;</text><g class="message" data-participant-1="SM" data-participant-2="SCB"><polygon fill="#2FA4E7" points="1248.3958,836.7025,1258.8125,840.8691,1248.3958,845.0358,1252.5625,840.8691" style="stroke:#2FA4E7;stroke-width:1.0417;"/><line style="stroke:#2FA4E7;stroke-width:3.125;" x1="837.4308" x2="1254.6458" y1="840.8691" y2="840.8691"/><text fill="#343A40" font-family="Verdana" font-size="12.5" lengthAdjust="spacing" textLength="115.0024" x="849.9308" y="830.953">&#25214;&#21040;SessionCore B</text></g><g class="message" data-participant-1="SM" data-participant-2="SA"><polygon fill="#2FA4E7" points="252.0528,880.0191,241.6361,884.1858,252.0528,888.3525,247.8861,884.1858" style="stroke:#2FA4E7;stroke-width:1.0417;"/><line style="stroke:#2FA4E7;stroke-width:3.125;" x1="245.8028" x2="836.3892" y1="884.1858" y2="884.1858"/><text fill="#343A40" font-family="Verdana" font-size="12.5" font-weight="bold" lengthAdjust="spacing" textLength="194.812" x="263.5111" y="874.2696">surface.session_core = SCB</text><text fill="#343A40" font-family="Verdana" font-size="12.5" lengthAdjust="spacing" textLength="79.3945" x="462.7177" y="874.2696">&#11013;&#65039; &#20851;&#38190;&#20999;&#25442;</text></g><path d="M841.6667,858.5775 L841.6667,885.6608 A4.1667,4.1667 0 0 0 845.8333,889.8275 L1121.875,889.8275 A4.1667,4.1667 0 0 0 1126.0417,885.6608 L1126.0417,864.8275 L1115.625,854.4108 L845.8333,854.4108 A4.1667,4.1667 0 0 0 841.6667,858.5775" fill="url(#g3dkyda5k02p93)" style="stroke:#033C73;stroke-width:1.0417;"/><path d="M1115.625,854.4108 L1115.625,862.7441 A2.0833,2.0833 0 0 0 1117.7083,864.8275 L1126.0417,864.8275 L1115.625,854.4108" fill="url(#g3dkyda5k02p93)" style="stroke:#033C73;stroke-width:1.0417;"/><text fill="#FFFFFF" font-family="Verdana" font-size="12.5" lengthAdjust="spacing" textLength="252.4658" x="853.125" y="877.3946">&#23601;&#20687;tmux&#30340;client.session = new_session</text><g class="message" data-participant-1="SA" data-participant-2="TB"><polygon fill="#2FA4E7" points="1632.6976,926.4608,1643.1142,930.6274,1632.6976,934.7941,1636.8642,930.6274" style="stroke:#2FA4E7;stroke-width:1.0417;"/><line style="stroke:#2FA4E7;stroke-width:3.125;" x1="240.5945" x2="1638.9476" y1="930.6274" y2="930.6274"/><text fill="#343A40" font-family="Verdana" font-size="12.5" font-weight="bold" lengthAdjust="spacing" textLength="279.8645" x="253.0945" y="920.7113">renderer_state.terminal = SCB.terminal</text><text fill="#343A40" font-family="Verdana" font-size="12.5" lengthAdjust="spacing" textLength="104.3945" x="537.3535" y="920.7113">&#11013;&#65039; &#26356;&#26032;&#28210;&#26579;&#30446;&#26631;</text></g><path d="M1650,905.0191 L1650,932.1025 A4.1667,4.1667 0 0 0 1654.1667,936.2691 L1902.0833,936.2691 A4.1667,4.1667 0 0 0 1906.25,932.1025 L1906.25,911.2691 L1895.8333,900.8525 L1654.1667,900.8525 A4.1667,4.1667 0 0 0 1650,905.0191" fill="url(#g3dkyda5k02p93)" style="stroke:#033C73;stroke-width:1.0417;"/><path d="M1895.8333,900.8525 L1895.8333,909.1858 A2.0833,2.0833 0 0 0 1897.9167,911.2691 L1906.25,911.2691 L1895.8333,900.8525" fill="url(#g3dkyda5k02p93)" style="stroke:#033C73;stroke-width:1.0417;"/><text fill="#FFFFFF" font-family="Verdana" font-size="12.5" lengthAdjust="spacing" textLength="224.2126" x="1661.4583" y="923.8363">&#23601;&#20687;tmux&#30340;tty&#25351;&#21521;&#26032;session&#30340;screen</text><g class="message" data-participant-1="SA" data-participant-2="SA"><line style="stroke:#2FA4E7;stroke-width:3.125;" x1="240.5945" x2="284.3445" y1="973.9441" y2="973.9441"/><line style="stroke:#2FA4E7;stroke-width:3.125;" x1="284.3445" x2="284.3445" y1="973.9441" y2="987.4858"/><line style="stroke:#2FA4E7;stroke-width:3.125;" x1="241.6361" x2="284.3445" y1="987.4858" y2="987.4858"/><polygon fill="#2FA4E7" points="252.0528,983.3191,241.6361,987.4858,252.0528,991.6524,247.8861,987.4858" style="stroke:#2FA4E7;stroke-width:1.0417;"/><text fill="#343A40" font-family="Verdana" font-size="12.5" font-weight="bold" lengthAdjust="spacing" textLength="194.2261" x="253.0945" y="964.0279">renderer.forceFullRedraw()</text><text fill="#343A40" font-family="Verdana" font-size="12.5" lengthAdjust="spacing" textLength="79.3945" x="451.7151" y="964.0279">&#11013;&#65039; &#31435;&#21363;&#37325;&#32472;</text></g><path d="M547.8068,955.1066 L547.8068,982.1899 A4.1667,4.1667 0 0 0 551.9735,986.3566 L772.8068,986.3566 A4.1667,4.1667 0 0 0 776.9735,982.1899 L776.9735,961.3566 L766.5568,950.9399 L551.9735,950.9399 A4.1667,4.1667 0 0 0 547.8068,955.1066" fill="url(#g3dkyda5k02p93)" style="stroke:#033C73;stroke-width:1.0417;"/><path d="M766.5568,950.9399 L766.5568,959.2733 A2.0833,2.0833 0 0 0 768.6401,961.3566 L776.9735,961.3566 L766.5568,950.9399" fill="url(#g3dkyda5k02p93)" style="stroke:#033C73;stroke-width:1.0417;"/><text fill="#FFFFFF" font-family="Verdana" font-size="12.5" lengthAdjust="spacing" textLength="197.522" x="559.2651" y="973.9237">&#23601;&#20687;tmux&#30340;tty_redraw_region()</text><rect fill="url(#g3dkyda5k02p92)" height="3.125" rx="4.1667" ry="4.1667" style="stroke:url(#g3dkyda5k02p92);stroke-width:1.0417;" width="2089.9628" x="10.4167" y="1029.4566"/><line style="stroke:#868E96;stroke-width:1.0417;" x1="10.4167" x2="2100.3794" y1="1029.4566" y2="1029.4566"/><line style="stroke:#868E96;stroke-width:1.0417;" x1="10.4167" x2="2100.3794" y1="1032.5816" y2="1032.5816"/><rect fill="url(#g3dkyda5k02p92)" height="33.9417" rx="4.1667" ry="4.1667" style="stroke:#868E96;stroke-width:2.0833;" width="289.0869" x="910.8546" y="1013.5274"/><text fill="#343A40" font-family="Verdana" font-size="12.5" font-weight="bold" lengthAdjust="spacing" textLength="259.8145" x="922.3129" y="1035.4696">&#32467;&#26524;: Surface A &#29616;&#22312;&#26597;&#30475; SessionCore B</text><g class="message" data-participant-1="SA" data-participant-2="SCB"><polygon fill="#2FA4E7" points="1248.3958,1085.5774,1258.8125,1089.7441,1248.3958,1093.9107,1252.5625,1089.7441" style="stroke:#2FA4E7;stroke-width:1.0417;"/><line style="stroke:#2FA4E7;stroke-width:3.125;" x1="240.5945" x2="1254.6458" y1="1089.7441" y2="1089.7441"/><text fill="#343A40" font-family="Verdana" font-size="12.5" lengthAdjust="spacing" textLength="175.7629" x="253.0945" y="1079.8279">surface.session_core = SCB</text></g><g class="message" data-participant-1="SA" data-participant-2="TB"><polygon fill="#2FA4E7" points="1632.6976,1125.769,1643.1142,1129.9357,1632.6976,1134.1024,1636.8642,1129.9357" style="stroke:#2FA4E7;stroke-width:1.0417;"/><line style="stroke:#2FA4E7;stroke-width:3.125;" x1="240.5945" x2="1638.9476" y1="1129.9357" y2="1129.9357"/><text fill="#343A40" font-family="Verdana" font-size="12.5" lengthAdjust="spacing" textLength="171.9238" x="253.0945" y="1120.0195">renderer&#26174;&#31034;Terminal B&#20869;&#23481;</text></g><path d="M158.3333,1147.644 L158.3333,1190.3524 A4.1667,4.1667 0 0 0 162.5,1194.519 L316.6667,1194.519 A4.1667,4.1667 0 0 0 320.8333,1190.3524 L320.8333,1153.894 L310.4167,1143.4774 L162.5,1143.4774 A4.1667,4.1667 0 0 0 158.3333,1147.644" fill="url(#g3dkyda5k02p93)" style="stroke:#033C73;stroke-width:1.0417;"/><path d="M310.4167,1143.4774 L310.4167,1151.8107 A2.0833,2.0833 0 0 0 312.5,1153.894 L320.8333,1153.894 L310.4167,1143.4774" fill="url(#g3dkyda5k02p93)" style="stroke:#033C73;stroke-width:1.0417;"/><text fill="#FFFFFF" font-family="Verdana" font-size="12.5" lengthAdjust="spacing" textLength="130.3833" x="169.7917" y="1166.4612">&#31435;&#21363;&#30475;&#21040;Terminal B&#30340;</text><text fill="#FFFFFF" font-family="Verdana" font-size="12.5" lengthAdjust="spacing" textLength="112.5" x="169.7917" y="1181.6528">&#23436;&#25972;&#21382;&#21490;&#21644;&#24403;&#21069;&#29366;&#24577;</text><g class="message" data-participant-1="User" data-participant-2="SA"><polygon fill="#2FA4E7" points="228.0945,1227.594,238.5111,1231.7607,228.0945,1235.9273,232.2611,1231.7607" style="stroke:#2FA4E7;stroke-width:1.0417;"/><line style="stroke:#2FA4E7;stroke-width:3.125;" x1="38.1795" x2="234.3445" y1="1231.7607" y2="1231.7607"/><text fill="#343A40" font-family="Verdana" font-size="12.5" lengthAdjust="spacing" textLength="50" x="50.6795" y="1221.8445">&#38190;&#30424;&#36755;&#20837;</text></g><g class="message" data-participant-1="SA" data-participant-2="SCB"><polygon fill="#2FA4E7" points="1248.3958,1267.7856,1258.8125,1271.9523,1248.3958,1276.119,1252.5625,1271.9523" style="stroke:#2FA4E7;stroke-width:1.0417;"/><line style="stroke:#2FA4E7;stroke-width:3.125;" x1="240.5945" x2="1254.6458" y1="1271.9523" y2="1271.9523"/><text fill="#343A40" font-family="Verdana" font-size="12.5" lengthAdjust="spacing" textLength="50" x="253.0945" y="1262.0361">&#36716;&#21457;&#36755;&#20837;</text></g><g class="message" data-participant-1="SCB" data-participant-2="TB"><polygon fill="#2FA4E7" points="1632.6976,1307.9773,1643.1142,1312.144,1632.6976,1316.3106,1636.8642,1312.144" style="stroke:#2FA4E7;stroke-width:1.0417;"/><line style="stroke:#2FA4E7;stroke-width:3.125;" x1="1260.8958" x2="1638.9476" y1="1312.144" y2="1312.144"/><text fill="#343A40" font-family="Verdana" font-size="12.5" lengthAdjust="spacing" textLength="92.8833" x="1273.3958" y="1302.2278">&#20889;&#20837;Terminal B</text></g><g class="message" data-participant-1="TB" data-participant-2="PB"><polygon fill="#2FA4E7" points="1997.407,1348.1689,2007.8237,1352.3356,1997.407,1356.5023,2001.5737,1352.3356" style="stroke:#2FA4E7;stroke-width:1.0417;"/><line style="stroke:#2FA4E7;stroke-width:3.125;" x1="1645.1976" x2="2003.657" y1="1352.3356" y2="1352.3356"/><text fill="#343A40" font-family="Verdana" font-size="12.5" lengthAdjust="spacing" textLength="73.3948" x="1657.6976" y="1342.4194">&#36755;&#20986;&#21040;PTY B</text></g><g class="message" data-participant-1="PB" data-participant-2="TB"><polygon fill="#2FA4E7" points="1656.6559,1388.3606,1646.2392,1392.5273,1656.6559,1396.6939,1652.4892,1392.5273" style="stroke:#2FA4E7;stroke-width:1.0417;"/><line style="stroke:#2FA4E7;stroke-width:3.125;" x1="1650.4059" x2="2008.8654" y1="1392.5273" y2="1392.5273"/><text fill="#343A40" font-family="Verdana" font-size="12.5" lengthAdjust="spacing" textLength="78.7292" x="1668.1142" y="1382.6111">&#35835;&#21462;shell&#36755;&#20986;</text></g><g class="message" data-participant-1="TB" data-participant-2="SA"><polygon fill="#2FA4E7" points="252.0528,1428.5522,241.6361,1432.7189,252.0528,1436.8856,247.8861,1432.7189" style="stroke:#2FA4E7;stroke-width:1.0417;"/><line style="stroke:#2FA4E7;stroke-width:3.125;" x1="245.8028" x2="1644.1559" y1="1432.7189" y2="1432.7189"/><text fill="#343A40" font-family="Verdana" font-size="12.5" lengthAdjust="spacing" textLength="75" x="263.5111" y="1422.8027">&#36890;&#30693;&#20869;&#23481;&#26356;&#26032;</text></g><g class="message" data-participant-1="SA" data-participant-2="User"><polygon fill="#2FA4E7" points="49.6379,1468.7439,39.2212,1472.9106,49.6379,1477.0772,45.4712,1472.9106" style="stroke:#2FA4E7;stroke-width:1.0417;"/><line style="stroke:#2FA4E7;stroke-width:3.125;" x1="43.3879" x2="239.5528" y1="1472.9106" y2="1472.9106"/><text fill="#343A40" font-family="Verdana" font-size="12.5" lengthAdjust="spacing" textLength="62.5" x="61.0962" y="1462.9944">&#26174;&#31034;&#26032;&#20869;&#23481;</text></g><path d="M955.2083,1490.6189 L955.2083,1578.1189 A4.1667,4.1667 0 0 0 959.375,1582.2856 L1352.0833,1582.2856 A4.1667,4.1667 0 0 0 1356.25,1578.1189 L1356.25,1496.8689 L1345.8333,1486.4522 L959.375,1486.4522 A4.1667,4.1667 0 0 0 955.2083,1490.6189" fill="url(#g3dkyda5k02p93)" style="stroke:#033C73;stroke-width:1.0417;"/><path d="M1345.8333,1486.4522 L1345.8333,1494.7856 A2.0833,2.0833 0 0 0 1347.9167,1496.8689 L1356.25,1496.8689 L1345.8333,1486.4522" fill="url(#g3dkyda5k02p93)" style="stroke:#033C73;stroke-width:1.0417;"/><text fill="#FFFFFF" font-family="Verdana" font-size="12.5" font-weight="bold" lengthAdjust="spacing" textLength="62.5" x="1051.7293" y="1509.436">&#20851;&#38190;&#27934;&#23519;&#65306;</text><text fill="#FFFFFF" font-family="Verdana" font-size="12.5" lengthAdjust="spacing" textLength="164.5386" x="1051.7293" y="1524.6277">&#20004;&#20010;SessionCore&#37117;&#25345;&#32493;&#36816;&#34892;</text><text fill="#FFFFFF" font-family="Verdana" font-size="12.5" lengthAdjust="spacing" textLength="188.9282" x="1051.7293" y="1539.8193">Terminal A&#21644;B&#30340;&#20869;&#23481;&#37117;&#23436;&#25972;&#20445;&#23384;</text><text fill="#FFFFFF" font-family="Verdana" font-size="12.5" lengthAdjust="spacing" textLength="199.4385" x="1051.7293" y="1555.011">attach&#21482;&#26159;&#35753;Surface&#20999;&#25442;&#26597;&#30475;&#30446;&#26631;</text><text fill="#FFFFFF" font-family="Verdana" font-size="12.5" lengthAdjust="spacing" textLength="119.8914" x="1051.7293" y="1570.2026">&#23601;&#20687;tmux&#19968;&#26679;&#31616;&#21333;&#65281;</text><rect fill="url(#g3dkyda5k02p92)" height="3.125" rx="4.1667" ry="4.1667" style="stroke:url(#g3dkyda5k02p92);stroke-width:1.0417;" width="2089.9628" x="10.4167" y="1614.798"/><line style="stroke:#868E96;stroke-width:1.0417;" x1="10.4167" x2="2100.3794" y1="1614.798" y2="1614.798"/><line style="stroke:#868E96;stroke-width:1.0417;" x1="10.4167" x2="2100.3794" y1="1617.923" y2="1617.923"/><rect fill="url(#g3dkyda5k02p92)" height="33.9417" rx="4.1667" ry="4.1667" style="stroke:#868E96;stroke-width:2.0833;" width="179.2725" x="965.7618" y="1598.8688"/><text fill="#343A40" font-family="Verdana" font-size="12.5" font-weight="bold" lengthAdjust="spacing" textLength="150" x="977.2202" y="1620.811">&#23545;&#27604;&#65306;&#24403;&#21069;&#38169;&#35823;&#26550;&#26500;&#30340;&#38382;&#39064;</text><path d="M25,1652.6021 L25,1861.9771 A4.1667,4.1667 0 0 0 29.1667,1866.1438 L230.2083,1866.1438 A4.1667,4.1667 0 0 0 234.375,1861.9771 L234.375,1658.8521 L223.9583,1648.4355 L29.1667,1648.4355 A4.1667,4.1667 0 0 0 25,1652.6021" fill="url(#g3dkyda5k02p93)" style="stroke:#033C73;stroke-width:1.0417;"/><path d="M223.9583,1648.4355 L223.9583,1656.7688 A2.0833,2.0833 0 0 0 226.0417,1658.8521 L234.375,1658.8521 L223.9583,1648.4355" fill="url(#g3dkyda5k02p93)" style="stroke:#033C73;stroke-width:1.0417;"/><text fill="#FFFFFF" font-family="Verdana" font-size="12.5" font-weight="bold" lengthAdjust="spacing" textLength="100" x="36.4583" y="1671.4193">&#24403;&#21069;&#26550;&#26500;&#30340;&#38382;&#39064;&#65306;</text><text fill="#FFFFFF" font-family="Verdana" font-size="12.5" lengthAdjust="spacing" textLength="4.3945" x="36.4583" y="1686.6109">&#160;</text><text fill="#FFFFFF" font-family="Verdana" font-size="12.5" lengthAdjust="spacing" textLength="148.6308" x="36.4583" y="1701.8026">&#10060; Surface&#25317;&#26377;Terminal</text><text fill="#FFFFFF" font-family="Verdana" font-size="12.5" lengthAdjust="spacing" textLength="148.0998" x="36.4583" y="1716.9942">&#10060; SessionCore&#21482;&#26377;&#24341;&#29992;</text><text fill="#FFFFFF" font-family="Verdana" font-size="12.5" lengthAdjust="spacing" textLength="176.7436" x="36.4583" y="1732.1859">&#10060; attach&#38656;&#35201;"&#20999;&#25442;Terminal"</text><text fill="#FFFFFF" font-family="Verdana" font-size="12.5" lengthAdjust="spacing" textLength="108.5612" x="36.4583" y="1747.3775">&#10060; &#22797;&#26434;&#30340;&#29366;&#24577;&#21516;&#27493;</text><text fill="#FFFFFF" font-family="Verdana" font-size="12.5" lengthAdjust="spacing" textLength="4.3945" x="36.4583" y="1762.5692">&#160;</text><text fill="#FFFFFF" font-family="Verdana" font-size="12.5" font-weight="bold" lengthAdjust="spacing" textLength="87.5" x="36.4583" y="1777.7608">&#26032;&#26550;&#26500;&#30340;&#20248;&#21183;&#65306;</text><text fill="#FFFFFF" font-family="Verdana" font-size="12.5" lengthAdjust="spacing" textLength="4.3945" x="36.4583" y="1792.9525">&#160;</text><text fill="#FFFFFF" font-family="Verdana" font-size="12.5" lengthAdjust="spacing" textLength="178.0192" x="36.4583" y="1808.1441">&#9989; SessionCore&#25317;&#26377;Terminal</text><text fill="#FFFFFF" font-family="Verdana" font-size="12.5" lengthAdjust="spacing" textLength="131.2113" x="36.4583" y="1823.3358">&#9989; Surface&#21482;&#26159;&#26597;&#30475;&#22120;</text><text fill="#FFFFFF" font-family="Verdana" font-size="12.5" lengthAdjust="spacing" textLength="135.3495" x="36.4583" y="1838.5274">&#9989; attach&#21482;&#38656;&#20999;&#25442;&#25351;&#38024;</text><text fill="#FFFFFF" font-family="Verdana" font-size="12.5" lengthAdjust="spacing" textLength="90.9526" x="36.4583" y="1853.7191">&#9989; &#31616;&#21333;&#22914;tmux</text><!--SRC=[XLRRRXfN57sVhpZboQ3Q7u14LSPItooXGXygHR8cv1YGy0oQ6Phq3P9W8DoSs4wnZIz9ZUscCL37JN6CpRz4d3Fmv5_ekGqpuriG4kASjVTUU-tBp7Tc4Yv348TwDWqLLJ9JPXe2_BQ7Tp_ZtPVMral5D9Lu4c_qSAs3_ys3MO1E3aVd- -PozXcvjZevV9R7kID9KkAcfeDV3AXB6KKtK_5KHb5Du8jczIKb3a7uaJg3zzfMgu8sZ_q-e1WW6lP2mvaCEoU_Dtn0mqXfweAYAWceSzk5Eo7pcYv2LVEZyy9ei3NkxeXey-7xJUHxJ6IlIGpgoobLIRCGn26kj76hpC6ny3rOcM5b3_Q6tqZirxjSHiAtONTuYyYI50e1LDf1HnNhrMUSomV1L7V0LGSUXK0e94dHC9ZzWUeI10P7pnaSj1Ydg13JZADY1AH3zGdKeOwRLzR15qSBj590dNCfne0H0dIkniDTN6-pz2HLCo7GVeCwmqIJCCq0szPnXKXlNPoCXwlZTrMMYwSs0BMEqMeTDNfk74zXNcRivA3NXClZb42ACLn4Tf6J7N8o06vwiarFlatlaOfgdqQNGtpwZaGGAdE96NCw0G2NZmWq27vC93N3D7y7V8w0a7VsCIFFeBG2uGUGGdyo4q6mhAJIZxLdSvciaPpXm4K1z4i4mPmj18KFmIsc2MLcek7lWM_gsEUNf8IkPJE03lFapphU7_2HHhKDL2hYsdi9a4zqWNS94GMNhr2fvn7Q3I5f10BtTf8S282l7mlN_GP0XK-JzOuh1jDUJoMIPX2WtZ_eHKCic7Ww1LNJTaRygF2fdJApvF73TXC40dQJBXgcOi8vqwusep3zwt31ssTquVLFyTwQjTt1-yM76P4QuMeHhRucLe88EJNYEeIt6755R4PpIveUXpzbq-cVuHDTUJhZTrXOVrT8MqsADUkY-StuYpgp9py9MbQ_H0AmthCkrl1koptxLhr7XkUE3I1xDe3ym0QG9KVUUpQ0B3Q0Cq8qSvuJNVYbdWCbAP0HwbJnnXcghw36ANfJHPThg5pZcyix5gHDhEtc-6eD5TfkjkFBZwZnsZvtbW1QsIGdTyuz1HU_42viuAN8r6RSlK2DjmOTU8uHHYn-RilQQ_FqUAS85fGa6GYc0paL0hWLc2VJHjK3f0Lum-EpNTJTknvi1GBaTDG_6FK_k6eoUN7fsOF0jKU9I5Gv7eO0kO2ZuGuweVt21nurFk1cTzpvIzIV3nWl_hIrdMOQzNDu_py-xzU3FEqYrdRyOT8znzrrmfNNPhA-EUvsfwy5apywa_TDra8iupHSCe6sH9_eB5rcSmDjvqs-NtUgTezw5xLzvuX2SsgLqM33MZyMjppPIIitFipxU8wslKz0q44Dxpodsupr55gjufCsZnq8kDzlHeCcUZLqKsiLtE5lqwFtGbucz_ITHbnEIq48YW9KYvCt9N4jrklXSre1H_B_0G00]--></g></svg>