<svg xmlns="http://www.w3.org/2000/svg" xmlns:xlink="http://www.w3.org/1999/xlink" contentStyleType="text/css" data-diagram-type="SEQUENCE" height="2356.25px" preserveAspectRatio="none" style="width:2005px;height:2356px;" version="1.1" viewBox="0 0 2005 2356" width="2005.2083px" zoomAndPan="magnify"><title>Phase 4: &#30495;&#27491;&#30340;Terminal&#20999;&#25442;&#26426;&#21046;&#35774;&#35745;</title><defs><linearGradient id="gjs7zvuo49srh0" x1="50%" x2="50%" y1="0%" y2="100%"><stop offset="0%" stop-color="#EDF0F2"/><stop offset="100%" stop-color="#E9ECEF"/></linearGradient><linearGradient id="gjs7zvuo49srh1" x1="50%" x2="50%" y1="0%" y2="100%"><stop offset="0%" stop-color="#59B6EC"/><stop offset="100%" stop-color="#2FA4E7"/></linearGradient><linearGradient id="gjs7zvuo49srh2" x1="50%" x2="50%" y1="0%" y2="100%"><stop offset="0%" stop-color="#FFFFFF"/><stop offset="100%" stop-color="#F8F9FA"/></linearGradient><linearGradient id="gjs7zvuo49srh3" x1="50%" x2="50%" y1="0%" y2="100%"><stop offset="0%" stop-color="#35638F"/><stop offset="100%" stop-color="#033C73"/></linearGradient></defs><g><rect fill="url(#gjs7zvuo49srh0)" height="48.2361" rx="4.1667" ry="4.1667" style="stroke:#BABDBF;stroke-width:1.0417;" width="421.5068" x="790.7013" y="20.8333"/><text fill="#2FA4E7" font-family="Verdana" font-size="20.8333" font-weight="bold" lengthAdjust="spacing" textLength="398.5901" x="802.1596" y="53.2369">Phase 4: &#30495;&#27491;&#30340;Terminal&#20999;&#25442;&#26426;&#21046;&#35774;&#35745;</text><g><title>SessionCore A</title><rect fill="#EDF0F2" height="73.1791" style="stroke:#BABDBF;stroke-width:1.0417;" width="10.4167" x="744.6086" y="571.1609"/></g><g><title>SessionCore B</title><rect fill="#EDF0F2" height="227.6082" style="stroke:#BABDBF;stroke-width:1.0417;" width="10.4167" x="1048.1262" y="760.8358"/></g><g><title>Termio</title><rect fill="#EDF0F2" height="211.5916" style="stroke:#BABDBF;stroke-width:1.0417;" width="10.4167" x="1287.7706" y="1080.894"/></g><g><title>Renderer</title><rect fill="#EDF0F2" height="265.3249" style="stroke:#BABDBF;stroke-width:1.0417;" width="10.4167" x="1612.9435" y="1396.1772"/></g><rect fill="none" height="175.0916" rx="4.1667" ry="4.1667" style="stroke:#59B6EC;stroke-width:1.0417;" width="1184.7412" x="20.8333" y="511.6109"/><rect fill="none" height="295.4915" rx="4.1667" ry="4.1667" style="stroke:#59B6EC;stroke-width:1.0417;" width="1423.1873" x="20.8333" y="701.2858"/><rect fill="none" height="172.8333" rx="4.1667" ry="4.1667" style="stroke:#59B6EC;stroke-width:1.0417;" width="489.8539" x="943.75" y="776.4608"/><rect fill="none" height="300.6999" rx="4.1667" ry="4.1667" style="stroke:#59B6EC;stroke-width:1.0417;" width="1597.3185" x="20.8333" y="1011.3607"/><rect fill="none" height="354.4332" rx="4.1667" ry="4.1667" style="stroke:#59B6EC;stroke-width:1.0417;" width="1962.2843" x="20.8333" y="1326.6439"/><rect fill="none" height="161.8083" rx="4.1667" ry="4.1667" style="stroke:#59B6EC;stroke-width:1.0417;" width="1142.0858" x="20.8333" y="1695.6604"/><g><title>Surface</title><rect fill="#000000" fill-opacity="0.00000" height="2184.5907" width="8.3333" x="105.0751" y="121.7611"/><line style="stroke:#BABDBF;stroke-width:1.0417;stroke-dasharray:5.2083,5.2083;" x1="108.3333" x2="108.3333" y1="121.7611" y2="2306.3517"/></g><g><title>App</title><rect fill="#000000" fill-opacity="0.00000" height="2184.5907" width="8.3333" x="307.49" y="121.7611"/><line style="stroke:#BABDBF;stroke-width:1.0417;stroke-dasharray:5.2083,5.2083;" x1="311.0545" x2="311.0545" y1="121.7611" y2="2306.3517"/></g><g><title>SessionManager</title><rect fill="#000000" fill-opacity="0.00000" height="2184.5907" width="8.3333" x="530.9255" y="121.7611"/><line style="stroke:#BABDBF;stroke-width:1.0417;stroke-dasharray:5.2083,5.2083;" x1="534.1064" x2="534.1064" y1="121.7611" y2="2306.3517"/></g><g><title>SessionCore A</title><rect fill="#000000" fill-opacity="0.00000" height="2184.5907" width="8.3333" x="745.6502" y="121.7611"/><line style="stroke:#BABDBF;stroke-width:1.0417;stroke-dasharray:5.2083,5.2083;" x1="749.6195" x2="749.6195" y1="121.7611" y2="2306.3517"/></g><g><title>SessionCore B</title><rect fill="#000000" fill-opacity="0.00000" height="2184.5907" width="8.3333" x="1049.1679" y="121.7611"/><line style="stroke:#BABDBF;stroke-width:1.0417;stroke-dasharray:5.2083,5.2083;" x1="1053.125" x2="1053.125" y1="121.7611" y2="2306.3517"/></g><g><title>Termio</title><rect fill="#000000" fill-opacity="0.00000" height="2184.5907" width="8.3333" x="1288.8123" y="121.7611"/><line style="stroke:#BABDBF;stroke-width:1.0417;stroke-dasharray:5.2083,5.2083;" x1="1291.983" x2="1291.983" y1="121.7611" y2="2306.3517"/></g><g><title>Renderer</title><rect fill="#000000" fill-opacity="0.00000" height="2184.5907" width="8.3333" x="1613.9852" y="121.7611"/><line style="stroke:#BABDBF;stroke-width:1.0417;stroke-dasharray:5.2083,5.2083;" x1="1617.5781" x2="1617.5781" y1="121.7611" y2="2306.3517"/></g><g class="participant participant-head" data-participant="S"><rect fill="url(#gjs7zvuo49srh1)" height="40.1917" rx="4.1667" ry="4.1667" style="stroke:#2FA4E7;stroke-width:1.0417;" width="72.6501" x="72.9167" y="80.5278"/><text fill="#FFFFFF" font-family="Verdana" font-size="12.5" lengthAdjust="spacing" textLength="47.6501" x="85.4167" y="105.5949">Surface</text></g><g class="participant participant-tail" data-participant="S"><rect fill="url(#gjs7zvuo49srh1)" height="40.1917" rx="4.1667" ry="4.1667" style="stroke:#2FA4E7;stroke-width:1.0417;" width="72.6501" x="72.9167" y="2305.3101"/><text fill="#FFFFFF" font-family="Verdana" font-size="12.5" lengthAdjust="spacing" textLength="47.6501" x="85.4167" y="2330.3772">Surface</text></g><g class="participant participant-head" data-participant="A"><rect fill="url(#gjs7zvuo49srh1)" height="40.1917" rx="4.1667" ry="4.1667" style="stroke:#2FA4E7;stroke-width:1.0417;" width="49.1211" x="287.0962" y="80.5278"/><text fill="#FFFFFF" font-family="Verdana" font-size="12.5" lengthAdjust="spacing" textLength="24.1211" x="299.5962" y="105.5949">App</text></g><g class="participant participant-tail" data-participant="A"><rect fill="url(#gjs7zvuo49srh1)" height="40.1917" rx="4.1667" ry="4.1667" style="stroke:#2FA4E7;stroke-width:1.0417;" width="49.1211" x="287.0962" y="2305.3101"/><text fill="#FFFFFF" font-family="Verdana" font-size="12.5" lengthAdjust="spacing" textLength="24.1211" x="299.5962" y="2330.3772">App</text></g><g class="participant participant-head" data-participant="SM"><rect fill="url(#gjs7zvuo49srh1)" height="40.1917" rx="4.1667" ry="4.1667" style="stroke:#2FA4E7;stroke-width:1.0417;" width="126.9714" x="471.6064" y="80.5278"/><text fill="#FFFFFF" font-family="Verdana" font-size="12.5" lengthAdjust="spacing" textLength="101.9714" x="484.1064" y="105.5949">SessionManager</text></g><g class="participant participant-tail" data-participant="SM"><rect fill="url(#gjs7zvuo49srh1)" height="40.1917" rx="4.1667" ry="4.1667" style="stroke:#2FA4E7;stroke-width:1.0417;" width="126.9714" x="471.6064" y="2305.3101"/><text fill="#FFFFFF" font-family="Verdana" font-size="12.5" lengthAdjust="spacing" textLength="101.9714" x="484.1064" y="2330.3772">SessionManager</text></g><g class="participant participant-head" data-participant="SCA"><rect fill="url(#gjs7zvuo49srh1)" height="40.1917" rx="4.1667" ry="4.1667" style="stroke:#2FA4E7;stroke-width:1.0417;" width="114.978" x="692.3279" y="80.5278"/><text fill="#FFFFFF" font-family="Verdana" font-size="12.5" lengthAdjust="spacing" textLength="89.978" x="704.8279" y="105.5949">SessionCore A</text></g><g class="participant participant-tail" data-participant="SCA"><rect fill="url(#gjs7zvuo49srh1)" height="40.1917" rx="4.1667" ry="4.1667" style="stroke:#2FA4E7;stroke-width:1.0417;" width="114.978" x="692.3279" y="2305.3101"/><text fill="#FFFFFF" font-family="Verdana" font-size="12.5" lengthAdjust="spacing" textLength="89.978" x="704.8279" y="2330.3772">SessionCore A</text></g><g class="participant participant-head" data-participant="SCB"><rect fill="url(#gjs7zvuo49srh1)" height="40.1917" rx="4.1667" ry="4.1667" style="stroke:#2FA4E7;stroke-width:1.0417;" width="115.0024" x="995.8333" y="80.5278"/><text fill="#FFFFFF" font-family="Verdana" font-size="12.5" lengthAdjust="spacing" textLength="90.0024" x="1008.3333" y="105.5949">SessionCore B</text></g><g class="participant participant-tail" data-participant="SCB"><rect fill="url(#gjs7zvuo49srh1)" height="40.1917" rx="4.1667" ry="4.1667" style="stroke:#2FA4E7;stroke-width:1.0417;" width="115.0024" x="995.8333" y="2305.3101"/><text fill="#FFFFFF" font-family="Verdana" font-size="12.5" lengthAdjust="spacing" textLength="90.0024" x="1008.3333" y="2330.3772">SessionCore B</text></g><g class="participant participant-head" data-participant="T"><rect fill="url(#gjs7zvuo49srh1)" height="40.1917" rx="4.1667" ry="4.1667" style="stroke:#2FA4E7;stroke-width:1.0417;" width="68.6584" x="1258.6497" y="80.5278"/><text fill="#FFFFFF" font-family="Verdana" font-size="12.5" lengthAdjust="spacing" textLength="43.6584" x="1271.1497" y="105.5949">Termio</text></g><g class="participant participant-tail" data-participant="T"><rect fill="url(#gjs7zvuo49srh1)" height="40.1917" rx="4.1667" ry="4.1667" style="stroke:#2FA4E7;stroke-width:1.0417;" width="68.6584" x="1258.6497" y="2305.3101"/><text fill="#FFFFFF" font-family="Verdana" font-size="12.5" lengthAdjust="spacing" textLength="43.6584" x="1271.1497" y="2330.3772">Termio</text></g><g class="participant participant-head" data-participant="R"><rect fill="url(#gjs7zvuo49srh1)" height="40.1917" rx="4.1667" ry="4.1667" style="stroke:#2FA4E7;stroke-width:1.0417;" width="82.3975" x="1576.9531" y="80.5278"/><text fill="#FFFFFF" font-family="Verdana" font-size="12.5" lengthAdjust="spacing" textLength="57.3975" x="1589.4531" y="105.5949">Renderer</text></g><g class="participant participant-tail" data-participant="R"><rect fill="url(#gjs7zvuo49srh1)" height="40.1917" rx="4.1667" ry="4.1667" style="stroke:#2FA4E7;stroke-width:1.0417;" width="82.3975" x="1576.9531" y="2305.3101"/><text fill="#FFFFFF" font-family="Verdana" font-size="12.5" lengthAdjust="spacing" textLength="57.3975" x="1589.4531" y="2330.3772">Renderer</text></g><g><title>SessionCore A</title><rect fill="#EDF0F2" height="73.1791" style="stroke:#BABDBF;stroke-width:1.0417;" width="10.4167" x="744.6086" y="571.1609"/></g><g><title>SessionCore B</title><rect fill="#EDF0F2" height="227.6082" style="stroke:#BABDBF;stroke-width:1.0417;" width="10.4167" x="1048.1262" y="760.8358"/></g><g><title>Termio</title><rect fill="#EDF0F2" height="211.5916" style="stroke:#BABDBF;stroke-width:1.0417;" width="10.4167" x="1287.7706" y="1080.894"/></g><g><title>Renderer</title><rect fill="#EDF0F2" height="265.3249" style="stroke:#BABDBF;stroke-width:1.0417;" width="10.4167" x="1612.9435" y="1396.1772"/></g><rect fill="url(#gjs7zvuo49srh2)" height="3.125" rx="4.1667" ry="4.1667" style="stroke:url(#gjs7zvuo49srh2);stroke-width:1.0417;" width="1983.1177" x="10.4167" y="158.5236"/><line style="stroke:#868E96;stroke-width:1.0417;" x1="10.4167" x2="1993.5343" y1="158.5236" y2="158.5236"/><line style="stroke:#868E96;stroke-width:1.0417;" x1="10.4167" x2="1993.5343" y1="161.6486" y2="161.6486"/><rect fill="url(#gjs7zvuo49srh2)" height="33.9417" rx="4.1667" ry="4.1667" style="stroke:#868E96;stroke-width:2.0833;" width="220.4224" x="891.7643" y="142.5944"/><text fill="#343A40" font-family="Verdana" font-size="12.5" font-weight="bold" lengthAdjust="spacing" textLength="191.1499" x="903.2227" y="164.5365">&#24403;&#21069;&#38382;&#39064;: attach&#21629;&#20196;&#19981;&#20999;&#25442;&#20869;&#23481;</text><g class="message" data-participant-1="S" data-participant-2="A"><polygon fill="#2FA4E7" points="299.1567,214.6444,309.5734,218.811,299.1567,222.9777,303.3234,218.811" style="stroke:#2FA4E7;stroke-width:1.0417;"/><line style="stroke:#2FA4E7;stroke-width:3.125;" x1="109.2417" x2="305.4067" y1="218.811" y2="218.811"/><text fill="#343A40" font-family="Verdana" font-size="12.5" lengthAdjust="spacing" textLength="166.9983" x="121.7417" y="208.8949">@ghostty attach session-b</text></g><g class="message" data-participant-1="A" data-participant-2="SM"><polygon fill="#2FA4E7" points="522.5922,254.836,533.0088,259.0027,522.5922,263.1694,526.7588,259.0027" style="stroke:#2FA4E7;stroke-width:1.0417;"/><line style="stroke:#2FA4E7;stroke-width:3.125;" x1="311.6567" x2="528.8422" y1="259.0027" y2="259.0027"/><text fill="#343A40" font-family="Verdana" font-size="12.5" lengthAdjust="spacing" textLength="188.0188" x="324.1567" y="249.0865">getOrCreateCore("session-b")</text></g><g class="message" data-participant-1="SM" data-participant-2="SCB"><polygon fill="#2FA4E7" points="1040.8346,295.0277,1051.2512,299.1943,1040.8346,303.361,1045.0012,299.1943" style="stroke:#2FA4E7;stroke-width:1.0417;"/><line style="stroke:#2FA4E7;stroke-width:3.125;" x1="535.0922" x2="1047.0846" y1="299.1943" y2="299.1943"/><text fill="#343A40" font-family="Verdana" font-size="12.5" lengthAdjust="spacing" textLength="143.9087" x="547.5922" y="289.2782">attachSurface(surface)</text></g><g class="message" data-participant-1="SCB" data-participant-2="S"><polygon fill="#2FA4E7" points="120.7001,335.2193,110.2834,339.386,120.7001,343.5527,116.5334,339.386" style="stroke:#2FA4E7;stroke-width:1.0417;"/><line style="stroke:#2FA4E7;stroke-width:3.125;stroke-dasharray:2.0833,2.0833;" x1="114.4501" x2="1052.2929" y1="339.386" y2="339.386"/><text fill="#343A40" font-family="Verdana" font-size="12.5" lengthAdjust="spacing" textLength="125.5981" x="132.1584" y="329.4698">session_core = SCB</text></g><path d="M31.25,357.0943 L31.25,399.8027 A4.1667,4.1667 0 0 0 35.4167,403.9693 L181.25,403.9693 A4.1667,4.1667 0 0 0 185.4167,399.8027 L185.4167,363.3443 L175,352.9277 L35.4167,352.9277 A4.1667,4.1667 0 0 0 31.25,357.0943" fill="url(#gjs7zvuo49srh3)" style="stroke:#033C73;stroke-width:1.0417;"/><path d="M175,352.9277 L175,361.261 A2.0833,2.0833 0 0 0 177.0833,363.3443 L185.4167,363.3443 L175,352.9277" fill="url(#gjs7zvuo49srh3)" style="stroke:#033C73;stroke-width:1.0417;"/><text fill="#FFFFFF" font-family="Verdana" font-size="12.5" lengthAdjust="spacing" textLength="104.3945" x="42.7083" y="375.9115">&#9888;&#65039; &#20165;&#26356;&#26032;&#20102;&#25351;&#38024;</text><text fill="#FFFFFF" font-family="Verdana" font-size="12.5" lengthAdjust="spacing" textLength="122.3389" x="42.7083" y="391.1031">&#20294;Terminal&#20869;&#23481;&#26410;&#21464;!</text><g class="message" data-participant-1="S" data-participant-2="R"><polygon fill="#2FA4E7" points="1605.6519,437.0443,1616.0685,441.2109,1605.6519,445.3776,1609.8185,441.2109" style="stroke:#2FA4E7;stroke-width:1.0417;"/><line style="stroke:#2FA4E7;stroke-width:3.125;" x1="109.2417" x2="1611.9019" y1="441.2109" y2="441.2109"/><text fill="#343A40" font-family="Verdana" font-size="12.5" lengthAdjust="spacing" textLength="142.4194" x="121.7417" y="431.2948">&#32487;&#32493;&#26174;&#31034;&#21407;Terminal&#20869;&#23481;</text></g><rect fill="url(#gjs7zvuo49srh2)" height="3.125" rx="4.1667" ry="4.1667" style="stroke:url(#gjs7zvuo49srh2);stroke-width:1.0417;" width="1983.1177" x="10.4167" y="475.8901"/><line style="stroke:#868E96;stroke-width:1.0417;" x1="10.4167" x2="1993.5343" y1="475.8901" y2="475.8901"/><line style="stroke:#868E96;stroke-width:1.0417;" x1="10.4167" x2="1993.5343" y1="479.0151" y2="479.0151"/><rect fill="url(#gjs7zvuo49srh2)" height="33.9417" rx="4.1667" ry="4.1667" style="stroke:#868E96;stroke-width:2.0833;" width="223.1384" x="890.4063" y="459.9609"/><text fill="#343A40" font-family="Verdana" font-size="12.5" font-weight="bold" lengthAdjust="spacing" textLength="193.866" x="901.8646" y="481.9031">Phase 4 &#35299;&#20915;&#26041;&#26696;: &#23436;&#25972;&#20999;&#25442;&#27969;&#31243;</text><path d="M25,511.6109 L258.374,511.6109 L258.374,528.8859 L247.9574,539.3026 L20.8333,539.3026 L20.8333,515.7776 A4.1667,4.1667 0 0 1 25,511.6109" fill="#E9ECEF" style="stroke:#868E96;stroke-width:1.0417;"/><rect fill="none" height="175.0916" rx="4.1667" ry="4.1667" style="stroke:#59B6EC;stroke-width:1.0417;" width="1184.7412" x="20.8333" y="511.6109"/><text fill="#033C73" font-family="Verdana" font-size="12.5" font-weight="bold" lengthAdjust="spacing" textLength="180.249" x="41.6667" y="530.4281">&#27493;&#39588;1: &#20445;&#23384;&#24403;&#21069;Terminal&#29366;&#24577;</text><g class="message" data-participant-1="S" data-participant-2="SCA"><polygon fill="#2FA4E7" points="732.1086,566.9942,742.5252,571.1609,732.1086,575.3276,736.2752,571.1609" style="stroke:#2FA4E7;stroke-width:1.0417;"/><line style="stroke:#2FA4E7;stroke-width:3.125;" x1="109.2417" x2="738.3586" y1="571.1609" y2="571.1609"/><text fill="#343A40" font-family="Verdana" font-size="12.5" lengthAdjust="spacing" textLength="128.4851" x="121.7417" y="561.2447">saveTerminalState()</text></g><g class="message" data-participant-1="SCA" data-participant-2="SCA"><line style="stroke:#2FA4E7;stroke-width:3.125;" x1="755.0252" x2="798.7752" y1="643.2983" y2="643.2983"/><line style="stroke:#2FA4E7;stroke-width:3.125;" x1="798.7752" x2="798.7752" y1="643.2983" y2="656.84"/><line style="stroke:#2FA4E7;stroke-width:3.125;" x1="749.8169" x2="798.7752" y1="656.84" y2="656.84"/><polygon fill="#2FA4E7" points="760.2336,652.6733,749.8169,656.84,760.2336,661.0067,756.0669,656.84" style="stroke:#2FA4E7;stroke-width:1.0417;"/><text fill="#343A40" font-family="Verdana" font-size="12.5" lengthAdjust="spacing" textLength="257.6843" x="767.5252" y="633.3822">terminal_snapshot = Terminal.serialize()</text></g><path d="M1052.476,588.8692 L1052.476,676.3692 A4.1667,4.1667 0 0 0 1056.6427,680.5359 L1179.5593,680.5359 A4.1667,4.1667 0 0 0 1183.726,676.3692 L1183.726,595.1192 L1173.3093,584.7026 L1056.6427,584.7026 A4.1667,4.1667 0 0 0 1052.476,588.8692" fill="url(#gjs7zvuo49srh3)" style="stroke:#033C73;stroke-width:1.0417;"/><path d="M1173.3093,584.7026 L1173.3093,593.0359 A2.0833,2.0833 0 0 0 1175.3927,595.1192 L1183.726,595.1192 L1173.3093,584.7026" fill="url(#gjs7zvuo49srh3)" style="stroke:#033C73;stroke-width:1.0417;"/><text fill="#FFFFFF" font-family="Verdana" font-size="12.5" lengthAdjust="spacing" textLength="30.6763" x="1063.9343" y="607.6864">&#20445;&#23384;:</text><text fill="#FFFFFF" font-family="Verdana" font-size="12.5" lengthAdjust="spacing" textLength="78.2654" x="1063.9343" y="622.878">- Screen&#20869;&#23481;</text><text fill="#FFFFFF" font-family="Verdana" font-size="12.5" lengthAdjust="spacing" textLength="99.115" x="1063.9343" y="638.0697">- Scrollback&#21382;&#21490;</text><text fill="#FFFFFF" font-family="Verdana" font-size="12.5" lengthAdjust="spacing" textLength="76.4771" x="1063.9343" y="653.2613">- Cursor&#20301;&#32622;</text><text fill="#FFFFFF" font-family="Verdana" font-size="12.5" lengthAdjust="spacing" textLength="60.0708" x="1063.9343" y="668.453">- &#33394;&#24425;&#37197;&#32622;</text><path d="M25,701.2858 L257.2266,701.2858 L257.2266,718.5608 L246.8099,728.9775 L20.8333,728.9775 L20.8333,705.4525 A4.1667,4.1667 0 0 1 25,701.2858" fill="#E9ECEF" style="stroke:#868E96;stroke-width:1.0417;"/><rect fill="none" height="295.4915" rx="4.1667" ry="4.1667" style="stroke:#59B6EC;stroke-width:1.0417;" width="1423.1873" x="20.8333" y="701.2858"/><text fill="#033C73" font-family="Verdana" font-size="12.5" font-weight="bold" lengthAdjust="spacing" textLength="179.1016" x="41.6667" y="720.1029">&#27493;&#39588;2: &#20934;&#22791;&#30446;&#26631;SessionCore</text><g class="message" data-participant-1="S" data-participant-2="SCB"><polygon fill="#2FA4E7" points="1035.6262,756.6691,1046.0429,760.8358,1035.6262,765.0024,1039.7929,760.8358" style="stroke:#2FA4E7;stroke-width:1.0417;"/><line style="stroke:#2FA4E7;stroke-width:3.125;" x1="109.2417" x2="1041.8762" y1="760.8358" y2="760.8358"/><text fill="#343A40" font-family="Verdana" font-size="12.5" lengthAdjust="spacing" textLength="152.8687" x="121.7417" y="750.9196">prepareForAttachment()</text></g><path d="M947.9167,776.4608 L1019.3583,776.4608 L1019.3583,793.7358 L1008.9417,804.1524 L943.75,804.1524 L943.75,780.6274 A4.1667,4.1667 0 0 1 947.9167,776.4608" fill="#E9ECEF" style="stroke:#868E96;stroke-width:1.0417;"/><rect fill="none" height="172.8333" rx="4.1667" ry="4.1667" style="stroke:#59B6EC;stroke-width:1.0417;" width="489.8539" x="943.75" y="776.4608"/><text fill="#033C73" font-family="Verdana" font-size="12.5" font-weight="bold" lengthAdjust="spacing" textLength="18.3167" x="964.5833" y="795.2779">alt</text><text fill="#343A40" font-family="Verdana" font-size="12.5" font-weight="bold" lengthAdjust="spacing" textLength="150.7935" x="1040.1917" y="796.3196">[SessionCore B&#26377;&#24555;&#29031;]</text><g class="message" data-participant-1="SCB" data-participant-2="SCB"><line style="stroke:#2FA4E7;stroke-width:3.125;" x1="1058.5429" x2="1102.2929" y1="845.9941" y2="845.9941"/><line style="stroke:#2FA4E7;stroke-width:3.125;" x1="1102.2929" x2="1102.2929" y1="845.9941" y2="859.5357"/><line style="stroke:#2FA4E7;stroke-width:3.125;" x1="1059.5846" x2="1102.2929" y1="859.5357" y2="859.5357"/><polygon fill="#2FA4E7" points="1070.0012,855.3691,1059.5846,859.5357,1070.0012,863.7024,1065.8346,859.5357" style="stroke:#2FA4E7;stroke-width:1.0417;"/><text fill="#343A40" font-family="Verdana" font-size="12.5" lengthAdjust="spacing" textLength="193.811" x="1071.0429" y="836.0779">Terminal.deserialize(snapshot)</text></g><path d="M1292.7694,827.1566 L1292.7694,854.2399 A4.1667,4.1667 0 0 0 1296.936,858.4066 L1408.3944,858.4066 A4.1667,4.1667 0 0 0 1412.561,854.2399 L1412.561,833.4066 L1402.1444,822.9899 L1296.936,822.9899 A4.1667,4.1667 0 0 0 1292.7694,827.1566" fill="url(#gjs7zvuo49srh3)" style="stroke:#033C73;stroke-width:1.0417;"/><path d="M1402.1444,822.9899 L1402.1444,831.3232 A2.0833,2.0833 0 0 0 1404.2277,833.4066 L1412.561,833.4066 L1402.1444,822.9899" fill="url(#gjs7zvuo49srh3)" style="stroke:#033C73;stroke-width:1.0417;"/><text fill="#FFFFFF" font-family="Verdana" font-size="12.5" lengthAdjust="spacing" textLength="87.5" x="1304.2277" y="845.9737">&#24674;&#22797;&#20445;&#23384;&#30340;&#29366;&#24577;</text><line style="stroke:#59B6EC;stroke-width:1.0417;stroke-dasharray:2.0833,2.0833;" x1="943.75" x2="1433.6039" y1="868.9107" y2="868.9107"/><text fill="#343A40" font-family="Verdana" font-size="12.5" font-weight="bold" lengthAdjust="spacing" textLength="150.7935" x="954.1667" y="886.6862">[SessionCore B&#26159;&#26032;&#30340;]</text><g class="message" data-participant-1="SCB" data-participant-2="SCB"><line style="stroke:#2FA4E7;stroke-width:3.125;" x1="1058.5429" x2="1102.2929" y1="927.419" y2="927.419"/><line style="stroke:#2FA4E7;stroke-width:3.125;" x1="1102.2929" x2="1102.2929" y1="927.419" y2="940.9607"/><line style="stroke:#2FA4E7;stroke-width:3.125;" x1="1059.5846" x2="1102.2929" y1="940.9607" y2="940.9607"/><polygon fill="#2FA4E7" points="1070.0012,936.794,1059.5846,940.9607,1070.0012,945.1274,1065.8346,940.9607" style="stroke:#2FA4E7;stroke-width:1.0417;"/><text fill="#343A40" font-family="Verdana" font-size="12.5" lengthAdjust="spacing" textLength="148.6572" x="1071.0429" y="917.5028">createOwnedTerminal()</text></g><path d="M1247.6156,908.5815 L1247.6156,935.6649 A4.1667,4.1667 0 0 0 1251.7822,939.8315 L1367.4072,939.8315 A4.1667,4.1667 0 0 0 1371.5739,935.6649 L1371.5739,914.8315 L1361.1572,904.4149 L1251.7822,904.4149 A4.1667,4.1667 0 0 0 1247.6156,908.5815" fill="url(#gjs7zvuo49srh3)" style="stroke:#033C73;stroke-width:1.0417;"/><path d="M1361.1572,904.4149 L1361.1572,912.7482 A2.0833,2.0833 0 0 0 1363.2406,914.8315 L1371.5739,914.8315 L1361.1572,904.4149" fill="url(#gjs7zvuo49srh3)" style="stroke:#033C73;stroke-width:1.0417;"/><text fill="#FFFFFF" font-family="Verdana" font-size="12.5" lengthAdjust="spacing" textLength="92.4194" x="1259.0739" y="927.3987">&#21019;&#24314;&#26032;Terminal</text><g class="message" data-participant-1="SCB" data-participant-2="S"><polygon fill="#2FA4E7" points="120.7001,984.2773,110.2834,988.444,120.7001,992.6107,116.5334,988.444" style="stroke:#2FA4E7;stroke-width:1.0417;"/><line style="stroke:#2FA4E7;stroke-width:3.125;stroke-dasharray:2.0833,2.0833;" x1="114.4501" x2="1052.2929" y1="988.444" y2="988.444"/><text fill="#343A40" font-family="Verdana" font-size="12.5" lengthAdjust="spacing" textLength="78.1372" x="132.1584" y="978.5278">terminal_ptr</text></g><path d="M25,1011.3607 L237.2009,1011.3607 L237.2009,1028.6357 L226.7843,1039.0523 L20.8333,1039.0523 L20.8333,1015.5273 A4.1667,4.1667 0 0 1 25,1011.3607" fill="#E9ECEF" style="stroke:#868E96;stroke-width:1.0417;"/><rect fill="none" height="300.6999" rx="4.1667" ry="4.1667" style="stroke:#59B6EC;stroke-width:1.0417;" width="1597.3185" x="20.8333" y="1011.3607"/><text fill="#033C73" font-family="Verdana" font-size="12.5" font-weight="bold" lengthAdjust="spacing" textLength="154.8035" x="41.6667" y="1030.1778">&#27493;&#39588;3: &#37325;&#26032;&#21021;&#22987;&#21270;Termio</text><text fill="#343A40" font-family="Verdana" font-size="12.5" font-weight="bold" lengthAdjust="spacing" textLength="68.6157" x="258.0343" y="1031.2195">[&#20851;&#38190;&#32570;&#22833;!]</text><g class="message" data-participant-1="S" data-participant-2="T"><polygon fill="#2FA4E7" points="1275.2706,1076.7273,1285.6873,1080.894,1275.2706,1085.0606,1279.4373,1080.894" style="stroke:#2FA4E7;stroke-width:1.0417;"/><line style="stroke:#2FA4E7;stroke-width:3.125;" x1="109.2417" x2="1281.5206" y1="1080.894" y2="1080.894"/><text fill="#343A40" font-family="Verdana" font-size="12.5" lengthAdjust="spacing" textLength="237.5305" x="121.7417" y="1070.9778">switchToBorrowedMode(terminal_ptr)</text></g><g class="message" data-participant-1="T" data-participant-2="T"><line style="stroke:#2FA4E7;stroke-width:3.125;" x1="1298.1873" x2="1341.9373" y1="1121.0856" y2="1121.0856"/><line style="stroke:#2FA4E7;stroke-width:3.125;" x1="1341.9373" x2="1341.9373" y1="1121.0856" y2="1134.6273"/><line style="stroke:#2FA4E7;stroke-width:3.125;" x1="1299.2289" x2="1341.9373" y1="1134.6273" y2="1134.6273"/><polygon fill="#2FA4E7" points="1309.6456,1130.4606,1299.2289,1134.6273,1309.6456,1138.7939,1305.4789,1134.6273" style="stroke:#2FA4E7;stroke-width:1.0417;"/><text fill="#343A40" font-family="Verdana" font-size="12.5" lengthAdjust="spacing" textLength="72.9309" x="1310.6873" y="1111.1694">&#20445;&#23384;&#24403;&#21069;PTY</text></g><g class="message" data-participant-1="T" data-participant-2="T"><line style="stroke:#2FA4E7;stroke-width:3.125;" x1="1298.1873" x2="1341.9373" y1="1174.8189" y2="1174.8189"/><line style="stroke:#2FA4E7;stroke-width:3.125;" x1="1341.9373" x2="1341.9373" y1="1174.8189" y2="1188.3606"/><line style="stroke:#2FA4E7;stroke-width:3.125;" x1="1299.2289" x2="1341.9373" y1="1188.3606" y2="1188.3606"/><polygon fill="#2FA4E7" points="1309.6456,1184.1939,1299.2289,1188.3606,1309.6456,1192.5273,1305.4789,1188.3606" style="stroke:#2FA4E7;stroke-width:1.0417;"/><text fill="#343A40" font-family="Verdana" font-size="12.5" lengthAdjust="spacing" textLength="279.3396" x="1310.6873" y="1164.9028">terminal_storage = .borrowed(terminal_ptr)</text></g><g class="message" data-participant-1="T" data-participant-2="T"><line style="stroke:#2FA4E7;stroke-width:3.125;" x1="1298.1873" x2="1341.9373" y1="1228.5522" y2="1228.5522"/><line style="stroke:#2FA4E7;stroke-width:3.125;" x1="1341.9373" x2="1341.9373" y1="1228.5522" y2="1242.0939"/><line style="stroke:#2FA4E7;stroke-width:3.125;" x1="1299.2289" x2="1341.9373" y1="1242.0939" y2="1242.0939"/><polygon fill="#2FA4E7" points="1309.6456,1237.9272,1299.2289,1242.0939,1309.6456,1246.2606,1305.4789,1242.0939" style="stroke:#2FA4E7;stroke-width:1.0417;"/><text fill="#343A40" font-family="Verdana" font-size="12.5" lengthAdjust="spacing" textLength="169.8425" x="1310.6873" y="1218.6361">&#37325;&#26032;&#36830;&#25509;parser&#21040;&#26032;Terminal</text></g><g class="message" data-participant-1="T" data-participant-2="T"><line style="stroke:#2FA4E7;stroke-width:3.125;" x1="1298.1873" x2="1341.9373" y1="1291.4439" y2="1291.4439"/><line style="stroke:#2FA4E7;stroke-width:3.125;" x1="1341.9373" x2="1341.9373" y1="1291.4439" y2="1304.9856"/><line style="stroke:#2FA4E7;stroke-width:3.125;" x1="1292.9789" x2="1341.9373" y1="1304.9856" y2="1304.9856"/><polygon fill="#2FA4E7" points="1303.3956,1300.8189,1292.9789,1304.9856,1303.3956,1309.1522,1299.2289,1304.9856" style="stroke:#2FA4E7;stroke-width:1.0417;"/><text fill="#343A40" font-family="Verdana" font-size="12.5" lengthAdjust="spacing" textLength="120.6055" x="1310.6873" y="1281.5277">&#21047;&#26032;stream handler</text></g><path d="M1459.1471,1259.8022 L1459.1471,1302.5106 A4.1667,4.1667 0 0 0 1463.3138,1306.6772 L1587.2721,1306.6772 A4.1667,4.1667 0 0 0 1591.4388,1302.5106 L1591.4388,1266.0522 L1581.0221,1255.6356 L1463.3138,1255.6356 A4.1667,4.1667 0 0 0 1459.1471,1259.8022" fill="url(#gjs7zvuo49srh3)" style="stroke:#033C73;stroke-width:1.0417;"/><path d="M1581.0221,1255.6356 L1581.0221,1263.9689 A2.0833,2.0833 0 0 0 1583.1055,1266.0522 L1591.4388,1266.0522 L1581.0221,1255.6356" fill="url(#gjs7zvuo49srh3)" style="stroke:#033C73;stroke-width:1.0417;"/><text fill="#FFFFFF" font-family="Verdana" font-size="12.5" lengthAdjust="spacing" textLength="100.9806" x="1470.6055" y="1278.6194">&#10060; &#27492;&#26041;&#27861;&#19981;&#23384;&#22312;!</text><text fill="#FFFFFF" font-family="Verdana" font-size="12.5" lengthAdjust="spacing" textLength="50" x="1470.6055" y="1293.811">&#38656;&#35201;&#23454;&#29616;</text><path d="M25,1326.6439 L188.0859,1326.6439 L188.0859,1343.9189 L177.6693,1354.3355 L20.8333,1354.3355 L20.8333,1330.8105 A4.1667,4.1667 0 0 1 25,1326.6439" fill="#E9ECEF" style="stroke:#868E96;stroke-width:1.0417;"/><rect fill="none" height="354.4332" rx="4.1667" ry="4.1667" style="stroke:#59B6EC;stroke-width:1.0417;" width="1962.2843" x="20.8333" y="1326.6439"/><text fill="#033C73" font-family="Verdana" font-size="12.5" font-weight="bold" lengthAdjust="spacing" textLength="105.6885" x="41.6667" y="1345.461">&#27493;&#39588;4: &#21047;&#26032;&#28210;&#26579;&#22120;</text><text fill="#343A40" font-family="Verdana" font-size="12.5" font-weight="bold" lengthAdjust="spacing" textLength="68.6157" x="208.9193" y="1346.5027">[&#20851;&#38190;&#32570;&#22833;!]</text><g class="message" data-participant-1="S" data-participant-2="R"><polygon fill="#2FA4E7" points="1600.4435,1392.0105,1610.8602,1396.1772,1600.4435,1400.3438,1604.6102,1396.1772" style="stroke:#2FA4E7;stroke-width:1.0417;"/><line style="stroke:#2FA4E7;stroke-width:3.125;" x1="109.2417" x2="1606.6935" y1="1396.1772" y2="1396.1772"/><text fill="#343A40" font-family="Verdana" font-size="12.5" lengthAdjust="spacing" textLength="191.4673" x="121.7417" y="1386.261">switchTerminal(new_terminal)</text></g><g class="message" data-participant-1="R" data-participant-2="R"><line style="stroke:#2FA4E7;stroke-width:3.125;" x1="1623.3602" x2="1667.1102" y1="1436.3688" y2="1436.3688"/><line style="stroke:#2FA4E7;stroke-width:3.125;" x1="1667.1102" x2="1667.1102" y1="1436.3688" y2="1449.9105"/><line style="stroke:#2FA4E7;stroke-width:3.125;" x1="1624.4019" x2="1667.1102" y1="1449.9105" y2="1449.9105"/><polygon fill="#2FA4E7" points="1634.8185,1445.7438,1624.4019,1449.9105,1634.8185,1454.0771,1630.6519,1449.9105" style="stroke:#2FA4E7;stroke-width:1.0417;"/><text fill="#343A40" font-family="Verdana" font-size="12.5" lengthAdjust="spacing" textLength="64.8376" x="1635.8602" y="1426.4526">&#38145;&#23450;mutex</text></g><g class="message" data-participant-1="R" data-participant-2="R"><line style="stroke:#2FA4E7;stroke-width:3.125;" x1="1623.3602" x2="1667.1102" y1="1490.1021" y2="1490.1021"/><line style="stroke:#2FA4E7;stroke-width:3.125;" x1="1667.1102" x2="1667.1102" y1="1490.1021" y2="1503.6438"/><line style="stroke:#2FA4E7;stroke-width:3.125;" x1="1624.4019" x2="1667.1102" y1="1503.6438" y2="1503.6438"/><polygon fill="#2FA4E7" points="1634.8185,1499.4771,1624.4019,1503.6438,1634.8185,1507.8105,1630.6519,1503.6438" style="stroke:#2FA4E7;stroke-width:1.0417;"/><text fill="#343A40" font-family="Verdana" font-size="12.5" lengthAdjust="spacing" textLength="254.6875" x="1635.8602" y="1480.186">renderer_state.terminal = new_terminal</text></g><g class="message" data-participant-1="R" data-participant-2="R"><line style="stroke:#2FA4E7;stroke-width:3.125;" x1="1623.3602" x2="1667.1102" y1="1543.8354" y2="1543.8354"/><line style="stroke:#2FA4E7;stroke-width:3.125;" x1="1667.1102" x2="1667.1102" y1="1543.8354" y2="1557.3771"/><line style="stroke:#2FA4E7;stroke-width:3.125;" x1="1624.4019" x2="1667.1102" y1="1557.3771" y2="1557.3771"/><polygon fill="#2FA4E7" points="1634.8185,1553.2104,1624.4019,1557.3771,1634.8185,1561.5438,1630.6519,1557.3771" style="stroke:#2FA4E7;stroke-width:1.0417;"/><text fill="#343A40" font-family="Verdana" font-size="12.5" lengthAdjust="spacing" textLength="75" x="1635.8602" y="1533.9193">&#28165;&#31354;&#28210;&#26579;&#32531;&#23384;</text></g><g class="message" data-participant-1="R" data-participant-2="R"><line style="stroke:#2FA4E7;stroke-width:3.125;" x1="1623.3602" x2="1667.1102" y1="1597.5688" y2="1597.5688"/><line style="stroke:#2FA4E7;stroke-width:3.125;" x1="1667.1102" x2="1667.1102" y1="1597.5688" y2="1611.1104"/><line style="stroke:#2FA4E7;stroke-width:3.125;" x1="1624.4019" x2="1667.1102" y1="1611.1104" y2="1611.1104"/><polygon fill="#2FA4E7" points="1634.8185,1606.9438,1624.4019,1611.1104,1634.8185,1615.2771,1630.6519,1611.1104" style="stroke:#2FA4E7;stroke-width:1.0417;"/><text fill="#343A40" font-family="Verdana" font-size="12.5" lengthAdjust="spacing" textLength="75" x="1635.8602" y="1587.6526">&#26631;&#35760;&#20840;&#23631;&#37325;&#32472;</text></g><g class="message" data-participant-1="R" data-participant-2="R"><line style="stroke:#2FA4E7;stroke-width:3.125;" x1="1623.3602" x2="1667.1102" y1="1660.4604" y2="1660.4604"/><line style="stroke:#2FA4E7;stroke-width:3.125;" x1="1667.1102" x2="1667.1102" y1="1660.4604" y2="1674.0021"/><line style="stroke:#2FA4E7;stroke-width:3.125;" x1="1618.1519" x2="1667.1102" y1="1674.0021" y2="1674.0021"/><polygon fill="#2FA4E7" points="1628.5685,1669.8354,1618.1519,1674.0021,1628.5685,1678.1687,1624.4019,1674.0021" style="stroke:#2FA4E7;stroke-width:1.0417;"/><text fill="#343A40" font-family="Verdana" font-size="12.5" lengthAdjust="spacing" textLength="140.0269" x="1635.8602" y="1650.5442">&#35302;&#21457;immediate repaint</text></g><path d="M1803.5685,1628.8188 L1803.5685,1671.5271 A4.1667,4.1667 0 0 0 1807.7352,1675.6938 L1956.6935,1675.6938 A4.1667,4.1667 0 0 0 1960.8602,1671.5271 L1960.8602,1635.0688 L1950.4435,1624.6521 L1807.7352,1624.6521 A4.1667,4.1667 0 0 0 1803.5685,1628.8188" fill="url(#gjs7zvuo49srh3)" style="stroke:#033C73;stroke-width:1.0417;"/><path d="M1950.4435,1624.6521 L1950.4435,1632.9854 A2.0833,2.0833 0 0 0 1952.5269,1635.0688 L1960.8602,1635.0688 L1950.4435,1624.6521" fill="url(#gjs7zvuo49srh3)" style="stroke:#033C73;stroke-width:1.0417;"/><text fill="#FFFFFF" font-family="Verdana" font-size="12.5" lengthAdjust="spacing" textLength="125.9806" x="1815.0269" y="1647.6359">&#10060; &#28210;&#26579;&#22120;&#26410;&#24863;&#30693;&#21464;&#21270;!</text><text fill="#FFFFFF" font-family="Verdana" font-size="12.5" lengthAdjust="spacing" textLength="75" x="1815.0269" y="1662.8276">&#38656;&#35201;&#24378;&#21046;&#21047;&#26032;</text><path d="M25,1695.6604 L196.3135,1695.6604 L196.3135,1712.9354 L185.8968,1723.3521 L20.8333,1723.3521 L20.8333,1699.8271 A4.1667,4.1667 0 0 1 25,1695.6604" fill="#E9ECEF" style="stroke:#868E96;stroke-width:1.0417;"/><rect fill="none" height="161.8083" rx="4.1667" ry="4.1667" style="stroke:#59B6EC;stroke-width:1.0417;" width="1142.0858" x="20.8333" y="1695.6604"/><text fill="#033C73" font-family="Verdana" font-size="12.5" font-weight="bold" lengthAdjust="spacing" textLength="118.1885" x="41.6667" y="1714.4775">&#27493;&#39588;5: &#39564;&#35777;&#20999;&#25442;&#25104;&#21151;</text><path d="M1168.1274,1705.0354 L1168.1274,1930.0354 A4.1667,4.1667 0 0 0 1172.2941,1934.2021 L1420.2108,1934.2021 A4.1667,4.1667 0 0 0 1424.3774,1930.0354 L1424.3774,1711.2854 L1413.9608,1700.8687 L1172.2941,1700.8687 A4.1667,4.1667 0 0 0 1168.1274,1705.0354" fill="url(#gjs7zvuo49srh3)" style="stroke:#033C73;stroke-width:1.0417;"/><path d="M1413.9608,1700.8687 L1413.9608,1709.2021 A2.0833,2.0833 0 0 0 1416.0441,1711.2854 L1424.3774,1711.2854 L1413.9608,1700.8687" fill="url(#gjs7zvuo49srh3)" style="stroke:#033C73;stroke-width:1.0417;"/><text fill="#FFFFFF" font-family="Verdana" font-size="12.5" font-weight="bold" lengthAdjust="spacing" textLength="87.6221" x="1179.5858" y="1723.8525">P0 - &#24517;&#39035;&#23454;&#29616;:</text><text fill="#FFFFFF" font-family="Verdana" font-size="12.5" lengthAdjust="spacing" textLength="224.4873" x="1179.5858" y="1739.0442">1. Termio.switchToBorrowedMode()</text><text fill="#FFFFFF" font-family="Verdana" font-size="12.5" lengthAdjust="spacing" textLength="124.2859" x="1179.5858" y="1754.2358">2. Renderer&#24378;&#21046;&#21047;&#26032;</text><text fill="#FFFFFF" font-family="Verdana" font-size="12.5" lengthAdjust="spacing" textLength="146.8079" x="1179.5858" y="1769.4275">3. Terminal&#20869;&#23481;&#20999;&#25442;&#39564;&#35777;</text><text fill="#FFFFFF" font-family="Verdana" font-size="12.5" lengthAdjust="spacing" textLength="4.3945" x="1179.5858" y="1784.6191">&#160;</text><text fill="#FFFFFF" font-family="Verdana" font-size="12.5" font-weight="bold" lengthAdjust="spacing" textLength="87.6221" x="1179.5858" y="1799.8108">P1 - &#26680;&#24515;&#21151;&#33021;:</text><text fill="#FFFFFF" font-family="Verdana" font-size="12.5" lengthAdjust="spacing" textLength="134.3079" x="1179.5858" y="1815.0024">1. Terminal&#29366;&#24577;&#24207;&#21015;&#21270;</text><text fill="#FFFFFF" font-family="Verdana" font-size="12.5" lengthAdjust="spacing" textLength="143.927" x="1179.5858" y="1830.1941">2. SessionCore&#24555;&#29031;&#31649;&#29702;</text><text fill="#FFFFFF" font-family="Verdana" font-size="12.5" lengthAdjust="spacing" textLength="114.8193" x="1179.5858" y="1845.3857">3. PTY&#29983;&#21629;&#21608;&#26399;&#31649;&#29702;</text><text fill="#FFFFFF" font-family="Verdana" font-size="12.5" lengthAdjust="spacing" textLength="4.3945" x="1179.5858" y="1860.5774">&#160;</text><text fill="#FFFFFF" font-family="Verdana" font-size="12.5" font-weight="bold" lengthAdjust="spacing" textLength="87.6221" x="1179.5858" y="1875.769">P2 - &#23436;&#21892;&#20307;&#39564;:</text><text fill="#FFFFFF" font-family="Verdana" font-size="12.5" lengthAdjust="spacing" textLength="91.8884" x="1179.5858" y="1890.9607">1. &#24179;&#28369;&#20999;&#25442;&#21160;&#30011;</text><text fill="#FFFFFF" font-family="Verdana" font-size="12.5" lengthAdjust="spacing" textLength="91.8884" x="1179.5858" y="1906.1523">2. &#21382;&#21490;&#35760;&#24405;&#21512;&#24182;</text><text fill="#FFFFFF" font-family="Verdana" font-size="12.5" lengthAdjust="spacing" textLength="116.8884" x="1179.5858" y="1921.344">3. &#20250;&#35805;&#25345;&#20037;&#21270;&#21040;&#30913;&#30424;</text><g class="message" data-participant-1="S" data-participant-2="S"><line style="stroke:#2FA4E7;stroke-width:3.125;" x1="109.2417" x2="152.9917" y1="1755.2104" y2="1755.2104"/><line style="stroke:#2FA4E7;stroke-width:3.125;" x1="152.9917" x2="152.9917" y1="1755.2104" y2="1768.752"/><line style="stroke:#2FA4E7;stroke-width:3.125;" x1="110.2834" x2="152.9917" y1="1768.752" y2="1768.752"/><polygon fill="#2FA4E7" points="120.7001,1764.5854,110.2834,1768.752,120.7001,1772.9187,116.5334,1768.752" style="stroke:#2FA4E7;stroke-width:1.0417;"/><text fill="#343A40" font-family="Verdana" font-size="12.5" lengthAdjust="spacing" textLength="87.5" x="121.7417" y="1745.2942">&#39564;&#35777;&#26032;&#20869;&#23481;&#26174;&#31034;</text></g><g class="message" data-participant-1="S" data-participant-2="SCB"><polygon fill="#2FA4E7" points="1040.8346,1804.777,1051.2512,1808.9437,1040.8346,1813.1104,1045.0012,1808.9437" style="stroke:#2FA4E7;stroke-width:1.0417;"/><line style="stroke:#2FA4E7;stroke-width:3.125;" x1="109.2417" x2="1047.0846" y1="1808.9437" y2="1808.9437"/><text fill="#343A40" font-family="Verdana" font-size="12.5" lengthAdjust="spacing" textLength="96.7285" x="121.7417" y="1799.0275">&#30830;&#35748;attachment</text></g><g class="message" data-participant-1="SCB" data-participant-2="SM"><polygon fill="#2FA4E7" points="546.5505,1844.9687,536.1338,1849.1353,546.5505,1853.302,542.3838,1849.1353" style="stroke:#2FA4E7;stroke-width:1.0417;"/><line style="stroke:#2FA4E7;stroke-width:3.125;" x1="540.3005" x2="1052.2929" y1="1849.1353" y2="1849.1353"/><text fill="#343A40" font-family="Verdana" font-size="12.5" lengthAdjust="spacing" textLength="95.9106" x="558.0088" y="1839.2192">&#26356;&#26032;session&#26144;&#23556;</text></g><rect fill="url(#gjs7zvuo49srh2)" height="3.125" rx="4.1667" ry="4.1667" style="stroke:url(#gjs7zvuo49srh2);stroke-width:1.0417;" width="1983.1177" x="10.4167" y="1891.1062"/><line style="stroke:#868E96;stroke-width:1.0417;" x1="10.4167" x2="1993.5343" y1="1891.1062" y2="1891.1062"/><line style="stroke:#868E96;stroke-width:1.0417;" x1="10.4167" x2="1993.5343" y1="1894.2312" y2="1894.2312"/><rect fill="url(#gjs7zvuo49srh2)" height="33.9417" rx="4.1667" ry="4.1667" style="stroke:#868E96;stroke-width:2.0833;" width="116.7725" x="943.5893" y="1875.177"/><text fill="#343A40" font-family="Verdana" font-size="12.5" font-weight="bold" lengthAdjust="spacing" textLength="87.5" x="955.0476" y="1897.1191">&#32570;&#22833;&#30340;&#20851;&#38190;&#32452;&#20214;</text><path d="M1176.0417,1928.9103 L1176.0417,2016.4103 A4.1667,4.1667 0 0 0 1180.2083,2020.577 L1405.2083,2020.577 A4.1667,4.1667 0 0 0 1409.375,2016.4103 L1409.375,1935.1603 L1398.9583,1924.7437 L1180.2083,1924.7437 A4.1667,4.1667 0 0 0 1176.0417,1928.9103" fill="url(#gjs7zvuo49srh3)" style="stroke:#033C73;stroke-width:1.0417;"/><path d="M1398.9583,1924.7437 L1398.9583,1933.077 A2.0833,2.0833 0 0 0 1401.0417,1935.1603 L1409.375,1935.1603 L1398.9583,1924.7437" fill="url(#gjs7zvuo49srh3)" style="stroke:#033C73;stroke-width:1.0417;"/><text fill="#FFFFFF" font-family="Verdana" font-size="12.5" font-weight="bold" lengthAdjust="spacing" textLength="79.1443" x="1187.5" y="1947.7275">Termio&#38656;&#35201;:</text><text fill="#FFFFFF" font-family="Verdana" font-size="12.5" lengthAdjust="spacing" textLength="201.2817" x="1187.5" y="1962.9191">1. switchToBorrowedMode()&#26041;&#27861;</text><text fill="#FFFFFF" font-family="Verdana" font-size="12.5" lengthAdjust="spacing" textLength="141.8884" x="1187.5" y="1978.1108">2. &#36816;&#34892;&#26102;&#37325;&#26032;&#21021;&#22987;&#21270;&#33021;&#21147;</text><text fill="#FFFFFF" font-family="Verdana" font-size="12.5" lengthAdjust="spacing" textLength="102.3193" x="1187.5" y="1993.3024">3. PTY&#37325;&#36830;&#25509;&#26426;&#21046;</text><text fill="#FFFFFF" font-family="Verdana" font-size="12.5" lengthAdjust="spacing" textLength="106.5613" x="1187.5" y="2008.4941">4. Parser&#29366;&#24577;&#36801;&#31227;</text><path d="M1528.125,2036.1186 L1528.125,2123.6186 A4.1667,4.1667 0 0 0 1532.2917,2127.7852 L1703.125,2127.7852 A4.1667,4.1667 0 0 0 1707.2917,2123.6186 L1707.2917,2042.3686 L1696.875,2031.9519 L1532.2917,2031.9519 A4.1667,4.1667 0 0 0 1528.125,2036.1186" fill="url(#gjs7zvuo49srh3)" style="stroke:#033C73;stroke-width:1.0417;"/><path d="M1696.875,2031.9519 L1696.875,2040.2852 A2.0833,2.0833 0 0 0 1698.9583,2042.3686 L1707.2917,2042.3686 L1696.875,2031.9519" fill="url(#gjs7zvuo49srh3)" style="stroke:#033C73;stroke-width:1.0417;"/><text fill="#FFFFFF" font-family="Verdana" font-size="12.5" font-weight="bold" lengthAdjust="spacing" textLength="94.7815" x="1539.5833" y="2054.9357">Renderer&#38656;&#35201;:</text><text fill="#FFFFFF" font-family="Verdana" font-size="12.5" lengthAdjust="spacing" textLength="147.6807" x="1539.5833" y="2070.1274">1. switchTerminal()&#26041;&#27861;</text><text fill="#FFFFFF" font-family="Verdana" font-size="12.5" lengthAdjust="spacing" textLength="91.8884" x="1539.5833" y="2085.319">2. &#24378;&#21046;&#21047;&#26032;&#26426;&#21046;</text><text fill="#FFFFFF" font-family="Verdana" font-size="12.5" lengthAdjust="spacing" textLength="66.8884" x="1539.5833" y="2100.5107">3. &#32531;&#23384;&#28165;&#29702;</text><text fill="#FFFFFF" font-family="Verdana" font-size="12.5" lengthAdjust="spacing" textLength="91.8884" x="1539.5833" y="2115.7023">4. &#31435;&#21363;&#37325;&#32472;&#35302;&#21457;</text><path d="M653.125,2143.3268 L653.125,2230.8268 A4.1667,4.1667 0 0 0 657.2917,2234.9935 L1144.7917,2234.9935 A4.1667,4.1667 0 0 0 1148.9583,2230.8268 L1148.9583,2149.5768 L1138.5417,2139.1602 L657.2917,2139.1602 A4.1667,4.1667 0 0 0 653.125,2143.3268" fill="url(#gjs7zvuo49srh3)" style="stroke:#033C73;stroke-width:1.0417;"/><path d="M1138.5417,2139.1602 L1138.5417,2147.4935 A2.0833,2.0833 0 0 0 1140.625,2149.5768 L1148.9583,2149.5768 L1138.5417,2139.1602" fill="url(#gjs7zvuo49srh3)" style="stroke:#033C73;stroke-width:1.0417;"/><text fill="#FFFFFF" font-family="Verdana" font-size="12.5" font-weight="bold" lengthAdjust="spacing" textLength="115.9424" x="814.2619" y="2162.144">SessionCore&#38656;&#35201;:</text><text fill="#FFFFFF" font-family="Verdana" font-size="12.5" lengthAdjust="spacing" textLength="164.9841" x="814.2619" y="2177.3356">1. Terminal&#24207;&#21015;&#21270;/&#21453;&#24207;&#21015;&#21270;</text><text fill="#FFFFFF" font-family="Verdana" font-size="12.5" lengthAdjust="spacing" textLength="91.8884" x="814.2619" y="2192.5273">2. &#29366;&#24577;&#24555;&#29031;&#31649;&#29702;</text><text fill="#FFFFFF" font-family="Verdana" font-size="12.5" lengthAdjust="spacing" textLength="102.3193" x="814.2619" y="2207.7189">3. PTY&#25152;&#26377;&#26435;&#36716;&#31227;</text><text fill="#FFFFFF" font-family="Verdana" font-size="12.5" lengthAdjust="spacing" textLength="91.8884" x="814.2619" y="2222.9106">4. &#20869;&#23481;&#21516;&#27493;&#26426;&#21046;</text><rect fill="url(#gjs7zvuo49srh2)" height="3.125" rx="4.1667" ry="4.1667" style="stroke:url(#gjs7zvuo49srh2);stroke-width:1.0417;" width="1983.1177" x="10.4167" y="2267.5059"/><line style="stroke:#868E96;stroke-width:1.0417;" x1="10.4167" x2="1993.5343" y1="2267.5059" y2="2267.5059"/><line style="stroke:#868E96;stroke-width:1.0417;" x1="10.4167" x2="1993.5343" y1="2270.6309" y2="2270.6309"/><rect fill="url(#gjs7zvuo49srh2)" height="33.9417" rx="4.1667" ry="4.1667" style="stroke:#868E96;stroke-width:2.0833;" width="151.3367" x="926.3072" y="2251.5767"/><text fill="#343A40" font-family="Verdana" font-size="12.5" font-weight="bold" lengthAdjust="spacing" textLength="122.0642" x="937.7655" y="2273.5189">Phase 4 &#23454;&#29616;&#20248;&#20808;&#32423;</text><!--SRC=[TLPRKnf957wVNz7wf5KhsLpsXOhM0bNxPYK5l6mjMwaHEa8jp53367VtALJaeW7HrIZh9MX2WadMYObPLq72VqdHFSDJ_iAUwPuPPv3mGlNqwNE-yvtldEunDOap6CMnif36eYIeAJMDqVsacCFeZX_fUmrw_5BVMOfY9PEIn3GfbsZr1Trha_APeNqsj4D1o8gAcegdigAael78Wl9GZEDn9EPGnBiLo6RPvy3G2PpBfMHfLfJ4UQpmWxCZJKAoWb60MuG2tpO9MYP1hmdBGMPxKUzE64i9h5Z1mu8mFOr8TuCiLmVRsk15tOz4LHNZIRBUxNUQ_VCgPu4K2qIxGDFJWX11KpCeu4S_pYVbdAh-OHr0EOvgQau8c1QHMJ-Qn-ez9QHWKSKcs8bnnsPyKeZCChDGq0vfqJcHu_zW4GgYATF6Rpj_43TpdcRvIhAAaVm8A-R-bvs3h-SrrEyKwEudkdNIRnTffJJugnoJ-jsYKr6M1TrxIshrCPv860hVQUcTOrh_h3VRPBNXDMO4MHf1HkibAPxIhGjwMFOZebNeiq-MIlxDwqTF6J_pYhoGHVJurU1jywOVzNlxvBZEARPTwojdz75UGF2BS1A0pvpu2Di64HKecvXa5c9SJJs29TC1En8AE8TKwy23d2HcSqbP1N9i9xuSLb9YElMdxOanfgJcaweDon-Jfb0ahc0iyNIjjPnEpudntyXgaTG-cjz22qfELlhTgjxLpBMn_95qtmmAvfhvJc0FJX2PbubRm5UfI9ebVLUZ1oMNXDqqW1Qo2WQzufza9S1KaS6IUfs98F-GLf6d6UZUCkczqmijjit92Zgk7M8I-8eQcxX9vuYR9ff_GPfLJXQC1bVXS1eauGrUVm_A0wkHmUEi3UujIZXXuvWO7PEKTqcd3QviEnuF67LyygPmYfzLbUj525ulmcq_6fIgu9cKzqdhAQbiyJc1VY65qy6cfb-sIVF3sAzN9Oc2BXTJQZmPbOEoeiYBE34h9_24E_HGSQ9i6RLEk-L_F_gpP-zAlAgim404xVhch2WZ8jZ7U0f6xpbTVGLIWLAIyiamNROnAVy7MpaLsC-Wf2WbqbYvrWnVzYl0KDDixDDdvim3n7j7Op5fiFVOU9qdsdDzzMIOuUXrVk_OyUZvHzhO87yVVPlPiCEihGO9BpwminxYDCoMOUlSO1CWxMGMLFoxvxjYZNRW4mxvR5z0gzkrvmWzB-XlsXokVha1YNkt3qg6Ta8AH-H33MZNEzvje_MQrDPJcGnEf4oOPkkc97KqlpObC7xfKaDll88X30gyOldIl6WvVyDSXwzp_GFmyBPYlCzR0xYyHbOQhbbYRvjgvsEV3VYXQQCVQeRM59r98xZR5cumVfjOjm-j7v2J9Gu5RWLUK-XtgyITfNxdZ5q1LrSJAF3kt0plCfwc_-wDkPcOTDCtkh4ckGXZqYqVCdfhnc65RfyDDQtnf4jMTcFIRH-2be9DtWlyfHAJxi1drXPyMXczlDxgk4656IZx8V0DMCwCSW5obyYE1Y2uS4mfhHLPUFtTKr8zvOBX6d67X_lXEqO-W70Dq64SpZtShf7oDgHzWzIgpeBXuGdoYQzhXomy9uKkFuQxWEu_CRh_GFOC5PS1MQk0W3Xwp-NEkxn_MIU5ijvkNHKoZH-g0c2z_psQGgHN61nsk2t3AjXGPT_eWWe0rERQe_7RhXmvDAPaBbk1HRm94Ud1EUaz0N53sRqHdPU4muePoqMfcnc14wDlDk1fHzQX3HlM1ejqoynDgv2jfNvt0o0uaSZ5AUsiMw_0bIDzisC6uIy3SpPqdv6rChauC_ttBtUCz_kqakzV500DZ6NzPLxVhPijmmQ2y3y0]--></g></svg>