<svg xmlns="http://www.w3.org/2000/svg" xmlns:xlink="http://www.w3.org/1999/xlink" contentStyleType="text/css" data-diagram-type="SEQUENCE" height="2538.5417px" preserveAspectRatio="none" style="width:1823px;height:2538px;" version="1.1" viewBox="0 0 1823 2538" width="1823.9583px" zoomAndPan="magnify"><title>SessionCore&#26550;&#26500; - &#25968;&#25454;&#27969;&#26029;&#28857;&#20998;&#26512; (Phase 1-3&#23454;&#29616;vs&#39044;&#26399;)</title><defs><linearGradient id="g12y5dr2xky2wf0" x1="50%" x2="50%" y1="0%" y2="100%"><stop offset="0%" stop-color="#EDF0F2"/><stop offset="100%" stop-color="#E9ECEF"/></linearGradient><linearGradient id="g12y5dr2xky2wf1" x1="50%" x2="50%" y1="0%" y2="100%"><stop offset="0%" stop-color="#59B6EC"/><stop offset="100%" stop-color="#2FA4E7"/></linearGradient><linearGradient id="g12y5dr2xky2wf2" x1="50%" x2="50%" y1="0%" y2="100%"><stop offset="0%" stop-color="#FFFFFF"/><stop offset="100%" stop-color="#F8F9FA"/></linearGradient><linearGradient id="g12y5dr2xky2wf3" x1="50%" x2="50%" y1="0%" y2="100%"><stop offset="0%" stop-color="#35638F"/><stop offset="100%" stop-color="#033C73"/></linearGradient></defs><g><rect fill="url(#g12y5dr2xky2wf0)" height="48.2361" rx="4.1667" ry="4.1667" style="stroke:#BABDBF;stroke-width:1.0417;" width="633.8074" x="593.7693" y="20.8333"/><text fill="#2FA4E7" font-family="Verdana" font-size="20.8333" font-weight="bold" lengthAdjust="spacing" textLength="610.8907" x="605.2277" y="53.2369">SessionCore&#26550;&#26500; - &#25968;&#25454;&#27969;&#26029;&#28857;&#20998;&#26512; (Phase 1-3&#23454;&#29616;vs&#39044;&#26399;)</text><g><title>Surface A</title><rect fill="#FF0000" height="159.1166" style="stroke:#BABDBF;stroke-width:1.0417;" width="10.4167" x="364.5528" y="1692.7938"/></g><g><title>Termio A</title><rect fill="#FF0000" height="153.9083" style="stroke:#BABDBF;stroke-width:1.0417;" width="10.4167" x="620.6095" y="1421.4355"/></g><rect fill="none" height="221.7916" rx="4.1667" ry="4.1667" style="stroke:#59B6EC;stroke-width:1.0417;" width="1269.6157" x="274.883" y="376.2777"/><rect fill="none" height="432.4748" rx="4.1667" ry="4.1667" style="stroke:#59B6EC;stroke-width:1.0417;" width="992.7856" x="19.7917" y="612.6526"/><rect fill="none" height="814.683" rx="4.1667" ry="4.1667" style="stroke:#59B6EC;stroke-width:1.0417;" width="1503.4403" x="134.375" y="1154.6773"/><g><title>User</title><rect fill="#000000" fill-opacity="0.00000" height="2270.6156" width="8.3333" x="163.1795" y="169.6777"/><line style="stroke:#BABDBF;stroke-width:1.0417;stroke-dasharray:5.2083,5.2083;" x1="166.6667" x2="166.6667" y1="169.6777" y2="2440.2934"/></g><g><title>Surface A</title><rect fill="#000000" fill-opacity="0.00000" height="2270.6156" width="8.3333" x="365.5945" y="169.6777"/><line style="stroke:#BABDBF;stroke-width:1.0417;stroke-dasharray:5.2083,5.2083;" x1="369.6747" x2="369.6747" y1="169.6777" y2="2440.2934"/></g><g><title>Termio A</title><rect fill="#000000" fill-opacity="0.00000" height="2270.6156" width="8.3333" x="621.6512" y="169.6777"/><line style="stroke:#BABDBF;stroke-width:1.0417;stroke-dasharray:5.2083,5.2083;" x1="625.6439" x2="625.6439" y1="169.6777" y2="2440.2934"/></g><g><title>Terminal A</title><rect fill="#000000" fill-opacity="0.00000" height="2270.6156" width="8.3333" x="909.8979" y="169.6777"/><line style="stroke:#BABDBF;stroke-width:1.0417;stroke-dasharray:5.2083,5.2083;" x1="913.4684" x2="913.4684" y1="169.6777" y2="2440.2934"/></g><g><title>SessionCore A</title><rect fill="#000000" fill-opacity="0.00000" height="2270.6156" width="8.3333" x="1107.5663" y="169.6777"/><line style="stroke:#BABDBF;stroke-width:1.0417;stroke-dasharray:5.2083,5.2083;" x1="1111.5356" x2="1111.5356" y1="169.6777" y2="2440.2934"/></g><g><title>SessionCore B</title><rect fill="#000000" fill-opacity="0.00000" height="2270.6156" width="8.3333" x="1316.3066" y="169.6777"/><line style="stroke:#BABDBF;stroke-width:1.0417;stroke-dasharray:5.2083,5.2083;" x1="1320.2637" x2="1320.2637" y1="169.6777" y2="2440.2934"/></g><g><title>Terminal B</title><rect fill="#000000" fill-opacity="0.00000" height="2270.6156" width="8.3333" x="1535.1237" y="169.6777"/><line style="stroke:#BABDBF;stroke-width:1.0417;stroke-dasharray:5.2083,5.2083;" x1="1538.682" x2="1538.682" y1="169.6777" y2="2440.2934"/></g><g><title>Surface B</title><rect fill="#000000" fill-opacity="0.00000" height="2270.6156" width="8.3333" x="1718.1224" y="169.6777"/><line style="stroke:#BABDBF;stroke-width:1.0417;stroke-dasharray:5.2083,5.2083;" x1="1722.1903" x2="1722.1903" y1="169.6777" y2="2440.2934"/></g><g class="participant participant-head" data-participant="User"><text fill="#343A40" font-family="Verdana" font-size="12.5" lengthAdjust="spacing" textLength="28.4424" x="150" y="161.8449">User</text><ellipse cx="167.3462" cy="89.9028" fill="url(#g12y5dr2xky2wf1)" rx="8.3333" ry="8.3333" style="stroke:#2FA4E7;stroke-width:1.0417;"/><path d="M167.3462,98.2361 L167.3462,126.3611 M153.8045,106.5694 L180.8879,106.5694 M167.3462,126.3611 L153.8045,141.9861 M167.3462,126.3611 L180.8879,141.9861" fill="none" style="stroke:#2FA4E7;stroke-width:1.0417;"/></g><g class="participant participant-tail" data-participant="User"><text fill="#343A40" font-family="Verdana" font-size="12.5" lengthAdjust="spacing" textLength="28.4424" x="150" y="2457.0272">User</text><ellipse cx="167.3462" cy="2474.235" fill="url(#g12y5dr2xky2wf1)" rx="8.3333" ry="8.3333" style="stroke:#2FA4E7;stroke-width:1.0417;"/><path d="M167.3462,2482.5684 L167.3462,2510.6934 M153.8045,2490.9017 L180.8879,2490.9017 M167.3462,2510.6934 L153.8045,2526.3184 M167.3462,2510.6934 L180.8879,2526.3184" fill="none" style="stroke:#2FA4E7;stroke-width:1.0417;"/></g><g class="participant participant-head" data-participant="SA"><rect fill="#90EE90" height="40.1917" rx="4.1667" ry="4.1667" style="stroke:#2FA4E7;stroke-width:1.0417;" width="85.5896" x="326.9663" y="128.4444"/><text fill="#FFFFFF" font-family="Verdana" font-size="12.5" lengthAdjust="spacing" textLength="60.5896" x="339.4663" y="153.5116">Surface A</text></g><g class="participant participant-tail" data-participant="SA"><rect fill="#90EE90" height="40.1917" rx="4.1667" ry="4.1667" style="stroke:#2FA4E7;stroke-width:1.0417;" width="85.5896" x="326.9663" y="2439.2517"/><text fill="#FFFFFF" font-family="Verdana" font-size="12.5" lengthAdjust="spacing" textLength="60.5896" x="339.4663" y="2464.3188">Surface A</text></g><g class="participant participant-head" data-participant="TA"><rect fill="#90EE90" height="40.1917" rx="4.1667" ry="4.1667" style="stroke:#2FA4E7;stroke-width:1.0417;" width="81.5979" x="585.0189" y="128.4444"/><text fill="#FFFFFF" font-family="Verdana" font-size="12.5" lengthAdjust="spacing" textLength="56.5979" x="597.5189" y="153.5116">Termio A</text></g><g class="participant participant-tail" data-participant="TA"><rect fill="#90EE90" height="40.1917" rx="4.1667" ry="4.1667" style="stroke:#2FA4E7;stroke-width:1.0417;" width="81.5979" x="585.0189" y="2439.2517"/><text fill="#FFFFFF" font-family="Verdana" font-size="12.5" lengthAdjust="spacing" textLength="56.5979" x="597.5189" y="2464.3188">Termio A</text></g><g class="participant participant-head" data-participant="TermA"><rect fill="#90EE90" height="40.1917" rx="4.1667" ry="4.1667" style="stroke:#2FA4E7;stroke-width:1.0417;" width="92.8589" x="867.6351" y="128.4444"/><text fill="#FFFFFF" font-family="Verdana" font-size="12.5" lengthAdjust="spacing" textLength="67.8589" x="880.1351" y="153.5116">Terminal A</text></g><g class="participant participant-tail" data-participant="TermA"><rect fill="#90EE90" height="40.1917" rx="4.1667" ry="4.1667" style="stroke:#2FA4E7;stroke-width:1.0417;" width="92.8589" x="867.6351" y="2439.2517"/><text fill="#FFFFFF" font-family="Verdana" font-size="12.5" lengthAdjust="spacing" textLength="67.8589" x="880.1351" y="2464.3188">Terminal A</text></g><g class="participant participant-head" data-participant="SCA"><rect fill="#FFFF00" height="40.1917" rx="4.1667" ry="4.1667" style="stroke:#2FA4E7;stroke-width:1.0417;" width="114.978" x="1054.244" y="128.4444"/><text fill="#FFFFFF" font-family="Verdana" font-size="12.5" lengthAdjust="spacing" textLength="89.978" x="1066.744" y="153.5116">SessionCore A</text></g><g class="participant participant-tail" data-participant="SCA"><rect fill="#FFFF00" height="40.1917" rx="4.1667" ry="4.1667" style="stroke:#2FA4E7;stroke-width:1.0417;" width="114.978" x="1054.244" y="2439.2517"/><text fill="#FFFFFF" font-family="Verdana" font-size="12.5" lengthAdjust="spacing" textLength="89.978" x="1066.744" y="2464.3188">SessionCore A</text></g><g class="participant participant-head" data-participant="SCB"><rect fill="#FFFF00" height="40.1917" rx="4.1667" ry="4.1667" style="stroke:#2FA4E7;stroke-width:1.0417;" width="115.0024" x="1262.972" y="128.4444"/><text fill="#FFFFFF" font-family="Verdana" font-size="12.5" lengthAdjust="spacing" textLength="90.0024" x="1275.472" y="153.5116">SessionCore B</text></g><g class="participant participant-tail" data-participant="SCB"><rect fill="#FFFF00" height="40.1917" rx="4.1667" ry="4.1667" style="stroke:#2FA4E7;stroke-width:1.0417;" width="115.0024" x="1262.972" y="2439.2517"/><text fill="#FFFFFF" font-family="Verdana" font-size="12.5" lengthAdjust="spacing" textLength="90.0024" x="1275.472" y="2464.3188">SessionCore B</text></g><g class="participant participant-head" data-participant="TermB"><rect fill="#FFA500" height="40.1917" rx="4.1667" ry="4.1667" style="stroke:#2FA4E7;stroke-width:1.0417;" width="92.8833" x="1492.8487" y="128.4444"/><text fill="#FFFFFF" font-family="Verdana" font-size="12.5" lengthAdjust="spacing" textLength="67.8833" x="1505.3487" y="153.5116">Terminal B</text></g><g class="participant participant-tail" data-participant="TermB"><rect fill="#FFA500" height="40.1917" rx="4.1667" ry="4.1667" style="stroke:#2FA4E7;stroke-width:1.0417;" width="92.8833" x="1492.8487" y="2439.2517"/><text fill="#FFFFFF" font-family="Verdana" font-size="12.5" lengthAdjust="spacing" textLength="67.8833" x="1505.3487" y="2464.3188">Terminal B</text></g><g class="participant participant-head" data-participant="SB"><rect fill="#FF0000" height="40.1917" rx="4.1667" ry="4.1667" style="stroke:#2FA4E7;stroke-width:1.0417;" width="85.614" x="1679.482" y="128.4444"/><text fill="#FFFFFF" font-family="Verdana" font-size="12.5" lengthAdjust="spacing" textLength="60.614" x="1691.982" y="153.5116">Surface B</text></g><g class="participant participant-tail" data-participant="SB"><rect fill="#FF0000" height="40.1917" rx="4.1667" ry="4.1667" style="stroke:#2FA4E7;stroke-width:1.0417;" width="85.614" x="1679.482" y="2439.2517"/><text fill="#FFFFFF" font-family="Verdana" font-size="12.5" lengthAdjust="spacing" textLength="60.614" x="1691.982" y="2464.3188">Surface B</text></g><g><title>Surface A</title><rect fill="#FF0000" height="159.1166" style="stroke:#BABDBF;stroke-width:1.0417;" width="10.4167" x="364.5528" y="1692.7938"/></g><g><title>Termio A</title><rect fill="#FF0000" height="153.9083" style="stroke:#BABDBF;stroke-width:1.0417;" width="10.4167" x="620.6095" y="1421.4355"/></g><rect fill="url(#g12y5dr2xky2wf2)" height="3.125" rx="4.1667" ry="4.1667" style="stroke:url(#g12y5dr2xky2wf2);stroke-width:1.0417;" width="1801.5544" x="10.4167" y="206.4402"/><line style="stroke:#868E96;stroke-width:1.0417;" x1="10.4167" x2="1811.971" y1="206.4402" y2="206.4402"/><line style="stroke:#868E96;stroke-width:1.0417;" x1="10.4167" x2="1811.971" y1="209.5652" y2="209.5652"/><rect fill="url(#g12y5dr2xky2wf2)" height="33.9417" rx="4.1667" ry="4.1667" style="stroke:#868E96;stroke-width:2.0833;" width="207.9224" x="807.2327" y="190.5111"/><text fill="#343A40" font-family="Verdana" font-size="12.5" font-weight="bold" lengthAdjust="spacing" textLength="178.6499" x="818.691" y="212.4532">&#24403;&#21069;&#23454;&#29616;: attach&#21629;&#20196;&#25191;&#34892;&#27969;&#31243;</text><g class="message" data-participant-1="User" data-participant-2="SA"><polygon fill="#2FA4E7" points="357.2611,262.561,367.6778,266.7277,357.2611,270.8944,361.4278,266.7277" style="stroke:#2FA4E7;stroke-width:1.0417;"/><line style="stroke:#2FA4E7;stroke-width:3.125;" x1="167.3462" x2="363.5111" y1="266.7277" y2="266.7277"/><text fill="#343A40" font-family="Verdana" font-size="12.5" lengthAdjust="spacing" textLength="166.9983" x="179.8462" y="256.8115">@ghostty attach session-b</text></g><g class="message" data-participant-1="SA" data-participant-2="SA"><line style="stroke:#2FA4E7;stroke-width:3.125;" x1="369.7611" x2="413.5111" y1="306.9194" y2="306.9194"/><line style="stroke:#2FA4E7;stroke-width:3.125;" x1="413.5111" x2="413.5111" y1="306.9194" y2="320.461"/><line style="stroke:#2FA4E7;stroke-width:3.125;" x1="370.8028" x2="413.5111" y1="320.461" y2="320.461"/><polygon fill="#2FA4E7" points="381.2195,316.2944,370.8028,320.461,381.2195,324.6277,377.0528,320.461" style="stroke:#2FA4E7;stroke-width:1.0417;"/><text fill="#343A40" font-family="Verdana" font-size="12.5" lengthAdjust="spacing" textLength="50" x="382.2611" y="297.0032">&#35299;&#26512;&#21629;&#20196;</text></g><g class="message" data-participant-1="SA" data-participant-2="SCA"><polygon fill="#2FA4E7" points="1099.233,356.486,1109.6497,360.6527,1099.233,364.8193,1103.3997,360.6527" style="stroke:#2FA4E7;stroke-width:1.0417;"/><line style="stroke:#2FA4E7;stroke-width:3.125;" x1="369.7611" x2="1105.483" y1="360.6527" y2="360.6527"/><text fill="#343A40" font-family="Verdana" font-size="12.5" lengthAdjust="spacing" textLength="138.4094" x="382.2611" y="350.7365">&#36890;&#36807;App&#21457;&#36865;attach&#28040;&#24687;</text></g><path d="M279.0497,376.2777 L474.7223,376.2777 L474.7223,393.5527 L464.3056,403.9693 L274.883,403.9693 L274.883,380.4443 A4.1667,4.1667 0 0 1 279.0497,376.2777" fill="#E9ECEF" style="stroke:#868E96;stroke-width:1.0417;"/><rect fill="none" height="221.7916" rx="4.1667" ry="4.1667" style="stroke:#59B6EC;stroke-width:1.0417;" width="1269.6157" x="274.883" y="376.2777"/><text fill="#033C73" font-family="Verdana" font-size="12.5" font-weight="bold" lengthAdjust="spacing" textLength="142.5476" x="295.7163" y="395.0948">&#25104;&#21151;&#37096;&#20998; #LightGreen</text><g class="message" data-participant-1="SCA" data-participant-2="SCB"><polygon fill="#2FA4E7" points="1307.9732,431.661,1318.3899,435.8276,1307.9732,439.9943,1312.1399,435.8276" style="stroke:#2FA4E7;stroke-width:1.0417;"/><line style="stroke:#2FA4E7;stroke-width:3.125;" x1="1111.733" x2="1314.2232" y1="435.8276" y2="435.8276"/><text fill="#343A40" font-family="Verdana" font-size="12.5" lengthAdjust="spacing" textLength="115.3809" x="1124.233" y="425.9115">attachSurface(SA)</text></g><g class="message" data-participant-1="SCB" data-participant-2="SCB"><line style="stroke:#2FA4E7;stroke-width:3.125;" x1="1320.4732" x2="1364.2232" y1="476.0193" y2="476.0193"/><line style="stroke:#2FA4E7;stroke-width:3.125;" x1="1364.2232" x2="1364.2232" y1="476.0193" y2="489.561"/><line style="stroke:#2FA4E7;stroke-width:3.125;" x1="1321.5149" x2="1364.2232" y1="489.561" y2="489.561"/><polygon fill="#2FA4E7" points="1331.9316,485.3943,1321.5149,489.561,1331.9316,493.7276,1327.7649,489.561" style="stroke:#2FA4E7;stroke-width:1.0417;"/><text fill="#343A40" font-family="Verdana" font-size="12.5" lengthAdjust="spacing" textLength="193.8171" x="1332.9732" y="466.1031">attached_surfaces.append(SA)</text></g><g class="message" data-participant-1="SCB" data-participant-2="SCB"><line style="stroke:#2FA4E7;stroke-width:3.125;" x1="1320.4732" x2="1364.2232" y1="529.7526" y2="529.7526"/><line style="stroke:#2FA4E7;stroke-width:3.125;" x1="1364.2232" x2="1364.2232" y1="529.7526" y2="543.2943"/><line style="stroke:#2FA4E7;stroke-width:3.125;" x1="1321.5149" x2="1364.2232" y1="543.2943" y2="543.2943"/><polygon fill="#2FA4E7" points="1331.9316,539.1276,1321.5149,543.2943,1331.9316,547.4609,1327.7649,543.2943" style="stroke:#2FA4E7;stroke-width:1.0417;"/><text fill="#343A40" font-family="Verdana" font-size="12.5" lengthAdjust="spacing" textLength="80.426" x="1332.9732" y="519.8364">ref_count++</text></g><g class="message" data-participant-1="SCB" data-participant-2="SA"><polygon fill="#2FA4E7" points="381.2195,582.4443,370.8028,586.6109,381.2195,590.7776,377.0528,586.6109" style="stroke:#2FA4E7;stroke-width:1.0417;"/><line style="stroke:#2FA4E7;stroke-width:3.125;stroke-dasharray:2.0833,2.0833;" x1="374.9695" x2="1319.4316" y1="586.6109" y2="586.6109"/><text fill="#343A40" font-family="Verdana" font-size="12.5" lengthAdjust="spacing" textLength="146.6593" x="392.6778" y="576.6947">session_core = SCB &#9989;</text></g><path d="M1325,561.0026 L1325,588.0859 A4.1667,4.1667 0 0 0 1329.1667,592.2526 L1428.125,592.2526 A4.1667,4.1667 0 0 0 1432.2917,588.0859 L1432.2917,567.2526 L1421.875,556.8359 L1329.1667,556.8359 A4.1667,4.1667 0 0 0 1325,561.0026" fill="url(#g12y5dr2xky2wf3)" style="stroke:#033C73;stroke-width:1.0417;"/><path d="M1421.875,556.8359 L1421.875,565.1693 A2.0833,2.0833 0 0 0 1423.9583,567.2526 L1432.2917,567.2526 L1421.875,556.8359" fill="url(#g12y5dr2xky2wf3)" style="stroke:#033C73;stroke-width:1.0417;"/><text fill="#FFFFFF" font-family="Verdana" font-size="12.5" lengthAdjust="spacing" textLength="75" x="1336.4583" y="579.8197">&#25351;&#38024;&#26356;&#26032;&#25104;&#21151;</text><path d="M23.9583,612.6526 L172.9207,612.6526 L172.9207,629.9276 L162.5041,640.3442 L19.7917,640.3442 L19.7917,616.8193 A4.1667,4.1667 0 0 1 23.9583,612.6526" fill="#E9ECEF" style="stroke:#868E96;stroke-width:1.0417;"/><rect fill="none" height="432.4748" rx="4.1667" ry="4.1667" style="stroke:#59B6EC;stroke-width:1.0417;" width="992.7856" x="19.7917" y="612.6526"/><text fill="#033C73" font-family="Verdana" font-size="12.5" font-weight="bold" lengthAdjust="spacing" textLength="95.8374" x="40.625" y="631.4697">&#22833;&#36133;&#37096;&#20998; #Pink</text><g class="message" data-participant-1="SA" data-participant-2="TA"><polygon fill="#2FA4E7" points="613.3179,668.0359,623.7345,672.2026,613.3179,676.3692,617.4845,672.2026" style="stroke:#2FA4E7;stroke-width:1.0417;"/><line style="stroke:#2FA4E7;stroke-width:3.125;" x1="369.7611" x2="619.5679" y1="672.2026" y2="672.2026"/><text fill="#343A40" font-family="Verdana" font-size="12.5" lengthAdjust="spacing" textLength="83.5612" x="382.2611" y="662.2864">&#10060; &#26080;&#20999;&#25442;&#26426;&#21046;</text></g><g class="message" data-participant-1="TA" data-participant-2="TermA"><polygon fill="#2FA4E7" points="901.5645,708.2275,911.9812,712.3942,901.5645,716.5609,905.7312,712.3942" style="stroke:#2FA4E7;stroke-width:1.0417;"/><line style="stroke:#2FA4E7;stroke-width:3.125;" x1="625.8179" x2="907.8145" y1="712.3942" y2="712.3942"/><text fill="#343A40" font-family="Verdana" font-size="12.5" lengthAdjust="spacing" textLength="125.9806" x="638.3179" y="702.478">&#10060; &#20173;&#20351;&#29992;&#21407;Terminal</text></g><path d="M542.7083,730.1025 L542.7083,787.3942 A4.1667,4.1667 0 0 0 546.875,791.5609 L991.6667,791.5609 A4.1667,4.1667 0 0 0 995.8333,787.3942 L995.8333,736.3525 L985.4167,725.9359 L546.875,725.9359 A4.1667,4.1667 0 0 0 542.7083,730.1025" fill="url(#g12y5dr2xky2wf3)" style="stroke:#033C73;stroke-width:1.0417;"/><path d="M985.4167,725.9359 L985.4167,734.2692 A2.0833,2.0833 0 0 0 987.5,736.3525 L995.8333,736.3525 L985.4167,725.9359" fill="url(#g12y5dr2xky2wf3)" style="stroke:#033C73;stroke-width:1.0417;"/><text fill="#FFFFFF" font-family="Verdana" font-size="12.5" font-weight="bold" lengthAdjust="spacing" textLength="43.1885" x="686.1099" y="748.9197">&#26029;&#28857; 1:</text><text fill="#FFFFFF" font-family="Verdana" font-size="12.5" lengthAdjust="spacing" textLength="106.1584" x="686.1099" y="764.1113">Termio&#26080;&#27861;&#20999;&#25442;&#21040;</text><text fill="#FFFFFF" font-family="Verdana" font-size="12.5" lengthAdjust="spacing" textLength="157.4219" x="686.1099" y="779.303">SessionCore B&#30340;Terminal</text><g class="message" data-participant-1="SA" data-participant-2="SA"><line style="stroke:#2FA4E7;stroke-width:3.125;" x1="369.7611" x2="413.5111" y1="829.4108" y2="829.4108"/><line style="stroke:#2FA4E7;stroke-width:3.125;" x1="413.5111" x2="413.5111" y1="829.4108" y2="842.9525"/><line style="stroke:#2FA4E7;stroke-width:3.125;" x1="370.8028" x2="413.5111" y1="842.9525" y2="842.9525"/><polygon fill="#2FA4E7" points="381.2195,838.7858,370.8028,842.9525,381.2195,847.1191,377.0528,842.9525" style="stroke:#2FA4E7;stroke-width:1.0417;"/><text fill="#343A40" font-family="Verdana" font-size="12.5" lengthAdjust="spacing" textLength="96.0612" x="382.2611" y="819.4946">&#10060; &#28210;&#26579;&#22120;&#26410;&#26356;&#26032;</text></g><path d="M278.125,860.6608 L278.125,917.9525 A4.1667,4.1667 0 0 0 282.2917,922.1191 L455.2083,922.1191 A4.1667,4.1667 0 0 0 459.375,917.9525 L459.375,866.9108 L448.9583,856.4941 L282.2917,856.4941 A4.1667,4.1667 0 0 0 278.125,860.6608" fill="url(#g12y5dr2xky2wf3)" style="stroke:#033C73;stroke-width:1.0417;"/><path d="M448.9583,856.4941 L448.9583,864.8275 A2.0833,2.0833 0 0 0 451.0417,866.9108 L459.375,866.9108 L448.9583,856.4941" fill="url(#g12y5dr2xky2wf3)" style="stroke:#033C73;stroke-width:1.0417;"/><text fill="#FFFFFF" font-family="Verdana" font-size="12.5" font-weight="bold" lengthAdjust="spacing" textLength="43.1885" x="289.5833" y="879.4779">&#26029;&#28857; 2:</text><text fill="#FFFFFF" font-family="Verdana" font-size="12.5" lengthAdjust="spacing" textLength="149.9939" x="289.5833" y="894.6696">renderer_state.terminal</text><text fill="#FFFFFF" font-family="Verdana" font-size="12.5" lengthAdjust="spacing" textLength="105.3589" x="289.5833" y="909.8612">&#20173;&#25351;&#21521;Terminal A</text><g class="message" data-participant-1="SA" data-participant-2="User"><polygon fill="#2FA4E7" points="178.8045,955.8024,168.3879,959.9691,178.8045,964.1357,174.6379,959.9691" style="stroke:#2FA4E7;stroke-width:1.0417;"/><line style="stroke:#2FA4E7;stroke-width:3.125;stroke-dasharray:2.0833,2.0833;" x1="172.5545" x2="368.7195" y1="959.9691" y2="959.9691"/><text fill="#343A40" font-family="Verdana" font-size="12.5" lengthAdjust="spacing" textLength="115.9973" x="190.2629" y="950.0529">&#26174;&#31034;"attached"&#28040;&#24687;</text></g><g class="message" data-participant-1="TermA" data-participant-2="User"><polygon fill="#2FA4E7" points="178.8045,1014.3107,168.3879,1018.4774,178.8045,1022.644,174.6379,1018.4774" style="stroke:#2FA4E7;stroke-width:1.0417;"/><line style="stroke:#2FA4E7;stroke-width:3.125;stroke-dasharray:2.0833,2.0833;" x1="172.5545" x2="913.0229" y1="1018.4774" y2="1018.4774"/><text fill="#343A40" font-family="Verdana" font-size="12.5" lengthAdjust="spacing" textLength="135.2783" x="190.2629" y="1008.5612">&#20294;&#20869;&#23481;&#20173;&#26159;Terminal A!</text></g><path d="M30.2083,977.6774 L30.2083,1034.9691 A4.1667,4.1667 0 0 0 34.375,1039.1357 L157.2917,1039.1357 A4.1667,4.1667 0 0 0 161.4583,1034.9691 L161.4583,983.9274 L151.0417,973.5107 L34.375,973.5107 A4.1667,4.1667 0 0 0 30.2083,977.6774" fill="url(#g12y5dr2xky2wf3)" style="stroke:#033C73;stroke-width:1.0417;"/><path d="M151.0417,973.5107 L151.0417,981.8441 A2.0833,2.0833 0 0 0 153.125,983.9274 L161.4583,983.9274 L151.0417,973.5107" fill="url(#g12y5dr2xky2wf3)" style="stroke:#033C73;stroke-width:1.0417;"/><text fill="#FFFFFF" font-family="Verdana" font-size="12.5" font-weight="bold" lengthAdjust="spacing" textLength="30.0293" x="41.6667" y="996.4945">&#32467;&#26524;:</text><text fill="#FFFFFF" font-family="Verdana" font-size="12.5" lengthAdjust="spacing" textLength="98.9746" x="41.6667" y="1011.6862">&#29992;&#25143;&#30475;&#21040;"&#24050;&#38468;&#21152;"</text><text fill="#FFFFFF" font-family="Verdana" font-size="12.5" lengthAdjust="spacing" textLength="87.5" x="41.6667" y="1026.8778">&#20294;&#20869;&#23481;&#27809;&#21464;&#21270;&#65281;</text><rect fill="url(#g12y5dr2xky2wf2)" height="3.125" rx="4.1667" ry="4.1667" style="stroke:url(#g12y5dr2xky2wf2);stroke-width:1.0417;" width="1801.5544" x="10.4167" y="1078.7649"/><line style="stroke:#868E96;stroke-width:1.0417;" x1="10.4167" x2="1811.971" y1="1078.7649" y2="1078.7649"/><line style="stroke:#868E96;stroke-width:1.0417;" x1="10.4167" x2="1811.971" y1="1081.8899" y2="1081.8899"/><rect fill="url(#g12y5dr2xky2wf2)" height="33.9417" rx="4.1667" ry="4.1667" style="stroke:#868E96;stroke-width:2.0833;" width="163.5742" x="829.4067" y="1062.8357"/><text fill="#343A40" font-family="Verdana" font-size="12.5" font-weight="bold" lengthAdjust="spacing" textLength="134.3018" x="840.8651" y="1084.7778">&#39044;&#26399;&#34892;&#20026;: &#22914;&#20309;&#24212;&#35813;&#24037;&#20316;</text><g class="message" data-participant-1="User" data-participant-2="SA"><polygon fill="#2FA4E7" points="357.2611,1134.8857,367.6778,1139.0523,357.2611,1143.219,361.4278,1139.0523" style="stroke:#2FA4E7;stroke-width:1.0417;"/><line style="stroke:#2FA4E7;stroke-width:3.125;" x1="167.3462" x2="363.5111" y1="1139.0523" y2="1139.0523"/><text fill="#343A40" font-family="Verdana" font-size="12.5" lengthAdjust="spacing" textLength="166.9983" x="179.8462" y="1129.1361">@ghostty attach session-b</text></g><path d="M138.5417,1154.6773 L420.4203,1154.6773 L420.4203,1171.9523 L410.0037,1182.369 L134.375,1182.369 L134.375,1158.844 A4.1667,4.1667 0 0 1 138.5417,1154.6773" fill="#E9ECEF" style="stroke:#868E96;stroke-width:1.0417;"/><rect fill="none" height="814.683" rx="4.1667" ry="4.1667" style="stroke:#59B6EC;stroke-width:1.0417;" width="1503.4403" x="134.375" y="1154.6773"/><text fill="#033C73" font-family="Verdana" font-size="12.5" font-weight="bold" lengthAdjust="spacing" textLength="228.7537" x="155.2083" y="1173.4945">Phase 4 &#38656;&#35201;&#23454;&#29616;&#30340;&#27969;&#31243; #LightBlue</text><g class="message" data-participant-1="SA" data-participant-2="SCA"><polygon fill="#2FA4E7" points="1099.233,1210.0606,1109.6497,1214.2273,1099.233,1218.394,1103.3997,1214.2273" style="stroke:#2FA4E7;stroke-width:1.0417;"/><line style="stroke:#2FA4E7;stroke-width:3.125;" x1="369.7611" x2="1105.483" y1="1214.2273" y2="1214.2273"/><text fill="#343A40" font-family="Verdana" font-size="12.5" lengthAdjust="spacing" textLength="118.1824" x="382.2611" y="1204.3111">detachSurface(SA)</text></g><g class="message" data-participant-1="SCA" data-participant-2="TermA"><polygon fill="#2FA4E7" points="925.5229,1253.3773,915.1062,1257.5439,925.5229,1261.7106,921.3562,1257.5439" style="stroke:#2FA4E7;stroke-width:1.0417;"/><line style="stroke:#2FA4E7;stroke-width:3.125;" x1="919.2729" x2="1110.6913" y1="1257.5439" y2="1257.5439"/><text fill="#343A40" font-family="Verdana" font-size="12.5" lengthAdjust="spacing" textLength="98.9014" x="936.9812" y="1247.6278">saveSnapshot()</text></g><path d="M1116.6667,1231.9356 L1116.6667,1259.019 A4.1667,4.1667 0 0 0 1120.8333,1263.1856 L1219.7917,1263.1856 A4.1667,4.1667 0 0 0 1223.9583,1259.019 L1223.9583,1238.1856 L1213.5417,1227.769 L1120.8333,1227.769 A4.1667,4.1667 0 0 0 1116.6667,1231.9356" fill="url(#g12y5dr2xky2wf3)" style="stroke:#033C73;stroke-width:1.0417;"/><path d="M1213.5417,1227.769 L1213.5417,1236.1023 A2.0833,2.0833 0 0 0 1215.625,1238.1856 L1223.9583,1238.1856 L1213.5417,1227.769" fill="url(#g12y5dr2xky2wf3)" style="stroke:#033C73;stroke-width:1.0417;"/><text fill="#FFFFFF" font-family="Verdana" font-size="12.5" lengthAdjust="spacing" textLength="75" x="1128.125" y="1250.7528">&#20445;&#23384;&#24403;&#21069;&#29366;&#24577;</text><g class="message" data-participant-1="SA" data-participant-2="SCB"><polygon fill="#2FA4E7" points="1307.9732,1296.6939,1318.3899,1300.8606,1307.9732,1305.0273,1312.1399,1300.8606" style="stroke:#2FA4E7;stroke-width:1.0417;"/><line style="stroke:#2FA4E7;stroke-width:3.125;" x1="369.7611" x2="1314.2232" y1="1300.8606" y2="1300.8606"/><text fill="#343A40" font-family="Verdana" font-size="12.5" lengthAdjust="spacing" textLength="198.9258" x="382.2611" y="1290.9444">attachSurfaceWithTerminal(SA)</text></g><g class="message" data-participant-1="SCB" data-participant-2="TermB"><polygon fill="#2FA4E7" points="1526.7904,1336.8856,1537.207,1341.0522,1526.7904,1345.2189,1530.957,1341.0522" style="stroke:#2FA4E7;stroke-width:1.0417;"/><line style="stroke:#2FA4E7;stroke-width:3.125;" x1="1320.4732" x2="1533.0404" y1="1341.0522" y2="1341.0522"/><text fill="#343A40" font-family="Verdana" font-size="12.5" lengthAdjust="spacing" textLength="88.0737" x="1332.9732" y="1331.1361">getOrCreate()</text></g><g class="message" data-participant-1="SCB" data-participant-2="SA"><polygon fill="#2FA4E7" points="381.2195,1377.0772,370.8028,1381.2439,381.2195,1385.4106,377.0528,1381.2439" style="stroke:#2FA4E7;stroke-width:1.0417;"/><line style="stroke:#2FA4E7;stroke-width:3.125;stroke-dasharray:2.0833,2.0833;" x1="374.9695" x2="1319.4316" y1="1381.2439" y2="1381.2439"/><text fill="#343A40" font-family="Verdana" font-size="12.5" lengthAdjust="spacing" textLength="145.1782" x="392.6778" y="1371.3277">borrowed_terminal_ptr</text></g><g class="message" data-participant-1="SA" data-participant-2="TA"><polygon fill="#2FA4E7" points="608.1095,1417.2689,618.5262,1421.4355,608.1095,1425.6022,612.2762,1421.4355" style="stroke:#2FA4E7;stroke-width:1.0417;"/><line style="stroke:#2FA4E7;stroke-width:3.125;" x1="369.7611" x2="614.3595" y1="1421.4355" y2="1421.4355"/><text fill="#343A40" font-family="Verdana" font-size="12.5" font-weight="bold" lengthAdjust="spacing" textLength="190.7532" x="382.2611" y="1411.5194">switchToBorrowed(TermB)</text></g><g class="message" data-participant-1="TA" data-participant-2="TA"><line style="stroke:#2FA4E7;stroke-width:3.125;" x1="631.0262" x2="674.7762" y1="1461.6272" y2="1461.6272"/><line style="stroke:#2FA4E7;stroke-width:3.125;" x1="674.7762" x2="674.7762" y1="1461.6272" y2="1475.1689"/><line style="stroke:#2FA4E7;stroke-width:3.125;" x1="632.0679" x2="674.7762" y1="1475.1689" y2="1475.1689"/><polygon fill="#2FA4E7" points="642.4845,1471.0022,632.0679,1475.1689,642.4845,1479.3355,638.3179,1475.1689" style="stroke:#2FA4E7;stroke-width:1.0417;"/><text fill="#343A40" font-family="Verdana" font-size="12.5" lengthAdjust="spacing" textLength="242.4133" x="643.5262" y="1451.711">terminal_storage = .borrowed(TermB)</text></g><g class="message" data-participant-1="TA" data-participant-2="TA"><line style="stroke:#2FA4E7;stroke-width:3.125;" x1="631.0262" x2="674.7762" y1="1515.3605" y2="1515.3605"/><line style="stroke:#2FA4E7;stroke-width:3.125;" x1="674.7762" x2="674.7762" y1="1515.3605" y2="1528.9022"/><line style="stroke:#2FA4E7;stroke-width:3.125;" x1="632.0679" x2="674.7762" y1="1528.9022" y2="1528.9022"/><polygon fill="#2FA4E7" points="642.4845,1524.7355,632.0679,1528.9022,642.4845,1533.0688,638.3179,1528.9022" style="stroke:#2FA4E7;stroke-width:1.0417;"/><text fill="#343A40" font-family="Verdana" font-size="12.5" lengthAdjust="spacing" textLength="153.8208" x="643.5262" y="1505.4443">reconnectParser(TermB)</text></g><g class="message" data-participant-1="TA" data-participant-2="TA"><line style="stroke:#2FA4E7;stroke-width:3.125;" x1="631.0262" x2="674.7762" y1="1574.3022" y2="1574.3022"/><line style="stroke:#2FA4E7;stroke-width:3.125;" x1="674.7762" x2="674.7762" y1="1574.3022" y2="1587.8438"/><line style="stroke:#2FA4E7;stroke-width:3.125;" x1="625.8179" x2="674.7762" y1="1587.8438" y2="1587.8438"/><polygon fill="#2FA4E7" points="636.2345,1583.6772,625.8179,1587.8438,636.2345,1592.0105,632.0679,1587.8438" style="stroke:#2FA4E7;stroke-width:1.0417;"/><text fill="#343A40" font-family="Verdana" font-size="12.5" lengthAdjust="spacing" textLength="190.6555" x="643.5262" y="1564.386">updateStreamHandler(TermB)</text></g><path d="M533.3333,1600.3438 L533.3333,1643.0522 A4.1667,4.1667 0 0 0 537.5,1647.2188 L711.4583,1647.2188 A4.1667,4.1667 0 0 0 715.625,1643.0522 L715.625,1606.5938 L705.2083,1596.1772 L537.5,1596.1772 A4.1667,4.1667 0 0 0 533.3333,1600.3438" fill="url(#g12y5dr2xky2wf3)" style="stroke:#033C73;stroke-width:1.0417;"/><path d="M705.2083,1596.1772 L705.2083,1604.5105 A2.0833,2.0833 0 0 0 707.2917,1606.5938 L715.625,1606.5938 L705.2083,1596.1772" fill="url(#g12y5dr2xky2wf3)" style="stroke:#033C73;stroke-width:1.0417;"/><text fill="#FFFFFF" font-family="Verdana" font-size="12.5" font-weight="bold" lengthAdjust="spacing" textLength="55.0293" x="544.7917" y="1619.161">&#38656;&#35201;&#23454;&#29616;:</text><text fill="#FFFFFF" font-family="Verdana" font-size="12.5" lengthAdjust="spacing" textLength="151.0376" x="544.7917" y="1634.3526">switchToBorrowed()&#26041;&#27861;</text><g class="message" data-participant-1="SA" data-participant-2="SA"><line style="stroke:#2FA4E7;stroke-width:3.125;" x1="369.7611" x2="418.7195" y1="1679.2521" y2="1679.2521"/><line style="stroke:#2FA4E7;stroke-width:3.125;" x1="418.7195" x2="418.7195" y1="1679.2521" y2="1692.7938"/><line style="stroke:#2FA4E7;stroke-width:3.125;" x1="376.0111" x2="418.7195" y1="1692.7938" y2="1692.7938"/><polygon fill="#2FA4E7" points="386.4278,1688.6271,376.0111,1692.7938,386.4278,1696.9604,382.2611,1692.7938" style="stroke:#2FA4E7;stroke-width:1.0417;"/><text fill="#343A40" font-family="Verdana" font-size="12.5" font-weight="bold" lengthAdjust="spacing" textLength="174.7498" x="387.4695" y="1669.3359">refreshRenderer(TermB)</text></g><g class="message" data-participant-1="SA" data-participant-2="SA"><line style="stroke:#2FA4E7;stroke-width:3.125;" x1="374.9695" x2="418.7195" y1="1738.1938" y2="1738.1938"/><line style="stroke:#2FA4E7;stroke-width:3.125;" x1="418.7195" x2="418.7195" y1="1738.1938" y2="1751.7354"/><line style="stroke:#2FA4E7;stroke-width:3.125;" x1="376.0111" x2="418.7195" y1="1751.7354" y2="1751.7354"/><polygon fill="#2FA4E7" points="386.4278,1747.5688,376.0111,1751.7354,386.4278,1755.9021,382.2611,1751.7354" style="stroke:#2FA4E7;stroke-width:1.0417;"/><text fill="#343A40" font-family="Verdana" font-size="12.5" lengthAdjust="spacing" textLength="210.2234" x="387.4695" y="1728.2776">renderer_state.terminal = TermB</text></g><g class="message" data-participant-1="SA" data-participant-2="SA"><line style="stroke:#2FA4E7;stroke-width:3.125;" x1="374.9695" x2="418.7195" y1="1791.9271" y2="1791.9271"/><line style="stroke:#2FA4E7;stroke-width:3.125;" x1="418.7195" x2="418.7195" y1="1791.9271" y2="1805.4688"/><line style="stroke:#2FA4E7;stroke-width:3.125;" x1="376.0111" x2="418.7195" y1="1805.4688" y2="1805.4688"/><polygon fill="#2FA4E7" points="386.4278,1801.3021,376.0111,1805.4688,386.4278,1809.6354,382.2611,1805.4688" style="stroke:#2FA4E7;stroke-width:1.0417;"/><text fill="#343A40" font-family="Verdana" font-size="12.5" lengthAdjust="spacing" textLength="146.1182" x="387.4695" y="1782.0109">renderer.invalidateAll()</text></g><g class="message" data-participant-1="SA" data-participant-2="SA"><line style="stroke:#2FA4E7;stroke-width:3.125;" x1="374.9695" x2="418.7195" y1="1850.8687" y2="1850.8687"/><line style="stroke:#2FA4E7;stroke-width:3.125;" x1="418.7195" x2="418.7195" y1="1850.8687" y2="1864.4104"/><line style="stroke:#2FA4E7;stroke-width:3.125;" x1="369.7611" x2="418.7195" y1="1864.4104" y2="1864.4104"/><polygon fill="#2FA4E7" points="380.1778,1860.2437,369.7611,1864.4104,380.1778,1868.5771,376.0111,1864.4104" style="stroke:#2FA4E7;stroke-width:1.0417;"/><text fill="#343A40" font-family="Verdana" font-size="12.5" lengthAdjust="spacing" textLength="148.9136" x="387.4695" y="1840.9526">renderer.forceRepaint()</text></g><path d="M315.625,1876.9104 L315.625,1919.6187 A4.1667,4.1667 0 0 0 319.7917,1923.7854 L418.75,1923.7854 A4.1667,4.1667 0 0 0 422.9167,1919.6187 L422.9167,1883.1604 L412.5,1872.7437 L319.7917,1872.7437 A4.1667,4.1667 0 0 0 315.625,1876.9104" fill="url(#g12y5dr2xky2wf3)" style="stroke:#033C73;stroke-width:1.0417;"/><path d="M412.5,1872.7437 L412.5,1881.0771 A2.0833,2.0833 0 0 0 414.5833,1883.1604 L422.9167,1883.1604 L412.5,1872.7437" fill="url(#g12y5dr2xky2wf3)" style="stroke:#033C73;stroke-width:1.0417;"/><text fill="#FFFFFF" font-family="Verdana" font-size="12.5" font-weight="bold" lengthAdjust="spacing" textLength="55.0293" x="327.0833" y="1895.7275">&#38656;&#35201;&#23454;&#29616;:</text><text fill="#FFFFFF" font-family="Verdana" font-size="12.5" lengthAdjust="spacing" textLength="75" x="327.0833" y="1910.9192">&#24378;&#21046;&#21047;&#26032;&#26426;&#21046;</text><g class="message" data-participant-1="TermB" data-participant-2="User"><polygon fill="#2FA4E7" points="178.8045,1956.8604,168.3879,1961.027,178.8045,1965.1937,174.6379,1961.027" style="stroke:#2FA4E7;stroke-width:1.0417;"/><line style="stroke:#2FA4E7;stroke-width:3.125;stroke-dasharray:2.0833,2.0833;" x1="172.5545" x2="1538.2487" y1="1961.027" y2="1961.027"/><text fill="#343A40" font-family="Verdana" font-size="12.5" lengthAdjust="spacing" textLength="138.9445" x="190.2629" y="1951.1108">&#26174;&#31034;Terminal B&#20869;&#23481; &#9989;</text></g><rect fill="url(#g12y5dr2xky2wf2)" height="3.125" rx="4.1667" ry="4.1667" style="stroke:url(#g12y5dr2xky2wf2);stroke-width:1.0417;" width="1801.5544" x="10.4167" y="2002.9978"/><line style="stroke:#868E96;stroke-width:1.0417;" x1="10.4167" x2="1811.971" y1="2002.9978" y2="2002.9978"/><line style="stroke:#868E96;stroke-width:1.0417;" x1="10.4167" x2="1811.971" y1="2006.1228" y2="2006.1228"/><rect fill="url(#g12y5dr2xky2wf2)" height="33.9417" rx="4.1667" ry="4.1667" style="stroke:#868E96;stroke-width:2.0833;" width="116.7725" x="852.8076" y="1987.0687"/><text fill="#343A40" font-family="Verdana" font-size="12.5" font-weight="bold" lengthAdjust="spacing" textLength="87.5" x="864.266" y="2009.0108">&#25968;&#25454;&#27969;&#26029;&#28857;&#24635;&#32467;</text><path d="M285.4167,2040.802 L285.4167,2128.302 A4.1667,4.1667 0 0 0 289.5833,2132.4687 L992.7083,2132.4687 A4.1667,4.1667 0 0 0 996.875,2128.302 L996.875,2047.052 L986.4583,2036.6353 L289.5833,2036.6353 A4.1667,4.1667 0 0 0 285.4167,2040.802" fill="url(#g12y5dr2xky2wf3)" style="stroke:#033C73;stroke-width:1.0417;"/><path d="M986.4583,2036.6353 L986.4583,2044.9687 A2.0833,2.0833 0 0 0 988.5417,2047.052 L996.875,2047.052 L986.4583,2036.6353" fill="url(#g12y5dr2xky2wf3)" style="stroke:#033C73;stroke-width:1.0417;"/><text fill="#FFFFFF" font-family="Verdana" font-size="12.5" font-weight="bold" lengthAdjust="spacing" textLength="109.0759" x="537.9471" y="2059.6191">&#26029;&#28857; 1: Termio&#23618;</text><text fill="#FFFFFF" font-family="Verdana" font-size="12.5" lengthAdjust="spacing" textLength="186.1084" x="537.9471" y="2074.8108">- &#32570;&#23569;switchToBorrowed()&#26041;&#27861;</text><text fill="#FFFFFF" font-family="Verdana" font-size="12.5" lengthAdjust="spacing" textLength="152.4902" x="537.9471" y="2090.0024">- &#26080;&#27861;&#36816;&#34892;&#26102;&#26356;&#25442;Terminal</text><text fill="#FFFFFF" font-family="Verdana" font-size="12.5" lengthAdjust="spacing" textLength="124.7437" x="537.9471" y="2105.1941">- Parser&#26080;&#27861;&#37325;&#26032;&#36830;&#25509;</text><text fill="#FFFFFF" font-family="Verdana" font-size="12.5" lengthAdjust="spacing" textLength="197.2168" x="537.9471" y="2120.3857">- StreamHandler&#21345;&#22312;&#26087;Terminal</text><path d="M282.2917,2148.0103 L282.2917,2220.9269 A4.1667,4.1667 0 0 0 286.4583,2225.0936 L451.0417,2225.0936 A4.1667,4.1667 0 0 0 455.2083,2220.9269 L455.2083,2154.2603 L444.7917,2143.8436 L286.4583,2143.8436 A4.1667,4.1667 0 0 0 282.2917,2148.0103" fill="url(#g12y5dr2xky2wf3)" style="stroke:#033C73;stroke-width:1.0417;"/><path d="M444.7917,2143.8436 L444.7917,2152.1769 A2.0833,2.0833 0 0 0 446.875,2154.2603 L455.2083,2154.2603 L444.7917,2143.8436" fill="url(#g12y5dr2xky2wf3)" style="stroke:#033C73;stroke-width:1.0417;"/><text fill="#FFFFFF" font-family="Verdana" font-size="12.5" font-weight="bold" lengthAdjust="spacing" textLength="113.2446" x="293.75" y="2166.8274">&#26029;&#28857; 2: Surface&#23618;</text><text fill="#FFFFFF" font-family="Verdana" font-size="12.5" lengthAdjust="spacing" textLength="141.2292" x="293.75" y="2182.019">- &#27809;&#26377;&#37325;&#26032;&#21021;&#22987;&#21270;Termio</text><text fill="#FFFFFF" font-family="Verdana" font-size="12.5" lengthAdjust="spacing" textLength="140.8752" x="293.75" y="2197.2107">- renderer_state&#26410;&#26356;&#26032;</text><text fill="#FFFFFF" font-family="Verdana" font-size="12.5" lengthAdjust="spacing" textLength="85.0708" x="293.75" y="2212.4023">- &#27809;&#26377;&#35302;&#21457;&#21047;&#26032;</text><path d="M1229.1667,2240.0269 L1229.1667,2312.9435 A4.1667,4.1667 0 0 0 1233.3333,2317.1102 L1625,2317.1102 A4.1667,4.1667 0 0 0 1629.1667,2312.9435 L1629.1667,2246.2769 L1618.75,2235.8602 L1233.3333,2235.8602 A4.1667,4.1667 0 0 0 1229.1667,2240.0269" fill="url(#g12y5dr2xky2wf3)" style="stroke:#033C73;stroke-width:1.0417;"/><path d="M1618.75,2235.8602 L1618.75,2244.1935 A2.0833,2.0833 0 0 0 1620.8333,2246.2769 L1629.1667,2246.2769 L1618.75,2235.8602" fill="url(#g12y5dr2xky2wf3)" style="stroke:#033C73;stroke-width:1.0417;"/><text fill="#FFFFFF" font-family="Verdana" font-size="12.5" font-weight="bold" lengthAdjust="spacing" textLength="145.874" x="1344.9015" y="2258.844">&#26029;&#28857; 3: SessionCore&#23618;</text><text fill="#FFFFFF" font-family="Verdana" font-size="12.5" lengthAdjust="spacing" textLength="152.4902" x="1344.9015" y="2274.0356">- Terminal&#29366;&#24577;&#26080;&#27861;&#24207;&#21015;&#21270;</text><text fill="#FFFFFF" font-family="Verdana" font-size="12.5" lengthAdjust="spacing" textLength="85.0708" x="1344.9015" y="2289.2273">- &#27809;&#26377;&#24555;&#29031;&#26426;&#21046;</text><text fill="#FFFFFF" font-family="Verdana" font-size="12.5" lengthAdjust="spacing" textLength="160.0403" x="1344.9015" y="2304.4189">- PTY&#19981;&#30001;SessionCore&#31649;&#29702;</text><path d="M69.7917,2332.0435 L69.7917,2419.5435 A4.1667,4.1667 0 0 0 73.9583,2423.7101 L260.4167,2423.7101 A4.1667,4.1667 0 0 0 264.5833,2419.5435 L264.5833,2338.2935 L254.1667,2327.8768 L73.9583,2327.8768 A4.1667,4.1667 0 0 0 69.7917,2332.0435" fill="url(#g12y5dr2xky2wf3)" style="stroke:#033C73;stroke-width:1.0417;"/><path d="M254.1667,2327.8768 L254.1667,2336.2101 A2.0833,2.0833 0 0 0 256.25,2338.2935 L264.5833,2338.2935 L254.1667,2327.8768" fill="url(#g12y5dr2xky2wf3)" style="stroke:#033C73;stroke-width:1.0417;"/><text fill="#FFFFFF" font-family="Verdana" font-size="12.5" font-weight="bold" lengthAdjust="spacing" textLength="80.0293" x="81.25" y="2350.8606">&#29992;&#25143;&#20307;&#39564;&#38382;&#39064;:</text><text fill="#FFFFFF" font-family="Verdana" font-size="12.5" lengthAdjust="spacing" textLength="131.1768" x="81.25" y="2366.0522">1. attach&#21629;&#20196;&#26174;&#31034;&#25104;&#21151;</text><text fill="#FFFFFF" font-family="Verdana" font-size="12.5" lengthAdjust="spacing" textLength="104.3884" x="81.25" y="2381.2439">2. &#20294;&#23631;&#24149;&#20869;&#23481;&#19981;&#21464;</text><text fill="#FFFFFF" font-family="Verdana" font-size="12.5" lengthAdjust="spacing" textLength="159.3079" x="81.25" y="2396.4355">3. &#36755;&#20837;&#20173;&#21457;&#36865;&#21040;&#21407;Terminal</text><text fill="#FFFFFF" font-family="Verdana" font-size="12.5" lengthAdjust="spacing" textLength="162.7991" x="81.25" y="2411.6272">4. &#26080;&#27861;&#30475;&#21040;&#30446;&#26631;session&#20869;&#23481;</text><!--SRC=[bLP9Rzj65BxpLqpKYuL4AXpd9DX69H_QGu4ObeeY9uEMnX9HcHH8saPljkj5NkIbNfF8ybBRCb94NffwZQB_4cY6qgb_eO-SeKXgSL6U9Cx7jtxlU_DCJ-4nZE9O7KzZKHPqIKzZ5CMQ9YdoWA9YMhYXXLaKG7JxakPAzEzfklFHcBadsNbQM4TTWobHmwWxq4DA1MFrSaAh7y_I_85V4CIuhgZ8zvE6LHyIDMJ-43AYgajnAIFAEl95nzLHCOvHs3gFXj4tFqh9bFwzYh7iHSQmEYOf71Zp015g0vN5j0s6lqyOTcLgXp40y3SudLOcEqCZ71ff3st446d40CZNgYWdSViIS8E06i89GUZhGwIyIHPphAeX9Egw64-HZNBryOGk5cj7Az09utmPzVK9WbbP5EY72eRGTycKekdwh_mBfB6e0oC2r9TZQiK_e7VCcFrw0DxNfzxLAWlXJ8QiRTIdffa5UfEbqnU2a5ILyGoYsNMoT53_xHpwxwagWiSidMKhOWVCq-kAXlqS4Mb2uCImna1QKCnai9ne2rRnw71S6PVrvy-TCvuEJn7EeJDzrj7N_9m5anKT8zMCCeJeoaBzzonz_udkNB8q1F1c9qPEhcgVJkt41YNv5-R7oYW6Nhxkho2wUqYo2pHtJFCF97jZ8M8COTACWQgFkMgvOcoTazK3cmXECCe4z2eMVi5uQRqtdzwHVZPNg3lK- -r8V-E0CHySqx-scM-IlMoSUZXfl9lr-8FiB9_M7rSsKJkRksjwi4dUdjFy1rQMfZ2ZuJRnlVJ6fu8Nh69rMDD57GTrTm3c0zM0mfFr3MSkEmHdiRWt4B3YetjVZ9C7dyqH7sUX1yThNYtFa_avKhetNUrTE7wUEUcayQZkpiLutAI5l3SJw1ZDtXhvPIYmZznUrz_EagL3dvE9xOTU7v6rFRAoyy_dQMyk5fzWTfa6mf1Mxnv2Y9pDLClRv66hTd5ARa-hvVp_c5fEJoQphr0zFrKxcsQg0Ftc8i06CP8Un-uscoETmEt7q4rQJPp0KLdCQ2b5x_Atp4sriay-xZ4vCfPkwDHq2w5Q1lvdIK_PZMYUPqiDGoY9zTVgW8g1DLt-bfaUKLHLcGHni0ardD7LPh_cM48pjKb9ZwTYIeH_qsLvy3UQ2uj8cW0trk8mvTKrjc2XuK63VIKcJGa9ZdXDDNsXuhWYopYk3uegDB4zQ3oJ09zH7J8S-q6K4salC85TORN8WvkhxfPx6TkIk9_kt8DE_EVqWrKGL1LhgI4-lXrh5dNLp37GOUgXT9QT3kYW94-8QSciIpYTjhlU2XjLr3WUmXbHacr2kieL3JyfKvtBHJwReasoj-O2S0Jy2INYL6LYv2nr9WFMah4dlkbsHASUGMAiCNV7oLHVS8iz5tXoDMF56a06H7cvqR6r0SHsGQsoRbu2TczCvSuTDuG_W1Wf6Qg-a8DaQvK2NJs58myRIUw8vC_fRh7nRQCIdg05j_OZFk1ElA26DB_8797iFYakWpAofE3KInHdqTZVrOfdSDbWFMdlVo3oWd7A2QCdv5vyJYXs8aob-CvyM2FPNGYfuP9K_ZJcYfm0KAxOc-fTpjYwSfaqIaV6-dpRUAnRhBb1h6rHBM_MFwpKTqlrupr6jkwWzwvcKOTVDru6hILojKRkj_dAkil1AX5wWgZsPPFCdS8AOtSls47kwyEh86yxMq_6-n8zNE1BWbboWlqN]--></g></svg>