<svg xmlns="http://www.w3.org/2000/svg" xmlns:xlink="http://www.w3.org/1999/xlink" contentStyleType="text/css" data-diagram-type="DESCRIPTION" height="1167.7083px" preserveAspectRatio="none" style="width:3432px;height:1167px;" version="1.1" viewBox="0 0 3432 1167" width="3432.2917px" zoomAndPan="magnify"><title>tmux vs Ghostty&#26550;&#26500;&#23545;&#27604; - &#20026;&#20160;&#20040;&#25105;&#20204;&#30340;attach&#19981;&#24037;&#20316;</title><defs><linearGradient id="g1cssbd2997nqt0" x1="50%" x2="50%" y1="0%" y2="100%"><stop offset="0%" stop-color="#EDF0F2"/><stop offset="100%" stop-color="#E9ECEF"/></linearGradient><linearGradient id="g1cssbd2997nqt1" x1="50%" x2="50%" y1="0%" y2="100%"><stop offset="0%" stop-color="#59B6EC"/><stop offset="100%" stop-color="#2FA4E7"/></linearGradient><linearGradient id="g1cssbd2997nqt2" x1="50%" x2="50%" y1="0%" y2="100%"><stop offset="0%" stop-color="#35638F"/><stop offset="100%" stop-color="#033C73"/></linearGradient></defs><g><g class="title" data-source-line="2"><rect fill="url(#g1cssbd2997nqt0)" height="48.2361" rx="4.1667" ry="4.1667" style="stroke:#BABDBF;stroke-width:1.0417;" width="583.3008" x="1420.113" y="20.8333"/><text fill="#2FA4E7" font-family="Verdana" font-size="20.8333" font-weight="bold" lengthAdjust="spacing" textLength="560.3841" x="1431.5714" y="53.2369">tmux vs Ghostty&#26550;&#26500;&#23545;&#27604; - &#20026;&#20160;&#20040;&#25105;&#20204;&#30340;attach&#19981;&#24037;&#20316;</text></g><!--cluster tmux_success--><g class="cluster" data-entity="tmux_success" data-source-line="4" data-uid="ent0002" id="cluster_tmux_success"><path d="M20.8333,86.7778 L127.8544,86.7778 A6.25,6.25 0 0 1 132.0211,90.9444 L139.3127,118.6361 L973.9583,118.6361 A4.1667,4.1667 0 0 1 978.125,122.8027 L978.125,814.5694 A4.1667,4.1667 0 0 1 973.9583,818.7361 L20.8333,818.7361 A4.1667,4.1667 0 0 1 16.6667,814.5694 L16.6667,90.9444 A4.1667,4.1667 0 0 1 20.8333,86.7778" fill="none" style="stroke:#59B6EC;stroke-width:2.0833;"/><line style="stroke:#59B6EC;stroke-width:2.0833;" x1="16.6667" x2="139.3127" y1="118.6361" y2="118.6361"/><text fill="#2FA4E7" font-family="Verdana" font-size="12.5" font-weight="bold" lengthAdjust="spacing" textLength="98.6877" x="26.0417" y="106.6366">tmux&#30340;&#25104;&#21151;&#27169;&#24335;</text></g><!--cluster TmuxServer--><g class="cluster" data-entity="TmuxServer" data-source-line="6" data-uid="ent0003" id="cluster_TmuxServer"><rect fill="#90EE90" height="307.9063" rx="4.1667" ry="4.1667" style="stroke:#59B6EC;stroke-width:1.0417;" width="886.4583" x="50" y="477.4965"/><rect fill="#90EE90" height="10.4167" style="stroke:#59B6EC;stroke-width:1.0417;" width="15.625" x="915.625" y="482.7048"/><rect fill="#90EE90" height="2.0833" style="stroke:#59B6EC;stroke-width:1.0417;" width="4.1667" x="913.5417" y="484.7882"/><rect fill="#90EE90" height="2.0833" style="stroke:#59B6EC;stroke-width:1.0417;" width="4.1667" x="913.5417" y="488.9548"/><text fill="#FFFFFF" font-family="Verdana" font-size="12.5" font-weight="bold" lengthAdjust="spacing" textLength="154.3518" x="416.0533" y="508.8136">tmux Server (&#25345;&#20037;&#36827;&#31243;)</text></g><!--cluster SessionA--><g class="cluster" data-entity="SessionA" data-source-line="8" data-uid="ent0004" id="cluster_SessionA"><rect fill="#FFFF00" height="213.1146" rx="4.1667" ry="4.1667" style="stroke:#59B6EC;stroke-width:1.0417;" width="593.75" x="83.3333" y="538.9548"/><rect fill="#FFFF00" height="10.4167" style="stroke:#59B6EC;stroke-width:1.0417;" width="15.625" x="656.25" y="544.1632"/><rect fill="#FFFF00" height="2.0833" style="stroke:#59B6EC;stroke-width:1.0417;" width="4.1667" x="654.1667" y="546.2465"/><rect fill="#FFFF00" height="2.0833" style="stroke:#59B6EC;stroke-width:1.0417;" width="4.1667" x="654.1667" y="550.4132"/><text fill="#FFFFFF" font-family="Verdana" font-size="12.5" font-weight="bold" lengthAdjust="spacing" textLength="67.749" x="346.3338" y="570.272">Session A</text></g><!--cluster WinA1--><g class="cluster" data-entity="WinA1" data-source-line="9" data-uid="ent0005" id="cluster_WinA1"><rect fill="none" height="118.3229" rx="4.1667" ry="4.1667" style="stroke:#59B6EC;stroke-width:1.0417;" width="382.2917" x="116.6667" y="600.4132"/><rect fill="none" height="10.4167" style="stroke:#59B6EC;stroke-width:1.0417;" width="15.625" x="478.125" y="605.6215"/><rect fill="none" height="2.0833" style="stroke:#59B6EC;stroke-width:1.0417;" width="4.1667" x="476.0417" y="607.7048"/><rect fill="none" height="2.0833" style="stroke:#59B6EC;stroke-width:1.0417;" width="4.1667" x="476.0417" y="611.8715"/><text fill="#FFFFFF" font-family="Verdana" font-size="12.5" font-weight="bold" lengthAdjust="spacing" textLength="70.0073" x="272.8088" y="631.7303">Window 1</text></g><!--cluster SessionB--><g class="cluster" data-entity="SessionB" data-source-line="19" data-uid="ent0009" id="cluster_SessionB"><rect fill="#FFFF00" height="134.9896" rx="4.1667" ry="4.1667" style="stroke:#59B6EC;stroke-width:1.0417;" width="184.375" x="718.75" y="592.0798"/><rect fill="#FFFF00" height="10.4167" style="stroke:#59B6EC;stroke-width:1.0417;" width="15.625" x="882.2917" y="597.2882"/><rect fill="#FFFF00" height="2.0833" style="stroke:#59B6EC;stroke-width:1.0417;" width="4.1667" x="880.2083" y="599.3715"/><rect fill="#FFFF00" height="2.0833" style="stroke:#59B6EC;stroke-width:1.0417;" width="4.1667" x="880.2083" y="603.5382"/><text fill="#FFFFFF" font-family="Verdana" font-size="12.5" font-weight="bold" lengthAdjust="spacing" textLength="67.5659" x="777.1545" y="623.397">Session B</text></g><!--cluster Client1--><g class="cluster" data-entity="Client1" data-source-line="27" data-uid="ent0011" id="cluster_Client1"><rect fill="#ADD8E6" height="134.9896" rx="4.1667" ry="4.1667" style="stroke:#59B6EC;stroke-width:1.0417;" width="412.5" x="172.9167" y="156.5694"/><rect fill="#ADD8E6" height="10.4167" style="stroke:#59B6EC;stroke-width:1.0417;" width="15.625" x="564.5833" y="161.7778"/><rect fill="#ADD8E6" height="2.0833" style="stroke:#59B6EC;stroke-width:1.0417;" width="4.1667" x="562.5" y="163.8611"/><rect fill="#ADD8E6" height="2.0833" style="stroke:#59B6EC;stroke-width:1.0417;" width="4.1667" x="562.5" y="168.0278"/><text fill="#FFFFFF" font-family="Verdana" font-size="12.5" font-weight="bold" lengthAdjust="spacing" textLength="96.5088" x="330.9123" y="187.8866">Client 1 (&#20020;&#26102;)</text></g><!--cluster Client2--><g class="cluster" data-entity="Client2" data-source-line="32" data-uid="ent0014" id="cluster_Client2"><rect fill="#ADD8E6" height="134.9896" rx="4.1667" ry="4.1667" style="stroke:#59B6EC;stroke-width:1.0417;" width="275" x="627.0833" y="156.5694"/><rect fill="#ADD8E6" height="10.4167" style="stroke:#59B6EC;stroke-width:1.0417;" width="15.625" x="881.25" y="161.7778"/><rect fill="#ADD8E6" height="2.0833" style="stroke:#59B6EC;stroke-width:1.0417;" width="4.1667" x="879.1667" y="163.8611"/><rect fill="#ADD8E6" height="2.0833" style="stroke:#59B6EC;stroke-width:1.0417;" width="4.1667" x="879.1667" y="168.0278"/><text fill="#FFFFFF" font-family="Verdana" font-size="12.5" font-weight="bold" lengthAdjust="spacing" textLength="96.5088" x="716.3289" y="187.8866">Client 2 (&#20020;&#26102;)</text></g><!--cluster ghostty_fail--><g class="cluster" data-entity="ghostty_fail" data-source-line="41" data-uid="ent0018" id="cluster_ghostty_fail"><path d="M1259.375,469.1632 L1384.7738,469.1632 A6.25,6.25 0 0 1 1388.9404,473.3298 L1396.2321,501.0215 L3160.4167,501.0215 A4.1667,4.1667 0 0 1 3164.5833,505.1882 L3164.5833,1151.6319 A4.1667,4.1667 0 0 1 3160.4167,1155.7986 L1259.375,1155.7986 A4.1667,4.1667 0 0 1 1255.2083,1151.6319 L1255.2083,473.3298 A4.1667,4.1667 0 0 1 1259.375,469.1632" fill="none" style="stroke:#59B6EC;stroke-width:2.0833;"/><line style="stroke:#59B6EC;stroke-width:2.0833;" x1="1255.2083" x2="1396.2321" y1="501.0215" y2="501.0215"/><text fill="#2FA4E7" font-family="Verdana" font-size="12.5" font-weight="bold" lengthAdjust="spacing" textLength="117.0654" x="1264.5833" y="489.022">Ghostty&#30340;&#22833;&#36133;&#27169;&#24335;</text></g><!--cluster GhosttyApp--><g class="cluster" data-entity="GhosttyApp" data-source-line="43" data-uid="ent0019" id="cluster_GhosttyApp"><rect fill="#FFC0CB" height="591.8438" rx="4.1667" ry="4.1667" style="stroke:#59B6EC;stroke-width:1.0417;" width="1834.375" x="1288.5417" y="530.6215"/><rect fill="#FFC0CB" height="10.4167" style="stroke:#59B6EC;stroke-width:1.0417;" width="15.625" x="3102.0833" y="535.8298"/><rect fill="#FFC0CB" height="2.0833" style="stroke:#59B6EC;stroke-width:1.0417;" width="4.1667" x="3100" y="537.9132"/><rect fill="#FFC0CB" height="2.0833" style="stroke:#59B6EC;stroke-width:1.0417;" width="4.1667" x="3100" y="542.0798"/><text fill="#FFFFFF" font-family="Verdana" font-size="12.5" font-weight="bold" lengthAdjust="spacing" textLength="86.0229" x="2162.7177" y="561.9386">Ghostty App</text></g><!--cluster SurfaceA--><g class="cluster" data-entity="SurfaceA" data-source-line="45" data-uid="ent0020" id="cluster_SurfaceA"><rect fill="#FF0000" height="452.3333" rx="4.1667" ry="4.1667" style="stroke:#59B6EC;stroke-width:1.0417;" width="636.4583" x="1321.875" y="636.7986"/><rect fill="#FF0000" height="10.4167" style="stroke:#59B6EC;stroke-width:1.0417;" width="15.625" x="1937.5" y="642.0069"/><rect fill="#FF0000" height="2.0833" style="stroke:#59B6EC;stroke-width:1.0417;" width="4.1667" x="1935.4167" y="644.0903"/><rect fill="#FF0000" height="2.0833" style="stroke:#59B6EC;stroke-width:1.0417;" width="4.1667" x="1935.4167" y="648.2569"/><text fill="#FFFFFF" font-family="Verdana" font-size="12.5" font-weight="bold" lengthAdjust="spacing" textLength="110.1196" x="1585.0444" y="668.1157">Surface A (&#31383;&#21475;)</text></g><!--cluster TermioA--><g class="cluster" data-entity="TermioA" data-source-line="46" data-uid="ent0021" id="cluster_TermioA"><rect fill="none" height="134.9792" rx="4.1667" ry="4.1667" style="stroke:#59B6EC;stroke-width:1.0417;" width="383.3333" x="1363.5417" y="912.4861"/><rect fill="none" height="10.4167" style="stroke:#59B6EC;stroke-width:1.0417;" width="15.625" x="1726.0417" y="917.6944"/><rect fill="none" height="2.0833" style="stroke:#59B6EC;stroke-width:1.0417;" width="4.1667" x="1723.9583" y="919.7778"/><rect fill="none" height="2.0833" style="stroke:#59B6EC;stroke-width:1.0417;" width="4.1667" x="1723.9583" y="923.9444"/><text fill="#FFFFFF" font-family="Verdana" font-size="12.5" font-weight="bold" lengthAdjust="spacing" textLength="63.092" x="1523.6623" y="943.8032">Termio A</text></g><!--cluster SurfaceB--><g class="cluster" data-entity="SurfaceB" data-source-line="53" data-uid="ent0025" id="cluster_SurfaceB"><rect fill="#FF0000" height="452.3333" rx="4.1667" ry="4.1667" style="stroke:#59B6EC;stroke-width:1.0417;" width="466.6667" x="2000" y="636.7986"/><rect fill="#FF0000" height="10.4167" style="stroke:#59B6EC;stroke-width:1.0417;" width="15.625" x="2445.8333" y="642.0069"/><rect fill="#FF0000" height="2.0833" style="stroke:#59B6EC;stroke-width:1.0417;" width="4.1667" x="2443.75" y="644.0903"/><rect fill="#FF0000" height="2.0833" style="stroke:#59B6EC;stroke-width:1.0417;" width="4.1667" x="2443.75" y="648.2569"/><text fill="#FFFFFF" font-family="Verdana" font-size="12.5" font-weight="bold" lengthAdjust="spacing" textLength="109.9365" x="2178.3651" y="668.1157">Surface B (&#31383;&#21475;)</text></g><!--cluster TermioB--><g class="cluster" data-entity="TermioB" data-source-line="54" data-uid="ent0026" id="cluster_TermioB"><rect fill="none" height="134.9792" rx="4.1667" ry="4.1667" style="stroke:#59B6EC;stroke-width:1.0417;" width="383.3333" x="2041.6667" y="912.4861"/><rect fill="none" height="10.4167" style="stroke:#59B6EC;stroke-width:1.0417;" width="15.625" x="2404.1667" y="917.6944"/><rect fill="none" height="2.0833" style="stroke:#59B6EC;stroke-width:1.0417;" width="4.1667" x="2402.0833" y="919.7778"/><rect fill="none" height="2.0833" style="stroke:#59B6EC;stroke-width:1.0417;" width="4.1667" x="2402.0833" y="923.9444"/><text fill="#FFFFFF" font-family="Verdana" font-size="12.5" font-weight="bold" lengthAdjust="spacing" textLength="62.9089" x="2201.8789" y="943.8032">Termio B</text></g><!--cluster SessionCore--><g class="cluster" data-entity="SessionCore" data-source-line="61" data-uid="ent0029" id="cluster_SessionCore"><rect fill="#FFA500" height="455.3854" rx="4.1667" ry="4.1667" style="stroke:#59B6EC;stroke-width:1.0417;" width="439.5833" x="2650" y="592.0798"/><rect fill="#FFA500" height="10.4167" style="stroke:#59B6EC;stroke-width:1.0417;" width="15.625" x="3068.75" y="597.2882"/><rect fill="#FFA500" height="2.0833" style="stroke:#59B6EC;stroke-width:1.0417;" width="4.1667" x="3066.6667" y="599.3715"/><rect fill="#FFA500" height="2.0833" style="stroke:#59B6EC;stroke-width:1.0417;" width="4.1667" x="3066.6667" y="603.5382"/><text fill="#FFFFFF" font-family="Verdana" font-size="12.5" font-weight="bold" lengthAdjust="spacing" textLength="141.272" x="2799.1557" y="623.397">SessionCore (&#20266;&#31649;&#29702;)</text></g><!--entity Pane: PTY+Shell--><g class="entity" data-entity="Pane. PTY.Shell" data-source-line="10" data-uid="ent0006" id="entity_Pane. PTY.Shell"><rect fill="url(#g1cssbd2997nqt1)" height="56.8583" rx="4.1667" ry="4.1667" style="stroke:#2FA4E7;stroke-width:1.0417;" width="156.4779" x="133.2188" y="645.2048"/><rect fill="url(#g1cssbd2997nqt1)" height="10.4167" style="stroke:#2FA4E7;stroke-width:1.0417;" width="15.625" x="268.8633" y="650.4132"/><rect fill="url(#g1cssbd2997nqt1)" height="2.0833" style="stroke:#2FA4E7;stroke-width:1.0417;" width="4.1667" x="266.7799" y="652.4965"/><rect fill="url(#g1cssbd2997nqt1)" height="2.0833" style="stroke:#2FA4E7;stroke-width:1.0417;" width="4.1667" x="266.7799" y="656.6632"/><text fill="#FFFFFF" font-family="Verdana" font-size="12.5" lengthAdjust="spacing" textLength="104.3945" x="154.0521" y="683.8136">Pane: PTY+Shell</text></g><!--entity Screen: ????--><g class="entity" data-entity="Screen. ...." data-source-line="11" data-uid="ent0007" id="entity_Screen. ...."><rect fill="url(#g1cssbd2997nqt1)" height="56.8583" rx="4.1667" ry="4.1667" style="stroke:#2FA4E7;stroke-width:1.0417;" width="155.3487" x="326.4896" y="645.2048"/><rect fill="url(#g1cssbd2997nqt1)" height="10.4167" style="stroke:#2FA4E7;stroke-width:1.0417;" width="15.625" x="461.005" y="650.4132"/><rect fill="url(#g1cssbd2997nqt1)" height="2.0833" style="stroke:#2FA4E7;stroke-width:1.0417;" width="4.1667" x="458.9216" y="652.4965"/><rect fill="url(#g1cssbd2997nqt1)" height="2.0833" style="stroke:#2FA4E7;stroke-width:1.0417;" width="4.1667" x="458.9216" y="656.6632"/><text fill="#FFFFFF" font-family="Verdana" font-size="12.5" lengthAdjust="spacing" textLength="103.2654" x="347.3229" y="683.8136">Screen: &#20869;&#23481;&#32531;&#20914;</text></g><!--entity WinA2--><g class="entity" data-entity="WinA2" data-source-line="13" data-uid="ent0008" id="entity_WinA2"><rect fill="url(#g1cssbd2997nqt1)" height="56.8583" rx="4.1667" ry="4.1667" style="stroke:#2FA4E7;stroke-width:1.0417;" width="113.7288" x="518.1354" y="645.2048"/><rect fill="url(#g1cssbd2997nqt1)" height="10.4167" style="stroke:#2FA4E7;stroke-width:1.0417;" width="15.625" x="611.0309" y="650.4132"/><rect fill="url(#g1cssbd2997nqt1)" height="2.0833" style="stroke:#2FA4E7;stroke-width:1.0417;" width="4.1667" x="608.9476" y="652.4965"/><rect fill="url(#g1cssbd2997nqt1)" height="2.0833" style="stroke:#2FA4E7;stroke-width:1.0417;" width="4.1667" x="608.9476" y="656.6632"/><text fill="#FFFFFF" font-family="Verdana" font-size="12.5" lengthAdjust="spacing" textLength="61.6455" x="538.9688" y="683.8136">Window 2</text></g><!--entity WinB1--><g class="entity" data-entity="WinB1" data-source-line="20" data-uid="ent0010" id="entity_WinB1"><rect fill="url(#g1cssbd2997nqt1)" height="56.8583" rx="4.1667" ry="4.1667" style="stroke:#2FA4E7;stroke-width:1.0417;" width="113.7288" x="744.1771" y="645.2048"/><rect fill="url(#g1cssbd2997nqt1)" height="10.4167" style="stroke:#2FA4E7;stroke-width:1.0417;" width="15.625" x="837.0726" y="650.4132"/><rect fill="url(#g1cssbd2997nqt1)" height="2.0833" style="stroke:#2FA4E7;stroke-width:1.0417;" width="4.1667" x="834.9893" y="652.4965"/><rect fill="url(#g1cssbd2997nqt1)" height="2.0833" style="stroke:#2FA4E7;stroke-width:1.0417;" width="4.1667" x="834.9893" y="656.6632"/><text fill="#FFFFFF" font-family="Verdana" font-size="12.5" lengthAdjust="spacing" textLength="61.6455" x="765.0104" y="683.8136">Window 1</text></g><!--entity TTY??--><g class="entity" data-entity="TTY.." data-source-line="28" data-uid="ent0012" id="entity_TTY.."><rect fill="url(#g1cssbd2997nqt1)" height="56.8583" rx="4.1667" ry="4.1667" style="stroke:#2FA4E7;stroke-width:1.0417;" width="100.179" x="197.8229" y="209.6944"/><rect fill="url(#g1cssbd2997nqt1)" height="10.4167" style="stroke:#2FA4E7;stroke-width:1.0417;" width="15.625" x="277.1686" y="214.9028"/><rect fill="url(#g1cssbd2997nqt1)" height="2.0833" style="stroke:#2FA4E7;stroke-width:1.0417;" width="4.1667" x="275.0853" y="216.9861"/><rect fill="url(#g1cssbd2997nqt1)" height="2.0833" style="stroke:#2FA4E7;stroke-width:1.0417;" width="4.1667" x="275.0853" y="221.1528"/><text fill="#FFFFFF" font-family="Verdana" font-size="12.5" lengthAdjust="spacing" textLength="48.0957" x="218.6563" y="248.3032">TTY&#36755;&#20986;</text></g><!--entity session?? ? Session A--><g class="entity" data-entity="session.. . Session A" data-source-line="29" data-uid="ent0013" id="entity_session.. . Session A"><rect fill="url(#g1cssbd2997nqt1)" height="56.8583" rx="4.1667" ry="4.1667" style="stroke:#2FA4E7;stroke-width:1.0417;" width="205.1656" x="334.9167" y="209.6944"/><rect fill="url(#g1cssbd2997nqt1)" height="10.4167" style="stroke:#2FA4E7;stroke-width:1.0417;" width="15.625" x="519.2489" y="214.9028"/><rect fill="url(#g1cssbd2997nqt1)" height="2.0833" style="stroke:#2FA4E7;stroke-width:1.0417;" width="4.1667" x="517.1656" y="216.9861"/><rect fill="url(#g1cssbd2997nqt1)" height="2.0833" style="stroke:#2FA4E7;stroke-width:1.0417;" width="4.1667" x="517.1656" y="221.1528"/><text fill="#FFFFFF" font-family="Verdana" font-size="12.5" lengthAdjust="spacing" textLength="153.0823" x="355.75" y="248.3032">session&#25351;&#38024; &#8594; Session A</text></g><!--entity session?? ? Session B--><g class="entity" data-entity="session.. . Session B" data-source-line="34" data-uid="ent0015" id="entity_session.. . Session B"><rect fill="url(#g1cssbd2997nqt1)" height="56.8583" rx="4.1667" ry="4.1667" style="stroke:#2FA4E7;stroke-width:1.0417;" width="205.19" x="651.5729" y="209.6944"/><rect fill="url(#g1cssbd2997nqt1)" height="10.4167" style="stroke:#2FA4E7;stroke-width:1.0417;" width="15.625" x="835.9296" y="214.9028"/><rect fill="url(#g1cssbd2997nqt1)" height="2.0833" style="stroke:#2FA4E7;stroke-width:1.0417;" width="4.1667" x="833.8463" y="216.9861"/><rect fill="url(#g1cssbd2997nqt1)" height="2.0833" style="stroke:#2FA4E7;stroke-width:1.0417;" width="4.1667" x="833.8463" y="221.1528"/><text fill="#FFFFFF" font-family="Verdana" font-size="12.5" lengthAdjust="spacing" textLength="153.1067" x="672.4063" y="248.3032">session&#25351;&#38024; &#8594; Session B</text></g><!--entity session_core??--><g class="entity" data-entity="session_core.." data-source-line="50" data-uid="ent0024" id="entity_session_core.."><rect fill="url(#g1cssbd2997nqt1)" height="56.8583" rx="4.1667" ry="4.1667" style="stroke:#2FA4E7;stroke-width:1.0417;" width="157.8206" x="1775.2604" y="965.6111"/><rect fill="url(#g1cssbd2997nqt1)" height="10.4167" style="stroke:#2FA4E7;stroke-width:1.0417;" width="15.625" x="1912.2477" y="970.8194"/><rect fill="url(#g1cssbd2997nqt1)" height="2.0833" style="stroke:#2FA4E7;stroke-width:1.0417;" width="4.1667" x="1910.1644" y="972.9028"/><rect fill="url(#g1cssbd2997nqt1)" height="2.0833" style="stroke:#2FA4E7;stroke-width:1.0417;" width="4.1667" x="1910.1644" y="977.0694"/><text fill="#FFFFFF" font-family="Verdana" font-size="12.5" lengthAdjust="spacing" textLength="105.7373" x="1796.0938" y="1004.2199">session_core&#25351;&#38024;</text></g><!--entity Terminal A: ??--><g class="entity" data-entity="Terminal A. .." data-source-line="47" data-uid="ent0022" id="entity_Terminal A. .."><rect fill="url(#g1cssbd2997nqt1)" height="56.8583" rx="4.1667" ry="4.1667" style="stroke:#2FA4E7;stroke-width:1.0417;" width="155.013" x="1388.1146" y="965.6111"/><rect fill="url(#g1cssbd2997nqt1)" height="10.4167" style="stroke:#2FA4E7;stroke-width:1.0417;" width="15.625" x="1522.2943" y="970.8194"/><rect fill="url(#g1cssbd2997nqt1)" height="2.0833" style="stroke:#2FA4E7;stroke-width:1.0417;" width="4.1667" x="1520.2109" y="972.9028"/><rect fill="url(#g1cssbd2997nqt1)" height="2.0833" style="stroke:#2FA4E7;stroke-width:1.0417;" width="4.1667" x="1520.2109" y="977.0694"/><text fill="#FFFFFF" font-family="Verdana" font-size="12.5" lengthAdjust="spacing" textLength="102.9297" x="1408.9479" y="1004.2199">Terminal A: &#29366;&#24577;</text></g><!--entity PTY A: ??--><g class="entity" data-entity="PTY A. .." data-source-line="48" data-uid="ent0023" id="entity_PTY A. .."><rect fill="url(#g1cssbd2997nqt1)" height="56.8583" rx="4.1667" ry="4.1667" style="stroke:#2FA4E7;stroke-width:1.0417;" width="123.0245" x="1579.1146" y="965.6111"/><rect fill="url(#g1cssbd2997nqt1)" height="10.4167" style="stroke:#2FA4E7;stroke-width:1.0417;" width="15.625" x="1681.3057" y="970.8194"/><rect fill="url(#g1cssbd2997nqt1)" height="2.0833" style="stroke:#2FA4E7;stroke-width:1.0417;" width="4.1667" x="1679.2224" y="972.9028"/><rect fill="url(#g1cssbd2997nqt1)" height="2.0833" style="stroke:#2FA4E7;stroke-width:1.0417;" width="4.1667" x="1679.2224" y="977.0694"/><text fill="#FFFFFF" font-family="Verdana" font-size="12.5" lengthAdjust="spacing" textLength="70.9412" x="1599.9479" y="1004.2199">PTY A: &#36827;&#31243;</text></g><!--entity Terminal B: ??--><g class="entity" data-entity="Terminal B. .." data-source-line="55" data-uid="ent0027" id="entity_Terminal B. .."><rect fill="url(#g1cssbd2997nqt1)" height="56.8583" rx="4.1667" ry="4.1667" style="stroke:#2FA4E7;stroke-width:1.0417;" width="155.0374" x="2066.2292" y="965.6111"/><rect fill="url(#g1cssbd2997nqt1)" height="10.4167" style="stroke:#2FA4E7;stroke-width:1.0417;" width="15.625" x="2200.4333" y="970.8194"/><rect fill="url(#g1cssbd2997nqt1)" height="2.0833" style="stroke:#2FA4E7;stroke-width:1.0417;" width="4.1667" x="2198.3499" y="972.9028"/><rect fill="url(#g1cssbd2997nqt1)" height="2.0833" style="stroke:#2FA4E7;stroke-width:1.0417;" width="4.1667" x="2198.3499" y="977.0694"/><text fill="#FFFFFF" font-family="Verdana" font-size="12.5" lengthAdjust="spacing" textLength="102.9541" x="2087.0625" y="1004.2199">Terminal B: &#29366;&#24577;</text></g><!--entity PTY B: ??--><g class="entity" data-entity="PTY B. .." data-source-line="56" data-uid="ent0028" id="entity_PTY B. .."><rect fill="url(#g1cssbd2997nqt1)" height="56.8583" rx="4.1667" ry="4.1667" style="stroke:#2FA4E7;stroke-width:1.0417;" width="123.0489" x="2257.2292" y="965.6111"/><rect fill="url(#g1cssbd2997nqt1)" height="10.4167" style="stroke:#2FA4E7;stroke-width:1.0417;" width="15.625" x="2359.4447" y="970.8194"/><rect fill="url(#g1cssbd2997nqt1)" height="2.0833" style="stroke:#2FA4E7;stroke-width:1.0417;" width="4.1667" x="2357.3614" y="972.9028"/><rect fill="url(#g1cssbd2997nqt1)" height="2.0833" style="stroke:#2FA4E7;stroke-width:1.0417;" width="4.1667" x="2357.3614" y="977.0694"/><text fill="#FFFFFF" font-family="Verdana" font-size="12.5" lengthAdjust="spacing" textLength="70.9656" x="2278.0625" y="1004.2199">PTY B: &#36827;&#31243;</text></g><!--entity terminal_ref: ????--><g class="entity" data-entity="terminal_ref. ...." data-source-line="62" data-uid="ent0030" id="entity_terminal_ref. ...."><rect fill="url(#g1cssbd2997nqt1)" height="56.8583" rx="4.1667" ry="4.1667" style="stroke:#2FA4E7;stroke-width:1.0417;" width="189.4185" x="2694.875" y="645.2048"/><rect fill="url(#g1cssbd2997nqt1)" height="10.4167" style="stroke:#2FA4E7;stroke-width:1.0417;" width="15.625" x="2863.4602" y="650.4132"/><rect fill="url(#g1cssbd2997nqt1)" height="2.0833" style="stroke:#2FA4E7;stroke-width:1.0417;" width="4.1667" x="2861.3769" y="652.4965"/><rect fill="url(#g1cssbd2997nqt1)" height="2.0833" style="stroke:#2FA4E7;stroke-width:1.0417;" width="4.1667" x="2861.3769" y="656.6632"/><text fill="#FFFFFF" font-family="Verdana" font-size="12.5" lengthAdjust="spacing" textLength="137.3352" x="2715.7083" y="683.8136">terminal_ref: &#21482;&#26159;&#24341;&#29992;</text></g><!--entity ???Terminal--><g class="entity" data-entity="...Terminal" data-source-line="63" data-uid="ent0031" id="entity_...Terminal"><rect fill="url(#g1cssbd2997nqt1)" height="56.8583" rx="4.1667" ry="4.1667" style="stroke:#2FA4E7;stroke-width:1.0417;" width="144.5028" x="2920.4583" y="645.2048"/><rect fill="url(#g1cssbd2997nqt1)" height="10.4167" style="stroke:#2FA4E7;stroke-width:1.0417;" width="15.625" x="3044.1278" y="650.4132"/><rect fill="url(#g1cssbd2997nqt1)" height="2.0833" style="stroke:#2FA4E7;stroke-width:1.0417;" width="4.1667" x="3042.0444" y="652.4965"/><rect fill="url(#g1cssbd2997nqt1)" height="2.0833" style="stroke:#2FA4E7;stroke-width:1.0417;" width="4.1667" x="3042.0444" y="656.6632"/><text fill="#FFFFFF" font-family="Verdana" font-size="12.5" lengthAdjust="spacing" textLength="92.4194" x="2941.2917" y="683.8136">&#19981;&#25317;&#26377;Terminal</text></g><!--entity ???PTY--><g class="entity" data-entity="...PTY" data-source-line="64" data-uid="ent0032" id="entity_...PTY"><rect fill="url(#g1cssbd2997nqt1)" height="56.8583" rx="4.1667" ry="4.1667" style="stroke:#2FA4E7;stroke-width:1.0417;" width="112.5142" x="2733.3229" y="965.6111"/><rect fill="url(#g1cssbd2997nqt1)" height="10.4167" style="stroke:#2FA4E7;stroke-width:1.0417;" width="15.625" x="2825.0038" y="970.8194"/><rect fill="url(#g1cssbd2997nqt1)" height="2.0833" style="stroke:#2FA4E7;stroke-width:1.0417;" width="4.1667" x="2822.9205" y="972.9028"/><rect fill="url(#g1cssbd2997nqt1)" height="2.0833" style="stroke:#2FA4E7;stroke-width:1.0417;" width="4.1667" x="2822.9205" y="977.0694"/><text fill="#FFFFFF" font-family="Verdana" font-size="12.5" lengthAdjust="spacing" textLength="60.4309" x="2754.1563" y="1004.2199">&#19981;&#25317;&#26377;PTY</text></g><g class="entity" data-entity="GMN37" data-source-line="75" data-uid="ent0038" id="entity_GMN37"><path d="M1003.5313,621.809 L1003.5313,725.4589 A4.1667,4.1667 0 0 0 1007.6979,729.6256 L1225.6423,729.6256 A4.1667,4.1667 0 0 0 1229.8089,725.4589 L1229.8089,628.059 L1219.3923,617.6423 L1007.6979,617.6423 A4.1667,4.1667 0 0 0 1003.5313,621.809" fill="url(#g1cssbd2997nqt2)" style="stroke:#033C73;stroke-width:1.0417;"/><path d="M1219.3923,617.6423 L1219.3923,625.9757 A2.0833,2.0833 0 0 0 1221.4756,628.059 L1229.8089,628.059 L1219.3923,617.6423" fill="url(#g1cssbd2997nqt2)" style="stroke:#033C73;stroke-width:1.0417;"/><text fill="#FFFFFF" font-family="Verdana" font-size="12.5" font-weight="bold" lengthAdjust="spacing" textLength="111.1877" x="1014.9896" y="640.6261">tmux&#25104;&#21151;&#30340;&#21407;&#22240;&#65306;</text><text fill="#FFFFFF" font-family="Verdana" font-size="12.5" lengthAdjust="spacing" textLength="167.3747" x="1014.9896" y="655.8178">&#9989; Session&#29420;&#31435;&#20110;Client&#23384;&#22312;</text><text fill="#FFFFFF" font-family="Verdana" font-size="12.5" lengthAdjust="spacing" textLength="193.986" x="1014.9896" y="671.0094">&#9989; Client&#21487;&#20197;&#38543;&#26102;attach/detach</text><text fill="#FFFFFF" font-family="Verdana" font-size="12.5" lengthAdjust="spacing" textLength="192.3747" x="1014.9896" y="686.2011">&#9989; &#22810;&#20010;Client&#21487;&#26597;&#30475;&#21516;&#19968;Session</text><text fill="#FFFFFF" font-family="Verdana" font-size="12.5" lengthAdjust="spacing" textLength="192.3747" x="1014.9896" y="701.3927">&#9989; Client&#26029;&#24320;&#65292;Session&#32487;&#32493;&#36816;&#34892;</text><text fill="#FFFFFF" font-family="Verdana" font-size="12.5" lengthAdjust="spacing" textLength="160.3495" x="1014.9896" y="716.5844">&#9989; attach&#21482;&#26159;&#26356;&#26032;&#19968;&#20010;&#25351;&#38024;</text></g><g class="entity" data-entity="GMN40" data-source-line="84" data-uid="ent0041" id="entity_GMN40"><path d="M3190.0104,942.2153 L3190.0104,1045.8652 A4.1667,4.1667 0 0 0 3194.1771,1050.0318 L3416.2352,1050.0318 A4.1667,4.1667 0 0 0 3420.4019,1045.8652 L3420.4019,948.4653 L3409.9852,938.0486 L3194.1771,938.0486 A4.1667,4.1667 0 0 0 3190.0104,942.2153" fill="url(#g1cssbd2997nqt2)" style="stroke:#033C73;stroke-width:1.0417;"/><path d="M3409.9852,938.0486 L3409.9852,946.3819 A2.0833,2.0833 0 0 0 3412.0685,948.4653 L3420.4019,948.4653 L3409.9852,938.0486" fill="url(#g1cssbd2997nqt2)" style="stroke:#033C73;stroke-width:1.0417;"/><text fill="#FFFFFF" font-family="Verdana" font-size="12.5" font-weight="bold" lengthAdjust="spacing" textLength="129.5654" x="3201.4688" y="961.0324">Ghostty&#22833;&#36133;&#30340;&#21407;&#22240;&#65306;</text><text fill="#FFFFFF" font-family="Verdana" font-size="12.5" lengthAdjust="spacing" textLength="161.1308" x="3201.4688" y="976.224">&#10060; Terminal&#34987;Surface&#25317;&#26377;</text><text fill="#FFFFFF" font-family="Verdana" font-size="12.5" lengthAdjust="spacing" textLength="198.0998" x="3201.4688" y="991.4157">&#10060; SessionCore&#21482;&#26377;&#24341;&#29992;&#65292;&#19981;&#25317;&#26377;</text><text fill="#FFFFFF" font-family="Verdana" font-size="12.5" lengthAdjust="spacing" textLength="186.1308" x="3201.4688" y="1006.6073">&#10060; Surface&#20851;&#38381;&#65292;Terminal&#38144;&#27585;</text><text fill="#FFFFFF" font-family="Verdana" font-size="12.5" lengthAdjust="spacing" textLength="150.651" x="3201.4688" y="1021.799">&#10060; &#26080;&#27861;&#23454;&#29616;&#30495;&#27491;&#30340;detach</text><text fill="#FFFFFF" font-family="Verdana" font-size="12.5" lengthAdjust="spacing" textLength="185.3495" x="3201.4688" y="1036.9906">&#10060; attach&#38656;&#35201;&#22797;&#26434;&#30340;&#25152;&#26377;&#26435;&#36716;&#31227;</text></g><g class="entity" data-entity="comparison" data-source-line="93" data-uid="ent0043" id="entity_comparison"><path d="M1006.6458,94.5903 L1006.6458,381.665 A4.1667,4.1667 0 0 0 1010.8125,385.8317 L1372.5231,385.8317 A4.1667,4.1667 0 0 0 1376.6898,381.665 L1376.6898,100.8403 L1366.2731,90.4236 L1010.8125,90.4236 A4.1667,4.1667 0 0 0 1006.6458,94.5903" fill="url(#g1cssbd2997nqt2)" style="stroke:#033C73;stroke-width:1.0417;"/><path d="M1366.2731,90.4236 L1366.2731,98.7569 A2.0833,2.0833 0 0 0 1368.3564,100.8403 L1376.6898,100.8403 L1366.2731,90.4236" fill="url(#g1cssbd2997nqt2)" style="stroke:#033C73;stroke-width:1.0417;"/><text fill="#FFFFFF" font-family="Verdana" font-size="12.5" font-weight="bold" lengthAdjust="spacing" textLength="62.5" x="1018.1042" y="113.4074">&#20851;&#38190;&#23545;&#27604;&#65306;</text><text fill="#FFFFFF" font-family="Verdana" font-size="12.5" lengthAdjust="spacing" textLength="4.3945" x="1018.1042" y="128.599">&#160;</text><text fill="#FFFFFF" font-family="Verdana" font-size="12.5" lengthAdjust="spacing" textLength="25" x="1027.707" y="151.0824">&#29305;&#24615;</text><text fill="#FFFFFF" font-family="Verdana" font-size="12.5" lengthAdjust="spacing" textLength="32.3914" x="1139.3322" y="151.0824">tmux</text><text fill="#FFFFFF" font-family="Verdana" font-size="12.5" lengthAdjust="spacing" textLength="48.9502" x="1252.5422" y="151.0824">Ghostty</text><text fill="#FFFFFF" font-family="Verdana" font-size="12.5" lengthAdjust="spacing" textLength="17.0288" x="1027.707" y="176.6907">---</text><text fill="#FFFFFF" font-family="Verdana" font-size="12.5" lengthAdjust="spacing" textLength="17.0288" x="1139.3322" y="176.6907">---</text><text fill="#FFFFFF" font-family="Verdana" font-size="12.5" lengthAdjust="spacing" textLength="17.0288" x="1252.5422" y="176.6907">---</text><text fill="#FFFFFF" font-family="Verdana" font-size="12.5" lengthAdjust="spacing" textLength="85.4431" x="1027.707" y="202.299">Session&#25345;&#20037;&#24615;</text><text fill="#FFFFFF" font-family="Verdana" font-size="12.5" lengthAdjust="spacing" textLength="71.0612" x="1139.3322" y="202.299">&#9989; &#29420;&#31435;&#36827;&#31243;</text><text fill="#FFFFFF" font-family="Verdana" font-size="12.5" lengthAdjust="spacing" textLength="93.7113" x="1252.5422" y="202.299">&#10060; &#20381;&#36182;Surface</text><text fill="#FFFFFF" font-family="Verdana" font-size="12.5" lengthAdjust="spacing" textLength="92.4194" x="1027.707" y="227.9073">Terminal&#25152;&#26377;&#26435;</text><text fill="#FFFFFF" font-family="Verdana" font-size="12.5" lengthAdjust="spacing" textLength="94.0043" x="1139.3322" y="227.9073">&#9989; Session&#25317;&#26377;</text><text fill="#FFFFFF" font-family="Verdana" font-size="12.5" lengthAdjust="spacing" textLength="93.7113" x="1252.5422" y="227.9073">&#10060; Surface&#25317;&#26377;</text><text fill="#FFFFFF" font-family="Verdana" font-size="12.5" lengthAdjust="spacing" textLength="64.2883" x="1027.707" y="253.5156">attach&#26426;&#21046;</text><text fill="#FFFFFF" font-family="Verdana" font-size="12.5" lengthAdjust="spacing" textLength="71.0612" x="1139.3322" y="253.5156">&#9989; &#25351;&#38024;&#20999;&#25442;</text><text fill="#FFFFFF" font-family="Verdana" font-size="12.5" lengthAdjust="spacing" textLength="71.0612" x="1252.5422" y="253.5156">&#10060; &#22797;&#26434;&#36716;&#31227;</text><text fill="#FFFFFF" font-family="Verdana" font-size="12.5" lengthAdjust="spacing" textLength="79.5898" x="1027.707" y="279.1239">detach&#21518;&#29366;&#24577;</text><text fill="#FFFFFF" font-family="Verdana" font-size="12.5" lengthAdjust="spacing" textLength="71.0612" x="1139.3322" y="279.1239">&#9989; &#32487;&#32493;&#36816;&#34892;</text><text fill="#FFFFFF" font-family="Verdana" font-size="12.5" lengthAdjust="spacing" textLength="58.5612" x="1252.5422" y="279.1239">&#10060; &#34987;&#38144;&#27585;</text><text fill="#FFFFFF" font-family="Verdana" font-size="12.5" lengthAdjust="spacing" textLength="73.3704" x="1027.707" y="304.7323">&#22810;Client&#25903;&#25345;</text><text fill="#FFFFFF" font-family="Verdana" font-size="12.5" lengthAdjust="spacing" textLength="71.0612" x="1139.3322" y="304.7323">&#9989; &#21407;&#29983;&#25903;&#25345;</text><text fill="#FFFFFF" font-family="Verdana" font-size="12.5" lengthAdjust="spacing" textLength="71.0612" x="1252.5422" y="304.7323">&#10060; &#26080;&#27861;&#23454;&#29616;</text><line style="stroke:#FFFFFF;stroke-width:1.0417;" x1="1018.1042" x2="1355.8564" y1="133.3069" y2="133.3069"/><line style="stroke:#FFFFFF;stroke-width:1.0417;" x1="1018.1042" x2="1355.8564" y1="158.9152" y2="158.9152"/><line style="stroke:#FFFFFF;stroke-width:1.0417;" x1="1018.1042" x2="1355.8564" y1="184.5235" y2="184.5235"/><line style="stroke:#FFFFFF;stroke-width:1.0417;" x1="1018.1042" x2="1355.8564" y1="210.1318" y2="210.1318"/><line style="stroke:#FFFFFF;stroke-width:1.0417;" x1="1018.1042" x2="1355.8564" y1="235.7402" y2="235.7402"/><line style="stroke:#FFFFFF;stroke-width:1.0417;" x1="1018.1042" x2="1355.8564" y1="261.3485" y2="261.3485"/><line style="stroke:#FFFFFF;stroke-width:1.0417;" x1="1018.1042" x2="1355.8564" y1="286.9568" y2="286.9568"/><line style="stroke:#FFFFFF;stroke-width:1.0417;" x1="1018.1042" x2="1355.8564" y1="312.5651" y2="312.5651"/><line style="stroke:#FFFFFF;stroke-width:1.0417;" x1="1018.1042" x2="1018.1042" y1="133.3069" y2="312.5651"/><line style="stroke:#FFFFFF;stroke-width:1.0417;" x1="1129.7293" x2="1129.7293" y1="133.3069" y2="312.5651"/><line style="stroke:#FFFFFF;stroke-width:1.0417;" x1="1242.9394" x2="1242.9394" y1="133.3069" y2="312.5651"/><line style="stroke:#FFFFFF;stroke-width:1.0417;" x1="1355.8564" x2="1355.8564" y1="133.3069" y2="312.5651"/><text fill="#FFFFFF" font-family="Verdana" font-size="12.5" lengthAdjust="spacing" textLength="4.3945" x="1018.1042" y="327.2156">&#160;</text><text fill="#FFFFFF" font-family="Verdana" font-size="12.5" font-weight="bold" lengthAdjust="spacing" textLength="62.5" x="1018.1042" y="342.4072">&#35299;&#20915;&#26041;&#26696;&#65306;</text><text fill="#FFFFFF" font-family="Verdana" font-size="12.5" lengthAdjust="spacing" textLength="242.3889" x="1018.1042" y="357.5989">&#24517;&#39035;&#35753;SessionCore&#25317;&#26377;Terminal&#21644;PTY&#65292;</text><text fill="#FFFFFF" font-family="Verdana" font-size="12.5" lengthAdjust="spacing" textLength="172.6501" x="1018.1042" y="372.7905">Surface&#21482;&#33021;&#20511;&#29992;&#65292;&#19981;&#33021;&#25317;&#26377;&#65281;</text></g><!--link Client1 to SessionA--><g class="link" data-entity-1="Client1" data-entity-2="SessionA" data-source-line="37" data-uid="lnk16" id="link_Client1_SessionA"><path d="M585.4306,258.7606 C585.5096,258.9507 585.589,259.142 585.6688,259.3345 C585.8285,259.7194 585.9899,260.1092 586.1532,260.5038 C591.3766,273.1303 598.4069,290.6404 606.0221,311.0525 C621.2526,351.8767 638.8229,404.309 648.9583,452.4965 C653.9349,476.1501 657.6608,501.4913 660.4502,526.2569 C660.7989,529.3526 661.1329,532.4393 661.4529,535.5126 C661.5329,536.281 660.9773,530.8308 661.0555,531.5973" fill="none" id="Client1-to-SessionA" style="stroke:#2FA4E7;stroke-width:3.125;"/><polygon fill="#2FA4E7" points="661.6903,537.815,664.8833,528.0653,661.1613,532.6336,656.593,528.9117,661.6903,537.815" style="stroke:#2FA4E7;stroke-width:3.125;"/><text fill="#343A40" font-family="Verdana" font-size="12.5" lengthAdjust="spacing" textLength="64.2883" x="652.5938" y="435.897">attach&#26597;&#30475;</text></g><!--link Client2 to SessionB--><g class="link" data-entity-1="Client2" data-entity-2="SessionB" data-source-line="38" data-uid="lnk17" id="link_Client2_SessionB"><path d="M893.8796,292.5645 C893.881,293.1352 893.8823,293.7096 893.8837,294.2874 C893.8948,298.9105 893.9065,303.7607 893.9186,308.8127 C894.0156,349.2292 894.1432,402.5662 894.2708,455.9014 C894.3346,482.5691 894.3984,509.2363 894.4584,534.2879 C894.4884,546.8137 894.5174,558.9356 894.545,570.4516 C894.5588,576.2096 894.5723,581.8162 894.5853,587.2461 C894.5886,588.6036 894.5768,583.7 894.58,585.035" fill="none" id="Client2-to-SessionB" style="stroke:#2FA4E7;stroke-width:3.125;"/><polygon fill="#2FA4E7" points="894.595,591.285,898.7391,581.9,894.5825,586.0766,890.4058,581.92,894.595,591.285" style="stroke:#2FA4E7;stroke-width:3.125;"/><text fill="#343A40" font-family="Verdana" font-size="12.5" lengthAdjust="spacing" textLength="64.2883" x="900.4896" y="435.897">attach&#26597;&#30475;</text></g><!--link SurfaceA to TermioA--><g class="link" data-entity-1="SurfaceA" data-entity-2="TermioA" data-source-line="68" data-uid="lnk33" id="link_SurfaceA_TermioA"><path d="M1738.5417,674.7361 C1738.5417,677.1632 1738.5417,755.5095 1738.5417,833.8507 C1738.5417,853.436 1738.5417,873.0209 1738.5417,891.4192 C1738.5417,896.0188 1738.5417,900.5442 1738.5417,904.9769 C1738.5417,907.1933 1738.5417,903.1365 1738.5417,905.3042" fill="none" id="SurfaceA-to-TermioA" style="stroke:#2FA4E7;stroke-width:3.125;"/><polygon fill="#2FA4E7" points="1738.5417,911.5542,1742.7083,902.1792,1738.5417,906.3458,1734.375,902.1792,1738.5417,911.5542" style="stroke:#2FA4E7;stroke-width:3.125;"/><text fill="#343A40" font-family="Verdana" font-size="12.5" lengthAdjust="spacing" textLength="25" x="1744.7917" y="862.5532">&#25317;&#26377;</text></g><!--link SurfaceB to TermioB--><g class="link" data-entity-1="SurfaceB" data-entity-2="TermioB" data-source-line="69" data-uid="lnk34" id="link_SurfaceB_TermioB"><path d="M2416.6667,674.7361 C2416.6667,677.1632 2416.6667,755.5095 2416.6667,833.8507 C2416.6667,853.436 2416.6667,873.0209 2416.6667,891.4192 C2416.6667,896.0188 2416.6667,900.5442 2416.6667,904.9769 C2416.6667,907.1933 2416.6667,903.1365 2416.6667,905.3042" fill="none" id="SurfaceB-to-TermioB" style="stroke:#2FA4E7;stroke-width:3.125;"/><polygon fill="#2FA4E7" points="2416.6667,911.5542,2420.8333,902.1792,2416.6667,906.3458,2412.5,902.1792,2416.6667,911.5542" style="stroke:#2FA4E7;stroke-width:3.125;"/><text fill="#343A40" font-family="Verdana" font-size="12.5" lengthAdjust="spacing" textLength="25" x="2422.9167" y="862.5532">&#25317;&#26377;</text></g><!--link SessionCore to TermioA--><g class="link" data-entity-1="SessionCore" data-entity-2="TermioA" data-source-line="70" data-uid="lnk35" id="link_SessionCore_TermioA"><path d="M2649.9106,685.7553 C2649.3746,686.4539 2648.8156,687.1816 2648.2342,687.9371 C2647.0714,689.4482 2645.8193,691.0708 2644.4839,692.7956 C2641.8129,696.2451 2638.8084,700.1034 2635.5176,704.296 C2622.3542,721.0662 2604.6094,743.184 2585.3073,765.8793 C2546.7031,811.2699 2501.8698,858.9705 2475,870.8194 C2456.3854,879.0173 1757.2708,864.9444 1742.7083,879.1528 C1733.7865,887.8507 1729.0033,899.1619 1726.8621,911.2734 C1726.7952,911.6518 1727.7341,905.8621 1727.6723,906.2421" fill="none" id="SessionCore-to-TermioA" style="stroke:#2FA4E7;stroke-width:3.125;stroke-dasharray:7.2917,7.2917;"/><polygon fill="#2FA4E7" points="1726.6691,912.4111,1732.2866,903.8265,1727.5051,907.2703,1724.0613,902.4889,1726.6691,912.4111" style="stroke:#2FA4E7;stroke-width:3.125;"/><text fill="#343A40" font-family="Verdana" font-size="12.5" lengthAdjust="spacing" textLength="37.5" x="2516.75" y="862.5532">&#24369;&#24341;&#29992;</text></g><!--link SessionCore to TermioB--><g class="link" data-entity-1="SessionCore" data-entity-2="TermioB" data-source-line="71" data-uid="lnk36" id="link_SessionCore_TermioB"><path d="M2649.8892,711.4198 C2649.7601,711.9119 2649.6295,712.4078 2649.4972,712.9073 C2648.9684,714.9053 2648.4142,716.9618 2647.8345,719.0721 C2645.5155,727.513 2642.7865,736.8126 2639.6224,746.6567 C2626.9661,786.033 2607.349,834.1215 2579.1667,870.8194 C2552.0781,906.0903 2512.2891,936.2387 2478.8633,957.7621 C2462.1504,968.5238 2447.0283,977.1293 2435.88,983.1407 C2433.093,984.6436 2430.5543,985.9843 2428.3012,987.156 C2427.1746,987.7419 2431.6844,985.4406 2430.7053,985.9412" fill="none" id="SessionCore-to-TermioB" style="stroke:#2FA4E7;stroke-width:3.125;stroke-dasharray:7.2917,7.2917;"/><polygon fill="#2FA4E7" points="2425.1403,988.7861,2435.3844,988.2287,2429.7778,986.4153,2431.5912,980.8087,2425.1403,988.7861" style="stroke:#2FA4E7;stroke-width:3.125;"/><text fill="#343A40" font-family="Verdana" font-size="12.5" lengthAdjust="spacing" textLength="37.5" x="2601.5417" y="862.5532">&#24369;&#24341;&#29992;</text></g><!--link tmux_success to GMN37--><g class="link" data-entity-1="tmux_success" data-entity-2="GMN37" data-source-line="75" data-uid="lnk39" id="link_tmux_success_GMN37"><path d="M978.2424,337.0055 C980.8171,353.4705 984.1719,370.2595 988.5417,385.8298 C1012.125,469.8298 1056.2708,560.8507 1086.0729,617.2986" fill="none" id="tmux_success-GMN37" style="stroke:#2FA4E7;stroke-width:3.125;stroke-dasharray:7.2917,7.2917;"/></g><!--link ghostty_fail to GMN40--><g class="link" data-entity-1="ghostty_fail" data-entity-2="GMN40" data-source-line="84" data-uid="lnk42" id="link_ghostty_fail_GMN40"><path d="M3164.6381,692.5941 C3166.3066,696.1596 3168.1939,700.1926 3170.272,704.6334 C3178.5843,722.3966 3189.9499,746.6847 3202.582,773.6801 C3227.8464,827.671 3258.1771,892.4913 3279.2813,937.6007" fill="none" id="ghostty_fail-GMN40" style="stroke:#2FA4E7;stroke-width:3.125;stroke-dasharray:7.2917,7.2917;"/></g><!--link tmux_success to ghostty_fail--><!--SRC=[jLRVKnf777_dhzZ65qE7TEJHXyvmUSXBP-eKPZeEmpXNM8K9tZd7cRPJdO4c80OKQeXc52L6hTO89DLQ48p_I-PsxtZoN-ZUxTwn8Fxe9Bc7Wztz_lv-lf_RhzGed8OW39NPE1GbbnfJun2eqxE_W2S9y2Wg9rJrLxnrYhUUeNeJrql00xJ6cTPAQiqiplwXjOxqzMUYgehXgDPOGl_kQUTbbsj633yMfo2uPreY0ZXRHCyh-60RjGltW9YmF4maPiDXc4Y0tro0FDOhB4_Fo1AKLAeA_51v0XKmZFCfhPasBZRqWznzoqA07BFJeUzYKr7raGAXn6mvzlfi-ecxc2m1dsM2hNnWQ1p6u_BFd7AVteynAKBEHomril2DzCcQJt1CbE0e60kCV-sF4eEXgnB-i1daA42PDAerzVOBbFcxLsp-bX2yJWZUBn_2_9sAAV355Fv_COKx5PEBuHDocHy8jOVncFax0eQrnWbUEwK8exiZ35v2V1PoSGO3WN7ZmmkqSDPr64pG6k3yGcSb2pvcLe03kD3jxhs3t7i_YtlXYdixEO_dMsSEHW4TP5pPqyivJipBYmbzOlFSk3F281EFTjyR9tlSn4_Heub9CHQ_PkAPDl3Dp5WgR4sMO6Wi9Zs-RRXdbKan384F3Ek7QwYmG-l8jicK_m0ZrwCo09NfcCoOWIvyWt1f7KbY791owSzFSJ8rOCW8RCrpobSt3RZTiucmh43QkD1Tnu-bAmnCLxXRkWANhd1Zki8jwGfVEbsg-P0eaZbf7-grRRsOkSzpZtKszBqYIbEmBvUWolAOKE0a8Op28NvLH-sNUkcWDzuW-OhXt1ukBzgPNtTEaWvTpouEwip9ON0Q1LIJ5n0u0Q5NW4lgmGFE26g_fv7V82RmOcH29Lc5u2TPLULf84_sV7ujAswtkKK_q-RqBbVGnklBzhhRRHr_BATjHthkI7-RqywMAJMWwYjKFd24s6QXhhNsEki5GcQKAxw9GFF7aKExwrhZq96cL8AAUQsHP7xwJEBLAcedBzjvEupMljwg6XT5OpllY59VjBbuumIllYFsY1-AD1UK8i0in9Loz70JO0LXx4E9R51DDlF0neZnvYth9zT0Ku3hZXbMUP6sXEJXuAWhIosWz75dhKeaREETKXBNKuuONdkDZr-YsfQ-_4ulLt1rXmJ7bvV8q49qoadZpnJQNSARlvkNiCKaSOStdnhdH_f-gxySP8xCSHELM89Lt-qsOodLwCslcxdrcWFwOXCdzyaVwwOsPzCrc6Fd7e-dzyts_VPdohpIKGjcyoYmA8UOMoGDxSEcyS-gJNIslbqN9nzcmBPhLPLPwEcAOu5zlyfdA7lAb2b4K7O1BxrXkhHmj5YEAYqqAYvJChHZvz38j0aaQECSLO9vXkLIdIJFL0ciz5AbkzNNOQRD-c7ixw3CCLvjukrijn_e8jtPRXcrlpYqzN8OMiaJkYAOugc70D9uUewI5GUGP4drBjif3XuzbtLFC1gBHA0K8dSuYL0NFpkk_m00]--></g></svg>