<svg xmlns="http://www.w3.org/2000/svg" xmlns:xlink="http://www.w3.org/1999/xlink" contentStyleType="text/css" data-diagram-type="SEQUENCE" height="2433.3333px" preserveAspectRatio="none" style="width:1808px;height:2433px;" version="1.1" viewBox="0 0 1808 2433" width="1808.3333px" zoomAndPan="magnify"><title>tmux attach&#27969;&#31243;&#35814;&#35299; - &#30495;&#27491;&#30340;&#20250;&#35805;&#20999;&#25442;</title><defs><linearGradient id="gm3egkofuvf5s0" x1="50%" x2="50%" y1="0%" y2="100%"><stop offset="0%" stop-color="#EDF0F2"/><stop offset="100%" stop-color="#E9ECEF"/></linearGradient><linearGradient id="gm3egkofuvf5s1" x1="50%" x2="50%" y1="0%" y2="100%"><stop offset="0%" stop-color="#59B6EC"/><stop offset="100%" stop-color="#2FA4E7"/></linearGradient><linearGradient id="gm3egkofuvf5s2" x1="50%" x2="50%" y1="0%" y2="100%"><stop offset="0%" stop-color="#FFFFFF"/><stop offset="100%" stop-color="#F8F9FA"/></linearGradient><linearGradient id="gm3egkofuvf5s3" x1="50%" x2="50%" y1="0%" y2="100%"><stop offset="0%" stop-color="#35638F"/><stop offset="100%" stop-color="#033C73"/></linearGradient></defs><g><rect fill="url(#gm3egkofuvf5s0)" height="48.2361" rx="4.1667" ry="4.1667" style="stroke:#BABDBF;stroke-width:1.0417;" width="417.6717" x="694.1823" y="20.8333"/><text fill="#2FA4E7" font-family="Verdana" font-size="20.8333" font-weight="bold" lengthAdjust="spacing" textLength="394.755" x="705.6407" y="53.2369">tmux attach&#27969;&#31243;&#35814;&#35299; - &#30495;&#27491;&#30340;&#20250;&#35805;&#20999;&#25442;</text><g><title>Client 1</title><rect fill="#EDF0F2" height="153.9083" style="stroke:#BABDBF;stroke-width:1.0417;" width="10.4167" x="126.1892" y="898.9441"/></g><g><title>tmux Server</title><rect fill="#EDF0F2" height="954.008" style="stroke:#BABDBF;stroke-width:1.0417;" width="10.4167" x="450.9532" y="677.5859"/></g><rect fill="none" height="121.6166" rx="4.1667" ry="4.1667" style="stroke:#59B6EC;stroke-width:1.0417;" width="717.3564" x="352.4333" y="693.2109"/><rect fill="none" height="239.0666" rx="4.1667" ry="4.1667" style="stroke:#59B6EC;stroke-width:1.0417;" width="517.1814" x="42.7083" y="829.4108"/><rect fill="none" height="200.9583" rx="4.1667" ry="4.1667" style="stroke:#59B6EC;stroke-width:1.0417;" width="811.3515" x="352.4333" y="1083.0607"/><rect fill="none" height="325.6999" rx="4.1667" ry="4.1667" style="stroke:#59B6EC;stroke-width:1.0417;" width="1501.0956" x="42.7083" y="1298.6023"/><g><title>Client 1</title><rect fill="#000000" fill-opacity="0.00000" height="2261.2488" width="8.3333" x="127.2308" y="121.7611"/><line style="stroke:#BABDBF;stroke-width:1.0417;stroke-dasharray:5.2083,5.2083;" x1="131.25" x2="131.25" y1="121.7611" y2="2383.0098"/></g><g><title>tmux Server</title><rect fill="#000000" fill-opacity="0.00000" height="2261.2488" width="8.3333" x="451.9948" y="121.7611"/><line style="stroke:#BABDBF;stroke-width:1.0417;stroke-dasharray:5.2083,5.2083;" x1="455.5583" x2="455.5583" y1="121.7611" y2="2383.0098"/></g><g><title>Session A</title><rect fill="#000000" fill-opacity="0.00000" height="2261.2488" width="8.3333" x="790.9414" y="121.7611"/><line style="stroke:#BABDBF;stroke-width:1.0417;stroke-dasharray:5.2083,5.2083;" x1="794.8751" x2="794.8751" y1="121.7611" y2="2383.0098"/></g><g><title>Session B</title><rect fill="#000000" fill-opacity="0.00000" height="2261.2488" width="8.3333" x="970.5861" y="121.7611"/><line style="stroke:#BABDBF;stroke-width:1.0417;stroke-dasharray:5.2083,5.2083;" x1="974.5076" x2="974.5076" y1="121.7611" y2="2383.0098"/></g><g><title>WindowPane A</title><rect fill="#000000" fill-opacity="0.00000" height="2261.2488" width="8.3333" x="1166.1123" y="121.7611"/><line style="stroke:#BABDBF;stroke-width:1.0417;stroke-dasharray:5.2083,5.2083;" x1="1169.7896" x2="1169.7896" y1="121.7611" y2="2383.0098"/></g><g><title>WindowPane B</title><rect fill="#000000" fill-opacity="0.00000" height="2261.2488" width="8.3333" x="1377.5197" y="121.7611"/><line style="stroke:#BABDBF;stroke-width:1.0417;stroke-dasharray:5.2083,5.2083;" x1="1381.1849" x2="1381.1849" y1="121.7611" y2="2383.0098"/></g><g><title>PTY A</title><rect fill="#000000" fill-opacity="0.00000" height="2261.2488" width="8.3333" x="1560.5398" y="121.7611"/><line style="stroke:#BABDBF;stroke-width:1.0417;stroke-dasharray:5.2083,5.2083;" x1="1564.4796" x2="1564.4796" y1="121.7611" y2="2383.0098"/></g><g><title>PTY B</title><rect fill="#000000" fill-opacity="0.00000" height="2261.2488" width="8.3333" x="1715.1723" y="121.7611"/><line style="stroke:#BABDBF;stroke-width:1.0417;stroke-dasharray:5.2083,5.2083;" x1="1719.0999" x2="1719.0999" y1="121.7611" y2="2383.0098"/></g><g class="participant participant-head" data-participant="C1"><rect fill="url(#gm3egkofuvf5s1)" height="40.1917" rx="4.1667" ry="4.1667" style="stroke:#2FA4E7;stroke-width:1.0417;" width="73.2117" x="94.7917" y="80.5278"/><text fill="#FFFFFF" font-family="Verdana" font-size="12.5" lengthAdjust="spacing" textLength="48.2117" x="107.2917" y="105.5949">Client 1</text></g><g class="participant participant-tail" data-participant="C1"><rect fill="url(#gm3egkofuvf5s1)" height="40.1917" rx="4.1667" ry="4.1667" style="stroke:#2FA4E7;stroke-width:1.0417;" width="73.2117" x="94.7917" y="2381.9682"/><text fill="#FFFFFF" font-family="Verdana" font-size="12.5" lengthAdjust="spacing" textLength="48.2117" x="107.2917" y="2407.0353">Client 1</text></g><g class="participant participant-head" data-participant="Server"><rect fill="url(#gm3egkofuvf5s1)" height="40.1917" rx="4.1667" ry="4.1667" style="stroke:#2FA4E7;stroke-width:1.0417;" width="103.2898" x="404.5166" y="80.5278"/><text fill="#FFFFFF" font-family="Verdana" font-size="12.5" lengthAdjust="spacing" textLength="78.2898" x="417.0166" y="105.5949">tmux Server</text></g><g class="participant participant-tail" data-participant="Server"><rect fill="url(#gm3egkofuvf5s1)" height="40.1917" rx="4.1667" ry="4.1667" style="stroke:#2FA4E7;stroke-width:1.0417;" width="103.2898" x="404.5166" y="2381.9682"/><text fill="#FFFFFF" font-family="Verdana" font-size="12.5" lengthAdjust="spacing" textLength="78.2898" x="417.0166" y="2407.0353">tmux Server</text></g><g class="participant participant-head" data-participant="SA"><rect fill="url(#gm3egkofuvf5s1)" height="40.1917" rx="4.1667" ry="4.1667" style="stroke:#2FA4E7;stroke-width:1.0417;" width="85.8826" x="752.1667" y="80.5278"/><text fill="#FFFFFF" font-family="Verdana" font-size="12.5" lengthAdjust="spacing" textLength="60.8826" x="764.6667" y="105.5949">Session A</text></g><g class="participant participant-tail" data-participant="SA"><rect fill="url(#gm3egkofuvf5s1)" height="40.1917" rx="4.1667" ry="4.1667" style="stroke:#2FA4E7;stroke-width:1.0417;" width="85.8826" x="752.1667" y="2381.9682"/><text fill="#FFFFFF" font-family="Verdana" font-size="12.5" lengthAdjust="spacing" textLength="60.8826" x="764.6667" y="2407.0353">Session A</text></g><g class="participant participant-head" data-participant="SB"><rect fill="url(#gm3egkofuvf5s1)" height="40.1917" rx="4.1667" ry="4.1667" style="stroke:#2FA4E7;stroke-width:1.0417;" width="85.907" x="931.7993" y="80.5278"/><text fill="#FFFFFF" font-family="Verdana" font-size="12.5" lengthAdjust="spacing" textLength="60.907" x="944.2993" y="105.5949">Session B</text></g><g class="participant participant-tail" data-participant="SB"><rect fill="url(#gm3egkofuvf5s1)" height="40.1917" rx="4.1667" ry="4.1667" style="stroke:#2FA4E7;stroke-width:1.0417;" width="85.907" x="931.7993" y="2381.9682"/><text fill="#FFFFFF" font-family="Verdana" font-size="12.5" lengthAdjust="spacing" textLength="60.907" x="944.2993" y="2407.0353">Session B</text></g><g class="participant participant-head" data-participant="WPA"><rect fill="url(#gm3egkofuvf5s1)" height="40.1917" rx="4.1667" ry="4.1667" style="stroke:#2FA4E7;stroke-width:1.0417;" width="117.6453" x="1111.4563" y="80.5278"/><text fill="#FFFFFF" font-family="Verdana" font-size="12.5" lengthAdjust="spacing" textLength="92.6453" x="1123.9563" y="105.5949">WindowPane A</text></g><g class="participant participant-tail" data-participant="WPA"><rect fill="url(#gm3egkofuvf5s1)" height="40.1917" rx="4.1667" ry="4.1667" style="stroke:#2FA4E7;stroke-width:1.0417;" width="117.6453" x="1111.4563" y="2381.9682"/><text fill="#FFFFFF" font-family="Verdana" font-size="12.5" lengthAdjust="spacing" textLength="92.6453" x="1123.9563" y="2407.0353">WindowPane A</text></g><g class="participant participant-head" data-participant="WPB"><rect fill="url(#gm3egkofuvf5s1)" height="40.1917" rx="4.1667" ry="4.1667" style="stroke:#2FA4E7;stroke-width:1.0417;" width="117.6697" x="1322.8516" y="80.5278"/><text fill="#FFFFFF" font-family="Verdana" font-size="12.5" lengthAdjust="spacing" textLength="92.6697" x="1335.3516" y="105.5949">WindowPane B</text></g><g class="participant participant-tail" data-participant="WPB"><rect fill="url(#gm3egkofuvf5s1)" height="40.1917" rx="4.1667" ry="4.1667" style="stroke:#2FA4E7;stroke-width:1.0417;" width="117.6697" x="1322.8516" y="2381.9682"/><text fill="#FFFFFF" font-family="Verdana" font-size="12.5" lengthAdjust="spacing" textLength="92.6697" x="1335.3516" y="2407.0353">WindowPane B</text></g><g class="participant participant-head" data-participant="PTYA"><rect fill="url(#gm3egkofuvf5s1)" height="40.1917" rx="4.1667" ry="4.1667" style="stroke:#2FA4E7;stroke-width:1.0417;" width="60.8704" x="1534.2712" y="80.5278"/><text fill="#FFFFFF" font-family="Verdana" font-size="12.5" lengthAdjust="spacing" textLength="35.8704" x="1546.7712" y="105.5949">PTY A</text></g><g class="participant participant-tail" data-participant="PTYA"><rect fill="url(#gm3egkofuvf5s1)" height="40.1917" rx="4.1667" ry="4.1667" style="stroke:#2FA4E7;stroke-width:1.0417;" width="60.8704" x="1534.2712" y="2381.9682"/><text fill="#FFFFFF" font-family="Verdana" font-size="12.5" lengthAdjust="spacing" textLength="35.8704" x="1546.7712" y="2407.0353">PTY A</text></g><g class="participant participant-head" data-participant="PTYB"><rect fill="url(#gm3egkofuvf5s1)" height="40.1917" rx="4.1667" ry="4.1667" style="stroke:#2FA4E7;stroke-width:1.0417;" width="60.8948" x="1688.8916" y="80.5278"/><text fill="#FFFFFF" font-family="Verdana" font-size="12.5" lengthAdjust="spacing" textLength="35.8948" x="1701.3916" y="105.5949">PTY B</text></g><g class="participant participant-tail" data-participant="PTYB"><rect fill="url(#gm3egkofuvf5s1)" height="40.1917" rx="4.1667" ry="4.1667" style="stroke:#2FA4E7;stroke-width:1.0417;" width="60.8948" x="1688.8916" y="2381.9682"/><text fill="#FFFFFF" font-family="Verdana" font-size="12.5" lengthAdjust="spacing" textLength="35.8948" x="1701.3916" y="2407.0353">PTY B</text></g><g><title>Client 1</title><rect fill="#EDF0F2" height="153.9083" style="stroke:#BABDBF;stroke-width:1.0417;" width="10.4167" x="126.1892" y="898.9441"/></g><g><title>tmux Server</title><rect fill="#EDF0F2" height="954.008" style="stroke:#BABDBF;stroke-width:1.0417;" width="10.4167" x="450.9532" y="677.5859"/></g><rect fill="url(#gm3egkofuvf5s2)" height="3.125" rx="4.1667" ry="4.1667" style="stroke:url(#gm3egkofuvf5s2);stroke-width:1.0417;" width="1786.2447" x="10.4167" y="158.5236"/><line style="stroke:#868E96;stroke-width:1.0417;" x1="10.4167" x2="1796.6614" y1="158.5236" y2="158.5236"/><line style="stroke:#868E96;stroke-width:1.0417;" x1="10.4167" x2="1796.6614" y1="161.6486" y2="161.6486"/><rect fill="url(#gm3egkofuvf5s2)" height="33.9417" rx="4.1667" ry="4.1667" style="stroke:#868E96;stroke-width:2.0833;" width="298.4558" x="754.3111" y="142.5944"/><text fill="#343A40" font-family="Verdana" font-size="12.5" font-weight="bold" lengthAdjust="spacing" textLength="269.1833" x="765.7694" y="164.5365">&#21021;&#22987;&#29366;&#24577;: Client 1 attached to Session A</text><g class="message" data-participant-1="C1" data-participant-2="Server"><polygon fill="#2FA4E7" points="443.6615,214.6444,454.0782,218.811,443.6615,222.9777,447.8282,218.811" style="stroke:#2FA4E7;stroke-width:1.0417;"/><line style="stroke:#2FA4E7;stroke-width:3.125;" x1="131.3975" x2="449.9115" y1="218.811" y2="218.811"/><text fill="#343A40" font-family="Verdana" font-size="12.5" lengthAdjust="spacing" textLength="50" x="143.8975" y="208.8949">&#24403;&#21069;&#36830;&#25509;</text></g><g class="message" data-participant-1="Server" data-participant-2="SA"><polygon fill="#2FA4E7" points="782.608,254.836,793.0247,259.0027,782.608,263.1694,786.7747,259.0027" style="stroke:#2FA4E7;stroke-width:1.0417;"/><line style="stroke:#2FA4E7;stroke-width:3.125;" x1="456.1615" x2="788.858" y1="259.0027" y2="259.0027"/><text fill="#343A40" font-family="Verdana" font-size="12.5" lengthAdjust="spacing" textLength="164.0137" x="468.6615" y="249.0865">client.session = Session A</text></g><g class="message" data-participant-1="SA" data-participant-2="WPA"><polygon fill="#2FA4E7" points="1157.7789,295.0277,1168.1956,299.1943,1157.7789,303.361,1161.9456,299.1943" style="stroke:#2FA4E7;stroke-width:1.0417;"/><line style="stroke:#2FA4E7;stroke-width:3.125;" x1="795.108" x2="1164.0289" y1="299.1943" y2="299.1943"/><text fill="#343A40" font-family="Verdana" font-size="12.5" lengthAdjust="spacing" textLength="50" x="807.608" y="289.2782">&#24403;&#21069;&#31383;&#21475;</text></g><g class="message" data-participant-1="WPA" data-participant-2="PTYA"><polygon fill="#2FA4E7" points="1552.2064,335.2193,1562.6231,339.386,1552.2064,343.5527,1556.3731,339.386" style="stroke:#2FA4E7;stroke-width:1.0417;"/><line style="stroke:#2FA4E7;stroke-width:3.125;" x1="1170.2789" x2="1558.4564" y1="339.386" y2="339.386"/><text fill="#343A40" font-family="Verdana" font-size="12.5" lengthAdjust="spacing" textLength="78.7292" x="1182.7789" y="329.4698">&#36816;&#34892;shell&#36827;&#31243;</text></g><path d="M27.0833,357.0943 L27.0833,384.1777 A4.1667,4.1667 0 0 0 31.25,388.3443 L230.2083,388.3443 A4.1667,4.1667 0 0 0 234.375,384.1777 L234.375,363.3443 L223.9583,352.9277 L31.25,352.9277 A4.1667,4.1667 0 0 0 27.0833,357.0943" fill="url(#gm3egkofuvf5s3)" style="stroke:#033C73;stroke-width:1.0417;"/><path d="M223.9583,352.9277 L223.9583,361.261 A2.0833,2.0833 0 0 0 226.0417,363.3443 L234.375,363.3443 L223.9583,352.9277" fill="url(#gm3egkofuvf5s3)" style="stroke:#033C73;stroke-width:1.0417;"/><text fill="#FFFFFF" font-family="Verdana" font-size="12.5" lengthAdjust="spacing" textLength="175.9888" x="38.5417" y="375.9115">Client 1 &#30475;&#21040;Session A&#30340;&#20869;&#23481;</text><rect fill="url(#gm3egkofuvf5s2)" height="3.125" rx="4.1667" ry="4.1667" style="stroke:url(#gm3egkofuvf5s2);stroke-width:1.0417;" width="1786.2447" x="10.4167" y="420.5068"/><line style="stroke:#868E96;stroke-width:1.0417;" x1="10.4167" x2="1796.6614" y1="420.5068" y2="420.5068"/><line style="stroke:#868E96;stroke-width:1.0417;" x1="10.4167" x2="1796.6614" y1="423.6318" y2="423.6318"/><rect fill="url(#gm3egkofuvf5s2)" height="33.9417" rx="4.1667" ry="4.1667" style="stroke:#868E96;stroke-width:2.0833;" width="184.3384" x="811.3698" y="404.5776"/><text fill="#343A40" font-family="Verdana" font-size="12.5" font-weight="bold" lengthAdjust="spacing" textLength="155.0659" x="822.8282" y="426.5198">Session B&#22312;&#21518;&#21488;&#25345;&#32493;&#36816;&#34892;</text><g class="message" data-participant-1="SB" data-participant-2="WPB"><polygon fill="#2FA4E7" points="1369.1864,476.6276,1379.6031,480.7943,1369.1864,484.9609,1373.3531,480.7943" style="stroke:#2FA4E7;stroke-width:1.0417;"/><line style="stroke:#2FA4E7;stroke-width:3.125;" x1="974.7528" x2="1375.4364" y1="480.7943" y2="480.7943"/><text fill="#343A40" font-family="Verdana" font-size="12.5" lengthAdjust="spacing" textLength="98.407" x="987.2528" y="470.8781">Session B&#30340;&#31383;&#21475;</text></g><g class="message" data-participant-1="WPB" data-participant-2="PTYB"><polygon fill="#2FA4E7" points="1706.839,516.8193,1717.2557,520.9859,1706.839,525.1526,1711.0057,520.9859" style="stroke:#2FA4E7;stroke-width:1.0417;"/><line style="stroke:#2FA4E7;stroke-width:3.125;" x1="1381.6864" x2="1713.089" y1="520.9859" y2="520.9859"/><text fill="#343A40" font-family="Verdana" font-size="12.5" lengthAdjust="spacing" textLength="103.7292" x="1394.1864" y="511.0697">shell&#36827;&#31243;&#25345;&#32493;&#36816;&#34892;</text></g><path d="M878.125,538.6943 L878.125,581.4026 A4.1667,4.1667 0 0 0 882.2917,585.5693 L1064.5833,585.5693 A4.1667,4.1667 0 0 0 1068.75,581.4026 L1068.75,544.9443 L1058.3333,534.5276 L882.2917,534.5276 A4.1667,4.1667 0 0 0 878.125,538.6943" fill="url(#gm3egkofuvf5s3)" style="stroke:#033C73;stroke-width:1.0417;"/><path d="M1058.3333,534.5276 L1058.3333,542.8609 A2.0833,2.0833 0 0 0 1060.4167,544.9443 L1068.75,544.9443 L1058.3333,534.5276" fill="url(#gm3egkofuvf5s3)" style="stroke:#033C73;stroke-width:1.0417;"/><text fill="#FFFFFF" font-family="Verdana" font-size="12.5" lengthAdjust="spacing" textLength="159.2773" x="889.5833" y="557.5114">Session B&#21363;&#20351;&#26080;Client&#36830;&#25509;</text><text fill="#FFFFFF" font-family="Verdana" font-size="12.5" lengthAdjust="spacing" textLength="112.5" x="889.5833" y="572.703">&#20173;&#28982;&#20445;&#25345;&#29366;&#24577;&#21644;&#36827;&#31243;</text><rect fill="url(#gm3egkofuvf5s2)" height="3.125" rx="4.1667" ry="4.1667" style="stroke:url(#gm3egkofuvf5s2);stroke-width:1.0417;" width="1786.2447" x="10.4167" y="617.2984"/><line style="stroke:#868E96;stroke-width:1.0417;" x1="10.4167" x2="1796.6614" y1="617.2984" y2="617.2984"/><line style="stroke:#868E96;stroke-width:1.0417;" x1="10.4167" x2="1796.6614" y1="620.4234" y2="620.4234"/><rect fill="url(#gm3egkofuvf5s2)" height="33.9417" rx="4.1667" ry="4.1667" style="stroke:#868E96;stroke-width:2.0833;" width="277.6245" x="764.7268" y="601.3692"/><text fill="#343A40" font-family="Verdana" font-size="12.5" font-weight="bold" lengthAdjust="spacing" textLength="248.3521" x="776.1851" y="623.3114">Client 1 &#25191;&#34892;: tmux attach session-b</text><g class="message" data-participant-1="C1" data-participant-2="Server"><polygon fill="#2FA4E7" points="438.4532,673.4192,448.8698,677.5859,438.4532,681.7525,442.6198,677.5859" style="stroke:#2FA4E7;stroke-width:1.0417;"/><line style="stroke:#2FA4E7;stroke-width:3.125;" x1="131.3975" x2="444.7032" y1="677.5859" y2="677.5859"/><text fill="#343A40" font-family="Verdana" font-size="12.5" lengthAdjust="spacing" textLength="103.0579" x="143.8975" y="667.6697">attach session-b</text></g><path d="M356.5999,693.2109 L556.6854,693.2109 L556.6854,710.4858 L546.2687,720.9025 L352.4333,720.9025 L352.4333,697.3775 A4.1667,4.1667 0 0 1 356.5999,693.2109" fill="#E9ECEF" style="stroke:#868E96;stroke-width:1.0417;"/><rect fill="none" height="121.6166" rx="4.1667" ry="4.1667" style="stroke:#59B6EC;stroke-width:1.0417;" width="717.3564" x="352.4333" y="693.2109"/><text fill="#033C73" font-family="Verdana" font-size="12.5" font-weight="bold" lengthAdjust="spacing" textLength="146.9604" x="373.2666" y="712.028">&#27493;&#39588;1: &#26597;&#25214;&#30446;&#26631;Session</text><g class="message" data-participant-1="Server" data-participant-2="Server"><line style="stroke:#2FA4E7;stroke-width:3.125;" x1="461.3698" x2="505.1198" y1="752.7608" y2="752.7608"/><line style="stroke:#2FA4E7;stroke-width:3.125;" x1="505.1198" x2="505.1198" y1="752.7608" y2="766.3025"/><line style="stroke:#2FA4E7;stroke-width:3.125;" x1="462.4115" x2="505.1198" y1="766.3025" y2="766.3025"/><polygon fill="#2FA4E7" points="472.8282,762.1358,462.4115,766.3025,472.8282,770.4692,468.6615,766.3025" style="stroke:#2FA4E7;stroke-width:1.0417;"/><text fill="#343A40" font-family="Verdana" font-size="12.5" lengthAdjust="spacing" textLength="159.5825" x="473.8698" y="742.8446">session_find("session-b")</text></g><g class="message" data-participant-1="Server" data-participant-2="SB"><polygon fill="#2FA4E7" points="962.2528,802.3275,972.6695,806.4941,962.2528,810.6608,966.4195,806.4941" style="stroke:#2FA4E7;stroke-width:1.0417;"/><line style="stroke:#2FA4E7;stroke-width:3.125;" x1="461.3698" x2="968.5028" y1="806.4941" y2="806.4941"/><text fill="#343A40" font-family="Verdana" font-size="12.5" lengthAdjust="spacing" textLength="85.907" x="473.8698" y="796.578">&#25214;&#21040;Session B</text></g><path d="M46.875,829.4108 L237.9517,829.4108 L237.9517,846.6858 L227.535,857.1025 L42.7083,857.1025 L42.7083,833.5775 A4.1667,4.1667 0 0 1 46.875,829.4108" fill="#E9ECEF" style="stroke:#868E96;stroke-width:1.0417;"/><rect fill="none" height="239.0666" rx="4.1667" ry="4.1667" style="stroke:#59B6EC;stroke-width:1.0417;" width="517.1814" x="42.7083" y="829.4108"/><text fill="#033C73" font-family="Verdana" font-size="12.5" font-weight="bold" lengthAdjust="spacing" textLength="133.6792" x="63.5417" y="848.2279">&#27493;&#39588;2: &#35774;&#32622;Client&#20250;&#35805;</text><text fill="#343A40" font-family="Verdana" font-size="12.5" font-weight="bold" lengthAdjust="spacing" textLength="43.6157" x="258.785" y="849.2696">[&#20851;&#38190;!]</text><g class="message" data-participant-1="Server" data-participant-2="C1"><polygon fill="#2FA4E7" points="148.0642,894.7774,137.6475,898.9441,148.0642,903.1108,143.8975,898.9441" style="stroke:#2FA4E7;stroke-width:1.0417;"/><line style="stroke:#2FA4E7;stroke-width:3.125;" x1="141.8142" x2="449.9115" y1="898.9441" y2="898.9441"/><text fill="#343A40" font-family="Verdana" font-size="12.5" lengthAdjust="spacing" textLength="277.356" x="159.5225" y="889.0279">server_client_set_session(client, session_b)</text></g><g class="message" data-participant-1="C1" data-participant-2="C1"><line style="stroke:#2FA4E7;stroke-width:3.125;" x1="136.6058" x2="180.3558" y1="939.1357" y2="939.1357"/><line style="stroke:#2FA4E7;stroke-width:3.125;" x1="180.3558" x2="180.3558" y1="939.1357" y2="952.6774"/><line style="stroke:#2FA4E7;stroke-width:3.125;" x1="137.6475" x2="180.3558" y1="952.6774" y2="952.6774"/><polygon fill="#2FA4E7" points="148.0642,948.5107,137.6475,952.6774,148.0642,956.8441,143.8975,952.6774" style="stroke:#2FA4E7;stroke-width:1.0417;"/><text fill="#343A40" font-family="Verdana" font-size="12.5" lengthAdjust="spacing" textLength="277.4231" x="149.1058" y="929.2196">old_session = client.session (&#20445;&#23384;Session A)</text></g><g class="message" data-participant-1="C1" data-participant-2="C1"><line style="stroke:#2FA4E7;stroke-width:3.125;" x1="136.6058" x2="180.3558" y1="992.8691" y2="992.8691"/><line style="stroke:#2FA4E7;stroke-width:3.125;" x1="180.3558" x2="180.3558" y1="992.8691" y2="1006.4107"/><line style="stroke:#2FA4E7;stroke-width:3.125;" x1="137.6475" x2="180.3558" y1="1006.4107" y2="1006.4107"/><polygon fill="#2FA4E7" points="148.0642,1002.2441,137.6475,1006.4107,148.0642,1010.5774,143.8975,1006.4107" style="stroke:#2FA4E7;stroke-width:1.0417;"/><text fill="#343A40" font-family="Verdana" font-size="12.5" lengthAdjust="spacing" textLength="278.9307" x="149.1058" y="982.9529">client.session = session_b (&#20999;&#25442;&#21040;Session B)</text></g><g class="message" data-participant-1="C1" data-participant-2="C1"><line style="stroke:#2FA4E7;stroke-width:3.125;" x1="136.6058" x2="180.3558" y1="1051.8107" y2="1051.8107"/><line style="stroke:#2FA4E7;stroke-width:3.125;" x1="180.3558" x2="180.3558" y1="1051.8107" y2="1065.3524"/><line style="stroke:#2FA4E7;stroke-width:3.125;" x1="131.3975" x2="180.3558" y1="1065.3524" y2="1065.3524"/><polygon fill="#2FA4E7" points="141.8142,1061.1857,131.3975,1065.3524,141.8142,1069.519,137.6475,1065.3524" style="stroke:#2FA4E7;stroke-width:1.0417;"/><text fill="#343A40" font-family="Verdana" font-size="12.5" lengthAdjust="spacing" textLength="206.1157" x="149.1058" y="1041.8945">client.last_session = old_session</text></g><path d="M356.5999,1083.0607 L565.4134,1083.0607 L565.4134,1100.3357 L554.9967,1110.7524 L352.4333,1110.7524 L352.4333,1087.2274 A4.1667,4.1667 0 0 1 356.5999,1083.0607" fill="#E9ECEF" style="stroke:#868E96;stroke-width:1.0417;"/><rect fill="none" height="200.9583" rx="4.1667" ry="4.1667" style="stroke:#59B6EC;stroke-width:1.0417;" width="811.3515" x="352.4333" y="1083.0607"/><text fill="#033C73" font-family="Verdana" font-size="12.5" font-weight="bold" lengthAdjust="spacing" textLength="155.6885" x="373.2666" y="1101.8778">&#27493;&#39588;3: &#26356;&#26032;&#28966;&#28857;&#21644;&#27963;&#21160;&#26102;&#38388;</text><g class="message" data-participant-1="Server" data-participant-2="SA"><polygon fill="#2FA4E7" points="782.608,1141.569,793.0247,1145.7357,782.608,1149.9023,786.7747,1145.7357" style="stroke:#2FA4E7;stroke-width:1.0417;"/><line style="stroke:#2FA4E7;stroke-width:3.125;" x1="461.3698" x2="788.858" y1="1145.7357" y2="1145.7357"/><text fill="#343A40" font-family="Verdana" font-size="12.5" lengthAdjust="spacing" textLength="298.3215" x="473.8698" y="1135.8195">window_update_focus(session_a.curw.window)</text></g><path d="M800,1120.1274 L800,1147.2107 A4.1667,4.1667 0 0 0 804.1667,1151.3774 L963.5417,1151.3774 A4.1667,4.1667 0 0 0 967.7083,1147.2107 L967.7083,1126.3774 L957.2917,1115.9607 L804.1667,1115.9607 A4.1667,4.1667 0 0 0 800,1120.1274" fill="url(#gm3egkofuvf5s3)" style="stroke:#033C73;stroke-width:1.0417;"/><path d="M957.2917,1115.9607 L957.2917,1124.294 A2.0833,2.0833 0 0 0 959.375,1126.3774 L967.7083,1126.3774 L957.2917,1115.9607" fill="url(#gm3egkofuvf5s3)" style="stroke:#033C73;stroke-width:1.0417;"/><text fill="#FFFFFF" font-family="Verdana" font-size="12.5" lengthAdjust="spacing" textLength="135.8826" x="811.4583" y="1138.9445">&#36890;&#30693;Session A&#22833;&#21435;&#28966;&#28857;</text><g class="message" data-participant-1="Server" data-participant-2="SB"><polygon fill="#2FA4E7" points="962.2528,1188.0107,972.6695,1192.1773,962.2528,1196.344,966.4195,1192.1773" style="stroke:#2FA4E7;stroke-width:1.0417;"/><line style="stroke:#2FA4E7;stroke-width:3.125;" x1="461.3698" x2="968.5028" y1="1192.1773" y2="1192.1773"/><text fill="#343A40" font-family="Verdana" font-size="12.5" lengthAdjust="spacing" textLength="298.6023" x="473.8698" y="1182.2611">window_update_focus(session_b.curw.window)</text></g><path d="M979.1667,1166.569 L979.1667,1193.6523 A4.1667,4.1667 0 0 0 983.3333,1197.819 L1142.7083,1197.819 A4.1667,4.1667 0 0 0 1146.875,1193.6523 L1146.875,1172.819 L1136.4583,1162.4023 L983.3333,1162.4023 A4.1667,4.1667 0 0 0 979.1667,1166.569" fill="url(#gm3egkofuvf5s3)" style="stroke:#033C73;stroke-width:1.0417;"/><path d="M1136.4583,1162.4023 L1136.4583,1170.7357 A2.0833,2.0833 0 0 0 1138.5417,1172.819 L1146.875,1172.819 L1136.4583,1162.4023" fill="url(#gm3egkofuvf5s3)" style="stroke:#033C73;stroke-width:1.0417;"/><text fill="#FFFFFF" font-family="Verdana" font-size="12.5" lengthAdjust="spacing" textLength="135.907" x="990.625" y="1185.3861">&#36890;&#30693;Session B&#33719;&#24471;&#28966;&#28857;</text><g class="message" data-participant-1="Server" data-participant-2="SB"><polygon fill="#2FA4E7" points="962.2528,1231.3273,972.6695,1235.494,962.2528,1239.6606,966.4195,1235.494" style="stroke:#2FA4E7;stroke-width:1.0417;"/><line style="stroke:#2FA4E7;stroke-width:3.125;" x1="461.3698" x2="968.5028" y1="1235.494" y2="1235.494"/><text fill="#343A40" font-family="Verdana" font-size="12.5" lengthAdjust="spacing" textLength="223.6938" x="473.8698" y="1225.5778">session_update_activity(session_b)</text></g><g class="message" data-participant-1="Server" data-participant-2="SB"><polygon fill="#2FA4E7" points="962.2528,1271.519,972.6695,1275.6856,962.2528,1279.8523,966.4195,1275.6856" style="stroke:#2FA4E7;stroke-width:1.0417;"/><line style="stroke:#2FA4E7;stroke-width:3.125;" x1="461.3698" x2="968.5028" y1="1275.6856" y2="1275.6856"/><text fill="#343A40" font-family="Verdana" font-size="12.5" lengthAdjust="spacing" textLength="290.1733" x="473.8698" y="1265.7694">gettimeofday(&amp;session_b.last_attached_time)</text></g><path d="M46.875,1298.6023 L197.4609,1298.6023 L197.4609,1315.8773 L187.0443,1326.2939 L42.7083,1326.2939 L42.7083,1302.769 A4.1667,4.1667 0 0 1 46.875,1298.6023" fill="#E9ECEF" style="stroke:#868E96;stroke-width:1.0417;"/><rect fill="none" height="325.6999" rx="4.1667" ry="4.1667" style="stroke:#59B6EC;stroke-width:1.0417;" width="1501.0956" x="42.7083" y="1298.6023"/><text fill="#033C73" font-family="Verdana" font-size="12.5" font-weight="bold" lengthAdjust="spacing" textLength="93.1885" x="63.5417" y="1317.4194">&#27493;&#39588;4: &#31435;&#21363;&#37325;&#32472;</text><text fill="#343A40" font-family="Verdana" font-size="12.5" font-weight="bold" lengthAdjust="spacing" textLength="68.6157" x="218.2943" y="1318.4611">[&#31070;&#22855;&#20043;&#22788;!]</text><g class="message" data-participant-1="Server" data-participant-2="Server"><line style="stroke:#2FA4E7;stroke-width:3.125;" x1="461.3698" x2="505.1198" y1="1368.1356" y2="1368.1356"/><line style="stroke:#2FA4E7;stroke-width:3.125;" x1="505.1198" x2="505.1198" y1="1368.1356" y2="1381.6772"/><line style="stroke:#2FA4E7;stroke-width:3.125;" x1="462.4115" x2="505.1198" y1="1381.6772" y2="1381.6772"/><polygon fill="#2FA4E7" points="472.8282,1377.5106,462.4115,1381.6772,472.8282,1385.8439,468.6615,1381.6772" style="stroke:#2FA4E7;stroke-width:1.0417;"/><text fill="#343A40" font-family="Verdana" font-size="12.5" lengthAdjust="spacing" textLength="117.7307" x="473.8698" y="1358.2194">recalculate_sizes()</text></g><path d="M618.7724,1349.2981 L618.7724,1376.3814 A4.1667,4.1667 0 0 0 622.939,1380.5481 L746.8974,1380.5481 A4.1667,4.1667 0 0 0 751.064,1376.3814 L751.064,1355.5481 L740.6474,1345.1314 L622.939,1345.1314 A4.1667,4.1667 0 0 0 618.7724,1349.2981" fill="url(#gm3egkofuvf5s3)" style="stroke:#033C73;stroke-width:1.0417;"/><path d="M740.6474,1345.1314 L740.6474,1353.4648 A2.0833,2.0833 0 0 0 742.7307,1355.5481 L751.064,1355.5481 L740.6474,1345.1314" fill="url(#gm3egkofuvf5s3)" style="stroke:#033C73;stroke-width:1.0417;"/><text fill="#FFFFFF" font-family="Verdana" font-size="12.5" lengthAdjust="spacing" textLength="100" x="630.2307" y="1368.1152">&#37325;&#26032;&#35745;&#31639;&#25152;&#26377;&#23610;&#23544;</text><g class="message" data-participant-1="Server" data-participant-2="C1"><polygon fill="#2FA4E7" points="142.8558,1420.8272,132.4392,1424.9939,142.8558,1429.1606,138.6892,1424.9939" style="stroke:#2FA4E7;stroke-width:1.0417;"/><line style="stroke:#2FA4E7;stroke-width:3.125;" x1="136.6058" x2="449.9115" y1="1424.9939" y2="1424.9939"/><text fill="#343A40" font-family="Verdana" font-size="12.5" lengthAdjust="spacing" textLength="127.6306" x="154.3142" y="1415.0777">tty_redraw_region()</text></g><path d="M465.625,1399.3856 L465.625,1426.4689 A4.1667,4.1667 0 0 0 469.7917,1430.6356 L591.6667,1430.6356 A4.1667,4.1667 0 0 0 595.8333,1426.4689 L595.8333,1405.6356 L585.4167,1395.2189 L469.7917,1395.2189 A4.1667,4.1667 0 0 0 465.625,1399.3856" fill="url(#gm3egkofuvf5s3)" style="stroke:#033C73;stroke-width:1.0417;"/><path d="M585.4167,1395.2189 L585.4167,1403.5522 A2.0833,2.0833 0 0 0 587.5,1405.6356 L595.8333,1405.6356 L585.4167,1395.2189" fill="url(#gm3egkofuvf5s3)" style="stroke:#033C73;stroke-width:1.0417;"/><text fill="#FFFFFF" font-family="Verdana" font-size="12.5" lengthAdjust="spacing" textLength="98.0957" x="477.0833" y="1418.2027">TTY&#37325;&#32472;&#25972;&#20010;&#21306;&#22495;</text><g class="message" data-participant-1="C1" data-participant-2="SB"><polygon fill="#2FA4E7" points="962.2528,1464.1439,972.6695,1468.3105,962.2528,1472.4772,966.4195,1468.3105" style="stroke:#2FA4E7;stroke-width:1.0417;"/><line style="stroke:#2FA4E7;stroke-width:3.125;" x1="131.3975" x2="968.5028" y1="1468.3105" y2="1468.3105"/><text fill="#343A40" font-family="Verdana" font-size="12.5" lengthAdjust="spacing" textLength="166.6016" x="143.8975" y="1458.3944">&#35835;&#21462;Session B&#30340;Screen&#20869;&#23481;</text></g><g class="message" data-participant-1="SB" data-participant-2="WPB"><polygon fill="#2FA4E7" points="1369.1864,1504.3355,1379.6031,1508.5022,1369.1864,1512.6689,1373.3531,1508.5022" style="stroke:#2FA4E7;stroke-width:1.0417;"/><line style="stroke:#2FA4E7;stroke-width:3.125;" x1="974.7528" x2="1375.4364" y1="1508.5022" y2="1508.5022"/><text fill="#343A40" font-family="Verdana" font-size="12.5" lengthAdjust="spacing" textLength="129.7058" x="987.2528" y="1498.586">&#33719;&#21462;&#24403;&#21069;WindowPane</text></g><g class="message" data-participant-1="WPB" data-participant-2="WPB"><line style="stroke:#2FA4E7;stroke-width:3.125;" x1="1381.6864" x2="1425.4364" y1="1548.6938" y2="1548.6938"/><line style="stroke:#2FA4E7;stroke-width:3.125;" x1="1425.4364" x2="1425.4364" y1="1548.6938" y2="1562.2355"/><line style="stroke:#2FA4E7;stroke-width:3.125;" x1="1382.7281" x2="1425.4364" y1="1562.2355" y2="1562.2355"/><polygon fill="#2FA4E7" points="1393.1447,1558.0688,1382.7281,1562.2355,1393.1447,1566.4022,1388.9781,1562.2355" style="stroke:#2FA4E7;stroke-width:1.0417;"/><text fill="#343A40" font-family="Verdana" font-size="12.5" lengthAdjust="spacing" textLength="131.9092" x="1394.1864" y="1538.7777">screen&#20869;&#23481; (&#23436;&#25972;&#20445;&#23384;)</text></g><g class="message" data-participant-1="C1" data-participant-2="C1"><line style="stroke:#2FA4E7;stroke-width:3.125;" x1="131.3975" x2="175.1475" y1="1602.4272" y2="1602.4272"/><line style="stroke:#2FA4E7;stroke-width:3.125;" x1="175.1475" x2="175.1475" y1="1602.4272" y2="1615.9688"/><line style="stroke:#2FA4E7;stroke-width:3.125;" x1="132.4392" x2="175.1475" y1="1615.9688" y2="1615.9688"/><polygon fill="#2FA4E7" points="142.8558,1611.8022,132.4392,1615.9688,142.8558,1620.1355,138.6892,1615.9688" style="stroke:#2FA4E7;stroke-width:1.0417;"/><text fill="#343A40" font-family="Verdana" font-size="12.5" lengthAdjust="spacing" textLength="148.407" x="143.8975" y="1592.511">&#31435;&#21363;&#26174;&#31034;Session B&#30340;&#20869;&#23481;</text></g><path d="M15.625,1640.9688 L15.625,1683.6772 A4.1667,4.1667 0 0 0 19.7917,1687.8438 L243.75,1687.8438 A4.1667,4.1667 0 0 0 247.9167,1683.6772 L247.9167,1647.2188 L237.5,1636.8022 L19.7917,1636.8022 A4.1667,4.1667 0 0 0 15.625,1640.9688" fill="url(#gm3egkofuvf5s3)" style="stroke:#033C73;stroke-width:1.0417;"/><path d="M237.5,1636.8022 L237.5,1645.1355 A2.0833,2.0833 0 0 0 239.5833,1647.2188 L247.9167,1647.2188 L237.5,1636.8022" fill="url(#gm3egkofuvf5s3)" style="stroke:#033C73;stroke-width:1.0417;"/><text fill="#FFFFFF" font-family="Verdana" font-size="12.5" lengthAdjust="spacing" textLength="201.0132" x="27.0833" y="1659.786">Client 1 &#29616;&#22312;&#30475;&#21040;Session B&#30340;&#20869;&#23481;</text><text fill="#FFFFFF" font-family="Verdana" font-size="12.5" lengthAdjust="spacing" textLength="150" x="27.0833" y="1674.9776">&#21253;&#25324;&#23436;&#25972;&#30340;&#21382;&#21490;&#21644;&#24403;&#21069;&#29366;&#24577;</text><rect fill="url(#gm3egkofuvf5s2)" height="3.125" rx="4.1667" ry="4.1667" style="stroke:url(#gm3egkofuvf5s2);stroke-width:1.0417;" width="1786.2447" x="10.4167" y="1719.573"/><line style="stroke:#868E96;stroke-width:1.0417;" x1="10.4167" x2="1796.6614" y1="1719.573" y2="1719.573"/><line style="stroke:#868E96;stroke-width:1.0417;" x1="10.4167" x2="1796.6614" y1="1722.698" y2="1722.698"/><rect fill="url(#gm3egkofuvf5s2)" height="33.9417" rx="4.1667" ry="4.1667" style="stroke:#868E96;stroke-width:2.0833;" width="79.2725" x="863.9028" y="1703.6438"/><text fill="#343A40" font-family="Verdana" font-size="12.5" font-weight="bold" lengthAdjust="spacing" textLength="50" x="875.3611" y="1725.5859">&#20851;&#38190;&#27934;&#23519;</text><path d="M196.875,1757.3771 L196.875,2103.2104 A4.1667,4.1667 0 0 0 201.0417,2107.3771 L445.8333,2107.3771 A4.1667,4.1667 0 0 0 450,2103.2104 L450,1763.6271 L439.5833,1753.2104 L201.0417,1753.2104 A4.1667,4.1667 0 0 0 196.875,1757.3771" fill="url(#gm3egkofuvf5s3)" style="stroke:#033C73;stroke-width:1.0417;"/><path d="M439.5833,1753.2104 L439.5833,1761.5438 A2.0833,2.0833 0 0 0 441.6667,1763.6271 L450,1763.6271 L439.5833,1753.2104" fill="url(#gm3egkofuvf5s3)" style="stroke:#033C73;stroke-width:1.0417;"/><text fill="#FFFFFF" font-family="Verdana" font-size="12.5" font-weight="bold" lengthAdjust="spacing" textLength="111.1877" x="208.3333" y="1776.1943">tmux&#30340;&#26550;&#26500;&#31934;&#39635;&#65306;</text><text fill="#FFFFFF" font-family="Verdana" font-size="12.5" lengthAdjust="spacing" textLength="4.3945" x="208.3333" y="1791.3859">&#160;</text><text fill="#FFFFFF" font-family="Verdana" font-size="12.5" lengthAdjust="spacing" textLength="12.4939" x="208.3333" y="1806.5776">1.</text><text fill="#FFFFFF" font-family="Verdana" font-size="12.5" font-weight="bold" lengthAdjust="spacing" textLength="100" x="225.2218" y="1806.5776">&#30495;&#27491;&#30340;&#25152;&#26377;&#26435;&#20998;&#31163;</text><text fill="#FFFFFF" font-family="Verdana" font-size="12.5" lengthAdjust="spacing" textLength="158.0139" x="221.5169" y="1821.7692">- Session&#25317;&#26377;&#25152;&#26377;&#20869;&#23481;&#29366;&#24577;</text><text fill="#FFFFFF" font-family="Verdana" font-size="12.5" lengthAdjust="spacing" textLength="119.9158" x="221.5169" y="1836.9609">- Client&#21482;&#26159;"&#26597;&#30475;&#22120;"</text><text fill="#FFFFFF" font-family="Verdana" font-size="12.5" lengthAdjust="spacing" textLength="191.8152" x="221.5169" y="1852.1525">- PTY&#23646;&#20110;Session&#65292;&#19981;&#23646;&#20110;Client</text><text fill="#FFFFFF" font-family="Verdana" font-size="12.5" lengthAdjust="spacing" textLength="4.3945" x="208.3333" y="1867.3442">&#160;</text><text fill="#FFFFFF" font-family="Verdana" font-size="12.5" lengthAdjust="spacing" textLength="12.4939" x="208.3333" y="1882.5358">2.</text><text fill="#FFFFFF" font-family="Verdana" font-size="12.5" font-weight="bold" lengthAdjust="spacing" textLength="100" x="225.2218" y="1882.5358">&#23436;&#25972;&#30340;&#29366;&#24577;&#25345;&#20037;&#21270;</text><text fill="#FFFFFF" font-family="Verdana" font-size="12.5" lengthAdjust="spacing" textLength="176.2085" x="221.5169" y="1897.7275">- Screen&#20869;&#23481;&#20445;&#23384;&#22312;Session&#20013;</text><text fill="#FFFFFF" font-family="Verdana" font-size="12.5" lengthAdjust="spacing" textLength="158.0139" x="221.5169" y="1912.9191">- &#21382;&#21490;&#35760;&#24405;&#20445;&#23384;&#22312;Session&#20013;</text><text fill="#FFFFFF" font-family="Verdana" font-size="12.5" lengthAdjust="spacing" textLength="158.0139" x="221.5169" y="1928.1108">- &#20809;&#26631;&#20301;&#32622;&#20445;&#23384;&#22312;Session&#20013;</text><text fill="#FFFFFF" font-family="Verdana" font-size="12.5" lengthAdjust="spacing" textLength="138.7756" x="221.5169" y="1943.3024">- Shell&#36827;&#31243;&#23646;&#20110;Session</text><text fill="#FFFFFF" font-family="Verdana" font-size="12.5" lengthAdjust="spacing" textLength="4.3945" x="208.3333" y="1958.4941">&#160;</text><text fill="#FFFFFF" font-family="Verdana" font-size="12.5" lengthAdjust="spacing" textLength="12.4939" x="208.3333" y="1973.6857">3.</text><text fill="#FFFFFF" font-family="Verdana" font-size="12.5" font-weight="bold" lengthAdjust="spacing" textLength="87.5" x="225.2218" y="1973.6857">&#31616;&#21333;&#30340;&#20999;&#25442;&#26426;&#21046;</text><text fill="#FFFFFF" font-family="Verdana" font-size="12.5" lengthAdjust="spacing" textLength="208.4717" x="221.5169" y="1988.8774">- attach&#21482;&#38656;&#26356;&#26032;client.session&#25351;&#38024;</text><text fill="#FFFFFF" font-family="Verdana" font-size="12.5" lengthAdjust="spacing" textLength="159.0454" x="221.5169" y="2004.069">- &#20869;&#23481;&#26089;&#23601;&#23384;&#22312;&#65292;&#26080;&#38656;"&#20256;&#36755;"</text><text fill="#FFFFFF" font-family="Verdana" font-size="12.5" lengthAdjust="spacing" textLength="145.6665" x="221.5169" y="2019.2607">- TTY&#37325;&#32472;&#23601;&#33021;&#26174;&#31034;&#26032;&#20869;&#23481;</text><text fill="#FFFFFF" font-family="Verdana" font-size="12.5" lengthAdjust="spacing" textLength="4.3945" x="208.3333" y="2034.4523">&#160;</text><text fill="#FFFFFF" font-family="Verdana" font-size="12.5" lengthAdjust="spacing" textLength="12.4939" x="208.3333" y="2049.644">4.</text><text fill="#FFFFFF" font-family="Verdana" font-size="12.5" font-weight="bold" lengthAdjust="spacing" textLength="87.5" x="225.2218" y="2049.644">&#26080;&#32541;&#30340;&#29992;&#25143;&#20307;&#39564;</text><text fill="#FFFFFF" font-family="Verdana" font-size="12.5" lengthAdjust="spacing" textLength="99.3591" x="221.5169" y="2064.8356">- attach&#30636;&#38388;&#23436;&#25104;</text><text fill="#FFFFFF" font-family="Verdana" font-size="12.5" lengthAdjust="spacing" textLength="110.0708" x="221.5169" y="2080.0273">- &#25152;&#26377;&#29366;&#24577;&#23436;&#25972;&#24674;&#22797;</text><text fill="#FFFFFF" font-family="Verdana" font-size="12.5" lengthAdjust="spacing" textLength="97.5708" x="221.5169" y="2095.2189">- &#23601;&#20687;&#20174;&#26410;&#31163;&#24320;&#36807;</text><path d="M136.4583,2122.8434 L136.4583,2362.4268 A4.1667,4.1667 0 0 0 140.625,2366.5934 L357.2917,2366.5934 A4.1667,4.1667 0 0 0 361.4583,2362.4268 L361.4583,2129.0934 L351.0417,2118.6768 L140.625,2118.6768 A4.1667,4.1667 0 0 0 136.4583,2122.8434" fill="url(#gm3egkofuvf5s3)" style="stroke:#033C73;stroke-width:1.0417;"/><path d="M351.0417,2118.6768 L351.0417,2127.0101 A2.0833,2.0833 0 0 0 353.125,2129.0934 L361.4583,2129.0934 L351.0417,2118.6768" fill="url(#gm3egkofuvf5s3)" style="stroke:#033C73;stroke-width:1.0417;"/><text fill="#FFFFFF" font-family="Verdana" font-size="12.5" font-weight="bold" lengthAdjust="spacing" textLength="193.0359" x="147.9167" y="2141.6606">&#20026;&#20160;&#20040;tmux&#30340;attach&#22914;&#27492;&#31616;&#21333;&#65311;</text><text fill="#FFFFFF" font-family="Verdana" font-size="12.5" lengthAdjust="spacing" textLength="4.3945" x="147.9167" y="2156.8522">&#160;</text><text fill="#FFFFFF" font-family="Verdana" font-size="12.5" lengthAdjust="spacing" textLength="160.4431" x="147.9167" y="2172.0439">&#22240;&#20026;Session&#30495;&#27491;&#25317;&#26377;&#19968;&#20999;&#65306;</text><text fill="#FFFFFF" font-family="Verdana" font-size="12.5" lengthAdjust="spacing" textLength="111.0514" x="147.9167" y="2187.2355">- Terminal&#20869;&#23481; &#9989;</text><text fill="#FFFFFF" font-family="Verdana" font-size="12.5" lengthAdjust="spacing" textLength="86.8937" x="147.9167" y="2202.4272">- Shell&#36827;&#31243; &#9989;</text><text fill="#FFFFFF" font-family="Verdana" font-size="12.5" lengthAdjust="spacing" textLength="116.5629" x="147.9167" y="2217.6188">- PTY&#25991;&#20214;&#25551;&#36848;&#31526; &#9989;</text><text fill="#FFFFFF" font-family="Verdana" font-size="12.5" lengthAdjust="spacing" textLength="81.132" x="147.9167" y="2232.8105">- &#21382;&#21490;&#35760;&#24405; &#9989;</text><text fill="#FFFFFF" font-family="Verdana" font-size="12.5" lengthAdjust="spacing" textLength="81.132" x="147.9167" y="2248.0021">- &#20809;&#26631;&#29366;&#24577; &#9989;</text><text fill="#FFFFFF" font-family="Verdana" font-size="12.5" lengthAdjust="spacing" textLength="4.3945" x="147.9167" y="2263.1938">&#160;</text><text fill="#FFFFFF" font-family="Verdana" font-size="12.5" lengthAdjust="spacing" textLength="85.8704" x="147.9167" y="2278.3854">Client&#21482;&#38656;&#35201;&#65306;</text><text fill="#FFFFFF" font-family="Verdana" font-size="12.5" lengthAdjust="spacing" textLength="112.7991" x="147.9167" y="2293.5771">1. &#26356;&#26032;session&#25351;&#38024;</text><text fill="#FFFFFF" font-family="Verdana" font-size="12.5" lengthAdjust="spacing" textLength="64.9841" x="147.9167" y="2308.7687">2. &#37325;&#32472;TTY</text><text fill="#FFFFFF" font-family="Verdana" font-size="12.5" lengthAdjust="spacing" textLength="54.3884" x="147.9167" y="2323.9604">3. &#23436;&#25104;&#65281;</text><text fill="#FFFFFF" font-family="Verdana" font-size="12.5" lengthAdjust="spacing" textLength="4.3945" x="147.9167" y="2339.152">&#160;</text><text fill="#FFFFFF" font-family="Verdana" font-size="12.5" lengthAdjust="spacing" textLength="148.9746" x="147.9167" y="2354.3437">&#36825;&#23601;&#26159;&#30495;&#27491;&#30340;"&#20250;&#35805;&#25345;&#20037;&#21270;"</text><!--SRC=[XLRTJbfP5Bu_Jx7BnGJ9Q6BRAn8d4L_0X2PDqqx8AMoL1C70eOvpXVK7B7zDRSKgWcr57LiHMyUgWBpBvEnz3bU-mgpzSmu7r1aJ8-wzzbhV-jQtrkA1DeDdCGhYU3A2rQYYXRK8HjfiyW-aQfeQdA5_Bng7MVDatppuWeQHKQxIuo_6rhBUsZ9FTaWcJVEV5MLEZMlXO7XEZMh8DH49O_Wxwa9g0asCzbzortuSVuNZ_5vyxBVnuqGY78kYSM4nVlUjJzpw-c-VXgEXsFoa6iNo-TF9yNijVD9YmCVaasVoCNmQlttdi-vyYZ8sXaXcXnnaZJVdDBNeHLRsaZySGbeCsHcXiJ55cHX5mx_9pBs8jDV9MjxiL6YXfeX3VZtkHK7kQoGXNu_r_2Z-SMO4oLaEZACIANvHu8HTCE1UP7RUcfzoYHaSYPYTRQYZ4erf6CLOY8bH1rQZd2MPXkqTwajMLqZzakTd4qxAX-HjWHGRDBTeD8-5TvwHtoVG-BmzQt1YO_99J73lGEDquq3cTteX-HzwkqDBkmAheEb5L6_cZULplRF3V73coRkSp95XjZEZQmVWtUkKD99y3h-yeng39eeQrCAlLC0cbQfCnsF9EKIFQzsZFU2GLcjqxThOhjFTj4Ij8FXnL5AwbZu3Ko10jykEu1eQj8VymQMZ83u5HqFzaHz2TUlNHhikCXNjY9wJbH_Tz_K7lm-uPCLEyFy2GbE116Q_tBrR7Frg0tmf4DcPGm-p_mLHp5Ki4WhqH3cWKZTKXHnlsc8Q6dXyIzHsMEGMyyIP-Jsl8sf2Sq1m0EBs8Um4VukyHq3mzXdTQ1ZB-yRhIv0EFMkIDuUqTDujdGsM0nffdi-CG78k12u3Kx5WCk6sOAiZmMHyVaIO2BXSo_7mz8pcHTtKbb6jsMoGlLDIQ8guTzJzlmAzx0k4qF-4yfc5d-IwT6yeowsCnGaBQmlk0HNqFvh6cXQUnR6faBhW_gM7ZDV3cdW1PZ9qc_R7NcHypK97TzDvexc9dXkr2gcbzSiisLk-fLchRU8ug4Q2oGW3cGZ_YHFkEqXEvw6QPlsJKI_HjHGjhv765JcvkACDD6qX4CUXk3eFVwQP_8TkC_daoJE1aNuuqo-EIEwALAiE9J8gp9CcAMuunvq_6CSuAYSdZzmRYwmOnGqngdiRY5l9ySZD4WuNq0xr70F0-scm4GIJTFFQsBjoWf3XEVcEDh2crtqBeD20wTw_1dhUNaH9ReLclmayxBYmIehVeM_axk4JM2n3Fe3eMOMSLFbuvG4ZU4f3iIaBXSV3nZ7uePLpMbaslbztlwxVjBOy7aKP7K4UZ_qrGnIJxYoHpAgntmG3867OMWyqMsEtek0SgKJ2ZKHof7X4DqzSCAPPTXyFNU8IbX4vhUXN1UdgffNJB_BYI3nKb8SCYfspS0txHhzS8RaD6ugZOg9IGAHqgbyS2oF1brblaFQ7-urMrc27wEqyJFLxZVozzTc7Nr4USUBgAPB_m2h49oajNv7CkGLLz2SGqYsdnFphdyKqb-w-oqWmF25Q-eiqJWKIO0ZMC3nrwQrTytfT4cct2XYQIsqXI71jVO5up631GwErmqXyVqWpF_NsUlSerm_Bg7o3sSlOphmLvwAkShlpAj35psGlBm42hgMYtYpGyX4eWxHIPYVDPCyRMUgEjpCJ7cm1ZqU_kDARAVqo8zKd-TX_JO_t174thIhJ8DdU1Ll9hD2Ya9f-aG9YGQaA98xZi-6e6f7D-azvHUah3pk18SsbHZVIUlES5ejcfs5ysvV6JbLOHrm38cT-fDWg1kRD_KKM6rf4bA-_RY1NKGae2LE3uFAc1OrfTZu2Nz07TcEvn3S6Mywk7dN_0W00]--></g></svg>