<svg xmlns="http://www.w3.org/2000/svg" xmlns:xlink="http://www.w3.org/1999/xlink" contentStyleType="text/css" data-diagram-type="DESCRIPTION" height="1299px" preserveAspectRatio="none" style="width:2698px;height:1299px;background:#FFFFFF;" version="1.1" viewBox="0 0 2698 1299" width="2698px" zoomAndPan="magnify"><title>Component Interaction Diagram</title><defs/><g><g class="title" data-source-line="2"><text fill="#000000" font-family="Verdana" font-size="22" font-weight="bold" lengthAdjust="spacing" textLength="399.7813" x="1144.9743" y="37.1182">Component Interaction Diagram</text></g><!--cluster User Interface Layer--><g class="cluster" data-entity="User Interface Layer" data-source-line="7" data-uid="ent0002" id="cluster_User Interface Layer"><path d="M563.85,442.7773 L727.0395,442.7773 A3.75,3.75 0 0 1 729.5395,445.2773 L736.5395,465.792 L892.85,465.792 A2.5,2.5 0 0 1 895.35,468.292 L895.35,707.3073 A2.5,2.5 0 0 1 892.85,709.8073 L563.85,709.8073 A2.5,2.5 0 0 1 561.35,707.3073 L561.35,445.2773 A2.5,2.5 0 0 1 563.85,442.7773" fill="#FFFFFF" style="stroke:#000000;stroke-width:1;"/><line style="stroke:#000000;stroke-width:1;" x1="561.35" x2="736.5395" y1="465.792" y2="465.792"/><text fill="#000000" font-family="Verdana" font-size="14" font-weight="bold" lengthAdjust="spacing" textLength="162.1895" x="565.35" y="458.8525">User Interface Layer</text></g><!--cluster Rendering Layer--><g class="cluster" data-entity="Rendering Layer" data-source-line="13" data-uid="ent0006" id="cluster_Rendering Layer"><path d="M375.85,58.7373 L506.0902,58.7373 A3.75,3.75 0 0 1 508.5902,61.2373 L515.5902,81.752 L534.85,81.752 A2.5,2.5 0 0 1 537.35,84.252 L537.35,549.2873 A2.5,2.5 0 0 1 534.85,551.7873 L375.85,551.7873 A2.5,2.5 0 0 1 373.35,549.2873 L373.35,61.2373 A2.5,2.5 0 0 1 375.85,58.7373" fill="#FFFFFF" style="stroke:#000000;stroke-width:1;"/><line style="stroke:#000000;stroke-width:1;" x1="373.35" x2="515.5902" y1="81.752" y2="81.752"/><text fill="#000000" font-family="Verdana" font-size="14" font-weight="bold" lengthAdjust="spacing" textLength="129.2402" x="377.35" y="74.8125">Rendering Layer</text></g><!--cluster Integration Bridge--><g class="cluster" data-entity="Integration Bridge" data-source-line="20" data-uid="ent0011" id="cluster_Integration Bridge"><path d="M921.85,600.7873 L1069.057,600.7873 A3.75,3.75 0 0 1 1071.557,603.2873 L1078.557,623.802 L1450.85,623.802 A2.5,2.5 0 0 1 1453.35,626.302 L1453.35,876.8173 A2.5,2.5 0 0 1 1450.85,879.3173 L921.85,879.3173 A2.5,2.5 0 0 1 919.35,876.8173 L919.35,603.2873 A2.5,2.5 0 0 1 921.85,600.7873" fill="#FFFFFF" style="stroke:#000000;stroke-width:1;"/><line style="stroke:#000000;stroke-width:1;" x1="919.35" x2="1078.557" y1="623.802" y2="623.802"/><text fill="#000000" font-family="Verdana" font-size="14" font-weight="bold" lengthAdjust="spacing" textLength="146.207" x="923.35" y="616.8625">Integration Bridge</text></g><!--cluster libtmuxcore API--><g class="cluster" data-entity="libtmuxcore API" data-source-line="27" data-uid="ent0016" id="cluster_libtmuxcore API"><path d="M1604.85,758.8073 L1733.4018,758.8073 A3.75,3.75 0 0 1 1735.9018,761.3073 L1742.9018,781.822 L2471.85,781.822 A2.5,2.5 0 0 1 2474.35,784.322 L2474.35,1055.8173 A2.5,2.5 0 0 1 2471.85,1058.3173 L1604.85,1058.3173 A2.5,2.5 0 0 1 1602.35,1055.8173 L1602.35,761.3073 A2.5,2.5 0 0 1 1604.85,758.8073" fill="#FFFFFF" style="stroke:#000000;stroke-width:1;"/><line style="stroke:#000000;stroke-width:1;" x1="1602.35" x2="1742.9018" y1="781.822" y2="781.822"/><text fill="#000000" font-family="Verdana" font-size="14" font-weight="bold" lengthAdjust="spacing" textLength="127.5518" x="1606.35" y="774.8825">libtmuxcore API</text></g><!--cluster tmux Core Components--><g class="cluster" data-entity="tmux Core Components" data-source-line="36" data-uid="ent0023" id="cluster_tmux Core Components"><path d="M404.85,770.2973 L589.8324,770.2973 A3.75,3.75 0 0 1 592.3324,772.7973 L599.3324,793.312 L892.85,793.312 A2.5,2.5 0 0 1 895.35,795.812 L895.35,1290.4273 A2.5,2.5 0 0 1 892.85,1292.9273 L404.85,1292.9273 A2.5,2.5 0 0 1 402.35,1290.4273 L402.35,772.7973 A2.5,2.5 0 0 1 404.85,770.2973" fill="#FFFFFF" style="stroke:#000000;stroke-width:1;"/><line style="stroke:#000000;stroke-width:1;" x1="402.35" x2="599.3324" y1="793.312" y2="793.312"/><text fill="#000000" font-family="Verdana" font-size="14" font-weight="bold" lengthAdjust="spacing" textLength="183.9824" x="406.35" y="786.3725">tmux Core Components</text></g><!--cluster Backend System--><g class="cluster" data-entity="Backend System" data-source-line="45" data-uid="ent0030" id="cluster_Backend System"><path d="M41.85,937.8073 L172.1928,937.8073 A3.75,3.75 0 0 1 174.6928,940.3073 L181.6928,960.822 L375.85,960.822 A2.5,2.5 0 0 1 378.35,963.322 L378.35,1290.4273 A2.5,2.5 0 0 1 375.85,1292.9273 L41.85,1292.9273 A2.5,2.5 0 0 1 39.35,1290.4273 L39.35,940.3073 A2.5,2.5 0 0 1 41.85,937.8073" fill="#FFFFFF" style="stroke:#000000;stroke-width:1;"/><line style="stroke:#000000;stroke-width:1;" x1="39.35" x2="181.6928" y1="960.822" y2="960.822"/><text fill="#000000" font-family="Verdana" font-size="14" font-weight="bold" lengthAdjust="spacing" textLength="129.3428" x="43.35" y="953.8825">Backend System</text></g><!--entity Window--><g class="entity" data-entity="Window" data-source-line="8" data-uid="ent0003" id="entity_Window"><rect fill="#ADD8E6" height="37.0146" rx="2.5" ry="2.5" style="stroke:#000000;stroke-width:1;" width="134.9668" x="618.87" y="656.7873"/><text fill="#000000" font-family="Verdana" font-size="14" lengthAdjust="spacing" textLength="114.9668" x="628.87" y="680.8625">Ghostty Window</text></g><!--entity SplitMgr--><g class="entity" data-entity="SplitMgr" data-source-line="9" data-uid="ent0004" id="entity_SplitMgr"><rect fill="#ADD8E6" height="37.0146" rx="2.5" ry="2.5" style="stroke:#000000;stroke-width:1;" width="155.0576" x="577.82" y="498.7773"/><text fill="#000000" font-family="Verdana" font-size="14" lengthAdjust="spacing" textLength="135.0576" x="587.82" y="522.8525">Split View Manager</text></g><!--entity TabMgr--><g class="entity" data-entity="TabMgr" data-source-line="10" data-uid="ent0005" id="entity_TabMgr"><rect fill="#ADD8E6" height="37.0146" rx="2.5" ry="2.5" style="stroke:#000000;stroke-width:1;" width="111.1914" x="767.75" y="498.7773"/><text fill="#000000" font-family="Verdana" font-size="14" lengthAdjust="spacing" textLength="91.1914" x="777.75" y="522.8525">Tab Manager</text></g><!--entity TermBuf--><g class="entity" data-entity="TermBuf" data-source-line="14" data-uid="ent0007" id="entity_TermBuf"><rect fill="#00FFFF" height="37.0146" rx="2.5" ry="2.5" style="stroke:#000000;stroke-width:1;" width="129.0469" x="390.83" y="114.7373"/><text fill="#000000" font-family="Verdana" font-size="14" lengthAdjust="spacing" textLength="109.0469" x="400.83" y="138.8125">Terminal Buffer</text></g><!--entity GPUPipe--><g class="entity" data-entity="GPUPipe" data-source-line="15" data-uid="ent0008" id="entity_GPUPipe"><rect fill="#00FFFF" height="37.0146" rx="2.5" ry="2.5" style="stroke:#000000;stroke-width:1;" width="108.6963" x="391" y="342.7673"/><text fill="#000000" font-family="Verdana" font-size="14" lengthAdjust="spacing" textLength="88.6963" x="401" y="366.8425">GPU Pipeline</text></g><!--entity FontShape--><g class="entity" data-entity="FontShape" data-source-line="16" data-uid="ent0009" id="entity_FontShape"><rect fill="#00FFFF" height="37.0146" rx="2.5" ry="2.5" style="stroke:#000000;stroke-width:1;" width="105.7158" x="390.49" y="228.7473"/><text fill="#000000" font-family="Verdana" font-size="14" lengthAdjust="spacing" textLength="85.7158" x="400.49" y="252.8225">Font Shaper</text></g><!--entity Comp--><g class="entity" data-entity="Comp" data-source-line="17" data-uid="ent0010" id="entity_Comp"><rect fill="#00FFFF" height="37.0146" rx="2.5" ry="2.5" style="stroke:#000000;stroke-width:1;" width="100.2334" x="409.23" y="498.7773"/><text fill="#000000" font-family="Verdana" font-size="14" lengthAdjust="spacing" textLength="80.2334" x="419.23" y="522.8525">Compositor</text></g><!--entity Bridge--><g class="entity" data-entity="Bridge" data-source-line="21" data-uid="ent0012" id="entity_Bridge"><rect fill="#90EE90" height="37.0146" rx="2.5" ry="2.5" style="stroke:#000000;stroke-width:1;" width="167.5811" x="1100.56" y="656.7873"/><text fill="#000000" font-family="Verdana" font-size="14" lengthAdjust="spacing" textLength="147.5811" x="1110.56" y="680.8625">Ghostty-tmux Bridge</text></g><!--entity Router--><g class="entity" data-entity="Router" data-source-line="22" data-uid="ent0013" id="entity_Router"><rect fill="#90EE90" height="37.0146" rx="2.5" ry="2.5" style="stroke:#000000;stroke-width:1;" width="130.4209" x="935.14" y="656.7873"/><text fill="#000000" font-family="Verdana" font-size="14" lengthAdjust="spacing" textLength="110.4209" x="945.14" y="680.8625">Callback Router</text></g><!--entity StateSync--><g class="entity" data-entity="StateSync" data-source-line="23" data-uid="ent0014" id="entity_StateSync"><rect fill="#90EE90" height="37.0146" rx="2.5" ry="2.5" style="stroke:#000000;stroke-width:1;" width="153.9844" x="1109.36" y="826.2973"/><text fill="#000000" font-family="Verdana" font-size="14" lengthAdjust="spacing" textLength="133.9844" x="1119.36" y="850.3725">State Synchronizer</text></g><!--entity InputTrans--><g class="entity" data-entity="InputTrans" data-source-line="24" data-uid="ent0015" id="entity_InputTrans"><rect fill="#90EE90" height="37.0146" rx="2.5" ry="2.5" style="stroke:#000000;stroke-width:1;" width="134.1738" x="1303.26" y="656.7873"/><text fill="#000000" font-family="Verdana" font-size="14" lengthAdjust="spacing" textLength="114.1738" x="1313.26" y="680.8625">Input Translator</text></g><!--entity API1--><g class="entity" data-entity="API1" data-source-line="28" data-uid="ent0017" id="entity_API1"><ellipse cx="2219.35" cy="844.8073" fill="#FFFFFF" rx="8" ry="8" style="stroke:#000000;stroke-width:1;"/><text fill="#000000" font-family="Verdana" font-size="14" lengthAdjust="spacing" textLength="129.8076" x="2154.4462" y="875.8825">tmc_server_new()</text></g><!--entity API2--><g class="entity" data-entity="API2" data-source-line="29" data-uid="ent0018" id="entity_API2"><ellipse cx="1695.35" cy="844.8073" fill="#FFFFFF" rx="8" ry="8" style="stroke:#000000;stroke-width:1;"/><text fill="#000000" font-family="Verdana" font-size="14" lengthAdjust="spacing" textLength="138.6396" x="1626.0302" y="875.8825">tmc_client_attach()</text></g><!--entity API3--><g class="entity" data-entity="API3" data-source-line="30" data-uid="ent0019" id="entity_API3"><ellipse cx="2043.35" cy="844.8073" fill="#FFFFFF" rx="8" ry="8" style="stroke:#000000;stroke-width:1;"/><text fill="#000000" font-family="Verdana" font-size="14" lengthAdjust="spacing" textLength="122.3633" x="1982.1684" y="875.8825">tmc_send_keys()</text></g><!--entity API4--><g class="entity" data-entity="API4" data-source-line="31" data-uid="ent0020" id="entity_API4"><ellipse cx="2392.35" cy="844.8073" fill="#FFFFFF" rx="8" ry="8" style="stroke:#000000;stroke-width:1;"/><text fill="#000000" font-family="Verdana" font-size="14" lengthAdjust="spacing" textLength="117.8174" x="2333.4413" y="875.8825">tmc_send_text()</text></g><!--entity API5--><g class="entity" data-entity="API5" data-source-line="32" data-uid="ent0021" id="entity_API5"><ellipse cx="1873.35" cy="844.8073" fill="#FFFFFF" rx="8" ry="8" style="stroke:#000000;stroke-width:1;"/><text fill="#000000" font-family="Verdana" font-size="14" lengthAdjust="spacing" textLength="117.0586" x="1814.8207" y="875.8825">tmc_command()</text></g><!--entity API6--><g class="entity" data-entity="API6" data-source-line="33" data-uid="ent0022" id="entity_API6"><ellipse cx="2219.35" cy="1012.3173" fill="#FFFFFF" rx="8" ry="8" style="stroke:#000000;stroke-width:1;"/><text fill="#000000" font-family="Verdana" font-size="14" lengthAdjust="spacing" textLength="154.7246" x="2141.9877" y="1043.3925">tmc_pane_snapshot()</text></g><!--entity Core--><g class="entity" data-entity="Core" data-source-line="37" data-uid="ent0024" id="entity_Core"><rect fill="#FFFFE0" height="37.0146" rx="2.5" ry="2.5" style="stroke:#000000;stroke-width:1;" width="103.9932" x="757.35" y="993.8073"/><text fill="#000000" font-family="Verdana" font-size="14" lengthAdjust="spacing" textLength="83.9932" x="767.35" y="1017.8825">Server Core</text></g><!--entity SessionMgr--><g class="entity" data-entity="SessionMgr" data-source-line="38" data-uid="ent0025" id="entity_SessionMgr"><rect fill="#FFFFE0" height="37.0146" rx="2.5" ry="2.5" style="stroke:#000000;stroke-width:1;" width="139.1299" x="418.78" y="826.2973"/><text fill="#000000" font-family="Verdana" font-size="14" lengthAdjust="spacing" textLength="119.1299" x="428.78" y="850.3725">Session Manager</text></g><!--entity WinTree--><g class="entity" data-entity="WinTree" data-source-line="39" data-uid="ent0026" id="entity_WinTree"><rect fill="#FFFFE0" height="37.0146" rx="2.5" ry="2.5" style="stroke:#000000;stroke-width:1;" width="111.4238" x="592.64" y="826.2973"/><text fill="#000000" font-family="Verdana" font-size="14" lengthAdjust="spacing" textLength="91.4238" x="602.64" y="850.3725">Window Tree</text></g><!--entity PaneGrid--><g class="entity" data-entity="PaneGrid" data-source-line="40" data-uid="ent0027" id="entity_PaneGrid"><rect fill="#FFFFE0" height="37.0146" rx="2.5" ry="2.5" style="stroke:#000000;stroke-width:1;" width="88.3662" x="503.17" y="1239.9173"/><text fill="#000000" font-family="Verdana" font-size="14" lengthAdjust="spacing" textLength="68.3662" x="513.17" y="1263.9925">Pane Grid</text></g><!--entity CmdParse--><g class="entity" data-entity="CmdParse" data-source-line="41" data-uid="ent0028" id="entity_CmdParse"><rect fill="#FFFFE0" height="37.0146" rx="2.5" ry="2.5" style="stroke:#000000;stroke-width:1;" width="140.8525" x="738.92" y="826.2973"/><text fill="#000000" font-family="Verdana" font-size="14" lengthAdjust="spacing" textLength="120.8525" x="748.92" y="850.3725">Command Parser</text></g><!--entity ProcMgr--><g class="entity" data-entity="ProcMgr" data-source-line="42" data-uid="ent0029" id="entity_ProcMgr"><rect fill="#FFFFE0" height="37.0146" rx="2.5" ry="2.5" style="stroke:#000000;stroke-width:1;" width="138.5693" x="564.06" y="1123.6073"/><text fill="#000000" font-family="Verdana" font-size="14" lengthAdjust="spacing" textLength="118.5693" x="574.06" y="1147.6825">Process Manager</text></g><!--entity BackRouter--><g class="entity" data-entity="BackRouter" data-source-line="46" data-uid="ent0031" id="entity_BackRouter"><rect fill="#FFA500" height="37.0146" rx="2.5" ry="2.5" style="stroke:#000000;stroke-width:1;" width="152.4121" x="55.14" y="1123.6073"/><text fill="#000000" font-family="Verdana" font-size="14" lengthAdjust="spacing" textLength="132.4121" x="65.14" y="1147.6825">UI Backend Router</text></g><!--entity GridAgg--><g class="entity" data-entity="GridAgg" data-source-line="47" data-uid="ent0032" id="entity_GridAgg"><rect fill="#FFA500" height="37.0146" rx="2.5" ry="2.5" style="stroke:#000000;stroke-width:1;" width="132.7656" x="54.97" y="993.8073"/><text fill="#000000" font-family="Verdana" font-size="14" lengthAdjust="spacing" textLength="112.7656" x="64.97" y="1017.8825">Grid Aggregator</text></g><!--entity LayoutProc--><g class="entity" data-entity="LayoutProc" data-source-line="48" data-uid="ent0033" id="entity_LayoutProc"><rect fill="#FFA500" height="37.0146" rx="2.5" ry="2.5" style="stroke:#000000;stroke-width:1;" width="139.8887" x="222.41" y="993.8073"/><text fill="#000000" font-family="Verdana" font-size="14" lengthAdjust="spacing" textLength="119.8887" x="232.41" y="1017.8825">Layout Processor</text></g><!--entity EventDisp--><g class="entity" data-entity="EventDisp" data-source-line="49" data-uid="ent0034" id="entity_EventDisp"><rect fill="#FFA500" height="37.0146" rx="2.5" ry="2.5" style="stroke:#000000;stroke-width:1;" width="139.8135" x="61.44" y="1239.9173"/><text fill="#000000" font-family="Verdana" font-size="14" lengthAdjust="spacing" textLength="119.8135" x="71.44" y="1263.9925">Event Dispatcher</text></g><g class="entity" data-entity="GMN61" data-source-line="93" data-uid="ent0062" id="entity_GMN61"><path d="M910.94,1121.3173 L910.94,1162.9159 L1067.7608,1162.9159 L1067.7608,1131.3173 L1057.7608,1121.3173 L910.94,1121.3173" fill="#FFFFFF" style="stroke:#000000;stroke-width:1;"/><path d="M1057.7608,1121.3173 L1057.7608,1131.3173 L1067.7608,1131.3173 L1057.7608,1121.3173" fill="#FFFFFF" style="stroke:#000000;stroke-width:1;"/><text fill="#000000" font-family="Verdana" font-size="13" lengthAdjust="spacing" textLength="135.8208" x="916.94" y="1139.3871">Central routing point</text><text fill="#000000" font-family="Verdana" font-size="13" lengthAdjust="spacing" textLength="113.5215" x="928.0897" y="1155.1864">for all UI updates</text></g><g class="entity" data-entity="GMN64" data-source-line="98" data-uid="ent0065" id="entity_GMN64"><path d="M2492.97,824.0073 L2492.97,865.6059 L2691.7298,865.6059 L2691.7298,834.0073 L2681.7298,824.0073 L2492.97,824.0073" fill="#FFFFFF" style="stroke:#000000;stroke-width:1;"/><path d="M2681.7298,824.0073 L2681.7298,834.0073 L2691.7298,834.0073 L2681.7298,824.0073" fill="#FFFFFF" style="stroke:#000000;stroke-width:1;"/><text fill="#000000" font-family="Verdana" font-size="13" lengthAdjust="spacing" textLength="143.5269" x="2516.0865" y="842.0771">Main integration point</text><text fill="#000000" font-family="Verdana" font-size="13" lengthAdjust="spacing" textLength="177.7598" x="2498.97" y="857.8764">between Ghostty and tmux</text></g><!--link Window to InputTrans--><g class="link" data-entity-1="Window" data-entity-2="InputTrans" data-source-line="53" data-uid="lnk35" id="link_Window_InputTrans"><path d="M722.65,656.3173 C764.68,635.4973 836.64,603.3973 902.85,590.9573 C948.32,582.4173 1196.9,556.6173 1285.35,592.7873 C1316.76,605.6373 1339.4524,631.3511 1354.1324,651.4611" fill="none" id="Window-to-InputTrans" style="stroke:#000000;stroke-width:1;"/><polygon fill="#000000" points="1357.67,656.3073,1355.5943,646.6797,1354.722,652.2688,1349.1328,651.3965,1357.67,656.3073" style="stroke:#000000;stroke-width:1;"/><text fill="#000000" font-family="Verdana" font-size="13" lengthAdjust="spacing" textLength="69.2974" x="903.85" y="581.8571">User Input</text></g><!--link InputTrans to API3--><g class="link" data-entity-1="InputTrans" data-entity-2="API3" data-source-line="54" data-uid="lnk36" id="link_InputTrans_API3"><path d="M1437.87,677.5673 C1565.76,680.7373 1838.3,691.4273 1925.35,725.8073 C1981.94,748.1573 2021.99,808.1002 2035.67,830.7702" fill="none" id="InputTrans-to-API3" style="stroke:#000000;stroke-width:1;"/><polygon fill="#000000" points="2038.77,835.9073,2037.5448,826.1349,2036.1867,831.6264,2030.6953,830.2682,2038.77,835.9073" style="stroke:#000000;stroke-width:1;"/><text fill="#000000" font-family="Verdana" font-size="13" lengthAdjust="spacing" textLength="104.4951" x="1954.07" y="739.8771">Translated Keys</text></g><!--link API3 to Core--><g class="link" data-entity-1="API3" data-entity-2="Core" data-source-line="55" data-uid="lnk37" id="link_API3_Core"><path d="M2034.71,851.2173 C2019.65,860.3773 1987.32,878.7373 1957.35,887.3173 C1930.55,894.9773 1089.0981,982.3695 867.7681,1005.2795" fill="none" id="API3-to-Core" style="stroke:#000000;stroke-width:1;"/><polygon fill="#000000" points="861.8,1005.8973,871.164,1008.9494,866.7734,1005.3825,870.3403,1000.9919,861.8,1005.8973" style="stroke:#000000;stroke-width:1;"/><text fill="#000000" font-family="Verdana" font-size="13" lengthAdjust="spacing" textLength="89.0576" x="1803.73" y="918.8771">Process Input</text></g><!--link BackRouter to Router--><g class="link" data-entity-1="BackRouter" data-entity-2="Router" data-source-line="58" data-uid="lnk38" id="link_BackRouter_Router"><path d="M95.45,1123.2073 C74.3,1110.5073 49.4,1091.2973 37.35,1066.3173 C11,1011.6673 11.17,984.5373 37.35,929.8073 C92.03,815.4673 151.25,816.9673 259.35,750.8073 C282.6,736.5773 288.73,731.6673 315.35,725.8073 C378.29,711.9373 832.12,730.3073 895.35,717.8073 C919.19,713.0973 939.0997,705.6722 958.9397,696.7322" fill="none" id="BackRouter-to-Router" style="stroke:#000000;stroke-width:1;"/><polygon fill="#000000" points="964.41,694.2673,954.5613,694.3179,959.8514,696.3214,957.8479,701.6116,964.41,694.2673" style="stroke:#000000;stroke-width:1;"/><text fill="#000000" font-family="Verdana" font-size="13" lengthAdjust="spacing" textLength="85.0269" x="51.07" y="918.8771">Grid Updates</text></g><!--link Router to StateSync--><g class="link" data-entity-1="Router" data-entity-2="StateSync" data-source-line="59" data-uid="lnk39" id="link_Router_StateSync"><path d="M1020.25,694.2273 C1056.05,726.4673 1126.4309,789.8528 1162.1309,821.9928" fill="none" id="Router-to-StateSync" style="stroke:#000000;stroke-width:1;"/><polygon fill="#000000" points="1166.59,826.0073,1162.5776,817.0128,1162.874,822.6619,1157.225,822.9583,1166.59,826.0073" style="stroke:#000000;stroke-width:1;"/><text fill="#000000" font-family="Verdana" font-size="13" lengthAdjust="spacing" textLength="107.0723" x="1072.22" y="739.8771">Process Updates</text></g><!--link StateSync to TermBuf--><g class="link" data-entity-1="StateSync" data-entity-2="TermBuf" data-source-line="60" data-uid="lnk40" id="link_StateSync_TermBuf"><path d="M1248.04,825.8873 C1328.67,803.4173 1474.67,766.0173 1602.35,750.8073 C1628.01,747.7473 2043.55,752.8573 2067.35,742.8073 C2106,726.4873 2134.35,718.2573 2134.35,676.2973 C2134.35,246.2573 2134.35,246.2573 2134.35,246.2573 C2134.35,163.8173 834.6993,139.756 526.1393,135.196" fill="none" id="StateSync-to-TermBuf" style="stroke:#000000;stroke-width:1;"/><polygon fill="#000000" points="520.14,135.1073,529.0799,139.2399,525.1395,135.1812,529.1981,131.2407,520.14,135.1073" style="stroke:#000000;stroke-width:1;"/><text fill="#000000" font-family="Verdana" font-size="13" lengthAdjust="spacing" textLength="96.8716" x="2135.35" y="423.8471">Apply Changes</text></g><!--link TermBuf to FontShape--><g class="link" data-entity-1="TermBuf" data-entity-2="FontShape" data-source-line="61" data-uid="lnk41" id="link_TermBuf_FontShape"><path d="M453.42,152.2373 C451.18,173.1373 448.1497,201.4515 445.9097,222.3415" fill="none" id="TermBuf-to-FontShape" style="stroke:#000000;stroke-width:1;"/><polygon fill="#000000" points="445.27,228.3073,450.2068,219.7851,445.8031,223.3358,442.2524,218.9321,445.27,228.3073" style="stroke:#000000;stroke-width:1;"/><text fill="#000000" font-family="Verdana" font-size="13" lengthAdjust="spacing" textLength="73.9058" x="451.07" y="195.8171">Shape Text</text></g><!--link FontShape to GPUPipe--><g class="link" data-entity-1="FontShape" data-entity-2="GPUPipe" data-source-line="62" data-uid="lnk42" id="link_FontShape_GPUPipe"><path d="M443.67,266.2573 C444.04,287.1573 444.5537,315.4382 444.9237,336.3182" fill="none" id="FontShape-to-GPUPipe" style="stroke:#000000;stroke-width:1;"/><polygon fill="#000000" points="445.03,342.3173,448.8699,333.2478,444.9414,337.3181,440.8712,333.3896,445.03,342.3173" style="stroke:#000000;stroke-width:1;"/><text fill="#000000" font-family="Verdana" font-size="13" lengthAdjust="spacing" textLength="95.4116" x="445.47" y="309.8371">Render Glyphs</text></g><!--link GPUPipe to Comp--><g class="link" data-entity-1="GPUPipe" data-entity-2="Comp" data-source-line="63" data-uid="lnk43" id="link_GPUPipe_Comp"><path d="M446.98,380.2373 C449.68,409.9173 454.497,462.8519 457.187,492.4519" fill="none" id="GPUPipe-to-Comp" style="stroke:#000000;stroke-width:1;"/><polygon fill="#000000" points="457.73,498.4273,460.899,489.1022,457.2775,493.4478,452.9319,489.8263,457.73,498.4273" style="stroke:#000000;stroke-width:1;"/><text fill="#000000" font-family="Verdana" font-size="13" lengthAdjust="spacing" textLength="68.8086" x="452.1" y="423.8471">Composite</text></g><!--link Comp to Window--><g class="link" data-entity-1="Comp" data-entity-2="Window" data-source-line="64" data-uid="lnk44" id="link_Comp_Window"><path d="M485.39,536.1773 C529.06,566.1973 611.615,622.9392 655.315,652.9692" fill="none" id="Comp-to-Window" style="stroke:#000000;stroke-width:1;"/><polygon fill="#000000" points="660.26,656.3673,655.1079,647.9735,656.1392,653.5355,650.5771,654.5668,660.26,656.3673" style="stroke:#000000;stroke-width:1;"/><text fill="#000000" font-family="Verdana" font-size="13" lengthAdjust="spacing" textLength="47.5249" x="553.52" y="581.8571">Display</text></g><!--link WinTree to LayoutProc--><g class="link" data-entity-1="WinTree" data-entity-2="LayoutProc" data-source-line="67" data-uid="lnk45" id="link_WinTree_LayoutProc"><path d="M621.17,863.6473 C607.81,871.7873 591.2,881.0073 575.35,887.3173 C501.79,916.6073 474.01,896.1373 402.35,929.8073 C367.29,946.2873 336.7567,970.8224 315.9467,989.3924" fill="none" id="WinTree-to-LayoutProc" style="stroke:#000000;stroke-width:1;"/><polygon fill="#000000" points="311.47,993.3873,320.8483,990.3795,315.2006,990.0583,315.5219,984.4105,311.47,993.3873" style="stroke:#000000;stroke-width:1;"/><text fill="#000000" font-family="Verdana" font-size="13" lengthAdjust="spacing" textLength="104.5015" x="507.4" y="918.8771">Layout Changes</text></g><!--link LayoutProc to Router--><g class="link" data-entity-1="LayoutProc" data-entity-2="Router" data-source-line="68" data-uid="lnk46" id="link_LayoutProc_Router"><path d="M286.58,993.6073 C272.43,946.4573 241.85,816.9573 308.35,750.8073 C354.66,704.7373 831.55,731.8273 895.35,717.8073 C918.71,712.6773 938.162,705.4325 957.872,696.7225" fill="none" id="LayoutProc-to-Router" style="stroke:#000000;stroke-width:1;"/><polygon fill="#000000" points="963.36,694.2973,953.5112,694.2764,958.7866,696.3183,956.7448,701.5938,963.36,694.2973" style="stroke:#000000;stroke-width:1;"/><text fill="#000000" font-family="Verdana" font-size="13" lengthAdjust="spacing" textLength="92.3267" x="309.35" y="850.3771">Layout Events</text></g><!--link Router to SplitMgr--><g class="link" data-entity-1="Router" data-entity-2="SplitMgr" data-source-line="69" data-uid="lnk47" id="link_Router_SplitMgr"><path d="M1002.08,656.6373 C1003.35,632.3673 1001.47,589.2573 975.35,567.7873 C965.69,559.8473 762.55,562.5673 750.35,559.7873 C728.76,554.8773 711.3674,547.7689 693.5274,538.9389" fill="none" id="Router-to-SplitMgr" style="stroke:#000000;stroke-width:1;"/><polygon fill="#000000" points="688.15,536.2773,694.4417,543.8546,692.6311,538.4953,697.9904,536.6847,688.15,536.2773" style="stroke:#000000;stroke-width:1;"/><text fill="#000000" font-family="Verdana" font-size="13" lengthAdjust="spacing" textLength="86.9756" x="989.35" y="581.8571">Update Splits</text></g><!--link SplitMgr to Window--><g class="link" data-entity-1="SplitMgr" data-entity-2="Window" data-source-line="70" data-uid="lnk48" id="link_SplitMgr_Window"><path d="M658.91,536.1773 C664.89,566.2773 675.7109,620.7723 681.6609,650.7223" fill="none" id="SplitMgr-to-Window" style="stroke:#000000;stroke-width:1;"/><polygon fill="#000000" points="682.83,656.6073,684.9996,647.0004,681.8557,651.7031,677.153,648.5592,682.83,656.6073" style="stroke:#000000;stroke-width:1;"/><text fill="#000000" font-family="Verdana" font-size="13" lengthAdjust="spacing" textLength="48.877" x="669.07" y="581.8571">Redraw</text></g><!--link TabMgr to Bridge--><g class="link" data-entity-1="TabMgr" data-entity-2="Bridge" data-source-line="73" data-uid="lnk49" id="link_TabMgr_Bridge"><path d="M879.42,519.0073 C934.69,521.9173 1019.97,532.4373 1084.35,567.7873 C1123.7,589.3973 1153.0713,627.0822 1169.5313,651.3422" fill="none" id="TabMgr-to-Bridge" style="stroke:#000000;stroke-width:1;"/><polygon fill="#000000" points="1172.9,656.3073,1171.157,646.6139,1170.0927,652.1698,1164.5369,651.1055,1172.9,656.3073" style="stroke:#000000;stroke-width:1;"/><text fill="#000000" font-family="Verdana" font-size="13" lengthAdjust="spacing" textLength="99.4995" x="1108.36" y="581.8571">Tab Operations</text></g><!--link Bridge to API2--><g class="link" data-entity-1="Bridge" data-entity-2="API2" data-source-line="74" data-uid="lnk50" id="link_Bridge_API2"><path d="M1218.87,694.1773 C1237.93,703.0973 1262.34,712.9873 1285.35,717.8073 C1303.9,721.6973 1610.02,716.1873 1626.35,725.8073 C1669.08,750.9873 1686.5803,807.8851 1692.1003,830.0551" fill="none" id="Bridge-to-API2" style="stroke:#000000;stroke-width:1;"/><polygon fill="#000000" points="1693.55,835.8773,1695.257,826.1775,1692.342,831.0254,1687.494,828.1104,1693.55,835.8773" style="stroke:#000000;stroke-width:1;"/><text fill="#000000" font-family="Verdana" font-size="13" lengthAdjust="spacing" textLength="93.5327" x="1647.29" y="739.8771">Attach/Detach</text></g><!--link API2 to SessionMgr--><g class="link" data-entity-1="API2" data-entity-2="SessionMgr" data-source-line="75" data-uid="lnk51" id="link_API2_SessionMgr"><path d="M1686.47,840.0573 C1655.47,823.7873 1548.84,770.3473 1453.35,752.8073 C1357.4,735.1773 664.95,714.2173 575.35,752.8073 C540.82,767.6773 516.8324,798.6724 502.5724,820.9724" fill="none" id="API2-to-SessionMgr" style="stroke:#000000;stroke-width:1;"/><polygon fill="#000000" points="499.34,826.0273,507.5585,820.5999,502.0337,821.8149,500.8187,816.2901,499.34,826.0273" style="stroke:#000000;stroke-width:1;"/><text fill="#000000" font-family="Verdana" font-size="13" lengthAdjust="spacing" textLength="111.8457" x="1470.85" y="739.8771">Manage Sessions</text></g><!--link Window to Bridge--><g class="link" data-entity-1="Window" data-entity-2="Bridge" data-source-line="78" data-uid="lnk52" id="link_Window_Bridge"><path d="M701.77,656.5173 C720.04,635.8773 752.62,603.9473 788.85,590.9573 C818.36,580.3773 1041.69,577.7073 1083.35,592.7873 C1118.69,605.5873 1146.6582,632.0158 1164.7682,652.1558" fill="none" id="Window-to-Bridge" style="stroke:#000000;stroke-width:1;"/><polygon fill="#000000" points="1168.78,656.6173,1165.7366,647.2505,1165.4368,652.8994,1159.7879,652.5996,1168.78,656.6173" style="stroke:#000000;stroke-width:1;"/><text fill="#000000" font-family="Verdana" font-size="13" lengthAdjust="spacing" textLength="107.3135" x="789.85" y="581.8571">User Commands</text></g><!--link Bridge to API5--><g class="link" data-entity-1="Bridge" data-entity-2="API5" data-source-line="79" data-uid="lnk53" id="link_Bridge_API5"><path d="M1218.85,694.2373 C1237.91,703.1673 1262.33,713.0573 1285.35,717.8073 C1335.85,728.2273 1699.83,711.4373 1749.35,725.8073 C1809.85,743.3673 1852.1379,807.6016 1865.9279,830.9416" fill="none" id="Bridge-to-API5" style="stroke:#000000;stroke-width:1;"/><polygon fill="#000000" points="1868.98,836.1073,1867.8457,826.324,1866.4366,831.8025,1860.9581,830.3934,1868.98,836.1073" style="stroke:#000000;stroke-width:1;"/><text fill="#000000" font-family="Verdana" font-size="13" lengthAdjust="spacing" textLength="122.4844" x="1783.6" y="739.8771">Execute Command</text></g><!--link API5 to CmdParse--><g class="link" data-entity-1="API5" data-entity-2="CmdParse" data-source-line="80" data-uid="lnk54" id="link_API5_CmdParse"><path d="M1868.82,836.0373 C1858.21,816.6073 1829.66,770.2873 1790.35,752.8073 C1746.13,733.1473 964.83,736.2873 919.35,752.8073 C879.33,767.3373 847.6108,798.9569 828.3508,821.3669" fill="none" id="API5-to-CmdParse" style="stroke:#000000;stroke-width:1;"/><polygon fill="#000000" points="824.44,825.9173,833.3397,821.6989,827.699,822.1253,827.2726,816.4846,824.44,825.9173" style="stroke:#000000;stroke-width:1;"/><text fill="#000000" font-family="Verdana" font-size="13" lengthAdjust="spacing" textLength="35.7119" x="1588.85" y="739.8771">Parse</text></g><!--link CmdParse to Core--><g class="link" data-entity-1="CmdParse" data-entity-2="Core" data-source-line="81" data-uid="lnk55" id="link_CmdParse_Core"><path d="M809.35,863.5173 C809.35,895.2873 809.35,955.6173 809.35,987.4773" fill="none" id="CmdParse-to-Core" style="stroke:#000000;stroke-width:1;"/><polygon fill="#000000" points="809.35,993.4773,813.35,984.4773,809.35,988.4773,805.35,984.4773,809.35,993.4773" style="stroke:#000000;stroke-width:1;"/><text fill="#000000" font-family="Verdana" font-size="13" lengthAdjust="spacing" textLength="51.5239" x="810.35" y="918.8771">Execute</text></g><!--link PaneGrid to GridAgg--><g class="link" data-entity-1="PaneGrid" data-entity-2="GridAgg" data-source-line="84" data-uid="lnk56" id="link_PaneGrid_GridAgg"><path d="M526,1239.5873 C480,1202.2073 366.74,1115.6873 256.35,1074.3173 C234.87,1066.2573 226.83,1074.3773 205.35,1066.3173 C182.91,1057.8873 164.9092,1046.5344 148.7292,1034.6744" fill="none" id="PaneGrid-to-GridAgg" style="stroke:#000000;stroke-width:1;"/><polygon fill="#000000" points="143.89,1031.1273,148.784,1039.6741,147.9227,1034.0833,153.5135,1033.2219,143.89,1031.1273" style="stroke:#000000;stroke-width:1;"/><text fill="#000000" font-family="Verdana" font-size="13" lengthAdjust="spacing" textLength="84.481" x="421.59" y="1147.6871">Cell Changes</text></g><!--link GridAgg to BackRouter--><g class="link" data-entity-1="GridAgg" data-entity-2="BackRouter" data-source-line="85" data-uid="lnk57" id="link_GridAgg_BackRouter"><path d="M122.74,1031.0873 C124.65,1055.4973 127.6031,1093.1755 129.5031,1117.5155" fill="none" id="GridAgg-to-BackRouter" style="stroke:#000000;stroke-width:1;"/><polygon fill="#000000" points="129.97,1123.4973,133.2575,1114.2133,129.5809,1118.5125,125.2817,1114.8359,129.97,1123.4973" style="stroke:#000000;stroke-width:1;"/><text fill="#000000" font-family="Verdana" font-size="13" lengthAdjust="spacing" textLength="119.6152" x="128.25" y="1088.3871">Aggregated Spans</text></g><!--link BackRouter to EventDisp--><g class="link" data-entity-1="BackRouter" data-entity-2="EventDisp" data-source-line="86" data-uid="lnk58" id="link_BackRouter_EventDisp"><path d="M131.35,1160.9773 C131.35,1182.4473 131.35,1212.2673 131.35,1233.6873" fill="none" id="BackRouter-to-EventDisp" style="stroke:#000000;stroke-width:1;"/><polygon fill="#000000" points="131.35,1239.6873,135.35,1230.6873,131.35,1234.6873,127.35,1230.6873,131.35,1239.6873" style="stroke:#000000;stroke-width:1;"/><text fill="#000000" font-family="Verdana" font-size="13" lengthAdjust="spacing" textLength="104.7363" x="132.35" y="1206.9871">Dispatch Events</text></g><!--link Core to ProcMgr--><g class="link" data-entity-1="Core" data-entity-2="ProcMgr" data-source-line="89" data-uid="lnk59" id="link_Core_ProcMgr"><path d="M784.88,1031.0873 C751.35,1055.4273 696.3255,1095.3925 662.7555,1119.7625" fill="none" id="Core-to-ProcMgr" style="stroke:#000000;stroke-width:1;"/><polygon fill="#000000" points="657.9,1123.2873,667.5331,1121.2371,661.9462,1120.35,662.8333,1114.7631,657.9,1123.2873" style="stroke:#000000;stroke-width:1;"/><text fill="#000000" font-family="Verdana" font-size="13" lengthAdjust="spacing" textLength="98.7632" x="722.35" y="1088.3871">Spawn/Monitor</text></g><!--link ProcMgr to PaneGrid--><g class="link" data-entity-1="ProcMgr" data-entity-2="PaneGrid" data-source-line="90" data-uid="lnk60" id="link_ProcMgr_PaneGrid"><path d="M619.91,1160.9773 C603.76,1182.4473 580.4179,1213.4732 564.2979,1234.8932" fill="none" id="ProcMgr-to-PaneGrid" style="stroke:#000000;stroke-width:1;"/><polygon fill="#000000" points="560.69,1239.6873,569.2979,1234.9014,563.6966,1235.6922,562.9058,1230.0909,560.69,1239.6873" style="stroke:#000000;stroke-width:1;"/><text fill="#000000" font-family="Verdana" font-size="13" lengthAdjust="spacing" textLength="73.4487" x="596.5" y="1206.9871">PTY Output</text></g><!--link BackRouter to GMN61--><g class="link" data-entity-1="BackRouter" data-entity-2="GMN61" data-source-line="93" data-uid="lnk63" id="link_BackRouter_GMN61"><path d="M194.37,1123.1373 C234.23,1112.1473 287.06,1099.4073 334.85,1093.8173 C454.7,1079.7873 759.69,1069.3273 877.85,1093.8173 C903.36,1099.0973 930.21,1110.5273 951.16,1120.9373" fill="none" id="BackRouter-GMN61" style="stroke:#000000;stroke-width:1;stroke-dasharray:7,7;"/></g><!--link Bridge to GMN64--><g class="link" data-entity-1="Bridge" data-entity-2="GMN64" data-source-line="98" data-uid="lnk66" id="link_Bridge_GMN64"><path d="M1218.84,694.2973 C1237.89,703.2473 1262.31,713.1373 1285.35,717.8073 C1327.93,726.4373 2023.93,724.2473 2067.35,725.8073 C2157.91,729.0473 2389.68,718.5073 2474.35,750.8073 C2515.05,766.3273 2552.86,801.1773 2574.24,823.5273" fill="none" id="Bridge-GMN64" style="stroke:#000000;stroke-width:1;stroke-dasharray:7,7;"/></g><!--SRC=[VLPBR-Cs4BxhLqopXxQ7OD5jjmST2YJEDWYwGOBOQR4e2eEMnX8HYHH8UXrlqV_UcH4foV4ZXrZyzCrmtgFlGeqjGjSeRRAWGuCmisrd3Pe0ToQWKqNGri2DLfLJRPRv5sqwHOzG9E8yx4ZEOH6KgHgSK4fSgqqJ5lWQhXfTcPRL5iXwiwnJnOkg42wUFRh-ihKg43wh7ReB-3S3-XikWRzlQ-j3sC5VsfHs-mye7n_XtMTTrU6wsU1RcNdNw01_Qjp2lJ9qcnCvWUyhTqPoeLPx8dH-8_3Vn8KdD2KwRQgJrY_GjTge1gutwtNIIHWTuTrifyo1ku_FyAWxRBH1OHF0v-FitotzdzUgYwhvBCVZT4cory7sR3v6ujGhpWbbNGhWskcomjDfkGpjvZMoH6V_60Dswn0FZL1DiwAxuCbkGhIxVpmdDGyg8CntfgYTDVfRIYd3Z9wJlJFT9i32AUCRbPmNKB0zqMaW6hrYzmhh4AuUxr8Kz52p5w4jbbJ6Nz4j3Mv_-F62DHFrfsF4ej5apbA5e8fwv7uuhjIKonVS-P7tyqbUe4ORURySlTkshJBboFfuZDKfWqjlLEThEz7uwrvK9ECpZiamC_oH0fbBM8GOYysbilY2JMEtXmBUSydjTMoFZIruN3GEX0LbC0q8VZuhyqY-mYrLgqZmYGzdHMPz48diV3HmrfPoEd-LimKvikSPOmTkJSDyJG-KN2fv7x0z4k3dEqYSIISnbBhfWQgxEXXnukPLLJciXcPWZA1J8ZJTI2L4Fw9C3p9sIkpJL_wvqRvJeQYZWG8oDaYHrz-3R0CzMJrh3aXCxENbRzD-pI7k3aAo2SuqRXGYf6R74lwWBie4vlTIXdbo9UgW-yTHBXTFmiXIyJ6NGC5pLv9cdqq8unmQTIVQ-8wPQVhdSDLrpGvcDGV1PmbdpZZ6ytww0-_IR8IPb1P37cs7ssRNrJvBUEyjJVWSqjp7J01-4oERIteQjUCOn3ItKgQyjBFKI2mnoNUUgCduoRkzS4MQv7m_NcaLvp5CFKB1IY_sZ7p2qgajsvYcnCJ8kADP86wVdFSsFD1Mb2tciuZ70ld0mPSf_Fu6-ISJKEmQ1quU-pLXdgzF8m1ViTYmxcc93hTBUKRgsyi_qljF8es9aWai-KhZ9E-7J3O0azgDqcoEbECcrjammwGwOaTJyccs38bAi9WxrdW-30Hgc3cj0V-s0yQspOUEJdabGrBDJz8Yrh9e6dKvQzwQz_UqlsdmP0aNJhAT75zyWOTDaBuqbgBaU4A2NKyCfaapepiSVLWv0hXjEqlJW_2rTK1V643ZCGM6HoHhYlfMDWJRYaB930dTquUmJ9_qtPEqhJ1iwRC0qbSevvuNuAZpVm00]--></g></svg>