<svg xmlns="http://www.w3.org/2000/svg" xmlns:xlink="http://www.w3.org/1999/xlink" contentStyleType="text/css" data-diagram-type="DESCRIPTION" height="800px" preserveAspectRatio="none" style="width:1698px;height:800px;background:#FFFFFF;" version="1.1" viewBox="0 0 1698 800" width="1698px" zoomAndPan="magnify"><title>Event Loop Integration</title><defs/><g><g class="title" data-source-line="2"><text fill="#000000" font-family="Verdana" font-size="22" font-weight="bold" lengthAdjust="spacing" textLength="285.9248" x="701.8096" y="37.1182">Event Loop Integration</text></g><!--cluster Ghostty Event Loop--><g class="cluster" data-entity="Ghostty Event Loop" data-source-line="7" data-uid="ent0002" id="cluster_Ghostty Event Loop"><path d="M894.5,262.6673 L1048.4268,262.6673 A3.75,3.75 0 0 1 1050.9268,265.1673 L1057.9268,285.682 L1331.5,285.682 A2.5,2.5 0 0 1 1334,288.182 L1334,577.0873 A2.5,2.5 0 0 1 1331.5,579.5873 L894.5,579.5873 A2.5,2.5 0 0 1 892,577.0873 L892,265.1673 A2.5,2.5 0 0 1 894.5,262.6673" fill="#FFFFFF" style="stroke:#000000;stroke-width:1;"/><line style="stroke:#000000;stroke-width:1;" x1="892" x2="1057.9268" y1="285.682" y2="285.682"/><text fill="#000000" font-family="Verdana" font-size="14" font-weight="bold" lengthAdjust="spacing" textLength="152.9268" x="896" y="278.7425">Ghostty Event Loop</text></g><!--cluster Event Loop Adapter--><g class="cluster" data-entity="Event Loop Adapter" data-source-line="14" data-uid="ent0007" id="cluster_Event Loop Adapter"><path d="M553.5,470.5673 L708.7461,470.5673 A3.75,3.75 0 0 1 711.2461,473.0673 L718.2461,493.582 L865.5,493.582 A2.5,2.5 0 0 1 868,496.082 L868,702.0973 A2.5,2.5 0 0 1 865.5,704.5973 L553.5,704.5973 A2.5,2.5 0 0 1 551,702.0973 L551,473.0673 A2.5,2.5 0 0 1 553.5,470.5673" fill="#FFFFFF" style="stroke:#000000;stroke-width:1;"/><line style="stroke:#000000;stroke-width:1;" x1="551" x2="718.2461" y1="493.582" y2="493.582"/><text fill="#000000" font-family="Verdana" font-size="14" font-weight="bold" lengthAdjust="spacing" textLength="154.2461" x="555" y="486.6425">Event Loop Adapter</text></g><!--cluster libtmuxcore Events--><g class="cluster" data-entity="libtmuxcore Events" data-source-line="20" data-uid="ent0011" id="cluster_libtmuxcore Events"><path d="M13.5,262.6673 L165.8955,262.6673 A3.75,3.75 0 0 1 168.3955,265.1673 L175.3955,285.682 L429.5,285.682 A2.5,2.5 0 0 1 432,288.182 L432,577.0873 A2.5,2.5 0 0 1 429.5,579.5873 L13.5,579.5873 A2.5,2.5 0 0 1 11,577.0873 L11,265.1673 A2.5,2.5 0 0 1 13.5,262.6673" fill="#FFFFFF" style="stroke:#000000;stroke-width:1;"/><line style="stroke:#000000;stroke-width:1;" x1="11" x2="175.3955" y1="285.682" y2="285.682"/><text fill="#000000" font-family="Verdana" font-size="14" font-weight="bold" lengthAdjust="spacing" textLength="151.3955" x="15" y="278.7425">libtmuxcore Events</text></g><!--cluster VTable--><g class="cluster" data-entity="VTable" data-source-line="27" data-uid="ent0016" id="cluster_VTable"><rect fill="#F08080" height="192.79" rx="2.5" ry="2.5" style="stroke:#000000;stroke-width:1;" width="167" x="464" y="220.7773"/><text fill="#000000" font-family="Verdana" font-size="14" font-weight="bold" lengthAdjust="spacing" textLength="131.8311" x="481.5845" y="236.8525">tmc_loop_vtable</text></g><!--cluster Event Flow Examples--><g class="cluster" data-entity="Event Flow Examples" data-source-line="72" data-uid="ent0041" id="cluster_Event Flow Examples"><path d="M1042.5,58.7373 L1209.8662,58.7373 A3.75,3.75 0 0 1 1212.3662,61.2373 L1219.3662,81.752 L1635.5,81.752 A2.5,2.5 0 0 1 1638,84.252 L1638,161.2773 A2.5,2.5 0 0 1 1635.5,163.7773 L1042.5,163.7773 A2.5,2.5 0 0 1 1040,161.2773 L1040,61.2373 A2.5,2.5 0 0 1 1042.5,58.7373" fill="#FFFFFF" style="stroke:#000000;stroke-width:1;"/><line style="stroke:#000000;stroke-width:1;" x1="1040" x2="1219.3662" y1="81.752" y2="81.752"/><text fill="#000000" font-family="Verdana" font-size="14" font-weight="bold" lengthAdjust="spacing" textLength="166.3662" x="1044" y="74.8125">Event Flow Examples</text></g><!--entity MainLoop--><g class="entity" data-entity="MainLoop" data-source-line="8" data-uid="ent0003" id="entity_MainLoop"><rect fill="#ADD8E6" height="37.0146" rx="2.5" ry="2.5" style="stroke:#000000;stroke-width:1;" width="118.793" x="1199.6" y="318.6673"/><text fill="#000000" font-family="Verdana" font-size="14" lengthAdjust="spacing" textLength="98.793" x="1209.6" y="342.7425">Main RunLoop</text></g><!--entity TimerMgr--><g class="entity" data-entity="TimerMgr" data-source-line="9" data-uid="ent0004" id="entity_TimerMgr"><rect fill="#ADD8E6" height="37.0146" rx="2.5" ry="2.5" style="stroke:#000000;stroke-width:1;" width="125.834" x="1039.08" y="318.6673"/><text fill="#000000" font-family="Verdana" font-size="14" lengthAdjust="spacing" textLength="105.834" x="1049.08" y="342.7425">Timer Manager</text></g><!--entity FDMon--><g class="entity" data-entity="FDMon" data-source-line="10" data-uid="ent0005" id="entity_FDMon"><rect fill="#ADD8E6" height="37.0146" rx="2.5" ry="2.5" style="stroke:#000000;stroke-width:1;" width="96.7402" x="907.63" y="318.6673"/><text fill="#000000" font-family="Verdana" font-size="14" lengthAdjust="spacing" textLength="76.7402" x="917.63" y="342.7425">FD Monitor</text></g><!--entity TaskQ--><g class="entity" data-entity="TaskQ" data-source-line="11" data-uid="ent0006" id="entity_TaskQ"><rect fill="#ADD8E6" height="37.0146" rx="2.5" ry="2.5" style="stroke:#000000;stroke-width:1;" width="102.9541" x="1170.52" y="526.5673"/><text fill="#000000" font-family="Verdana" font-size="14" lengthAdjust="spacing" textLength="82.9541" x="1180.52" y="550.6425">Task Queue</text></g><!--entity LoopVT--><g class="entity" data-entity="LoopVT" data-source-line="15" data-uid="ent0008" id="entity_LoopVT"><rect fill="#90EE90" height="37.0146" rx="2.5" ry="2.5" style="stroke:#000000;stroke-width:1;" width="105.9414" x="567.03" y="526.5673"/><text fill="#000000" font-family="Verdana" font-size="14" lengthAdjust="spacing" textLength="85.9414" x="577.03" y="550.6425">Loop VTable</text></g><!--entity HandleMap--><g class="entity" data-entity="HandleMap" data-source-line="16" data-uid="ent0009" id="entity_HandleMap"><path d="M568.73,652.5873 C568.73,642.5873 620.002,642.5873 620.002,642.5873 C620.002,642.5873 671.2739,642.5873 671.2739,652.5873 L671.2739,678.602 C671.2739,688.602 620.002,688.602 620.002,688.602 C620.002,688.602 568.73,688.602 568.73,678.602 L568.73,652.5873" fill="#90EE90" style="stroke:#000000;stroke-width:1;"/><path d="M568.73,652.5873 C568.73,662.5873 620.002,662.5873 620.002,662.5873 C620.002,662.5873 671.2739,662.5873 671.2739,652.5873" fill="none" style="stroke:#000000;stroke-width:1;"/><text fill="#000000" font-family="Verdana" font-size="14" lengthAdjust="spacing" textLength="82.5439" x="578.73" y="680.6625">Handle Map</text></g><!--entity CBWrap--><g class="entity" data-entity="CBWrap" data-source-line="17" data-uid="ent0010" id="entity_CBWrap"><rect fill="#90EE90" height="37.0146" rx="2.5" ry="2.5" style="stroke:#000000;stroke-width:1;" width="143.4844" x="708.26" y="526.5673"/><text fill="#000000" font-family="Verdana" font-size="14" lengthAdjust="spacing" textLength="123.4844" x="718.26" y="550.6425">Callback Wrapper</text></g><!--entity LibEvent--><g class="entity" data-entity="LibEvent" data-source-line="21" data-uid="ent0012" id="entity_LibEvent"><rect fill="#FFFFE0" height="37.0146" rx="2.5" ry="2.5" style="stroke:#000000;stroke-width:1;" width="113.2559" x="301.37" y="526.5673"/><text fill="#000000" font-family="Verdana" font-size="14" lengthAdjust="spacing" textLength="93.2559" x="311.37" y="550.6425">libevent Core</text></g><!--entity FDEvents--><g class="entity" data-entity="FDEvents" data-source-line="22" data-uid="ent0013" id="entity_FDEvents"><rect fill="#FFFFE0" height="37.0146" rx="2.5" ry="2.5" style="stroke:#000000;stroke-width:1;" width="90.9023" x="26.55" y="318.6673"/><text fill="#000000" font-family="Verdana" font-size="14" lengthAdjust="spacing" textLength="70.9023" x="36.55" y="342.7425">FD Events</text></g><!--entity TimerEvents--><g class="entity" data-entity="TimerEvents" data-source-line="23" data-uid="ent0014" id="entity_TimerEvents"><rect fill="#FFFFE0" height="37.0146" rx="2.5" ry="2.5" style="stroke:#000000;stroke-width:1;" width="112.4697" x="152.77" y="318.6673"/><text fill="#000000" font-family="Verdana" font-size="14" lengthAdjust="spacing" textLength="92.4697" x="162.77" y="342.7425">Timer Events</text></g><!--entity SigEvents--><g class="entity" data-entity="SigEvents" data-source-line="24" data-uid="ent0015" id="entity_SigEvents"><rect fill="#FFFFE0" height="37.0146" rx="2.5" ry="2.5" style="stroke:#000000;stroke-width:1;" width="115.3135" x="300.34" y="318.6673"/><text fill="#000000" font-family="Verdana" font-size="14" lengthAdjust="spacing" textLength="95.3135" x="310.34" y="342.7425">Signal Events</text></g><g class="entity" data-entity="GMN17" data-source-line="29" data-uid="ent0018" id="entity_GMN17"><path d="M488.15,284.7773 L488.15,333.1673 L416.01,337.1673 L488.15,341.1673 L488.15,389.5732 A0,0 0 0 0 488.15,389.5732 L587.8546,389.5732 A0,0 0 0 0 587.8546,389.5732 L587.8546,294.7773 L577.8546,284.7773 L488.15,284.7773 A0,0 0 0 0 488.15,284.7773" fill="#FFFFFF" style="stroke:#000000;stroke-width:1;"/><path d="M577.8546,284.7773 L577.8546,294.7773 L587.8546,294.7773 L577.8546,284.7773" fill="#FFFFFF" style="stroke:#000000;stroke-width:1;"/><text fill="#000000" font-family="Verdana" font-size="13" lengthAdjust="spacing" textLength="56.748" x="505.1283" y="302.8471">add_fd()</text><text fill="#000000" font-family="Verdana" font-size="13" lengthAdjust="spacing" textLength="61.3755" x="502.8146" y="318.6464">mod_fd()</text><text fill="#000000" font-family="Verdana" font-size="13" lengthAdjust="spacing" textLength="52.1523" x="507.4261" y="334.4458">del_fd()</text><text fill="#000000" font-family="Verdana" font-size="13" lengthAdjust="spacing" textLength="78.7046" x="494.15" y="350.2451">add_timer()</text><text fill="#000000" font-family="Verdana" font-size="13" lengthAdjust="spacing" textLength="74.1089" x="496.4479" y="366.0444">del_timer()</text><text fill="#000000" font-family="Verdana" font-size="13" lengthAdjust="spacing" textLength="39.6919" x="513.6563" y="381.8437">post()</text></g><!--entity UC1--><g class="entity" data-entity="UC1" data-source-line="73" data-uid="ent0042" id="entity_UC1"><ellipse cx="1106.0044" cy="131.2585" fill="#FFFFFF" rx="49.5344" ry="15.0312" style="stroke:#000000;stroke-width:1;"/><text fill="#000000" font-family="Verdana" font-size="14" lengthAdjust="spacing" textLength="65.8096" x="1073.0996" y="136.2658">PTY Read</text></g><!--entity UC2--><g class="entity" data-entity="UC2" data-source-line="74" data-uid="ent0043" id="entity_UC2"><ellipse cx="1404.9979" cy="131.2549" fill="#FFFFFF" rx="70.5879" ry="16.5176" style="stroke:#000000;stroke-width:1;"/><text fill="#000000" font-family="Verdana" font-size="14" lengthAdjust="spacing" textLength="105.0479" x="1352.474" y="136.2622">Window Resize</text></g><!--entity UC3--><g class="entity" data-entity="UC3" data-source-line="75" data-uid="ent0044" id="entity_UC3"><ellipse cx="1245.0005" cy="131.2585" fill="#FFFFFF" rx="54.8805" ry="15.0312" style="stroke:#000000;stroke-width:1;"/><text fill="#000000" font-family="Verdana" font-size="14" lengthAdjust="spacing" textLength="73.3701" x="1208.3154" y="136.2658">Timer Tick</text></g><!--entity UC4--><g class="entity" data-entity="UC4" data-source-line="76" data-uid="ent0045" id="entity_UC4"><ellipse cx="1565.9999" cy="131.2585" fill="#FFFFFF" rx="55.7699" ry="15.0312" style="stroke:#000000;stroke-width:1;"/><text fill="#000000" font-family="Verdana" font-size="14" lengthAdjust="spacing" textLength="74.6279" x="1528.686" y="136.2658">User Input</text></g><g class="entity" data-entity="GMN35" data-source-line="61" data-uid="ent0036" id="entity_GMN35"><path d="M1353.35,300.5773 L1353.35,373.7746 L1508.641,373.7746 L1508.641,310.5773 L1498.641,300.5773 L1353.35,300.5773" fill="#FFFFFF" style="stroke:#000000;stroke-width:1;"/><path d="M1498.641,300.5773 L1498.641,310.5773 L1508.641,310.5773 L1498.641,300.5773" fill="#FFFFFF" style="stroke:#000000;stroke-width:1;"/><text fill="#000000" font-family="Verdana" font-size="13" font-weight="bold" lengthAdjust="spacing" textLength="115.7241" x="1368.6334" y="318.6471">Key Abstraction</text><text fill="#000000" font-family="Verdana" font-size="13" lengthAdjust="spacing" textLength="124.4775" x="1364.2567" y="334.4464">Allows tmux to use</text><text fill="#000000" font-family="Verdana" font-size="13" lengthAdjust="spacing" textLength="134.291" x="1359.35" y="350.2458">Ghostty's event loop</text><text fill="#000000" font-family="Verdana" font-size="13" lengthAdjust="spacing" textLength="120.707" x="1366.142" y="366.0451">instead of libevent</text></g><g class="entity" data-entity="GMN38" data-source-line="68" data-uid="ent0039" id="entity_GMN38"><path d="M536.35,751.5973 L536.35,793.1959 A0,0 0 0 0 536.35,793.1959 L703.6571,793.1959 A0,0 0 0 0 703.6571,793.1959 L703.6571,761.5973 L693.6571,751.5973 L624,751.5973 L620,689.0773 L616,751.5973 L536.35,751.5973 A0,0 0 0 0 536.35,751.5973" fill="#FFFFFF" style="stroke:#000000;stroke-width:1;"/><path d="M693.6571,751.5973 L693.6571,761.5973 L703.6571,761.5973 L693.6571,751.5973" fill="#FFFFFF" style="stroke:#000000;stroke-width:1;"/><text fill="#000000" font-family="Verdana" font-size="13" lengthAdjust="spacing" textLength="144.4917" x="543.2577" y="769.6671">Maps tmux handles to</text><text fill="#000000" font-family="Verdana" font-size="13" lengthAdjust="spacing" textLength="146.3071" x="542.35" y="785.4664">Ghostty event sources</text></g><!--reverse link VTable to LoopVT--><g class="link" data-entity-1="VTable" data-entity-2="LoopVT" data-source-line="39" data-uid="lnk21" id="link_VTable_LoopVT"><path d="M613.2622,419.2567 C612.671,420.3701 614.3423,416.9605 613.6832,418.0304 C611.0467,422.3101 607.8538,426.2186 604,429.5673 C583.32,447.5373 499.73,417.5873 481,437.5673 C446.7,474.1773 514.36,507.8373 566.79,527.1473" fill="none" id="VTable-backto-LoopVT" style="stroke:#000000;stroke-width:1;"/><polygon fill="#000000" points="615.995,413.9152,608.3348,420.1056,613.7177,418.3665,615.4569,423.7494,615.995,413.9152" style="stroke:#000000;stroke-width:1;"/><text fill="#000000" font-family="Verdana" font-size="13" lengthAdjust="spacing" textLength="76.1338" x="482" y="451.6371">implements</text></g><!--link MainLoop to TaskQ--><g class="link" data-entity-1="MainLoop" data-entity-2="TaskQ" data-source-line="42" data-uid="lnk22" id="link_MainLoop_TaskQ"><path d="M1255.78,356.0873 C1248.77,395.1273 1233.2322,481.5821 1226.2422,520.4421" fill="none" id="MainLoop-to-TaskQ" style="stroke:#000000;stroke-width:1;"/><polygon fill="#000000" points="1225.18,526.3473,1230.7101,518.1976,1226.0652,521.4263,1222.8365,516.7813,1225.18,526.3473" style="stroke:#000000;stroke-width:1;"/><text fill="#000000" font-family="Verdana" font-size="13" lengthAdjust="spacing" textLength="59.2681" x="1241.5" y="451.6371">Schedule</text></g><!--link TaskQ to CBWrap--><g class="link" data-entity-1="TaskQ" data-entity-2="CBWrap" data-source-line="43" data-uid="lnk23" id="link_TaskQ_CBWrap"><path d="M1170.09,545.0773 C1091.31,545.0773 947.29,545.0773 858,545.0773" fill="none" id="TaskQ-to-CBWrap" style="stroke:#000000;stroke-width:1;"/><polygon fill="#000000" points="852,545.0773,861,549.0773,857,545.0773,861,541.0773,852,545.0773" style="stroke:#000000;stroke-width:1;"/><text fill="#000000" font-family="Verdana" font-size="13" lengthAdjust="spacing" textLength="51.5239" x="985.63" y="539.1471">Execute</text></g><!--link FDMon to CBWrap--><g class="link" data-entity-1="FDMon" data-entity-2="CBWrap" data-source-line="44" data-uid="lnk24" id="link_FDMon_CBWrap"><path d="M922.06,356.0773 C892.12,373.3873 849.14,402.1673 822,437.5673 C801.08,464.8573 790.6704,498.0778 785.2004,520.5278" fill="none" id="FDMon-to-CBWrap" style="stroke:#000000;stroke-width:1;"/><polygon fill="#000000" points="783.78,526.3573,789.7968,518.56,784.9636,521.4994,782.0242,516.6662,783.78,526.3573" style="stroke:#000000;stroke-width:1;"/><text fill="#000000" font-family="Verdana" font-size="13" lengthAdjust="spacing" textLength="62.4419" x="823" y="451.6371">FD Ready</text></g><!--link TimerMgr to CBWrap--><g class="link" data-entity-1="TimerMgr" data-entity-2="CBWrap" data-source-line="45" data-uid="lnk25" id="link_TimerMgr_CBWrap"><path d="M1108.67,355.9273 C1116.98,381.4673 1127.23,428.3673 1102,454.5673 C1085.81,471.3873 914.06,454.9273 892,462.5673 C854.05,475.7173 822.273,502.2366 801.763,521.9766" fill="none" id="TimerMgr-to-CBWrap" style="stroke:#000000;stroke-width:1;"/><polygon fill="#000000" points="797.44,526.1373,806.6983,522.7782,801.0425,522.67,801.1507,517.0142,797.44,526.1373" style="stroke:#000000;stroke-width:1;"/><text fill="#000000" font-family="Verdana" font-size="13" lengthAdjust="spacing" textLength="74.5151" x="1113" y="451.6371">Timer Fired</text></g><!--link LibEvent to LoopVT--><g class="link" data-entity-1="LibEvent" data-entity-2="LoopVT" data-source-line="48" data-uid="lnk26" id="link_LibEvent_LoopVT"><path d="M414.85,545.0773 C460,545.0773 516.67,545.0773 560.83,545.0773" fill="none" id="LibEvent-to-LoopVT" style="stroke:#000000;stroke-width:1;"/><polygon fill="#000000" points="566.83,545.0773,557.83,541.0773,561.83,545.0773,557.83,549.0773,566.83,545.0773" style="stroke:#000000;stroke-width:1;"/><text fill="#000000" font-family="Verdana" font-size="13" lengthAdjust="spacing" textLength="101.9878" x="440.33" y="539.1471">Register Events</text></g><!--link LoopVT to HandleMap--><g class="link" data-entity-1="LoopVT" data-entity-2="HandleMap" data-source-line="49" data-uid="lnk27" id="link_LoopVT_HandleMap"><path d="M620,564.0773 C620,585.0573 620,613.7373 620,636.3773" fill="none" id="LoopVT-to-HandleMap" style="stroke:#000000;stroke-width:1;"/><polygon fill="#000000" points="620,642.3773,624,633.3773,620,637.3773,616,633.3773,620,642.3773" style="stroke:#000000;stroke-width:1;"/><text fill="#000000" font-family="Verdana" font-size="13" lengthAdjust="spacing" textLength="94.6182" x="621" y="609.6571">Store Mapping</text></g><!--link LoopVT to FDMon--><g class="link" data-entity-1="LoopVT" data-entity-2="FDMon" data-source-line="50" data-uid="lnk28" id="link_LoopVT_FDMon"><path d="M633.08,526.1773 C646.41,508.6873 668.3,481.9373 691,462.5673 C756.24,406.8973 844.9096,372.4087 901.6596,354.1087" fill="none" id="LoopVT-to-FDMon" style="stroke:#000000;stroke-width:1;"/><polygon fill="#000000" points="907.37,352.2673,897.5767,351.2225,902.6113,353.8018,900.032,358.8364,907.37,352.2673" style="stroke:#000000;stroke-width:1;"/><text fill="#000000" font-family="Verdana" font-size="13" lengthAdjust="spacing" textLength="71.2588" x="723.47" y="451.6371">Monitor FD</text></g><!--link LoopVT to TimerMgr--><g class="link" data-entity-1="LoopVT" data-entity-2="TimerMgr" data-source-line="51" data-uid="lnk29" id="link_LoopVT_TimerMgr"><path d="M629.53,526.2873 C641.14,506.6773 662.74,476.1173 691,462.5673 C710.95,452.9973 868.51,459.8473 890,454.5673 C907.18,450.3473 908.91,442.1573 926,437.5673 C946.68,432.0173 1002.89,439.2173 1022,429.5673 C1054.38,413.2273 1076.2849,382.7394 1089.1949,361.1094" fill="none" id="LoopVT-to-TimerMgr" style="stroke:#000000;stroke-width:1;"/><polygon fill="#000000" points="1092.27,355.9573,1084.2227,361.6354,1089.7075,360.2507,1091.0921,365.7355,1092.27,355.9573" style="stroke:#000000;stroke-width:1;"/><text fill="#000000" font-family="Verdana" font-size="13" lengthAdjust="spacing" textLength="101.353" x="927" y="451.6371">Schedule Timer</text></g><!--link LoopVT to TaskQ--><g class="link" data-entity-1="LoopVT" data-entity-2="TaskQ" data-source-line="52" data-uid="lnk30" id="link_LoopVT_TaskQ"><path d="M629.81,526.1673 C641.38,506.1373 662.69,475.6473 691,462.5673 C732.36,443.4673 1057.54,447.0873 1101,460.7373 C1141.8,473.5573 1176.468,501.4495 1198.698,522.1395" fill="none" id="LoopVT-to-TaskQ" style="stroke:#000000;stroke-width:1;"/><polygon fill="#000000" points="1203.09,526.2273,1199.2271,517.1676,1199.43,522.8208,1193.7767,523.0237,1203.09,526.2273" style="stroke:#000000;stroke-width:1;"/><text fill="#000000" font-family="Verdana" font-size="13" lengthAdjust="spacing" textLength="62.48" x="1038" y="451.6371">Post Task</text></g><!--link FDEvents to LibEvent--><g class="link" data-entity-1="FDEvents" data-entity-2="LibEvent" data-source-line="54" data-uid="lnk31" id="link_FDEvents_LibEvent"><path d="M80.78,355.9273 C91.38,375.9073 110.82,408.3273 135,429.5673 C186.33,474.6673 252.9848,505.3508 301.1748,524.0108" fill="none" id="FDEvents-to-LibEvent" style="stroke:#000000;stroke-width:1;"/><polygon fill="#000000" points="306.77,526.1773,299.8216,519.1974,302.1073,524.3718,296.9329,526.6576,306.77,526.1773" style="stroke:#000000;stroke-width:1;"/><text fill="#000000" font-family="Verdana" font-size="13" lengthAdjust="spacing" textLength="52.749" x="162.58" y="451.6371">Request</text></g><!--link TimerEvents to LibEvent--><g class="link" data-entity-1="TimerEvents" data-entity-2="LibEvent" data-source-line="55" data-uid="lnk32" id="link_TimerEvents_LibEvent"><path d="M221.96,356.0873 C250.21,395.1273 313.5326,482.6265 341.6526,521.4865" fill="none" id="TimerEvents-to-LibEvent" style="stroke:#000000;stroke-width:1;"/><polygon fill="#000000" points="345.17,526.3473,343.1344,516.7111,342.2388,522.2966,336.6533,521.401,345.17,526.3473" style="stroke:#000000;stroke-width:1;"/><text fill="#000000" font-family="Verdana" font-size="13" lengthAdjust="spacing" textLength="52.749" x="293.42" y="451.6371">Request</text></g><!--link SigEvents to LibEvent--><g class="link" data-entity-1="SigEvents" data-entity-2="LibEvent" data-source-line="56" data-uid="lnk33" id="link_SigEvents_LibEvent"><path d="M358,356.0873 C358,395.1273 358,481.4873 358,520.3473" fill="none" id="SigEvents-to-LibEvent" style="stroke:#000000;stroke-width:1;"/><polygon fill="#000000" points="358,526.3473,362,517.3473,358,521.3473,354,517.3473,358,526.3473" style="stroke:#000000;stroke-width:1;"/><text fill="#000000" font-family="Verdana" font-size="13" lengthAdjust="spacing" textLength="52.749" x="359" y="451.6371">Request</text></g><!--link CBWrap to LibEvent--><g class="link" data-entity-1="CBWrap" data-entity-2="LibEvent" data-source-line="58" data-uid="lnk34" id="link_CBWrap_LibEvent"><path d="M765.78,526.2673 C749.75,506.6273 721.74,476.7573 690,462.5673 C682.46,459.1973 679.75,461.1473 671.5,460.7373 C583.55,456.3973 583.1,454.0073 551,462.5673 C493.79,477.8373 436.7904,504.2519 398.8804,523.4919" fill="none" id="CBWrap-to-LibEvent" style="stroke:#000000;stroke-width:1;"/><polygon fill="#000000" points="393.53,526.2073,403.3658,525.7011,397.9886,523.9445,399.7453,518.5673,393.53,526.2073" style="stroke:#000000;stroke-width:1;"/><text fill="#000000" font-family="Verdana" font-size="13" lengthAdjust="spacing" textLength="103.6826" x="567.5" y="451.6371">Invoke Callback</text></g><!--link VTable to GMN35--><g class="link" data-entity-1="VTable" data-entity-2="GMN35" data-source-line="61" data-uid="lnk37" id="link_VTable_GMN35"><path d="M631.2686,330.9219 C631.4122,330.8153 631.5576,330.7075 631.7048,330.5985 C632.2933,330.1625 632.91,329.7069 633.5543,329.2324 C638.7085,325.4368 645.6295,320.4334 654.0491,314.5614 C670.8881,302.8173 693.7212,287.5986 720.4025,271.6173 C773.765,239.6548 842.52,204.6423 909.5,188.2773 C953.43,177.5373 1274.47,171.5873 1316.5,188.2773 C1365.9,207.8873 1398.81,262.8873 1416.21,300.2673" fill="none" id="VTable-GMN35" style="stroke:#000000;stroke-width:1;stroke-dasharray:7,7;"/></g><!--link UC1 to FDMon--><g class="link" data-entity-1="UC1" data-entity-2="FDMon" data-source-line="79" data-uid="lnk46" id="link_UC1_FDMon"><path d="M1086.72,145.4473 C1068.32,158.7673 1040.71,180.7673 1022,204.7773 C993.6,241.2173 974.4776,286.2034 964.4776,312.7134" fill="none" id="UC1-to-FDMon" style="stroke:#000000;stroke-width:1;stroke-dasharray:7,7;"/><polygon fill="#000000" points="962.36,318.3273,969.279,311.3183,964.1247,313.6491,961.7939,308.4947,962.36,318.3273" style="stroke:#000000;stroke-width:1;"/><text fill="#000000" font-family="Verdana" font-size="13" lengthAdjust="spacing" textLength="50.502" x="1045.58" y="193.8471">triggers</text></g><!--link UC2 to TaskQ--><g class="link" data-entity-1="UC2" data-entity-2="TaskQ" data-source-line="80" data-uid="lnk47" id="link_UC2_TaskQ"><path d="M1435.93,146.4273 C1468.37,161.9973 1516.01,187.1373 1526,204.7773 C1575.25,291.6973 1582.85,347.4073 1526,429.5673 C1468.96,512.0073 1350.5451,534.6214 1279.8351,541.0814" fill="none" id="UC2-to-TaskQ" style="stroke:#000000;stroke-width:1;stroke-dasharray:7,7;"/><polygon fill="#000000" points="1273.86,541.6273,1283.1866,544.7919,1278.8393,541.1724,1282.4588,536.8251,1273.86,541.6273" style="stroke:#000000;stroke-width:1;"/><text fill="#000000" font-family="Verdana" font-size="13" lengthAdjust="spacing" textLength="34.6582" x="1566.83" y="342.7371">posts</text></g><!--link UC3 to TimerMgr--><g class="link" data-entity-1="UC3" data-entity-2="TimerMgr" data-source-line="81" data-uid="lnk48" id="link_UC3_TimerMgr"><path d="M1231.71,146.1073 C1218.42,160.2873 1197.74,183.2273 1182,204.7773 C1153.64,243.5873 1128.4945,287.5162 1114.3545,313.3062" fill="none" id="UC3-to-TimerMgr" style="stroke:#000000;stroke-width:1;stroke-dasharray:7,7;"/><polygon fill="#000000" points="1111.47,318.5673,1119.3042,312.5986,1113.8738,314.183,1112.2894,308.7526,1111.47,318.5673" style="stroke:#000000;stroke-width:1;"/><text fill="#000000" font-family="Verdana" font-size="13" lengthAdjust="spacing" textLength="28.2026" x="1202.62" y="193.8471">fires</text></g><!--link UC4 to TaskQ--><g class="link" data-entity-1="UC4" data-entity-2="TaskQ" data-source-line="82" data-uid="lnk49" id="link_UC4_TaskQ"><path d="M1577.86,146.4173 C1588.64,160.2773 1603.77,182.5073 1610,204.7773 C1636.91,300.9873 1667.73,348.0273 1610,429.5673 C1570.83,484.8873 1376.1199,520.963 1279.7399,535.823" fill="none" id="UC4-to-TaskQ" style="stroke:#000000;stroke-width:1;stroke-dasharray:7,7;"/><polygon fill="#000000" points="1273.81,536.7373,1283.3144,539.3192,1278.7516,535.9754,1282.0954,531.4126,1273.81,536.7373" style="stroke:#000000;stroke-width:1;"/><text fill="#000000" font-family="Verdana" font-size="13" lengthAdjust="spacing" textLength="46.814" x="1643.73" y="342.7371">queues</text></g><!--SRC=[ZLNRJXin47ttLxZqWJOII0MUyb0f149HYSGbW51L8MTtih7YjPUrbnAg_djdREyj3QXvM6KkPsOyFcVtWrj23hnGGchcf5F0Jvz1EtvXJC7FjOEi54uQpPXTILs8KkGyCNbXD6RTk3K2IaYSq9c2JaeA2r4fDuCNDr8oqpdLJF019ME5I5OY0xvpjZJMkNMdvGx_pJZ-cXRynnH7uzULfl1FBYmdXn_luuNCbkvOLR29cSaSIapKsARq8E-PPkKxeCa9dnejdGc8oGbQx_KGTiMlAgWWD43pgfl-ftFGpav7gIXm2riEwiDtCp5NeIBPTxDOygm4q1wH2YVcmcBLRqAdkF-fmBLXVZ3H-WVIQJ8MIirnB7vVYgA8onaVazM3TQTNSkxowYKnPMI7tJ8z9e4_vHZJmlno7iuTwZw0KkRNbgM7ad7dmNWN4YwtW_AE_m3U8165wYBHims7XszXEovF7XNUnUEpexlnkmxN555uOYmRDgADGqMGrvlq4sdwk4W_VMuSkTbmfA3w3e8uEjL6qgQlGFr44tJgczFmk_LyCYyKaFQ2XYEZzgfYxskTCcoJB25hJSgEzXl5xI4k47t8Rv8bf1MgFZWe57aqvASla5GuIz1GBuGNVWqYNRD6aRrmkDo9B26bQOXtlL4QKX4gdcU85JDfNSEAvg2Oqwe2HtP4OVnVI9rrayASmrh_Q7UZpQJjeOElbnJNSedhymPZ3PlzhFNWDErJ1TQnBc_VI6a9-aO2YvlR29_hPxC2NgkTiPQNt2pYtIDl1eFliEQZkNMbI6Z1Wm5wHwG26vRl3AyifKPYx5eUT4wIGBVKk7YHKjNw5S0QBeQsS-ESoIcZkGm4uZEsM7el6gPj4vjOKvK9s4x5ZNVg12T5kWdYSFDQme4J_uQyd3rujddDtew_zAFtKgU8lWOhNo6c7FHJ0XrdCbd5-64_VcinVAwBoiNu4UaFE_7z_PPM3XUF7oABWGCVgCb2-YNlOV2sF5kW02Xmr4j_eg-DPNy1]--></g></svg>