<svg xmlns="http://www.w3.org/2000/svg" xmlns:xlink="http://www.w3.org/1999/xlink" contentStyleType="text/css" data-diagram-type="DESCRIPTION" height="1439px" preserveAspectRatio="none" style="width:1513px;height:1439px;background:#FFFFFF;" version="1.1" viewBox="0 0 1513 1439" width="1513px" zoomAndPan="magnify"><title>Ghostty &#215; tmux High-Level Integration Architecture</title><defs/><g><g class="title" data-source-line="2"><text fill="#000000" font-family="Verdana" font-size="22" font-weight="bold" lengthAdjust="spacing" textLength="643.6289" x="430.5322" y="37.1182">Ghostty &#215; tmux High-Level Integration Architecture</text></g><!--cluster Ghostty Terminal--><g class="cluster" data-entity="Ghostty Terminal" data-source-line="8" data-uid="ent0002" id="cluster_Ghostty Terminal"><rect fill="#FFFFFF" height="635.76" rx="2.5" ry="2.5" style="stroke:#000000;stroke-width:1;" width="446" x="12" y="797.7073"/><text fill="#000000" font-family="Verdana" font-size="14" font-weight="bold" lengthAdjust="spacing" textLength="135.4063" x="167.2969" y="813.7825">Ghostty Terminal</text></g><!--cluster Integration Layer--><g class="cluster" data-entity="Integration Layer" data-source-line="15" data-uid="ent0008" id="cluster_Integration Layer"><rect fill="#FFFFFF" height="106.03" rx="2.5" ry="2.5" style="stroke:#000000;stroke-width:1;" width="398" x="36" y="947.2073"/><text fill="#000000" font-family="Verdana" font-size="14" font-weight="bold" lengthAdjust="spacing" textLength="138.5645" x="165.7178" y="963.2825">Integration Layer</text></g><!--cluster libtmuxcore--><g class="cluster" data-entity="libtmuxcore" data-source-line="22" data-uid="ent0012" id="cluster_libtmuxcore"><rect fill="#FFFFFF" height="669.28" rx="2.5" ry="2.5" style="stroke:#000000;stroke-width:1;" width="322" x="555" y="59.7373"/><text fill="#000000" font-family="Verdana" font-size="14" font-weight="bold" lengthAdjust="spacing" textLength="93.9941" x="669.0029" y="75.8125">libtmuxcore</text></g><!--cluster Callbacks--><g class="cluster" data-entity="Callbacks" data-source-line="32" data-uid="ent0020" id="cluster_Callbacks"><rect fill="#FFFFFF" height="112" rx="2.5" ry="2.5" style="stroke:#000000;stroke-width:1;" width="657" x="482" y="786.2073"/><text fill="#000000" font-family="Verdana" font-size="14" font-weight="bold" lengthAdjust="spacing" textLength="74.1289" x="773.4355" y="802.2825">Callbacks</text></g><!--entity GApp--><g class="entity" data-entity="GApp" data-source-line="9" data-uid="ent0003" id="entity_GApp"><rect fill="#ADD8E6" height="37.0146" rx="2.5" ry="2.5" style="stroke:#000000;stroke-width:1;" width="106.7617" x="91.62" y="833.7073"/><text fill="#000000" font-family="Verdana" font-size="14" lengthAdjust="spacing" textLength="86.7617" x="101.62" y="857.7825">Ghostty App</text></g><!--entity TBuf--><g class="entity" data-entity="TBuf" data-source-line="10" data-uid="ent0004" id="entity_TBuf"><rect fill="#ADD8E6" height="37.0146" rx="2.5" ry="2.5" style="stroke:#000000;stroke-width:1;" width="129.0469" x="40.48" y="1134.3273"/><text fill="#000000" font-family="Verdana" font-size="14" lengthAdjust="spacing" textLength="109.0469" x="50.48" y="1158.4025">Terminal Buffer</text></g><!--entity GPU--><g class="entity" data-entity="GPU" data-source-line="11" data-uid="ent0005" id="entity_GPU"><rect fill="#ADD8E6" height="37.0146" rx="2.5" ry="2.5" style="stroke:#000000;stroke-width:1;" width="118.752" x="45.62" y="1266.4373"/><text fill="#000000" font-family="Verdana" font-size="14" lengthAdjust="spacing" textLength="98.752" x="55.62" y="1290.5125">GPU Renderer</text></g><!--entity Input--><g class="entity" data-entity="Input" data-source-line="12" data-uid="ent0006" id="entity_Input"><rect fill="#ADD8E6" height="37.0146" rx="2.5" ry="2.5" style="stroke:#000000;stroke-width:1;" width="117.4395" x="233.28" y="833.7073"/><text fill="#000000" font-family="Verdana" font-size="14" lengthAdjust="spacing" textLength="97.4395" x="243.28" y="857.7825">Input Handler</text></g><!--entity WinMgr--><g class="entity" data-entity="WinMgr" data-source-line="13" data-uid="ent0007" id="entity_WinMgr"><rect fill="#ADD8E6" height="37.0146" rx="2.5" ry="2.5" style="stroke:#000000;stroke-width:1;" width="140.6543" x="34.67" y="1380.4573"/><text fill="#000000" font-family="Verdana" font-size="14" lengthAdjust="spacing" textLength="120.6543" x="44.67" y="1404.5325">Window Manager</text></g><!--entity FFI--><g class="entity" data-entity="FFI" data-source-line="16" data-uid="ent0009" id="entity_FFI"><rect fill="#90EE90" height="54.0293" rx="2.5" ry="2.5" style="stroke:#000000;stroke-width:1;" width="92.1055" x="192.95" y="983.2073"/><text fill="#000000" font-family="Verdana" font-size="14" lengthAdjust="spacing" textLength="72.1055" x="202.95" y="1007.2825">FFI Bridge</text><text fill="#000000" font-family="Verdana" font-size="14" lengthAdjust="spacing" textLength="34.8701" x="221.5677" y="1024.2971">(Zig)</text></g><!--entity LoopAdapter--><g class="entity" data-entity="LoopAdapter" data-source-line="17" data-uid="ent0010" id="entity_LoopAdapter"><rect fill="#90EE90" height="54.0293" rx="2.5" ry="2.5" style="stroke:#000000;stroke-width:1;" width="98.2852" x="319.86" y="983.2073"/><text fill="#000000" font-family="Verdana" font-size="14" lengthAdjust="spacing" textLength="78.2852" x="329.86" y="1007.2825">Event Loop</text><text fill="#000000" font-family="Verdana" font-size="14" lengthAdjust="spacing" textLength="55.2549" x="341.3751" y="1024.2971">Adapter</text></g><!--entity GridMap--><g class="entity" data-entity="GridMap" data-source-line="18" data-uid="ent0011" id="entity_GridMap"><rect fill="#90EE90" height="37.0146" rx="2.5" ry="2.5" style="stroke:#000000;stroke-width:1;" width="106.2832" x="51.86" y="991.7173"/><text fill="#000000" font-family="Verdana" font-size="14" lengthAdjust="spacing" textLength="86.2832" x="61.86" y="1015.7925">Grid Mapper</text></g><!--entity Server--><g class="entity" data-entity="Server" data-source-line="23" data-uid="ent0013" id="entity_Server"><rect fill="#FFFFE0" height="37.0146" rx="2.5" ry="2.5" style="stroke:#000000;stroke-width:1;" width="107.6846" x="741.16" y="209.7573"/><text fill="#000000" font-family="Verdana" font-size="14" lengthAdjust="spacing" textLength="87.6846" x="751.16" y="233.8325">tmux Server</text></g><!--entity SWP--><g class="entity" data-entity="SWP" data-source-line="24" data-uid="ent0014" id="entity_SWP"><rect fill="#FFFFE0" height="37.0146" rx="2.5" ry="2.5" style="stroke:#000000;stroke-width:1;" width="175.6816" x="685.16" y="323.7673"/><text fill="#000000" font-family="Verdana" font-size="14" lengthAdjust="spacing" textLength="155.6816" x="695.16" y="347.8425">Session/Window/Pane</text></g><!--entity Grid--><g class="entity" data-entity="Grid" data-source-line="25" data-uid="ent0015" id="entity_Grid"><rect fill="#FFFFE0" height="37.0146" rx="2.5" ry="2.5" style="stroke:#000000;stroke-width:1;" width="106.9395" x="723.53" y="437.7873"/><text fill="#000000" font-family="Verdana" font-size="14" lengthAdjust="spacing" textLength="86.9395" x="733.53" y="461.8625">Grid System</text></g><!--entity SWrite--><g class="entity" data-entity="SWrite" data-source-line="26" data-uid="ent0016" id="entity_SWrite"><rect fill="#FFFFE0" height="37.0146" rx="2.5" ry="2.5" style="stroke:#000000;stroke-width:1;" width="116.79" x="727.6" y="551.7973"/><text fill="#000000" font-family="Verdana" font-size="14" lengthAdjust="spacing" textLength="96.79" x="737.6" y="575.8725">Screen Writer</text></g><!--entity UIBack--><g class="entity" data-entity="UIBack" data-source-line="27" data-uid="ent0017" id="entity_UIBack"><rect fill="#FFA500" height="37.0146" rx="2.5" ry="2.5" style="stroke:#000000;stroke-width:1;" width="100.5684" x="754.72" y="676.0073"/><text fill="#000000" font-family="Verdana" font-size="14" lengthAdjust="spacing" textLength="80.5684" x="764.72" y="700.0825">UI Backend</text></g><!--entity Cmd--><g class="entity" data-entity="Cmd" data-source-line="28" data-uid="ent0018" id="entity_Cmd"><rect fill="#FFFFE0" height="37.0146" rx="2.5" ry="2.5" style="stroke:#000000;stroke-width:1;" width="149.042" x="571.48" y="95.7373"/><text fill="#000000" font-family="Verdana" font-size="14" lengthAdjust="spacing" textLength="129.042" x="581.48" y="119.8125">Command System</text></g><!--entity PTY--><g class="entity" data-entity="PTY" data-source-line="29" data-uid="ent0019" id="entity_PTY"><rect fill="#FFFFE0" height="37.0146" rx="2.5" ry="2.5" style="stroke:#000000;stroke-width:1;" width="105.1758" x="755.41" y="95.7373"/><text fill="#000000" font-family="Verdana" font-size="14" lengthAdjust="spacing" textLength="85.1758" x="765.41" y="119.8125">PTY/Process</text></g><!--entity CB1--><g class="entity" data-entity="CB1" data-source-line="33" data-uid="ent0021" id="entity_CB1"><ellipse cx="561" cy="852.2073" fill="#FFFFFF" rx="8" ry="8" style="stroke:#000000;stroke-width:1;"/><text fill="#000000" font-family="Verdana" font-size="14" lengthAdjust="spacing" textLength="110.9883" x="505.5059" y="883.2825">on_grid_update</text></g><!--entity CB2--><g class="entity" data-entity="CB2" data-source-line="34" data-uid="ent0022" id="entity_CB2"><ellipse cx="731" cy="852.2073" fill="#FFFFFF" rx="8" ry="8" style="stroke:#000000;stroke-width:1;"/><text fill="#000000" font-family="Verdana" font-size="14" lengthAdjust="spacing" textLength="129.0488" x="666.4756" y="883.2825">on_layout_change</text></g><!--entity CB3--><g class="entity" data-entity="CB3" data-source-line="35" data-uid="ent0023" id="entity_CB3"><ellipse cx="899" cy="852.2073" fill="#FFFFFF" rx="8" ry="8" style="stroke:#000000;stroke-width:1;"/><text fill="#000000" font-family="Verdana" font-size="14" lengthAdjust="spacing" textLength="107.1328" x="845.4336" y="883.2825">on_copy_mode</text></g><!--entity CB4--><g class="entity" data-entity="CB4" data-source-line="36" data-uid="ent0024" id="entity_CB4"><ellipse cx="1059" cy="852.2073" fill="#FFFFFF" rx="8" ry="8" style="stroke:#000000;stroke-width:1;"/><text fill="#000000" font-family="Verdana" font-size="14" lengthAdjust="spacing" textLength="112.6973" x="1002.6514" y="883.2825">on_title_change</text></g><g class="entity" data-entity="GMN47" data-source-line="69" data-uid="ent0048" id="entity_GMN47"><path d="M893.34,665.8173 L893.34,690.5173 L855.75,694.5173 L893.34,698.5173 L893.34,723.2153 A0,0 0 0 0 893.34,723.2153 L1122.6637,723.2153 A0,0 0 0 0 1122.6637,723.2153 L1122.6637,675.8173 L1112.6637,665.8173 L893.34,665.8173 A0,0 0 0 0 893.34,665.8173" fill="#FFFFFF" style="stroke:#000000;stroke-width:1;"/><path d="M1112.6637,665.8173 L1112.6637,675.8173 L1122.6637,675.8173 L1112.6637,665.8173" fill="#FFFFFF" style="stroke:#000000;stroke-width:1;"/><text fill="#000000" font-family="Verdana" font-size="13" font-weight="bold" lengthAdjust="spacing" textLength="111.7886" x="947.6076" y="683.8871">Key Innovation</text><text fill="#000000" font-family="Verdana" font-size="13" lengthAdjust="spacing" textLength="208.3237" x="899.34" y="699.6864">Replaces TTY escape sequences</text><text fill="#000000" font-family="Verdana" font-size="13" lengthAdjust="spacing" textLength="162.7412" x="922.1313" y="715.4858">with structured callbacks</text></g><g class="entity" data-entity="GMN50" data-source-line="75" data-uid="ent0051" id="entity_GMN50"><path d="M473.71,1116.2373 L473.71,1189.4346 L648.2979,1189.4346 L648.2979,1126.2373 L638.2979,1116.2373 L473.71,1116.2373" fill="#FFFFFF" style="stroke:#000000;stroke-width:1;"/><path d="M638.2979,1116.2373 L638.2979,1126.2373 L648.2979,1126.2373 L638.2979,1116.2373" fill="#FFFFFF" style="stroke:#000000;stroke-width:1;"/><text fill="#000000" font-family="Verdana" font-size="13" font-weight="bold" lengthAdjust="spacing" textLength="93.0059" x="510.001" y="1134.3071">C ABI Bridge</text><text fill="#000000" font-family="Verdana" font-size="13" lengthAdjust="spacing" textLength="130.4824" x="491.2627" y="1150.1064">- Stable API version</text><text fill="#000000" font-family="Verdana" font-size="13" lengthAdjust="spacing" textLength="152.1406" x="480.4336" y="1165.9058">- Thread-safe callbacks</text><text fill="#000000" font-family="Verdana" font-size="13" lengthAdjust="spacing" textLength="153.5879" x="479.71" y="1181.7051">- Memory management</text></g><!--link GApp to FFI--><g class="link" data-entity-1="GApp" data-entity-2="FFI" data-source-line="40" data-uid="lnk25" id="link_GApp_FFI"><path d="M155.78,871.1073 C172.32,898.5573 200.9538,946.0779 220.0938,977.8479" fill="none" id="GApp-to-FFI" style="stroke:#000000;stroke-width:1;"/><polygon fill="#000000" points="223.19,982.9873,221.9719,973.2141,220.6098,978.7045,215.1194,977.3424,223.19,982.9873" style="stroke:#000000;stroke-width:1;"/><text fill="#000000" font-family="Verdana" font-size="13" lengthAdjust="spacing" textLength="55.4722" x="190.18" y="928.2771">Initialize</text></g><!--link FFI to Server--><g class="link" data-entity-1="FFI" data-entity-2="Server" data-source-line="41" data-uid="lnk26" id="link_FFI_Server"><path d="M254.68,982.8273 C265.71,966.9973 282.03,948.2373 302,939.2073 C320.05,931.0473 995.3,933.2873 1015,931.2073 C1070.91,925.3173 1103.26,949.6073 1139,906.2073 C1172.89,865.0473 1154.9,710.3673 1140,665.8173 C1126.41,625.1773 1102.41,626.4873 1082,588.8173 C1065.22,557.8473 1055,549.5273 1055,514.2973 C1055,341.2773 1055,341.2773 1055,341.2773 C1055,252.4373 931.3832,233.4928 855.1832,229.8628" fill="none" id="FFI-to-Server" style="stroke:#000000;stroke-width:1;"/><polygon fill="#000000" points="849.19,229.5773,857.9895,234.001,854.1843,229.8152,858.3701,226.0101,849.19,229.5773" style="stroke:#000000;stroke-width:1;"/><text fill="#000000" font-family="Verdana" font-size="13" lengthAdjust="spacing" textLength="120.5356" x="1083" y="575.8771">tmc_server_new()</text></g><!--link FFI to Server--><g class="link" data-entity-1="FFI" data-entity-2="Server" data-source-line="43" data-uid="lnk28" id="link_FFI_Server"><path d="M254.68,982.8173 C265.7,966.9873 282.03,948.2273 302,939.2073 C322.18,930.0973 1077.16,934.8273 1099,931.2073 C1172.36,919.0773 1247,927.5673 1247,853.2073 C1247,341.2773 1247,341.2773 1247,341.2773 C1247,260.1273 975.0424,237.669 855.0624,231.629" fill="none" id="FFI-to-Server-1" style="stroke:#000000;stroke-width:1;"/><polygon fill="#000000" points="849.07,231.3273,857.8575,235.7747,854.0637,231.5787,858.2597,227.7849,849.07,231.3273" style="stroke:#000000;stroke-width:1;"/><text fill="#000000" font-family="Verdana" font-size="13" lengthAdjust="spacing" textLength="113.623" x="1248" y="575.8771">tmc_send_keys()</text></g><!--link Input to FFI--><g class="link" data-entity-1="Input" data-entity-2="FFI" data-source-line="42" data-uid="lnk27" id="link_Input_FFI"><path d="M285.92,871.1073 C276.59,898.5573 260.6411,945.5366 249.8411,977.3066" fill="none" id="Input-to-FFI" style="stroke:#000000;stroke-width:1;"/><polygon fill="#000000" points="247.91,982.9873,254.5938,975.7536,249.5193,978.2534,247.0195,973.1788,247.91,982.9873" style="stroke:#000000;stroke-width:1;"/><text fill="#000000" font-family="Verdana" font-size="13" lengthAdjust="spacing" textLength="120.2881" x="271.25" y="928.2771">Key/Mouse Events</text></g><!--link Server to SWP--><g class="link" data-entity-1="Server" data-entity-2="SWP" data-source-line="45" data-uid="lnk29" id="link_Server_SWP"><path d="M791.47,247.2573 C787.36,268.1673 781.7856,296.5496 777.6856,317.4396" fill="none" id="Server-to-SWP" style="stroke:#000000;stroke-width:1;"/><polygon fill="#000000" points="776.53,323.3273,782.1884,315.2662,777.493,318.4209,774.3382,313.7254,776.53,323.3273" style="stroke:#000000;stroke-width:1;"/><text fill="#000000" font-family="Verdana" font-size="13" lengthAdjust="spacing" textLength="50.6416" x="786.32" y="290.8371">Manage</text></g><!--link SWP to Grid--><g class="link" data-entity-1="SWP" data-entity-2="Grid" data-source-line="46" data-uid="lnk30" id="link_SWP_Grid"><path d="M773.64,361.2773 C774.39,382.1773 775.3946,410.4612 776.1446,431.3412" fill="none" id="SWP-to-Grid" style="stroke:#000000;stroke-width:1;"/><polygon fill="#000000" points="776.36,437.3373,780.0344,428.1995,776.1805,432.3405,772.0395,428.4867,776.36,437.3373" style="stroke:#000000;stroke-width:1;"/><text fill="#000000" font-family="Verdana" font-size="13" lengthAdjust="spacing" textLength="46.3887" x="776.24" y="404.8571">Update</text></g><!--link Grid to SWrite--><g class="link" data-entity-1="Grid" data-entity-2="SWrite" data-source-line="47" data-uid="lnk31" id="link_Grid_SWrite"><path d="M778.45,475.2873 C780.13,496.1873 782.399,524.4866 784.079,545.3766" fill="none" id="Grid-to-SWrite" style="stroke:#000000;stroke-width:1;"/><polygon fill="#000000" points="784.56,551.3573,787.8257,542.0656,784.1592,546.3734,779.8514,542.7069,784.56,551.3573" style="stroke:#000000;stroke-width:1;"/><text fill="#000000" font-family="Verdana" font-size="13" lengthAdjust="spacing" textLength="34.8359" x="783.04" y="518.8671">Write</text></g><!--link SWrite to UIBack--><g class="link" data-entity-1="SWrite" data-entity-2="UIBack" data-source-line="48" data-uid="lnk32" id="link_SWrite_UIBack"><path d="M788.76,589.0773 C792.37,612.2473 797.7092,646.6084 801.3092,669.7884" fill="none" id="SWrite-to-UIBack" style="stroke:#000000;stroke-width:1;"/><polygon fill="#000000" points="802.23,675.7173,804.8014,666.2101,801.4627,670.7765,796.8962,667.4378,802.23,675.7173" style="stroke:#000000;stroke-width:1;"/><text fill="#000000" font-family="Verdana" font-size="13" lengthAdjust="spacing" textLength="70.6304" x="796.5" y="632.8871">tty_write()</text></g><!--link UIBack to CB1--><g class="link" data-entity-1="UIBack" data-entity-2="CB1" data-source-line="49" data-uid="lnk33" id="link_UIBack_CB1"><path d="M754.38,705.0673 C719.32,713.4873 672.86,728.3873 638,753.2073 C602.4,778.5673 577.8926,819.6488 567.9326,838.0788" fill="none" id="UIBack-to-CB1" style="stroke:#000000;stroke-width:1;"/><polygon fill="#000000" points="565.08,843.3573,572.8779,837.3413,567.4572,838.9586,565.8399,833.5378,565.08,843.3573" style="stroke:#000000;stroke-width:1;"/><text fill="#000000" font-family="Verdana" font-size="13" lengthAdjust="spacing" textLength="85.0269" x="639" y="767.2771">Grid Updates</text></g><!--link UIBack to CB2--><g class="link" data-entity-1="UIBack" data-entity-2="CB2" data-source-line="50" data-uid="lnk34" id="link_UIBack_CB2"><path d="M775.53,713.5073 C761.99,723.4373 747.15,737.0373 739,753.2073 C723.71,783.5473 726.5455,819.9928 728.9255,837.3628" fill="none" id="UIBack-to-CB2" style="stroke:#000000;stroke-width:1;"/><polygon fill="#000000" points="729.74,843.3073,732.4812,833.8476,729.0613,838.3536,724.5553,834.9336,729.74,843.3073" style="stroke:#000000;stroke-width:1;"/><text fill="#000000" font-family="Verdana" font-size="13" lengthAdjust="spacing" textLength="104.5015" x="740" y="767.2771">Layout Changes</text></g><!--link UIBack to CB3--><g class="link" data-entity-1="UIBack" data-entity-2="CB3" data-source-line="51" data-uid="lnk35" id="link_UIBack_CB3"><path d="M819.94,713.3573 C828.9,724.4673 840.21,739.2473 849,753.2073 C869.14,785.2173 885.6116,820.8507 893.1316,837.8407" fill="none" id="UIBack-to-CB3" style="stroke:#000000;stroke-width:1;"/><polygon fill="#000000" points="895.56,843.3273,895.5751,833.4785,893.5363,838.7551,888.2596,836.7164,895.56,843.3273" style="stroke:#000000;stroke-width:1;"/><text fill="#000000" font-family="Verdana" font-size="13" lengthAdjust="spacing" textLength="72.0205" x="859.25" y="767.2771">Copy Mode</text></g><!--link UIBack to CB4--><g class="link" data-entity-1="UIBack" data-entity-2="CB4" data-source-line="52" data-uid="lnk36" id="link_UIBack_CB4"><path d="M831.39,713.3373 C844.38,721.4773 860.54,730.6973 876,737.0173 C903.16,748.1273 913.15,741.3873 940,753.2073 C958.5,761.3573 962,765.8573 978,778.2073 C1006.47,800.1973 1033.0239,825.5484 1047.0239,839.3284" fill="none" id="UIBack-to-CB4" style="stroke:#000000;stroke-width:1;"/><polygon fill="#000000" points="1051.3,843.5373,1047.6918,834.3732,1047.7366,840.0299,1042.0799,840.0747,1051.3,843.5373" style="stroke:#000000;stroke-width:1;"/><text fill="#000000" font-family="Verdana" font-size="13" lengthAdjust="spacing" textLength="34.7852" x="968.57" y="767.2771">Titles</text></g><!--link CB1 to GridMap--><g class="link" data-entity-1="CB1" data-entity-2="GridMap" data-source-line="54" data-uid="lnk37" id="link_CB1_GridMap"><path d="M552.63,861.1473 C534.33,877.8973 488.65,916.5173 442,931.2073 C413.69,940.1273 202.25,927.4473 175,939.2073 C149.91,950.0473 132.4986,969.5773 120.2486,986.4973" fill="none" id="CB1-to-GridMap" style="stroke:#000000;stroke-width:1;"/><polygon fill="#000000" points="116.73,991.3573,125.2479,986.4131,119.6622,987.3073,118.7679,981.7216,116.73,991.3573" style="stroke:#000000;stroke-width:1;"/><text fill="#000000" font-family="Verdana" font-size="13" lengthAdjust="spacing" textLength="49.3403" x="478.54" y="928.2771">Process</text></g><!--link CB2 to GridMap--><g class="link" data-entity-1="CB2" data-entity-2="GridMap" data-source-line="55" data-uid="lnk38" id="link_CB2_GridMap"><path d="M722.13,859.7573 C706.64,870.8773 673.33,893.4973 642,906.2073 C597.55,924.2473 584.58,925.0873 537,931.2073 C517.05,933.7773 193.5,931.3073 175,939.2073 C149.87,949.9473 132.4613,969.492 120.2213,986.452" fill="none" id="CB2-to-GridMap" style="stroke:#000000;stroke-width:1;"/><polygon fill="#000000" points="116.71,991.3173,125.2204,986.3602,119.6361,987.2629,118.7334,981.6785,116.71,991.3173" style="stroke:#000000;stroke-width:1;"/><text fill="#000000" font-family="Verdana" font-size="13" lengthAdjust="spacing" textLength="49.3403" x="621.67" y="928.2771">Process</text></g><!--link CB3 to GridMap--><g class="link" data-entity-1="CB3" data-entity-2="GridMap" data-source-line="56" data-uid="lnk39" id="link_CB3_GridMap"><path d="M890.13,861.1273 C876.38,872.9373 848.6,894.9873 821,906.2073 C762.04,930.1773 743.35,925.1373 680,931.2073 C652.07,933.8873 200.84,928.2673 175,939.2073 C149.83,949.8673 132.4385,969.4301 120.1985,986.4101" fill="none" id="CB3-to-GridMap" style="stroke:#000000;stroke-width:1;"/><polygon fill="#000000" points="116.69,991.2773,125.1977,986.3155,119.6138,987.2213,118.708,981.6374,116.69,991.2773" style="stroke:#000000;stroke-width:1;"/><text fill="#000000" font-family="Verdana" font-size="13" lengthAdjust="spacing" textLength="49.3403" x="799.37" y="928.2771">Process</text></g><!--link CB4 to GridMap--><g class="link" data-entity-1="CB4" data-entity-2="GridMap" data-source-line="57" data-uid="lnk40" id="link_CB4_GridMap"><path d="M1050.16,860.6273 C1035.92,872.1973 1006.58,894.4073 978,906.2073 C927.24,927.1673 911.6,925.3073 857,931.2073 C838.16,933.2473 192.46,931.8573 175,939.2073 C149.81,949.8173 132.4121,969.3854 120.1921,986.3854" fill="none" id="CB4-to-GridMap" style="stroke:#000000;stroke-width:1;"/><polygon fill="#000000" points="116.69,991.2573,125.191,986.2841,119.6084,987.1974,118.6951,981.6147,116.69,991.2573" style="stroke:#000000;stroke-width:1;"/><text fill="#000000" font-family="Verdana" font-size="13" lengthAdjust="spacing" textLength="49.3403" x="957.03" y="928.2771">Process</text></g><!--link GridMap to TBuf--><g class="link" data-entity-1="GridMap" data-entity-2="TBuf" data-source-line="59" data-uid="lnk41" id="link_GridMap_TBuf"><path d="M105,1029.0373 C105,1056.0873 105,1101.2173 105,1128.1773" fill="none" id="GridMap-to-TBuf" style="stroke:#000000;stroke-width:1;"/><polygon fill="#000000" points="105,1134.1773,109,1125.1773,105,1129.1773,101,1125.1773,105,1134.1773" style="stroke:#000000;stroke-width:1;"/><text fill="#000000" font-family="Verdana" font-size="13" lengthAdjust="spacing" textLength="81.688" x="106" y="1083.3071">Update Cells</text></g><!--link TBuf to GPU--><g class="link" data-entity-1="TBuf" data-entity-2="GPU" data-source-line="60" data-uid="lnk42" id="link_TBuf_GPU"><path d="M105,1171.6573 C105,1196.5773 105,1235.5473 105,1260.3473" fill="none" id="TBuf-to-GPU" style="stroke:#000000;stroke-width:1;"/><polygon fill="#000000" points="105,1266.3473,109,1257.3473,105,1261.3473,101,1257.3473,105,1266.3473" style="stroke:#000000;stroke-width:1;"/><text fill="#000000" font-family="Verdana" font-size="13" lengthAdjust="spacing" textLength="46.4014" x="106" y="1233.5071">Render</text></g><!--link GPU to WinMgr--><g class="link" data-entity-1="GPU" data-entity-2="WinMgr" data-source-line="61" data-uid="lnk43" id="link_GPU_WinMgr"><path d="M105,1303.9473 C105,1324.8473 105,1353.1273 105,1374.0073" fill="none" id="GPU-to-WinMgr" style="stroke:#000000;stroke-width:1;"/><polygon fill="#000000" points="105,1380.0073,109,1371.0073,105,1375.0073,101,1371.0073,105,1380.0073" style="stroke:#000000;stroke-width:1;"/><text fill="#000000" font-family="Verdana" font-size="13" lengthAdjust="spacing" textLength="47.5249" x="106" y="1347.5271">Display</text></g><!--link PTY to Server--><g class="link" data-entity-1="PTY" data-entity-2="Server" data-source-line="63" data-uid="lnk44" id="link_PTY_Server"><path d="M805.91,133.2473 C803.49,154.1473 800.2036,182.4675 797.7736,203.3475" fill="none" id="PTY-to-Server" style="stroke:#000000;stroke-width:1;"/><polygon fill="#000000" points="797.08,209.3073,802.0936,200.83,797.658,204.3408,794.1472,199.9052,797.08,209.3073" style="stroke:#000000;stroke-width:1;"/><text fill="#000000" font-family="Verdana" font-size="13" lengthAdjust="spacing" textLength="75.5181" x="803.28" y="176.8271">Process I/O</text></g><!--link Cmd to Server--><g class="link" data-entity-1="Cmd" data-entity-2="Server" data-source-line="64" data-uid="lnk45" id="link_Cmd_Server"><path d="M669.94,133.2473 C697.74,154.1473 738.5437,184.8223 766.3237,205.7023" fill="none" id="Cmd-to-Server" style="stroke:#000000;stroke-width:1;"/><polygon fill="#000000" points="771.12,209.3073,766.3289,200.7023,767.1231,206.3032,761.5223,207.0974,771.12,209.3073" style="stroke:#000000;stroke-width:1;"/><text fill="#000000" font-family="Verdana" font-size="13" lengthAdjust="spacing" textLength="51.5239" x="730.42" y="176.8271">Execute</text></g><!--link LoopAdapter to Server--><g class="link" data-entity-1="LoopAdapter" data-entity-2="Server" data-source-line="66" data-uid="lnk46" id="link_LoopAdapter_Server"><path d="M418.58,1007.3573 C583.11,1000.7673 1109.84,976.5573 1273,931.2073 C1348.84,910.1373 1432,931.9273 1432,853.2073 C1432,341.2773 1432,341.2773 1432,341.2773 C1432,265.0173 1347.03,295.0673 1273,276.7673 C1122.62,239.6073 944.8089,231.4832 855.2589,229.7532" fill="none" id="LoopAdapter-to-Server" style="stroke:#000000;stroke-width:1;"/><polygon fill="#000000" points="849.26,229.6373,858.1811,233.8104,854.2591,229.7339,858.3356,225.8119,849.26,229.6373" style="stroke:#000000;stroke-width:1;"/><text fill="#000000" font-family="Verdana" font-size="13" lengthAdjust="spacing" textLength="72.6934" x="1433" y="575.8771">Event Loop</text></g><!--link FFI to GMN50--><g class="link" data-entity-1="FFI" data-entity-2="GMN50" data-source-line="75" data-uid="lnk52" id="link_FFI_GMN50"><path d="M264.58,1037.4973 C275.22,1046.7173 288.28,1056.0573 302,1061.2373 C334.47,1073.5073 425.56,1056.8973 458,1069.2373 C484.14,1079.1873 508.75,1098.4073 527.36,1115.8173" fill="none" id="FFI-GMN50" style="stroke:#000000;stroke-width:1;stroke-dasharray:7,7;"/></g><!--SRC=[XLNDZjCm4BxxAGOu02jL5UoUUa1g2vIALbJRhbRygV8cqzJQn0wsizs0U0uUY1TZnd6MjhIbXpGpt_nv_CtaaLzZWL3cKcdXbSyHHclZlA_Xzo_mHNKFxrIsxapm3dCOQu-PbLuP3NsRh9N7n5SMXN2tIfVIoW8IKvH6e_PpNrCqInPIPpbkcPGokPKP7ZT8SIMht2_mtlTpbUc2ma523xH2H6zut1QwG5ieBVF7y4C0_HugWC-jIRyilu9qCA8NU3AX4_b1Nk6-UHi91jLgXJQuBEZzXCjeTWMNg5EqqPuLnyt7kgmyl9CwpQDzepdkSQrqQZOmbPeEtRYGQfhPVP_mU6ZEzbLDP8ssxSvU-BTlnp2mAitmYtxsIMNFGmRMDk575b4VSdnpntyJOyelkf_AqiVYM1Fb_uKOKLuwM5cshIEPn7_SVegVMzUUgnlcPM8i7hZnGDavshiOitcD8JzYdflDliiSdQCsTPjETsTIO-DwFJlf5ygVryvZyL3-wKG97mckhMgRDG_l9vskw7xew4Inu74rPWcUVB0qDF-GPMYAWhYrNTMmE5tKRF6nExCceIO4Uv9txRTxFvHvVaE2QpklU2PNCY7Cw6L67LXMPIezNGtd7hmuO9NBsbH-cQpv1D7kvG6xn9JriZ1fQtD-m2QihDrG5rpnKnWQhMcrqCKw4SQ-qtaLUDsZaLDUoLnzHy4A1Y9DUhJoagKBmbBZvjbpqSpdN-VtM7Udfd88OGBSiH0wNTvYxIY2Y4Wm8axruZ0B5bWPYDE3gz0u4QJ6Df2Zrn16H96HI09AvUlbXjMK9YePfxuJ608rGTqk-fBGIRW568RMxU7dX0-f-p2bxkz25mGjkEbE24xJrizpsuD89C4fZY7dHv6B8uXeLGo7VTms2uR4KIU2BlZIykt5VInOO6LSbpruhHnzw6eXcECxLnOpmRZxGV30x81lxZ6fw0B4zchRjNZOXK9eGsLPdXymgtXJHDopCo8ECK-Rkx2Kpyv8UObK3oM61HM4Bf4bWiDl5MfI4hvHVWtEsofyPLD8sl4JT4BWJ37VZV7U59oGs1Yo3Q4_Q3TxoDM1kPStzC7jpyP0PVFA2-h5sg9CEqwkS2i18rCiZAsX26pbR_3Vj7y0]--></g></svg>